<?xml version="1.0" encoding="iso-8859-1"?>
<!-- Uploaded to: SVG Repo, www.svgrepo.com, Generator: SVG Repo Mixer Tools -->
<svg version="1.1" id="Layer_1" xmlns="http://www.w3.org/2000/svg" xmlns:xlink="http://www.w3.org/1999/xlink" 
	 viewBox="0 0 511.989 511.989" xml:space="preserve">
<g>
	<path style="fill:#434A54;" d="M106.67,495.985H63.999c-5.891,0-10.672-4.781-10.672-10.656c0-5.906,4.781-10.688,10.672-10.688
		h42.671c5.89,0,10.656,4.781,10.656,10.688C117.326,491.204,112.56,495.985,106.67,495.985z"/>
	<path style="fill:#434A54;" d="M447.99,495.985h-42.67c-5.891,0-10.672-4.781-10.672-10.656c0-5.906,4.781-10.688,10.672-10.688
		h42.67c5.891,0,10.656,4.781,10.656,10.688C458.646,491.204,453.881,495.985,447.99,495.985z"/>
	<path style="fill:#434A54;" d="M511.802,419.393l-53.327-288c-0.938-5.062-5.344-8.734-10.484-8.734h-42.67
		c-3.016,0-5.891,1.281-7.922,3.531c-2.016,2.234-3,5.234-2.688,8.234l31.999,309.313c0.328,3.219,2.109,6.125,4.827,7.875
		c1.75,1.125,3.75,1.719,5.781,1.719c1.141,0,2.281-0.188,3.375-0.562l63.999-21.344
		C509.739,429.768,512.77,424.612,511.802,419.393z"/>
</g>
<path style="fill:#48CFAD;" d="M447.99,357.333c-0.188,0-0.391,0-0.578,0L50.749,378.708c-0.094,0-0.172,0.031-0.266,0.031
	C22.14,380.239,0,403.55,0,431.987c0,29.406,23.921,53.342,53.327,53.342H447.99c35.281,0,63.999-28.717,63.999-63.998
	C511.989,386.018,483.271,357.333,447.99,357.333z"/>
<path style="fill:#37BC9B;" d="M53.328,442.643c-5.766,0-10.5-4.594-10.656-10.375c-0.156-5.875,4.484-10.781,10.375-10.938
	l405.334-10.688c5.875-0.156,10.781,4.5,10.938,10.406c0.156,5.875-4.5,10.781-10.391,10.938L53.609,442.643
	C53.515,442.643,53.421,442.643,53.328,442.643z"/>
<path style="fill:#48CFAD;" d="M447.99,144.001H282.666c-14.719-0.015-26.671-11.967-26.671-26.671s11.968-26.671,26.671-26.671
	c0.031,0,0.062,0,0.109,0h125.341l18.938-66.905c1.312-4.594,5.499-7.75,10.265-7.75h42.672c3.375,0,6.547,1.594,8.562,4.297
	c2,2.703,2.625,6.203,1.656,9.422l-32,106.669C456.849,140.908,452.693,144.001,447.99,144.001z"/>
<path style="fill:#656D78;" d="M373.32,90.659h-90.545c-0.047,0-0.078,0-0.109,0c-14.703,0-26.671,11.968-26.671,26.671
	s11.952,26.655,26.671,26.671h90.654L373.32,90.659L373.32,90.659z"/>
<rect x="309.325" y="90.655" style="fill:#434A54;" width="21.343" height="53.34"/>
</svg>