<?xml version="1.0" encoding="iso-8859-1"?>
<!-- Uploaded to: SVG Repo, www.svgrepo.com, Generator: SVG Repo Mixer Tools -->
<svg version="1.1" id="Layer_1" xmlns="http://www.w3.org/2000/svg" xmlns:xlink="http://www.w3.org/1999/xlink" 
	 viewBox="0 0 511.988 511.988" xml:space="preserve">
<path style="fill:#5D9CEC;" d="M454.712,385.787l-1.812-0.531c-26.468-7.108-35.437-13.952-47.248-18.437
	c-41.812-15.937-52.719-27.421-55.469-32.843c-0.125-0.188-0.188-0.406-0.281-0.609l-0.344-48.577l-99.192-1.125l-99.217,1.125
	l-0.344,48.577c-0.094,0.203-0.172,0.422-0.266,0.609c-2.78,5.422-13.671,16.906-55.498,32.843
	c-11.797,4.484-20.75,11.328-47.233,18.437l-1.828,0.531c-24.109,7.969-40.327,30.328-40.327,55.562v70.154h244.713h244.689v-70.154
	C495.055,416.115,478.837,393.756,454.712,385.787z"/>
<g>
	<polygon style="fill:#E6E9ED;" points="151.07,297.212 150.805,333.367 201.647,394.662 250.349,362.897 	"/>
	<polygon style="fill:#E6E9ED;" points="250.349,362.897 299.059,394.662 349.901,333.367 349.964,298.634 	"/>
</g>
<path style="fill:#EAC6BB;" d="M387.995,191.151c0,89.436-85.248,171.746-137.63,171.746c-52.405,0-137.669-82.311-137.669-171.746
	s61.64-148.449,137.669-148.449C326.371,42.702,387.995,101.716,387.995,191.151z"/>
<path style="fill:#FC6E51;" d="M352.964,211.495c-16.593,0.5-24.562,17.702-24.562,17.702c14.999-4.609,28.437,6.172,11.156,15.484
	c-34.312,18.516-60.28-49.64-89.193-16.671c-28.952-32.968-54.921,35.187-89.201,16.671c-17.28-9.312-3.875-20.093,11.141-15.484
	c0,0-7.969-17.202-24.562-17.702c-21.719-0.672-70.202,78.029,44.405,88.576c21.874,2,45.092-7.078,58.217-21.469
	c13.093,14.391,36.319,23.469,58.194,21.469C423.182,289.524,374.682,210.823,352.964,211.495z"/>
<path style="fill:#434A54;" d="M261.02,10.671c0,5.89-4.78,10.671-10.671,10.671c-5.891,0-10.656-4.781-10.656-10.671
	C239.693,4.78,244.459,0,250.349,0C256.239,0,261.02,4.781,261.02,10.671z"/>
<path style="fill:#ED5564;" d="M250.349,10.671c-77.061,0-141.935,63.545-141.935,141.934l-0.016,39.39h283.877l0.031-39.39
	C392.307,74.217,327.402,10.671,250.349,10.671z"/>
<path style="fill:#FFCE54;" d="M404.557,182.574c0,0-29-54.577-154.208-54.577c-125.185,0-154.215,54.577-154.215,54.577
	c-2.75,5.187-0.203,9.421,5.672,9.421h297.095C404.776,191.995,407.307,187.761,404.557,182.574z"/>
<g>
	<path style="fill:#F6BB42;" d="M403.12,180.324c-1.094,0.641-2.5,1.016-4.219,1.016H101.806c-1.719,0-3.141-0.375-4.234-1.016
		c-0.984,1.438-1.438,2.25-1.438,2.25c-2.75,5.187-0.203,9.421,5.672,9.421h297.095c5.875,0,8.406-4.234,5.656-9.421
		C404.557,182.574,404.12,181.761,403.12,180.324z"/>
	<path style="fill:#F6BB42;" d="M282.341,85.342c0,17.671-14.32,31.999-31.991,31.999s-31.999-14.328-31.999-31.999
		c0-17.688,14.328-32,31.999-32S282.341,67.654,282.341,85.342z"/>
</g>
<g>
	<path style="fill:#434A54;" d="M257.895,397.787c4.156,4.172,4.156,10.922,0,15.094c-4.171,4.156-10.921,4.156-15.093,0
		c-4.156-4.172-4.156-10.922,0-15.094C246.974,393.615,253.724,393.615,257.895,397.787z"/>
	<path style="fill:#434A54;" d="M257.895,429.787c4.156,4.172,4.156,10.922,0,15.094c-4.171,4.155-10.921,4.155-15.093,0
		c-4.156-4.172-4.156-10.922,0-15.094C246.974,425.615,253.724,425.615,257.895,429.787z"/>
	<path style="fill:#434A54;" d="M495.68,319.992H303.684c-5.906,0-10.656,4.781-10.656,10.672v181.324h213.308V330.664
		C506.336,324.773,501.586,319.992,495.68,319.992z M485.024,490.66H314.341V341.336h170.683V490.66z"/>
</g>
<rect x="314.344" y="341.334" style="fill:#E6E9ED;" width="170.68" height="170.17"/>
<polygon style="fill:#FFCE54;" points="453.024,362.664 346.339,362.664 325.027,319.992 474.337,319.992 "/>
<g>
	<path style="fill:#434A54;" d="M399.682,469.333h-53.344c-5.874,0-10.655-4.781-10.655-10.672s4.781-10.671,10.655-10.671h53.344
		c5.906,0,10.655,4.78,10.655,10.671S405.589,469.333,399.682,469.333z"/>
	<path style="fill:#434A54;" d="M453.024,426.662H346.339c-5.874,0-10.655-4.781-10.655-10.672s4.781-10.656,10.655-10.656h106.685
		c5.875,0,10.656,4.766,10.656,10.656S458.899,426.662,453.024,426.662z"/>
</g>
</svg>