<svg xmlns="http://www.w3.org/2000/svg" viewBox="0.08571429550647736 15.300000190734863 23.614286422729492 35.70000076293945" data-asc="1.011" width="23.614286422729492" height="35.70000076293945"><defs/><g><g><g transform="translate(0, 0)"><path d="M11.80 51Q8.95 51 6.13 50.15Q3.30 49.30 1 47.50Q0.40 47.10 0.20 46.55Q0 46 0.15 45.45Q0.30 44.90 0.70 44.52Q1.10 44.15 1.67 44.10Q2.25 44.05 2.90 44.50Q4.95 45.95 7.15 46.65Q9.35 47.35 11.75 47.35Q14.20 47.35 15.98 46.42Q17.75 45.50 18.68 43.82Q19.60 42.15 19.60 39.90Q19.60 36.45 17.60 34.25Q15.60 32.05 12.10 32.05Q9.95 32.05 8.15 32.85Q6.35 33.65 4.85 35.40Q4.50 35.80 4.03 36.07Q3.55 36.35 2.95 36.35Q2.10 36.35 1.63 35.88Q1.15 35.40 1.15 34.60L1.15 17.20Q1.15 16.25 1.65 15.77Q2.15 15.30 3.05 15.30L20.05 15.30Q21.00 15.30 21.48 15.75Q21.95 16.20 21.95 17.05Q21.95 17.90 21.48 18.35Q21.00 18.80 20.05 18.80L5.20 18.80L5.20 32.85L4.10 32.85Q5.40 30.75 7.70 29.62Q10 28.50 12.85 28.50Q16.20 28.50 18.63 29.90Q21.05 31.30 22.38 33.82Q23.70 36.35 23.70 39.70Q23.70 43 22.25 45.55Q20.80 48.10 18.15 49.55Q15.50 51 11.80 51Z"/></g></g></g></svg>