
<svg xmlns="http://www.w3.org/2000/svg" version="1.1" xmlns:xlink="http://www.w3.org/1999/xlink" preserveAspectRatio="none" x="0px" y="0px" width="1005px" height="1005px" viewBox="0 0 1005 1005">
<defs>
<g id="Layer1_0_FILL">
<path fill="#FFFFFF" stroke="none" d="
M 717.3 780.4
L 717.3 402.95 413.85 99.5 268.1 245.25 268.1 582.4 576.15 890.45 607.3 890.45 717.3 780.4
M 717.3 780.4
L 607.3 890.45 717.3 890.4 717.3 780.4 Z"/>
</g>

<g id="Mask_chocolate_bar_candy_dairymilk_sweet_dessert_svgrepo_com_svg_svg2__Clip_Group__0_2_MASK_0_FILL">
<path fill="#FFFFFF" stroke="none" d="
M 0 0
L 0 800 800 800 800 0 0 0 Z"/>
</g>

<g id="chocolate_bar_candy_dairymilk_sweet_dessert_svgrepo_com_svg_svg2__Clip_Group__0_Layer2_0_MEMBER_0_MEMBER_0_FILL">
<path fill="#C1694F" stroke="none" d="
M 742.9 549.55
Q 749.1 534.35 749.1 517.85 749.1 501.35 742.9 486.15 736.5 470.4 724.4 458.3
L 322.45 56.35
Q 297.75 31.7 277.8 31.7 257.8 31.7 233.15 56.35
L 54.5 235
Q 29.85 259.7 29.85 279.65 29.85 299.65 54.5 324.3
L 456.45 726.25
Q 468.55 738.35 484.3 744.75 499.5 750.95 516 750.95 532.45 750.95 547.7 744.75 563.45 738.35 575.55 726.25
L 724.4 577.4
Q 736.5 565.3 742.9 549.55 Z"/>
</g>

<g id="Mask_chocolate_bar_candy_dairymilk_sweet_dessert_svgrepo_com_svg_svg2__Clip_Group__0_0_2_MASK_0_FILL">
<path fill="#FFFFFF" stroke="none" d="
M 719.25 486.15
Q 719.25 469.65 713.05 454.45 706.65 438.7 694.55 426.6
L 292.6 24.65
Q 280.1 12.15 269.4 6.15 258.4 0 247.95 0 237.5 0 226.5 6.15 215.75 12.15 203.3 24.65
L 24.65 203.3
Q 0 228 0 247.95 0 267.95 24.65 292.6
L 426.6 694.55
Q 438.7 706.65 454.45 713.05 469.65 719.25 486.15 719.25 502.6 719.25 517.85 713.05 533.6 706.65 545.7 694.55
L 694.55 545.7
Q 706.65 533.6 713.05 517.85 719.25 502.65 719.25 486.15 Z"/>
</g>

<g id="chocolate_bar_candy_dairymilk_sweet_dessert_svgrepo_com_svg_svg2__Clip_Group__0_0_Layer2_0_MEMBER_0_MEMBER_0_FILL">
<path fill="#8A4B38" stroke="none" d="
M 360.85 84.2
L 331.1 54.45 207.65 177.9 113.95 84.2 84.2 113.95 177.9 207.65 18.5 367.05 48.25 396.85 207.65 237.4 635 664.75 664.8 635 237.45 207.65 360.85 84.2 Z"/>
</g>

<g id="Mask_chocolate_bar_candy_dairymilk_sweet_dessert_svgrepo_com_svg_svg2__Clip_Group__1_0_2_MASK_0_FILL">
<path fill="#FFFFFF" stroke="none" d="
M 0 0
L 0 800 800 800 800 0 0 0 Z"/>
</g>

<g id="chocolate_bar_candy_dairymilk_sweet_dessert_svgrepo_com_svg_svg2__Clip_Group__1_0_Layer2_0_MEMBER_0_MEMBER_0_FILL">
<path fill="#DD2E44" stroke="none" d="
M 772.65 486.15
Q 766.25 470.4 754.15 458.3
L 545.75 249.9
Q 533.65 237.8 517.9 231.4 502.7 225.25 486.2 225.25 469.7 225.25 454.5 231.4 438.75 237.8 426.65 249.9
L 248.05 428.5
Q 235.95 440.6 229.55 456.35 223.4 471.55 223.4 488.05 223.4 504.55 229.55 519.75 235.95 535.5 248.05 547.65
L 456.45 756.05
Q 468.55 768.15 484.3 774.55 499.5 780.7 516 780.7 532.45 780.7 547.7 774.55 563.45 768.15 575.55 756.05
L 754.15 577.4
Q 766.25 565.3 772.65 549.55 778.85 534.35 778.85 517.85 778.85 501.35 772.65 486.15 Z"/>
</g>

<g id="Mask_chocolate_bar_candy_dairymilk_sweet_dessert_svgrepo_com_svg_svg2__Clip_Group__2_0_2_MASK_0_FILL">
<path fill="#FFFFFF" stroke="none" d="
M 549.3 275.6
Q 542.9 259.85 530.8 247.75
L 322.4 39.35
Q 310.3 27.25 294.55 20.85 279.35 14.7 262.85 14.7 246.35 14.7 231.15 20.85 215.4 27.25 203.3 39.35
L 24.7 218
Q 12.6 230.1 6.2 245.85 0.05 261.05 0.05 277.5 0.05 294 6.2 309.2 12.6 324.95 24.7 337.1
L 233.1 545.5
Q 245.2 557.6 260.95 564 276.15 570.15 292.65 570.15 309.1 570.15 324.35 564 340.1 557.6 352.2 545.5
L 530.8 366.85
Q 542.9 354.75 549.3 339 555.5 323.8 555.5 307.3 555.5 290.8 549.3 275.6 Z"/>
</g>

<g id="chocolate_bar_candy_dairymilk_sweet_dessert_svgrepo_com_svg_svg2__Clip_Group__2_0_Layer2_0_MEMBER_0_MEMBER_0_FILL">
<path fill="#BE1931" stroke="none" d="
M 29.25 442.1
L 155.55 505.25 345.05 21.05 302.95 0 29.25 442.1 Z"/>
</g>

<g id="Mask_chocolate_bar_candy_dairymilk_sweet_dessert_svgrepo_com_svg_svg2__Clip_Group__3_0_2_MASK_0_FILL">
<path fill="#FFFFFF" stroke="none" d="
M 0 0
L 0 800 800 800 800 0 0 0 Z"/>
</g>

<g id="chocolate_bar_candy_dairymilk_sweet_dessert_svgrepo_com_svg_svg2__Clip_Group__3_0_Layer2_0_MEMBER_0_MEMBER_0_FILL">
<path fill="#CCD6DD" stroke="none" d="
M 545.75 249.9
L 501.1 205.25
Q 493.65 197.8 482.5 194.1 460.15 186.65 441.55 205.25
L 173.6 473.2
Q 162.8 484 162.8 503 162.85 522 173.6 532.7
L 285.25 644.35
Q 308.5 667.65 325.25 654.6 330.5 650.55 334.45 643.35
L 337.35 636.95
Q 346.65 618.4 380.4 557.65 423.9 479.7 447.15 437.85 537.05 275.95 545.75 249.9 Z"/>
</g>

<path id="Layer1_0_1_STROKES" stroke="#FFFFFF" stroke-width="199" stroke-linejoin="round" stroke-linecap="round" fill="none" d="
M 717.3 402.95
L 906 591.65 717.3 780.4
M 607.3 890.45
L 591.7 906 576.15 890.45 268.1 582.4 99.5 413.8 268.1 245.25 413.85 99.5 717.3 402.95
M 717.3 780.4
L 607.3 890.45"/>
</defs>

<g transform="matrix( 1, 0, 0, 1, 0,0) ">
<use xlink:href="#Layer1_0_FILL"/>

<use xlink:href="#Layer1_0_1_STROKES"/>
</g>

<g transform="matrix( 1, 0, 0, 1, 103.4,94.55) ">
<mask id="Mask_Mask_1">
<g transform="matrix( 1, 0, 0, 1, 0,0) ">
<use xlink:href="#Mask_chocolate_bar_candy_dairymilk_sweet_dessert_svgrepo_com_svg_svg2__Clip_Group__0_2_MASK_0_FILL"/>
</g>
</mask>

<g mask="url(#Mask_Mask_1)">
<g transform="matrix( 1, 0, 0, 1, 0,0) ">
<use xlink:href="#chocolate_bar_candy_dairymilk_sweet_dessert_svgrepo_com_svg_svg2__Clip_Group__0_Layer2_0_MEMBER_0_MEMBER_0_FILL"/>
</g>
</g>
</g>

<g transform="matrix( 1, 0, 0, 1, 133.25,126.25) ">
<mask id="Mask_Mask_2">
<g transform="matrix( 1, 0, 0, 1, 0,0) ">
<use xlink:href="#Mask_chocolate_bar_candy_dairymilk_sweet_dessert_svgrepo_com_svg_svg2__Clip_Group__0_0_2_MASK_0_FILL"/>
</g>
</mask>

<g mask="url(#Mask_Mask_2)">
<g transform="matrix( 1, 0, 0, 1, 0,0) ">
<use xlink:href="#chocolate_bar_candy_dairymilk_sweet_dessert_svgrepo_com_svg_svg2__Clip_Group__0_0_Layer2_0_MEMBER_0_MEMBER_0_FILL"/>
</g>
</g>
</g>

<g transform="matrix( 1, 0, 0, 1, 103.4,94.55) ">
<mask id="Mask_Mask_3">
<g transform="matrix( 1, 0, 0, 1, 0,0) ">
<use xlink:href="#Mask_chocolate_bar_candy_dairymilk_sweet_dessert_svgrepo_com_svg_svg2__Clip_Group__1_0_2_MASK_0_FILL"/>
</g>
</mask>

<g mask="url(#Mask_Mask_3)">
<g transform="matrix( 1, 0, 0, 1, 0,0) ">
<use xlink:href="#chocolate_bar_candy_dairymilk_sweet_dessert_svgrepo_com_svg_svg2__Clip_Group__1_0_Layer2_0_MEMBER_0_MEMBER_0_FILL"/>
</g>
</g>
</g>

<g transform="matrix( 1, 0, 0, 1, 326.75,305.1) ">
<mask id="Mask_Mask_4">
<g transform="matrix( 1, 0, 0, 1, 0,0) ">
<use xlink:href="#Mask_chocolate_bar_candy_dairymilk_sweet_dessert_svgrepo_com_svg_svg2__Clip_Group__2_0_2_MASK_0_FILL"/>
</g>
</mask>

<g mask="url(#Mask_Mask_4)">
<g transform="matrix( 1, 0, 0, 1, 0,0) ">
<use xlink:href="#chocolate_bar_candy_dairymilk_sweet_dessert_svgrepo_com_svg_svg2__Clip_Group__2_0_Layer2_0_MEMBER_0_MEMBER_0_FILL"/>
</g>
</g>
</g>

<g transform="matrix( 1, 0, 0, 1, 103.4,94.55) ">
<mask id="Mask_Mask_5">
<g transform="matrix( 1, 0, 0, 1, 0,0) ">
<use xlink:href="#Mask_chocolate_bar_candy_dairymilk_sweet_dessert_svgrepo_com_svg_svg2__Clip_Group__3_0_2_MASK_0_FILL"/>
</g>
</mask>

<g mask="url(#Mask_Mask_5)">
<g transform="matrix( 1, 0, 0, 1, 0,0) ">
<use xlink:href="#chocolate_bar_candy_dairymilk_sweet_dessert_svgrepo_com_svg_svg2__Clip_Group__3_0_Layer2_0_MEMBER_0_MEMBER_0_FILL"/>
</g>
</g>
</g>
</svg>
