
<svg xmlns="http://www.w3.org/2000/svg" version="1.1" xmlns:xlink="http://www.w3.org/1999/xlink" preserveAspectRatio="none" x="0px" y="0px" width="812px" height="914px" viewBox="0 0 812 914">
<defs>
<g id="Layer1_0_FILL">
<path fill="#FFFFFF" stroke="none" d="
M 808 456.75
Q 834.7 217.5 689.45 88.4 414.05 -81.7 149.05 75.45 -35.2 195.3 8.3 417.25
L 59.8 787.2
Q 79.05 894.4 177.25 914.7
L 632.2 914.7
Q 732.2 907.65 755.25 800.55
L 808 456.75 Z"/>
</g>

<g id="Mask_french_fries_fastfood_food_emoj_symbol_svgrepo_com_svg_svg2__Clip_Group__0_2_MASK_0_FILL">
<path fill="#FFFFFF" stroke="none" d="
M 0 0
L 0 800 800 800 800 0 0 0 Z"/>
</g>

<g id="french_fries_fastfood_food_emoj_symbol_svgrepo_com_svg_svg2__Clip_Group__0_Layer2_0_MEMBER_0_MEMBER_0_FILL">
<path fill="#DD2E44" stroke="none" d="
M 715.3 332.55
Q 715.75 328.4 715.75 326.35 715.75 264.7 690.95 214.1 667.35 166.05 623.3 131.55 580.6 98.2 522.9 80.6 465.7 63.2 400 63.2 334.25 63.2 277.05 80.6 219.35 98.2 176.7 131.55 132.6 166.05 109 214.1 84.2 264.7 84.2 326.35 84.2 328.65 84.55 333.35 84.55 333.9 84.35 335.1 84.2 336.2 84.2 336.85
L 85.1 344.15
Q 86.55 369.85 91.2 393.15
L 126.3 673.7
Q 126.3 690.85 132.9 706.45 139.3 721.6 150.95 733.25 162.6 744.9 177.75 751.3 193.35 757.9 210.5 757.9
L 589.45 757.9
Q 606.6 757.9 622.2 751.3 637.35 744.9 649 733.25 660.65 721.6 667.05 706.45 673.65 690.85 673.65 673.7
L 712.4 363.95
Q 713.1 359.25 714.1 350.45
L 715.75 336.85
Q 715.75 336.05 715.55 334.7 715.35 333.1 715.3 332.55 Z"/>
</g>

<g id="Mask_french_fries_fastfood_food_emoj_symbol_svgrepo_com_svg_svg2__Clip_Group__0_0_2_MASK_0_FILL">
<path fill="#FFFFFF" stroke="none" d="
M 652.2 290.4
Q 652.6 286.25 652.6 284.2 652.6 222.55 627.8 171.95 604.2 123.9 560.15 89.4 517.45 56.05 459.75 38.45 402.55 21.05 336.85 21.05 271.1 21.05 213.9 38.45 156.2 56.05 113.55 89.4 69.45 123.9 45.85 171.95 21.05 222.55 21.05 284.2 21.05 286.5 21.4 291.2 21.4 291.75 21.2 292.95 21.05 294.05 21.05 294.7
L 21.95 302
Q 23.4 327.7 28.05 351
L 63.15 631.55
Q 63.15 648.7 69.75 664.3 76.15 679.45 87.8 691.1 99.45 702.75 114.6 709.15 130.2 715.75 147.35 715.75
L 526.3 715.75
Q 543.45 715.75 559.05 709.15 574.2 702.75 585.85 691.1 597.5 679.45 603.9 664.3 610.5 648.7 610.5 631.55
L 649.25 321.8
Q 650 317 650.95 308.25
L 652.6 294.7
Q 652.6 293.9 652.4 292.55 652.2 291.1 652.2 290.4 Z"/>
</g>

<g id="french_fries_fastfood_food_emoj_symbol_svgrepo_com_svg_svg2__Clip_Group__0_0_Layer2_0_MEMBER_0_MEMBER_0_FILL">
<path fill="#BE1931" stroke="none" d="
M 661.3 317.6
Q 673.65 321.4 673.65 336.8
L 694.7 336.8 694.7 0 0 0 0 335.85
Q 0.3859375 321.28125 12.35 317.6 17.25 316.05 25.7 315.8 26.5 315.75 42.1 315.75 60.7 315.75 61.8 315.8 74.15 316.05 82.4 317.6 105.25 321.75 105.25 336.8 105.25 358.5 121.8 377.8 138.2 396.9 168.7 411.25 199.8 425.9 241.8 433.8 285.65 442.1 336.85 442.1 388 442.1 431.9 433.8 473.85 425.9 504.95 411.25 535.45 396.9 551.85 377.8 568.4 358.5 568.4 336.8 568.4 321.75 591.25 317.6 599.5 316.05 611.85 315.8 612.95 315.75 631.55 315.75 647.15 315.75 647.95 315.8 656.4 316.05 661.3 317.6 Z"/>
</g>

<g id="Mask_french_fries_fastfood_food_emoj_symbol_svgrepo_com_svg_svg2__Clip_Group__1_0_2_MASK_0_FILL">
<path fill="#FFFFFF" stroke="none" d="
M 661.35 317.6
Q 673.65 321.4 673.65 336.8
L 694.7 336.8 694.7 0 0 0 0 335.85
Q 0.3859375 321.28125 12.35 317.6 17.25 316.05 25.7 315.8 26.5 315.75 42.1 315.75 60.7 315.75 61.8 315.8 74.15 316.05 82.4 317.6 105.25 321.75 105.25 336.8 105.25 358.5 121.8 377.8 138.2 396.9 168.7 411.25 199.8 425.9 241.8 433.8 285.65 442.1 336.85 442.1 388 442.1 431.9 433.8 473.85 425.9 504.95 411.25 535.45 396.9 551.85 377.8 568.4 358.5 568.4 336.8 568.4 321.75 591.25 317.6 599.5 316.05 611.85 315.8 612.95 315.75 631.55 315.75 647.15 315.75 647.95 315.8 656.4 316.05 661.35 317.6 Z"/>
</g>

<g id="french_fries_fastfood_food_emoj_symbol_svgrepo_com_svg_svg2__Clip_Group__1_0_Layer2_0_MEMBER_0_MEMBER_0_FILL">
<path fill="#F4900C" stroke="none" d="
M 281 137.7
Q 268.3 134.7 257.15 141.55 246 148.4 242.95 161.1
L 137.7 603.2
Q 134.65 615.9 141.5 627.05 148.35 638.2 161.1 641.2 164.8 642.1 168.45 642.1 179.25 642.1 187.85 635.4 196.55 628.6 199.15 617.85
L 304.4 175.75
Q 307.4 163 300.55 151.85 293.7 140.75 281 137.7 Z"/>
</g>

<g id="french_fries_fastfood_food_emoj_symbol_svgrepo_com_svg_svg2__Clip_Group__1_0_Layer2_0_MEMBER_1_MEMBER_0_FILL">
<path fill="#F4900C" stroke="none" d="
M 457.55 359.2
Q 458.2 370.25 457.25 385.35 457.05 389 455.25 410.5 452.9 438.8 456.9 446.05 462.65 456.5 484.2 442.1 527.6 413.15 550 368.4 568.4 331.55 568.4 294.7 568.4 284.2 571.05 260.5 573.65 236.8 573.65 226.3 573.65 208.75 568.4 200 562.1 189.45 547.35 189.45
L 484.2 189.45
Q 452.65 221.05 439.45 244.7 415.05 288.7 442.1 315.75 455.85 329.5 457.55 359.2 Z"/>
</g>

<g id="french_fries_fastfood_food_emoj_symbol_svgrepo_com_svg_svg2__Clip_Group__1_0_Layer2_0_MEMBER_2_MEMBER_0_FILL">
<path fill="#F4900C" stroke="none" d="
M 368.4 292.05
Q 375.6 266.95 357.9 231.55 344.75 205.25 328.95 184.2 324 177.65 319.4 172.35
L 315.75 168.4
Q 308.15 168.4 297 175.3 286.65 181.7 276.3 192.1 265.9 202.45 259.5 212.8 252.6 223.95 252.6 231.55 252.6 273.65 260.5 300 275.55 350.25 315.75 336.8 359.8 322.1 368.4 292.05 Z"/>
</g>

<g id="french_fries_fastfood_food_emoj_symbol_svgrepo_com_svg_svg2__Clip_Group__1_0_Layer2_0_MEMBER_3_MEMBER_0_FILL">
<path fill="#F4900C" stroke="none" d="
M 356.75 143.95
Q 346.6 135.65 333.7 136.95 320.65 138.25 312.35 148.4 304.1 158.55 305.4 171.55
L 347.5 592.6
Q 348.75 604.8 357.8 612.95 366.8 621.05 378.9 621.05 380.65 621.05 382.05 620.85 395.1 619.6 403.4 609.45 411.65 599.3 410.35 586.3
L 368.25 165.25
Q 366.95 152.25 356.75 143.95 Z"/>
</g>

<g id="french_fries_fastfood_food_emoj_symbol_svgrepo_com_svg_svg2__Clip_Group__1_0_Layer2_0_MEMBER_4_MEMBER_0_FILL">
<path fill="#F4900C" stroke="none" d="
M 494.45 130.55
Q 496.2 117.6 488.3 107.2 480.35 96.75 467.4 95 454.3 93.25 443.95 101.15 433.6 109.05 431.85 122
L 368.7 585.2
Q 366.9 598.15 374.85 608.55 382.75 619 395.7 620.75 397.9 621.05 400.05 621.05 411.75 621.05 420.65 613.35 429.65 605.55 431.25 593.75
L 494.45 130.55 Z"/>
</g>

<g id="french_fries_fastfood_food_emoj_symbol_svgrepo_com_svg_svg2__Clip_Group__1_0_Layer2_0_MEMBER_5_MEMBER_0_FILL">
<path fill="#F4900C" stroke="none" d="
M 198.1 136.55
Q 193.6 124.25 181.75 118.7 169.9 113.2 157.6 117.65 145.35 122.15 139.8 134 134.25 145.85 138.7 158.15
L 307.15 621.3
Q 310.6 630.8 318.9 636.5 327 642.1 336.85 642.1 342.4 642.1 347.65 640.2 359.9 635.75 365.45 623.85 370.95 612 366.5 599.7
L 198.1 136.55 Z"/>
</g>

<g id="french_fries_fastfood_food_emoj_symbol_svgrepo_com_svg_svg2__Clip_Group__1_0_Layer2_0_MEMBER_6_MEMBER_0_FILL">
<path fill="#F4900C" stroke="none" d="
M 557.35 138.45
Q 544.95 134.25 533.25 140.1 521.55 146 517.4 158.4
L 391.1 537.35
Q 386.95 549.75 392.8 561.45 398.65 573.2 411.05 577.3 416 578.95 421.05 578.95 431.1 578.95 439.35 573.1 447.75 567.15 451 557.35
L 577.3 178.4
Q 581.45 166 575.6 154.3 569.75 142.6 557.35 138.45 Z"/>
</g>

<g id="french_fries_fastfood_food_emoj_symbol_svgrepo_com_svg_svg2__Clip_Group__1_0_Layer2_0_MEMBER_7_MEMBER_0_FILL">
<path fill="#F4900C" stroke="none" d="
M 303.35 262.85
Q 298.85 250.55 287 245.05 275.15 239.55 262.85 244 250.6 248.45 245.05 260.3 239.55 272.15 244 284.45
L 328.2 516.05
Q 331.65 525.55 339.95 531.25 348.05 536.8 357.9 536.8 363.6 536.8 368.7 534.95 380.95 530.45 386.5 518.6 392 506.75 387.55 494.45
L 303.35 262.85 Z"/>
</g>

<g id="french_fries_fastfood_food_emoj_symbol_svgrepo_com_svg_svg2__Clip_Group__1_0_Layer2_0_MEMBER_8_MEMBER_0_FILL">
<path fill="#F4900C" stroke="none" d="
M 136.4 247.4
Q 134.25 234.5 123.55 226.9 112.9 219.3 100.05 221.5 87.15 223.65 79.55 234.25 71.95 244.9 74.1 257.8
L 116.2 510.45
Q 118.15 521.95 127.05 529.4 135.85 536.8 147.3 536.8 150.2 536.8 152.55 536.4 165.45 534.25 173.05 523.6 180.65 512.95 178.5 500.05
L 136.4 247.4 Z"/>
</g>

<g id="french_fries_fastfood_food_emoj_symbol_svgrepo_com_svg_svg2__Clip_Group__1_0_Layer2_0_MEMBER_9_MEMBER_0_FILL">
<path fill="#F4900C" stroke="none" d="
M 592.95 221.2
Q 579.9 219.75 569.7 227.95 559.5 236.1 558.05 249.1
L 537 438.6
Q 535.6 451.6 543.75 461.8 551.95 472.05 564.9 473.5 566.7 473.65 568.45 473.65 580.4 473.65 589.4 465.7 598.45 457.65 599.8 445.6
L 620.85 256.1
Q 622.3 243.1 614.1 232.9 605.95 222.65 592.95 221.2 Z"/>
</g>

<g id="french_fries_fastfood_food_emoj_symbol_svgrepo_com_svg_svg2__Clip_Group__1_0_Layer2_0_MEMBER_10_MEMBER_0_FILL">
<path fill="#FFCC4D" stroke="none" d="
M 524.4 122.2
Q 513.95 114.25 500.95 116.05 488 117.8 480.1 128.25 472.2 138.65 473.95 151.6
L 537.1 614.8
Q 538.7 626.6 547.7 634.4 556.65 642.1 568.35 642.1 570.55 642.1 572.7 641.8 585.65 640.05 593.55 629.6 601.45 619.2 599.7 606.25
L 536.55 143.1
Q 534.75 130.1 524.4 122.2 Z"/>
</g>

<g id="french_fries_fastfood_food_emoj_symbol_svgrepo_com_svg_svg2__Clip_Group__1_0_Layer2_0_MEMBER_11_MEMBER_0_FILL">
<path fill="#FFCC4D" stroke="none" d="
M 397.75 157.95
Q 384.65 158.9 376.1 168.75 367.55 178.65 368.5 191.7
L 389.55 486.4
Q 390.45 498.85 399.6 507.3 408.65 515.75 421 515.75
L 423.25 515.7
Q 436.35 514.75 444.9 504.9 453.5 495 452.55 481.95
L 431.5 187.2
Q 430.5 174.15 420.65 165.55 410.7 156.9 397.75 157.95 Z"/>
</g>

<g id="french_fries_fastfood_food_emoj_symbol_svgrepo_com_svg_svg2__Clip_Group__1_0_Layer2_0_MEMBER_12_MEMBER_0_FILL">
<path fill="#FFCC4D" stroke="none" d="
M 160.25 223.45
Q 149.95 231.55 148.45 244.55
L 116 522.65
Q 114.45 535.65 122.6 545.9 130.7 556.15 143.7 557.65 145.8 557.9 147.4 557.9 159.3 557.9 168.3 549.95 177.3 541.95 178.7 529.95
L 211.15 251.85
Q 212.7 238.85 204.6 228.6 196.45 218.35 183.45 216.85 170.5 215.35 160.25 223.45 Z"/>
</g>

<g id="french_fries_fastfood_food_emoj_symbol_svgrepo_com_svg_svg2__Clip_Group__1_0_Layer2_0_MEMBER_13_MEMBER_0_FILL">
<path fill="#FFCC4D" stroke="none" d="
M 270.15 78.95
Q 259.25 71.7 246.45 74.3 233.6 76.85 226.35 87.75 219.1 98.6 221.65 111.45
L 305.85 532.5
Q 308.1 543.65 316.9 550.85 325.65 557.9 336.8 557.9 339.6 557.9 343 557.25 355.8 554.7 363.1 543.8 370.35 532.95 367.8 520.1
L 283.55 99.05
Q 281 86.2 270.15 78.95 Z"/>
</g>

<g id="Mask_french_fries_fastfood_food_emoj_symbol_svgrepo_com_svg_svg2__Clip_Group__2_0_2_MASK_0_FILL">
<path fill="#FFFFFF" stroke="none" d="
M 0 0
L 0 800 800 800 800 0 0 0 Z"/>
</g>

<g id="french_fries_fastfood_food_emoj_symbol_svgrepo_com_svg_svg2__Clip_Group__2_0_Layer2_0_MEMBER_0_MEMBER_0_FILL">
<path fill="#BE1931" stroke="none" d="
M 315.75 610.55
Q 315.75 627.7 322.35 643.3 328.75 658.45 340.4 670.1 352.1 681.75 367.2 688.15 382.85 694.75 400 694.75 417.15 694.75 432.75 688.15 447.9 681.75 459.55 670.1 471.2 658.45 477.6 643.3 484.2 627.7 484.2 610.55 484.2 593.4 477.6 577.8 471.2 562.65 459.55 551 447.9 539.35 432.75 532.95 417.15 526.35 400 526.35 382.85 526.35 367.2 532.95 352.1 539.35 340.4 551 328.75 562.65 322.35 577.8 315.75 593.4 315.75 610.55 Z"/>
</g>
</defs>

<g transform="matrix( 1, 0, 0, 1, 0,0) ">
<use xlink:href="#Layer1_0_FILL"/>
</g>

<g transform="matrix( 1, 0, 0, 1, 7.55,65.5) ">
<mask id="Mask_Mask_1">
<g transform="matrix( 1, 0, 0, 1, 0,0) ">
<use xlink:href="#Mask_french_fries_fastfood_food_emoj_symbol_svgrepo_com_svg_svg2__Clip_Group__0_2_MASK_0_FILL"/>
</g>
</mask>

<g mask="url(#Mask_Mask_1)">
<g transform="matrix( 1, 0, 0, 1, 0,0) ">
<use xlink:href="#french_fries_fastfood_food_emoj_symbol_svgrepo_com_svg_svg2__Clip_Group__0_Layer2_0_MEMBER_0_MEMBER_0_FILL"/>
</g>
</g>
</g>

<g transform="matrix( 1, 0, 0, 1, 70.7,107.65) ">
<mask id="Mask_Mask_2">
<g transform="matrix( 1, 0, 0, 1, 0,0) ">
<use xlink:href="#Mask_french_fries_fastfood_food_emoj_symbol_svgrepo_com_svg_svg2__Clip_Group__0_0_2_MASK_0_FILL"/>
</g>
</mask>

<g mask="url(#Mask_Mask_2)">
<g transform="matrix( 1, 0, 0, 1, 0,0) ">
<use xlink:href="#french_fries_fastfood_food_emoj_symbol_svgrepo_com_svg_svg2__Clip_Group__0_0_Layer2_0_MEMBER_0_MEMBER_0_FILL"/>
</g>
</g>
</g>

<g transform="matrix( 1, 0, 0, 1, 70.7,107.65) ">
<mask id="Mask_Mask_3">
<g transform="matrix( 1, 0, 0, 1, 0,0) ">
<use xlink:href="#Mask_french_fries_fastfood_food_emoj_symbol_svgrepo_com_svg_svg2__Clip_Group__1_0_2_MASK_0_FILL"/>
</g>
</mask>

<g mask="url(#Mask_Mask_3)">
<g transform="matrix( 1, 0, 0, 1, 0,0) ">
<use xlink:href="#french_fries_fastfood_food_emoj_symbol_svgrepo_com_svg_svg2__Clip_Group__1_0_Layer2_0_MEMBER_0_MEMBER_0_FILL"/>
</g>

<g transform="matrix( 1, 0, 0, 1, 0,0) ">
<use xlink:href="#french_fries_fastfood_food_emoj_symbol_svgrepo_com_svg_svg2__Clip_Group__1_0_Layer2_0_MEMBER_1_MEMBER_0_FILL"/>
</g>

<g transform="matrix( 1, 0, 0, 1, 0,0) ">
<use xlink:href="#french_fries_fastfood_food_emoj_symbol_svgrepo_com_svg_svg2__Clip_Group__1_0_Layer2_0_MEMBER_2_MEMBER_0_FILL"/>
</g>

<g transform="matrix( 1, 0, 0, 1, 0,0) ">
<use xlink:href="#french_fries_fastfood_food_emoj_symbol_svgrepo_com_svg_svg2__Clip_Group__1_0_Layer2_0_MEMBER_3_MEMBER_0_FILL"/>
</g>

<g transform="matrix( 1, 0, 0, 1, 0,0) ">
<use xlink:href="#french_fries_fastfood_food_emoj_symbol_svgrepo_com_svg_svg2__Clip_Group__1_0_Layer2_0_MEMBER_4_MEMBER_0_FILL"/>
</g>

<g transform="matrix( 1, 0, 0, 1, 0,0) ">
<use xlink:href="#french_fries_fastfood_food_emoj_symbol_svgrepo_com_svg_svg2__Clip_Group__1_0_Layer2_0_MEMBER_5_MEMBER_0_FILL"/>
</g>

<g transform="matrix( 1, 0, 0, 1, 0,0) ">
<use xlink:href="#french_fries_fastfood_food_emoj_symbol_svgrepo_com_svg_svg2__Clip_Group__1_0_Layer2_0_MEMBER_6_MEMBER_0_FILL"/>
</g>

<g transform="matrix( 1, 0, 0, 1, 0,0) ">
<use xlink:href="#french_fries_fastfood_food_emoj_symbol_svgrepo_com_svg_svg2__Clip_Group__1_0_Layer2_0_MEMBER_7_MEMBER_0_FILL"/>
</g>

<g transform="matrix( 1, 0, 0, 1, 0,0) ">
<use xlink:href="#french_fries_fastfood_food_emoj_symbol_svgrepo_com_svg_svg2__Clip_Group__1_0_Layer2_0_MEMBER_8_MEMBER_0_FILL"/>
</g>

<g transform="matrix( 1, 0, 0, 1, 0,0) ">
<use xlink:href="#french_fries_fastfood_food_emoj_symbol_svgrepo_com_svg_svg2__Clip_Group__1_0_Layer2_0_MEMBER_9_MEMBER_0_FILL"/>
</g>

<g transform="matrix( 1, 0, 0, 1, 0,0) ">
<use xlink:href="#french_fries_fastfood_food_emoj_symbol_svgrepo_com_svg_svg2__Clip_Group__1_0_Layer2_0_MEMBER_10_MEMBER_0_FILL"/>
</g>

<g transform="matrix( 1, 0, 0, 1, 0,0) ">
<use xlink:href="#french_fries_fastfood_food_emoj_symbol_svgrepo_com_svg_svg2__Clip_Group__1_0_Layer2_0_MEMBER_11_MEMBER_0_FILL"/>
</g>

<g transform="matrix( 1, 0, 0, 1, 0,0) ">
<use xlink:href="#french_fries_fastfood_food_emoj_symbol_svgrepo_com_svg_svg2__Clip_Group__1_0_Layer2_0_MEMBER_12_MEMBER_0_FILL"/>
</g>

<g transform="matrix( 1, 0, 0, 1, 0,0) ">
<use xlink:href="#french_fries_fastfood_food_emoj_symbol_svgrepo_com_svg_svg2__Clip_Group__1_0_Layer2_0_MEMBER_13_MEMBER_0_FILL"/>
</g>
</g>
</g>

<g transform="matrix( 1, 0, 0, 1, 7.55,65.5) ">
<mask id="Mask_Mask_4">
<g transform="matrix( 1, 0, 0, 1, 0,0) ">
<use xlink:href="#Mask_french_fries_fastfood_food_emoj_symbol_svgrepo_com_svg_svg2__Clip_Group__2_0_2_MASK_0_FILL"/>
</g>
</mask>

<g mask="url(#Mask_Mask_4)">
<g transform="matrix( 1, 0, 0, 1, 0,0) ">
<use xlink:href="#french_fries_fastfood_food_emoj_symbol_svgrepo_com_svg_svg2__Clip_Group__2_0_Layer2_0_MEMBER_0_MEMBER_0_FILL"/>
</g>
</g>
</g>
</svg>
