
<svg xmlns="http://www.w3.org/2000/svg" version="1.1" xmlns:xlink="http://www.w3.org/1999/xlink" preserveAspectRatio="none" x="0px" y="0px" width="202px" height="65px" viewBox="0 0 202 65">
<defs>
<path id="Layer0_0_MEMBER_0_1_STROKES" stroke="#824E3C" stroke-opacity="0.8980392156862745" stroke-width="2.65" stroke-linejoin="round" stroke-linecap="round" fill="none" d="
M 18.163404083251955 51.06199188232421
Q 18.885749053955074 46.00267181396484 16.538127899169915 45.27991180419923 2.723280334472655 40.31093673706056 2.0009353637695284 40.130246734619135
L 1.278590393066402 39.94955673217774 3.5359184265136676 38.05231170654298
Q 6.425298309326173 35.52265167236328 8.140867614746092 34.25782165527343
L 16.538127899169915 29.55988159179688
Q 17.170179748535155 29.198501586914062 17.531352233886714 28.38539657592773 17.621645355224608 28.02401657104491 17.621645355224608 26.036426544189453 17.621645355224608 24.139181518554693 17.531352233886714 23.687456512451178 17.26047286987305 8.87087631225586 17.170179748535155 7.154321289062494
L 16.989593505859368 4.62466125488281
Q 16.989593505859368 4.172936248779294 17.982817840576168 3.0887962341308537 18.976042175292967 2.0046562194824276 19.517800903320314 2.0046562194824276
L 23.039232635498045 2.1853462219238224
Q 53.01654891967774 3.3598312377929744 107.19242172241209 2.1853462219238224 166.1538299560547 0.9205162048339872 192.9708869934082 1.4625862121582003
L 197.66612930297853 1.6432762145996094
Q 198.29818115234374 1.6432762145996094 199.6525779724121 2.7274162292480497 201.09726791381834 3.81155624389649 201.09726791381834 4.443971252441401 201.09726791381834 6.973631286621099 201.27785415649416 31.999196624755854 201.36814727783204 46.63508682250978 201.09726791381834 56.84407196044921
L 201.09726791381834 60.27718200683594
Q 201.5487335205078 63.16822204589843 192.8805938720703 62.806842041015614 109.44974975585936 58.650971984863276 26.380078125000004 63.61994705200195 25.567440032958977 63.80063705444337 25.115974426269524 63.89098205566407 24.393629455566405 63.981327056884766 22.046008300781246 63.981327056884766 19.608094024658207 63.981327056884766 18.7051628112793 62.98753204345704 18.253697204589848 62.445462036132824 18.163404083251955 61.27097702026367"/>
</defs>

<g transform="matrix( 1.8058624267578125, 0, 0, 1.8069000244140625, -19.85,-88.25) ">
<use xlink:href="#Layer0_0_MEMBER_0_1_STROKES" transform="matrix( 0.553741455078125, 0, 0, 0.5534210205078125, 10.95,48.8) "/>
</g>
</svg>
