<svg xmlns="http://www.w3.org/2000/svg" width="480" height="560" viewBox="0 0 480 560">
<rect x="0" y="0" width="480" height="560" fill="#151F23"/>
<line x1="0" y1="0" x2="0" y2="560" stroke="#3A464E" stroke-width="1"/>
<line x1="40" y1="0" x2="40" y2="560" stroke="#3A464E" stroke-width="1"/>
<line x1="80" y1="0" x2="80" y2="560" stroke="#3A464E" stroke-width="1"/>
<line x1="120" y1="0" x2="120" y2="560" stroke="#3A464E" stroke-width="1"/>
<line x1="160" y1="0" x2="160" y2="560" stroke="#3A464E" stroke-width="1"/>
<line x1="200" y1="0" x2="200" y2="560" stroke="#3A464E" stroke-width="1"/>
<line x1="240" y1="0" x2="240" y2="560" stroke="#3A464E" stroke-width="1"/>
<line x1="280" y1="0" x2="280" y2="560" stroke="#3A464E" stroke-width="1"/>
<line x1="320" y1="0" x2="320" y2="560" stroke="#3A464E" stroke-width="1"/>
<line x1="360" y1="0" x2="360" y2="560" stroke="#3A464E" stroke-width="1"/>
<line x1="400" y1="0" x2="400" y2="560" stroke="#3A464E" stroke-width="1"/>
<line x1="440" y1="0" x2="440" y2="560" stroke="#3A464E" stroke-width="1"/>
<line x1="480" y1="0" x2="480" y2="560" stroke="#3A464E" stroke-width="1"/>
<line x1="0" y1="560" x2="480" y2="560" stroke="#3A464E" stroke-width="1"/>
<line x1="0" y1="520" x2="480" y2="520" stroke="#3A464E" stroke-width="1"/>
<line x1="0" y1="480" x2="480" y2="480" stroke="#3A464E" stroke-width="1"/>
<line x1="0" y1="440" x2="480" y2="440" stroke="#3A464E" stroke-width="1"/>
<line x1="0" y1="400" x2="480" y2="400" stroke="#3A464E" stroke-width="1"/>
<line x1="0" y1="360" x2="480" y2="360" stroke="#3A464E" stroke-width="1"/>
<line x1="0" y1="320" x2="480" y2="320" stroke="#3A464E" stroke-width="1"/>
<line x1="0" y1="280" x2="480" y2="280" stroke="#3A464E" stroke-width="1"/>
<line x1="0" y1="240" x2="480" y2="240" stroke="#3A464E" stroke-width="1"/>
<line x1="0" y1="200" x2="480" y2="200" stroke="#3A464E" stroke-width="1"/>
<line x1="0" y1="160" x2="480" y2="160" stroke="#3A464E" stroke-width="1"/>
<line x1="0" y1="120" x2="480" y2="120" stroke="#3A464E" stroke-width="1"/>
<line x1="0" y1="80" x2="480" y2="80" stroke="#3A464E" stroke-width="1"/>
<line x1="0" y1="40" x2="480" y2="40" stroke="#3A464E" stroke-width="1"/>
<line x1="0" y1="0" x2="480" y2="0" stroke="#3A464E" stroke-width="1"/>
<line x1="80" y1="560" x2="80" y2="0" stroke="#9AA7B0" stroke-width="2"/>
<polygon points="75,10 85,10 80,0" fill="#9AA7B0"/>
<line x1="0" y1="480" x2="480" y2="480" stroke="#9AA7B0" stroke-width="2"/>
<polygon points="470,475 470,485 480,480" fill="#9AA7B0"/>
<text x="64" y="498" font-family="Georgia, serif" font-style="italic" font-size="18" fill="#F2F7FB">O</text>
<text x="115" y="500" font-family="Georgia, serif" font-style="italic" font-size="15" fill="#F2F7FB">1</text>
<text x="62" y="446" font-family="Georgia, serif" font-style="italic" font-size="15" fill="#F2F7FB">1</text>
<text x="466" y="472" font-family="Georgia, serif" font-style="italic" font-size="18" fill="#F2F7FB">x</text>
<text x="88" y="16" font-family="Georgia, serif" font-style="italic" font-size="18" fill="#F2F7FB">y</text>
<line x1="-124.7" y1="735.9" x2="924.7" y2="-575.9" stroke="#7dd3fc" stroke-width="2.3"/>
<path d="M 375.3,152.5 Q 375.3,110.9 400.0,80.0 Q 428.9,43.9 472.8,30.6" fill="none" stroke="#f0a868" stroke-width="2.8" stroke-linecap="round"/>
<line x1="400.0" y1="80.0" x2="400.0" y2="480" stroke="#F2F7FB" stroke-width="1.2" stroke-dasharray="4,4"/>
<text x="390.0" y="500" font-family="Georgia, serif" font-style="italic" font-size="15" fill="#F2F7FB">x<tspan font-size="10" dy="3">0</tspan></text>
<circle cx="400.0" cy="80.0" r="4.5" fill="#f0a868" stroke="#0369a1" stroke-width="1.5"/>
<text x="478.8" y="34.6" font-family="Georgia, serif" font-style="italic" font-size="16" fill="#f0a868" text-anchor="start">y = f(x)</text>
</svg>