<svg xmlns="http://www.w3.org/2000/svg" width="544" height="98.6" viewBox="0 0 544 98.6">
<rect x="0" y="0" width="544" height="98.6" fill="#151F23"/>
<line x1="0.0" y1="0" x2="0.0" y2="98.6" stroke="#3A464E" stroke-width="1"/>
<line x1="34.0" y1="0" x2="34.0" y2="98.6" stroke="#3A464E" stroke-width="1"/>
<line x1="68.0" y1="0" x2="68.0" y2="98.6" stroke="#3A464E" stroke-width="1"/>
<line x1="102.0" y1="0" x2="102.0" y2="98.6" stroke="#3A464E" stroke-width="1"/>
<line x1="136.0" y1="0" x2="136.0" y2="98.6" stroke="#3A464E" stroke-width="1"/>
<line x1="170.0" y1="0" x2="170.0" y2="98.6" stroke="#3A464E" stroke-width="1"/>
<line x1="204.0" y1="0" x2="204.0" y2="98.6" stroke="#3A464E" stroke-width="1"/>
<line x1="238.0" y1="0" x2="238.0" y2="98.6" stroke="#3A464E" stroke-width="1"/>
<line x1="272.0" y1="0" x2="272.0" y2="98.6" stroke="#3A464E" stroke-width="1"/>
<line x1="306.0" y1="0" x2="306.0" y2="98.6" stroke="#3A464E" stroke-width="1"/>
<line x1="340.0" y1="0" x2="340.0" y2="98.6" stroke="#3A464E" stroke-width="1"/>
<line x1="374.0" y1="0" x2="374.0" y2="98.6" stroke="#3A464E" stroke-width="1"/>
<line x1="408.0" y1="0" x2="408.0" y2="98.6" stroke="#3A464E" stroke-width="1"/>
<line x1="442.0" y1="0" x2="442.0" y2="98.6" stroke="#3A464E" stroke-width="1"/>
<line x1="476.0" y1="0" x2="476.0" y2="98.6" stroke="#3A464E" stroke-width="1"/>
<line x1="510.0" y1="0" x2="510.0" y2="98.6" stroke="#3A464E" stroke-width="1"/>
<line x1="544.0" y1="0" x2="544.0" y2="98.6" stroke="#3A464E" stroke-width="1"/>
<line x1="0" y1="81.6" x2="544" y2="81.6" stroke="#3A464E" stroke-width="1"/>
<line x1="0" y1="47.6" x2="544" y2="47.6" stroke="#3A464E" stroke-width="1"/>
<line x1="0" y1="13.6" x2="544" y2="13.6" stroke="#3A464E" stroke-width="1"/>
<line x1="136.0" y1="98.6" x2="136.0" y2="0" stroke="#9AA7B0" stroke-width="2"/>
<polygon points="131.0,10 141.0,10 136.0,0" fill="#9AA7B0"/>
<line x1="0" y1="115.6" x2="544" y2="115.6" stroke="#9AA7B0" stroke-width="2"/>
<polygon points="534,110.6 534,120.6 544,115.6" fill="#9AA7B0"/>
<text x="120.0" y="133.6" font-family="Georgia, serif" font-style="italic" font-size="17" fill="#F2F7FB">O</text>
<text x="165.0" y="135.6" font-family="Georgia, serif" font-style="italic" font-size="15" fill="#F2F7FB">1</text>
<text x="118.0" y="87.6" font-family="Georgia, serif" font-style="italic" font-size="15" fill="#F2F7FB">1</text>
<text x="528.0" y="107.6" font-family="Georgia, serif" font-style="italic" font-size="17" fill="#F2F7FB">x</text>
<text x="144.0" y="14" font-family="Georgia, serif" font-style="italic" font-size="17" fill="#F2F7FB">y</text>
<text x="-6.0" y="135.6" font-family="Georgia, serif" font-style="italic" font-size="14" fill="#F2F7FB">-4</text>
<text x="28.0" y="135.6" font-family="Georgia, serif" font-style="italic" font-size="14" fill="#F2F7FB">-3</text>
<text x="62.0" y="135.6" font-family="Georgia, serif" font-style="italic" font-size="14" fill="#F2F7FB">-2</text>
<text x="96.0" y="135.6" font-family="Georgia, serif" font-style="italic" font-size="14" fill="#F2F7FB">-1</text>
<text x="198.0" y="135.6" font-family="Georgia, serif" font-style="italic" font-size="14" fill="#F2F7FB">2</text>
<text x="232.0" y="135.6" font-family="Georgia, serif" font-style="italic" font-size="14" fill="#F2F7FB">3</text>
<text x="266.0" y="135.6" font-family="Georgia, serif" font-style="italic" font-size="14" fill="#F2F7FB">4</text>
<text x="300.0" y="135.6" font-family="Georgia, serif" font-style="italic" font-size="14" fill="#F2F7FB">5</text>
<text x="334.0" y="135.6" font-family="Georgia, serif" font-style="italic" font-size="14" fill="#F2F7FB">6</text>
<text x="368.0" y="135.6" font-family="Georgia, serif" font-style="italic" font-size="14" fill="#F2F7FB">7</text>
<text x="402.0" y="135.6" font-family="Georgia, serif" font-style="italic" font-size="14" fill="#F2F7FB">8</text>
<text x="436.0" y="135.6" font-family="Georgia, serif" font-style="italic" font-size="14" fill="#F2F7FB">9</text>
<text x="470.0" y="135.6" font-family="Georgia, serif" font-style="italic" font-size="14" fill="#F2F7FB">10</text>
<text x="504.0" y="135.6" font-family="Georgia, serif" font-style="italic" font-size="14" fill="#F2F7FB">11</text>
<text x="538.0" y="135.6" font-family="Georgia, serif" font-style="italic" font-size="14" fill="#F2F7FB">12</text>
<path d="M 34.0,81.6 C 51.0,70.3 107.7,13.6 136.0,13.6 C 164.3,13.6 178.5,81.6 204.0,81.6 C 229.5,81.6 266.3,13.6 289.0,13.6 C 311.7,13.6 323.0,81.6 340.0,81.6 C 357.0,81.6 372.9,13.6 391.0,13.6 C 409.1,13.6 429.0,75.9 448.8,81.6 C 468.6,87.3 499.8,53.3 510.0,47.6 " fill="none" stroke="#f0a868" stroke-width="2.6" stroke-linecap="round"/>
<circle cx="34.0" cy="81.6" r="4" fill="#151F23" stroke="#f0a868" stroke-width="2"/>
<circle cx="510.0" cy="47.6" r="4" fill="#151F23" stroke="#f0a868" stroke-width="2"/>
<text x="13.6" y="71.4" font-family="Georgia, serif" font-style="italic" font-size="16" fill="#f0a868">y = f(x)</text>
</svg>