<svg xmlns="http://www.w3.org/2000/svg" width="400" height="200" viewBox="0 0 400 200">
<rect x="0" y="0" width="400" height="200" fill="#151F23"/>
<line x1="0.0" y1="0" x2="0.0" y2="200" stroke="#3A464E" stroke-width="1"/>
<line x1="40.0" y1="0" x2="40.0" y2="200" stroke="#3A464E" stroke-width="1"/>
<line x1="80.0" y1="0" x2="80.0" y2="200" stroke="#3A464E" stroke-width="1"/>
<line x1="120.0" y1="0" x2="120.0" y2="200" stroke="#3A464E" stroke-width="1"/>
<line x1="160.0" y1="0" x2="160.0" y2="200" stroke="#3A464E" stroke-width="1"/>
<line x1="200.0" y1="0" x2="200.0" y2="200" stroke="#3A464E" stroke-width="1"/>
<line x1="240.0" y1="0" x2="240.0" y2="200" stroke="#3A464E" stroke-width="1"/>
<line x1="280.0" y1="0" x2="280.0" y2="200" stroke="#3A464E" stroke-width="1"/>
<line x1="320.0" y1="0" x2="320.0" y2="200" stroke="#3A464E" stroke-width="1"/>
<line x1="360.0" y1="0" x2="360.0" y2="200" stroke="#3A464E" stroke-width="1"/>
<line x1="400.0" y1="0" x2="400.0" y2="200" stroke="#3A464E" stroke-width="1"/>
<line x1="0" y1="200.0" x2="400" y2="200.0" stroke="#3A464E" stroke-width="1"/>
<line x1="0" y1="160.0" x2="400" y2="160.0" stroke="#3A464E" stroke-width="1"/>
<line x1="0" y1="120.0" x2="400" y2="120.0" stroke="#3A464E" stroke-width="1"/>
<line x1="0" y1="80.0" x2="400" y2="80.0" stroke="#3A464E" stroke-width="1"/>
<line x1="0" y1="40.0" x2="400" y2="40.0" stroke="#3A464E" stroke-width="1"/>
<line x1="0" y1="0.0" x2="400" y2="0.0" stroke="#3A464E" stroke-width="1"/>
<line x1="200.0" y1="200" x2="200.0" y2="0" stroke="#9AA7B0" stroke-width="2"/>
<polygon points="195.0,10 205.0,10 200.0,0" fill="#9AA7B0"/>
<line x1="0" y1="200.0" x2="400" y2="200.0" stroke="#9AA7B0" stroke-width="2"/>
<polygon points="390,195.0 390,205.0 400,200.0" fill="#9AA7B0"/>
<text x="184.0" y="218.0" font-family="Georgia, serif" font-style="italic" font-size="17" fill="#F2F7FB">O</text>
<text x="235.0" y="220.0" font-family="Georgia, serif" font-style="italic" font-size="15" fill="#F2F7FB">1</text>
<text x="182.0" y="166.0" font-family="Georgia, serif" font-style="italic" font-size="15" fill="#F2F7FB">1</text>
<text x="384.0" y="192.0" font-family="Georgia, serif" font-style="italic" font-size="17" fill="#F2F7FB">x</text>
<text x="208.0" y="14" font-family="Georgia, serif" font-style="italic" font-size="17" fill="#F2F7FB">y</text>
<text x="-6.0" y="220.0" font-family="Georgia, serif" font-style="italic" font-size="14" fill="#F2F7FB">-5</text>
<text x="34.0" y="220.0" font-family="Georgia, serif" font-style="italic" font-size="14" fill="#F2F7FB">-4</text>
<text x="74.0" y="220.0" font-family="Georgia, serif" font-style="italic" font-size="14" fill="#F2F7FB">-3</text>
<text x="114.0" y="220.0" font-family="Georgia, serif" font-style="italic" font-size="14" fill="#F2F7FB">-2</text>
<text x="154.0" y="220.0" font-family="Georgia, serif" font-style="italic" font-size="14" fill="#F2F7FB">-1</text>
<text x="274.0" y="220.0" font-family="Georgia, serif" font-style="italic" font-size="14" fill="#F2F7FB">2</text>
<text x="314.0" y="220.0" font-family="Georgia, serif" font-style="italic" font-size="14" fill="#F2F7FB">3</text>
<text x="354.0" y="220.0" font-family="Georgia, serif" font-style="italic" font-size="14" fill="#F2F7FB">4</text>
<text x="394.0" y="220.0" font-family="Georgia, serif" font-style="italic" font-size="14" fill="#F2F7FB">5</text>
<line x1="0" y1="120.0" x2="400" y2="120.0" stroke="#7dd3fc" stroke-width="1.3" stroke-dasharray="6,4"/>
<path d="M 0.0,96.0 L 1.3,95.8 L 2.5,95.7 L 3.8,95.5 L 5.1,95.4 L 6.3,95.2 L 7.6,95.1 L 8.9,94.9 L 10.1,94.7 L 11.4,94.5 L 12.7,94.4 L 13.9,94.2 L 15.2,94.0 L 16.5,93.8 L 17.7,93.7 L 19.0,93.5 L 20.3,93.3 L 21.5,93.1 L 22.8,92.9 L 24.1,92.7 L 25.3,92.5 L 26.6,92.3 L 27.9,92.1 L 29.1,91.9 L 30.4,91.7 L 31.7,91.5 L 32.9,91.3 L 34.2,91.0 L 35.5,90.8 L 36.7,90.6 L 38.0,90.4 L 39.3,90.1 L 40.5,89.9 L 41.8,89.7 L 43.1,89.4 L 44.3,89.2 L 45.6,88.9 L 46.9,88.7 L 48.1,88.4 L 49.4,88.1 L 50.7,87.9 L 51.9,87.6 L 53.2,87.3 L 54.5,87.0 L 55.7,86.7 L 57.0,86.4 L 58.3,86.1 L 59.5,85.8 L 60.8,85.5 L 62.1,85.2 L 63.3,84.9 L 64.6,84.5 L 65.9,84.2 L 67.1,83.9 L 68.4,83.5 L 69.7,83.2 L 70.9,82.8 L 72.2,82.4 L 73.5,82.1 L 74.7,81.7 L 76.0,81.3 L 77.3,80.9 L 78.5,80.5 L 79.8,80.1 L 81.1,79.6 L 82.3,79.2 L 83.6,78.8 L 84.9,78.3 L 86.1,77.8 L 87.4,77.4 L 88.7,76.9 L 89.9,76.4 L 91.2,75.9 L 92.5,75.4 L 93.7,74.8 L 95.0,74.3 L 96.3,73.7 L 97.5,73.2 L 98.8,72.6 L 100.1,72.0 L 101.3,71.4 L 102.6,70.7 L 103.9,70.1 L 105.1,69.4 L 106.4,68.7 L 107.7,68.0 L 108.9,67.3 L 110.2,66.5 L 111.5,65.8 L 112.7,65.0 L 114.0,64.2 L 115.3,63.4 L 116.5,62.5 L 117.8,61.6 L 119.1,60.7 L 120.3,59.7 L 121.6,58.8 L 122.9,57.8 L 124.1,56.7 L 125.4,55.7 L 126.7,54.5 L 127.9,53.4 L 129.2,52.2 L 130.5,51.0 L 131.7,49.7 L 133.0,48.4 L 134.3,47.0 L 135.5,45.5 L 136.8,44.1 L 138.1,42.5 L 139.3,40.9 L 140.6,39.2 L 141.9,37.4 L 143.1,35.6 L 144.4,33.7 L 145.7,31.7 L 146.9,29.5 L 148.2,27.3 L 149.5,25.0 L 150.7,22.6 L 152.0,20.0 L 153.3,17.3 L 154.5,14.4 L 155.8,11.4 L 157.1,8.2 L 158.3,4.8 L 159.6,1.2 L 160.9,-2.7 L 162.1,-6.8 L 163.4,-11.1 L 164.7,-15.8 L 165.9,-20.9 L 167.2,-26.3 L 168.5,-32.2 L 169.7,-38.6 L 171.0,-45.5 L 172.3,-53.1 L 173.5,-61.4 L 174.8,-70.5 L 176.1,-80.6 L 177.3,-91.8 L 178.6,-104.3 L 179.9,-118.4 L 181.1,-134.4 L 182.4,-152.7 L 183.7,-173.9 L 184.9,-198.6 L 186.2,-227.8 L 187.5,-263.0 L 188.7,-306.0 L 190.0,-360.0" fill="none" stroke="#f0a868" stroke-width="2.6" stroke-linecap="round"/>
<path d="M 210.0,600.0 L 211.3,546.0 L 212.5,503.0 L 213.8,467.8 L 215.1,438.6 L 216.3,413.9 L 217.6,392.7 L 218.9,374.4 L 220.1,358.4 L 221.4,344.3 L 222.7,331.8 L 223.9,320.6 L 225.2,310.5 L 226.5,301.4 L 227.7,293.1 L 229.0,285.5 L 230.3,278.6 L 231.5,272.2 L 232.8,266.3 L 234.1,260.9 L 235.3,255.8 L 236.6,251.1 L 237.9,246.8 L 239.1,242.7 L 240.4,238.8 L 241.7,235.2 L 242.9,231.8 L 244.2,228.6 L 245.5,225.6 L 246.7,222.7 L 248.0,220.0 L 249.3,217.4 L 250.5,215.0 L 251.8,212.7 L 253.1,210.5 L 254.3,208.3 L 255.6,206.3 L 256.9,204.4 L 258.1,202.6 L 259.4,200.8 L 260.7,199.1 L 261.9,197.5 L 263.2,195.9 L 264.5,194.5 L 265.7,193.0 L 267.0,191.6 L 268.3,190.3 L 269.5,189.0 L 270.8,187.8 L 272.1,186.6 L 273.3,185.5 L 274.6,184.3 L 275.9,183.3 L 277.1,182.2 L 278.4,181.2 L 279.7,180.3 L 280.9,179.3 L 282.2,178.4 L 283.5,177.5 L 284.7,176.6 L 286.0,175.8 L 287.3,175.0 L 288.5,174.2 L 289.8,173.5 L 291.1,172.7 L 292.3,172.0 L 293.6,171.3 L 294.9,170.6 L 296.1,169.9 L 297.4,169.3 L 298.7,168.6 L 299.9,168.0 L 301.2,167.4 L 302.5,166.8 L 303.7,166.3 L 305.0,165.7 L 306.3,165.2 L 307.5,164.6 L 308.8,164.1 L 310.1,163.6 L 311.3,163.1 L 312.6,162.6 L 313.9,162.2 L 315.1,161.7 L 316.4,161.2 L 317.7,160.8 L 318.9,160.4 L 320.2,159.9 L 321.5,159.5 L 322.7,159.1 L 324.0,158.7 L 325.3,158.3 L 326.5,157.9 L 327.8,157.6 L 329.1,157.2 L 330.3,156.8 L 331.6,156.5 L 332.9,156.1 L 334.1,155.8 L 335.4,155.5 L 336.7,155.1 L 337.9,154.8 L 339.2,154.5 L 340.5,154.2 L 341.7,153.9 L 343.0,153.6 L 344.3,153.3 L 345.5,153.0 L 346.8,152.7 L 348.1,152.4 L 349.3,152.1 L 350.6,151.9 L 351.9,151.6 L 353.1,151.3 L 354.4,151.1 L 355.7,150.8 L 356.9,150.6 L 358.2,150.3 L 359.5,150.1 L 360.7,149.9 L 362.0,149.6 L 363.3,149.4 L 364.5,149.2 L 365.8,149.0 L 367.1,148.7 L 368.3,148.5 L 369.6,148.3 L 370.9,148.1 L 372.1,147.9 L 373.4,147.7 L 374.7,147.5 L 375.9,147.3 L 377.2,147.1 L 378.5,146.9 L 379.7,146.7 L 381.0,146.5 L 382.3,146.3 L 383.5,146.2 L 384.8,146.0 L 386.1,145.8 L 387.3,145.6 L 388.6,145.5 L 389.9,145.3 L 391.1,145.1 L 392.4,144.9 L 393.7,144.8 L 394.9,144.6 L 396.2,144.5 L 397.5,144.3 L 398.7,144.2 L 400.0,144.0" fill="none" stroke="#f0a868" stroke-width="2.6" stroke-linecap="round"/>
<circle cx="80.0" cy="80.0" r="4.5" fill="#f0a868" stroke="#0369a1" stroke-width="1.5"/>
</svg>