<svg xmlns="http://www.w3.org/2000/svg" width="192.0" height="280" viewBox="0 0 192.0 280">
<rect x="0" y="0" width="192.0" height="280" fill="#151F23"/>
<line x1="32.0" y1="0" x2="32.0" y2="280" stroke="#3A464E" stroke-width="1"/>
<line x1="72.0" y1="0" x2="72.0" y2="280" stroke="#3A464E" stroke-width="1"/>
<line x1="112.0" y1="0" x2="112.0" y2="280" stroke="#3A464E" stroke-width="1"/>
<line x1="152.0" y1="0" x2="152.0" y2="280" stroke="#3A464E" stroke-width="1"/>
<line x1="192.0" y1="0" x2="192.0" y2="280" stroke="#3A464E" stroke-width="1"/>
<line x1="0" y1="280.0" x2="192.0" y2="280.0" stroke="#3A464E" stroke-width="1"/>
<line x1="0" y1="240.0" x2="192.0" y2="240.0" stroke="#3A464E" stroke-width="1"/>
<line x1="0" y1="200.0" x2="192.0" y2="200.0" stroke="#3A464E" stroke-width="1"/>
<line x1="0" y1="160.0" x2="192.0" y2="160.0" stroke="#3A464E" stroke-width="1"/>
<line x1="0" y1="120.0" x2="192.0" y2="120.0" stroke="#3A464E" stroke-width="1"/>
<line x1="0" y1="80.0" x2="192.0" y2="80.0" stroke="#3A464E" stroke-width="1"/>
<line x1="0" y1="40.0" x2="192.0" y2="40.0" stroke="#3A464E" stroke-width="1"/>
<line x1="0" y1="0.0" x2="192.0" y2="0.0" stroke="#3A464E" stroke-width="1"/>
<line x1="-8.0" y1="280" x2="-8.0" y2="0" stroke="#9AA7B0" stroke-width="2"/>
<polygon points="-13.0,10 -3.0,10 -8.0,0" fill="#9AA7B0"/>
<line x1="0" y1="80.0" x2="192.0" y2="80.0" stroke="#9AA7B0" stroke-width="2"/>
<polygon points="182.0,75.0 182.0,85.0 192.0,80.0" fill="#9AA7B0"/>
<text x="-24.0" y="98.0" font-family="Georgia, serif" font-style="italic" font-size="17" fill="#F2F7FB">O</text>
<text x="27.0" y="100.0" font-family="Georgia, serif" font-style="italic" font-size="15" fill="#F2F7FB">1</text>
<text x="-26.0" y="46.0" font-family="Georgia, serif" font-style="italic" font-size="15" fill="#F2F7FB">1</text>
<text x="176.0" y="72.0" font-family="Georgia, serif" font-style="italic" font-size="17" fill="#F2F7FB">x</text>
<text x="0.0" y="14" font-family="Georgia, serif" font-style="italic" font-size="17" fill="#F2F7FB">y</text>
<text x="66.0" y="100.0" font-family="Georgia, serif" font-style="italic" font-size="14" fill="#F2F7FB">2</text>
<text x="106.0" y="100.0" font-family="Georgia, serif" font-style="italic" font-size="14" fill="#F2F7FB">3</text>
<text x="146.0" y="100.0" font-family="Georgia, serif" font-style="italic" font-size="14" fill="#F2F7FB">4</text>
<text x="186.0" y="100.0" font-family="Georgia, serif" font-style="italic" font-size="14" fill="#F2F7FB">5</text>
<path d="M 0.0,-65.8 L 1.0,-52.7 L 1.9,-40.9 L 2.9,-30.3 L 3.8,-20.5 L 4.8,-11.5 L 5.8,-3.2 L 6.7,4.6 L 7.7,11.9 L 8.6,18.8 L 9.6,25.2 L 10.6,31.4 L 11.5,37.2 L 12.5,42.7 L 13.4,48.0 L 14.4,53.1 L 15.4,57.9 L 16.3,62.6 L 17.3,67.0 L 18.2,71.3 L 19.2,75.5 L 20.2,79.5 L 21.1,83.4 L 22.1,87.1 L 23.0,90.7 L 24.0,94.2 L 25.0,97.7 L 25.9,101.0 L 26.9,104.2 L 27.8,107.3 L 28.8,110.4 L 29.8,113.3 L 30.7,116.2 L 31.7,119.1 L 32.6,121.8 L 33.6,124.5 L 34.6,127.2 L 35.5,129.7 L 36.5,132.3 L 37.4,134.7 L 38.4,137.1 L 39.4,139.5 L 40.3,141.8 L 41.3,144.1 L 42.2,146.3 L 43.2,148.5 L 44.2,150.6 L 45.1,152.7 L 46.1,154.8 L 47.0,156.8 L 48.0,158.8 L 49.0,160.8 L 49.9,162.7 L 50.9,164.6 L 51.8,166.5 L 52.8,168.3 L 53.8,170.1 L 54.7,171.9 L 55.7,173.7 L 56.6,175.4 L 57.6,177.1 L 58.6,178.8 L 59.5,180.4 L 60.5,182.1 L 61.4,183.7 L 62.4,185.2 L 63.4,186.8 L 64.3,188.4 L 65.3,189.9 L 66.2,191.4 L 67.2,192.9 L 68.2,194.3 L 69.1,195.8 L 70.1,197.2 L 71.0,198.6 L 72.0,200.0 L 73.0,201.4 L 73.9,202.7 L 74.9,204.1 L 75.8,205.4 L 76.8,206.7 L 77.8,208.0 L 78.7,209.3 L 79.7,210.6 L 80.6,211.8 L 81.6,213.1 L 82.6,214.3 L 83.5,215.5 L 84.5,216.7 L 85.4,217.9 L 86.4,219.1 L 87.4,220.3 L 88.3,221.4 L 89.3,222.6 L 90.2,223.7 L 91.2,224.8 L 92.2,225.9 L 93.1,227.0 L 94.1,228.1 L 95.0,229.2 L 96.0,230.3 L 97.0,231.3 L 97.9,232.4 L 98.9,233.4 L 99.8,234.5 L 100.8,235.5 L 101.8,236.5 L 102.7,237.5 L 103.7,238.5 L 104.6,239.5 L 105.6,240.5 L 106.6,241.4 L 107.5,242.4 L 108.5,243.4 L 109.4,244.3 L 110.4,245.2 L 111.4,246.2 L 112.3,247.1 L 113.3,248.0 L 114.2,248.9 L 115.2,249.8 L 116.2,250.7 L 117.1,251.6 L 118.1,252.5 L 119.0,253.4 L 120.0,254.2 L 121.0,255.1 L 121.9,256.0 L 122.9,256.8 L 123.8,257.7 L 124.8,258.5 L 125.8,259.3 L 126.7,260.2 L 127.7,261.0 L 128.6,261.8 L 129.6,262.6 L 130.6,263.4 L 131.5,264.2 L 132.5,265.0 L 133.4,265.8 L 134.4,266.6 L 135.4,267.3 L 136.3,268.1 L 137.3,268.9 L 138.2,269.6 L 139.2,270.4 L 140.2,271.1 L 141.1,271.9 L 142.1,272.6 L 143.0,273.3 L 144.0,274.1 L 145.0,274.8 L 145.9,275.5 L 146.9,276.2 L 147.8,277.0 L 148.8,277.7 L 149.8,278.4 L 150.7,279.1 L 151.7,279.8 L 152.6,280.5 L 153.6,281.1 L 154.6,281.8 L 155.5,282.5 L 156.5,283.2 L 157.4,283.9 L 158.4,284.5 L 159.4,285.2 L 160.3,285.9 L 161.3,286.5 L 162.2,287.2 L 163.2,287.8 L 164.2,288.5 L 165.1,289.1 L 166.1,289.7 L 167.0,290.4 L 168.0,291.0 L 169.0,291.6 L 169.9,292.3 L 170.9,292.9 L 171.8,293.5 L 172.8,294.1 L 173.8,294.7 L 174.7,295.3 L 175.7,295.9 L 176.6,296.5 L 177.6,297.1 L 178.6,297.7 L 179.5,298.3 L 180.5,298.9 L 181.4,299.5 L 182.4,300.1 L 183.4,300.7 L 184.3,301.2 L 185.3,301.8 L 186.2,302.4 L 187.2,303.0 L 188.2,303.5 L 189.1,304.1 L 190.1,304.6 L 191.0,305.2 L 192.0,305.8" fill="none" stroke="#f0a868" stroke-width="2.6" stroke-linecap="round"/>
<circle cx="72.0" cy="200.0" r="4.5" fill="#f0a868" stroke="#0369a1" stroke-width="1.5"/>
<circle cx="32.0" cy="120.0" r="4.5" fill="#f0a868" stroke="#0369a1" stroke-width="1.5"/>
</svg>