<svg xmlns="http://www.w3.org/2000/svg" viewBox="0 0 250 210" width="320" height="270">
<rect x="0" y="0" width="250" height="210" fill="#151F23"/>
<line x1="40.00" y1="40.00" x2="72.00" y2="80.00" stroke="#F2F7FB" stroke-width="2.20" stroke-linecap="round" stroke-linejoin="round"/>
<line x1="72.00" y1="80.00" x2="205.00" y2="55.00" stroke="#F2F7FB" stroke-width="2.20" stroke-linecap="round" stroke-linejoin="round"/>
<line x1="205.00" y1="55.00" x2="40.00" y2="40.00" stroke="#F2F7FB" stroke-width="2.20" stroke-linecap="round" stroke-linejoin="round"/>
<line x1="40.00" y1="140.00" x2="72.00" y2="180.00" stroke="#F2F7FB" stroke-width="2.20" stroke-linecap="round" stroke-linejoin="round"/>
<line x1="72.00" y1="180.00" x2="205.00" y2="155.00" stroke="#F2F7FB" stroke-width="2.20" stroke-linecap="round" stroke-linejoin="round"/>
<line x1="205.00" y1="155.00" x2="40.00" y2="140.00" stroke="#F2F7FB" stroke-width="2.20" stroke-linecap="round" stroke-linejoin="round" stroke-dasharray="9,5"/>
<line x1="40.00" y1="40.00" x2="40.00" y2="140.00" stroke="#F2F7FB" stroke-width="2.20" stroke-linecap="round" stroke-linejoin="round"/>
<line x1="72.00" y1="80.00" x2="72.00" y2="180.00" stroke="#F2F7FB" stroke-width="2.20" stroke-linecap="round" stroke-linejoin="round"/>
<line x1="205.00" y1="55.00" x2="205.00" y2="155.00" stroke="#F2F7FB" stroke-width="2.20" stroke-linecap="round" stroke-linejoin="round"/>
<polygon points="40.00,85.00 72.00,125.00 72.00,180.00 40.00,140.00" fill="#4A90D9" fill-opacity="0.28" stroke="#4A90D9" stroke-width="1.6" stroke-linejoin="round"/>
<polygon points="72.00,125.00 205.00,100.00 205.00,155.00 72.00,180.00" fill="#4A90D9" fill-opacity="0.28" stroke="#4A90D9" stroke-width="1.6" stroke-linejoin="round"/>
<line x1="40.00" y1="85.00" x2="72.00" y2="125.00" stroke="#4A90D9" stroke-width="2.20" stroke-linecap="round" stroke-linejoin="round"/>
<line x1="72.00" y1="125.00" x2="205.00" y2="100.00" stroke="#4A90D9" stroke-width="2.20" stroke-linecap="round" stroke-linejoin="round"/>
</svg>