<svg xmlns="http://www.w3.org/2000/svg" width="322" height="330" viewBox="0 0 322 330">
<rect x="0" y="0" width="322" height="330" fill="#151F23"/>
<line x1="21.0" y1="0" x2="21.0" y2="330" stroke="#3A464E" stroke-width="1"/>
<line x1="61.0" y1="0" x2="61.0" y2="330" stroke="#3A464E" stroke-width="1"/>
<line x1="101.0" y1="0" x2="101.0" y2="330" stroke="#3A464E" stroke-width="1"/>
<line x1="141.0" y1="0" x2="141.0" y2="330" stroke="#3A464E" stroke-width="1"/>
<line x1="181.0" y1="0" x2="181.0" y2="330" stroke="#3A464E" stroke-width="1"/>
<line x1="221.0" y1="0" x2="221.0" y2="330" stroke="#3A464E" stroke-width="1"/>
<line x1="261.0" y1="0" x2="261.0" y2="330" stroke="#3A464E" stroke-width="1"/>
<line x1="301.0" y1="0" x2="301.0" y2="330" stroke="#3A464E" stroke-width="1"/>
<line x1="0" y1="311.0" x2="322" y2="311.0" stroke="#3A464E" stroke-width="1"/>
<line x1="0" y1="271.0" x2="322" y2="271.0" stroke="#3A464E" stroke-width="1"/>
<line x1="0" y1="231.0" x2="322" y2="231.0" stroke="#3A464E" stroke-width="1"/>
<line x1="0" y1="191.0" x2="322" y2="191.0" stroke="#3A464E" stroke-width="1"/>
<line x1="0" y1="151.0" x2="322" y2="151.0" stroke="#3A464E" stroke-width="1"/>
<line x1="0" y1="111.0" x2="322" y2="111.0" stroke="#3A464E" stroke-width="1"/>
<line x1="0" y1="71.0" x2="322" y2="71.0" stroke="#3A464E" stroke-width="1"/>
<line x1="0" y1="31.0" x2="322" y2="31.0" stroke="#3A464E" stroke-width="1"/>
<line x1="21.0" y1="330" x2="21.0" y2="0" stroke="#9AA7B0" stroke-width="2"/>
<polygon points="16.0,10 26.0,10 21.0,0" fill="#9AA7B0"/>
<line x1="0" y1="231.0" x2="322" y2="231.0" stroke="#9AA7B0" stroke-width="2"/>
<polygon points="312.0,226.0 312.0,236.0 322,231.0" fill="#9AA7B0"/>
<text x="5.0" y="249.0" font-family="Georgia, serif" font-style="italic" font-size="15" fill="#F2F7FB">0</text>
<text x="306.0" y="223.0" font-family="Georgia, serif" font-style="italic" font-size="15" fill="#F2F7FB">t, с</text>
<text x="29.0" y="14" font-family="Georgia, serif" font-style="italic" font-size="15" fill="#F2F7FB">v, м/с</text>
<text x="56.0" y="247.0" font-family="Georgia, serif" font-style="italic" font-size="11" fill="#F2F7FB">1</text>
<text x="96.0" y="247.0" font-family="Georgia, serif" font-style="italic" font-size="11" fill="#F2F7FB">2</text>
<text x="136.0" y="247.0" font-family="Georgia, serif" font-style="italic" font-size="11" fill="#F2F7FB">3</text>
<text x="176.0" y="247.0" font-family="Georgia, serif" font-style="italic" font-size="11" fill="#F2F7FB">4</text>
<text x="216.0" y="247.0" font-family="Georgia, serif" font-style="italic" font-size="11" fill="#F2F7FB">5</text>
<text x="256.0" y="247.0" font-family="Georgia, serif" font-style="italic" font-size="11" fill="#F2F7FB">6</text>
<text x="296.0" y="247.0" font-family="Georgia, serif" font-style="italic" font-size="11" fill="#F2F7FB">7</text>
<text x="26.0" y="315.0" font-family="Georgia, serif" font-style="italic" font-size="11" fill="#F2F7FB">-2</text>
<text x="26.0" y="275.0" font-family="Georgia, serif" font-style="italic" font-size="11" fill="#F2F7FB">-1</text>
<text x="26.0" y="195.0" font-family="Georgia, serif" font-style="italic" font-size="11" fill="#F2F7FB">1</text>
<text x="26.0" y="155.0" font-family="Georgia, serif" font-style="italic" font-size="11" fill="#F2F7FB">2</text>
<text x="26.0" y="115.0" font-family="Georgia, serif" font-style="italic" font-size="11" fill="#F2F7FB">3</text>
<text x="26.0" y="75.0" font-family="Georgia, serif" font-style="italic" font-size="11" fill="#F2F7FB">4</text>
<text x="26.0" y="35.0" font-family="Georgia, serif" font-style="italic" font-size="11" fill="#F2F7FB">5</text>
<path d="M 141.0,271.0 L 181.0,151.0 L 261.0,71.0" fill="none" stroke="#7dd3fc" stroke-width="2.6" stroke-linecap="round" stroke-linejoin="round"/>
<circle cx="141.0" cy="271.0" r="3.5" fill="#7dd3fc" stroke="#0369a1" stroke-width="1.2"/>
<circle cx="181.0" cy="151.0" r="3.5" fill="#7dd3fc" stroke="#0369a1" stroke-width="1.2"/>
<circle cx="261.0" cy="71.0" r="3.5" fill="#7dd3fc" stroke="#0369a1" stroke-width="1.2"/>
</svg>