<svg xmlns="http://www.w3.org/2000/svg" width="400" height="254" viewBox="0 0 400 254">
<rect x="0" y="0" width="400" height="254" fill="#151F23"/>
<line x1="60" y1="44" x2="60" y2="204" stroke="#3A464E" stroke-width="1"/>
<line x1="100" y1="44" x2="100" y2="204" stroke="#3A464E" stroke-width="1"/>
<line x1="140" y1="44" x2="140" y2="204" stroke="#3A464E" stroke-width="1"/>
<line x1="180" y1="44" x2="180" y2="204" stroke="#3A464E" stroke-width="1"/>
<line x1="220" y1="44" x2="220" y2="204" stroke="#3A464E" stroke-width="1"/>
<line x1="260" y1="44" x2="260" y2="204" stroke="#3A464E" stroke-width="1"/>
<line x1="300" y1="44" x2="300" y2="204" stroke="#3A464E" stroke-width="1"/>
<line x1="340" y1="44" x2="340" y2="204" stroke="#3A464E" stroke-width="1"/>
<line x1="60" y1="44" x2="340" y2="44" stroke="#3A464E" stroke-width="1"/>
<line x1="60" y1="84" x2="340" y2="84" stroke="#3A464E" stroke-width="1"/>
<line x1="60" y1="124" x2="340" y2="124" stroke="#3A464E" stroke-width="1"/>
<line x1="60" y1="164" x2="340" y2="164" stroke="#3A464E" stroke-width="1"/>
<line x1="60" y1="204" x2="340" y2="204" stroke="#3A464E" stroke-width="1"/>
<line x1="60.0" y1="204.0" x2="60.0" y2="32.0" stroke="#F2F7FB" stroke-width="2" stroke-linecap="round"/>
<polygon points="60.0,32.0 65.0,40.7 55.0,40.7" fill="#F2F7FB"/>
<line x1="60.0" y1="204.0" x2="360.0" y2="204.0" stroke="#F2F7FB" stroke-width="2" stroke-linecap="round"/>
<polygon points="360.0,204.0 351.3,209.0 351.3,199.0" fill="#F2F7FB"/>
<text x="46.0" y="224.0" font-family="Georgia, serif"  font-weight="normal" font-size="17" fill="#F2F7FB" text-anchor="middle">0</text>
<text x="44.0" y="26.0" font-family="Georgia, serif" font-style="italic" font-weight="normal" font-size="16" fill="#F2F7FB" text-anchor="middle">p</text>
<text x="368.0" y="210.0" font-family="Georgia, serif" font-style="italic" font-weight="normal" font-size="16" fill="#F2F7FB" text-anchor="start">V</text>
<line x1="60" y1="124" x2="140" y2="124" stroke="#f0a868" stroke-width="2.2"/>
<line x1="60.0" y1="124.0" x2="100.0" y2="124.0" stroke="#f0a868" stroke-width="2.2" stroke-linecap="round"/>
<polygon points="100.0,124.0 93.9,127.5 93.9,120.5" fill="#f0a868"/>
<circle cx="60.0" cy="124.0" r="5" fill="#f0a868" stroke="#0369a1" stroke-width="1.5"/>
<circle cx="140.0" cy="124.0" r="5" fill="#f0a868" stroke="#0369a1" stroke-width="1.5"/>
<line x1="180" y1="164" x2="300" y2="164" stroke="#5b9bd5" stroke-width="2.2"/>
<line x1="180.0" y1="164.0" x2="240.0" y2="164.0" stroke="#5b9bd5" stroke-width="2.2" stroke-linecap="round"/>
<polygon points="240.0,164.0 233.9,167.5 233.9,160.5" fill="#5b9bd5"/>
<circle cx="180.0" cy="164.0" r="5" fill="#5b9bd5" stroke="#0369a1" stroke-width="1.5"/>
<circle cx="300.0" cy="164.0" r="5" fill="#5b9bd5" stroke="#0369a1" stroke-width="1.5"/>
</svg>