<svg xmlns="http://www.w3.org/2000/svg" width="300" height="196" viewBox="0 0 300 196">
<rect x="0" y="0" width="300" height="196" fill="#151F23"/>
<line x1="20.0" y1="20.0" x2="20.0" y2="176.0" stroke="#3A464E" stroke-width="1"/>
<line x1="46.0" y1="20.0" x2="46.0" y2="176.0" stroke="#3A464E" stroke-width="1"/>
<line x1="72.0" y1="20.0" x2="72.0" y2="176.0" stroke="#3A464E" stroke-width="1"/>
<line x1="98.0" y1="20.0" x2="98.0" y2="176.0" stroke="#3A464E" stroke-width="1"/>
<line x1="124.0" y1="20.0" x2="124.0" y2="176.0" stroke="#3A464E" stroke-width="1"/>
<line x1="150.0" y1="20.0" x2="150.0" y2="176.0" stroke="#3A464E" stroke-width="1"/>
<line x1="176.0" y1="20.0" x2="176.0" y2="176.0" stroke="#3A464E" stroke-width="1"/>
<line x1="202.0" y1="20.0" x2="202.0" y2="176.0" stroke="#3A464E" stroke-width="1"/>
<line x1="228.0" y1="20.0" x2="228.0" y2="176.0" stroke="#3A464E" stroke-width="1"/>
<line x1="254.0" y1="20.0" x2="254.0" y2="176.0" stroke="#3A464E" stroke-width="1"/>
<line x1="280.0" y1="20.0" x2="280.0" y2="176.0" stroke="#3A464E" stroke-width="1"/>
<line x1="20.0" y1="20.0" x2="280.0" y2="20.0" stroke="#3A464E" stroke-width="1"/>
<line x1="20.0" y1="46.0" x2="280.0" y2="46.0" stroke="#3A464E" stroke-width="1"/>
<line x1="20.0" y1="72.0" x2="280.0" y2="72.0" stroke="#3A464E" stroke-width="1"/>
<line x1="20.0" y1="98.0" x2="280.0" y2="98.0" stroke="#3A464E" stroke-width="1"/>
<line x1="20.0" y1="124.0" x2="280.0" y2="124.0" stroke="#3A464E" stroke-width="1"/>
<line x1="20.0" y1="150.0" x2="280.0" y2="150.0" stroke="#3A464E" stroke-width="1"/>
<line x1="20.0" y1="176.0" x2="280.0" y2="176.0" stroke="#3A464E" stroke-width="1"/>
<circle cx="46.0" cy="72.0" r="6" fill="#7dd3fc" stroke="#0369a1" stroke-width="1.5"/>
<line x1="46.0" y1="72.0" x2="124.0" y2="72.0" stroke="#f0a868" stroke-width="2.6" stroke-linecap="round"/>
<polygon points="124.0,72.0 116.2,76.5 116.2,67.5" fill="#f0a868"/>
<text x="135.7" y="66.0" font-family="Georgia, serif" font-style="italic" font-weight="bold" font-size="14" fill="#f0a868">F₁</text>
<text x="34.0" y="88.0" font-family="Georgia, serif" font-style="italic" font-weight="normal" font-size="14" fill="#F2F7FB" text-anchor="middle">1</text>
<circle cx="254.0" cy="150.0" r="6" fill="#7dd3fc" stroke="#0369a1" stroke-width="1.5"/>
<line x1="254.0" y1="150.0" x2="176.0" y2="46.0" stroke="#f0a868" stroke-width="2.6" stroke-linecap="round"/>
<polygon points="176.0,46.0 184.3,49.5 177.1,54.9" fill="#f0a868"/>
<text x="164.3" y="24.4" font-family="Georgia, serif" font-style="italic" font-weight="bold" font-size="14" fill="#f0a868">F₂</text>
<text x="264.0" y="166.0" font-family="Georgia, serif" font-style="italic" font-weight="normal" font-size="14" fill="#F2F7FB" text-anchor="middle">2</text>
</svg>