<svg xmlns="http://www.w3.org/2000/svg" width="340" height="220" viewBox="0 0 340 220">
<rect x="0" y="0" width="340" height="220" fill="#151F23"/>
<rect x="120.0" y="79.0" width="50" height="22" fill="#7dd3fc" fill-opacity="0.85" stroke="#7dd3fc" stroke-width="1.5" rx="2"/>
<text x="145" y="63.0" text-anchor="middle" font-family="Georgia, serif" font-style="italic" font-size="15" fill="#F2F7FB">1 Ом</text>
<rect x="185.0" y="79.0" width="50" height="22" fill="#7dd3fc" fill-opacity="0.85" stroke="#7dd3fc" stroke-width="1.5" rx="2"/>
<text x="210" y="63.0" text-anchor="middle" font-family="Georgia, serif" font-style="italic" font-size="15" fill="#F2F7FB">2 Ом</text>
<rect x="250.0" y="79.0" width="50" height="22" fill="#7dd3fc" fill-opacity="0.85" stroke="#7dd3fc" stroke-width="1.5" rx="2"/>
<text x="275" y="63.0" text-anchor="middle" font-family="Georgia, serif" font-style="italic" font-size="15" fill="#F2F7FB">3 Ом</text>
<circle cx="20" cy="90" r="2.5" fill="#F2F7FB"/>
<circle cx="40" cy="76" r="2.5" fill="#F2F7FB"/>
<line x1="20" y1="90" x2="34" y2="62" stroke="#F2F7FB" stroke-width="2"/>
<polyline points="10,90 20,90" fill="none" stroke="#F2F7FB" stroke-width="2"/>
<polyline points="40,90 44,90" fill="none" stroke="#F2F7FB" stroke-width="2"/>
<polyline points="40,90 120,90" fill="none" stroke="#F2F7FB" stroke-width="2"/>
<polyline points="170,90 185,90" fill="none" stroke="#F2F7FB" stroke-width="2"/>
<polyline points="235,90 250,90" fill="none" stroke="#F2F7FB" stroke-width="2"/>
<polyline points="300,90 310,90 310,165" fill="none" stroke="#F2F7FB" stroke-width="2"/>
<polyline points="10,90 10,165" fill="none" stroke="#F2F7FB" stroke-width="2"/>
<rect x="105.0" y="154.0" width="110" height="22" fill="#7dd3fc" fill-opacity="0.85" stroke="#7dd3fc" stroke-width="1.5" rx="2"/>
<text x="160" y="200" text-anchor="middle" font-family="Georgia, serif" font-style="italic" font-size="15" fill="#F2F7FB">0 – 6 Ом</text>
<polyline points="10,165 105,165" fill="none" stroke="#F2F7FB" stroke-width="2"/>
<polyline points="215,165 310,165" fill="none" stroke="#F2F7FB" stroke-width="2"/>
<line x1="140" y1="150" x2="160" y2="154" stroke="#F2F7FB" stroke-width="2"/>
<polygon points="156,148 164,150 160,158" fill="#F2F7FB"/>
<polyline points="120,90 120,40 170,40 170,90" fill="none" stroke="#F2F7FB" stroke-width="2"/>
<circle cx="145.0" cy="40" r="16" fill="#151F23" stroke="#F2F7FB" stroke-width="2"/>
<text x="145.0" y="46" text-anchor="middle" font-family="Georgia, serif" font-size="16" fill="#F2F7FB">V</text>
<text x="145.0" y="15" text-anchor="middle" font-family="Georgia, serif" font-style="italic" font-size="15" fill="#F2F7FB">0,6 В</text>
</svg>