<svg xmlns="http://www.w3.org/2000/svg" width="317" height="330" viewBox="0 0 317 330">
<rect x="0" y="0" width="317" height="330" fill="#151F23"/>
<line x1="19.8" y1="0" x2="19.8" y2="330" stroke="#3A464E" stroke-width="1"/>
<line x1="59.8" y1="0" x2="59.8" y2="330" stroke="#3A464E" stroke-width="1"/>
<line x1="99.8" y1="0" x2="99.8" y2="330" stroke="#3A464E" stroke-width="1"/>
<line x1="139.8" y1="0" x2="139.8" y2="330" stroke="#3A464E" stroke-width="1"/>
<line x1="179.8" y1="0" x2="179.8" y2="330" stroke="#3A464E" stroke-width="1"/>
<line x1="219.8" y1="0" x2="219.8" y2="330" stroke="#3A464E" stroke-width="1"/>
<line x1="259.8" y1="0" x2="259.8" y2="330" stroke="#3A464E" stroke-width="1"/>
<line x1="0" y1="311.0" x2="317" y2="311.0" stroke="#3A464E" stroke-width="1"/>
<line x1="0" y1="271.0" x2="317" y2="271.0" stroke="#3A464E" stroke-width="1"/>
<line x1="0" y1="231.0" x2="317" y2="231.0" stroke="#3A464E" stroke-width="1"/>
<line x1="0" y1="191.0" x2="317" y2="191.0" stroke="#3A464E" stroke-width="1"/>
<line x1="0" y1="151.0" x2="317" y2="151.0" stroke="#3A464E" stroke-width="1"/>
<line x1="0" y1="111.0" x2="317" y2="111.0" stroke="#3A464E" stroke-width="1"/>
<line x1="0" y1="71.0" x2="317" y2="71.0" stroke="#3A464E" stroke-width="1"/>
<line x1="0" y1="31.0" x2="317" y2="31.0" stroke="#3A464E" stroke-width="1"/>
<line x1="19.8" y1="330" x2="19.8" y2="0" stroke="#9AA7B0" stroke-width="2"/>
<polygon points="14.8,10 24.8,10 19.8,0" fill="#9AA7B0"/>
<line x1="0" y1="271.0" x2="317" y2="271.0" stroke="#9AA7B0" stroke-width="2"/>
<polygon points="306.8,266.0 306.8,276.0 317,271.0" fill="#9AA7B0"/>
<text x="3.8" y="289.0" font-family="Georgia, serif" font-style="italic" font-size="15" fill="#F2F7FB">0</text>
<text x="300.8" y="263.0" font-family="Georgia, serif" font-style="italic" font-size="15" fill="#F2F7FB">t, с</text>
<text x="27.8" y="14" font-family="Georgia, serif" font-style="italic" font-size="15" fill="#F2F7FB">v, м/с</text>
<text x="54.8" y="287.0" font-family="Georgia, serif" font-style="italic" font-size="11" fill="#F2F7FB">2</text>
<text x="94.8" y="287.0" font-family="Georgia, serif" font-style="italic" font-size="11" fill="#F2F7FB">4</text>
<text x="134.8" y="287.0" font-family="Georgia, serif" font-style="italic" font-size="11" fill="#F2F7FB">6</text>
<text x="174.8" y="287.0" font-family="Georgia, serif" font-style="italic" font-size="11" fill="#F2F7FB">8</text>
<text x="214.8" y="287.0" font-family="Georgia, serif" font-style="italic" font-size="11" fill="#F2F7FB">10</text>
<text x="254.8" y="287.0" font-family="Georgia, serif" font-style="italic" font-size="11" fill="#F2F7FB">12</text>
<text x="24.8" y="315.0" font-family="Georgia, serif" font-style="italic" font-size="11" fill="#F2F7FB">-1</text>
<text x="24.8" y="235.0" font-family="Georgia, serif" font-style="italic" font-size="11" fill="#F2F7FB">1</text>
<text x="24.8" y="195.0" font-family="Georgia, serif" font-style="italic" font-size="11" fill="#F2F7FB">2</text>
<text x="24.8" y="155.0" font-family="Georgia, serif" font-style="italic" font-size="11" fill="#F2F7FB">3</text>
<text x="24.8" y="115.0" font-family="Georgia, serif" font-style="italic" font-size="11" fill="#F2F7FB">4</text>
<text x="24.8" y="75.0" font-family="Georgia, serif" font-style="italic" font-size="11" fill="#F2F7FB">5</text>
<text x="24.8" y="35.0" font-family="Georgia, serif" font-style="italic" font-size="11" fill="#F2F7FB">6</text>
<path d="M 19.8,271.0 L 139.8,151.0 L 259.8,71.0" fill="none" stroke="#f0a868" stroke-width="2.6" stroke-linecap="round" stroke-linejoin="round"/>
<circle cx="19.8" cy="271.0" r="3.5" fill="#f0a868" stroke="#0369a1" stroke-width="1.2"/>
<circle cx="139.8" cy="151.0" r="3.5" fill="#f0a868" stroke="#0369a1" stroke-width="1.2"/>
<circle cx="259.8" cy="71.0" r="3.5" fill="#f0a868" stroke="#0369a1" stroke-width="1.2"/>
</svg>