<svg xmlns="http://www.w3.org/2000/svg" width="245" height="265" viewBox="0 0 245 265">
<rect x="0" y="0" width="245" height="265" fill="#151F23"/>
<line x1="46.0" y1="0" x2="46.0" y2="265" stroke="#3A464E" stroke-width="1"/>
<line x1="82.0" y1="0" x2="82.0" y2="265" stroke="#3A464E" stroke-width="1"/>
<line x1="118.0" y1="0" x2="118.0" y2="265" stroke="#3A464E" stroke-width="1"/>
<line x1="154.0" y1="0" x2="154.0" y2="265" stroke="#3A464E" stroke-width="1"/>
<line x1="190.0" y1="0" x2="190.0" y2="265" stroke="#3A464E" stroke-width="1"/>
<line x1="46.0" y1="234.8" x2="245" y2="234.8" stroke="#3A464E" stroke-width="1"/>
<line x1="46.0" y1="198.8" x2="245" y2="198.8" stroke="#3A464E" stroke-width="1"/>
<line x1="46.0" y1="162.8" x2="245" y2="162.8" stroke="#3A464E" stroke-width="1"/>
<line x1="46.0" y1="126.8" x2="245" y2="126.8" stroke="#3A464E" stroke-width="1"/>
<line x1="46.0" y1="90.8" x2="245" y2="90.8" stroke="#3A464E" stroke-width="1"/>
<line x1="46.0" y1="54.8" x2="245" y2="54.8" stroke="#3A464E" stroke-width="1"/>
<line x1="46.0" y1="265" x2="46.0" y2="0" stroke="#9AA7B0" stroke-width="2"/>
<polygon points="41.0,10 51.0,10 46.0,0" fill="#9AA7B0"/>
<line x1="46.0" y1="234.8" x2="245" y2="234.8" stroke="#9AA7B0" stroke-width="2"/>
<polygon points="234.8,229.8 234.8,239.8 245,234.8" fill="#9AA7B0"/>
<text x="30.0" y="252.8" font-family="Georgia, serif" font-style="italic" font-size="14" fill="#F2F7FB">0</text>
<text x="236.8" y="226.8" font-family="Georgia, serif" font-style="italic" font-size="15" fill="#F2F7FB" text-anchor="end">T</text>
<text x="54.0" y="16" font-family="Georgia, serif" font-style="italic" font-size="15" fill="#F2F7FB">V</text>
<path d="M 118.0,198.8 Q 204.4,152.0 190.0,54.8" fill="none" stroke="#7dd3fc" stroke-width="2.4" stroke-linecap="round"/>
<line x1="179.2" y1="139.4" x2="174.0" y2="147.9" stroke="#7dd3fc" stroke-width="2.4" stroke-linecap="round"/>
<line x1="179.2" y1="139.4" x2="169.2" y2="139.1" stroke="#7dd3fc" stroke-width="2.4" stroke-linecap="round"/>
<circle cx="118.0" cy="198.8" r="3.6" fill="#7dd3fc" stroke="#0369a1" stroke-width="1.3"/>
<text x="102.0" y="203.8" font-family="Georgia, serif" font-weight="bold" font-size="14" fill="#F2F7FB">1</text>
<circle cx="190.0" cy="54.8" r="3.6" fill="#7dd3fc" stroke="#0369a1" stroke-width="1.3"/>
<text x="198.0" y="46.8" font-family="Georgia, serif" font-weight="bold" font-size="14" fill="#F2F7FB">2</text>
</svg>