
<svg xmlns="http://www.w3.org/2000/svg" version="1.1" xmlns:xlink="http://www.w3.org/1999/xlink" preserveAspectRatio="none" x="0px" y="0px" width="27px" height="24px" viewBox="0 0 27 24">
<defs>
<g id="Layer0_0_FILL">
<path fill="#F8312F" stroke="none" d="
M 29.9 12.95
Q 30.2 8.15 25.95 6.05 22.85 4.5 19.75 5.65 17.4 6.55 15.95 8.55 14.45 6.55 12.15 5.65 9.1 4.5 5.95 6.05 1.7 8.15 2.05 12.95 2.3 17.35 5.95 21 11 26.05 14.9 29.2 16.05 30.05 17.1 29.25 20.25 26.85 25.95 21 29.6 17.35 29.9 12.95 Z"/>
</g>

<g id="Layer0_1_FILL">
<path fill="#CA0B4A" stroke="none" d="
M 19.65 5.7
Q 17.4 6.6 15.95 8.5
L 15.95 11.55
Q 17.2 9.05 19.3 7.5 22.1 5.5 25.65 5.85 22.6 4.5 19.65 5.7 Z"/>
</g>

<g id="Layer0_2_FILL">
<path fill="#CA0B4A" stroke="none" d="
M 8.85 6.4
Q 10.3 5.7 11.9 5.55 8.9 4.55 5.95 6.05 1.7 8.15 2.05 12.95 2.3 17.35 5.95 21 11 26.05 14.9 29.2 16.05 30.05 17.1 29.25
L 17.85 28.6
Q 13.65 25.5 8.85 21.15 4.85 17.6 4.5 13.25 4.15 8.5 8.85 6.4 Z"/>
</g>

<g id="Layer0_3_FILL">
<path fill="#F37366" stroke="none" d="
M 25.85 8.5
Q 24.85 7.9 23.4 8.7 21.95 9.5 21 11.2 20 12.95 20.05 14.55 20.05 16.2 21.05 16.75 22.05 17.35 23.5 16.55 24.9 15.75 25.9 14.05 26.9 12.35 26.9 10.7 26.85 9.05 25.85 8.5 Z"/>
</g>
</defs>

<g transform="matrix( 0.9413604736328125, 0, 0, 0.9387664794921875, -1.05,-4.05) ">
<use xlink:href="#Layer0_0_FILL"/>
</g>

<g transform="matrix( 0.9413604736328125, 0, 0, 0.9387664794921875, -1.05,-4.05) ">
<use xlink:href="#Layer0_1_FILL"/>
</g>

<g transform="matrix( 0.9413604736328125, 0, 0, 0.9387664794921875, -1.05,-4.05) ">
<use xlink:href="#Layer0_2_FILL"/>
</g>

<g transform="matrix( 0.9413604736328125, 0, 0, 0.9387664794921875, -1.05,-4.05) ">
<use xlink:href="#Layer0_3_FILL"/>
</g>
</svg>
