
<svg xmlns="http://www.w3.org/2000/svg" version="1.1" xmlns:xlink="http://www.w3.org/1999/xlink" preserveAspectRatio="none" x="0px" y="0px" width="27px" height="24px" viewBox="0 0 27 24">
<defs>
<g id="Layer0_0_STROKES_1_FILL">
<path fill="#666666" stroke="none" d="
M 7.8 18.2
Q 7.6517578125 18.3447265625 7.65 18.55 7.6517578125 18.7552734375 7.8 18.9 10.73515625 21.8390625 13.45 23.25 14.1611328125 23.93046875 15.35 22.9
L 15.4 22.9 17.3 21.1
Q 17.4470703125 20.981640625 17.45 20.75 17.46171875 20.559765625 17.3 20.4 17.1818359375 20.2525390625 16.95 20.25 16.7603515625 20.2384765625 16.6 20.35
L 14.7 22.15 14.7 22.15
Q 14.265625 22.5470703125 14.05 22.45 14.032421875 22.430859375 13.95 22.4 11.3326171875 21.028515625 8.5 18.2 8.3552734375 18.0517578125 8.15 18.05 7.9447265625 18.0517578125 7.8 18.2
M 2.2 11.4
Q 2.02421875 11.5275390625 1.95 11.7 1.9216796875 11.9228515625 2 12.1 3.0982421875 13.9486328125 5.15 15.95
L 5.1 15.9
Q 5.7626953125 16.725390625 6.35 17.4 6.5025390625 17.5830078125 6.7 17.6 6.9115234375 17.6130859375 7.05 17.45 7.233203125 17.3478515625 7.25 17.15 7.2626953125 16.938671875 7.1 16.75 6.5373046875 16.0748046875 5.9 15.25 5.8759765625 15.2619140625 5.85 15.25 3.9017578125 13.351171875 2.85 11.6 2.771875 11.42421875 2.55 11.35 2.3771484375 11.3212890625 2.2 11.4
M 3.35 3.7
Q 3.4767578125 3.531640625 3.45 3.3 3.4185546875 3.1232421875 3.25 3 3.082421875 2.8732421875 2.85 2.9 2.6732421875 2.93203125 2.55 3.1 1.321484375 4.6796875 0.95 7.35 0.7349609375 8.73515625 1.15 10.15 1.2390625 10.3501953125 1.4 10.45 1.6056640625 10.5416015625 1.8 10.45 2 10.4111328125 2.1 10.2 2.19140625 10.0443359375 2.1 9.85 1.76484375 8.6646484375 1.95 7.5 2.278515625 5.1203125 3.35 3.7
M 11.2 2.45
Q 11.376953125 2.5787109375 11.55 2.5 11.7716796875 2.476171875 11.85 2.3 11.9787109375 2.1236328125 11.9 1.9 11.8755859375 1.7283203125 11.7 1.6 10.88984375 1.138671875 10 0.9 9.9994140625 0.91171875 9.95 0.9 6.37109375 0.3216796875 4.15 1.65 3.9740234375 1.778515625 3.9 1.95 3.8712890625 2.1736328125 3.95 2.35 4.078125 2.5259765625 4.25 2.55 4.4736328125 2.6283203125 4.65 2.5 6.6287109375 1.378125 9.8 1.9
L 9.75 1.85
Q 10.51015625 2.0611328125 11.2 2.45
M 18.4 2
Q 18.61640625 1.9451171875 18.7 1.75 18.7919921875 1.5646484375 18.7 1.35 18.6453125 1.183984375 18.45 1.1 18.264453125 1.008203125 18.05 1.05 16.1673828125 1.787109375 14.05 3.8 13.684765625 3.3828125 13.3 3 13.1552734375 2.8517578125 12.95 2.85 12.7447265625 2.8517578125 12.6 3 12.4517578125 3.1447265625 12.45 3.35 12.4517578125 3.5552734375 12.6 3.7 13.123828125 4.226953125 13.6 4.85 13.6888671875 4.9701171875 13.8 5 13.9603515625 5.0783203125 14.1 5.05 14.244140625 5.01015625 14.35 4.9 16.5099609375 2.746484375 18.4 2
M 23.5 14.1
Q 23.3162109375 14.11640625 23.15 14.25 22.79765625 14.7 22.3 15.1
L 22.3 15.1 18.1 19
Q 17.953125 19.1677734375 17.95 19.35 17.9380859375 19.5896484375 18.05 19.75 18.217578125 19.8970703125 18.4 19.9 18.6392578125 19.91171875 18.8 19.75
L 23 15.85 22.95 15.85
Q 23.50234375 15.4001953125 23.9 14.9 24.0623046875 14.7751953125 24.05 14.55 24.0337890625 14.366015625 23.85 14.2 23.7255859375 14.0873046875 23.5 14.1
M 25.5 4.5
Q 25.6279296875 4.6755859375 25.8 4.7 26.0228515625 4.7787109375 26.2 4.65 26.3755859375 4.572265625 26.4 4.35 26.4783203125 4.1771484375 26.35 4 24.902734375 1.3978515625 20.45 0.7 20.4365234375 0.696875 20.4 0.7 20.3 0.7 20.2 0.7 19.9947265625 0.7017578125 19.85 0.85 19.7017578125 0.9947265625 19.7 1.2 19.7017578125 1.4052734375 19.85 1.55 19.9947265625 1.6982421875 20.2 1.7 20.2625 1.7 20.3 1.7 24.1974609375 2.3021484375 25.5 4.5
M 27.1 6.05
Q 27.0677734375 5.8720703125 26.9 5.75 26.73125 5.6228515625 26.5 5.65 26.322265625 5.6818359375 26.2 5.85 26.073046875 6.01875 26.1 6.2 26.3802734375 8.179296875 25.5 10.85 25.0984375 11.7751953125 24.4 12.7 24.2732421875 12.86875 24.3 13.05 24.3318359375 13.27734375 24.5 13.4 24.668359375 13.526953125 24.85 13.5 25.0771484375 13.46796875 25.2 13.3 25.9822265625 12.2501953125 26.45 11.2 26.4634765625 11.175390625 26.45 11.15 27.4197265625 8.220703125 27.1 6.05 Z"/>
</g>
</defs>

<g transform="matrix( 1, 0, 0, 1, 0,0) ">
<use xlink:href="#Layer0_0_STROKES_1_FILL"/>
</g>
</svg>
