<?xml version="1.0" encoding="utf-8"?><!-- Uploaded to: SVG Repo, www.svgrepo.com, Generator: SVG Repo Mixer Tools -->
<svg width="800px" height="800px" viewBox="0 0 400 400" fill="none" xmlns="http://www.w3.org/2000/svg">
<path d="M205.822 81.3313C228.274 44.3198 279.123 92.7314 253.996 121.168C228.625 149.88 188.572 128.752 203.706 91.2896" stroke="#000000" stroke-opacity="0.9" stroke-width="16" stroke-linecap="round" stroke-linejoin="round"/>
<path d="M220.115 64.3884C144.832 60.8171 179.528 119.895 176.813 146.307C175.436 159.716 154.336 170.95 152.295 171.512" stroke="#000000" stroke-opacity="0.9" stroke-width="16" stroke-linecap="round" stroke-linejoin="round"/>
<path d="M236.145 63.7594C294.94 52.7299 232.252 165.765 283.002 148.813" stroke="#000000" stroke-opacity="0.9" stroke-width="16" stroke-linecap="round" stroke-linejoin="round"/>
<path d="M204.908 154.249C264.129 155.466 261.101 148.048 235.241 205.213C234.589 206.651 228.173 214.646 228.441 215.718C229.889 221.537 272.997 228.655 275.506 261.426C276.788 278.172 247.02 289.205 186.202 294.525C152.729 324.829 135.083 338.84 133.266 336.556C127.647 329.503 155.646 305.237 152.092 294.525C150.043 288.355 115.36 262.281 116.009 261.954C138.853 250.457 168.814 282.223 180.332 275.611C254.843 232.835 184.064 268.242 192.368 230.701C195.203 217.885 202.968 220.295 209.093 214.142C211.07 212.156 200.71 171.438 199.158 155.825" stroke="#000000" stroke-opacity="0.9" stroke-width="16" stroke-linecap="round" stroke-linejoin="round"/>
<path d="M200.385 154.249C186.495 167.151 165.905 194.325 160.926 219.603" stroke="#000000" stroke-opacity="0.9" stroke-width="16" stroke-linecap="round" stroke-linejoin="round"/>
<path d="M250.941 159.182C268.74 175.957 264.072 205.609 275.603 223.302" stroke="#000000" stroke-opacity="0.9" stroke-width="16" stroke-linecap="round" stroke-linejoin="round"/>
</svg>