<?xml version="1.0" encoding="utf-8"?><!-- Uploaded to: SVG Repo, www.svgrepo.com, Generator: SVG Repo Mixer Tools -->
<svg width="800px" height="800px" viewBox="0 0 400 400" fill="none" xmlns="http://www.w3.org/2000/svg">
<path d="M71.8708 189.953C76.0596 179.972 67.0124 166.184 74.2179 157.188C75.8153 155.199 122.602 153.152 125.561 155.514C136.45 164.206 111.415 193.423 144.018 201.553C171.926 208.513 155.397 160.743 162.516 157.188C171.049 152.934 188.865 158.57 198.547 157.188C226.846 153.158 203.311 181.664 211.97 193.182C217.423 200.435 261.828 185.402 250.56 219.132C244.647 236.825 226.375 230.776 216.164 235.873C211.338 238.281 215.898 272.743 215.1 272.582C205.09 270.587 157.177 275.336 158.734 276.89C168.054 286.189 186.94 229.756 144.018 235.873C133.985 237.301 125.13 246.004 123.884 255.963C123.16 261.765 125.774 278.518 125.561 278.564C113.242 281.023 100.187 277.778 86.9713 281.075C84.5867 281.671 67.5038 288.431 65.9983 286.935C63.3552 284.292 66.3776 262.486 66.8373 258.788C67.5727 252.946 65.9754 240.01 71.8708 240.01C84.7533 240.01 42.0914 251.826 29.6626 235.873C17.2337 219.92 29.6626 189.953 66.8373 198.994" stroke="#000000" stroke-opacity="0.9" stroke-width="16" stroke-linecap="round" stroke-linejoin="round"/>
<path d="M219.962 158.69C301.398 167.678 215.1 108.884 284.641 112.13C309.301 113.281 287.258 146.158 293.857 154.973C299.085 161.97 334.878 147.654 341.615 156.653C345.643 162.039 327.578 197.327 334.074 199.496C339.004 201.142 350.98 188.742 359.204 191.096C376.15 195.952 380.691 231.713 365.907 238.979C351.123 246.245 341.747 240.521 340.777 241.5C336.129 246.154 349.597 267.685 346.642 275.102C344.754 279.832 305.714 287.83 301.398 283.503C292.4 274.481 309.369 240.976 291.344 236.459C265.56 229.998 276.039 267.893 267.046 270.902C254.301 275.16 229.326 272.582 215.1 272.582" stroke="#000000" stroke-opacity="0.9" stroke-width="16" stroke-linecap="round" stroke-linejoin="round"/>
</svg>