<?xml version="1.0" encoding="utf-8"?><!-- Uploaded to: SVG Repo, www.svgrepo.com, Generator: SVG Repo Mixer Tools -->
<svg width="800px" height="800px" viewBox="0 0 400 400" fill="none" xmlns="http://www.w3.org/2000/svg">
<path d="M227.901 80.923C203.483 43.8043 161.729 89.3718 184.649 119.129C207.066 148.234 239.323 127.199 231.919 95.9621" stroke="#000000" stroke-opacity="0.9" stroke-width="16" stroke-linecap="round" stroke-linejoin="round"/>
<path d="M226 328C215.944 280.416 218.802 232.081 222.952 184.014C223.313 179.831 222.952 163.214 222.952 154.537M178.019 150C177.49 150.524 188.303 303.412 186.775 324.598" stroke="#000000" stroke-opacity="0.9" stroke-width="16" stroke-linecap="round" stroke-linejoin="round"/>
<path d="M178 151C174.426 177.354 162.151 201.439 156 227" stroke="#000000" stroke-opacity="0.9" stroke-width="16" stroke-linecap="round" stroke-linejoin="round"/>
<path d="M224 159C227.006 185.32 240.621 210.414 257 231" stroke="#000000" stroke-opacity="0.9" stroke-width="16" stroke-linecap="round" stroke-linejoin="round"/>
<path d="M181 232C139.956 252.127 174.978 351.335 105 332.676" stroke="#000000" stroke-opacity="0.9" stroke-width="16" stroke-linecap="round" stroke-linejoin="round"/>
<path d="M107.533 324C96.0127 338.235 94.909 336.986 112 348" stroke="#000000" stroke-opacity="0.9" stroke-width="16" stroke-linecap="round" stroke-linejoin="round"/>
<path d="M282 144C269.774 204.248 263.781 265.464 255 326" stroke="#000000" stroke-opacity="0.9" stroke-width="16" stroke-linecap="round" stroke-linejoin="round"/>
<path d="M301 160.829C299.017 159.534 296.233 157.361 293.672 158.898C287.569 162.563 287.931 173.159 280.938 176.657C256.39 188.941 267.426 149.115 252 145" stroke="#000000" stroke-opacity="0.9" stroke-width="16" stroke-linecap="round" stroke-linejoin="round"/>
<path d="M235.99 53C236.258 59.6205 231.269 67.1661 229 71" stroke="#000000" stroke-opacity="0.9" stroke-width="16" stroke-linecap="round" stroke-linejoin="round"/>
<path d="M187.17 53C186.452 59.0775 188.123 62.4922 190 67" stroke="#000000" stroke-opacity="0.9" stroke-width="16" stroke-linecap="round" stroke-linejoin="round"/>
</svg>