<?xml version="1.0" encoding="utf-8"?><!-- Uploaded to: SVG Repo, www.svgrepo.com, Generator: SVG Repo Mixer Tools -->
<svg width="800px" height="800px" viewBox="0 0 400 400" fill="none" xmlns="http://www.w3.org/2000/svg">
<path d="M53.7305 284.709C61.0815 276.913 67.7438 268.349 75.3163 260.764C84.3596 251.7 103.183 232.078 105.382 222.911C113.232 190.195 92.0389 146.347 115.405 117.08C130.216 98.5321 133.171 156.412 137.762 147.209C146.133 130.431 153.056 91.6187 167.828 86.1811C186.444 79.3288 181.978 101.549 180.165 112.445" stroke="#000000" stroke-opacity="0.9" stroke-width="16" stroke-linecap="round" stroke-linejoin="round"/>
<path d="M313 318C295.974 291.335 279.274 263.042 262.265 240.5C258.311 235.261 233.632 234.056 226.627 232.059C196.853 223.569 169.869 209.254 167.106 188.933C164.343 168.613 216.485 195.581 214.232 193.554C198.933 179.787 170.503 140.042 175.096 134.886C186.268 122.343 216.914 165.063 219.656 165.063C221.504 165.063 216.094 156.39 215.782 155.822C211.381 147.805 193.403 119.325 201.837 108.847C210.656 97.8864 235.369 139.169 237.475 141.961C239.709 144.923 243.674 154.902 243.674 151.202C243.674 144.723 238.102 137.271 237.475 130.408C237.223 127.665 238.073 99.4301 248.32 109.618C254.738 115.998 259.647 133.498 262.265 141.961C263.228 145.064 263.057 153.497 265.366 151.202C267.115 149.461 264.644 107.362 279.312 121.938C289.829 132.395 299.11 181.495 301.779 197.404C306.527 225.726 328.311 257.128 345.939 279.031" stroke="#000000" stroke-opacity="0.9" stroke-width="16" stroke-linecap="round" stroke-linejoin="round"/>
<path opacity="0.503384" d="M165.174 117.7C156.954 120.309 136.13 148.461 143.62 157.85C143.977 158.299 150.547 160.296 150.547 157.85C150.547 142.139 116.58 189.91 127.452 202.632C129.837 205.421 138.505 210.703 142.079 211.898C143.166 212.261 145.97 209.54 145.157 210.353C138.06 217.474 143.681 229.023 152.087 230.429C160.395 231.819 172.023 219.116 172.871 220.391C174.553 222.92 171.482 226.951 173.641 229.656C183.895 242.51 197.57 231.774 201.355 220.391" stroke="#000000" stroke-opacity="0.9" stroke-width="16" stroke-linecap="round" stroke-linejoin="round"/>
<path opacity="0.503384" d="M198.373 84.1491C204.218 77.2848 211.831 67 222.237 67C231.278 67 225.073 84.8875 227.626 83.4031C231.829 80.9609 234.14 74.9124 239.173 72.9633C248.805 69.233 266.752 85.001 259.19 90.8585" stroke="#000000" stroke-opacity="0.9" stroke-width="16" stroke-linecap="round" stroke-linejoin="round"/>
<path opacity="0.503384" d="M304.982 181.992C312.091 177.092 325.448 173.202 326.547 185.891C327.857 200.993 309.606 196.766 312.42 196.029C319.408 194.195 322.255 207.546 318.367 211.623C311.532 218.791 301.265 198.426 301.265 192.91" stroke="#000000" stroke-opacity="0.9" stroke-width="16" stroke-linecap="round" stroke-linejoin="round"/>
<path d="M156.191 241C136.382 264.829 130.095 278.279 104 315.558" stroke="#000000" stroke-opacity="0.9" stroke-width="16" stroke-linecap="round" stroke-linejoin="round"/>
</svg>