<?xml version="1.0" encoding="utf-8"?><!-- Uploaded to: SVG Repo, www.svgrepo.com, Generator: SVG Repo Mixer Tools -->
<svg width="800px" height="800px" viewBox="0 0 400 400" fill="none" xmlns="http://www.w3.org/2000/svg">
<path d="M57 161.75C153.805 156.25 245.778 156.125 342.75 156.125" stroke="#000000" stroke-opacity="0.9" stroke-width="16" stroke-linecap="round" stroke-linejoin="round"/>
<path d="M98.625 155C113.921 149.663 110.87 118.935 122.064 112.726C128.911 108.928 141.186 123.624 145.502 114.313C146.745 111.628 150.799 91.3276 155.79 92.6476C164.994 95.0775 165.513 110.941 176.373 102.157C181.189 98.2633 201.479 71.7534 206.669 74.1533C227.563 83.8099 226.112 120.525 243.826 132.807C253.588 139.572 264.418 144.848 274.125 151.829" stroke="#000000" stroke-opacity="0.9" stroke-width="16" stroke-linecap="round" stroke-linejoin="round"/>
<path d="M165.816 104.375C191.443 118.946 155.414 128.081 161.124 142.625" stroke="#000000" stroke-opacity="0.9" stroke-width="12" stroke-linecap="round" stroke-linejoin="round"/>
<path opacity="0.340658" d="M98.0905 167.924C101.677 186.82 64.875 206.003 64.875 220.078C64.875 233.065 78.2737 247.109 80.3764 259.895C81.4953 266.702 71.6545 272.082 74.2852 280.083C78.3743 292.503 99.1371 295.833 108.057 301.395C114.645 305.503 119.202 321.122 124.665 322.705C130.922 324.516 158.518 327.085 163.971 325.51C184.112 319.68 188.27 289.071 208.263 284.569C216.749 282.659 262.549 262.222 266.393 255.409C266.475 255.262 274.647 169.621 275.25 162.875" stroke="#000000" stroke-opacity="0.9" stroke-width="16" stroke-linecap="round" stroke-linejoin="round"/>
<path opacity="0.340658" d="M145.875 173C117.124 224.909 127.715 195.991 133.667 258.5" stroke="#000000" stroke-opacity="0.9" stroke-width="16" stroke-linecap="round" stroke-linejoin="round"/>
</svg>