<?xml version="1.0" encoding="iso-8859-1"?>
<!-- Uploaded to: SVG Repo, www.svgrepo.com, Generator: SVG Repo Mixer Tools -->
<svg height="800px" width="800px" version="1.1" id="Capa_1" xmlns="http://www.w3.org/2000/svg" xmlns:xlink="http://www.w3.org/1999/xlink" 
	 viewBox="0 0 249.567 249.567" xml:space="preserve">
<g>
	<path style="fill:#030104;" d="M219.522,129.305c-15.464-1.18-28.654-6.756-43.535-9.951c-1.729-0.378-3.231,1.761-4.256,2.748
		c-4.83,4.658-9.964,10.722-15.746,14.557c-2.595-5.488-7.013-8.627-12.538-10.32c6.614-11.965,21.975-38.313,36.375-30.064
		c1.237,0.709,2.746-0.324,2.786-1.67c0.248-8.517,0.765-17.045,1.486-25.543c0.609-7.279,4.799-16.646,4.761-23.744
		c-0.017-3.755-7.745-15.513-8.946-18.392c-3.515-8.449-5.691-17.286-7.785-26.185c-0.315-1.328-2.336-0.712-2.072,0.595
		c1.816,8.972,3.882,17.814,6.389,26.606c1.74,6.087,9.179,14.941,7.076,21.292c-1.764,5.31-7.705,41.512-4.516,42.383
		c-14.633-3.988-27.523,13.402-35.338,26.936c-0.443-3-2.096-5.684-4.584-7.709c0.852-1.402,1.361-2.959,1.405-4.606
		c0.163-5.994-5.722-10.83-13.124-10.795c-7.418,0.025-13.555,4.905-13.723,10.897c-0.046,1.802,0.461,3.496,1.383,4.988
		c-1.272,1.081-2.334,2.32-3.13,3.681c-7.903-12.29-19.783-26.044-32.178-22.951c-5.981,1.492-2.404-6.629-2.355-11.544
		c0.075-8.681-0.595-17.219-1.972-25.735c-1.655-10.208,3.75-16.369,7.9-25.469c3.913-8.595,6.311-18.031,8.857-27.053
		c0.381-1.32-1.66-1.768-2.067-0.468c-3.324,10.525-7.15,20.629-12.256,30.487c-1.735,3.358-8.727,10.822-8.714,14.304
		c0.033,7.549,3.424,15.908,3.92,23.701c0.554,8.445,0.38,17.049,0.17,25.539c-0.039,1.442,1.566,2.106,2.772,1.488
		c13.467-6.857,26.307,9.333,34.367,22.319c-0.036,0.317-0.077,0.634-0.085,0.958c-0.064,2.329,0.604,4.519,1.833,6.43
		c-5.111,1.918-9.242,5.202-11.833,10.608c-6.435-4.019-11.518-10.103-17.326-14.89c-1.123-0.921-2.34-2.752-4.139-2.296
		c-16.345,4.147-31.87,9.073-48.752,10.279c-1.684,0.119-1.652,2.498,0.011,2.559c14.958,0.547,29.324-4.641,43.742-8.297
		c6.711-1.703,6.791-0.198,12.312,4.076c4.846,3.749,8.1,7.924,13.168,10.939c-0.722,2.015-1.261,4.282-1.597,6.827
		c-5.368-0.156-10.609-0.505-15.832-1.724c-0.579-0.131-1.317,0.138-1.592,0.699c-8.722,18.105-16.94,34.904-34.04,46.955
		c-1.618,1.142-0.203,3.66,1.526,2.588c10.363-6.373,17.55-15.066,23.868-25.223c3.635-5.829,6.705-12.26,9.294-18.574
		c2.039-4.977,11.723-3.3,16.58-2.963c-0.095,1.041-0.167,2.114-0.198,3.244c-0.225,8.221,1.789,17.695,5.08,26.432
		c-3.729,4.432-6.618,9.364-10.583,13.696c-3.645,3.991-7.393,7.301-8.881,12.544c-3.672,12.941,7.089,30.096,11.029,41.776
		c0.419,1.24,2.173,0.679,1.971-0.576c-1.826-11.537-14.033-33.631-5.845-44.241c5.053-6.544,10.55-11.281,14.424-18.058
		c5.858,13.005,14.36,23.253,21.937,23.226c7.281-0.029,16.533-10.62,23.239-23.915c1.883,3.901,4.303,7.481,6.808,11.119
		c2.514,3.665,9.858,9.606,8.856,14.237c-2.939,13.523-7.664,26.777-10.335,40.311c-0.259,1.289,1.517,1.675,1.968,0.451
		c5.236-14.165,10.676-27.287,13.851-42.025c0.676-3.115-1.903-5.579-3.609-7.783c-5.373-6.938-9.639-14.731-15.083-21.567
		c3.702-8.592,6.207-17.832,6.425-25.86c0.038-1.392,0.021-2.712-0.047-3.969c4.535-0.441,12.555-1.734,13.875,2.611
		c1.787,5.901,4.287,11.581,6.782,17.199c4.715,10.623,11.472,20.047,21.126,26.684c1.404,0.965,3.197-1.371,1.876-2.43
		c-15.307-12.336-21.393-28.927-28.479-46.639c-0.284-0.692-0.883-1.104-1.672-0.904c-4.699,1.196-9.005,1.557-13.64,1.746
		c-0.255-2.663-0.761-5.004-1.482-7.066c6.775-5.188,15.255-17.672,21.374-15.536c12.689,4.428,27.529,9.469,41.293,8.579
		C221.246,131.75,221.159,129.434,219.522,129.305z"/>
</g>
</svg>