<?xml version="1.0" encoding="iso-8859-1"?>
<!-- Uploaded to: SVG Repo, www.svgrepo.com, Generator: SVG Repo Mixer Tools -->
<svg height="800px" width="800px" version="1.1" id="Layer_1" xmlns="http://www.w3.org/2000/svg" xmlns:xlink="http://www.w3.org/1999/xlink" 
	 viewBox="0 0 503.469 503.469" xml:space="preserve">
<g transform="translate(0 -1)">
	<g>
		<path style="fill:#805333;" d="M234.071,115.762c-4.564,0-8.43-3.513-8.792-8.148c-0.044-0.53-4.564-53.645-35.337-53.645
			c-15.113,0-26.739-4.484-34.551-13.33c-11.697-13.25-9.613-31.144-9.516-31.903c0.6-4.838,4.996-8.289,9.852-7.662
			c4.82,0.609,8.245,4.988,7.671,9.807c-0.035,0.327-1.059,11.043,5.314,18.167c4.317,4.829,11.467,7.265,21.23,7.265
			c47.086,0,52.727,67.098,52.939,69.959c0.371,4.855-3.266,9.092-8.121,9.463C234.53,115.753,234.3,115.762,234.071,115.762"/>
		<path style="fill:#805333;" d="M269.399,115.766c-0.221,0-0.45-0.009-0.68-0.026c-4.855-0.362-8.501-4.608-8.13-9.472
			c0.212-2.851,5.853-69.95,52.939-69.95c9.763,0,16.914-2.445,21.23-7.265c6.444-7.203,5.323-18.079,5.314-18.185
			c-0.539-4.82,2.913-9.198,7.733-9.763c4.891-0.547,9.19,2.825,9.79,7.636c0.097,0.75,2.18,18.644-9.516,31.903
			c-7.812,8.845-19.438,13.33-34.551,13.33c-30.905,0-35.293,53.098-35.337,53.636C277.847,112.244,273.971,115.766,269.399,115.766
			"/>
	</g>
	<path style="fill:#95A5A5;" d="M278.217,142.249h-52.965c-9.746,0-17.655-7.91-17.655-17.655s7.91-17.655,17.655-17.655h52.965
		c9.746,0,17.655,7.91,17.655,17.655S287.963,142.249,278.217,142.249"/>
	<g>
		<path style="fill:#805333;" d="M295.864,186.387c-4.122,0-7.812-2.904-8.642-7.097c-0.962-4.776,2.136-9.428,6.921-10.381
			l40.554-8.113l33.28-49.929c1.298-1.942,3.319-3.302,5.614-3.752l40.554-8.113l15.625-23.446
			c2.701-4.061,8.183-5.164,12.244-2.445c4.052,2.701,5.146,8.183,2.445,12.244l-17.655,26.483
			c-1.298,1.942-3.319,3.302-5.614,3.752l-40.554,8.113l-33.28,49.929c-1.298,1.942-3.319,3.302-5.614,3.752l-44.138,8.828
			C297.02,186.334,296.437,186.387,295.864,186.387"/>
		<path style="fill:#805333;" d="M428.286,248.18h-35.31c-1.598,0-3.169-0.433-4.546-1.262l-42.037-25.22H304.7
			c-4.873,0-8.828-3.955-8.828-8.828s3.955-8.828,8.828-8.828h44.138c1.598,0,3.169,0.433,4.546,1.262l42.037,25.22h32.865
			c4.873,0,8.828,3.955,8.828,8.828C437.114,244.225,433.159,248.18,428.286,248.18"/>
		<path style="fill:#805333;" d="M207.605,186.387c-0.574,0-1.156-0.053-1.739-0.177l-44.138-8.828
			c-2.295-0.45-4.317-1.81-5.614-3.752l-33.28-49.929l-40.554-8.113c-2.295-0.45-4.317-1.81-5.614-3.752L59.011,85.355
			c-2.701-4.061-1.607-9.543,2.445-12.244c4.061-2.719,9.534-1.615,12.244,2.445l15.625,23.446l40.554,8.113
			c2.295,0.45,4.317,1.81,5.614,3.752l33.28,49.929l40.554,8.113c4.785,0.953,7.883,5.606,6.921,10.381
			C215.418,183.482,211.728,186.387,207.605,186.387"/>
		<path style="fill:#805333;" d="M110.493,248.18h-35.31c-4.873,0-8.828-3.955-8.828-8.828c0-4.873,3.955-8.828,8.828-8.828h32.865
			l42.037-25.22c1.377-0.83,2.948-1.262,4.546-1.262h44.138c4.873,0,8.828,3.955,8.828,8.828s-3.955,8.828-8.828,8.828h-41.693
			l-42.037,25.22C113.662,247.747,112.091,248.18,110.493,248.18"/>
	</g>
	<g>
		<path style="fill:#DBCB95;" d="M207.597,186.387c0,0-76.138,137.384-88.276,317.793c0,0,44.871,11.767,70.621-114.759
			C189.941,389.421,210.351,251.49,207.597,186.387"/>
		<path style="fill:#DBCB95;" d="M295.872,186.387c0,0,76.138,137.384,88.276,317.793c0,0-44.871,11.767-70.621-114.759
			C313.528,389.421,293.118,251.49,295.872,186.387"/>
	</g>
	<path style="fill:#F0C419;" d="M299.403,269.969c-1.156-1.077-3.531-74.752-3.531-74.752c0-29.255-19.765-52.966-44.138-52.966
		c-24.373,0-44.138,23.711-44.138,52.966c0,0-2.375,73.675-3.531,74.752c-3.778,42.796-9.419,85.795-12.297,106.584
		c9.331,25.944,26.809,59.162,59.966,92.319c33.156-33.156,50.635-66.375,59.966-92.319
		C308.822,355.764,303.181,312.765,299.403,269.969"/>
	<g>
		<path d="M198.769,345.283H304.7c0.997,0,1.916-0.265,2.807-0.565c-0.662-5.332-1.359-11.026-2.057-16.94
			c-0.265-0.018-0.486-0.15-0.75-0.15H198.769c-0.265,0-0.486,0.132-0.75,0.15c-0.697,5.914-1.395,11.608-2.057,16.94
			C196.853,345.018,197.772,345.283,198.769,345.283"/>
		<path d="M207.597,212.869h88.276c0.212,0,0.388-0.106,0.6-0.124c-0.362-10.125-0.6-17.532-0.6-17.532h-88.276
			c0,0-0.238,7.406-0.6,17.532C207.208,212.763,207.385,212.869,207.597,212.869"/>
		<path d="M298.295,256.516c-0.256-4.908-0.53-10.708-0.786-16.834c-0.547-0.106-1.05-0.327-1.633-0.327H207.6
			c-0.583,0-1.095,0.221-1.642,0.327c-0.256,6.126-0.53,11.926-0.786,16.834c0.786,0.23,1.562,0.494,2.428,0.494h88.276
			C296.732,257.01,297.509,256.745,298.295,256.516"/>
		<path d="M302.17,298.473c-0.459-4.378-0.909-8.81-1.342-13.268c-1.43-0.998-3.081-1.713-4.952-1.713H207.6
			c-1.88,0-3.522,0.715-4.952,1.713c-0.441,4.458-0.892,8.889-1.351,13.268c1.598,1.642,3.822,2.675,6.303,2.675h88.276
			C298.348,301.148,300.572,300.115,302.17,298.473"/>
		<path d="M311.519,375.205c-1.624-2.039-4.017-3.443-6.815-3.443H198.773c-2.807,0-5.199,1.404-6.824,3.443
			c-0.062,0.441-0.124,0.918-0.177,1.342c1.421,3.981,3.125,8.174,4.961,12.465c0.671,0.168,1.315,0.406,2.039,0.406h105.931
			c0.715,0,1.359-0.238,2.03-0.406c1.845-4.29,3.54-8.483,4.97-12.465C311.643,376.123,311.581,375.647,311.519,375.205"/>
	</g>
</g>
</svg>