<?xml version="1.0" encoding="iso-8859-1"?>
<!-- Uploaded to: SVG Repo, www.svgrepo.com, Generator: SVG Repo Mixer Tools -->
<svg height="800px" width="800px" version="1.1" id="Layer_1" xmlns="http://www.w3.org/2000/svg" xmlns:xlink="http://www.w3.org/1999/xlink" 
	 viewBox="0 0 512.002 512.002" xml:space="preserve">
<g>
	<g>
		<path style="fill:#95A5A5;" d="M246.849,182.354c-4.37,0-8.229-3.136-8.997-7.589c-7.003-40.393-28.078-103.863-54.409-102.144
			c-5.056,0.439-9.381-3.502-9.71-8.539c-0.32-5.038,3.502-9.381,8.539-9.71c51.227-3.456,71.461,104.933,73.591,117.285
			c0.859,4.974-2.478,9.701-7.451,10.56C247.891,182.308,247.361,182.354,246.849,182.354"/>
		<path style="fill:#95A5A5;" d="M265.153,182.354c-0.512,0-1.033-0.037-1.563-0.137c-4.974-0.85-8.32-5.586-7.451-10.56
			c2.13-12.352,22.455-120.558,73.591-117.285c5.038,0.329,8.859,4.672,8.539,9.71s-4.553,8.978-9.71,8.539
			c-27.072-1.81-48.521,68.059-54.409,102.144C273.382,179.218,269.523,182.354,265.153,182.354"/>
	</g>
	<g>
		<path style="fill:#4482C3;" d="M29.862,19.689C166.832,35.341,228.4,201.366,228.4,201.366v73.143H72.971
			c-59.045,0-54.857-54.857-54.857-54.857v-128C0.422,73.961-1.516,55.163,0.779,41.055C3.019,27.305,16.02,18.107,29.862,19.689"/>
		<path style="fill:#4482C3;" d="M228.402,274.506l-128,27.429c0,0-62.098,18.67,0,82.286l-18.286,73.143
			c0,0-5.65,24.219,18.542,33.317c14.665,5.504,31.104,1.701,43.319-8.11c14.455-11.602,35.529-32.229,49.856-62.418
			c6.199-13.065,34.569-81.646,34.569-81.646V274.506z"/>
		<path style="fill:#4482C3;" d="M482.139,18.965C345.17,34.618,283.602,200.643,283.602,200.643v73.143h155.429
			c59.045,0,54.857-54.857,54.857-54.857v-128c17.691-17.691,19.63-36.489,17.335-50.597
			C508.983,26.581,495.982,17.384,482.139,18.965"/>
		<path style="fill:#4482C3;" d="M283.6,273.782l128,27.429c0,0,62.098,18.67,0,82.286l18.286,73.143c0,0,5.65,24.219-18.542,33.317
			c-14.665,5.504-31.104,1.701-43.319-8.11c-14.455-11.602-35.529-32.229-49.856-62.418c-6.199-13.065-34.569-81.646-34.569-81.646
			V273.782z"/>
	</g>
	<g>
		<path style="fill:#346999;" d="M292.572,273.782c0,60.59-16.375,109.714-36.571,109.714c-20.197,0-36.571-49.125-36.571-109.714
			s16.375-109.714,36.571-109.714C276.198,164.068,292.572,213.193,292.572,273.782"/>
		<path style="fill:#346999;" d="M109.545,247.077c-35.291,0-64-28.709-64-64c0-5.047,4.096-9.143,9.143-9.143
			s9.143,4.096,9.143,9.143c0,25.207,20.507,45.714,45.714,45.714c5.047,0,9.143,4.096,9.143,9.143S114.592,247.077,109.545,247.077
			"/>
		<path style="fill:#346999;" d="M402.287,246.354c-5.047,0-9.143-4.096-9.143-9.143s4.096-9.143,9.143-9.143
			c25.207,0,45.714-20.507,45.714-45.714c0-5.047,4.096-9.143,9.143-9.143s9.143,4.096,9.143,9.143
			C466.287,217.645,437.578,246.354,402.287,246.354"/>
	</g>
</g>
</svg>