<?xml version="1.0" encoding="iso-8859-1"?>
<!-- Uploaded to: SVG Repo, www.svgrepo.com, Generator: SVG Repo Mixer Tools -->
<svg height="800px" width="800px" version="1.1" id="Layer_1" xmlns="http://www.w3.org/2000/svg" xmlns:xlink="http://www.w3.org/1999/xlink" 
	 viewBox="0 0 512.226 512.226" xml:space="preserve">
<g transform="translate(0 -1)">
	<g>
		<path style="fill:#464F5D;" d="M8.95,283.489c-2.595,0-5.155-1.13-6.903-3.31c-3.046-3.814-2.428-9.366,1.377-12.412l44.138-35.31
			c1.571-1.254,3.505-1.933,5.517-1.933h61.793c4.882,0,8.828,3.955,8.828,8.828c0,4.873-3.946,8.828-8.828,8.828H56.177
			l-41.719,33.377C12.825,282.853,10.883,283.489,8.95,283.489"/>
		<path style="fill:#464F5D;" d="M503.277,283.489c-1.933,0-3.875-0.636-5.508-1.933l-41.719-33.377h-58.695
			c-4.882,0-8.828-3.955-8.828-8.828c0-4.873,3.946-8.828,8.828-8.828h61.793c2.013,0,3.946,0.68,5.517,1.933l44.138,35.31
			c3.805,3.046,4.423,8.598,1.377,12.412C508.432,282.359,505.872,283.489,503.277,283.489"/>
	</g>
	<path style="fill:#DBCB95;" d="M359.277,181.109c-24.223-30.349-57.335-52.25-94.676-62.914l-8.492-2.428l-8.475,2.428
		c-37.341,10.664-70.462,32.565-94.685,62.914c-49.664,62.226-126.358,176.34-126.358,287.762c0,0,0.371,68.414,88.276,35.31
		c0,0,104.828-45.612,141.241-97.103c36.414,51.491,141.241,97.103,141.241,97.103c87.905,33.103,88.276-35.31,88.276-35.31
		C485.626,357.449,408.941,243.335,359.277,181.109"/>
	<path style="fill:#B7A676;" d="M247.631,118.192c-0.124,0.026-0.23,0.079-0.344,0.106v299.705c3.24-3.602,6.223-7.247,8.828-10.929
		c2.604,3.681,5.588,7.327,8.828,10.929V118.298c-0.115-0.026-0.221-0.079-0.344-0.106l-8.483-2.428L247.631,118.192z"/>
	<g>
		<path style="fill:#464F5D;" d="M220.803,89.282c-19.474,0-35.31-15.837-35.31-35.31s15.837-35.31,35.31-35.31
			c4.882,0,8.828,3.955,8.828,8.828s-3.946,8.828-8.828,8.828c-9.737,0-17.655,7.918-17.655,17.655s7.918,17.655,17.655,17.655
			c4.882,0,8.828,3.955,8.828,8.828S225.684,89.282,220.803,89.282"/>
		<path style="fill:#464F5D;" d="M291.424,89.282c-4.882,0-8.828-3.955-8.828-8.828s3.946-8.828,8.828-8.828
			c9.737,0,17.655-7.918,17.655-17.655s-7.918-17.655-17.655-17.655c-4.882,0-8.828-3.955-8.828-8.828s3.946-8.828,8.828-8.828
			c19.474,0,35.31,15.837,35.31,35.31S310.897,89.282,291.424,89.282"/>
		<path style="fill:#464F5D;" d="M247.294,124.593c-0.265,0-0.538-0.009-0.812-0.035l-64.247-5.844
			c-22.952-2.083-45.215-9.94-64.397-22.731C100.006,84.1,84.973,67.981,74.336,49.373l-20.092-35.16
			c-2.428-4.228-0.953-9.622,3.284-12.041c4.228-2.428,9.622-0.962,12.041,3.284l20.1,35.16
			c9.278,16.243,22.413,30.305,37.959,40.678c16.746,11.158,36.175,18.017,56.214,19.836l64.247,5.844
			c4.855,0.441,8.43,4.74,7.989,9.587C255.654,121.15,251.814,124.593,247.294,124.593"/>
		<path style="fill:#464F5D;" d="M264.932,124.593c-4.52,0-8.36-3.443-8.783-8.033c-0.441-4.846,3.134-9.145,7.989-9.587
			l64.247-5.844c20.039-1.818,39.468-8.678,56.214-19.836c15.545-10.372,28.681-24.435,37.959-40.678l20.1-35.16
			c2.41-4.246,7.804-5.711,12.041-3.284c4.237,2.419,5.711,7.812,3.284,12.041l-20.092,35.16
			c-10.637,18.609-25.671,34.728-43.502,46.61c-19.182,12.791-41.445,20.648-64.397,22.731l-64.247,5.844
			C265.47,124.584,265.197,124.593,264.932,124.593"/>
		<path style="fill:#464F5D;" d="M211.975,89.282c0-19.5,19.756-35.31,44.138-35.31c24.382,0,44.138,15.81,44.138,35.31
			s-19.756,35.31-44.138,35.31C231.731,124.593,211.975,108.782,211.975,89.282"/>
	</g>
	<g>
		<path style="fill:#B7A676;" d="M97.208,442.386c-1.483,0-2.993-0.371-4.37-1.165c-4.237-2.419-5.711-7.812-3.284-12.041
			L195.485,243.8c2.41-4.237,7.804-5.711,12.041-3.284c4.237,2.419,5.711,7.812,3.284,12.041L104.879,437.936
			C103.255,440.788,100.28,442.386,97.208,442.386"/>
		<path style="fill:#B7A676;" d="M114.863,407.075c-1.677,0-3.381-0.477-4.89-1.483L83.49,387.937
			c-4.061-2.701-5.155-8.183-2.445-12.244c2.701-4.052,8.166-5.164,12.244-2.445l26.483,17.655
			c4.061,2.701,5.155,8.183,2.445,12.244C120.521,405.698,117.714,407.075,114.863,407.075"/>
		<path style="fill:#B7A676;" d="M185.484,283.489c-1.677,0-3.381-0.477-4.89-1.483l-26.483-17.655
			c-4.061-2.701-5.155-8.183-2.445-12.244c2.701-4.052,8.166-5.164,12.244-2.445l26.483,17.655
			c4.061,2.701,5.155,8.183,2.445,12.244C191.142,282.112,188.335,283.489,185.484,283.489"/>
		<path style="fill:#B7A676;" d="M185.484,362.937c-1.677,0-3.381-0.477-4.89-1.483l-26.483-17.655
			c-4.061-2.701-5.155-8.183-2.445-12.244c2.701-4.052,8.166-5.164,12.244-2.445l26.483,17.655
			c4.061,2.701,5.155,8.183,2.445,12.244C191.142,361.56,188.335,362.937,185.484,362.937"/>
		<path style="fill:#B7A676;" d="M415.019,442.386c-3.072,0-6.047-1.598-7.671-4.449L301.416,252.557
			c-2.428-4.228-0.953-9.622,3.284-12.041c4.22-2.428,9.622-0.953,12.041,3.284L422.672,429.18
			c2.428,4.228,0.953,9.622-3.284,12.041C418.011,442.015,416.502,442.386,415.019,442.386"/>
		<path style="fill:#B7A676;" d="M397.363,407.075c-2.851,0-5.658-1.377-7.353-3.928c-2.71-4.061-1.615-9.543,2.445-12.244
			l26.483-17.655c4.061-2.719,9.534-1.607,12.244,2.445c2.71,4.061,1.615,9.543-2.445,12.244l-26.483,17.655
			C400.744,406.599,399.041,407.075,397.363,407.075"/>
		<path style="fill:#B7A676;" d="M326.743,283.489c-2.851,0-5.658-1.377-7.353-3.928c-2.71-4.061-1.615-9.543,2.445-12.244
			l26.483-17.655c4.061-2.719,9.534-1.607,12.244,2.445c2.71,4.061,1.615,9.543-2.445,12.244l-26.483,17.655
			C330.124,283.012,328.42,283.489,326.743,283.489"/>
		<path style="fill:#B7A676;" d="M326.743,362.937c-2.851,0-5.658-1.377-7.353-3.928c-2.71-4.061-1.615-9.543,2.445-12.244
			l26.483-17.655c4.061-2.719,9.534-1.607,12.244,2.445c2.71,4.061,1.615,9.543-2.445,12.244l-26.483,17.655
			C330.124,362.461,328.42,362.937,326.743,362.937"/>
	</g>
</g>
</svg>