<?xml version="1.0" encoding="UTF-8"?>
<svg width="1200pt" height="1200pt" version="1.1" viewBox="0 0 1200 1200" xmlns="http://www.w3.org/2000/svg">
 <path d="m589.43 947.52c0-2.1016 12.621-26.082 19.191-36.457 4.2617-6.7305 5.8008-9.9062 10.473-21.605 4.793-12.004 5.5898-14.641 4.6133-15.242-1.2461-0.76953-9.2656-0.20312-15.406 1.0781-3.2773 0.6875-11.023 2.7734-17.219 4.6328-6.1914 1.8594-12.629 3.5547-14.309 3.7656l-3.0508 0.38672-4.8398-6.5352c-5.3047-7.168-8.0586-9.9766-22.828-23.297-14.172-12.781-56.121-55.094-59.383-59.895-1.5117-2.2227-6.125-7.5586-10.25-11.855-4.1289-4.2969-9.3086-10.273-11.512-13.281-3.3711-4.6016-4.957-6.082-10.016-9.3359l-6.0078-3.8672 0.35156-2.6211c0.19141-1.4414 0.71484-3.0586 1.1562-3.5898 1.2695-1.5273 5.2539-1.1328 9.6758 0.96094 5.0273 2.3789 8.7031 5.6445 12.699 11.281 1.6914 2.3867 6.6055 8.0352 10.918 12.555 4.3164 4.5195 8.8516 9.7109 10.078 11.535 3.2305 4.8008 17.039 19.543 27.125 28.961 2.5508 2.3828 7.2812 7.2383 10.516 10.793 3.2344 3.5547 11.281 11.238 17.879 17.07 6.6016 5.832 16.027 14.785 20.953 19.895l8.9531 9.2891 12.238-3.3828c16.305-4.5039 21.176-5.3672 30.34-5.3672 8.8789 0 11.477-0.56641 14.215-3.1328 3.7617-3.5156 11.723-14.871 19.059-27.18 7.7617-13.027 11.285-18.086 20.152-28.953 7.7422-9.4805 11.699-15.043 11.098-15.582-0.28906-0.25781-6.332-0.82422-13.434-1.2578-22.465-1.3711-46.238-4.4531-69.574-9.0273-11.98-2.3477-18.094-4.1836-29.25-8.7891-3.5469-1.4648-10.402-3.9102-15.23-5.4297-10.734-3.3828-17.219-6.3789-33.746-15.574-15.488-8.6211-31.363-18.465-44.184-27.406-10.941-7.6289-11.852-7.8633-17.836-4.6602-4.2227 2.2617-9.1602 6.3359-20.445 16.871-13.562 12.664-38.176 34-47.074 40.812-4.7148 3.6094-10.918 8.6719-13.781 11.246-2.8633 2.5742-9.8242 8.2891-15.469 12.699-21.426 16.734-23.188 18.516-34.125 34.57-3.2266 4.7344-8.4922 12.184-11.699 16.555s-7.5117 11.223-9.5625 15.23c-4.6289 9.0469-7.2305 12.664-11.07 15.426-5.6367 4.0508-9.543 7.7578-19.32 18.348-9.8164 10.633-11.32 12.875-15.43 23.012-0.59375 1.4688-1.1562 1.8203-2.9062 1.8125-3.8477 0-4.0352-0.42969-3.6914-8.1133 0.38672-8.6797 1.2969-10.398 10.723-20.254 3.7109-3.8789 8.6719-9.1875 11.023-11.801 2.3555-2.6133 6.5625-6.5469 9.3516-8.7422 6.1719-4.8555 7.418-6.4492 12.566-16.059 2.2188-4.1445 6.3359-10.664 9.1406-14.488 2.8086-3.8242 8.4766-11.871 12.594-17.879 4.1211-6.0078 8.6875-12.266 10.152-13.906 4.3047-4.8164 12.008-11.469 22.98-19.844 5.6445-4.3086 13.094-10.414 16.555-13.57 3.4609-3.1562 9.8008-8.3672 14.09-11.578 7.5898-5.6836 18.223-14.855 38.438-33.145 15.172-13.727 24.105-21.57 27.668-24.285 1.7852-1.3594 3.2422-2.7383 3.2422-3.0664 0-0.32422-2.457-3.0508-5.4648-6.0547-6.3242-6.3242-11.52-14.277-19.137-29.293-8.043-15.852-14.176-36.668-16.469-55.887-0.72266-6.043-2.6289-17.812-4.2461-26.156-4.6016-23.805-4.5273-22.703-4.3945-62.074 0.13281-39.934-0.52344-33.242 5.5-56.066 1.2969-4.918 3.9102-15.348 5.8047-23.176 4.6055-19.02 7.6406-28.691 13.875-44.25 2.8711-7.1641 7.5039-19.285 10.289-26.934 11.023-30.254 14.719-37.758 22.031-44.762 7.5273-7.207 31.902-27.145 39.582-32.371 3.6602-2.4922 9.1406-6.5039 12.176-8.9141 6.4258-5.1055 11.539-8.1875 22.312-13.445l7.7891-3.8047 18.742-0.046875 9.5352-4.8008c8.6055-4.332 10.441-4.9883 18.805-6.7227 5.0977-1.0586 15.527-2.9023 23.176-4.1016 13.637-2.1367 14.316-2.1758 35.098-2.1445 22.441 0.03125 40.098 0.99219 47.562 2.5742 7.7773 1.6523 32.242 9.043 39.516 11.941 3.8242 1.5234 9.9336 3.7812 13.574 5.0195 7.8555 2.6719 46.188 21.754 56.793 28.273 4.0938 2.5156 10.66 6.332 14.594 8.4805 3.9336 2.1484 11.086 6.7969 15.891 10.332 4.8086 3.5312 12.316 8.875 16.688 11.871 4.3711 2.9961 9.1367 6.4961 10.594 7.7734 12.684 11.152 34.148 41.27 45.312 63.578 11.324 22.629 17.137 39.695 24.152 70.934 4.0547 18.051 4.3672 21.633 4.3672 49.801 0 14.004-0.32031 28.715-0.71094 32.691-0.73438 7.4688-2.4297 17.891-8.8164 54.246-9.082 51.691-13.332 63.977-29.562 85.422-10.375 13.711-13.508 17.273-20.066 22.801-2.9727 2.5039-8.8281 7.7227-13.016 11.594-11.215 10.371-15.699 13.137-35.988 22.203-9.7773 4.3711-21.25 9.8438-25.496 12.168-27.824 15.23-55.828 22.234-89.164 22.293-13.465 0-14.809 0.36328-21.371 5.4297-2.5117 1.9375-3.4688 3.1055-3.3281 4.0586 0.12109 0.8125 3.5938 3.9492 8.875 8.0078 4.7734 3.668 11.848 9.543 15.719 13.055 6.5977 5.9844 26.016 20.434 27.461 20.434 0.35938 0-0.050781-2.0391-0.92188-4.5352-1.9609-5.6406-3.0391-12.977-2.4961-16.957 0.35156-2.5742 0.67188-3.0859 2.1445-3.4102 0.95312-0.21094 2.2188-0.51562 2.8203-0.67188 2.625-0.70312 4.8906 3.9141 7.5234 15.34 1.6758 7.2734 3.1641 11.562 4.0078 11.562 1.1641 0 7-3.543 7.8594-4.7695 2.1094-3.0156 0.92578-11.266-2.2578-15.738-1.7734-2.4883-1.6875-4.0938 0.3125-5.9727 2.2188-2.0859 4.9844-1.9805 7.9805 0.30078 2.5898 1.9766 6.0469 6.9102 6.7266 9.6055 0.22656 0.89844-0.25 5.0273-1.0586 9.1797-0.80859 4.1484-1.3047 7.7109-1.0977 7.9141 0.73828 0.74219 8 0.074219 10.141-0.97656 3.0234-1.4336 3.4961-2.625 4.2422-10.695 0.35938-3.8711 0.97656-7.4297 1.3711-7.9062 0.46484-0.55859 1.9062-0.79688 4.0703-0.67188 4.7578 0.28125 5.1367 1.2344 4.8984 12.445-0.23438 11.176-0.69922 12.012-8.8438 15.953-3.0703 1.4844-5.582 3.0742-5.582 3.5312 0 1.2305 2.9844 2.3672 6.2227 2.3672 2.1914 0 3.5-0.49219 5.6758-2.1523 4.1836-3.1836 7.4883-5.1094 8.793-5.1211 2.1484 0 3.8086 2.4102 3.8086 5.582 0 2.6484-0.36328 3.3359-3.6367 6.8711-2 2.1602-4.5234 4.2969-5.6094 4.7461-1.3047 0.53516-4.5273 0.73438-9.543 0.57422l-7.5703-0.24219-8.0117-5.4961c-8.7852-6.0273-13.48-8.4375-17.777-9.1211-3.4648-0.55078-3.668 0.33984-0.92969 4.0938 4.4258 6.0625 24.762 24.102 27.172 24.102 1.8555 0 29.98-15.062 34.66-18.566 2.8125-2.1055 9.4727-6.4609 14.801-9.6797 15.566-9.4062 31.91-22.152 36.77-28.672 4.8672-6.5312 4.9922-5.8281-2.2852-12.781-6.0273-5.7578-6.4062-6.2773-6.3984-8.7695 0.011718-2.6055 2.043-6.9531 3.2539-6.9531 0.33984 0 1.0977-0.17969 1.6836-0.40625 0.75781-0.29297 3.0273 1.6016 7.8359 6.543l6.7656 6.9531 4.8906 1.1016c2.6875 0.60547 5.9492 1.543 7.25 2.0859 4.2656 1.7812 4.7734 0.92188 6.7656-11.496 0.73438-4.582 1.6875-8.7578 2.1172-9.2734 0.94141-1.1367 6.5352-0.78516 8.0938 0.50781 1.4648 1.2148 1.3164 8.6836-0.35156 17.82-0.75391 4.1211-1.2422 7.6172-1.0898 7.7734 0.73438 0.73438 2.7266-0.92969 6.1719-5.1406 4.2773-5.2305 5.1992-5.8672 8.4688-5.8672 2.6797 0 3.707 1.3086 3.707 4.7148 0 4.75-6.0156 12.801-11.742 15.727-7.3281 3.7383-19.238 2.6211-27.715-2.5977-2.5352-1.5625-2.4609-1.6172-9.1602 6.8203-7.1445 8.9961-21.363 20.254-38.77 30.688-4.1758 2.5039-10.879 7.0156-14.898 10.027-4.8477 3.6328-9.1992 6.2695-12.934 7.8242-3.0938 1.293-9.2188 4.4102-13.609 6.9336-11.77 6.7617-13.855 7.5898-16.871 6.6875-1.5664-0.46875-5.9531-3.7383-11.984-8.9375-12.969-11.172-14.91-13.031-21.148-20.223-5.7734-6.6602-10.109-10.641-11.582-10.641-0.49609 0-6.7305 2.082-13.852 4.6289-22.305 7.9727-34.711 10.613-55.977 11.91-22.039 1.3438-27.906 2.5781-31.035 6.5273-2.6016 3.2812-6.4727 11.027-14.234 28.473-3.5625 8.0039-9.0703 18.875-12.711 25.098-3.5352 6.0352-7.2852 12.867-8.332 15.18l-1.9062 4.207h-5.6211c-3.0938 0-5.6211-0.28125-5.6211-0.62891zm80.457-89.789c14.496-1.0938 19.004-1.6914 27.48-3.6445 7.8672-1.8125 31.785-10.051 31.785-10.949 0-0.98438-1.8125-2.5742-5.8516-5.1289-1.832-1.1602-5.957-4.5078-9.168-7.4414-11.559-10.559-25.883-21.488-28.168-21.488-2.5195 0-16.227 19.117-23.988 33.449-2.9727 5.4922-5.0391 8.3555-8.4414 11.691-2.4766 2.4297-4.5039 4.6211-4.5039 4.8672 0 0.25 1.7148 0.26562 3.8086 0.074218 2.0938-0.21875 9.7656-0.85547 17.051-1.4062zm80.371-81.699c17.156-3.1094 31.633-7.9688 45.777-15.363 11.137-5.8203 10.621-4.9102 8.0508-14.305-3.5391-12.93-7.0469-23.578-7.8594-23.848-0.41797-0.14453-2.9062 1.7148-5.5273 4.1211-7.5586 6.9336-8.5312 7.2969-19.496 7.2695-11.043 0-16.469-1.0469-30.129-5.6328-5.2812-1.7734-12.434-3.6719-15.891-4.2227-3.4609-0.55078-8.8242-1.7773-11.918-2.7266-6.1211-1.8789-9.8438-1.875-15.215 0-3.5195 1.2422-6.6914 1.2734-9.5234 0.089843-2.707-1.1328-7.0508-4.8789-7.0508-6.0859 0-0.50781 1.2305-1.207 2.8125-1.6016 1.5469-0.38672 4.6836-1.4414 6.9648-2.3438 2.2852-0.90234 5.3125-1.6445 6.7266-1.6445 3.7812 0 10.059 2.1523 15.215 5.2148 4.7266 2.8086 10.242 4.6914 11.133 3.8008 0.62891-0.62891-2.8164-3.7188-4.1562-3.7188-1.0078 0-1.2266-1.1719-0.55469-2.9258 0.60156-1.5625 1.6523-1.3086 6.6445 1.6133 6.5039 3.8086 13.535 6.3594 26.504 9.6211 23.879 6.0039 30.664 5.6523 38.316-2 4.293-4.293 8.2656-13.039 8.2539-18.164-0.007813-2.3711-2.1562-13.93-2.9961-16.109-0.24219-0.62891-2.2344-2.3438-4.4258-3.8086-5.0352-3.3594-8.8906-3.6797-11.066-0.91406-1.7266 2.1953-1.7227 2.6562 0.046876 9.5234 1.7578 6.8242 1.4375 8.6953-1.7383 10.203-3.0664 1.457-11.93 1.2461-11.93-0.28125 0-0.78125 1.2305-1.0625 5.7656-1.3242 6.8984-0.39453 7.6758-0.92969 6.5977-4.5234-0.90234-3.0078-3.5312-5.8828-6.5469-7.1562-3.8164-1.6133-4.6289-1.2461-6.8086 3.0703-2.4961 4.9453-3.9688 5.25-3.9844 0.82812-0.011718-3.5039-0.26562-4.0586-2.6211-5.668-2.2266-1.5234-6.0703-1.4258-8.1445 0.20312-2.2812 1.793-3.2656 1.6641-4.5586-0.61328-1.5938-2.8047-4.2383-4.2773-7.7422-4.3203l-3.0469-0.074218-1.2227 4.5312c-0.67188 2.4922-1.0703 4.9258-0.88672 5.4062 0.1875 0.48438 3.2266 1.5156 6.8359 2.3125 16.383 3.6289 19.102 4.5039 17.855 5.75-0.67188 0.67188-14.973-2.207-21.234-4.2695-3.9375-1.2969-7.8086-3.4453-15.562-8.6289-5.6758-3.7969-11.973-7.7383-13.996-8.7578-3.8945-1.9648-10.816-4.207-11.887-3.8438-0.35156 0.11328-1.9102 2.1367-3.4648 4.4805-2.7891 4.207-6.0547 7.2969-6.8594 6.4883-0.22656-0.22656 0.66406-2.1836 1.9766-4.3516 1.3164-2.1641 3.1562-5.6055 4.0859-7.6406 0.93359-2.0391 1.9258-3.8477 2.207-4.0195s2.2734 0.40625 4.4258 1.2969c2.2695 0.93359 5.2734 1.6172 7.1445 1.6289 3.207 0 3.2266 0 2.8477-1.8945-0.60938-3.0391-4.5234-11.336-5.3477-11.336-0.41406 0-1.3438 1.7148-2.0625 3.8086-1.4375 4.1797-2.6836 4.8125-4.1875 2.1328-0.86719-1.5469-0.62891-2.6289 3.0664-13.906 5.6016-17.102 6.7344-21.152 7.0977-25.426 0.36328-4.2773-0.54688-5.2305-3.293-3.4297-1.7656 1.1562-3.6602 1.4102-3.6602 0.49219 0-0.31641 1.1562-1.3398 2.5703-2.2734 3.5586-2.3555 5.3789-6.3477 5.3672-11.762-0.011719-5.6484-0.38281-6.1367-4.2031-5.5625-1.6914 0.25781-3.0664 0.20312-3.0586-0.11328 0.007813-0.30859 1.6602-2.3242 3.668-4.4688l3.6562-3.8984 3.5664 0.37109c2.6172 0.27344 3.6523 0.13672 3.9023-0.51562 0.18359-0.47656 1.3242-1.0898 2.5352-1.3516 1.207-0.25781 3.0664-0.91797 4.1328-1.4648 1.0664-0.54297 3.2812-1.1172 4.9297-1.2695 4.2266-0.39453 4.832-1.0859 4.3164-4.957-0.29297-2.2031-0.19141-3.2227 0.32031-3.2227 0.41016 0 0.75391 0.82031 0.75781 1.8203 0.003906 1.0039 0.23047 2.1172 0.49609 2.4844 0.26953 0.36328 2.9258 0.67188 5.9062 0.69531 4.6758 0 5.4648-0.13672 5.7305-1.1602 0.40234-1.5391 1.5625-1.5312 2.0547 0 0.74219 2.3438 3 4.0898 5.2773 4.0898 1.2148 0 2.5859 0.45312 3.0469 1.0039 1.1758 1.418-0.38281 3.0078-7.293 7.4453-3.0938 1.9844-8.1602 6.0625-11.258 9.0586-3.0977 2.9961-6.8555 6.4648-8.3594 7.7109-1.5 1.2422-4.8906 4.793-7.5273 7.8906-2.6406 3.0977-6.2383 7.1172-8 8.9375-3.5859 3.7109-4.8555 6.3008-6.1836 12.637-0.77734 3.7109-0.77734 4.3984 0.011718 4.6992 1.3242 0.50781 4.0234-0.27344 8.2031-2.3789 2.0039-1.0078 4.7656-2.0117 6.1406-2.2305 2.043-0.32422 3.418-1.375 7.543-5.7578 9.3672-9.957 20.516-17.406 28.277-18.891 2.8125-0.53516 6.6953-1.7266 8.625-2.6406 4.5312-2.1445 10.469-2.2148 17.773-0.21094l5.2773 1.4453-0.34766 2.1367c-0.44922 2.7734 0.5 3.6055 7.5508 6.6406 3.0664 1.3203 5.9805 2.7227 6.4805 3.125 0.70703 0.56641 0.82812 2.2656 0.55469 7.6992-0.49609 9.8672-2.3125 15.148-3.3789 9.8164-0.23438-1.168-1.0664-2.8047-1.8555-3.6406-1.7578-1.8672-5.1836-2.1094-5.1523-0.36328 0.019531 1.1641 2.1758 5.8359 3.9688 8.6055 0.86719 1.3438 0.77344 2.043-0.96875 7.1758-2.0234 5.957-5.1133 11.535-6.3906 11.535-0.5625 0-8.4062-5.2773-10.488-7.0586-0.15625-0.13672 0.21484-1.832 0.82813-3.7695 1.5234-4.8359 1.4062-6.668-0.6875-10.508-1.7969-3.3047-1.8008-3.3047-4.6016-2.9219-2.0156 0.28125-3.6016 0-5.6523-0.91016-3.5312-1.6016-7.5117-1.7383-8.0742-0.27344-0.64062 1.6719-0.45703 8.3242 0.30469 11.07 0.46875 1.6914 1.3945 2.9414 2.8125 3.8086 1.9727 1.2031 2.168 1.2148 2.9375 0.16797 0.45703-0.62109 0.82812-2.6836 0.82812-4.5977s0.31641-3.6719 0.70312-3.9102c1.1562-0.71875 3.1445 1.6211 4.2695 5.0195 0.58203 1.75 1.5078 3.5547 2.0586 4.0117 1.5156 1.2578 2.8984 4.2812 2.9102 6.3555 0.003907 1.0195 0.23047 2.1836 0.49609 2.582 0.26953 0.40234 2.9727 1.5508 6.0117 2.5586l5.5234 1.8281 2.6055-2.543c2.2227-2.1719 2.7734-2.4219 3.7461-1.7266 2.8086 2.0117 4.1953 2.4258 4.8164 1.4336 0.32812-0.52734 0.40625-1.5508 0.16797-2.2812-1.0977-3.3711-0.78516-3.9023 3.3906-5.7617 1.418-0.62891 2.1914-1.6562 2.8906-3.8438 0.52344-1.6367 2.4062-4.8945 4.1797-7.2383 1.7734-2.3438 3.418-5.2852 3.6523-6.5391 0.36328-1.9297-0.94531-14.52-2.1719-20.887-0.41016-2.1289-8.7031-11.238-11.586-12.73-1-0.51953-3.6367-0.94141-5.8555-0.94141-5.1953 0-12.074-1.7344-14.77-3.7305-3.1641-2.3359-8.2734-4.6094-12.473-5.5469-5.7695-1.2891-10.199-0.62109-16.723 2.5078-6.5273 3.1328-7.3945 2.5391-2.6719-1.8125 4.8945-4.5117 7.8516-5.4922 15.738-5.2227l6.6992 0.22656 0.77734-3.3125c0.42969-1.8203 0.80469-4.5703 0.83984-6.1055 0.058593-2.6719-0.12891-2.9492-4.2422-6.2461-4.1211-3.3008-5.0352-4.668-3.6875-5.5039 0.33984-0.20703 1.8438 0.10938 3.3398 0.70703s2.8828 0.92578 3.082 0.72656c0.51172-0.51172-4.7422-11.527-6.7539-14.164-1.5234-2-1.9922-2.1953-5.168-2.1953-3.7852 0-8.2656-1.5859-17.262-6.1094l-5.332-2.6797-6.875 0.39062c-5.9141 0.33594-7.0977 0.59766-8.4648 1.8828-2.2812 2.1406-5.7852 9.4922-6.7969 14.246l-0.86328 4.0742 1.9961 2.5391c1.0977 1.3984 2.1875 3.1797 2.418 3.9609 0.55469 1.875-1.3164 3.7852-3.1992 3.2617-4.4102-1.2305-4.1289-1.3438-5.4141 2.2305-0.66797 1.8555-1.5234 3.2695-1.9062 3.1445-0.98828-0.32422-1.2344-7.5078-0.37891-11.043 0.39844-1.6406 2.4805-7.4531 4.625-12.918 4.5703-11.633 5.7891-16.996 6.293-27.766 0.39844-8.5508 0.070312-7.6172 7.0195-19.961l1.5195-2.6953-3.5352-6.1758c-2.5273-4.4141-3.6211-7.0938-3.8438-9.3867-0.16797-1.7656-0.10156-3.2109 0.14844-3.2109s1.2227 0.91016 2.1562 2.0195c0.93359 1.1094 3.1484 2.7539 4.9219 3.6523 2.5195 1.2773 3.2266 1.9844 3.2266 3.2344 0 2.1406 1.125 5 1.9688 5 0.37109 0 0.67969-1.1914 0.67969-2.6484 0-1.457 0.22266-2.6406 0.49609-2.625 0.27344 0.015626 1.3906 1.5586 2.4844 3.4336 2.2305 3.8281 3.6367 4.75 3.6523 2.3906 0.011719-1.7656 1.2656-3.8711 1.707-2.8711 1.1836 2.6875 3.3633 5.7852 3.9102 5.5625 0.37891-0.15234 0.5625-2.0391 0.42969-4.4062-0.13672-2.4062 0.039062-4.1367 0.41406-4.1367 1.0195 0 9.2148 6.8672 15.473 12.969 6.1328 5.9805 7.7812 6.6562 9.5703 3.9219 1.3711-2.0938 2.4688-1.4727 1.9102 1.0781-0.33203 1.5117-0.03125 2.4688 1.3203 4.2461 2.2617 2.9648 5.418 9.7773 6.2227 13.422 0.83594 3.7852-0.27344 4.2109-4.4062 1.6914-2.4492-1.4922-3.5586-2.7852-5.1484-6.0156-1.1133-2.2617-2.5703-4.7148-3.2344-5.4492-1.4492-1.6016-8.3047-4.293-9.0352-3.5469-0.28516 0.28906-0.60938 1.7148-0.72266 3.168l-0.21094 2.6445-6.1562-5.6211c-3.3867-3.0938-7.0273-6.2578-8.0938-7.0352-1.8633-1.3555-8.9375-2.7734-9.7578-1.9531-1.1094 1.1094 8.5703 7.668 11.312 7.668 1.6367 0 2.082 1.4414 0.75 2.418-1.7422 1.2734-2.2539 1.1602-6.5508-1.4258-2.1172-1.2734-4.1055-2.3164-4.418-2.3164s-0.75781 0.75-0.98828 1.6641c-0.23047 0.91406-0.875 1.918-1.4297 2.2305-1.543 0.86328-0.38281 2.0156 2.5 2.4766 1.6797 0.26953 2.9453 0.95703 3.6055 1.9648 1.4062 2.1445 1.3359 2.2617-1.3867 2.2617-1.5625 0-4.0859-0.92969-7.2344-2.668-2.6562-1.4688-4.9922-2.4102-5.1875-2.0938-0.19531 0.31641 0.23047 1.6641 0.94141 2.9961 1.6719 3.1172 1.6406 3.6328-0.4375 7.3477l-1.7344 3.1016 1.5703 1.6797c3.082 3.2969 4.3984 3.5859 15.637 3.3906l10.434-0.17969 5.6758 2.8281c10.875 5.4141 17.168 12.312 17.168 18.812 0 3.9219 0.98438 5.1055 6.2578 7.543 8.2617 3.8164 14.254 5.168 22.938 5.1758 6.9883 0 7.9961-0.16016 11.309-1.7734 5.2031-2.543 11.371-8.5781 13.461-13.164 3.7305-8.1836 4.5625-18.734 1.9062-24.168-2.0117-4.1172-3.125-3.3438-3.8867 2.707-0.39453 3.125-1 5.3555-1.5 5.5195-1.5156 0.50391-8.1719-4.4805-9.168-6.8594-1.0938-2.6172-1.5117-7.7891-0.65625-8.0859 0.32812-0.11328 1.1953 1.2266 1.9297 2.9805 1.5508 3.707 4.1797 7.4922 5.2031 7.4922 0.47656 0 0.60156-1.9102 0.37891-5.793-0.41797-7.3047-4.4102-20.668-7.0898-23.734-1.0234-1.1719-2.7188-4.8555-3.9609-8.6094-1.1953-3.6094-3.7539-9.9883-5.6836-14.176-1.9336-4.1875-4.3398-10.574-5.3477-14.188-1.1484-4.1133-2.6836-7.832-4.1016-9.9336l-2.2695-3.3594 1.0195-4.6367c2.6172-11.887 1.8398-14.855-2.707-10.312-1.8555 1.8555-2.9258 4.7227-3.7969 10.195-0.33594 2.1094-0.5625 2.3984-1.3594 1.7383-1.6133-1.3398-1.0938-5.4336 1.3633-10.758 1.2734-2.7578 2.3164-5.3477 2.3164-5.7578 0-1.5781-8.7422-4.8047-18.059-6.6602-10.211-2.0352-13.727-3.0664-13.727-4.0273 0-2.0352 5.375-1.2422 19.406 2.8555 5.0273 1.4688 9.3242 2.4922 9.543 2.2734s-0.15625-1.4336-0.83594-2.6953c-0.67969-1.2617-1.0664-2.4648-0.86328-2.668 0.20703-0.20703 2.2773 0.52734 4.6055 1.6289 5.1484 2.4375 5.8867 2.4766 5.8867 0.32812 0-5.1289-6.7227-12.598-15.672-17.41-2.9297-1.5742-7.4727-4.4805-10.102-6.457-2.6289-1.9766-5.2148-3.5938-5.7539-3.5938-0.53906 0-2.7695 1.4883-4.957 3.3125-7.3477 6.1172-8.1562 3.5273-1.1875-3.8086 4.6055-4.8477 4.6992-5.0156 4.2773-7.6523-0.91016-5.7031-4.1406-10.234-14.953-20.988-8.9023-8.8555-10.895-11.23-14.496-17.309-8.5078-14.352-18.234-25.402-27.02-30.703-5.8711-3.543-8.1406-5.4414-8.1406-6.8086 0-2.7344 11.273 3.5273 18.602 10.336 5.4023 5.0195 12.52 14.074 21.164 26.934 3.4648 5.1562 7.3398 9.7031 13.254 15.562 11.539 11.426 14.277 15.109 16.496 22.184 0.875 2.7891 1.7422 4.1133 2.3164 3.543 0.1875-0.1875 1.125-3.8906 2.0781-8.2305 2.7031-12.293 3.0391-12.828 17.434-27.918 12.852-13.473 16.426-16.449 22.535-18.77 3.9844-1.5156 10.453-1.6836 12.305-0.32422 1.4648 1.0781 1.6055 0.99219-4.5 2.7109-4.1484 1.168-5.9727 2.3359-17.562 11.242-14.918 11.469-20.262 16.816-23.855 23.879-3.3359 6.5547-4.4062 16.715-2.457 23.281 0.84375 2.8438 1.4922 3.6836 4.1875 5.4102 5.6602 3.6328 5.9727 3.6523 17.164 1.1016 6.6836-1.5234 12.828-3.4492 18.207-5.7031 10.152-4.2617 10.473-4.4688 13.777-8.9453 2.6094-3.5312 4.2383-4.8438 5.0312-4.0547 0.83203 0.83203-2.1523 7.6133-5.5273 12.574-2.4062 3.5312-3.3516 5.4492-2.8438 5.7617 0.41797 0.25781 3.9414 0.65234 7.8281 0.87109 7.8867 0.44922 10.281 1 17.004 3.9102 7.0898 3.0703 13.457 7.0703 17.98 11.305 3.9492 3.6953 8.1758 9.3555 8.1758 10.957 0 2.0039-2.293 0.32031-5.6602-4.1523-4.1914-5.5703-8.707-9.2461-15.609-12.711-6.8945-3.4609-13.309-4.3906-28.371-4.1133-14.973 0.27344-16.285 0.72656-19.941 6.8477-1.3047 2.1836-3.3164 4.5703-4.4648 5.2969-1.1523 0.72656-2.3164 2.0703-2.5938 2.9805-0.27734 0.91016-0.5 8.0625-0.5 15.891 0 13.461 0.082031 14.418 1.5234 17.547 2.1953 4.7695 7.2812 12.887 9.6562 15.422 2.9961 3.1953 17.684 12.609 22.098 14.16 2.0938 0.73438 8.0742 1.8789 13.293 2.5391s9.6797 1.3945 9.9141 1.6289c1.875 1.875-9.2188 1.8867-17.449 0.023438-6.8633-1.5586-11.469-3.6289-18.418-8.2891-7.3203-4.9062-9.6914-5.9805-9.6914-4.3906 0 0.53906 1 3.6133 2.2188 6.832 1.2227 3.2188 2.8867 7.9375 3.6992 10.484 1.7461 5.4727 3.1484 7.8867 7.707 13.27 1.8633 2.1992 4.1953 5.2227 5.1875 6.7148 4.9453 7.4727 5.9453 30.996 1.6758 39.367-0.6875 1.3438-2.4531 3.8398-3.9297 5.543-3.5703 4.125-5.1523 7.375-7.0625 14.512-1.6055 6-4.082 10.32-5.918 10.32-0.54688 0-1.9062-0.47656-3.0234-1.0508-5.0508-2.6094-3.2812 2.7773 2.2695 6.918 1.9062 1.4219 4.332 3.5039 5.3906 4.625 2.1172 2.2461 3.043 2.1758 3.043-0.23438 0-3.5898 2.0273-2.7422 5.3125 2.2148 1.7422 2.6328 2.0156 3.6055 1.875 6.7227-0.10156 2.2656 0.1875 4.1953 0.76953 5.1055 1.3008 2.0312 0.61719 2.375-2.3008 1.1562-4.0664-1.6992-4.6133-0.96094-2.5898 3.4883 0.95703 2.1055 1.8906 4.5234 2.0742 5.3789l0.33594 1.5469-2.8164-1.4375c-1.5469-0.78906-3.0586-1.1875-3.3555-0.88672s-0.23828 4.8711 0.13281 10.152 0.49609 12.613 0.27344 16.293l-0.39844 6.6914 2.6445 5.5586c3.0625 6.4297 4.1172 11.188 2.4805 11.188-1.7891 0-2.9023-1.7695-3.3164-5.2734-0.46094-3.8945-3.5781-10.176-5.1992-10.484-0.91406-0.17188-1.1797 0.63672-1.5664 4.793-0.25781 2.7539-0.70703 5.0039-1 5.0039-0.55078 0-1.332-2.1445-2.6484-7.2852-0.77734-3.0391-1.6953-4.6367-2.6602-4.6367-0.60938 0-9.2305 14.078-9.2305 15.074 0 1.1172 2.5938 6.5703 3.4688 7.2891 0.46094 0.37891 2.6016 1.0117 4.7578 1.4102 3.9727 0.73438 7.4883 2.4492 6.6719 3.2617-0.24609 0.25-3.1758 0.4375-6.5156 0.4375h-6.0664l-0.59766 4.6367c-0.32812 2.5508-0.625 8.2188-0.66406 12.598l-0.066407 7.9648 5.0703 10.578c6.0078 12.539 5.8945 12.238 6.4336 16.867 0.35937 3.1016 0.62109 3.6289 1.7461 3.5508 2.6133-0.17969 29.91-12.992 35.094-16.469 4.7461-3.1797 8.7812-6.6367 27.879-23.875 4.6289-4.1797 14.355-15.949 22.023-26.652 6.6289-9.2578 12.688-26.469 16.938-48.129 3.9219-19.988 12.055-66.02 12.926-73.172 2.5508-20.918 2.3594-56.188-0.39453-72.18-4.4727-25.965-11.34-49.27-20.855-70.777-5.3242-12.031-9.8242-20.043-19.387-34.512-14.379-21.754-25.773-34.648-38.098-43.113-4.207-2.8906-11.824-8.2188-16.922-11.844s-12.195-8.1641-15.77-10.086-9.6836-5.4531-13.574-7.8477c-12.188-7.5-47.898-25.27-56.41-28.066-4.1875-1.375-9.9414-3.5117-12.789-4.7461-4.6836-2.0312-8.7461-3.2656-31.578-9.6172-8.8711-2.4688-33.176-4.6016-52.977-4.6484-12.336-0.03125-15.059 0.1875-29.797 2.3906-23.793 3.5547-29.988 5.0352-39.395 9.418-18.098 8.4258-28.887 11.891-41.883 13.441-6.6445 0.79297-7.8711 1.4023-15.227 7.5547-3.1914 2.668-7.8867 6.1445-10.434 7.7266-2.5508 1.582-7.168 4.8047-10.266 7.168-8.0898 6.1719-30.348 25.23-33.379 28.59-4.0625 4.4961-9.0938 15.867-18.602 42.027-2.6484 7.2852-6.6133 17.734-8.8125 23.227-5.9883 14.941-9.0039 24.605-13.727 43.988-2.3516 9.6523-5.2148 20.977-6.3594 25.164-1.1484 4.1875-2.6016 9.5508-3.2305 11.918-1.5469 5.8125-2.2031 33.812-1.3711 58.605 0.60938 18.109 0.70703 19.035 4.2734 39.73 2.0078 11.656 3.9844 24.32 4.3906 28.145s1.1484 8.7422 1.6484 10.93c1.7969 7.8672 6.9805 25.5 8.9883 30.578 4.2734 10.805 14.488 28.754 19.797 34.785 3.668 4.168 10.469 8.5469 16.875 10.875 4.7734 1.7344 5.418 2.1836 6.9922 4.8828 1.9141 3.2852 8.8047 8.4297 23.988 17.918 25.758 16.094 43.242 25.137 58.172 30.074 6.3477 2.1016 14.871 5.125 18.938 6.7188 6.1445 2.4062 7.6953 2.7852 9.1484 2.2344 0.96094-0.36328 4.6914-0.66406 8.2891-0.66406 3.9922 0 6.7109-0.28125 6.9844-0.71875 0.24609-0.39453-0.51172-1.707-1.6797-2.9102-3.7617-3.8789-1.9219-5.4961 4.5312-3.9844l2.2266 0.52734-0.92969-5.4922h3.3555c3.1289 0 3.3828-0.12109 3.7383-1.8203 0.66797-3.1836 1.3359-3.7969 4.5273-4.1719 2.0938-0.25 3.5938-0.88672 4.6406-1.9883 13.613-14.273 16.328-17.453 19.773-23.145 9.7734-16.152 10.145-11.598 0.62891 7.7539-4.2422 8.6289-5.9648 10.891-11.961 15.695-5.3633 4.2969-26.578 25.004-26.578 25.941 0 0.86719 36.477 5.9961 51.652 7.2617 21.621 1.8047 31.41 2.1484 56.617 1.9922 22.781-0.14453 25.938-0.29297 33.355-1.6406zm-74.41-9.0391c-1.0938-0.56641-2.2422-1.2812-2.5508-1.5859-0.57812-0.57422 2.0508-4.6602 2.9961-4.6602 0.47656 0 3.8594 6.0781 3.8594 6.9297 0 0.70312-2.3594 0.32422-4.3047-0.6875zm-14.898-11.273c0-3.2656 2.75-15.199 5.332-23.141 3.1875-9.8008 7.3203-18.359 11.816-24.473 1.875-2.5508 4.0312-5.918 4.793-7.4844 1.0742-2.2109 1.7031-2.8047 2.7969-2.6484 2.2383 0.31641 1.6016 1.9688-3.4883 9.0508-6.4609 8.9883-14.031 25.059-13.031 27.668 0.48828 1.2734 3.0898 0.75391 5.7617-1.1484 1.9141-1.3633 5.8789-8.5547 5.8789-10.664 0-0.67969 0.49219-1.4297 1.0977-1.6602 1.5781-0.60547 3.5391 2.1172 3.5391 4.9219 0 2.0039-0.71875 3.0703-5.1953 7.707-4.9883 5.168-9.2148 10.57-15.23 19.453-3.0312 4.4805-4.0742 5.1016-4.0742 2.4219zm52.809-46.906c-3.7344-3.0391-8.4414-8.1211-8.4414-9.1055 0-1.3555 2.1211-0.17969 7.9492 4.3945 6.0664 4.7617 7.6484 7.0352 5.2227 7.5-0.58203 0.11328-2.7148-1.1406-4.7344-2.7852zm-140.46-48.766c-2.0508-1.6133-2.3945-5.3516-0.71484-7.75 1.543-2.2031 2.9414-1.8789 2.9531 0.67969 0.019531 3.5 0.69141 4.0156 4.543 3.4883l3.3906-0.46875v2.0195c0 1.7695-0.30859 2.1016-2.4844 2.707-3.707 1.0273-5.7539 0.84766-7.6914-0.67188zm35.926-23.625c-1.2969-3.3555 1.3867-7.3984 3.6602-5.5078 1.3477 1.1211 1.3555 4.9453 0.007813 6.2891-1.5469 1.5469-2.8789 1.2656-3.668-0.78125zm117.95-10.133c0-3.6445 3.707-7.5664 7.7773-8.2305 2.3398-0.38672 2.8867-0.25781 3.2617 0.71094 0.53906 1.4023-2.6172 4.293-7.6953 7.0586-3.2227 1.7539-3.3438 1.7695-3.3438 0.46094zm-101.57-19.637c-1.5508-1.5508 0.92578-5.4727 4.6719-7.3984 3.2812-1.6836 3.7422-0.36328 1.1836 3.4023-1.6719 2.4609-5.0703 4.7812-5.8555 3.9961zm-5-7.0859c-0.96484-1.1641-0.34375-3.7031 0.90625-3.7031 1.2539 0 2.5 1.7305 2.2344 3.1055-0.29297 1.5273-2.0859 1.8672-3.1406 0.59766zm-98.555-4.5312c-1.6484-1.7578-2.8086-4.582-2.8086-6.832 0-2.2305 0.94531-2.0156 3.1172 0.70312 1.9883 2.4922 3.5156 2.9102 4.8281 1.3242 0.96094-1.1562 2.3828-1.2969 3.0039-0.29297 0.66406 1.0742-0.96484 4.4062-2.7188 5.5586-2.168 1.4219-3.7891 1.2812-5.4258-0.46875zm52.93-12.625c-2.1133-2.25-1.7695-5.75 0.5625-5.75 0.80859 0 1.5625 0.95703 2.3164 2.9297 1.6445 4.3125 0.019531 5.9062-2.8789 2.8242zm161.46-3.4336c-1.0352-1.25 0.17578-2.9805 2.0898-2.9805 1.5977 0 2.2891 1.6953 1.2148 2.9883-1.043 1.2578-2.2578 1.2539-3.3047-0.007813zm66.285-27.734c-1.1328-1.3633-1.8516-14.977-0.78906-14.977 1.7109 0 3.4414 5.7188 3.2383 10.703-0.19531 4.7852-0.94141 6.0859-2.4453 4.2734zm-12.648-10.633c0-0.52344 0.30078-1.1406 0.66797-1.3672 0.36719-0.22656 1.1211-1.2891 1.6758-2.3633 1.2344-2.3867 0.34375-4.5781-1.8672-4.6094-0.80859-0.015625-1.9414-0.38281-2.5234-0.82812-1.4023-1.0703-3.2461-4.707-3.2461-6.4023 0-2.7969 2.1797-0.98047 4.5977 3.8242 1.4375 2.8594 1.4453 2.8633 3.1289 1.7578 0.92969-0.60938 1.9258-0.85547 2.2148-0.54688 0.29297 0.30859 1.1641 2.6406 1.9414 5.1836 1.332 4.3633 1.3477 4.6719 0.26562 5.4648-1.6406 1.1992-6.8516 1.1094-6.8516-0.11719zm-7.5039-1.6875c-2.625-4.4453-4.6602-12.59-3.1484-12.59 1.1055 0 3.9727 3.9805 4.6641 6.4766 0.80469 2.9023 0.91797 8.0898 0.17188 8.0898-0.28516 0-1.0469-0.89063-1.6875-1.9805zm28.145-10.105c-1.5-2.4453-3.1406-7.9023-3.8086-12.664-0.36328-2.5938-0.27344-3.1719 0.46094-2.9297 1.5625 0.51562 3.8945 4.5938 3.8945 6.8125 0 1.1641 0.44531 3.5781 0.98438 5.3633 1.7305 5.7109 0.94531 7.4609-1.5352 3.418zm-29.754-9.9336c0.14844-0.45312 1.3867-1.4219 2.7578-2.1523 1.3711-0.72656 2.7812-1.8516 3.1406-2.4961 0.35547-0.64453 0.95312-0.98438 1.3242-0.75391 0.82812 0.51172-2.3672 3.9961-4.8633 5.2969-2.2031 1.1484-2.7031 1.1719-2.3594 0.10547zm-17.828-5.2539c-1.6328-3.0117-2.2656-3.5625-5.125-4.4688-2.9258-0.92969-4.9375-2.6914-3.0664-2.6914 1.6992 0 10.656 4.2422 12.02 5.6953 1.2656 1.3477 1.3711 1.8203 0.72266 3.2383-1.1523 2.5312-2.5 2.0078-4.5508-1.7734zm9.9805 1.1562c-1.0469-2.7344 1.582-5.4375 3.4609-3.5586 1.6406 1.6406 0.73047 4.5156-1.4297 4.5156-0.91406 0-1.8281-0.42969-2.0312-0.95313zm-121.1-9.4375c-4.9492-2.6602-9.6367-7.8086-8.6172-9.4609 0.79297-1.2812 2.4648-0.66406 5.5352 2.043 2.8516 2.5117 3.3125 2.6914 6.1641 2.4219 2.3789-0.22656 4.0195-1 7.1836-3.3789 4.5586-3.4258 6.4453-3.7695 9.3555-1.6953 1.8555 1.3203 2.0703 1.3359 4.5859 0.33203 1.4492-0.58203 4.0195-1.0547 5.7109-1.0547 2.6094 0 4.5234-0.80859 12.719-5.3711 10.09-5.6211 14.418-8.2969 19.113-11.828 2.2383-1.6836 2.8125-1.8867 2.8125-1 0 1.8984-2.4648 4.7031-7.457 8.4844-2.6367 1.9961-6.7812 5.2266-9.2109 7.1719-9.3125 7.4609-16.289 10.508-27.832 12.148-3.75 0.53125-7.8594 1.2734-9.1328 1.6445-3.3945 0.99219-8.6562 0.77734-10.93-0.44531zm-35.883-8.1953c-3.168-0.94531-4.8438-3.4922-4.8438-7.3516 0-6.0391 4.2695-11.215 8.3945-10.176 1.9102 0.48047 1.7266 1.8281-0.32031 2.3281-2.7969 0.68359-4.1055 2.4688-4.1055 5.5938 0 4.9336 2.4336 6.168 7.2852 3.6953 4.0117-2.0469 5.2969-1.5547 5.2969 2.0273 0 2.5664-7.6445 5.1016-11.711 3.8867zm218.41-6.5703c-4.1094-1.4805-9.6914-4.5078-14.172-7.6953-3.625-2.5781-5.2656-2.7578-8.293-0.91016-4.3906 2.6797-5.8555 1.1875-2.4883-2.5391 1.2852-1.4258 2.3398-2.7734 2.3398-2.9922 0-0.22266-1.1953-1.9727-2.6523-3.8945-5.2969-6.9648-6.8789-16.016-3.8828-22.203 2.4609-5.0859 11.895-11.121 21.438-13.723 5.4141-1.4766 17.891-2.0703 21.953-1.0469 7.1992 1.8125 17.52 10.895 21.445 18.867 3.4375 6.9805 3.3828 15.496-0.14453 22.805-1.6133 3.3398-9.5977 9.6719-16.105 12.77-3.4766 1.6562-4.7188 1.8867-9.9336 1.8672-4.1641-0.023438-7.0273-0.40625-9.5-1.2969zm19.305-3.2031c4.4102-2.1758 12.359-8.3828 14.059-10.98 1.7969-2.7422 2.5898-9.6953 1.7109-15.008-1.2539-7.5898-4.0078-11.867-10.898-16.941-5.3594-3.9453-11.051-5.6484-18.984-5.6719-8.1328-0.023438-17.879 2.4844-17.879 4.6055 0 0.52734 1.9219 3.0664 4.2734 5.6445 4.5703 5.0039 6.6289 8.4062 5.6719 9.3594-1.0078 1.0078-2.5156-0.082031-2.9727-2.1484-0.59766-2.7188-5.1875-6.7695-9.7852-8.6328-3.5898-1.4531-3.9023-1.4805-5.4648-0.45703-5.9336 3.8867-7.5352 14.875-2.75 18.848 1.1641 0.96484 1.7266 0.31641 2.7578-3.1719 0.36719-1.2461 0.96484-2.3594 1.3242-2.4766 0.52344-0.17188 3.0859 3.4375 4.1836 5.8867 0.11719 0.26562-1.4062 1.1992-3.3906 2.0781s-3.8242 1.9453-4.0898 2.375c-0.66406 1.0742 7.4336 9.0664 9.7773 9.6562 1.3125 0.32812 2.207 0.13672 3.1016-0.67188 1.7227-1.5586 2.6641-0.75 2.6641 2.2812 0 2.3242 0.26562 2.7031 3.0273 4.3203l3.0273 1.7734 4.0273-2.7031c2.2148-1.4883 4.6523-2.7031 5.4141-2.7031 1.1953 0 1.0469 0.31641-1.0977 2.2852-1.3672 1.2539-2.4844 2.5781-2.4844 2.9453 0 2.7852 8.7227 2.4961 14.77-0.48828zm-10.973-10.082c-7.8945-1.9219-9.418-4.3555-8.918-14.281 0.35156-6.9805 0.30078-6.8984 6.0781-9.8359 5.8438-2.9727 12.816-1.9844 17.418 2.4688 2.582 2.5 2.6992 3.5859 0.49609 4.5938-2.6328 1.1992-1.9336 1.9883 1.3242 1.5 2.875-0.42969 2.9805-0.38672 2.9805 1.2578 0 4.8789-4.5391 12.027-8.6094 13.551-2.7227 1.0195-8.1094 1.3945-10.77 0.74609zm-57.066-0.054687c-1.4258-1.1211-1.7227-1.8438-1.5625-3.793 0.17188-2.0508 0.46094-2.4375 1.957-2.6094 2.0977-0.24219 3.8711 1.8789 3.8711 4.6328 0 2.6914-2.0273 3.5352-4.2695 1.7734zm-12.227-1.9844c-0.72656-0.77734-1.793-3.5-2.3711-6.0469-0.57812-2.5469-1.4805-5.457-2.0039-6.4688-1.7734-3.4297-8.207-6.3477-24.062-10.91-5.5938-1.6094-10.586-3.2734-11.098-3.6992-0.55859-0.46484-2.0234-0.625-3.6953-0.40234-1.5195 0.20312-4.3555 0.054687-6.3008-0.33984-1.9453-0.39062-3.7305-0.51562-3.9688-0.27734-0.23828 0.23828 0.066406 1.4844 0.67969 2.7656 1.4766 3.0977 1.4844 3.0859-1.3711 2.8359-2.3477-0.20703-2.5625-0.058594-3.9648 2.7227-2.1875 4.332-2.5469 4.5273-4.6758 2.4883-2.2266-2.1328-2.5273-2.1719-3.4414-0.46875-0.54297 1.0195-0.39844 1.9141 0.65234 3.9727 0.74609 1.4609 1.168 2.6562 0.9375 2.6562-0.23047 0-1.5625-0.64063-2.957-1.4258l-2.5391-1.4258-1.5234 1.4648c-1.4961 1.4375-8.2031 4.6328-16.105 7.6758-3.9375 1.5156-19.16 3.6719-33.18 4.7031-8.832 0.64844-15.145-1.4883-22.867-7.7461-1.2852-1.0391-2.2422-1.3086-3.5195-0.98828-2.4375 0.61328-1.9453 2.2109 1.4297 4.6719 3.1875 2.3203 3.9258 3.5547 2.4727 4.1094-1.3828 0.53125-3.125-0.48438-8.1992-4.7812-6.6641-5.6406-6.6719-5.957-0.16406-8.043 3.457-1.1094 3.5664-1.1016 8.9414 0.625 12.586 4.043 24.035 5.793 37.852 5.793 10.32 0 14.457-1.0039 23.676-5.7461 7.543-3.8789 13.035-8.1016 19.27-14.809 6.4414-6.9336 8.4102-10.738 8.4102-16.254 0-6.9258-1.918-11.598-8.6914-21.164-9.582-13.531-25.199-36.258-25.559-37.191-0.84375-2.1953 2.3867-0.42969 6.6719 3.6562 6.6133 6.2969 17.953 15.609 23.715 19.465 2.668 1.7891 10.145 6.2773 16.609 9.9727 11.25 6.4375 13.23 8.1055 11.133 9.4023-0.33984 0.21094-3.9844 0.98828-8.0938 1.7305-8.1211 1.4609-13.418 3.3984-12.98 4.7422 0.15234 0.46094 1.2969 1.5391 2.543 2.3984 2.0547 1.4102 2.7305 1.5195 7.2344 1.1484 2.7305-0.22656 8.2461-0.59375 12.25-0.8125 6.6133-0.36719 7.4297-0.28516 8.8828 0.90234 1.0352 0.84375 1.4531 1.6914 1.1797 2.4023-0.35156 0.91797-1.4844 1.0977-6.8984 1.1016-9.8203 0.007813-20.051 1.8672-20.051 3.6445 0 1.2383 3.0547 2.7891 7.2852 3.6953 1.8594 0.39844 4.1445 1.3828 5.082 2.1875l1.7031 1.4648-2.1641 1.8203c-1.5742 1.3242-1.9648 2.0195-1.4336 2.5508 0.40234 0.40234 4.1523 1.7148 8.332 2.9141 14.258 4.0977 23.094 9.4336 25.297 15.277 0.66016 1.7539 1.7031 4.0781 2.3164 5.1719 1.3594 2.4219 2.2969 8.2773 1.3242 8.2773-0.37109 0-1.2695-0.63672-1.9961-1.4141zm-31.516-11.168c-2.5312-2.5508-5.1484-4.8125-5.8203-5.0234-1.5508-0.49219-2.4766-2.9062-1.6914-4.4062 1.0977-2.0938 3.8672-1.3984 6.8555 1.7148 3.9609 4.1328 7.8008 12.355 5.7734 12.355-0.28125 0-2.5859-2.0859-5.1172-4.6367zm34.793-0.29688c-1.5352-1.8477-5.2773-11.266-4.7031-11.84 1.2227-1.2227 3.3398 0.39453 4.8906 3.7305 1.9453 4.1875 2.5664 6.6367 2.0352 8.0234-0.5 1.3008-1.1875 1.3281-2.2227 0.082031zm-122.95-4.4102c-4.2969-0.54687-22.598-9.3867-26.594-12.848-5.1797-4.4883-7.1211-10.914-6.6367-21.977 0.33594-7.7148 1.4414-10.312 6.3398-14.895 5.8594-5.4805 12.625-8.1133 23.738-9.2422 9.293-0.94141 12.418-0.39453 20.906 3.6523 5.1602 2.4609 7.2812 3.9805 12.289 8.8125 5.4062 5.2148 6.1797 6.2617 7.2422 9.8125 0.80078 2.668 1.1914 6.1484 1.1953 10.594 0.003907 5.9023-0.1875 6.9844-1.7656 9.9766-2.2539 4.2695-6.0742 7.7227-10.215 9.2305-1.7852 0.64844-6.0117 2.3359-9.3945 3.7461-6.8008 2.8398-11.977 3.7891-17.113 3.1367zm3.1641-4.9609c0.30859-0.19141 0.55859-1.3555 0.55859-2.5859 0-3.2695 1.0469-3.3945 2.9648-0.35547 2.0195 3.1992 2.8867 3.2969 11.387 1.2969 6.8477-1.6094 8.8281-2.6953 8.8281-4.8516 0-1.9375-1.0469-2.8516-6.1523-5.3633-2.2227-1.0938-4.168-2.4023-4.3281-2.9141-0.51953-1.668 3.8633-0.24219 9.0117 2.9258 2.6484 1.6328 5.0781 2.9688 5.3945 2.9688 0.97266 0 4.6406-4.5586 5.082-6.3125 0.78125-3.1133-0.066407-15.078-1.2188-17.25-1.5391-2.8945-9.8789-11.152-13.238-13.105-3.5781-2.082-15.57-4.4453-22.711-4.4766-3.7578-0.023438-6.5703 0.40234-9.6016 1.418-4.9414 1.6641-12.629 6.5352-14.418 9.1406-3.7812 5.5078-5.9961 15.07-4.8125 20.781 1.4141 6.8008 4.0312 9.3711 15.605 15.324 3.6406 1.875 6.8281 3.5039 7.0781 3.6211 0.25 0.11719 0.93359-0.70703 1.5195-1.8359 1.1602-2.2461 2.3281-2.1289 2.3281 0.23828 0 0.82812 0.22266 1.7305 0.49609 2.0039 0.49219 0.49609 5.1523-0.007813 6.2266-0.67188zm-7.8828-12.883c-6.4766-3.2891-10.637-12.254-8.8203-19.004 1.9883-7.3906 10.102-11.281 17.875-8.5742 1.9141 0.66797 2.4297 1.3047 3.3125 4.1016 1.0156 3.2266 1.1055 3.3125 3.6172 3.3125 2.9883 0 3.6016 0.94531 3.6523 5.6289 0.078125 7.2656-6.8125 14.746-14.434 15.672-1.6055 0.19531-3.3125-0.17969-5.2031-1.1367zm125.32-5.0391c-2.4102-1.2695-4.9648-3.5352-4.9648-4.3984 0-1.2773 6.6055-0.046874 8.3008 1.543 3.4258 3.2188 1.1133 5.1953-3.332 2.8516zm-69.145-5.7891c-0.41797-0.50391-1.3633-3.1094-2.1016-5.7852-1.8477-6.7109-5.5547-12.164-14.16-20.832-7.7695-7.8281-12.652-11.469-20.785-15.508-8.457-4.1992-13.188-5.3672-23.43-5.7695-6.9375-0.27344-9.1055-0.56641-9.1055-1.2383 0-1.4141 2.2773-2.25 8.2422-3.0195 16.297-2.1055 35.863 6.8203 48.926 22.309 6.7461 8.0039 12.828 19.898 13.938 27.258 0.44141 2.9336-0.25 4.1133-1.5195 2.5859zm59.25-38.285c-1.3594-1.9414-1.3086-4.2656 0.10937-5.0625 1.5156-0.84766 3.3789 0.17969 4.1875 2.3125 1.3398 3.5195-2.1836 5.7695-4.2969 2.75zm-5.9805-11.871c-4.0234-4.7852-7.1641-12.801-8.9727-22.914-0.79687-4.4453-2.2891-9.3594-4.3242-14.238-1.7109-4.0977-4.5547-11.727-6.3164-16.961-1.8789-5.5742-5.4062-13.871-8.5234-20.035-4.8906-9.6719-6-12.504-4.9102-12.504 1.9219 0 12.492 10.035 14.336 13.613 1.9492 3.7812 12.203 29.801 12.977 32.934 0.43359 1.7461 1.082 7.8477 1.4453 13.559 0.77734 12.234 1.25 14.27 4.6836 20.148 3.0156 5.168 3.9453 8.4766 2.3789 8.4766-0.55859 0-1.8086-0.9375-2.7734-2.0859zm-71.488-12.859c-1.3047-1.3047-1.3242-2.5352-0.058594-3.5859 2.1055-1.7461 5.2031 1.6562 3.2695 3.5898-1.3047 1.3047-1.9102 1.3047-3.2148 0zm82.715-10.238c-0.73047-1.1836 2.7734-6.2539 7.0586-10.223l4.125-3.8203 4.2852 0.4375c8.5195 0.87109 12.629 2.1797 11.684 3.7109-0.38672 0.625-2.2031 0.71875-7.3711 0.38281-4.457-0.28906-7.3281-0.19531-8.1875 0.26563-0.73047 0.39062-2.5508 2.2617-4.0469 4.1602-2.4766 3.1406-5.5 5.7539-6.6641 5.7617-0.25 0-0.64844-0.30078-0.87891-0.67969zm-1.6445-9.6953c0-0.24219 0.73047-2.2656 1.6172-4.4922 1.7422-4.3555 3.3906-15.066 2.5391-16.523-0.28516-0.48828-1.5234-1.7305-2.75-2.7539-2.2227-1.8555-2.2305-1.8789-1.9258-6.6328 0.5-7.8086 4.957-14.836 6.2188-9.8086 0.29688 1.1797 0.019531 2.8711-0.79297 4.8438-0.80078 1.9453-1.2539 4.6523-1.2578 7.5508-0.007813 4.3555 0.074218 4.5898 2.3086 6.4648 4.0781 3.4297 11.031 7.8672 13.922 8.8867 1.5391 0.54297 4.8477 0.98828 7.3516 0.98828 4.8086 0 5.707 0.73828 3.5391 2.9062-2.6875 2.6875-8.2656 1.8906-16.094-2.3008-4.9453-2.6445-6.4336-2.7969-5.7305-0.58203 0.74609 2.3516-1.0391 6.8359-3.7461 9.4141-2.2852 2.1758-5.1992 3.3203-5.1992 2.0391zm-106.45-19.859c-1.5273-0.61719-0.84766-1.6016 1.9883-2.8906 3.4141-1.5508 5.7031-1.6562 6.2266-0.28906 0.69141 1.8047-1.6875 3.6211-4.6719 3.5664-1.4922-0.023437-3.0859-0.20312-3.5391-0.38672zm98.082-13.121c-1.1172-2.9141 1.7305-13.645 4.1602-15.66 1.5234-1.2617 2.4766 0.31641 2.4219 4.0117-0.03125 2.3242-0.69922 4.5781-2.2773 7.7422-2.3086 4.6211-3.582 5.7773-4.3008 3.9062zm-126.56-2.6602c-4.2812-1.8594-4.375-7.8203-0.25-15.773 2.8125-5.418 4.3906-6.7617 5.5859-4.7578 1.9023 3.1836 1.7773 4.2344-0.88672 7.3125-2.8164 3.2539-3.832 6.6562-2.6484 8.8672 0.75391 1.4102 2.4297 1.4766 6.8164 0.27344 2.0781-0.57031 2.2344 1.8008 0.23438 3.5195-2.0859 1.7969-5.5156 2.0117-8.8516 0.5625zm97.879 375.41c0.5-0.60547 0.87891-2.8789 0.91016-5.4648 0.050781-4.3086 0.003907-4.4336-1.6953-4.6328-0.96094-0.11328-2.7461 0.40625-3.9727 1.1562-3.4766 2.1211-3.8828 1.8555-3.8828-2.5547 0-5.7188-0.21094-6.0117-4.3281-6.0117-3.1367 0-3.6758 0.21094-4.8945 1.9219-0.75391 1.0586-1.3711 2.3438-1.3711 2.8594 0 2.4062 14.211 13.762 17.223 13.762 0.63672 0 1.543-0.46875 2.0156-1.0352zm44.996-2.9609c0.83203-0.55859 0.63672-0.98438-1.1953-2.6641-1.2031-1.1016-3.0742-2.1758-4.1523-2.3945-2.5039-0.5-3-1.3281-1.6758-2.793 0.85156-0.94141 0.89844-1.3633 0.23047-2.2188-1.5742-2.0156-5.4336-3.8125-8.1992-3.8164-3.0273 0-3.5469 0.62891-3.5469 4.3164 0 2.3398-1.0078 3.5469-2.0703 2.4844-0.34766-0.34766-0.99219-2.0938-1.4336-3.8828l-0.80469-3.2539h-6.625l-1.4258 4.2539c-0.78516 2.3398-1.2734 4.6445-1.0938 5.1211 0.75781 1.9805 12.355 3.6055 16.859 2.3633 2.6562-0.73438 3.8672-0.12109 3.8672 1.9727 0 1.0469 0.62891 1.1914 5.1328 1.1836 2.8242-0.007813 5.5781-0.30859 6.125-0.67188zm19.859-6.9258c1.0039-1.2109 0.41797-2.9883-0.98438-2.9883-1.2148 0-1.957 1.5625-1.418 2.9805 0.48438 1.2617 1.3594 1.2656 2.4023 0.007813zm-54.438-2.5859c0.95703-2.4141 0.94531-2.6367-0.20312-3.4766-1.457-1.0664-5.1758-1.1797-6.9805-0.21094-1.8789 1.0039-1.5664 2.9297 0.79688 4.918 2.9453 2.4805 5.0742 2.0703 6.3867-1.2305zm32.273-3.75c0.47656-1.4961-0.80078-4.1172-1.8359-3.7695-1.2344 0.40625-2.0469 3.7266-1.168 4.7812 0.95703 1.1523 2.4805 0.64062 3.0039-1.0117zm-15.203-5.5547c1.8984-1.4102 0.50781-3.293-2.6367-3.5586-3.9102-0.33203-6.0625 2.5469-2.8672 3.8281 2.2148 0.89062 4.0586 0.79688 5.5039-0.27344zm-40.719-3.7031c1.707-0.91406 1.6641-3.9492-0.089844-6.1797-1.5508-1.9727-4.5156-2.2695-8.5586-0.86328-2.6328 0.91406-2.7383 2.0039-0.55078 5.5742 1.2031 1.9648 1.6094 2.1523 4.6211 2.1523 1.8164 0 3.875-0.30859 4.582-0.6875zm73.984-3.9922c0.24219-5.4336-1.2734-7.9062-4.8359-7.9062-1.2266 0-2.4102 0.29297-2.6289 0.64062-0.70703 1.1445-2.3438 10.715-1.9414 11.363 0.21484 0.33984 2.375 0.53516 4.8008 0.4375l4.4141-0.19531 0.19141-4.3438zm-34.699-1.0039c0.76563-1.9922 0.39844-9.3945-0.60937-12.277-1.1172-3.207-2.4883-4.5547-4.6367-4.5547-1.6758 0-2.6133 1.7852-3.9727 7.5469-1.5156 6.4297-1.3594 7.3164 1.5117 8.5312 4.9922 2.1094 7.1094 2.3164 7.7109 0.75391zm-15.465-2.9531c1.9531-1.9531 2.6211-4.168 2.6211-8.6641v-3.9648l-3.0469-1.3477c-3.7148-1.6445-6.4102-1.2812-9.4453 1.2617l-2.168 1.8164 1.4922 3.8945c2.7539 7.1797 7.3281 10.219 10.543 7.0078zm-14.727-0.46875c1.9102-1.6523 2.375-3.7852 1.1055-5.0586-0.95312-0.95312-1.25-0.95703-2.9961-0.074219-2.7539 1.4219-4.3438 3.9922-3.2734 5.2812 1.1055 1.3281 3.5234 1.25 5.1641-0.16797zm58.109-7.7422c1.2656-0.94141 1.2656-0.97656-0.12891-2.3906-1.6094-1.6328-7.0586-2.5781-7.8125-1.3594-1.8984 3.0703 4.6758 6.1758 7.9414 3.75zm-11.887-1.3125c0.71875-1.875-1.2031-3.6953-7.8555-7.4336-10.453-5.8711-15.746-6.793-19.961-3.4805-2.168 1.7031-2.1797 2.9141-0.046875 4.3125 1.2852 0.83984 2.5039 1 5.2266 0.67969 3.4375-0.40234 3.6602-0.33203 6.7695 2.2695 2.7461 2.293 3.5547 2.6367 5.5312 2.3633 1.4336-0.20312 3.4531 0.15234 5.2969 0.91406 3.6484 1.5195 4.5742 1.5859 5.0391 0.37109zm25.953-6.1406c0.23437-4.0742-0.097657-4.3438-7.1523-5.8281-6.9844-1.4688-8.2461-1.3359-10.137 1.082l-1.625 2.0742-2.4688-2.7305c-3.8398-4.2539-9.8828-6.8984-16.539-7.25-8.7539-0.46094-8.293 2.0508 1.4062 7.6484 7.0938 4.0938 13.367 6.043 16.113 5.0039 1.4961-0.56641 2.0781-0.5 2.918 0.33984 0.96094 0.96094 13.754 3.4648 16.289 3.1914 0.71094-0.074218 1.0508-1.082 1.1914-3.5391zm-87.348-9.0547c0.99219-1.1953 0.19531-3.1836-1.1719-2.9258-1.3945 0.26562-1.8945 3.8359-0.53906 3.8359 0.52734 0 1.2969-0.40625 1.7109-0.91016zm1.3477-9.3555c0.64062-1.8203 2.1406-4.8906 3.332-6.8203 1.1914-1.9297 2-3.6758 1.7969-3.8789-1.1367-1.1367-6.3828 4.4531-9 9.5898-1.1719 2.3008-1.3008 3.0586-0.64844 3.8398 1.5234 1.8359 3.2852 0.77344 4.5195-2.7305zm92.754-12.227c0-3.832-9.7812-11.883-16.18-13.316-5.1445-1.1523-8.1289-0.38672-11.129 2.8672-1.3711 1.4844-2.4922 3.0391-2.4922 3.457 0 1.3594 3.5898 4.2422 6.6328 5.3242 1.6328 0.58203 4.6094 1.3008 6.6133 1.6016 5.2578 0.78516 16.555 0.83203 16.555 0.074219zm-50.621-88.812c0.68359-1.1055-0.85156-2.3711-1.7656-1.457-0.76562 0.76562-0.28516 2.1758 0.73828 2.1758 0.32031 0 0.78516-0.32422 1.0273-0.71875z" fill="#191919"/>
</svg>
