
<svg xmlns="http://www.w3.org/2000/svg" version="1.1" xmlns:xlink="http://www.w3.org/1999/xlink" preserveAspectRatio="none" x="0px" y="0px" width="211px" height="329px" viewBox="0 0 211 329">
<defs>
<path id="Layer0_0_1_STROKES" stroke="#9566FF" stroke-width="10" stroke-linejoin="round" stroke-linecap="round" fill="none" d="
M 5 5
L 5 69
Q 31.3 79.05 46.1 54.45
L 5 5 Z
M 5 69
L 5 214 37 214 37 247
M 206 247
L 46.1 54.45
M 5 214
L 5 247"/>

<path id="Layer0_0_2_STROKES" stroke="#669900" stroke-width="10" stroke-linejoin="round" stroke-linecap="round" fill="none" d="
M 206 247
L 37 247 5 247"/>
</defs>

<g transform="matrix( 1, 0, 0, 1, 0,0) ">
<use xlink:href="#Layer0_0_1_STROKES"/>

<use xlink:href="#Layer0_0_2_STROKES"/>
</g>

<g transform="matrix( 1, 0, 0, 1, 25.2,60.05) ">
<clipPath id="Mask_Mask_1">
<rect x="-2" y="-2" width="30.9" height="72.2" fill="#FFFFFF" stroke="none"/>
</clipPath>

<text clip-path="url(#Mask_Mask_1)" writing-mode="lr"><tspan x="0" y="50.55" baseline-shift="0%" font-family="Nunito SemiBold Italic" font-style="italic" font-size="50" fill="#9566FF" xml:space="preserve">x</tspan></text>
</g>

<g transform="matrix( 1, 0, 0, 1, 126,51.45) ">
<clipPath id="Mask_Mask_2">
<rect x="-2" y="-2" width="34.2" height="72.2" fill="#FFFFFF" stroke="none"/>
</clipPath>

<text clip-path="url(#Mask_Mask_2)" writing-mode="lr"><tspan x="0" y="50.55" baseline-shift="0%" font-family="Nunito SemiBold Italic" font-style="italic" font-size="50" fill="#9566FF" xml:space="preserve">7</tspan></text>
</g>

<g transform="matrix( 1, 0, 0, 1, 86,259.4) ">
<clipPath id="Mask_Mask_3">
<rect x="-2" y="-2" width="26.7" height="72.2" fill="#FFFFFF" stroke="none"/>
</clipPath>

<text clip-path="url(#Mask_Mask_3)" writing-mode="lr"><tspan x="0" y="50.55" baseline-shift="0%" font-family="Nunito SemiBold Italic" font-style="italic" font-size="50" fill="#669900" xml:space="preserve">?</tspan></text>
</g>
</svg>
