
<svg xmlns="http://www.w3.org/2000/svg" version="1.1" xmlns:xlink="http://www.w3.org/1999/xlink" preserveAspectRatio="none" x="0px" y="0px" width="285px" height="284px" viewBox="0 0 285 284">
<defs>
<g id="Layer0_0_FILL">
<path fill="#0E0110" stroke="none" d="
M 1506.3 542.75
Q 1482.3 515.75 1473.65 506.2 1459.3 490.45 1452.95 484.5 1423.3 456.9 1406.25 444.25 1377.75 423.6 1366.55 414.8 1310.3 370.55 1281.8 359.15 1256.2525390625 346.8619140625 1227.1 346.45 1220.128515625 345.753515625 1216.8 354.6 1203.40078125 380.948046875 1191.35 416.5
L 1184 444.2
Q 1175.95 469.85 1165.45 485.3 1144.6 520.85 1135.2 550.55 1127.35 575.3 1102.25 650.3 1100.8 654.55 1089.45 685.2 1075.85 721.85 1038.85 798.65 1034.55 807.5 1006.2 871.05 1001 882.7 962.55 962.2 955.5029296875 974.9185546875 961.8 981.8 968.6044921875 989.315625 979.5 985.2
L 1085.25 937.4 1187.9 895.15
Q 1195.85 892.55 1203.6 891.85 1218.65 891.45 1228.35 886.6 1232.35 884.85 1236.25 883 1245.6 878.45 1255.2 877.05 1269.35 874.95 1289.5 866.9 1308.4 859.3 1375.85 834.9 1416.3 820.6 1448.6 800.9 1472.1 786.55 1522.05 771.35
L 1524.1 770.45
Q 1557.9595703125 759.8701171875 1576.35 748.3 1607.080859375 732.0603515625 1615.4 716 1618.878125 710.512109375 1608.8 694.2 1584.1861328125 648.0384765625 1568.05 624.15 1551.9544921875 600.3037109375 1539.9 584.8 1513.1 550.45 1506.3 542.75
M 1321.9 517.85
Q 1331.6998046875 524.344140625 1361.15 548.4 1406.6458984375 586.29140625 1457.25 661.65 1473.295703125 684.5779296875 1488.55 710.6 1504.800390625 735.2904296875 1512.9 751.5 1513.3283203125 752.336328125 1513.7 753.15 1514.307421875 754.3421875 1514.85 755.45 1517.2791015625 760.670703125 1518.75 764.85 1508.7337890625 767.9296875 1499.75 770.95 1464.0994140625 782.980859375 1445.3 794.45 1413.0169921875 814.130078125 1372.55 828.4 1305.07578125 852.8619140625 1286.2 860.4 1266.0529296875 868.4884765625 1251.9 870.55 1242.312109375 871.99453125 1232.95 876.5 1229.073828125 878.3962890625 1225 880.1 1215.3744140625 885.0099609375 1200.3 885.35 1192.537109375 886.0939453125 1184.6 888.7
L 1081.95 930.95 976.15 978.75
Q 975.49296875 978.949609375 974.85 979.05 966.0220703125 980.7609375 969.1 966.2 1007.6015625 886.719921875 1012.8 875.05 1041.14453125 811.4974609375 1045.4 802.6 1082.45546875 725.847265625 1096.05 689.2 1107.4037109375 658.5458984375 1108.8 654.3 1133.96875 579.276953125 1141.8 554.55 1151.204296875 524.840234375 1172 489.25 1181.336328125 475.632421875 1188.7 453.9 1189.65625 451.134765625 1190.55 448.2 1190.7111328125 447.749609375 1190.85 447.3 1228.0775390625 452.311328125 1268.7 481.45 1288.979296875 495.984765625 1321.9 517.85
M 1472.25 516.2
Q 1480.9572265625 525.7802734375 1504.9 552.8 1511.7595703125 560.50234375 1538.5 594.85 1550.6015625 610.3361328125 1575.35 650.3 1579.7423828125 657.378125 1603.65 701.5 1607.2005859375 706.9728515625 1607.75 711.7 1608.529296875 717.8267578125 1598.5 725 1590.23046875 731.6302734375 1577.3 739.55 1566.8353515625 746.03359375 1545.5 755.55 1540.8298828125 757.6669921875 1535.65 759.9 1528.2599609375 761.9962890625 1521.35 764.05
L 1517.05 754.15
Q 1516.845703125 753.666015625 1516.6 753.15 1516.278515625 752.3396484375 1515.9 751.5 1508.1361328125 734.0609375 1488.6 704.3 1473.3 678.3 1457.25 655.4 1406.65 580 1361.15 542.1 1331.7044921875 518.0587890625 1307.85 503.2 1284.043359375 488.3833984375 1253.05 466.4 1233.819921875 452.7625 1191.75 444.35
L 1191.7 444.35
Q 1195.3134765625 428.544140625 1199.9 415.45 1203.0728515625 406.5197265625 1206.7 398.85
L 1220.85 364.2
Q 1225.0912109375 352.1966796875 1243.3 357.85 1262.73828125 360.6955078125 1280.45 369.2 1308.959765625 380.601171875 1365.15 424.8 1376.378125 433.625 1404.9 454.25 1421.9509765625 466.9392578125 1451.55 494.5 1457.9625 500.4783203125 1472.25 516.2 Z"/>

<path fill="#CE6F30" stroke="none" d="
M 1307.85 503.2
Q 1331.7044921875 518.0587890625 1361.15 542.1 1406.65 580 1457.25 655.4 1473.3 678.3 1488.6 704.3 1508.1361328125 734.0609375 1515.9 751.5 1516.278515625 752.3396484375 1516.6 753.15 1516.845703125 753.666015625 1517.05 754.15
L 1521.35 764.05
Q 1528.2599609375 761.9962890625 1535.65 759.9 1540.8298828125 757.6669921875 1545.5 755.55
L 1518.45 702.05
Q 1509.31953125 686.584765625 1504 673.85 1489.0875 644.563671875 1470.45 626.6 1453.320703125 608.2193359375 1443.55 590.2 1436.0482421875 575.6525390625 1417.65 555.8 1403.2310546875 540.17578125 1373.9 520.55 1371.1662109375 518.702734375 1316.3 483.35 1295.9109375 472.36796875 1260.95 448.6 1235.7453125 428.1025390625 1199.9 415.45 1195.3134765625 428.544140625 1191.7 444.35
L 1191.75 444.35
Q 1233.819921875 452.7625 1253.05 466.4 1284.043359375 488.3833984375 1307.85 503.2
M 1303.4 485.15
Q 1303.2 485.55 1302.55 486.2 1301.9 486.85 1299.55 486.6 1297.15 486.35 1297.55 485.7 1297.9 485.05 1298.2 484.3 1298.45 483.55 1299.3 483 1300.1 482.45 1301.25 483.05 1302.35 483.65 1302.95 484.2 1303.55 484.75 1303.4 485.15
M 1311.4 493.1
Q 1311.7 493.75 1310.8 494 1309.85 494.2 1308.6 493.8 1307.3 493.4 1306.45 492.55 1305.65 491.75 1305.65 490.55 1305.65 489.35 1306.75 489 1307.85 488.6 1309.25 489.15 1310.6 489.7 1310.85 491.1 1311.1 492.45 1311.4 493.1
M 1366.05 531.3
Q 1361.8205078125 528.79140625 1357.5 527.15 1339.451953125 519.7875 1322.55 500.5 1343.241015625 517.6466796875 1361.1 524.95 1372.7171875 529.8609375 1377.85 540.05 1381.2939453125 545.307421875 1384.65 548.35 1388.1080078125 551.4578125 1389.7 555.85 1379.04765625 547.963671875 1373.85 539.3 1370.1365234375 533.7119140625 1366.05 531.3
M 1403.8 568.45
Q 1404.9 568.3 1405.9 568.3 1406.9 568.3 1406.6 570.25 1406.3 572.15 1405.55 572.9 1404.8 573.65 1403.95 573.65 1403.1 573.6 1402.95 572.75 1402.8 571.9 1402 571 1401.2 570.05 1401.95 569.3 1402.7 568.55 1403.8 568.45
M 1410.35 577.3
Q 1408.6 577.8 1408.35 576.4 1408.05 575 1408.05 574.2 1408.05 573.4 1409.25 572.55 1410.4 571.7 1411.85 571.6 1413.3 571.5 1413.9 572.45 1414.45 573.4 1414.45 574.2 1414.45 575 1413.3 575.9 1412.1 576.8 1410.35 577.3
M 1439.6 616.15
Q 1433.2646484375 613.1916015625 1431.4 604.2 1429.9265625 597.0609375 1420.95 588.85 1430.32421875 590.0970703125 1434.05 600.8 1434.3126953125 601.64296875 1434.55 602.45 1434.6263671875 608.6625 1443.65 614.85
L 1443.7 614.9 1450.35 620.45
Q 1464.1224609375 637.5662109375 1467.9 652.4
L 1471.05 664.85
Q 1460.1716796875 642.13203125 1455.9 635.55 1449.8423828125 623.5486328125 1439.6 616.15
M 1491.75 692.7
Q 1490.0091796875 685.7880859375 1492.3 688
L 1498.75 700.35
Q 1498.8185546875 700.5154296875 1498.9 700.65 1501.8185546875 706.5126953125 1507.75 712.35 1515.4736328125 721.2384765625 1518.15 732.8 1520.279296875 745.1787109375 1516.7 734.55 1513.506640625 725.0837890625 1505.75 717.25 1496.9859375 707.53515625 1491.75 692.7
M 1276.2 470.2
Q 1271.73203125 467.8494140625 1266.7 467.3 1261.6609375 466.801171875 1249.1 454.05 1239.310546875 445.2333984375 1223.55 441.95 1216.0568359375 440.78984375 1207.65 436.15 1205.9181640625 434.2046875 1208.25 434.75 1220.164453125 438.7916015625 1230.65 440.5 1241.7560546875 442.1666015625 1254.85 454.4 1257.7037109375 457.33203125 1260.4 459.6 1264.98828125 463.7748046875 1275.2 466.8 1275.4 466.923046875 1275.6 467 1277.83671875 468.1607421875 1278.9 469.8 1282.35234375 474.305859375 1277.45 471.05 1276.83984375 470.54921875 1276.2 470.2 Z"/>

<path fill="#4A1200" stroke="none" d="
M 1266.7 467.3
Q 1271.73203125 467.8494140625 1276.2 470.2 1276.83984375 470.54921875 1277.45 471.05 1282.35234375 474.305859375 1278.9 469.8 1277.83671875 468.1607421875 1275.6 467 1275.4 466.923046875 1275.2 466.8 1264.98828125 463.7748046875 1260.4 459.6 1257.7037109375 457.33203125 1254.85 454.4 1241.7560546875 442.1666015625 1230.65 440.5 1220.164453125 438.7916015625 1208.25 434.75 1205.9181640625 434.2046875 1207.65 436.15 1216.0568359375 440.78984375 1223.55 441.95 1239.310546875 445.2333984375 1249.1 454.05 1261.6609375 466.801171875 1266.7 467.3
M 1492.3 688
Q 1490.0091796875 685.7880859375 1491.75 692.7 1496.9859375 707.53515625 1505.75 717.25 1513.506640625 725.0837890625 1516.7 734.55 1520.279296875 745.1787109375 1518.15 732.8 1515.4736328125 721.2384765625 1507.75 712.35 1501.8185546875 706.5126953125 1498.9 700.65 1498.8185546875 700.5154296875 1498.75 700.35
L 1492.3 688
M 1431.4 604.2
Q 1433.2646484375 613.1916015625 1439.6 616.15 1449.8423828125 623.5486328125 1455.9 635.55 1460.1716796875 642.13203125 1471.05 664.85
L 1467.9 652.4
Q 1464.1224609375 637.5662109375 1450.35 620.45
L 1443.7 614.9 1443.65 614.85
Q 1434.6263671875 608.6625 1434.55 602.45 1434.3126953125 601.64296875 1434.05 600.8 1430.32421875 590.0970703125 1420.95 588.85 1429.9265625 597.0609375 1431.4 604.2
M 1357.5 527.15
Q 1361.8205078125 528.79140625 1366.05 531.3 1370.1365234375 533.7119140625 1373.85 539.3 1379.04765625 547.963671875 1389.7 555.85 1388.1080078125 551.4578125 1384.65 548.35 1381.2939453125 545.307421875 1377.85 540.05 1372.7171875 529.8609375 1361.1 524.95 1343.241015625 517.6466796875 1322.55 500.5 1339.451953125 519.7875 1357.5 527.15
M 1248.55 415.1
Q 1247.9 417.35 1247.9 418.25 1247.9 419.15 1248.5 419.75 1249.15 420.4 1250.05 420.4 1250.95 420.4 1251.55 419.75 1252.2 419.15 1252.2 418.25 1252.2 417.35 1251.6 416.25 1250.95 415.1 1250.05 413.95 1249.15 412.8 1248.55 415.1
M 1243.55 411.45
Q 1241.8 412.15 1240.65 412.8 1239.45 413.45 1238.9 414.3 1238.35 415.15 1240 416.7 1241.65 418.2 1242.7 418.25 1243.75 418.3 1244.9 417.35 1246.05 416.4 1246.6 414.35 1247.1 412.3 1246.2 411.55 1245.25 410.75 1243.55 411.45
M 1224.95 363.45
Q 1224.95 363.5 1225 363.6 1224.85 364.75 1226.4 365.6 1228.4 366.3 1227.6 364 1227.15 362.7 1229.15 361.05 1232.35 357.35 1229.15 357.65 1224.2 357.15 1224.95 363.45
M 1244.1 366.15
Q 1248.55 368.75 1247.1 363.85 1243.9 358.05 1232.9 359.35 1230.3 361 1233.55 362.6 1239.75 362.7 1244.1 366.15
M 1581.05 729.75
Q 1580.85 727.4 1579.7 727.5 1578.5 727.6 1577.35 728.1 1576.15 728.55 1575.55 729.7 1574.95 730.85 1574.9 731.65 1574.85 732.45 1575.5 732.85 1576.15 733.25 1577.1 733.25 1578.05 733.25 1579.65 732.65 1581.2 732 1581.05 729.75
M 1599.35 716.65
Q 1598.7 715.65 1597.8 716.75 1596.85 717.8 1596.2 718.4 1595.6 719.05 1594.9 721 1594.15 722.9 1595.15 723.05 1596.1 723.15 1597.4 722.65 1598.65 722.1 1599.25 721.45 1599.9 720.85 1599.95 719.25 1599.95 717.6 1599.35 716.65
M 1593.25 706.05
Q 1592.1 705.45 1591.8 707.45 1590.55 719.3 1585.6 722.6 1582.15 725.7 1585.45 725.3 1594.7 721.05 1594.75 709.5 1595.2 706.75 1593.25 706.05
M 1518.25 674.65
Q 1517.85 675.55 1518.7 676.4 1519.6 677.3 1520.8 677.3 1522 677.3 1522.85 676.4 1523.75 675.55 1523.75 674.35 1523.75 673.15 1522.85 672.25 1522 671.4 1521.3 671.75 1520.6 672.05 1519.65 672.9 1518.65 673.7 1518.25 674.65
M 1507.9 658.6
Q 1507.25 659.7 1506.75 661.85 1506.2 664 1507.15 664.65 1508.05 665.3 1509.2 665 1510.3 664.65 1510.9 663.6 1511.55 662.6 1511.55 661.15 1511.55 659.7 1511 658.2 1510.45 656.65 1509.5 657.05 1508.55 657.45 1507.9 658.6
M 1506.8 654.05
Q 1506.4 653.3 1505.7 652.6 1505 651.9 1504 651.9 1503 651.9 1502.3 652.6 1501.6 653.3 1501.6 654.3 1501.6 655.3 1503.5 657.1 1505.4 658.9 1506.1 657.95 1506.8 657 1507 655.9 1507.2 654.8 1506.8 654.05
M 1539.35 614.3
Q 1540.6 613.95 1541.05 612.95 1541.45 612 1540.2 611.45 1538.9 610.9 1537.8 610.45 1536.75 610.05 1535.75 610.35 1534.85 610.6 1534.5 611.45 1534.2 612.25 1534.65 613.15 1535.2 614 1536.6 614.4 1538.05 614.7 1539.35 614.3
M 1355.45 456.85
Q 1354.6 455.45 1353.4 455.45 1352.2 455.45 1351.35 456.85 1350.4953125 458.3 1348.5 460.35 1346.5140625 462.4 1348.6 463.8 1350.6859375 465.25 1352.65 465.25 1354.6046875 465.25 1355.45 463.8 1356.3 462.4 1356.3 460.35 1356.3 458.3 1355.45 456.85
M 1363.65 467.4
Q 1364.5373046875 466.4375 1363.9 465.45 1363.265234375 464.46484375 1362.95 463 1362.694921875 461.594921875 1361.3 461.6 1359.9 461.6 1358.9 462.55 1357.95 463.55 1357.95 464.95 1357.95 466.35 1359.4 467.8 1360.8486328125 469.2486328125 1361.8 468.8 1362.75625 468.3560546875 1363.65 467.4
M 1356.05 425.7
Q 1355.45 426.45 1355.8 427.65 1356.2 428.75 1357.2 429.55 1358.15 430.25 1359.25 430.15 1360.35 430.1 1360.25 428.9 1360.15 427.75 1360.05 426.8 1359.9 425.85 1359.2 425.3 1358.45 424.75 1357.5 424.85 1356.6 425 1356.05 425.7
M 1348.25 419.2
Q 1349.655859375 417.3314453125 1343.05 412.35 1334.65 406 1323.25 400.95 1318.55 399.1 1316.95 400.95 1315.65 402.35 1319 403.25 1330.0623046875 406.3326171875 1337.25 412.95 1344.4876953125 419.5673828125 1348.25 419.2
M 1432.65 491.65
Q 1431.1955078125 492.923828125 1434.4 494.25 1444.31484375 499.01015625 1449.15 505.8 1455.508203125 514.6150390625 1456.75 514.05 1457.5095703125 513.296875 1455.15 508.15 1449.5548828125 498.9767578125 1438.9 492.5 1434.475 490.0875 1432.65 491.65
M 1518 576.1
Q 1513.95 572.05 1511.3 572.65 1509.3 573.05 1512.4 575.6 1521.8 584.2 1524.9 592.25 1529 602.8 1530.55 602.85 1531.7 602.55 1530.8 597 1527.7 586.5 1518 576.1
M 1463.85 520.25
Q 1462.7015625 520.2009765625 1461.75 520.2 1460.8 520.2 1460.15 520.85 1459.5 521.5 1459.5 522.45 1459.5 523.4 1460.15 524.05 1460.7986328125 524.705859375 1462 524.5 1463.2033203125 524.281640625 1464.05 523.4 1464.9484375 522.5193359375 1465 521.4 1465.046875 520.2912109375 1463.85 520.25
M 1360.6 825.65
Q 1396.7740234375 815.1341796875 1415.5 797.65 1384.1537109375 807.9931640625 1360.6 825.65 Z"/>

<path fill="#953902" stroke="none" d="
M 1408.35 576.4
Q 1408.6 577.8 1410.35 577.3 1412.1 576.8 1413.3 575.9 1414.45 575 1414.45 574.2 1414.45 573.4 1413.9 572.45 1413.3 571.5 1411.85 571.6 1410.4 571.7 1409.25 572.55 1408.05 573.4 1408.05 574.2 1408.05 575 1408.35 576.4
M 1405.9 568.3
Q 1404.9 568.3 1403.8 568.45 1402.7 568.55 1401.95 569.3 1401.2 570.05 1402 571 1402.8 571.9 1402.95 572.75 1403.1 573.6 1403.95 573.65 1404.8 573.65 1405.55 572.9 1406.3 572.15 1406.6 570.25 1406.9 568.3 1405.9 568.3
M 1310.8 494
Q 1311.7 493.75 1311.4 493.1 1311.1 492.45 1310.85 491.1 1310.6 489.7 1309.25 489.15 1307.85 488.6 1306.75 489 1305.65 489.35 1305.65 490.55 1305.65 491.75 1306.45 492.55 1307.3 493.4 1308.6 493.8 1309.85 494.2 1310.8 494
M 1302.55 486.2
Q 1303.2 485.55 1303.4 485.15 1303.55 484.75 1302.95 484.2 1302.35 483.65 1301.25 483.05 1300.1 482.45 1299.3 483 1298.45 483.55 1298.2 484.3 1297.9 485.05 1297.55 485.7 1297.15 486.35 1299.55 486.6 1301.9 486.85 1302.55 486.2 Z"/>

<path fill="#EDA02B" stroke="none" d="
M 1504.9 552.8
Q 1480.9572265625 525.7802734375 1472.25 516.2 1457.9625 500.4783203125 1451.55 494.5 1421.9509765625 466.9392578125 1404.9 454.25 1376.378125 433.625 1365.15 424.8 1308.959765625 380.601171875 1280.45 369.2 1262.73828125 360.6955078125 1243.3 357.85 1225.0912109375 352.1966796875 1220.85 364.2
L 1206.7 398.85
Q 1203.0728515625 406.5197265625 1199.9 415.45 1235.7453125 428.1025390625 1260.95 448.6 1295.9109375 472.36796875 1316.3 483.35 1371.1662109375 518.702734375 1373.9 520.55 1403.2310546875 540.17578125 1417.65 555.8 1436.0482421875 575.6525390625 1443.55 590.2 1453.320703125 608.2193359375 1470.45 626.6 1489.0875 644.563671875 1504 673.85 1509.31953125 686.584765625 1518.45 702.05
L 1545.5 755.55
Q 1566.8353515625 746.03359375 1577.3 739.55 1590.23046875 731.6302734375 1598.5 725 1608.529296875 717.8267578125 1607.75 711.7 1607.2005859375 706.9728515625 1603.65 701.5 1579.7423828125 657.378125 1575.35 650.3 1550.6015625 610.3361328125 1538.5 594.85 1511.7595703125 560.50234375 1504.9 552.8
M 1461.75 520.2
Q 1462.7015625 520.2009765625 1463.85 520.25 1465.046875 520.2912109375 1465 521.4 1464.9484375 522.5193359375 1464.05 523.4 1463.2033203125 524.281640625 1462 524.5 1460.7986328125 524.705859375 1460.15 524.05 1459.5 523.4 1459.5 522.45 1459.5 521.5 1460.15 520.85 1460.8 520.2 1461.75 520.2
M 1481.55 562.15
Q 1483.434375 566.059375 1480.45 565.1 1478.298046875 563.496484375 1475.1 560.4 1460.1669921875 544.55078125 1454.85 537.65 1446.771484375 527.251953125 1432.6 519.55 1420.2005859375 511.2869140625 1408.65 498.7 1405.485546875 495.21640625 1402.5 485.1 1398.7212890625 476.3955078125 1406.5 475.15 1413.5837890625 475.1263671875 1429.75 497.75 1431.7884765625 500.5603515625 1448.3 520.7 1454.78359375 528.5666015625 1481.55 562.15
M 1491.3 590.7
Q 1490.76796875 589.8626953125 1490.6 589.15 1491.93046875 584.8076171875 1497.1 590.1 1516.44375 608.709765625 1514.85 613.95 1514.358984375 625.741015625 1506 615.6 1501.6916015625 611.02109375 1497.65 604.75 1496.0966796875 602.345703125 1496 598.65 1495.9724609375 595.2330078125 1492.25 591.8 1491.6734375 591.26796875 1491.3 590.7
M 1511.3 572.65
Q 1513.95 572.05 1518 576.1 1527.7 586.5 1530.8 597 1531.7 602.55 1530.55 602.85 1529 602.8 1524.9 592.25 1521.8 584.2 1512.4 575.6 1509.3 573.05 1511.3 572.65
M 1434.4 494.25
Q 1431.1955078125 492.923828125 1432.65 491.65 1434.475 490.0875 1438.9 492.5 1449.5548828125 498.9767578125 1455.15 508.15 1457.5095703125 513.296875 1456.75 514.05 1455.508203125 514.6150390625 1449.15 505.8 1444.31484375 499.01015625 1434.4 494.25
M 1343.05 412.35
Q 1349.655859375 417.3314453125 1348.25 419.2 1344.4876953125 419.5673828125 1337.25 412.95 1330.0623046875 406.3326171875 1319 403.25 1315.65 402.35 1316.95 400.95 1318.55 399.1 1323.25 400.95 1334.65 406 1343.05 412.35
M 1355.8 427.65
Q 1355.45 426.45 1356.05 425.7 1356.6 425 1357.5 424.85 1358.45 424.75 1359.2 425.3 1359.9 425.85 1360.05 426.8 1360.15 427.75 1360.25 428.9 1360.35 430.1 1359.25 430.15 1358.15 430.25 1357.2 429.55 1356.2 428.75 1355.8 427.65
M 1303.05 396.85
Q 1323.286328125 417.9951171875 1335.5 425 1342.3923828125 428.983984375 1357.6 441.2 1364.488671875 448.0482421875 1358.55 448.2 1356.5197265625 447.890625 1353.05 445.75 1342.0828125 437.16484375 1335 434.1 1314.519140625 425.233984375 1305.8 419.7 1294.1865234375 412.3794921875 1284.75 409.9 1262.8025390625 401.8716796875 1254.3 391.95 1244.9259765625 380.9701171875 1233.55 374.55 1231.0474609375 373.1408203125 1228.45 371.95 1226.4185546875 369.0689453125 1235.3 370.9 1246.230078125 373.333203125 1256.45 375.1 1286.1318359375 381.737890625 1303.05 396.85
M 1363.9 465.45
Q 1364.5373046875 466.4375 1363.65 467.4 1362.75625 468.3560546875 1361.8 468.8 1360.8486328125 469.2486328125 1359.4 467.8 1357.95 466.35 1357.95 464.95 1357.95 463.55 1358.9 462.55 1359.9 461.6 1361.3 461.6 1362.694921875 461.594921875 1362.95 463 1363.265234375 464.46484375 1363.9 465.45
M 1353.4 455.45
Q 1354.6 455.45 1355.45 456.85 1356.3 458.3 1356.3 460.35 1356.3 462.4 1355.45 463.8 1354.6046875 465.25 1352.65 465.25 1350.6859375 465.25 1348.6 463.8 1346.5140625 462.4 1348.5 460.35 1350.4953125 458.3 1351.35 456.85 1352.2 455.45 1353.4 455.45
M 1541.05 612.95
Q 1540.6 613.95 1539.35 614.3 1538.05 614.7 1536.6 614.4 1535.2 614 1534.65 613.15 1534.2 612.25 1534.5 611.45 1534.85 610.6 1535.75 610.35 1536.75 610.05 1537.8 610.45 1538.9 610.9 1540.2 611.45 1541.45 612 1541.05 612.95
M 1553.75 661.5
Q 1568.8501953125 682.2486328125 1569.45 690.65 1571.168359375 708.54765625 1569.4 710.35 1566.05703125 713.7990234375 1561.6 698.9 1557.396484375 689.51953125 1546.1 677.1 1536.8068359375 663.977734375 1535.3 659.7 1530.221875 645.349609375 1519.15 637.1 1514.8166015625 632.80234375 1515.15 630.25 1518.2015625 621.2888671875 1529.2 634.4 1548.2626953125 653.9814453125 1553.75 661.5
M 1505.7 652.6
Q 1506.4 653.3 1506.8 654.05 1507.2 654.8 1507 655.9 1506.8 657 1506.1 657.95 1505.4 658.9 1503.5 657.1 1501.6 655.3 1501.6 654.3 1501.6 653.3 1502.3 652.6 1503 651.9 1504 651.9 1505 651.9 1505.7 652.6
M 1506.75 661.85
Q 1507.25 659.7 1507.9 658.6 1508.55 657.45 1509.5 657.05 1510.45 656.65 1511 658.2 1511.55 659.7 1511.55 661.15 1511.55 662.6 1510.9 663.6 1510.3 664.65 1509.2 665 1508.05 665.3 1507.15 664.65 1506.2 664 1506.75 661.85
M 1518.7 676.4
Q 1517.85 675.55 1518.25 674.65 1518.65 673.7 1519.65 672.9 1520.6 672.05 1521.3 671.75 1522 671.4 1522.85 672.25 1523.75 673.15 1523.75 674.35 1523.75 675.55 1522.85 676.4 1522 677.3 1520.8 677.3 1519.6 677.3 1518.7 676.4
M 1591.8 707.45
Q 1592.1 705.45 1593.25 706.05 1595.2 706.75 1594.75 709.5 1594.7 721.05 1585.45 725.3 1582.15 725.7 1585.6 722.6 1590.55 719.3 1591.8 707.45
M 1597.8 716.75
Q 1598.7 715.65 1599.35 716.65 1599.95 717.6 1599.95 719.25 1599.9 720.85 1599.25 721.45 1598.65 722.1 1597.4 722.65 1596.1 723.15 1595.15 723.05 1594.15 722.9 1594.9 721 1595.6 719.05 1596.2 718.4 1596.85 717.8 1597.8 716.75
M 1579.7 727.5
Q 1580.85 727.4 1581.05 729.75 1581.2 732 1579.65 732.65 1578.05 733.25 1577.1 733.25 1576.15 733.25 1575.5 732.85 1574.85 732.45 1574.9 731.65 1574.95 730.85 1575.55 729.7 1576.15 728.55 1577.35 728.1 1578.5 727.6 1579.7 727.5
M 1247.1 363.85
Q 1248.55 368.75 1244.1 366.15 1239.75 362.7 1233.55 362.6 1230.3 361 1232.9 359.35 1243.9 358.05 1247.1 363.85
M 1225 363.6
Q 1224.95 363.5 1224.95 363.45 1224.2 357.15 1229.15 357.65 1232.35 357.35 1229.15 361.05 1227.15 362.7 1227.6 364 1228.4 366.3 1226.4 365.6 1224.85 364.75 1225 363.6
M 1240.65 412.8
Q 1241.8 412.15 1243.55 411.45 1245.25 410.75 1246.2 411.55 1247.1 412.3 1246.6 414.35 1246.05 416.4 1244.9 417.35 1243.75 418.3 1242.7 418.25 1241.65 418.2 1240 416.7 1238.35 415.15 1238.9 414.3 1239.45 413.45 1240.65 412.8
M 1247.9 418.25
Q 1247.9 417.35 1248.55 415.1 1249.15 412.8 1250.05 413.95 1250.95 415.1 1251.6 416.25 1252.2 417.35 1252.2 418.25 1252.2 419.15 1251.55 419.75 1250.95 420.4 1250.05 420.4 1249.15 420.4 1248.5 419.75 1247.9 419.15 1247.9 418.25 Z"/>

<path fill="#EDBD3C" stroke="none" d="
M 1569.45 690.65
Q 1568.8501953125 682.2486328125 1553.75 661.5 1548.2626953125 653.9814453125 1529.2 634.4 1518.2015625 621.2888671875 1515.15 630.25 1514.8166015625 632.80234375 1519.15 637.1 1530.221875 645.349609375 1535.3 659.7 1536.8068359375 663.977734375 1546.1 677.1 1557.396484375 689.51953125 1561.6 698.9 1566.05703125 713.7990234375 1569.4 710.35 1571.168359375 708.54765625 1569.45 690.65
M 1335.5 425
Q 1323.286328125 417.9951171875 1303.05 396.85 1286.1318359375 381.737890625 1256.45 375.1 1246.230078125 373.333203125 1235.3 370.9 1226.4185546875 369.0689453125 1228.45 371.95 1231.0474609375 373.1408203125 1233.55 374.55 1244.9259765625 380.9701171875 1254.3 391.95 1262.8025390625 401.8716796875 1284.75 409.9 1294.1865234375 412.3794921875 1305.8 419.7 1314.519140625 425.233984375 1335 434.1 1342.0828125 437.16484375 1353.05 445.75 1356.5197265625 447.890625 1358.55 448.2 1364.488671875 448.0482421875 1357.6 441.2 1342.3923828125 428.983984375 1335.5 425
M 1490.6 589.15
Q 1490.76796875 589.8626953125 1491.3 590.7 1491.6734375 591.26796875 1492.25 591.8 1495.9724609375 595.2330078125 1496 598.65 1496.0966796875 602.345703125 1497.65 604.75 1501.6916015625 611.02109375 1506 615.6 1514.358984375 625.741015625 1514.85 613.95 1516.44375 608.709765625 1497.1 590.1 1491.93046875 584.8076171875 1490.6 589.15
M 1480.45 565.1
Q 1483.434375 566.059375 1481.55 562.15 1454.78359375 528.5666015625 1448.3 520.7 1431.7884765625 500.5603515625 1429.75 497.75 1413.5837890625 475.1263671875 1406.5 475.15 1398.7212890625 476.3955078125 1402.5 485.1 1405.485546875 495.21640625 1408.65 498.7 1420.2005859375 511.2869140625 1432.6 519.55 1446.771484375 527.251953125 1454.85 537.65 1460.1669921875 544.55078125 1475.1 560.4 1478.298046875 563.496484375 1480.45 565.1 Z"/>

<path fill="#8E5F00" stroke="none" d="
M 1206.65 467.8
Q 1206.5505859375 467.8994140625 1206.45 468 1205.75 468.7 1205.75 469.65 1205.75 470.6 1206.45 471.3 1207.15 472 1208.1 472 1209.05 472 1209.75 471.3 1210.298046875 470.751953125 1210.4 470.05 1210.45 469.85625 1210.45 469.65 1210.45 468.7 1209.75 468 1209.05 467.3 1208.1 467.3 1207.286328125 467.3 1206.65 467.8
M 1217.65 468.4
Q 1217.65 467.3 1216.85 466.5 1216.05 465.7 1214.95 465.7 1213.85 465.7 1213.05 466.5 1212.25 467.3 1212.25 468.4 1212.248828125 469.5056640625 1213.5 470.55 1214.803125 471.5828125 1215.95 471.6 1217.0966796875 471.6169921875 1217.35 470.55 1217.6509765625 469.494140625 1217.65 468.4
M 1219.9 466.45
Q 1219.5 467.45 1219.5 468.85 1219.5 470.25 1219.9 471.25 1220.3 472.25 1220.9 472.25 1221.49921875 472.2455078125 1222.8 470.5 1224.151953125 468.7630859375 1223.55 467.85 1222.9478515625 466.93671875 1222.2 466.2 1221.5005859375 465.454296875 1220.9 465.45 1220.3 465.45 1219.9 466.45 Z"/>

<path fill="#745400" stroke="none" d="
M 1487.85 730
Q 1485.4478515625 728.800390625 1484.45 729.8 1484.3431640625 729.9068359375 1484.25 730 1483.45 730.9548828125 1483.45 732.25 1483.45 733.7 1484.45 734.7 1485.45 735.7 1486.9 735.7 1487.65546875 735.7 1488.3 735.4 1488.8677734375 735.18203125 1490.25 734.85 1491.639453125 734.56171875 1491.1 732.75 1490.6025390625 730.99375 1490.45 731.1 1490.3037109375 731.2509765625 1487.85 730
M 1477.8 724.7
Q 1476.99453125 725.2044921875 1477.5 726.65 1478.0158203125 728.136328125 1478.8 728.6 1479.633984375 729.0634765625 1480.35 728.3 1481.0552734375 727.5953125 1481.85 727.1 1482.0466796875 726.984375 1482.2 726.85 1482.7 726.4380859375 1482.7 725.9 1482.7 725.2 1481.85 724.7 1481.278125 724.342578125 1480.5 724.25 1480.1919921875 724.2 1479.85 724.2 1478.65 724.2 1477.8 724.7
M 1005.9 926.35
Q 1004.7494140625 927.5515625 1004.65 929.45 1004.6017578125 931.394921875 1005.4 933.6 1006.2482421875 935.8548828125 1008.35 934.55 1010.5005859375 933.2982421875 1011.65 932.1 1012.85 930.95625 1012.85 929.05 1012.85 927.18125 1011.65 925.35 1010.5 923.58125 1008.8 924.4 1007.1 925.20625 1005.9 926.35
M 1016.25 927.95
Q 1016.85 927.95 1017.3 927.5 1017.75 927.05 1017.75 926.45 1017.75 925.85 1017.3 925.4 1016.85 924.95 1016.25 924.95 1015.65 924.95 1015.2 925.4 1014.75 925.85 1014.75 926.45 1014.75 927.05 1015.2 927.5 1015.65 927.95 1016.25 927.95
M 1043.1 831.7
Q 1043.1 830.75 1042.4 830.05 1041.75 829.4 1040.8 829.4 1039.85 829.4 1039.15 830.05 1038.5 830.75 1038.5 831.7 1038.49921875 832.6458984375 1039.7 833.95 1040.901953125 835.3119140625 1041.8 835.25 1042.6978515625 835.187890625 1042.9 833.9 1043.1005859375 832.65390625 1043.1 831.7
M 1093.75 882.55
Q 1093.75 883.65 1094.55 884.45 1095.35 885.25 1096.45 885.25 1097.55 885.25 1098.35 884.45 1099.15 883.65 1099.15 882.55 1099.15234375 881.45078125 1098.05 880.55 1096.94296875 879.64765625 1095.7 879.6 1094.45703125 879.55234375 1094.1 880.5 1093.74765625 881.44921875 1093.75 882.55
M 1087.9 880
Q 1087.5986328125 878.053125 1086.75 877.2 1085.95 876.4 1084.8 876.4 1083.65 876.4 1082.8 877.2 1082 878.05 1082 879.2 1082 880.35 1082.8 881.15 1083.651171875 881.9966796875 1084.95 882.4 1086.29609375 882.8595703125 1087.25 882.4 1088.2537109375 881.990234375 1087.9 880
M 1291.25 832.75
Q 1291.25 831.9 1290.65 831.3 1290.1 830.75 1289.25 830.75 1288.396875 830.74609375 1288.15 831.4 1287.9091796875 832.06171875 1288.25 833 1288.590625 833.93828125 1288.5 834.35 1288.4029296875 834.75390625 1289.25 834.75 1290.1 834.75 1290.65 834.15 1291.25 833.6 1291.25 832.75
M 1280.3 825.5
Q 1279.55 825.5 1279 826 1278.5 826.55 1278.5 827.3 1278.5 828.05 1279 828.55 1279.55 829.1 1280.3 829.1 1281.046875 829.1 1281.1 828.55 1281.159375 828.05 1281.35 827.3 1281.540625 826.55 1281.3 826 1281.053125 825.5 1280.3 825.5
M 1270.2 827.05
Q 1270.8533203125 828.1 1272.3 828.1 1273.75 828.1 1274.8 827.05 1275.85 826 1275.85 824.55 1275.85 823.1 1274.8 822.05 1273.75 821 1272.3 821 1270.846484375 821 1269.9 822.05 1268.96015625 823.1 1269.25 824.55 1269.5396484375 826 1270.2 827.05
M 1260.15 801.35
Q 1259.7482421875 801.552734375 1259.25 803.6 1258.7515625 805.6470703125 1259.65 806.55 1260.5990234375 807.4982421875 1262.05 808.4 1263.501171875 809.3068359375 1264.35 808.05 1265.248828125 806.84296875 1265.15 804.95 1265.050390625 803.05234375 1264.1 802.1 1263.2 801.2 1261.9 801.2 1260.600390625 801.1990234375 1260.15 801.35
M 1274.6 802.5
Q 1273.244140625 801.4970703125 1272.3 801.5 1271.35 801.5 1270.65 802.15 1270 802.85 1270 803.8 1270 804.75 1270.65 805.4 1271.35 806.1 1272.3 806.1 1273.2556640625 806.1029296875 1274.2 805.55 1275.182421875 805.0412109375 1275.6 804.3 1276.0173828125 803.5587890625 1274.6 802.5
M 1168.75 601.5
Q 1168.75 600.55 1168.1 599.9 1167.45 599.25 1166.5 599.25 1165.55 599.25 1165 600 1164.5 600.8 1164.5 601.75 1164.5 602.7 1165 603.2 1165.55 603.75 1166.5 603.75 1167.45 603.75 1168.1 603.1 1168.75 602.45 1168.75 601.5
M 1111.5 784.1
Q 1111.591015625 784.808984375 1112.35 785.15 1113.1029296875 785.496875 1113.9 785.5 1114.7 785.5 1115.25 784.95 1115.8 784.4 1115.8 783.6 1115.8 782.8 1115.25 782.25 1114.7 781.7 1113.9 781.7 1113.096875 781.7029296875 1112.25 782.55 1111.4087890625 783.3908203125 1111.5 784.1
M 1097.8 788.4
Q 1097.1623046875 789.858203125 1097 791.3 1096.8375 792.7416015625 1097.65 793.65 1098.5041015625 794.602734375 1100.05 794.6 1101.6 794.6 1102.7 793.45 1103.85 792.35 1103.85 790.8 1103.85 789.25 1102.7 788.1 1101.6 787 1100.05 787 1098.495703125 786.9970703125 1097.8 788.4
M 1102.95 777.45
Q 1103.5 776.95 1103.5 776.25 1103.5 775.55 1102.95 775 1102.45 774.5 1101.75 774.5 1101.05 774.5 1100.5 775 1100 775.55 1100 776.25 1100 776.95 1100.5 777.45 1101.05 778 1101.75 778 1102.45 778 1102.95 777.45
M 1161.05 593.9
Q 1161.6099609375 591.9865234375 1160.45 591.55 1159.28984375 591.1134765625 1157.85 591.4 1156.4533203125 591.6955078125 1155.6 592.55 1154.75 593.4 1154.75 594.6 1154.75 595.8 1155.6 596.65 1156.45 597.5 1157.65 597.5 1158.85 597.5 1159.7 596.65 1160.546484375 595.8044921875 1161.05 593.9
M 1157.85 579.9
Q 1159.336328125 580.842578125 1161.1 580.9 1162.8544921875 581.00234375 1163.7 580.15 1164.55 579.3 1164.55 578.1 1164.55 576.9 1163.7 576.05 1162.85 575.2017578125 1161.65 575 1160.451171875 574.7947265625 1159.6 575.05 1158.744140625 575.3025390625 1157.55 577.1 1156.3611328125 578.9541015625 1157.85 579.9
M 1486.2 739.05
Q 1483.5658203125 739.6400390625 1483.15 740.35 1482.7240234375 741.059765625 1482.2 743.5 1481.6865234375 745.9966796875 1483.4 746.45 1485.1076171875 746.8998046875 1486.95 746.6 1488.8474609375 746.35 1490 745.2 1491.15 744.05 1491.15 742.4 1491.15 740.75 1490 739.6 1488.8443359375 738.4533203125 1486.2 739.05
M 1315.75 649
Q 1315.75 650.05 1316.45 650.75 1317.2 651.5 1318.25 651.5 1319.3 651.5 1320 650.75 1320.75 650.05 1320.75 649 1320.75 647.95 1320 647.2 1319.3 646.5 1318.25 646.5 1317.2 646.5 1316.45 647.2 1315.75 647.95 1315.75 649
M 1329.7 636.7
Q 1328.7 636.7 1327.95 637.4 1327.25 638.15 1327.25 639.15 1327.25 640.15 1327.95 640.85 1328.7 641.6 1329.7 641.6 1330.7 641.6 1331.4 640.85 1332.15 640.15 1332.15 639.15 1332.15 638.15 1331.4 637.4 1330.7 636.7 1329.7 636.7
M 1318.9 636.7
Q 1318.2 636.7 1317.7 637.85 1317.25 639 1317.25 640.6 1317.25 642.2 1317.7 643.35 1318.2 644.5 1318.9 644.5 1319.60546875 644.497265625 1321.85 642.45 1324.1333984375 640.408203125 1323.05 639.35 1321.96640625 638.291796875 1320.75 637.5 1319.5943359375 636.702734375 1318.9 636.7 Z"/>

<path fill="#FFDA4C" stroke="none" d="
M 1477.5 726.65
Q 1476.99453125 725.2044921875 1477.8 724.7 1478.65 724.2 1479.85 724.2 1480.1919921875 724.2 1480.5 724.25 1407.085546875 611.1755859375 1380.25 588.45 1337.5599609375 540.202734375 1289.95 508.85 1270.3935546875 492.4466796875 1241.4 482.55 1224.3041015625 477.9052734375 1210.4 470.05 1210.298046875 470.751953125 1209.75 471.3 1209.05 472 1208.1 472 1207.15 472 1206.45 471.3 1205.75 470.6 1205.75 469.65 1205.75 468.7 1206.45 468 1206.5505859375 467.8994140625 1206.65 467.8 1196.816796875 461.7322265625 1188.7 453.9 1181.336328125 475.632421875 1172 489.25 1151.204296875 524.840234375 1141.8 554.55 1133.96875 579.276953125 1108.8 654.3 1107.4037109375 658.5458984375 1096.05 689.2 1082.45546875 725.847265625 1045.4 802.6 1041.14453125 811.4974609375 1012.8 875.05 1007.6015625 886.719921875 969.1 966.2 966.0220703125 980.7609375 974.85 979.05 975.49296875 978.949609375 976.15 978.75
L 1081.95 930.95 1184.6 888.7
Q 1192.537109375 886.0939453125 1200.3 885.35 1215.3744140625 885.0099609375 1225 880.1 1229.073828125 878.3962890625 1232.95 876.5 1242.312109375 871.99453125 1251.9 870.55 1266.0529296875 868.4884765625 1286.2 860.4 1305.07578125 852.8619140625 1372.55 828.4 1413.0169921875 814.130078125 1445.3 794.45 1464.0994140625 782.980859375 1499.75 770.95 1507.7587890625 761.5779296875 1488.3 735.4 1487.65546875 735.7 1486.9 735.7 1485.45 735.7 1484.45 734.7 1483.45 733.7 1483.45 732.25 1483.45 730.9548828125 1484.25 730 1483.2197265625 728.4318359375 1482.2 726.85 1482.0466796875 726.984375 1481.85 727.1 1481.0552734375 727.5953125 1480.35 728.3 1479.633984375 729.0634765625 1478.8 728.6 1478.0158203125 728.136328125 1477.5 726.65
M 1338.2 590.6
Q 1341.85 588.45 1342.95 589.1 1344.1 589.75 1344 591.6 1344 593.5 1342.8 595.55 1341.65 597.55 1340 598.55 1338.45 599.55 1337.3 598.9 1336.2 598.25 1336.05 596.45 1335.9 594.65 1335.25 593.7 1334.55 592.7 1338.2 590.6
M 1408.85 680.1
Q 1408.55 672.8 1414.75 669.6 1420.35 672.05 1421.8 679.05 1423.55 694.2 1413.05 685.7 1410.95 683.4 1408.85 680.1
M 1396.7 649.9
Q 1401.8 655.7 1401.45 658 1399.25 661.9 1393.05 656.05 1375.7 641.1 1372.65 639.95 1365 637 1359.4 627.9 1349.5 618.05 1337.35 612.25 1334.25 601.05 1348.4 602.9 1349.95 603.05 1351.75 598.1 1362.25 590.35 1363.45 604.7 1365.5 616.1 1378.35 629.2 1381.25 632.2 1396.7 649.9
M 1421.8 690.9
Q 1421.9 690.9 1422.05 690.9 1421.9 690.9 1421.8 690.9
M 1317.7 637.85
Q 1318.2 636.7 1318.9 636.7 1319.5943359375 636.702734375 1320.75 637.5 1321.96640625 638.291796875 1323.05 639.35 1324.1333984375 640.408203125 1321.85 642.45 1319.60546875 644.497265625 1318.9 644.5 1318.2 644.5 1317.7 643.35 1317.25 642.2 1317.25 640.6 1317.25 639 1317.7 637.85
M 1327.95 637.4
Q 1328.7 636.7 1329.7 636.7 1330.7 636.7 1331.4 637.4 1332.15 638.15 1332.15 639.15 1332.15 640.15 1331.4 640.85 1330.7 641.6 1329.7 641.6 1328.7 641.6 1327.95 640.85 1327.25 640.15 1327.25 639.15 1327.25 638.15 1327.95 637.4
M 1316.45 650.75
Q 1315.75 650.05 1315.75 649 1315.75 647.95 1316.45 647.2 1317.2 646.5 1318.25 646.5 1319.3 646.5 1320 647.2 1320.75 647.95 1320.75 649 1320.75 650.05 1320 650.75 1319.3 651.5 1318.25 651.5 1317.2 651.5 1316.45 650.75
M 1442.2 741.35
Q 1444.35 714.75 1431.8 702.3 1426.9 697 1429.25 695.35 1432.5 691.8 1439.9 700.85 1455.6 725.75 1460.7 734.45 1474.7 758.4 1468.05 762.9 1460.25 770.4 1448.7 761.75 1437.9 753.05 1442.2 741.35
M 1483.15 740.35
Q 1483.5658203125 739.6400390625 1486.2 739.05 1488.8443359375 738.4533203125 1490 739.6 1491.15 740.75 1491.15 742.4 1491.15 744.05 1490 745.2 1488.8474609375 746.35 1486.95 746.6 1485.1076171875 746.8998046875 1483.4 746.45 1481.6865234375 745.9966796875 1482.2 743.5 1482.7240234375 741.059765625 1483.15 740.35
M 1415.5 797.65
Q 1396.7740234375 815.1341796875 1360.6 825.65 1384.1537109375 807.9931640625 1415.5 797.65
M 1219.5 488.45
Q 1223.85 489 1223.25 492.5 1223.75 497.55 1221.5 500.1 1218.3 503.55 1215.55 500.1 1209.05 493.7 1204.7 499.75 1199.4 508 1193.85 500.85 1192.35 498.35 1191 500.85 1187.2 505.15 1182.95 504.05 1173.3 498.4 1183.15 482.35 1186.65 473.3 1198.7 474.35 1205.05 475.85 1210.1 481.55 1214.1 487.3 1219.5 488.45
M 1182.75 538.5
Q 1185.28984375 537.0990234375 1182 542.5 1173.08125 549.0296875 1168.25 542.1 1164.996484375 534.5076171875 1168.05 525.4 1181.471484375 502.40859375 1176.55 517.85 1163.8306640625 548.5435546875 1182.75 538.5
M 1161.1 580.9
Q 1159.336328125 580.842578125 1157.85 579.9 1156.3611328125 578.9541015625 1157.55 577.1 1158.744140625 575.3025390625 1159.6 575.05 1160.451171875 574.7947265625 1161.65 575 1162.85 575.2017578125 1163.7 576.05 1164.55 576.9 1164.55 578.1 1164.55 579.3 1163.7 580.15 1162.8544921875 581.00234375 1161.1 580.9
M 1160.45 591.55
Q 1161.6099609375 591.9865234375 1161.05 593.9 1160.546484375 595.8044921875 1159.7 596.65 1158.85 597.5 1157.65 597.5 1156.45 597.5 1155.6 596.65 1154.75 595.8 1154.75 594.6 1154.75 593.4 1155.6 592.55 1156.4533203125 591.6955078125 1157.85 591.4 1159.28984375 591.1134765625 1160.45 591.55
M 1081 764.05
L 1072.4 786.15
Q 1066.75625 793.0072265625 1068.8 784.6
L 1079.55 759.5
Q 1082.9841796875 755.026953125 1081 764.05
M 1103.5 776.25
Q 1103.5 776.95 1102.95 777.45 1102.45 778 1101.75 778 1101.05 778 1100.5 777.45 1100 776.95 1100 776.25 1100 775.55 1100.5 775 1101.05 774.5 1101.75 774.5 1102.45 774.5 1102.95 775 1103.5 775.55 1103.5 776.25
M 1097 791.3
Q 1097.1623046875 789.858203125 1097.8 788.4 1098.495703125 786.9970703125 1100.05 787 1101.6 787 1102.7 788.1 1103.85 789.25 1103.85 790.8 1103.85 792.35 1102.7 793.45 1101.6 794.6 1100.05 794.6 1098.5041015625 794.602734375 1097.65 793.65 1096.8375 792.7416015625 1097 791.3
M 1112.35 785.15
Q 1111.591015625 784.808984375 1111.5 784.1 1111.4087890625 783.3908203125 1112.25 782.55 1113.096875 781.7029296875 1113.9 781.7 1114.7 781.7 1115.25 782.25 1115.8 782.8 1115.8 783.6 1115.8 784.4 1115.25 784.95 1114.7 785.5 1113.9 785.5 1113.1029296875 785.496875 1112.35 785.15
M 1220.15 679.8
Q 1221.35 677.75 1222.5 676 1223.75 678.15 1222.55 681.5 1217.6 695.05 1226.55 701.45 1230.75 704.6 1237.75 699.7 1240.55 697.55 1242.75 698.95 1248 705.25 1254.85 700.85 1255.75 701.75 1253.25 704.05 1246.15 706.45 1242.2 702.85 1239.6 702.15 1237.2 704.35 1228.9 709.5 1221.15 702.3 1214.45 692.55 1220.15 679.8
M 1168.1 599.9
Q 1168.75 600.55 1168.75 601.5 1168.75 602.45 1168.1 603.1 1167.45 603.75 1166.5 603.75 1165.55 603.75 1165 603.2 1164.5 602.7 1164.5 601.75 1164.5 600.8 1165 600 1165.55 599.25 1166.5 599.25 1167.45 599.25 1168.1 599.9
M 1212.45 707.3
Q 1213.35 708.2 1213.35 709.4 1213.35 710.6 1212.5 711.55 1211.6 712.45 1210.4 712.5 1209.2 712.55 1207.7 711.7 1206.2 710.8 1206.45 709.55 1206.7 708.3 1207.95 707.4 1209.2 706.45 1210.4 706.45 1211.6 706.45 1212.45 707.3
M 1189.4 740.95
Q 1192.863671875 737.0615234375 1200 734.75 1185.354296875 753.5943359375 1195.25 756.75 1199.2833984375 758.5251953125 1206.25 751.5 1199.601953125 762.4900390625 1193.85 761.25 1185.783984375 758.2798828125 1185.15 750.55 1185.4453125 746.775 1189.4 740.95
M 1219.8 710.05
Q 1219.8 710.45 1218.8 711.15 1217.8 711.8 1216.9 711.8 1216 711.8 1215.75 711.15 1215.5 710.45 1215.5 710.05 1215.5 709.65 1216.1 709.35 1216.75 709.05 1217.65 709.05 1218.55 709.05 1219.15 709.35 1219.8 709.65 1219.8 710.05
M 1226.75 714.25
Q 1227.5 713.95 1228.5 713.95 1229.5 713.95 1230.2 714.25 1230.95 714.55 1230.95 715 1230.95 715.45 1230.8 716.1 1230.65 716.75 1229.35 716.55 1228.05 716.35 1227.05 715.9 1226.05 715.45 1226.05 715 1226.05 714.55 1226.75 714.25
M 1229.35 721.75
Q 1229.95 722.25 1229.85 723.9 1229.75 725.55 1229.25 726.95 1228.7 728.35 1228.15 728.35 1227.6 728.35 1227.2 727.3 1226.85 726.25 1226.85 724.8 1226.85 723.35 1227.2 722.3 1227.6 721.25 1228.15 721.25 1228.7 721.25 1229.35 721.75
M 1272.3 801.5
Q 1273.244140625 801.4970703125 1274.6 802.5 1276.0173828125 803.5587890625 1275.6 804.3 1275.182421875 805.0412109375 1274.2 805.55 1273.2556640625 806.1029296875 1272.3 806.1 1271.35 806.1 1270.65 805.4 1270 804.75 1270 803.8 1270 802.85 1270.65 802.15 1271.35 801.5 1272.3 801.5
M 1259.25 803.6
Q 1259.7482421875 801.552734375 1260.15 801.35 1260.600390625 801.1990234375 1261.9 801.2 1263.2 801.2 1264.1 802.1 1265.050390625 803.05234375 1265.15 804.95 1265.248828125 806.84296875 1264.35 808.05 1263.501171875 809.3068359375 1262.05 808.4 1260.5990234375 807.4982421875 1259.65 806.55 1258.7515625 805.6470703125 1259.25 803.6
M 1272.3 828.1
Q 1270.8533203125 828.1 1270.2 827.05 1269.5396484375 826 1269.25 824.55 1268.96015625 823.1 1269.9 822.05 1270.846484375 821 1272.3 821 1273.75 821 1274.8 822.05 1275.85 823.1 1275.85 824.55 1275.85 826 1274.8 827.05 1273.75 828.1 1272.3 828.1
M 1279 826
Q 1279.55 825.5 1280.3 825.5 1281.053125 825.5 1281.3 826 1281.540625 826.55 1281.35 827.3 1281.159375 828.05 1281.1 828.55 1281.046875 829.1 1280.3 829.1 1279.55 829.1 1279 828.55 1278.5 828.05 1278.5 827.3 1278.5 826.55 1279 826
M 1290.65 831.3
Q 1291.25 831.9 1291.25 832.75 1291.25 833.6 1290.65 834.15 1290.1 834.75 1289.25 834.75 1288.4029296875 834.75390625 1288.5 834.35 1288.590625 833.93828125 1288.25 833 1287.9091796875 832.06171875 1288.15 831.4 1288.396875 830.74609375 1289.25 830.75 1290.1 830.75 1290.65 831.3
M 1054.75 840.2
Q 1063.572265625 820.7822265625 1080.75 812.9 1059.980859375 833.195703125 1056.25 848.05 1050.67578125 854.2681640625 1054.75 840.2
M 1086.75 877.2
Q 1087.5986328125 878.053125 1087.9 880 1088.2537109375 881.990234375 1087.25 882.4 1086.29609375 882.8595703125 1084.95 882.4 1083.651171875 881.9966796875 1082.8 881.15 1082 880.35 1082 879.2 1082 878.05 1082.8 877.2 1083.65 876.4 1084.8 876.4 1085.95 876.4 1086.75 877.2
M 1094.55 884.45
Q 1093.75 883.65 1093.75 882.55 1093.74765625 881.44921875 1094.1 880.5 1094.45703125 879.55234375 1095.7 879.6 1096.94296875 879.64765625 1098.05 880.55 1099.15234375 881.45078125 1099.15 882.55 1099.15 883.65 1098.35 884.45 1097.55 885.25 1096.45 885.25 1095.35 885.25 1094.55 884.45
M 1042.4 830.05
Q 1043.1 830.75 1043.1 831.7 1043.1005859375 832.65390625 1042.9 833.9 1042.6978515625 835.187890625 1041.8 835.25 1040.901953125 835.3119140625 1039.7 833.95 1038.49921875 832.6458984375 1038.5 831.7 1038.5 830.75 1039.15 830.05 1039.85 829.4 1040.8 829.4 1041.75 829.4 1042.4 830.05
M 1017.3 927.5
Q 1016.85 927.95 1016.25 927.95 1015.65 927.95 1015.2 927.5 1014.75 927.05 1014.75 926.45 1014.75 925.85 1015.2 925.4 1015.65 924.95 1016.25 924.95 1016.85 924.95 1017.3 925.4 1017.75 925.85 1017.75 926.45 1017.75 927.05 1017.3 927.5
M 1050.4 924.35
Q 1044.85 925.55 1041.1 921.55 1033.05 913.7 1054.8 892.85 1056.9 891.55 1054.8 894.65 1041.35 912.3 1043.95 917 1046.35 921.8 1054.35 919.9 1058.8 918.85 1062.05 913.55 1066.25 910 1063.55 916 1057.9 923.7 1050.4 924.35
M 1004.65 929.45
Q 1004.7494140625 927.5515625 1005.9 926.35 1007.1 925.20625 1008.8 924.4 1010.5 923.58125 1011.65 925.35 1012.85 927.18125 1012.85 929.05 1012.85 930.95625 1011.65 932.1 1010.5005859375 933.2982421875 1008.35 934.55 1006.2482421875 935.8548828125 1005.4 933.6 1004.6017578125 931.394921875 1004.65 929.45 Z"/>

<path fill="#2A1D00" stroke="none" d="
M 1041.1 921.55
Q 1044.85 925.55 1050.4 924.35 1057.9 923.7 1063.55 916 1066.25 910 1062.05 913.55 1058.8 918.85 1054.35 919.9 1046.35 921.8 1043.95 917 1041.35 912.3 1054.8 894.65 1056.9 891.55 1054.8 892.85 1033.05 913.7 1041.1 921.55
M 1080.75 812.9
Q 1063.572265625 820.7822265625 1054.75 840.2 1050.67578125 854.2681640625 1056.25 848.05 1059.980859375 833.195703125 1080.75 812.9
M 1200 734.75
Q 1192.863671875 737.0615234375 1189.4 740.95 1185.4453125 746.775 1185.15 750.55 1185.783984375 758.2798828125 1193.85 761.25 1199.601953125 762.4900390625 1206.25 751.5 1199.2833984375 758.5251953125 1195.25 756.75 1185.354296875 753.5943359375 1200 734.75
M 1072.4 786.15
L 1081 764.05
Q 1082.9841796875 755.026953125 1079.55 759.5
L 1068.8 784.6
Q 1066.75625 793.0072265625 1072.4 786.15
M 1182 542.5
Q 1185.28984375 537.0990234375 1182.75 538.5 1163.8306640625 548.5435546875 1176.55 517.85 1181.471484375 502.40859375 1168.05 525.4 1164.996484375 534.5076171875 1168.25 542.1 1173.08125 549.0296875 1182 542.5 Z"/>

<path fill="#896F00" stroke="none" d="
M 1229.85 723.9
Q 1229.95 722.25 1229.35 721.75 1228.7 721.25 1228.15 721.25 1227.6 721.25 1227.2 722.3 1226.85 723.35 1226.85 724.8 1226.85 726.25 1227.2 727.3 1227.6 728.35 1228.15 728.35 1228.7 728.35 1229.25 726.95 1229.75 725.55 1229.85 723.9
M 1228.5 713.95
Q 1227.5 713.95 1226.75 714.25 1226.05 714.55 1226.05 715 1226.05 715.45 1227.05 715.9 1228.05 716.35 1229.35 716.55 1230.65 716.75 1230.8 716.1 1230.95 715.45 1230.95 715 1230.95 714.55 1230.2 714.25 1229.5 713.95 1228.5 713.95
M 1218.8 711.15
Q 1219.8 710.45 1219.8 710.05 1219.8 709.65 1219.15 709.35 1218.55 709.05 1217.65 709.05 1216.75 709.05 1216.1 709.35 1215.5 709.65 1215.5 710.05 1215.5 710.45 1215.75 711.15 1216 711.8 1216.9 711.8 1217.8 711.8 1218.8 711.15 Z"/>

<path fill="#412302" stroke="none" d="
M 1213.35 709.4
Q 1213.35 708.2 1212.45 707.3 1211.6 706.45 1210.4 706.45 1209.2 706.45 1207.95 707.4 1206.7 708.3 1206.45 709.55 1206.2 710.8 1207.7 711.7 1209.2 712.55 1210.4 712.5 1211.6 712.45 1212.5 711.55 1213.35 710.6 1213.35 709.4 Z"/>

<path fill="#381805" stroke="none" d="
M 1222.5 676
Q 1221.35 677.75 1220.15 679.8 1214.45 692.55 1221.15 702.3 1228.9 709.5 1237.2 704.35 1239.6 702.15 1242.2 702.85 1246.15 706.45 1253.25 704.05 1255.75 701.75 1254.85 700.85 1248 705.25 1242.75 698.95 1240.55 697.55 1237.75 699.7 1230.75 704.6 1226.55 701.45 1217.6 695.05 1222.55 681.5 1223.75 678.15 1222.5 676 Z"/>

<path fill="#FFF072" stroke="none" d="
M 1223.25 492.5
Q 1223.85 489 1219.5 488.45 1214.1 487.3 1210.1 481.55 1205.05 475.85 1198.7 474.35 1186.65 473.3 1183.15 482.35 1173.3 498.4 1182.95 504.05 1187.2 505.15 1191 500.85 1192.35 498.35 1193.85 500.85 1199.4 508 1204.7 499.75 1209.05 493.7 1215.55 500.1 1218.3 503.55 1221.5 500.1 1223.75 497.55 1223.25 492.5
M 1431.8 702.3
Q 1444.35 714.75 1442.2 741.35 1437.9 753.05 1448.7 761.75 1460.25 770.4 1468.05 762.9 1474.7 758.4 1460.7 734.45 1455.6 725.75 1439.9 700.85 1432.5 691.8 1429.25 695.35 1426.9 697 1431.8 702.3
M 1401.45 658
Q 1401.8 655.7 1396.7 649.9 1381.25 632.2 1378.35 629.2 1365.5 616.1 1363.45 604.7 1362.25 590.35 1351.75 598.1 1349.95 603.05 1348.4 602.9 1334.25 601.05 1337.35 612.25 1349.5 618.05 1359.4 627.9 1365 637 1372.65 639.95 1375.7 641.1 1393.05 656.05 1399.25 661.9 1401.45 658
M 1414.75 669.6
Q 1408.55 672.8 1408.85 680.1 1410.95 683.4 1413.05 685.7 1423.55 694.2 1421.8 679.05 1420.35 672.05 1414.75 669.6
M 1342.95 589.1
Q 1341.85 588.45 1338.2 590.6 1334.55 592.7 1335.25 593.7 1335.9 594.65 1336.05 596.45 1336.2 598.25 1337.3 598.9 1338.45 599.55 1340 598.55 1341.65 597.55 1342.8 595.55 1344 593.5 1344 591.6 1344.1 589.75 1342.95 589.1 Z"/>

<path fill="#F89933" stroke="none" d="
M 1361.15 548.4
Q 1331.6998046875 524.344140625 1321.9 517.85 1288.979296875 495.984765625 1268.7 481.45 1228.0775390625 452.311328125 1190.85 447.3 1190.7111328125 447.749609375 1190.55 448.2 1189.65625 451.134765625 1188.7 453.9 1196.816796875 461.7322265625 1206.65 467.8 1207.286328125 467.3 1208.1 467.3 1209.05 467.3 1209.75 468 1210.45 468.7 1210.45 469.65 1210.45 469.85625 1210.4 470.05 1224.3041015625 477.9052734375 1241.4 482.55 1270.3935546875 492.4466796875 1289.95 508.85 1337.5599609375 540.202734375 1380.25 588.45 1407.085546875 611.1755859375 1480.5 724.25 1481.278125 724.342578125 1481.85 724.7 1482.7 725.2 1482.7 725.9 1482.7 726.4380859375 1482.2 726.85 1483.2197265625 728.4318359375 1484.25 730 1484.3431640625 729.9068359375 1484.45 729.8 1485.4478515625 728.800390625 1487.85 730 1490.3037109375 731.2509765625 1490.45 731.1 1490.6025390625 730.99375 1491.1 732.75 1491.639453125 734.56171875 1490.25 734.85 1488.8677734375 735.18203125 1488.3 735.4 1507.7587890625 761.5779296875 1499.75 770.95 1508.7337890625 767.9296875 1518.75 764.85 1517.2791015625 760.670703125 1514.85 755.45 1514.307421875 754.3421875 1513.7 753.15 1513.3283203125 752.336328125 1512.9 751.5 1504.800390625 735.2904296875 1488.55 710.6 1473.295703125 684.5779296875 1457.25 661.65 1406.6458984375 586.29140625 1361.15 548.4
M 1219.5 468.85
Q 1219.5 467.45 1219.9 466.45 1220.3 465.45 1220.9 465.45 1221.5005859375 465.454296875 1222.2 466.2 1222.9478515625 466.93671875 1223.55 467.85 1224.151953125 468.7630859375 1222.8 470.5 1221.49921875 472.2455078125 1220.9 472.25 1220.3 472.25 1219.9 471.25 1219.5 470.25 1219.5 468.85
M 1216.85 466.5
Q 1217.65 467.3 1217.65 468.4 1217.6509765625 469.494140625 1217.35 470.55 1217.0966796875 471.6169921875 1215.95 471.6 1214.803125 471.5828125 1213.5 470.55 1212.248828125 469.5056640625 1212.25 468.4 1212.25 467.3 1213.05 466.5 1213.85 465.7 1214.95 465.7 1216.05 465.7 1216.85 466.5 Z"/>
</g>

<g id="Layer0_1_FILL">
<path fill="#440701" stroke="none" d="
M 1299.5 545.1
Q 1299.3 544.95 1299.2 544.8 1286.55 529.75 1268.85 519.75 1248 507.25 1194.4 531.25 1187.45 534.4 1182.3 548.2 1167.95 578.7 1184.7 615.65 1192.25 628.8 1200.55 637.7 1221.35 665.4 1263.1 648.75 1282.45 641.55 1295.4 624.65 1322.95 588.2 1310.05 560.15 1305.3 552.1 1299.5 545.1
M 1297.45 548.6
Q 1297.3 548.45 1297.2 548.45
L 1297.3 548.75 1297.5 548.7
Q 1302.4 554.8 1306.6 561.75 1318.7 588.25 1292.75 622.7 1290.35 625.65 1287.85 628.3 1277 639.85 1262.2 645.4 1222.7 661.1 1203.15 634.95 1195.2 626.65 1188.1 614.2 1172.35 579.35 1185.9 550.5 1190.7 537.45 1197.25 534.5 1247.95 511.85 1267.7 523.65 1285.1 533.55 1297.45 548.6
M 1132.85 773.75
Q 1127.4 774.65 1121.2 783.35 1105.4 802.05 1110.2 831.1 1113 841.75 1117.2 849.55 1126.55 872.85 1158.95 869 1173.85 867.6 1186.1 858.2 1212.25 837.8 1208.5 815.75 1206.6626953125 809.2013671875 1203.85 803.2 1203.814453125 803.0625 1203.75 802.9 1197.6861328125 790.01640625 1187.2 779.7 1174.9 767 1132.85 773.75
M 1134.25 776.55
Q 1173.9849609375 770.1814453125 1185.65 782.2 1195.9990234375 792.3873046875 1201.75 805.2 1201.7259765625 805.151953125 1201.7 805.1
L 1201.7 805.35 1201.8 805.35
Q 1204.16875 810.5578125 1205.75 816.2 1209.3115234375 837.0740234375 1184.6 856.25 1182.4205078125 857.948046875 1180.15 859.35 1170.3658203125 865.416796875 1158.9 866.5 1128.30546875 870.0923828125 1119.5 848.05 1115.51875 840.7275390625 1112.8 830.7 1108.3349609375 803.31875 1123.25 785.65 1129.0974609375 777.3892578125 1134.25 776.55 Z"/>

<path fill="#D24416" stroke="none" d="
M 1297.2 548.45
Q 1297.3 548.45 1297.45 548.6 1285.1 533.55 1267.7 523.65 1247.95 511.85 1197.25 534.5 1190.7 537.45 1185.9 550.5 1172.35 579.35 1188.1 614.2 1195.2 626.65 1203.15 634.95 1222.7 661.1 1262.2 645.4 1277 639.85 1287.85 628.3 1290.35 625.65 1292.75 622.7 1318.7 588.25 1306.6 561.75 1302.4 554.8 1297.5 548.7
L 1297.3 548.75 1297.2 548.45
M 1303.9 572.65
Q 1303.85 575.65 1302.65 578.35 1301.55 581.1 1299.15 581.75 1296.75 582.4 1294.4 580.55 1292.1 578.8 1290 576.15 1287.8 573.45 1289.95 570.5 1292.05 567.4 1295.6 566.85 1299.05 566.15 1301.45 568 1303.85 569.7 1303.9 572.65
M 1207.35 554.65
Q 1209.85 554.65 1210 558.3 1210.1 561.9 1208.15 564.95 1206.15 567.9 1204.55 568.2 1203.05 568.55 1200.7 567.2 1198.4 565.85 1197.7 563.25 1197 560.65 1198.3 558.3 1199.7 556.05 1202.3 555.35 1204.9 554.65 1207.35 554.65
M 1189.2 576.85
Q 1190.8 576.4 1192.25 577.25 1193.7 578.1 1194.85 580.4 1195.95 582.75 1194.7 583.75 1193.4 584.75 1191.5 584.95 1189.65 585.15 1188.2 585.25 1186.7 585.4 1186.4 582.75 1185.95 580.2 1186.8 578.75 1187.6 577.25 1189.2 576.85
M 1201.55 592.7
Q 1202 589.55 1207.1 589.25 1212.15 588.9 1215.1 590.05 1218.1 591.25 1218.8 593.85 1219.5 596.45 1217.45 598.9 1215.5 601.4 1211.95 602.35 1208.45 603.3 1205.4 602.15 1202.45 601 1201.75 598.4 1200.95 595.75 1201.55 592.7
M 1233.7 537.3
Q 1234.95 537.2 1235.3 538.6 1235.7 539.95 1234.6 540.9 1233.55 541.85 1232 542.7 1230.4 543.5 1229.2 543.45 1227.85 543.4 1227.25 541.9 1226.65 540.35 1227.65 539.35 1228.8 538.45 1230.55 537.9 1232.35 537.25 1233.7 537.3
M 1244.8 563.55
Q 1248.1 565.45 1249.5 569.2 1250.85 572.9 1250.4 576.45 1249.9 580 1244.45 580.7 1238.9 581.3 1235.65 579.4 1232.35 577.5 1231.35 573.85 1230.4 570.2 1232.3 566.9 1234.15 563.6 1237.85 562.65 1241.5 561.65 1244.8 563.55
M 1282.7 547.2
Q 1283.1 548.7 1283.05 550.15 1282.95 551.6 1281.35 552.05 1279.75 552.5 1277.8 551.55 1275.8 550.65 1274.9 549.7 1273.85 548.7 1274.7 547.25 1275.55 545.85 1277.6 544.95 1279.6 544.1 1280.95 544.85 1282.3 545.65 1282.7 547.2
M 1270.6 565.9
Q 1271.85 566.65 1272.55 568.25 1273.25 569.75 1273.1 571.3 1272.95 572.85 1270.65 572.8 1268.35 572.7 1267.1 571.95 1265.8 571.25 1264.55 570.2 1263.2 569.25 1264.85 567.55 1266.45 565.95 1267.95 565.55 1269.35 565.2 1270.6 565.9
M 1276.45 536.35
Q 1246.7 522.8 1209.05 540.45 1245 514.3 1276.45 536.35
M 1284.3 597.9
Q 1288.9 596.1 1291.1 597.95 1293.2 599.75 1293.65 602.5 1294.1 605.35 1292 607.8 1290.05 610.35 1286.1 611.55 1282.1 612.75 1279.45 611.45 1276.7 610.15 1276.2 607.4 1275.65 604.7 1277.6 602.2 1279.65 599.7 1284.3 597.9
M 1260.7 601
Q 1261.1 602.35 1259.45 603.9 1257.75 605.55 1254.95 606.4 1252.05 607.3 1251.65 606.15 1251.15 605 1250.75 603.65 1250.4 602.35 1251.6 600.95 1252.8 599.6 1254.85 599.05 1256.95 598.5 1258.65 599.05 1260.35 599.7 1260.7 601
M 1289.8 611.25
Q 1287.95 619.8 1285.75 622.9 1268.5 646.85 1240.3 643.75 1229 642.6 1218.5 634.15 1264.7 657.2 1289.8 611.25
M 1229.2 615.05
Q 1231.85 615 1233.95 616.25 1236.05 617.45 1237.25 619.85 1238.4 622.15 1237.85 624.15 1237.25 626.2 1233.4 626.95 1229.65 627.65 1226.9 626.35 1224.05 625 1224.2 622.4 1224.25 619.75 1225.4 617.45 1226.55 615.1 1229.2 615.05
M 1185.65 782.2
Q 1173.9849609375 770.1814453125 1134.25 776.55 1129.0974609375 777.3892578125 1123.25 785.65 1108.3349609375 803.31875 1112.8 830.7 1115.51875 840.7275390625 1119.5 848.05 1128.30546875 870.0923828125 1158.9 866.5 1170.3658203125 865.416796875 1180.15 859.35 1182.4205078125 857.948046875 1184.6 856.25 1209.3115234375 837.0740234375 1205.75 816.2 1204.16875 810.5578125 1201.8 805.35
L 1201.7 805.35 1201.7 805.1
Q 1201.7259765625 805.151953125 1201.75 805.2 1195.9990234375 792.3873046875 1185.65 782.2
M 1160.15 786.55
Q 1160.15 787.59453125 1159.2 788.05 1158.3046875 788.5517578125 1157.05 788.8 1155.785546875 789.0943359375 1154.9 788.8 1154.0642578125 788.55546875 1153.9 787.35 1153.7451171875 786.198046875 1154.65 785.7 1155.6 785.2552734375 1156.95 785.15 1158.3 785.08359375 1159.2 785.3 1160.15 785.5662109375 1160.15 786.55
M 1185.75 801.75
Q 1185.2865234375 800.8900390625 1186.15 800.05 1187.0140625 799.2087890625 1188.55 798.95 1190.1453125 798.7470703125 1190.95 799.55 1191.75 800.35 1191.75 801.5 1191.7525390625 802.6455078125 1191.4 803.65 1191.091796875 804.6630859375 1189.9 804.65 1188.7080078125 804.63671875 1187.45 803.65 1186.2525390625 802.6560546875 1185.75 801.75
M 1180.7 814.3
Q 1180.8943359375 815.5423828125 1180.5 816.6 1180.10546875 817.657421875 1178.5 817.15 1176.898046875 816.6974609375 1176.15 815.95 1175.405859375 815.20078125 1174.65 814.25 1173.9322265625 813.297265625 1175.4 812.45 1176.867578125 811.6025390625 1177.9 811.6 1178.9939453125 811.5990234375 1179.75 812.35 1180.5017578125 813.10234375 1180.7 814.3
M 1193.7 827.1
Q 1192.4017578125 825.447265625 1191.4 823.15 1190.3947265625 820.9078125 1192.45 819.15 1194.5025390625 817.4482421875 1197.05 817.65 1199.6533203125 817.8884765625 1201 819.55 1202.3447265625 821.2638671875 1201.75 823.35 1201.2017578125 825.4451171875 1199.9 827.1 1198.6 828.8 1196.8 828.8 1195 828.8 1193.7 827.1
M 1177.85 839.1
Q 1179.7498046875 837.751171875 1183.3 837.35 1186.9005859375 836.946484375 1188.05 838.6 1189.2494140625 840.303515625 1189 842.35 1188.8001953125 844.398828125 1186.9 845.75 1185.0458984375 847.144921875 1182 847.25 1179.01171875 847.365234375 1177.35 845.9 1175.7380859375 844.484765625 1175.85 842.5 1176.00390625 840.505078125 1177.85 839.1
M 1164.3 810.65
Q 1164.5958984375 813.553125 1163.6 815.95 1162.60390625 818.3466796875 1158.6 817.75 1154.6486328125 817.2009765625 1152.7 815.25 1150.75 813.3 1150.75 810.55 1150.75 807.8 1152.7 805.85 1154.65 803.9 1157.4 803.9 1160.15 803.9 1162.1 805.85 1164.051171875 807.798828125 1164.3 810.65
M 1137.55 792.55
Q 1139.30703125 793.041015625 1138.7 795.6 1138.083984375 798.2140625 1136.15 799.9 1134.2150390625 801.6380859375 1133.05 801.55 1131.8951171875 801.503515625 1130.5 800.1 1129.15 798.75 1129.15 796.8 1129.15 794.85 1130.5 793.45 1131.9 792.1 1133.85 792.1 1135.79921875 792.1017578125 1137.55 792.55
M 1138.2 822.2
Q 1138.2 824.15 1136.3 825.5 1134.45 826.9 1131.8 826.9 1129.15 826.9 1127.25 825.5 1125.4009765625 824.1474609375 1125.35 822.15 1125.3470703125 820.20703125 1126.25 818.1 1127.2029296875 816.0427734375 1130.8 816.75 1134.4490234375 817.50234375 1136.3 818.85 1138.2 820.25 1138.2 822.2
M 1141.5 839.05
Q 1143.355078125 839.5015625 1144.6 840.75 1145.849609375 842.00546875 1146.25 843.85 1146.6505859375 845.73359375 1145.85 847.05 1145.05078125 848.36171875 1142.25 848.15 1139.445703125 847.9484375 1137.75 846.5 1136.0482421875 845.0447265625 1136.6 843.2 1137.163671875 841.4068359375 1138.4 840 1139.6345703125 838.5943359375 1141.5 839.05
M 1166.25 835.1
Q 1166.25234375 836.10234375 1164.75 836.9 1163.29296875 837.69296875 1161.15 837.8 1159.00703125 837.90703125 1158.85 837 1158.74765625 836.09765625 1158.75 835.1 1158.75 834.1 1159.85 833.35 1160.95 832.65 1162.5 832.65 1164.05 832.65 1165.15 833.35 1166.25 834.1 1166.25 835.1
M 1184.65 847.7
Q 1181.7978515625 853.415234375 1179.7 855.1 1163.08515625 868.683984375 1143.9 861.25 1136.210546875 858.2884765625 1130.35 850.4 1158.445703125 875.2353515625 1184.65 847.7
M 1117.5 808.35
Q 1117.7521484375 806.455859375 1118.6 805.6 1119.45 804.75 1120.65 804.75 1121.85 804.75 1122.7 805.6 1123.55546875 806.4474609375 1123.9 808.3 1124.283203125 810.1572265625 1123.2 810.6 1122.11171875 811.0376953125 1120.75 810.85 1119.3994140625 810.6708984375 1118.35 810.45 1117.294921875 810.23125 1117.5 808.35
M 1141.4 782.95
Q 1171.5208984375 771.408984375 1189.4 792.7 1171.11875 777.6267578125 1141.4 782.95 Z"/>

<path fill="#FFBC8F" stroke="none" d="
M 1233.95 616.25
Q 1231.85 615 1229.2 615.05 1226.55 615.1 1225.4 617.45 1224.25 619.75 1224.2 622.4 1224.05 625 1226.9 626.35 1229.65 627.65 1233.4 626.95 1237.25 626.2 1237.85 624.15 1238.4 622.15 1237.25 619.85 1236.05 617.45 1233.95 616.25
M 1144.6 840.75
Q 1143.355078125 839.5015625 1141.5 839.05 1139.6345703125 838.5943359375 1138.4 840 1137.163671875 841.4068359375 1136.6 843.2 1136.0482421875 845.0447265625 1137.75 846.5 1139.445703125 847.9484375 1142.25 848.15 1145.05078125 848.36171875 1145.85 847.05 1146.6505859375 845.73359375 1146.25 843.85 1145.849609375 842.00546875 1144.6 840.75 Z"/>

<path fill="#670900" stroke="none" d="
M 1285.75 622.9
Q 1287.95 619.8 1289.8 611.25 1264.7 657.2 1218.5 634.15 1229 642.6 1240.3 643.75 1268.5 646.85 1285.75 622.9
M 1179.7 855.1
Q 1181.7978515625 853.415234375 1184.65 847.7 1158.445703125 875.2353515625 1130.35 850.4 1136.210546875 858.2884765625 1143.9 861.25 1163.08515625 868.683984375 1179.7 855.1 Z"/>

<path fill="#FF8155" stroke="none" d="
M 1259.45 603.9
Q 1261.1 602.35 1260.7 601 1260.35 599.7 1258.65 599.05 1256.95 598.5 1254.85 599.05 1252.8 599.6 1251.6 600.95 1250.4 602.35 1250.75 603.65 1251.15 605 1251.65 606.15 1252.05 607.3 1254.95 606.4 1257.75 605.55 1259.45 603.9
M 1164.75 836.9
Q 1166.25234375 836.10234375 1166.25 835.1 1166.25 834.1 1165.15 833.35 1164.05 832.65 1162.5 832.65 1160.95 832.65 1159.85 833.35 1158.75 834.1 1158.75 835.1 1158.74765625 836.09765625 1158.85 837 1159.00703125 837.90703125 1161.15 837.8 1163.29296875 837.69296875 1164.75 836.9 Z"/>

<path fill="#FFAF9B" stroke="none" d="
M 1291.1 597.95
Q 1288.9 596.1 1284.3 597.9 1279.65 599.7 1277.6 602.2 1275.65 604.7 1276.2 607.4 1276.7 610.15 1279.45 611.45 1282.1 612.75 1286.1 611.55 1290.05 610.35 1292 607.8 1294.1 605.35 1293.65 602.5 1293.2 599.75 1291.1 597.95
M 1183.3 837.35
Q 1179.7498046875 837.751171875 1177.85 839.1 1176.00390625 840.505078125 1175.85 842.5 1175.7380859375 844.484765625 1177.35 845.9 1179.01171875 847.365234375 1182 847.25 1185.0458984375 847.144921875 1186.9 845.75 1188.8001953125 844.398828125 1189 842.35 1189.2494140625 840.303515625 1188.05 838.6 1186.9005859375 836.946484375 1183.3 837.35 Z"/>

<path fill="#7A0F00" stroke="none" d="
M 1209.05 540.45
Q 1246.7 522.8 1276.45 536.35 1245 514.3 1209.05 540.45
M 1189.4 792.7
Q 1171.5208984375 771.408984375 1141.4 782.95 1171.11875 777.6267578125 1189.4 792.7 Z"/>

<path fill="#FF7549" stroke="none" d="
M 1272.55 568.25
Q 1271.85 566.65 1270.6 565.9 1269.35 565.2 1267.95 565.55 1266.45 565.95 1264.85 567.55 1263.2 569.25 1264.55 570.2 1265.8 571.25 1267.1 571.95 1268.35 572.7 1270.65 572.8 1272.95 572.85 1273.1 571.3 1273.25 569.75 1272.55 568.25
M 1180.5 816.6
Q 1180.8943359375 815.5423828125 1180.7 814.3 1180.5017578125 813.10234375 1179.75 812.35 1178.9939453125 811.5990234375 1177.9 811.6 1176.867578125 811.6025390625 1175.4 812.45 1173.9322265625 813.297265625 1174.65 814.25 1175.405859375 815.20078125 1176.15 815.95 1176.898046875 816.6974609375 1178.5 817.15 1180.10546875 817.657421875 1180.5 816.6 Z"/>

<path fill="#FF7C51" stroke="none" d="
M 1283.05 550.15
Q 1283.1 548.7 1282.7 547.2 1282.3 545.65 1280.95 544.85 1279.6 544.1 1277.6 544.95 1275.55 545.85 1274.7 547.25 1273.85 548.7 1274.9 549.7 1275.8 550.65 1277.8 551.55 1279.75 552.5 1281.35 552.05 1282.95 551.6 1283.05 550.15
M 1186.15 800.05
Q 1185.2865234375 800.8900390625 1185.75 801.75 1186.2525390625 802.6560546875 1187.45 803.65 1188.7080078125 804.63671875 1189.9 804.65 1191.091796875 804.6630859375 1191.4 803.65 1191.7525390625 802.6455078125 1191.75 801.5 1191.75 800.35 1190.95 799.55 1190.1453125 798.7470703125 1188.55 798.95 1187.0140625 799.2087890625 1186.15 800.05 Z"/>

<path fill="#F1CA9F" stroke="none" d="
M 1249.5 569.2
Q 1248.1 565.45 1244.8 563.55 1241.5 561.65 1237.85 562.65 1234.15 563.6 1232.3 566.9 1230.4 570.2 1231.35 573.85 1232.35 577.5 1235.65 579.4 1238.9 581.3 1244.45 580.7 1249.9 580 1250.4 576.45 1250.85 572.9 1249.5 569.2
M 1163.6 815.95
Q 1164.5958984375 813.553125 1164.3 810.65 1164.051171875 807.798828125 1162.1 805.85 1160.15 803.9 1157.4 803.9 1154.65 803.9 1152.7 805.85 1150.75 807.8 1150.75 810.55 1150.75 813.3 1152.7 815.25 1154.6486328125 817.2009765625 1158.6 817.75 1162.60390625 818.3466796875 1163.6 815.95 Z"/>

<path fill="#F57553" stroke="none" d="
M 1235.3 538.6
Q 1234.95 537.2 1233.7 537.3 1232.35 537.25 1230.55 537.9 1228.8 538.45 1227.65 539.35 1226.65 540.35 1227.25 541.9 1227.85 543.4 1229.2 543.45 1230.4 543.5 1232 542.7 1233.55 541.85 1234.6 540.9 1235.7 539.95 1235.3 538.6
M 1159.2 788.05
Q 1160.15 787.59453125 1160.15 786.55 1160.15 785.5662109375 1159.2 785.3 1158.3 785.08359375 1156.95 785.15 1155.6 785.2552734375 1154.65 785.7 1153.7451171875 786.198046875 1153.9 787.35 1154.0642578125 788.55546875 1154.9 788.8 1155.785546875 789.0943359375 1157.05 788.8 1158.3046875 788.5517578125 1159.2 788.05 Z"/>

<path fill="#FFBDA9" stroke="none" d="
M 1207.1 589.25
Q 1202 589.55 1201.55 592.7 1200.95 595.75 1201.75 598.4 1202.45 601 1205.4 602.15 1208.45 603.3 1211.95 602.35 1215.5 601.4 1217.45 598.9 1219.5 596.45 1218.8 593.85 1218.1 591.25 1215.1 590.05 1212.15 588.9 1207.1 589.25
M 1136.3 825.5
Q 1138.2 824.15 1138.2 822.2 1138.2 820.25 1136.3 818.85 1134.4490234375 817.50234375 1130.8 816.75 1127.2029296875 816.0427734375 1126.25 818.1 1125.3470703125 820.20703125 1125.35 822.15 1125.4009765625 824.1474609375 1127.25 825.5 1129.15 826.9 1131.8 826.9 1134.45 826.9 1136.3 825.5 Z"/>

<path fill="#F26D42" stroke="none" d="
M 1192.25 577.25
Q 1190.8 576.4 1189.2 576.85 1187.6 577.25 1186.8 578.75 1185.95 580.2 1186.4 582.75 1186.7 585.4 1188.2 585.25 1189.65 585.15 1191.5 584.95 1193.4 584.75 1194.7 583.75 1195.95 582.75 1194.85 580.4 1193.7 578.1 1192.25 577.25
M 1118.6 805.6
Q 1117.7521484375 806.455859375 1117.5 808.35 1117.294921875 810.23125 1118.35 810.45 1119.3994140625 810.6708984375 1120.75 810.85 1122.11171875 811.0376953125 1123.2 810.6 1124.283203125 810.1572265625 1123.9 808.3 1123.55546875 806.4474609375 1122.7 805.6 1121.85 804.75 1120.65 804.75 1119.45 804.75 1118.6 805.6 Z"/>

<path fill="#FFA4A2" stroke="none" d="
M 1210 558.3
Q 1209.85 554.65 1207.35 554.65 1204.9 554.65 1202.3 555.35 1199.7 556.05 1198.3 558.3 1197 560.65 1197.7 563.25 1198.4 565.85 1200.7 567.2 1203.05 568.55 1204.55 568.2 1206.15 567.9 1208.15 564.95 1210.1 561.9 1210 558.3
M 1138.7 795.6
Q 1139.30703125 793.041015625 1137.55 792.55 1135.79921875 792.1017578125 1133.85 792.1 1131.9 792.1 1130.5 793.45 1129.15 794.85 1129.15 796.8 1129.15 798.75 1130.5 800.1 1131.8951171875 801.503515625 1133.05 801.55 1134.2150390625 801.6380859375 1136.15 799.9 1138.083984375 798.2140625 1138.7 795.6 Z"/>

<path fill="#FDB98E" stroke="none" d="
M 1302.65 578.35
Q 1303.85 575.65 1303.9 572.65 1303.85 569.7 1301.45 568 1299.05 566.15 1295.6 566.85 1292.05 567.4 1289.95 570.5 1287.8 573.45 1290 576.15 1292.1 578.8 1294.4 580.55 1296.75 582.4 1299.15 581.75 1301.55 581.1 1302.65 578.35
M 1191.4 823.15
Q 1192.4017578125 825.447265625 1193.7 827.1 1195 828.8 1196.8 828.8 1198.6 828.8 1199.9 827.1 1201.2017578125 825.4451171875 1201.75 823.35 1202.3447265625 821.2638671875 1201 819.55 1199.6533203125 817.8884765625 1197.05 817.65 1194.5025390625 817.4482421875 1192.45 819.15 1190.3947265625 820.9078125 1191.4 823.15 Z"/>
</g>

<g id="Layer0_2_FILL">
<path fill="#008237" stroke="none" d="
M 1354.6 767.15
Q 1352.022265625 762.0689453125 1348.6 767.15 1349.294140625 755.1638671875 1340.8 755.8 1339.1623046875 750.9115234375 1342.8 747 1341.5 736.65 1329.15 742.3 1302.3 753.7 1283.2 754.05 1252.3 756.45 1224.8 739.55 1220.65 737 1215.8 737.5 1213.4 737.85 1214.5 739.65 1236.35 790.85 1294.2 790.45 1334.75 790.55 1351.1 773.2 1354.4431640625 770.7958984375 1354.6 767.15
M 1331.45 754.4
Q 1330.44453125 753.1033203125 1330.5 750.75 1330.56640625 748.3896484375 1331.55 747.2 1332.53359375 746.06015625 1333.95 746.35 1335.35546875 746.646484375 1336.35 747.95 1337.35 749.3 1337.35 751.2 1337.35 753.1 1336.35 754.4 1336.1033203125 754.7330078125 1335.8 754.95 1336.4873046875 755.1873046875 1337 755.7 1337.9013671875 756.596484375 1338.6 758.15 1339.295703125 759.760546875 1338.05 760.45 1336.8541015625 761.189453125 1335.25 761 1333.6484375 760.853515625 1332.75 759.95 1331.9 759.1 1331.9 757.85 1331.9 756.6 1332.75 755.7 1332.8224609375 755.6314453125 1332.9 755.55 1332.0833984375 755.255078125 1331.45 754.4
M 1299.95 759.15
Q 1304.4732421875 760.1296875 1297.65 763.05 1278.165625 768.957421875 1264.55 766.75 1242.593359375 762.1654296875 1234.15 748.65 1263.9392578125 767.957421875 1299.95 759.15 Z"/>

<path fill="#C7F9D4" stroke="none" d="
M 1297.65 763.05
Q 1304.4732421875 760.1296875 1299.95 759.15 1263.9392578125 767.957421875 1234.15 748.65 1242.593359375 762.1654296875 1264.55 766.75 1278.165625 768.957421875 1297.65 763.05
M 1330.5 750.75
Q 1330.44453125 753.1033203125 1331.45 754.4 1332.0833984375 755.255078125 1332.9 755.55 1332.8224609375 755.6314453125 1332.75 755.7 1331.9 756.6 1331.9 757.85 1331.9 759.1 1332.75 759.95 1333.6484375 760.853515625 1335.25 761 1336.8541015625 761.189453125 1338.05 760.45 1339.295703125 759.760546875 1338.6 758.15 1337.9013671875 756.596484375 1337 755.7 1336.4873046875 755.1873046875 1335.8 754.95 1336.1033203125 754.7330078125 1336.35 754.4 1337.35 753.1 1337.35 751.2 1337.35 749.3 1336.35 747.95 1335.35546875 746.646484375 1333.95 746.35 1332.53359375 746.06015625 1331.55 747.2 1330.56640625 748.3896484375 1330.5 750.75
M 1352.85 749.05
Q 1353.35 750.25 1356.35 750.75 1373.25 749.6 1377.55 729 1378 724.4 1376.85 725.15 1372.6 751.25 1352.85 749.05 Z"/>

<path fill="#093E0B" stroke="none" d="
M 1342.8 747
Q 1343.9302734375 747 1344.95 747 1356.212109375 746.9140625 1359 746 1366.3 743.5 1369.55 738.3 1366.2 742.5 1360 744.7 1356.9 745.75 1343.5 745.75 1342.15 734.8 1329.6 740.8 1302.2 752.85 1282.75 753.25 1251.2 755.8 1223.2 737.85 1218.95 735.15 1214 735.7 1211.55 736.05 1212.7 737.95 1234.95 792.25 1293.95 791.85 1335.3 791.95 1351.95 773.55 1355.3529296875 771.0072265625 1355.55 767.15 1355.60078125 765.89296875 1355.3 764.5 1355.31015625 764.4482421875 1355.3 764.4 1355.25 764.35 1355.3 764.3 1355.55 760.05 1362.55 755.05 1354.9783203125 759.9380859375 1354.4 764.1 1354.4103515625 764.3193359375 1354.4 764.5 1354.35 764.55 1354.4 764.6 1354.6859375 765.9431640625 1354.6 767.15 1354.4431640625 770.7958984375 1351.1 773.2 1334.75 790.55 1294.2 790.45 1236.35 790.85 1214.5 739.65 1213.4 737.85 1215.8 737.5 1220.65 737 1224.8 739.55 1252.3 756.45 1283.2 754.05 1302.3 753.7 1329.15 742.3 1341.5 736.65 1342.8 747 Z"/>

<path fill="#215917" stroke="none" d="
M 1342.55 754.15
Q 1340.455078125 750.575 1344.95 747 1343.9302734375 747 1342.8 747 1339.1623046875 750.9115234375 1340.8 755.8 1349.294140625 755.1638671875 1348.6 767.15 1352.022265625 762.0689453125 1354.6 767.15 1354.6859375 765.9431640625 1354.4 764.6 1354.35 764.55 1354.4 764.5 1354.4103515625 764.3193359375 1354.4 764.1 1352.903515625 760.0724609375 1350.05 763.3 1350.734765625 753.537890625 1342.55 754.15 Z"/>

<path fill="#878000" stroke="none" d="
M 1374.2 722.45
Q 1375.25 720.9 1376.9 720.2 1382.1 718.2 1380.5 725.05 1377.6 743.2 1367.45 751.65 1378.8 742.75 1381.95 722.5 1383.55 715.2 1378.25 717.35 1375.4 718.65 1374.2 722.45
M 1374.2 722.45
Q 1372.3 725.05 1372 730 1371.7 734.75 1369.55 738.3 1372.9 734.05 1373.25 727.75 1373.45 724.65 1374.2 722.45 Z"/>

<path fill="#C4DA87" stroke="none" d="
M 1374.2 722.45
Q 1373.45 724.65 1373.25 727.75 1372.9 734.05 1369.55 738.3 1366.3 743.5 1359 746 1356.212109375 746.9140625 1344.95 747 1340.455078125 750.575 1342.55 754.15 1350.734765625 753.537890625 1350.05 763.3 1352.903515625 760.0724609375 1354.4 764.1 1354.9783203125 759.9380859375 1362.55 755.05 1362.65 754.95 1362.8 754.9
L 1363.15 754.65
Q 1363.3123046875 754.5201171875 1363.5 754.4 1364.1326171875 753.97109375 1364.8 753.5 1365.7375 752.9375 1366.6 752.3
L 1367.45 751.65
Q 1377.6 743.2 1380.5 725.05 1382.1 718.2 1376.9 720.2 1375.25 720.9 1374.2 722.45
M 1356.35 750.75
Q 1353.35 750.25 1352.85 749.05 1372.6 751.25 1376.85 725.15 1378 724.4 1377.55 729 1373.25 749.6 1356.35 750.75 Z"/>
</g>

<g id="Layer0_3_FILL">
<path fill="#878000" stroke="none" d="
M 1052.7 910.2
Q 1053.1 908.5 1051.85 906.75 1052.2 907.7 1051.95 908.65 1051.1 911.5 1048.65 908.6 1041.95 901.35 1041.7 894.25 1041.75 902 1049.3 910.05 1051.85 913.15 1052.7 910.2
M 1049.35 903.35
Q 1047.45 901.65 1046.65 899.6 1047.4 902.4 1049.9 904.6 1051.2 905.75 1051.85 906.75 1051.4 905.1 1049.35 903.35 Z"/>

<path fill="#C4DA87" stroke="none" d="
M 1042.45 883
Q 1042.9 885.3 1040.6 884.6 1042.25 886.25 1041.85 891.05 1041.85 891.15 1041.8 891.2
L 1041.8 891.45
Q 1041.85 891.55 1041.8 891.65 1041.75 892.1 1041.75 892.5 1041.7 893.1 1041.65 893.7
L 1041.7 894.25
Q 1041.95 901.35 1048.65 908.6 1051.1 911.5 1051.95 908.65 1052.2 907.7 1051.85 906.75 1051.2 905.75 1049.9 904.6 1047.4 902.4 1046.65 899.6 1045.5 896.45 1046.85 892.55 1047.4 891.05 1051.05 886.25 1051.05 883.1 1048.85 882.85 1046.4 886.55 1042.45 883
M 1045.7 889.8
Q 1046.95 888.75 1047.6 888.9 1040.15 896.6 1049.8 907 1049.8 907.75 1048 906.05 1040.6 897.4 1045.7 889.8 Z"/>

<path fill="#C7F9D4" stroke="none" d="
M 1047.6 888.9
Q 1046.95 888.75 1045.7 889.8 1040.6 897.4 1048 906.05 1049.8 907.75 1049.8 907 1040.15 896.6 1047.6 888.9
M 1059.8 860.8
Q 1058.8 864.6 1060.75 863.05 1068.9 844.85 1086.9 838.5 1078.4 837.65 1069.2 845.45 1063.8 850.55 1059.8 860.8
M 1055.4 880.4
Q 1055.25 879.65 1054.2 878.8 1053.25 878.05 1052.35 878 1051.8 878.05 1051.4 878.25 1051.4 878.2 1051.4 878.15 1051.3 877.5 1050.75 877.05 1050.2 876.65 1049.6 876.75 1048.95 876.85 1048.3 877.45 1047.75 878.05 1047.55 878.85 1047.5 879.6 1048.4 879.8 1049.35 880.05 1050 880 1050.4 879.9 1050.65 879.7 1050.65 879.9 1050.75 880.1 1050.95 881 1051.8 881.6 1052.6 882.25 1053.5 882.25 1054.35 882.2 1055 881.75 1055.6 881.25 1055.4 880.4 Z"/>

<path fill="#215917" stroke="none" d="
M 1039.3 883.7
Q 1039.8 884.1 1040.5 884.45
L 1040.5 884.5
Q 1040.6 884.55 1040.6 884.6 1042.9 885.3 1042.45 883 1046.4 886.55 1048.85 882.85 1051.05 883.1 1051.05 886.25 1051.4 885.8 1051.75 885.3 1051.3 882.45 1048.7 881.55 1046.15 885.35 1041.3 881.1 1042.35 884.25 1039.3 883.7 Z"/>

<path fill="#D32C18" stroke="none" d="
M 1093.9 837.5
Q 1096.4 836.6 1097.75 834.4 1098.35 833.2 1097.25 833.15 1068.25 825.55 1049.35 850.25 1035.9 867.5 1037.85 880.2 1037.8 882.4 1039.3 883.7 1042.35 884.25 1041.3 881.1 1046.15 885.35 1048.7 881.55 1051.3 882.45 1051.75 885.3 1056.65 888.15 1058.25 881.05 1062.3 865.85 1068.45 857.65 1077.65 843.65 1093.9 837.5
M 1054.2 878.8
Q 1055.25 879.65 1055.4 880.4 1055.6 881.25 1055 881.75 1054.35 882.2 1053.5 882.25 1052.6 882.25 1051.8 881.6 1050.95 881 1050.75 880.1 1050.65 879.9 1050.65 879.7 1050.4 879.9 1050 880 1049.35 880.05 1048.4 879.8 1047.5 879.6 1047.55 878.85 1047.75 878.05 1048.3 877.45 1048.95 876.85 1049.6 876.75 1050.2 876.65 1050.75 877.05 1051.3 877.5 1051.4 878.15 1051.4 878.2 1051.4 878.25 1051.8 878.05 1052.35 878 1053.25 878.05 1054.2 878.8
M 1060.75 863.05
Q 1058.8 864.6 1059.8 860.8 1063.8 850.55 1069.2 845.45 1078.4 837.65 1086.9 838.5 1068.9 844.85 1060.75 863.05 Z"/>

<path fill="#093E0B" stroke="none" d="
M 1099.1 834.2
Q 1099.8 833.05 1098.55 832.9 1068.1 824.45 1048.85 849.7 1035.15 867.25 1037.45 880.45 1037.4 882.75 1039 884.05 1039.55 884.5 1040.15 884.9
L 1040.25 884.85 1040.3 884.9
Q 1042 886.4 1041.85 891.05 1042.25 886.25 1040.6 884.6 1040.6 884.55 1040.5 884.5
L 1040.5 884.45
Q 1039.8 884.1 1039.3 883.7 1037.8 882.4 1037.85 880.2 1035.9 867.5 1049.35 850.25 1068.25 825.55 1097.25 833.15 1098.35 833.2 1097.75 834.4 1096.4 836.6 1093.9 837.5 1077.65 843.65 1068.45 857.65 1062.3 865.85 1058.25 881.05 1056.65 888.15 1051.75 885.3 1051.4 885.8 1051.05 886.25 1047.4 891.05 1046.85 892.55 1045.5 896.45 1046.65 899.6 1046 896.75 1047.1 893.35 1047.65 891.7 1052.1 886 1057.2 889.05 1058.75 881.75 1062.7 866.05 1068.95 857.7 1078.3 843.4 1095.15 837.4 1097.7 836.5 1099.1 834.2 Z"/>
</g>

<g id="Layer0_4_FILL">
<path fill="#6F7400" stroke="none" d="
M 1114.25 711
Q 1113.9669921875 721.1943359375 1120.85 728.35 1127.7830078125 735.50546875 1138.25 735.35 1148.7056640625 735.198046875 1155.75 728.05 1162.85 721 1162.85 710.9 1162.85 700.85 1155.75 693.7 1148.7 686.6 1138.7 686.6 1128.7 686.6 1121.6 693.7 1114.5443359375 700.8517578125 1114.25 711
M 1123.45 726.45
Q 1117.0986328125 719.85390625 1117.3 710.6 1117.552734375 701.38828125 1124.3 694.95 1131.102734375 688.5103515625 1139.85 689 1148.5873046875 689.4990234375 1154.8 695.7 1161.0166015625 701.89609375 1160.85 710.85 1160.6943359375 719.851171875 1154.3 726.45 1147.9 733.05 1138.9 733.05 1129.85 733.05 1123.45 726.45 Z"/>

<path fill="#BBC560" stroke="none" d="
M 1117.3 710.6
Q 1117.0986328125 719.85390625 1123.45 726.45 1129.85 733.05 1138.9 733.05 1147.9 733.05 1154.3 726.45 1160.6943359375 719.851171875 1160.85 710.85 1161.0166015625 701.89609375 1154.8 695.7 1148.5873046875 689.4990234375 1139.85 689 1131.102734375 688.5103515625 1124.3 694.95 1117.552734375 701.38828125 1117.3 710.6
M 1126.85 723.1
Q 1122.25 718.5 1122.25 711.95 1122.25 705.4 1126.85 700.75 1131.5 696.15 1138.05 696.15 1144.600390625 696.1515625 1149.6 700.7 1154.5986328125 705.2947265625 1154.55 711.85 1154.501171875 718.405078125 1149.55 723.05 1144.5994140625 727.7482421875 1138.05 727.75 1131.5 727.75 1126.85 723.1 Z"/>

<path fill="#607600" stroke="none" d="
M 1122.25 711.95
Q 1122.25 718.5 1126.85 723.1 1131.5 727.75 1138.05 727.75 1144.5994140625 727.7482421875 1149.55 723.05 1154.501171875 718.405078125 1154.55 711.85 1154.5986328125 705.2947265625 1149.6 700.7 1144.600390625 696.1515625 1138.05 696.15 1131.5 696.15 1126.85 700.75 1122.25 705.4 1122.25 711.95
M 1128.05 721.85
Q 1123.9017578125 717.6490234375 1124.65 711.35 1125.394140625 705.0529296875 1129.05 701.1 1132.7556640625 697.1970703125 1138.4 697.3 1144.098046875 697.4509765625 1148.3 701.65 1152.5 705.8 1152.5 711.75 1152.5 717.65 1148.3 721.85 1144.1 726.05 1138.2 726.05 1132.25 726.05 1128.05 721.85 Z"/>
</g>

<g id="Layer0_5_FILL">
<path fill="#2A1B0F" stroke="none" d="
M 1326.2 663.6
Q 1326.2 672.3048828125 1332.65 678.45 1339.15 684.65 1348.35 684.65 1357.5 684.65 1364 678.45 1370.5 672.3 1370.5 663.45 1370.5 654.7 1364 648.45 1357.5 642.244921875 1348.3 642.65 1339.15 643.0646484375 1332.65 648.95 1326.2 654.88515625 1326.2 663.6
M 1334.35 677.05
Q 1328.5513671875 671.297265625 1328.7 663.6 1328.8955078125 655.9080078125 1334.8 650.3 1340.704296875 644.741796875 1348.75 644.15 1356.7984375 643.6025390625 1362.65 649.4 1368.5 655.05 1368.5 663.2 1368.5 671.3 1362.65 677.05 1356.8 682.8 1348.55 682.8 1340.25 682.8 1334.35 677.05 Z"/>

<path fill="#423458" stroke="none" d="
M 1328.7 663.6
Q 1328.5513671875 671.297265625 1334.35 677.05 1340.25 682.8 1348.55 682.8 1356.8 682.8 1362.65 677.05 1368.5 671.3 1368.5 663.2 1368.5 655.05 1362.65 649.4 1356.7984375 643.6025390625 1348.75 644.15 1340.704296875 644.741796875 1334.8 650.3 1328.8955078125 655.9080078125 1328.7 663.6
M 1357.65 658.1
Q 1361.05 661.35 1361.05 665.95 1361.05 670.5 1357.65 673.7 1354.2 676.95 1349.45 676.95 1344.6 676.95 1341.25 673.7 1337.8998046875 670.496875 1338.4 666.05 1338.95 661.609375 1341.85 658.25 1344.7498046875 654.940625 1349.45 654.9 1354.2 654.903125 1357.65 658.1 Z"/>

<path fill="#261C0F" stroke="none" d="
M 1361.05 665.95
Q 1361.05 661.35 1357.65 658.1 1354.2 654.903125 1349.45 654.9 1344.7498046875 654.940625 1341.85 658.25 1338.95 661.609375 1338.4 666.05 1337.8998046875 670.496875 1341.25 673.7 1344.6 676.95 1349.45 676.95 1354.2 676.95 1357.65 673.7 1361.05 670.5 1361.05 665.95
M 1356.95 658.8
Q 1360 661.6 1360 665.8 1360 669.95 1356.95 672.8 1353.85 675.75 1349.6 675.75 1345.2 675.75 1342.1 672.8 1339.0943359375 669.9541015625 1340.4 665.7 1341.766796875 661.437109375 1343.75 658.6 1345.7330078125 655.8126953125 1349.8 655.8 1353.85546875 655.845703125 1356.95 658.8 Z"/>
</g>

<path id="Layer0_0_1_STROKES" stroke="#000000" stroke-width="0.05" stroke-linejoin="round" stroke-linecap="round" fill="none" d="
M 234.5376770019531 78.69498596191406
Q 234.55679626464843 78.69498596191406 234.5854751586914 78.69498596191406
M 250.9706832885742 82.79606781005859
Q 252.44738493561744 84.49547899365425 252.9590866088867 86.70595703125 253.36619247198104 89.072675293684 252.68185729980468 87.04054412841796 252.07131053209304 85.23067439198493 250.59307785034179 83.73769149780273 248.91267390251159 81.87550518512725 247.9116012573242 79.03913269042968 247.57876924872397 77.71762568354606 248.01675720214843 78.14530715942382
L 249.24994964599608 80.50653610229492
Q 249.26305679678916 80.53338522315025 249.27862854003905 80.55911407470703 249.83663467764853 81.68001819252967 250.9706832885742 82.79606781005859 Z
M 247.79688568115233 88.54140625
Q 247.79688568115233 88.85687408447265 247.57701416015624 89.07674560546874 247.35665718913077 89.29661712646484 246.99865646362304 89.34919509887695 246.64162663817405 89.4017357289791 246.3151428222656 89.31573638916015 245.98753873705863 89.22906488776206 246.08571166992186 88.75649795532226 246.1859010875225 88.28516331911086 246.26734466552733 88.14946136474609 246.34684644341468 88.01372206807136 246.85048217773436 87.90091094970703 247.35605971217154 87.78683019280433 247.57701416015624 88.00606689453124 247.79688568115233 88.22593841552734 247.79688568115233 88.54140625 Z
M 173.74798126220702 97.79512939453124
Q 173.74798126220702 98.09147796630859 173.52810974121093 98.30178985595703 173.3177978515625 98.52166137695312 173.02144927978514 98.52166137695312 172.7258848965168 98.52218416929244 172.56736679077147 98.34480819702148 172.4072429656983 98.16634929776191 172.4383117675781 97.8907257080078 172.46934322714804 97.61506477594375 172.59604568481444 97.34104690551757 172.72427917718892 97.06803727746009 173.02144927978514 97.06859741210937 173.3177978515625 97.06859741210937 173.52810974121093 97.2789093017578 173.74798126220702 97.4987808227539 173.74798126220702 97.79512939453124 Z"/>
</defs>

<g transform="matrix( 0.191192626953125, 0, 0, 0.191192626953125, -37.3,-53.4) ">
<use xlink:href="#Layer0_0_FILL"/>

<use xlink:href="#Layer0_0_1_STROKES" transform="matrix( 5.230316162109375, 0, 0, 5.230316162109375, 195.05,279.25) "/>
</g>

<g transform="matrix( 0.191192626953125, 0, 0, 0.191192626953125, -37.3,-53.4) ">
<use xlink:href="#Layer0_1_FILL"/>
</g>

<g transform="matrix( 0.191192626953125, 0, 0, 0.191192626953125, -37.3,-53.4) ">
<use xlink:href="#Layer0_2_FILL"/>
</g>

<g transform="matrix( 0.191192626953125, 0, 0, 0.191192626953125, -37.3,-53.4) ">
<use xlink:href="#Layer0_3_FILL"/>
</g>

<g transform="matrix( 0.191192626953125, 0, 0, 0.191192626953125, -37.3,-53.4) ">
<use xlink:href="#Layer0_4_FILL"/>
</g>

<g transform="matrix( 0.191192626953125, 0, 0, 0.191192626953125, -37.3,-53.4) ">
<use xlink:href="#Layer0_5_FILL"/>
</g>
</svg>
