
<svg xmlns="http://www.w3.org/2000/svg" version="1.1" xmlns:xlink="http://www.w3.org/1999/xlink" preserveAspectRatio="none" x="0px" y="0px" width="738px" height="746px" viewBox="0 0 738 746">
<defs>
<g id="Layer3_0_FILL">
<path fill="#060200" stroke="none" d="
M 157.5 640.2
Q 158.3 641.2 159.15 642.2 159.2 642.25 159.3 642.35 175.5 661.25 205.95 676.2 208.7 677.45 211.4 678.6 211.65 678.7 211.95 678.85 244.8 692.7 273.8 692.9 238.35 688.15 215.85 677.55 180 663.25 157.5 640.2
M 45.55 487.45
Q 50.15 541.8 96.9 585.9 57.25 543.2 45.55 487.45
M 46.1 452.45
Q 48.65 454 50.9 455.65 65.1 466 68.2 480.15 69.1 491.65 71.45 498.85 74.5 508.15 75.9 514.2 82.85 545.65 112.25 568.2 136.8 587.5 152.25 619.1 165.3 640.75 189.25 642.65 208.75 644.6 218.55 657.5 227.1 668.05 238.4 668.85 244 669.25 250.3 668.65 252.95 668.4 255.7 667.95 280.25 667.05 296.55 679.85 301.1 683.35 304.95 687.95 292.05 671.35 269.45 665.25 262.1 663.25 251.5 663.95 233.25 667.8 219.65 650.15 208.4 636.55 189.95 636.6 169.65 635.5 157.25 615.8 148.55 599.9 140.7 587.8 129 571.25 111 559.8 88.75 542.9 81.5 520.4 77.85 509.1 74.15 496.2 72.4 464.45 46.1 452.45
M 151.65 655.4
Q 107.3 621.45 73.1 579.9 103.9 624.9 151.65 655.4
M 294.1 713.25
Q 285.35 711.05 276.2 713.05 283.7 715.9 294.1 713.25
M 31.4 502.4
Q 26.25 484.8 16.5 472.8 21.15 486.85 31.4 502.4
M 258.1 408.1
Q 265.35 407.15 272.9 406.4 314 402.45 356 383.35 313.6 397.25 276.85 401 254.75 403.25 219.45 408.8 190.05 413.25 145.95 428.55 129.55 436.45 91.25 441.75 76.5 443.85 49.85 448.8 32.6 451.8 19 458 7.5 463.3 3.9 475.2 3.4 476.9 3.25 478.85 5.1 493.2 22.1 520.4
L 41.1 553.15
Q 60.85 589.5 100.15 630.25 118.85 649.6 147.75 671 163.8 681.7 197.25 699.4 226.5 715.05 279.2 729 292.1 732.45 300.3 720.85 304.55 715.25 306.75 702.5
L 322.2 622.1
Q 328 584.4 335.15 560.4 337.9 555.35 350.4 473.4 351.65 464.8 355.8 419.6 357.4 402.4 356 383.35 354.7 402.85 353.5 417.95 350.3 457.8 347.65 468 347.25 470.5 346.8 472.85 336.5 531.3 332.35 547 320.45 591.65 316.6 621.35 308.95 665.35 304.95 687.95 301.1 710.05 300.65 711.8 295.8 731 279.4 728.1 274.3 727.2 268.15 724.2 235.05 712.45 231.9 711.05 209.05 700.9 199.5 696.15 197.15 694.95 195.6 694.1 167.05 678.1 154.65 669.1 152.8 667.7 150.95 666.35 127.6 649.1 114 635.8 109.3 630.95 104.95 626.3 88.15 608.6 76.75 594.8 76.2 594.1 75.65 593.4 72.6 589.7 69.85 586.15 65.35 580.3 62.05 575.35 53.85 563 47.45 553.15 38 538.8 32.3 529.95 28 523.2 25.05 517.5 18.8 505.35 13.5 497.25 9.15 491.2 6.3 484.6 5.85 481.75 5.85 479.25 5.85 477.95 6 476.7 6.5 470.7 9.75 466.35 13.5 462.15 19.3 459.5 22.35 458.1 26.05 457.2 35 454.35 46.1 452.45 46.75 452.3 47.5 452.25 53.65 451.25 60.45 450.5 74.5 448.95 87.55 447 102.8 444.75 116.7 442 119.55 441.45 122.35 440.9 131.65 438.95 140.3 436.7 160.75 431.55 177.85 425.05 195.2 419.6 214.85 415.4 235.25 411.05 258.1 408.1
M 277.8 551.75
Q 259.95 549.8 244.9 562 220.9 579.8 225.8 611.3 230.5 626.6 245.2 635.6 269 651.5 287.9 641.6 295.85 637.75 301.9 631.9 307.95 626.25 311.1 617.75 311.65 616.15 312.2 614.35 312.25 614.1 312.3 613.85 314.35 606.55 314.55 597.45 314.35 595.9 314.15 594.4 313.2 587.95 311.7 582.4 300.45 556.9 288.75 553.75 310.15 571.65 311.9 591.6 317.2 617.85 291.85 636.9 286.7 639.6 283 640
L 281.5 640.5
Q 281.4 640.55 281.3 640.55 254.75 646.75 234.75 621.2 218.2 594.9 240.9 568.2 255.05 552 277.8 551.75
M 171.2 470.65
Q 193.75 469.1 210.8 485.8 199.05 471.15 178.8 469.05 147.75 464.4 128.05 491.45 120.15 506.35 124.4 523.9 130.25 553.35 151.6 560.1 160.35 563.1 169.25 563.35 177.9 563.6 186.5 559.55 188.25 558.8 189.95 557.85 190.1 557.75 190.4 557.6 197.3 553.7 204.2 547.05 205.2 545.8 206.15 544.5 210.25 539 213.25 533.8 221.9 511.5 219.15 500.05 218.75 500.85 218.45 501.55
L 217.8 501.3
Q 218.7 526.2 206.55 540.75 191.1 564.25 158.05 559.5 152.2 557.65 149.25 555.25
L 147.75 554.5
Q 147.65 554.5 147.55 554.4 123.2 539.3 127.35 505.45 134.55 473.7 171.2 470.65
M 295.95 420.6
Q 278.05 420.5 264.35 434.2 242.3 454.45 250.45 485.2 256.75 499.95 272.3 507.35 297.6 520.7 315.35 508.95 322.8 504.25 328.3 497.85 333.65 491.6 335.9 482.85 336.35 481.1 336.7 479.3 336.7 479.05 336.8 478.8 338.05 471.3 337.25 462.25 336.95 460.7 336.55 459.25 334.95 452.9 332.9 447.55 319.05 423.4 307.05 421.5 330.2 437.05 334 456.7 342.1 482.3 318.85 503.9 313.9 507.05 310.35 507.8
L 308.9 508.5
Q 308.8 508.5 308.7 508.5 282.9 517.5 260.35 494.15 241.2 469.7 261 440.8 273.4 423.15 295.95 420.6 Z"/>

<path fill="#EDA969" stroke="none" d="
M 68.2 480.15
Q 65.1 466 50.9 455.65 42.7 468.05 45.55 487.45 57.25 543.2 96.9 585.9 126 620.45 159.15 642.2 158.3 641.2 157.5 640.2 180 663.25 215.85 677.55 238.35 688.15 273.8 692.9 244.8 692.7 211.95 678.85 244.15 707.4 269.25 704.95 288 702.6 296.55 679.85 280.25 667.05 255.7 667.95 252.95 668.4 250.3 668.65 244 669.25 238.4 668.85 227.1 668.05 218.55 657.5 208.75 644.6 189.25 642.65 165.3 640.75 152.25 619.1 136.8 587.5 112.25 568.2 82.85 545.65 75.9 514.2 74.5 508.15 71.45 498.85 69.1 491.65 68.2 480.15 Z"/>

<path fill="#D58449" stroke="none" d="
M 26.05 457.2
Q 22.35 458.1 19.3 459.5 13.5 462.15 9.75 466.35 6.5 470.7 6 476.7 5.85 477.95 5.85 479.25 5.85 481.75 6.3 484.6 9.15 491.2 13.5 497.25 18.8 505.35 25.05 517.5 28 523.2 32.3 529.95 38 538.8 47.45 553.15 53.85 563 62.05 575.35 65.35 580.3 69.85 586.15 72.6 589.7 75.65 593.4 76.2 594.1 76.75 594.8 88.15 608.6 104.95 626.3 109.3 630.95 114 635.8 127.6 649.1 150.95 666.35 152.8 667.7 154.65 669.1 167.05 678.1 195.6 694.1 197.15 694.95 199.5 696.15 209.05 700.9 231.9 711.05 235.05 712.45 268.15 724.2 274.3 727.2 279.4 728.1 295.8 731 300.65 711.8 301.1 710.05 304.95 687.95 301.1 683.35 296.55 679.85 288 702.6 269.25 704.95 244.15 707.4 211.95 678.85 211.65 678.7 211.4 678.6 208.7 677.45 205.95 676.2 175.5 661.25 159.3 642.35 159.2 642.25 159.15 642.2 126 620.45 96.9 585.9 50.15 541.8 45.55 487.45 42.7 468.05 50.9 455.65 48.65 454 46.1 452.45 35 454.35 26.05 457.2
M 16.5 472.8
Q 26.25 484.8 31.4 502.4 21.15 486.85 16.5 472.8
M 276.2 713.05
Q 285.35 711.05 294.1 713.25 283.7 715.9 276.2 713.05
M 73.1 579.9
Q 107.3 621.45 151.65 655.4 103.9 624.9 73.1 579.9 Z"/>

<path fill="#EDB53A" stroke="none" d="
M 272.9 406.4
Q 265.35 407.15 258.1 408.1 235.25 411.05 214.85 415.4 195.2 419.6 177.85 425.05 160.75 431.55 140.3 436.7 131.65 438.95 122.35 440.9 119.55 441.45 116.7 442 102.8 444.75 87.55 447 74.5 448.95 60.45 450.5 53.65 451.25 47.5 452.25 46.75 452.3 46.1 452.45 72.4 464.45 74.15 496.2 77.85 509.1 81.5 520.4 88.75 542.9 111 559.8 129 571.25 140.7 587.8 148.55 599.9 157.25 615.8 169.65 635.5 189.95 636.6 208.4 636.55 219.65 650.15 233.25 667.8 251.5 663.95 262.1 663.25 269.45 665.25 292.05 671.35 304.95 687.95 308.95 665.35 316.6 621.35 320.45 591.65 332.35 547 336.5 531.3 346.8 472.85 347.25 470.5 347.65 468 350.3 457.8 353.5 417.95 354.7 402.85 356 383.35 314 402.45 272.9 406.4
M 253.1 417.2
Q 283.7 408.35 310.65 406.9 329.15 406.75 337.35 415.35 341.7 413.3 343.9 415.8 352.4 423.9 351.45 429.7 346.8 433.6 344 434.7 343.95 436.15 343.9 437.7 343.75 440.65 336.05 484.65 336.1 487.35 335.05 490.55 332.7 503.9 329.75 520.65 329.4 522.85 314.15 594.4 314.35 595.9 314.55 597.45 314.35 606.55 312.3 613.85 312.25 614.1 312.2 614.35 311.65 616.15 311.1 617.75 311.35 622.7 307.25 629.45 306.1 631 304.9 632.35 301.35 643.65 295 651.4 296.35 651.6 297.25 652.65 305.75 660.8 304.85 666.55 297.3 672.9 294.65 671.85 287.1 670.15 287.05 666.85 286.95 663.55 286 661.8 285.3 660.7 285.15 659.7 269.45 666.5 240.45 655.7 211.55 643.7 176.35 612.3 122.4 562.9 97.75 522 79.8 494.35 85.25 476.75 88.75 465.3 116 452.65 125.85 448 141.9 443.6 142.45 443.2 143.05 442.75
L 143.45 443.2
Q 165.8 437.25 199.7 431.7 228.3 425.95 253.1 417.2 Z"/>

<path fill="#452403" stroke="none" d="
M 337.35 415.35
Q 336.15 415.9 334.85 416.85 333.4 417.85 332.1 420.45 331.15 422.45 332.6 424.9 333.6 426.65 333.65 429.95 333.75 433.3 341.3 434.95 342.3 435.35 344 434.7 346.8 433.6 351.45 429.7 352.4 423.9 343.9 415.8 341.7 413.3 337.35 415.35
M 336.1 418.15
Q 337.4 417.25 338.55 416.7 342.05 415.25 343.8 417.2 351 424.2 350.2 429.05 346.3 432.3 343.9 433.3 342.45 433.9 341.6 433.55 335.15 432.1 335.1 429.3 335 426.5 334.15 425.05 332.95 422.9 333.75 421.2 334.85 419 336.1 418.15
M 297.25 652.65
Q 296.35 651.6 295 651.4 292.4 650.95 288.15 653.7 286.75 654.75 285.5 657.3 284.95 658.4 285.15 659.7 285.3 660.7 286 661.8 286.95 663.55 287.05 666.85 287.1 670.15 294.65 671.85 297.3 672.9 304.85 666.55 305.75 660.8 297.25 652.65
M 289.45 655
Q 291.7 653.5 293.5 653.1 295.8 652.6 297.2 654.1 304.35 661.1 303.55 665.95 297.15 671.35 294.95 670.45 288.5 669 288.45 666.15 288.45 663.3 287.6 661.95 286.6 660.25 286.85 658.85 286.95 658.5 287.1 658.05 288.2 655.9 289.45 655
M 190.6 601.35
Q 189.15 602.35 187.85 604.95 186.9 606.95 188.4 609.45 189.4 611.2 189.45 614.4 189.5 617.8 197.05 619.45 199.7 620.55 207.25 614.2 208.2 608.45 199.7 600.3 196.85 597.15 190.6 601.35
M 189.55 605.7
Q 190.65 603.5 191.9 602.65 197.2 599.05 199.6 601.75 206.8 608.7 206 613.6 199.55 619 197.3 618.05 190.95 616.65 190.85 613.8 190.8 611 189.95 609.5 188.7 607.4 189.55 605.7
M 95 474.15
Q 94.05 476.2 95.55 478.65 96.5 480.45 96.55 483.7 96.6 487.05 104.2 488.7 106.8 489.75 114.35 483.4 115.35 477.7 106.8 469.5 104.05 466.35 97.75 470.6 96.25 471.6 95 474.15
M 97.1 478.8
Q 95.85 476.6 96.7 474.95 97.75 472.8 99 471.9 104.3 468.3 106.7 470.95 113.95 477.95 113.1 482.75 106.7 488.2 104.5 487.3 98.05 485.85 98 483.05 97.95 480.2 97.1 478.8
M 307.75 528.15
Q 306.3 529.2 304.95 531.75 304.05 533.75 305.5 536.2 306.45 537.95 306.55 541.25 306.6 544.6 314.15 546.3 316.85 547.35 324.35 541 325.3 535.25 316.8 527.1 313.95 523.95 307.75 528.15
M 307.95 540.55
Q 307.95 537.8 307.1 536.3 305.8 534.2 306.65 532.5 307.75 530.3 309 529.45 314.3 525.9 316.7 528.55 323.9 535.5 323.1 540.35 316.7 545.75 314.5 544.85 308 543.4 307.95 540.55
M 228.55 532.3
Q 227.1 533.3 225.8 535.9 224.8 537.9 226.3 540.35 227.3 542.1 227.35 545.4 227.4 548.75 235 550.4 237.65 551.45 245.2 545.1 246.1 539.4 237.65 531.25 234.8 528.1 228.55 532.3
M 227.9 540.5
Q 226.65 538.3 227.45 536.65 228.55 534.5 229.8 533.55 235.1 530 237.5 532.7 244.7 539.65 243.9 544.5 237.5 549.9 235.25 548.95 228.85 547.6 228.75 544.75 228.7 541.9 227.9 540.5
M 228 443.55
Q 226.1 439.75 218.9 442.2 217.3 442.8 215.35 444.95 213.9 446.65 214.7 449.4 215.25 451.35 214.45 454.55 213.65 457.8 220.5 461.35 222.8 463.1 231.7 458.95 234.1 453.6 228 443.55
M 219.85 443.8
Q 225.9 441.7 227.55 444.9 232.7 453.45 230.65 458 223 461.55 221.2 460.1 215.3 457.05 215.95 454.3 216.65 451.6 216.2 449.9 215.55 447.6 216.75 446.1 218.4 444.35 219.85 443.8 Z"/>

<path fill="#6B4B22" stroke="none" d="
M 338.55 416.7
Q 337.4 417.25 336.1 418.15 334.85 419 333.75 421.2 332.95 422.9 334.15 425.05 335 426.5 335.1 429.3 335.15 432.1 341.6 433.55 342.45 433.9 343.9 433.3 346.3 432.3 350.2 429.05 351 424.2 343.8 417.2 342.05 415.25 338.55 416.7
M 293.5 653.1
Q 291.7 653.5 289.45 655 288.2 655.9 287.1 658.05 286.95 658.5 286.85 658.85 286.6 660.25 287.6 661.95 288.45 663.3 288.45 666.15 288.5 669 294.95 670.45 297.15 671.35 303.55 665.95 304.35 661.1 297.2 654.1 295.8 652.6 293.5 653.1
M 191.9 602.65
Q 190.65 603.5 189.55 605.7 188.7 607.4 189.95 609.5 190.8 611 190.85 613.8 190.95 616.65 197.3 618.05 199.55 619 206 613.6 206.8 608.7 199.6 601.75 197.2 599.05 191.9 602.65
M 96.7 474.95
Q 95.85 476.6 97.1 478.8 97.95 480.2 98 483.05 98.05 485.85 104.5 487.3 106.7 488.2 113.1 482.75 113.95 477.95 106.7 470.95 104.3 468.3 99 471.9 97.75 472.8 96.7 474.95
M 307.1 536.3
Q 307.95 537.8 307.95 540.55 308 543.4 314.5 544.85 316.7 545.75 323.1 540.35 323.9 535.5 316.7 528.55 314.3 525.9 309 529.45 307.75 530.3 306.65 532.5 305.8 534.2 307.1 536.3
M 227.45 536.65
Q 226.65 538.3 227.9 540.5 228.7 541.9 228.75 544.75 228.85 547.6 235.25 548.95 237.5 549.9 243.9 544.5 244.7 539.65 237.5 532.7 235.1 530 229.8 533.55 228.55 534.5 227.45 536.65
M 227.55 444.9
Q 225.9 441.7 219.85 443.8 218.4 444.35 216.75 446.1 215.55 447.6 216.2 449.9 216.65 451.6 215.95 454.3 215.3 457.05 221.2 460.1 223 461.55 230.65 458 232.7 453.45 227.55 444.9 Z"/>

<path fill="#533F00" stroke="none" d="
M 218.65 632.15
Q 218.85 632.85 219.15 633.4 222.05 640.4 225 643.25 229.2 647.2 233 647.7 238.5 648.5 241.2 645
L 240.05 642 239.6 641.05
Q 239.4 641.1 239.15 641.2 238.4 641.45 237.5 641.65 228.2 640.6 226.05 633.65
L 224.75 628.8 218.65 632.15
M 225.85 642.95
Q 225.4 642.5 225.05 642.05 221.45 637.8 219.85 632.95
L 223.85 630.7
Q 225.15 636.8 228.35 639.35 233.7 643.65 238.1 642.65 239.2 642.4 239.2 641.85
L 240.4 645.1
Q 237.1 647.55 233.25 646.9 229.7 646.3 225.85 642.95
M 143.05 442.75
Q 142.45 443.2 141.9 443.6 141.8 443.7 141.75 443.75 134.15 449.5 131.75 454 128.3 460.45 128.9 465.05 129.5 469.85 132 472.3 133.25 473.5 134.75 474.15
L 139.2 470.95
Q 138.4 470 137.75 468.6 137.75 468.55 137.75 468.5 135.9 457 143.65 452.15
L 149.05 449.05 143.45 443.2 143.05 442.75
M 132.4 454.9
Q 132.8 454.3 133.15 453.7 137.2 448 142.55 444.45
L 146.45 448.5
Q 139.5 452.1 137.5 456.8 134.2 464.35 136.5 469.25 136.6 469.4 136.75 469.7 137.4 470.9 138 470.7
L 134.5 473.25
Q 133.55 472.45 132.9 471.7 130.3 468.9 129.95 465.2 129.55 460.7 132.4 454.9
M 293.3 541.2
L 291.8 537.15
Q 290.85 537.55 289.65 537.75 280.35 536.75 278.2 529.8
L 276.9 524.95 270.8 528.3
Q 271 528.95 271.25 529.55 274.15 536.55 277.1 539.35 281.4 543.35 285.15 543.8 290.6 544.65 293.3 541.2
M 291.35 537.95
L 292.55 541.25
Q 289.15 543.75 285.4 543.05 281.9 542.45 278 539.05 277.55 538.65 277.2 538.15 273.6 533.95 272 529.05
L 275.95 526.9
Q 277.2 532.95 280.45 535.5 285.85 539.8 290.3 538.75 291.35 538.5 291.35 537.95
M 180.85 581.1
Q 180.95 581.1 181 581.1 189.75 584.85 194.9 584.65 202.2 584.45 205.85 581.6 209.75 578.7 210.6 575.25 211 573.7 210.75 571.95
L 205.9 569.75
Q 205.35 570.9 204.5 572.2 204.45 572.2 204.45 572.25 195.4 579.55 187.25 575.25
L 181.9 572.1 179.45 580.5
Q 180.2 580.85 180.85 581.1
M 195.35 583.65
Q 194.6 583.6 193.9 583.6 186.95 583 181.25 580.05
L 182.8 574.65
Q 189.3 578.9 194.4 578.25 202.6 577.35 205.65 572.95 205.85 572.7 205.95 572.5 206.7 571.35 206.15 570.95
L 210.1 572.65
Q 210 573.85 209.6 574.85 208.5 578.45 205.45 580.6 201.8 583.2 195.35 583.65
M 244.8 490.75
Q 244 490.4 243.3 490.1 234.6 486.5 229.45 486.65 222.1 486.8 218.45 489.7 216.95 490.8 215.9 492 215.7 492.3 215.45 492.6 213.05 495.7 213.55 499.35
L 217.8 501.3 218.45 501.55
Q 218.75 500.85 219.15 500.05 219.45 499.6 219.85 499.1 228.9 491.75 237 496.05
L 242.45 499.25 244.85 490.8
Q 244.8 490.8 244.8 490.75
M 216.1 493.5
Q 217.15 491.9 218.9 490.7 222.5 488.1 228.95 487.65 229.65 487.65 230.4 487.75 237.35 488.35 243 491.25
L 241.55 496.6
Q 235.05 492.4 229.9 493 221.8 493.9 218.7 498.3 218.55 498.5 218.4 498.75 217.65 500 218.15 500.4
L 214.2 498.6
Q 214.6 495.7 216.1 493.5
M 320.75 415.15
Q 320.25 414.7 319.7 414.3 313.65 409.65 309.7 408.65 304.05 407.35 300.55 408.85 295.8 410.7 294.9 414.6 294.75 414.95 294.75 415.25
L 298.1 417.95
Q 298.55 417.4 299.25 416.75 299.4 416.55 299.7 416.4 308.2 412.55 313.6 417.55
L 317.15 421.15 320.75 415.15
M 319.25 415.15
L 317 418.9
Q 312.85 414.35 308.7 413.75 301.85 412.65 298.65 415.8 298.4 416 298.25 416.2 297.85 416.7 298.15 417.05
L 295.4 414.8
Q 297.05 411 300.7 409.7 304.05 408.45 309.15 409.4 309.65 409.55 310.2 409.8 315.45 411.7 319.25 415.15 Z"/>

<path fill="#406E3E" stroke="none" d="
M 225.05 642.05
Q 225.4 642.5 225.85 642.95 229.7 646.3 233.25 646.9 237.1 647.55 240.4 645.1
L 239.2 641.85
Q 239.2 642.4 238.1 642.65 233.7 643.65 228.35 639.35 225.15 636.8 223.85 630.7
L 219.85 632.95
Q 221.45 637.8 225.05 642.05
M 133.15 453.7
Q 132.8 454.3 132.4 454.9 129.55 460.7 129.95 465.2 130.3 468.9 132.9 471.7 133.55 472.45 134.5 473.25
L 138 470.7
Q 137.4 470.9 136.75 469.7 136.6 469.4 136.5 469.25 134.2 464.35 137.5 456.8 139.5 452.1 146.45 448.5
L 142.55 444.45
Q 137.2 448 133.15 453.7
M 292.55 541.25
L 291.35 537.95
Q 291.35 538.5 290.3 538.75 285.85 539.8 280.45 535.5 277.2 532.95 275.95 526.9
L 272 529.05
Q 273.6 533.95 277.2 538.15 277.55 538.65 278 539.05 281.9 542.45 285.4 543.05 289.15 543.75 292.55 541.25
M 193.9 583.6
Q 194.6 583.6 195.35 583.65 201.8 583.2 205.45 580.6 208.5 578.45 209.6 574.85 210 573.85 210.1 572.65
L 206.15 570.95
Q 206.7 571.35 205.95 572.5 205.85 572.7 205.65 572.95 202.6 577.35 194.4 578.25 189.3 578.9 182.8 574.65
L 181.25 580.05
Q 186.95 583 193.9 583.6
M 218.9 490.7
Q 217.15 491.9 216.1 493.5 214.6 495.7 214.2 498.6
L 218.15 500.4
Q 217.65 500 218.4 498.75 218.55 498.5 218.7 498.3 221.8 493.9 229.9 493 235.05 492.4 241.55 496.6
L 243 491.25
Q 237.35 488.35 230.4 487.75 229.65 487.65 228.95 487.65 222.5 488.1 218.9 490.7
M 317 418.9
L 319.25 415.15
Q 315.45 411.7 310.2 409.8 309.65 409.55 309.15 409.4 304.05 408.45 300.7 409.7 297.05 411 295.4 414.8
L 298.15 417.05
Q 297.85 416.7 298.25 416.2 298.4 416 298.65 415.8 301.85 412.65 308.7 413.75 312.85 414.35 317 418.9 Z"/>

<path fill="#C13635" stroke="none" d="
M 288.75 553.75
Q 287.4 553.4 286 553.35 281.8 552.15 277.8 551.75 255.05 552 240.9 568.2 218.2 594.9 234.75 621.2 254.75 646.75 281.3 640.55 281.4 640.55 281.5 640.5
L 283 640
Q 286.7 639.6 291.85 636.9 317.2 617.85 311.9 591.6 310.15 571.65 288.75 553.75
M 267 571.8
Q 266.9 570.95 267.7 570.4 268.45 569.7 269.2 569.1 269.95 568.55 271.3 569.45 272.6 570.4 272.85 571.45 273.05 572.55 272.15 573.3 271.2 573.95 270.45 574.2 269.75 574.45 268.4 573.55 267.1 572.6 267 571.8
M 268.45 588.15
Q 271.3 587.85 271.3 590.1 271.3 592.4 269.75 594.55 268.25 596.75 266.15 597.5 264.05 598.35 262.5 597.3 261.05 596.25 261.05 594 261.1 591.7 261.8 590.25 262.55 588.85 264.05 588.65 265.55 588.45 268.45 588.15
M 288.25 583.85
Q 286.75 582.8 287.6 581.6 288.4 580.4 287.4 577.85 286.35 575.3 288.45 575.25 290.55 575.2 292.35 576.3 294.15 577.45 294.1 578.45 293.95 579.4 293.9 582.1 293.85 584.8 291.75 584.85 289.65 584.9 288.25 583.85
M 264.8 564.6
Q 250.2 570.9 237.1 587.95 248.2 565.55 264.8 564.6
M 291.5 599.25
Q 291.85 600.85 290.5 601.9 289.15 603 287.05 602.85 284.85 602.8 284.4 602.5 284.05 602.25 283.75 600.65 283.5 599.1 285 598.8 286.55 598.5 287.55 597.05 288.55 595.75 289.9 596.65 291.2 597.6 291.5 599.25
M 283.8 613.7
Q 284.7 614.3 284.9 615.35 285.05 616.4 284.45 617.3 283.85 618.15 282.8 618.35 281.75 618.5 280.9 617.9 280 617.35 279.85 616.25 279.6 615.2 280.25 614.35 280.85 613.5 281.9 613.25 282.95 613.1 283.8 613.7
M 265.7 615.1
Q 267.6 615.05 268.9 615.95 270.1 616.8 270.8 618.65 271.5 620.45 271 622.1 270.55 623.7 268.65 623.7 266.85 623.8 265.7 622.65 264.55 621.55 264.05 619.8 263.5 618 263.7 616.6 263.8 615.15 265.7 615.1
M 248.4 596.7
Q 249.95 595.45 251.35 596.15 252.7 596.8 252.55 598.55 252.4 600.3 250.7 601.75 249 603.25 248.3 603.75 247.55 604.2 246.05 603.1 244.5 602.1 244.15 600.25 243.8 598.4 245.4 598.15 246.9 597.85 248.4 596.7
M 286 633.75
Q 305.55 611.55 301.25 591.9 311.35 614.4 286 633.75
M 215.45 492.6
Q 213.35 488.9 210.8 485.8 193.75 469.1 171.2 470.65 134.55 473.7 127.35 505.45 123.2 539.3 147.55 554.4 147.65 554.5 147.75 554.5
L 149.25 555.25
Q 152.2 557.65 158.05 559.5 191.1 564.25 206.55 540.75 218.7 526.2 217.8 501.3
L 213.55 499.35
Q 213.05 495.7 215.45 492.6
M 191.5 492.35
Q 192.5 492.45 192.85 494.2 193.1 495.85 192.5 496.75 191.85 497.75 190.65 497.6 189.45 497.4 188.7 497.05 188 496.7 187.7 495.05 187.4 493.45 187.9 492.75 188.45 492.05 189.55 492.15 190.5 492.25 191.5 492.35
M 203.4 514.9
Q 203.85 517.1 203.1 517.75 202.3 518.35 200.25 520.35 198.2 522.35 196.65 520.8 195.05 519.3 194.7 517.45 194.45 515.55 195.95 515.3 197.35 515.05 198.55 512.4 199.7 509.7 201.3 511.25 202.9 512.8 203.4 514.9
M 173.25 503
Q 174.5 504.05 176.9 505.9 179.2 507.85 177.5 509.5 175.8 511.2 173.1 511.65 170.4 512.15 168.2 511.15 166 510.2 165.7 508.35 165.3 506.5 167.05 504.8 168.7 503.1 170.4 502.55 171.95 502.1 173.25 503
M 179.7 530.6
Q 178.2 528.95 178.1 528.5 178 528 178.95 526.6 179.9 525.25 181.25 526.15 182.6 527 184.35 526.8 186.2 526.5 186.4 528.2 186.75 529.9 185.8 531.3 184.8 532.7 183.05 532.55 181.25 532.35 179.7 530.6
M 166.2 534.15
Q 167.2 534 168.2 534.6 169.15 535.2 169.35 536.3 169.5 537.4 168.9 538.35 168.2 539.25 167.2 539.45 166.05 539.7 165.15 539 164.15 538.35 164 537.3 163.8 536.2 164.5 535.25 165.1 534.35 166.2 534.15
M 152.35 496.2
Q 153.65 497.15 155.7 497.4 157.65 497.6 158.25 499.15 158.8 500.65 157.35 501.85 155.9 503.05 153.55 502.85 151.2 502.7 150.3 502.55 149.45 502.35 149.1 500.4 148.75 498.45 149.85 496.9 151 495.25 152.35 496.2
M 150.15 526.2
Q 151 524.45 152.2 523.55 153.4 522.55 154.8 523.9 156.25 525.25 156.5 526.85 156.8 528.5 155.95 530.3 155.1 532.2 153.6 533 152.05 533.9 150.65 532.55 149.2 531.15 149.15 529.5 149.2 527.85 150.15 526.2
M 191.6 485.75
Q 176.1 479.55 153.7 482.55 178.6 474.15 191.6 485.75
M 156.05 552.85
Q 187 550.85 198.45 533.05 189.25 557.25 156.05 552.85
M 307.05 421.5
Q 305.6 421.3 304.3 421.3 300 420.6 295.95 420.6 273.4 423.15 261 440.8 241.2 469.7 260.35 494.15 282.9 517.5 308.7 508.5 308.8 508.5 308.9 508.5
L 310.35 507.8
Q 313.9 507.05 318.85 503.9 342.1 482.3 334 456.7 330.2 437.05 307.05 421.5
M 291.35 438.9
Q 292.75 439.65 293.05 440.7 293.35 441.8 292.55 442.55 291.7 443.35 291 443.7 290.3 444.05 288.95 443.25 287.45 442.45 287.3 441.7 287.1 440.85 287.85 440.15 288.55 439.45 289.25 438.75 289.85 438.1 291.35 438.9
M 309 442.9
Q 311.05 442.6 313.05 443.55 314.95 444.5 314.95 445.45 314.95 446.4 315.15 449.15 315.4 451.8 313.25 452.15 311.2 452.35 309.65 451.4 308.15 450.5 308.85 449.25 309.5 448.05 308.25 445.6 306.95 443.15 309 442.9
M 268.55 470.1
Q 270 469.7 271.4 468.35 272.75 467 274.25 467.5 275.7 468 275.7 469.75 275.75 471.55 274.25 473.2 272.65 474.8 272 475.35 271.35 475.95 269.7 475.05 268.1 474.1 267.55 472.3 267.05 470.55 268.55 470.1
M 308 466.65
Q 309.5 466.2 310.35 464.7 311.25 463.2 312.65 464 314.1 464.8 314.55 466.35 315 467.95 313.8 469.2 312.6 470.35 310.4 470.45 308.25 470.6 307.8 470.4 307.4 470.2 307 468.6 306.55 467.15 308 466.65
M 290.45 457.75
Q 293.25 457.2 293.55 459.45 293.75 461.7 292.45 464 291.15 466.3 289.15 467.35 287.1 468.35 285.55 467.45 283.95 466.6 283.7 464.4 283.5 462.05 284.05 460.6 284.65 459.1 286.1 458.75 287.6 458.4 290.45 457.75
M 290.5 484.9
Q 292.4 484.6 293.75 485.4 295.1 486.15 295.95 487.9 296.75 489.6 296.5 491.25 296.2 492.95 294.4 493.2 292.5 493.4 291.3 492.35 290.05 491.4 289.35 489.7 288.65 488 288.65 486.55 288.65 485.15 290.5 484.9
M 306.45 481.4
Q 307.45 481.05 308.4 481.6 309.35 482.1 309.65 483.15 309.95 484.2 309.45 485.1 308.95 486 307.9 486.3 306.8 486.6 305.9 486.1 305 485.6 304.7 484.55 304.4 483.55 304.9 482.6 305.4 481.7 306.45 481.4
M 284.35 434.7
Q 270.5 442.55 259.25 460.85 267.95 437.4 284.35 434.7
M 312.7 501.35
Q 329.7 477.25 323.4 458.1 335.8 479.45 312.7 501.35 Z"/>

<path fill="#9C1011" stroke="none" d="
M 301.25 591.9
Q 305.55 611.55 286 633.75 311.35 614.4 301.25 591.9
M 237.1 587.95
Q 250.2 570.9 264.8 564.6 248.2 565.55 237.1 587.95
M 198.45 533.05
Q 187 550.85 156.05 552.85 189.25 557.25 198.45 533.05
M 153.7 482.55
Q 176.1 479.55 191.6 485.75 178.6 474.15 153.7 482.55
M 323.4 458.1
Q 329.7 477.25 312.7 501.35 335.8 479.45 323.4 458.1
M 259.25 460.85
Q 270.5 442.55 284.35 434.7 267.95 437.4 259.25 460.85 Z"/>

<path fill="#DA7946" stroke="none" d="
M 251.35 596.15
Q 249.95 595.45 248.4 596.7 246.9 597.85 245.4 598.15 243.8 598.4 244.15 600.25 244.5 602.1 246.05 603.1 247.55 604.2 248.3 603.75 249 603.25 250.7 601.75 252.4 600.3 252.55 598.55 252.7 596.8 251.35 596.15
M 268.9 615.95
Q 267.6 615.05 265.7 615.1 263.8 615.15 263.7 616.6 263.5 618 264.05 619.8 264.55 621.55 265.7 622.65 266.85 623.8 268.65 623.7 270.55 623.7 271 622.1 271.5 620.45 270.8 618.65 270.1 616.8 268.9 615.95
M 284.9 615.35
Q 284.7 614.3 283.8 613.7 282.95 613.1 281.9 613.25 280.85 613.5 280.25 614.35 279.6 615.2 279.85 616.25 280 617.35 280.9 617.9 281.75 618.5 282.8 618.35 283.85 618.15 284.45 617.3 285.05 616.4 284.9 615.35
M 290.5 601.9
Q 291.85 600.85 291.5 599.25 291.2 597.6 289.9 596.65 288.55 595.75 287.55 597.05 286.55 598.5 285 598.8 283.5 599.1 283.75 600.65 284.05 602.25 284.4 602.5 284.85 602.8 287.05 602.85 289.15 603 290.5 601.9
M 287.6 581.6
Q 286.75 582.8 288.25 583.85 289.65 584.9 291.75 584.85 293.85 584.8 293.9 582.1 293.95 579.4 294.1 578.45 294.15 577.45 292.35 576.3 290.55 575.2 288.45 575.25 286.35 575.3 287.4 577.85 288.4 580.4 287.6 581.6
M 271.3 590.1
Q 271.3 587.85 268.45 588.15 265.55 588.45 264.05 588.65 262.55 588.85 261.8 590.25 261.1 591.7 261.05 594 261.05 596.25 262.5 597.3 264.05 598.35 266.15 597.5 268.25 596.75 269.75 594.55 271.3 592.4 271.3 590.1
M 267.7 570.4
Q 266.9 570.95 267 571.8 267.1 572.6 268.4 573.55 269.75 574.45 270.45 574.2 271.2 573.95 272.15 573.3 273.05 572.55 272.85 571.45 272.6 570.4 271.3 569.45 269.95 568.55 269.2 569.1 268.45 569.7 267.7 570.4
M 152.2 523.55
Q 151 524.45 150.15 526.2 149.2 527.85 149.15 529.5 149.2 531.15 150.65 532.55 152.05 533.9 153.6 533 155.1 532.2 155.95 530.3 156.8 528.5 156.5 526.85 156.25 525.25 154.8 523.9 153.4 522.55 152.2 523.55
M 155.7 497.4
Q 153.65 497.15 152.35 496.2 151 495.25 149.85 496.9 148.75 498.45 149.1 500.4 149.45 502.35 150.3 502.55 151.2 502.7 153.55 502.85 155.9 503.05 157.35 501.85 158.8 500.65 158.25 499.15 157.65 497.6 155.7 497.4
M 168.2 534.6
Q 167.2 534 166.2 534.15 165.1 534.35 164.5 535.25 163.8 536.2 164 537.3 164.15 538.35 165.15 539 166.05 539.7 167.2 539.45 168.2 539.25 168.9 538.35 169.5 537.4 169.35 536.3 169.15 535.2 168.2 534.6
M 178.1 528.5
Q 178.2 528.95 179.7 530.6 181.25 532.35 183.05 532.55 184.8 532.7 185.8 531.3 186.75 529.9 186.4 528.2 186.2 526.5 184.35 526.8 182.6 527 181.25 526.15 179.9 525.25 178.95 526.6 178 528 178.1 528.5
M 176.9 505.9
Q 174.5 504.05 173.25 503 171.95 502.1 170.4 502.55 168.7 503.1 167.05 504.8 165.3 506.5 165.7 508.35 166 510.2 168.2 511.15 170.4 512.15 173.1 511.65 175.8 511.2 177.5 509.5 179.2 507.85 176.9 505.9
M 203.1 517.75
Q 203.85 517.1 203.4 514.9 202.9 512.8 201.3 511.25 199.7 509.7 198.55 512.4 197.35 515.05 195.95 515.3 194.45 515.55 194.7 517.45 195.05 519.3 196.65 520.8 198.2 522.35 200.25 520.35 202.3 518.35 203.1 517.75
M 192.85 494.2
Q 192.5 492.45 191.5 492.35 190.5 492.25 189.55 492.15 188.45 492.05 187.9 492.75 187.4 493.45 187.7 495.05 188 496.7 188.7 497.05 189.45 497.4 190.65 497.6 191.85 497.75 192.5 496.75 193.1 495.85 192.85 494.2
M 308.4 481.6
Q 307.45 481.05 306.45 481.4 305.4 481.7 304.9 482.6 304.4 483.55 304.7 484.55 305 485.6 305.9 486.1 306.8 486.6 307.9 486.3 308.95 486 309.45 485.1 309.95 484.2 309.65 483.15 309.35 482.1 308.4 481.6
M 293.75 485.4
Q 292.4 484.6 290.5 484.9 288.65 485.15 288.65 486.55 288.65 488 289.35 489.7 290.05 491.4 291.3 492.35 292.5 493.4 294.4 493.2 296.2 492.95 296.5 491.25 296.75 489.6 295.95 487.9 295.1 486.15 293.75 485.4
M 293.55 459.45
Q 293.25 457.2 290.45 457.75 287.6 458.4 286.1 458.75 284.65 459.1 284.05 460.6 283.5 462.05 283.7 464.4 283.95 466.6 285.55 467.45 287.1 468.35 289.15 467.35 291.15 466.3 292.45 464 293.75 461.7 293.55 459.45
M 310.35 464.7
Q 309.5 466.2 308 466.65 306.55 467.15 307 468.6 307.4 470.2 307.8 470.4 308.25 470.6 310.4 470.45 312.6 470.35 313.8 469.2 315 467.95 314.55 466.35 314.1 464.8 312.65 464 311.25 463.2 310.35 464.7
M 271.4 468.35
Q 270 469.7 268.55 470.1 267.05 470.55 267.55 472.3 268.1 474.1 269.7 475.05 271.35 475.95 272 475.35 272.65 474.8 274.25 473.2 275.75 471.55 275.7 469.75 275.7 468 274.25 467.5 272.75 467 271.4 468.35
M 313.05 443.55
Q 311.05 442.6 309 442.9 306.95 443.15 308.25 445.6 309.5 448.05 308.85 449.25 308.15 450.5 309.65 451.4 311.2 452.35 313.25 452.15 315.4 451.8 315.15 449.15 314.95 446.4 314.95 445.45 314.95 444.5 313.05 443.55
M 293.05 440.7
Q 292.75 439.65 291.35 438.9 289.85 438.1 289.25 438.75 288.55 439.45 287.85 440.15 287.1 440.85 287.3 441.7 287.45 442.45 288.95 443.25 290.3 444.05 291 443.7 291.7 443.35 292.55 442.55 293.35 441.8 293.05 440.7 Z"/>

<path fill="#FFFCCE" stroke="none" d="
M 234.55 561.55
Q 227.6 570.35 227 575.05 249.15 545.95 274.85 544.7 267 542.4 256.45 546.2 245.35 551.2 234.55 561.55
M 199.05 465.8
Q 187.15 461.25 171.45 461 159.7 462.4 155.75 465.4 193.85 460.3 213.85 478.4 209.8 470.9 199.05 465.8
M 274.15 417.35
Q 263.6 423.4 253.95 434.8 247.95 444.35 247.85 449.05 266.9 417.85 292.25 413.9 284.3 412.4 274.15 417.35 Z"/>

<path fill="#F1B226" stroke="none" d="
M 234.55 561.55
Q 233.2 562.9 231.7 564.35 205.75 593.05 221.3 619.25 229.8 633 239.15 641.2 239.4 641.1 239.6 641.05
L 240.05 642
Q 252.8 652.85 267.05 653.65 278.9 652.9 289.45 646.2 296.1 642 302.15 635.5 303.5 634 304.9 632.35 306.1 631 307.25 629.45 311.35 622.7 311.1 617.75 307.95 626.25 301.9 631.9 295.85 637.75 287.9 641.6 269 651.5 245.2 635.6 230.5 626.6 225.8 611.3 220.9 579.8 244.9 562 259.95 549.8 277.8 551.75 281.8 552.15 286 553.35 281.45 546.75 274.85 544.7 249.15 545.95 227 575.05 227.6 570.35 234.55 561.55
M 171.45 461
Q 169.4 460.95 167.25 461.05 149.3 461.9 137.75 468.5 137.75 468.55 137.75 468.6 138.4 470 139.2 470.95
L 134.75 474.15
Q 133.25 473.5 132 472.3 122.2 480.35 118.8 494.05 109.45 533.75 127.2 553.55 136.55 561.85 149.4 564.7 157.35 566.45 166.7 566.1 168.9 566.05 171.15 565.85 173 565.7 175.05 565.45 183.1 563.45 186.5 559.55 177.9 563.6 169.25 563.35 160.35 563.1 151.6 560.1 130.25 553.35 124.4 523.9 120.15 506.35 128.05 491.45 147.75 464.4 178.8 469.05 199.05 471.15 210.8 485.8 213.35 488.9 215.45 492.6 215.7 492.3 215.9 492 217.05 484.4 213.85 478.4 193.85 460.3 155.75 465.4 159.7 462.4 171.45 461
M 298.1 417.95
L 294.75 415.25
Q 294.75 414.95 294.9 414.6 293.6 414.15 292.25 413.9 266.9 417.85 247.85 449.05 247.95 444.35 253.95 434.8 252.7 436.35 251.45 437.9 230 467.35 244.8 490.75 244.8 490.8 244.85 490.8 245.7 492.25 246.75 493.65 270.55 524.3 295.85 523.05 307.55 521.05 317.4 513.35 323.5 508.5 328.85 501.4 330.05 499.7 331.3 498 332.35 496.45 333.35 494.8 334.4 492.6 335.05 490.55 336.1 487.35 336.05 484.65 336.05 483.7 335.9 482.85 333.65 491.6 328.3 497.85 322.8 504.25 315.35 508.95 297.6 520.7 272.3 507.35 256.75 499.95 250.45 485.2 242.3 454.45 264.35 434.2 278.05 420.5 295.95 420.6 300 420.6 304.3 421.3 301.95 418.6 299.25 416.75 298.55 417.4 298.1 417.95 Z"/>

<path fill="#FFD765" stroke="none" d="
M 246.75 493.65
Q 245.7 492.25 244.85 490.8
L 242.45 499.25 237 496.05
Q 228.9 491.75 219.85 499.1 219.45 499.6 219.15 500.05 221.9 511.5 213.25 533.8 210.25 539 206.15 544.5 205.2 545.8 204.2 547.05 197.3 553.7 190.4 557.6 190.1 557.75 189.95 557.85 188.25 558.8 186.5 559.55 183.1 563.45 175.05 565.45 173 565.7 171.15 565.85 168.9 566.05 166.7 566.1 157.35 566.45 149.4 564.7 136.55 561.85 127.2 553.55 109.45 533.75 118.8 494.05 122.2 480.35 132 472.3 129.5 469.85 128.9 465.05 128.3 460.45 131.75 454 134.15 449.5 141.75 443.75 141.8 443.7 141.9 443.6 125.85 448 116 452.65 88.75 465.3 85.25 476.75 79.8 494.35 97.75 522 122.4 562.9 176.35 612.3 211.55 643.7 240.45 655.7 269.45 666.5 285.15 659.7 284.95 658.4 285.5 657.3 286.75 654.75 288.15 653.7 292.4 650.95 295 651.4 301.35 643.65 304.9 632.35 303.5 634 302.15 635.5 296.1 642 289.45 646.2 278.9 652.9 267.05 653.65 252.8 652.85 240.05 642
L 241.2 645
Q 238.5 648.5 233 647.7 229.2 647.2 225 643.25 222.05 640.4 219.15 633.4 218.85 632.85 218.65 632.15
L 224.75 628.8 226.05 633.65
Q 228.2 640.6 237.5 641.65 238.4 641.45 239.15 641.2 229.8 633 221.3 619.25 205.75 593.05 231.7 564.35 233.2 562.9 234.55 561.55 245.35 551.2 256.45 546.2 267 542.4 274.85 544.7 281.45 546.75 286 553.35 287.4 553.4 288.75 553.75 300.45 556.9 311.7 582.4 313.2 587.95 314.15 594.4 329.4 522.85 329.75 520.65 332.7 503.9 335.05 490.55 334.4 492.6 333.35 494.8 332.35 496.45 331.3 498 330.05 499.7 328.85 501.4 323.5 508.5 317.4 513.35 307.55 521.05 295.85 523.05 270.55 524.3 246.75 493.65
M 225.8 535.9
Q 227.1 533.3 228.55 532.3 234.8 528.1 237.65 531.25 246.1 539.4 245.2 545.1 237.65 551.45 235 550.4 227.4 548.75 227.35 545.4 227.3 542.1 226.3 540.35 224.8 537.9 225.8 535.9
M 181 581.1
Q 180.95 581.1 180.85 581.1 180.2 580.85 179.45 580.5
L 181.9 572.1 187.25 575.25
Q 195.4 579.55 204.45 572.25 204.45 572.2 204.5 572.2 205.35 570.9 205.9 569.75
L 210.75 571.95
Q 211 573.7 210.6 575.25 209.75 578.7 205.85 581.6 202.2 584.45 194.9 584.65 189.75 584.85 181 581.1
M 291.8 537.15
L 293.3 541.2
Q 290.6 544.65 285.15 543.8 281.4 543.35 277.1 539.35 274.15 536.55 271.25 529.55 271 528.95 270.8 528.3
L 276.9 524.95 278.2 529.8
Q 280.35 536.75 289.65 537.75 290.85 537.55 291.8 537.15
M 304.95 531.75
Q 306.3 529.2 307.75 528.15 313.95 523.95 316.8 527.1 325.3 535.25 324.35 541 316.85 547.35 314.15 546.3 306.6 544.6 306.55 541.25 306.45 537.95 305.5 536.2 304.05 533.75 304.95 531.75
M 95.55 478.65
Q 94.05 476.2 95 474.15 96.25 471.6 97.75 470.6 104.05 466.35 106.8 469.5 115.35 477.7 114.35 483.4 106.8 489.75 104.2 488.7 96.6 487.05 96.55 483.7 96.5 480.45 95.55 478.65
M 187.85 604.95
Q 189.15 602.35 190.6 601.35 196.85 597.15 199.7 600.3 208.2 608.45 207.25 614.2 199.7 620.55 197.05 619.45 189.5 617.8 189.45 614.4 189.4 611.2 188.4 609.45 186.9 606.95 187.85 604.95
M 319.7 414.3
Q 320.25 414.7 320.75 415.15
L 317.15 421.15 313.6 417.55
Q 308.2 412.55 299.7 416.4 299.4 416.55 299.25 416.75 301.95 418.6 304.3 421.3 305.6 421.3 307.05 421.5 319.05 423.4 332.9 447.55 334.95 452.9 336.55 459.25 336.95 460.7 337.25 462.25 338.05 471.3 336.8 478.8 336.7 479.05 336.7 479.3 336.35 481.1 335.9 482.85 336.05 483.7 336.05 484.65 343.75 440.65 343.9 437.7 343.95 436.15 344 434.7 342.3 435.35 341.3 434.95 333.75 433.3 333.65 429.95 333.6 426.65 332.6 424.9 331.15 422.45 332.1 420.45 333.4 417.85 334.85 416.85 336.15 415.9 337.35 415.35 329.15 406.75 310.65 406.9 283.7 408.35 253.1 417.2 228.3 425.95 199.7 431.7 165.8 437.25 143.45 443.2
L 149.05 449.05 143.65 452.15
Q 135.9 457 137.75 468.5 149.3 461.9 167.25 461.05 169.4 460.95 171.45 461 187.15 461.25 199.05 465.8 209.8 470.9 213.85 478.4 217.05 484.4 215.9 492 216.95 490.8 218.45 489.7 222.1 486.8 229.45 486.65 234.6 486.5 243.3 490.1 244 490.4 244.8 490.75 230 467.35 251.45 437.9 252.7 436.35 253.95 434.8 263.6 423.4 274.15 417.35 284.3 412.4 292.25 413.9 293.6 414.15 294.9 414.6 295.8 410.7 300.55 408.85 304.05 407.35 309.7 408.65 313.65 409.65 319.7 414.3
M 218.9 442.2
Q 226.1 439.75 228 443.55 234.1 453.6 231.7 458.95 222.8 463.1 220.5 461.35 213.65 457.8 214.45 454.55 215.25 451.35 214.7 449.4 213.9 446.65 215.35 444.95 217.3 442.8 218.9 442.2 Z"/>
</g>

<path id="Layer3_0_1_STROKES" stroke="#000000" stroke-width="0.1" stroke-linejoin="round" stroke-linecap="round" fill="none" d="
M 16.5 472.8
Q 21.15 486.85 31.4 502.4 26.25 484.8 16.5 472.8 Z
M 276.2 713.05
Q 285.35 711.05 294.1 713.25 283.7 715.9 276.2 713.05 Z
M 73.1 579.9
Q 103.9 624.9 151.65 655.4 107.3 621.45 73.1 579.9 Z"/>
</defs>

<g transform="matrix( 1, 0, 0, 1, 0,0) ">
<use xlink:href="#Layer3_0_FILL"/>

<use xlink:href="#Layer3_0_1_STROKES"/>
</g>
</svg>
