
<svg xmlns="http://www.w3.org/2000/svg" version="1.1" xmlns:xlink="http://www.w3.org/1999/xlink" preserveAspectRatio="none" x="0px" y="0px" width="738px" height="746px" viewBox="0 0 738 746">
<defs>
<g id="Layer1_0_FILL">
<path fill="#060200" stroke="none" d="
M 710.3 352.55
Q 717.95 410.4 695.4 462.7 723 415.6 710.3 352.55
M 455.6 298.85
Q 454.25 300 452.9 301.3 452.75 301.45 452.55 301.7 447.2 307.05 442.6 314.9 442 316.3 441.45 317.75 439.1 323.85 437.65 329.45 435.05 357.15 443.75 365.65 433.8 339.55 442 321.35 450.25 295.75 481.65 291.55 487.55 291.8 490.85 293.2
L 492.45 293.5
Q 492.55 293.5 492.65 293.55 518.85 301.15 523.85 333.2 525.35 364.25 492.55 376.45 472.25 383.7 452.3 372.75 466.9 383.15 486 379.9 515.65 376.1 526.75 346.25 530.15 330.55 521.7 315.55 508.7 290.05 487.45 289.4 478.6 288.9 470.45 291 462.5 293 455.6 298.85
M 586.45 196.9
Q 577.7 195.5 569.35 196.7 561.2 197.9 553.75 203 552.3 204 550.85 205.15 550.65 205.3 550.45 205.5 544.55 210.25 539.15 217.6 538.45 218.95 537.75 220.35 534.8 226.15 532.75 231.5 527.3 258.85 535.05 268.2 527.9 241.2 537.95 223.9 548.75 199.35 580.5 198.45 586.25 199.25 589.4 201.05
L 590.95 201.5
Q 591.1 201.5 591.15 201.55 616.45 211.8 618.05 244.25 616.35 275.25 582.45 283.95 561.55 289.1 542.85 276.15 556.25 288 575.6 286.7 605.45 286.05 619.65 257.5 624.6 242.25 617.8 226.45 607.55 199.75 586.45 196.9
M 650.65 348.9
Q 650.7 349 650.7 349.15 661.9 375.5 639 400.75 614.75 422.55 583.05 403.85 563.75 392.15 559.5 368.6 560.65 387.4 575.9 400.8 598.6 422.5 630.3 411.75 645.35 404.15 652 387.35 664.2 359.95 650.7 342.15 645.25 334.6 638.15 329.3 631.25 324.15 621.85 322.4 620.05 322.05 618.15 321.8 617.9 321.8 617.6 321.8 609.7 321 600.2 322.4 598.65 322.9 597.15 323.4 590.6 325.5 585.15 328 565.3 341.25 560.85 352.15 561.65 351.8 562.35 351.35
L 562.7 352
Q 576.35 331.1 594.65 326.2 620.85 315.95 645.15 338.85 648.85 343.75 649.8 347.45
L 650.65 348.9
M 684.2 293.55
Q 686 268.35 667.6 253 652.85 240.15 652.2 223.95 651.3 210.4 642.6 203.2 638.25 199.65 632.7 196.5 630.4 195.15 627.9 194 607.35 180.55 601.4 160.65 599.75 155.15 599.25 149.2 600.2 170.25 615.1 188.2 620 194.1 629.05 199.7 646.15 207.05 647.1 229.3 648.4 246.9 663.5 257.45 679.5 270.1 678.25 293.4 676.15 311.35 675.6 325.8 675.6 346.05 683.65 365.85 692.15 392.4 685.05 415.05 681.5 426.35 677.05 438.95 660.15 465.95 674.75 490.95 673.55 488.2 672.65 485.6 667 468.95 672.7 455.55 678.6 445.6 680.8 438.4 683.65 429.1 686.1 423.3 698.5 393.6 687.55 358.2 678.55 328.3 684.2 293.55
M 673.3 215.95
Q 671.75 213.35 670.25 210.8 670.1 210.6 669.95 210.4 651.15 180.05 627.5 163.15 653.75 187.45 666 209.15 687.05 241.5 692.1 273.35 692.05 272 691.95 270.7 691.9 270.6 691.9 270.5 689.6 245.75 673.3 215.95
M 650.2 140.85
Q 670.45 169.55 672.2 172.45 685.05 194 690.1 203.35 691.35 205.75 692.05 207.3 706.2 236.8 711.1 251.35 711.8 253.55 712.55 255.7 721.6 283.25 725.1 302 726.15 308.7 727.05 314.95 730.5 339.15 731.85 356.95 731.9 357.85 732 358.7 732.3 363.55 732.55 368.05 732.8 375.4 732.65 381.3 732.15 396.15 731.75 407.9 731.15 425.05 730.7 435.6 730.35 443.6 729.5 449.95 727.6 463.45 727.25 473.1 727.3 480.6 725.8 487.65 724.5 490.2 723.1 492.25 722.3 493.35 721.5 494.3 717.6 498.9 712.45 500.55 706.9 501.8 700.7 500.65 697.35 500 693.85 498.65 684.85 495.75 674.75 490.95 674.15 490.65 673.5 490.3 667.85 487.55 661.85 484.2 649.5 477.4 637.7 471.4 624 464.5 611.05 458.7 608.4 457.55 605.8 456.4 597.1 452.6 588.75 449.45 569.05 441.8 551.35 437.25 534 431.7 515.5 423.8 496.4 415.6 476 404.8 469.5 401.4 462.95 397.65 427.1 377.15 381.75 368.5 424.4 381.6 456.55 399.8 475.9 410.65 507.95 426.55 534.5 439.9 579.45 452.8 597.3 455.85 631.75 473.6 644.9 480.4 669.55 491.75 685.35 499.25 700.05 502.05 712.5 504.4 722.35 496.65 723.75 495.6 724.95 494.1 731.7 481.3 733.6 449.25
L 736.95 411.6
Q 741.8 370.5 733.15 314.5 729.05 287.95 717.8 253.8 710.95 235.75 693.85 202 678.9 172.3 643.95 130.55 635.4 120.3 622 125 615.25 127.2 606.2 136.3
L 547.15 193
Q 520.65 220.45 501 235.95 495.8 238.5 438.3 298.2 432.3 304.45 402.8 339 391.65 352.15 381.75 368.5 394.05 353.35 403.8 341.7 429.35 311 437.45 304.2 439.25 302.4 440.95 300.75 483.15 258.95 495.5 248.5 531 218.9 551.3 196.85 582.95 165.35 599.25 149.2 615.2 133.4 616.5 132.2 631.6 119.3 643.3 131.2 646.9 134.8 650.2 140.85
M 637.25 145.25
Q 632.7 138.65 622.7 134.8 628.6 141.7 637.25 145.25
M 715.6 458.6
Q 709.65 475.95 710.65 491.4 714.95 477.25 715.6 458.6
M 705.65 264.25
Q 722.3 317.6 726.25 371.25 727.1 316.75 705.65 264.25 Z"/>

<path fill="#EDB53A" stroke="none" d="
M 678.25 293.4
Q 679.5 270.1 663.5 257.45 648.4 246.9 647.1 229.3 646.15 207.05 629.05 199.7 620 194.1 615.1 188.2 600.2 170.25 599.25 149.2 582.95 165.35 551.3 196.85 531 218.9 495.5 248.5 483.15 258.95 440.95 300.75 439.25 302.4 437.45 304.2 429.35 311 403.8 341.7 394.05 353.35 381.75 368.5 427.1 377.15 462.95 397.65 469.5 401.4 476 404.8 496.4 415.6 515.5 423.8 534 431.7 551.35 437.25 569.05 441.8 588.75 449.45 597.1 452.6 605.8 456.4 608.4 457.55 611.05 458.7 624 464.5 637.7 471.4 649.5 477.4 661.85 484.2 667.85 487.55 673.5 490.3 674.15 490.65 674.75 490.95 660.15 465.95 677.05 438.95 681.5 426.35 685.05 415.05 692.15 392.4 683.65 365.85 675.6 346.05 675.6 325.8 676.15 311.35 678.25 293.4
M 672.7 404.35
Q 671.4 437.25 656.8 448.45 647.3 455.8 617.75 450.4 607.05 448.55 591.45 442.9 590.7 442.9 589.95 442.95
L 589.85 442.3
Q 568.15 434.25 537.3 419.25 510.65 407.4 485.35 400.3 455.2 389.8 432.4 375.45 417.2 364.95 415.45 353.15 410.7 352.3 410.35 349.05 408.15 337.45 412.2 333.3 418.3 332.8 421.25 333.5 422.05 332.35 423 331.15 424.85 328.8 456.5 297.25 458.05 295.1 460.75 293.05 470.35 283.5 482.4 271.6 484 270 537.75 220.35 538.45 218.95 539.15 217.6 544.55 210.25 550.45 205.5 550.65 205.3 550.85 205.15 552.3 204 553.75 203 556.35 198.8 563.6 195.65 565.45 195.1 567.2 194.65 576.6 187.5 586.25 184.8 585.3 183.85 585.15 182.5 582.9 170.9 587 166.75 596.85 165.9 598.3 168.35 603.55 174 601.7 176.8 599.8 179.5 599.65 181.5 599.55 182.8 599.1 183.75 615.9 187.2 633.3 212.8 649.95 239.2 660.6 285.2 676.15 356.65 672.7 404.35 Z"/>

<path fill="#533F00" stroke="none" d="
M 616.05 425.1
Q 615.7 423.45 614.8 422
L 609.4 422.1
Q 609.45 423.35 609.2 424.85 609.2 424.9 609.15 424.95 604.05 435.35 594.85 434.9
L 588.65 434.25 589.85 442.3 589.95 442.95
Q 590.7 442.9 591.45 442.9 591.55 442.85 591.6 442.85 601.15 442.5 605.65 440.25 612.25 436.95 614.35 432.85 616.7 428.6 616.05 425.1
M 614.5 422.95
Q 614.85 424.05 615 425.1 615.5 428.9 613.55 432.1 611.35 436 605.65 439.15 605 439.4 604.35 439.65 597.75 442 591.4 441.8
L 590.55 436.2
Q 598.25 437.3 602.6 434.6 609.65 430.35 610.6 425.05 610.6 424.85 610.7 424.55 610.8 423.15 610.2 423
L 614.5 422.95
M 544 345.15
L 541.4 339.45 534.6 344.85 534.55 344.9
Q 534.55 344.95 534.6 345 535 345.7 535.45 346.35 540.45 354.4 544.75 357.2 550.8 361.25 555.5 361.05 557.35 360.95 558.9 360.6 559.25 360.55 559.6 360.4 563.3 359.25 565.1 356
L 562.7 352 562.35 351.35
Q 561.65 351.8 560.85 352.15 560.35 352.35 559.8 352.55 548.1 353.35 544 345.15
M 536.25 345.6
L 540.6 342.05
Q 543.5 349.25 548.05 351.75 555.2 355.7 560.25 353.9 560.5 353.8 560.75 353.7 562.05 353.1 561.9 352.45
L 564.1 356.25
Q 562.05 358.35 559.6 359.3 557.75 360 555.7 360 551.2 360 545.65 356.65 545.1 356.2 544.55 355.75 539.25 351.25 536.25 345.6
M 626.05 225.4
Q 626.8 225.6 627.55 226 634.65 232.15 632.35 239.15
L 630.6 243.8 637.5 244.6
Q 637.7 243.9 637.85 243.3 639.5 235.9 638.75 231.9 637.6 226.15 634.8 223.6 630.75 219.8 626.55 221.05
L 625.75 224.2 625.45 225.25
Q 625.75 225.3 626.05 225.4
M 627.65 224.8
Q 626.6 224.4 626.3 224.8
L 627.2 221.5
Q 631.4 221.35 634.1 224.1 636.6 226.65 637.9 231.65 637.95 232.25 637.95 232.8 638.45 238.4 636.95 243.2
L 632.5 242.75
Q 634.9 237.05 633.75 233.1 631.85 226.5 627.65 224.8
M 428.9 362.95
Q 429.1 363.6 429.3 364.2 431.5 371.45 434.25 374.55 438.1 378.85 441.75 379.7 446.75 380.9 449.7 378.25 450 378.05 450.2 377.85
L 449.05 373.65
Q 448.3 373.9 447.4 374 447.1 374.05 446.8 374.05 437.65 372.25 436.15 365.05
L 435.3 360.1 428.9 362.95
M 430.1 363.8
L 434.2 361.95
Q 434.95 368.1 437.9 370.95 442.9 375.8 447.35 375.1 447.65 375.1 447.85 375.05 448.45 374.8 448.45 374.4
L 449.45 377.8
Q 445.85 379.95 442.15 378.9 438.65 378 435.1 374.25 434.75 373.85 434.4 373.35 431.2 368.8 430.1 363.8
M 523 279.95
Q 523.95 280.2 525.05 280.7 532.1 286.9 529.85 293.85
L 528.1 298.55 535 299.35
Q 535.2 298.65 535.3 298 537 290.6 536.2 286.6 535.05 280.9 532.3 278.35 528.25 274.5 524.05 275.85
L 523 279.95
M 523.8 279.55
L 524.7 276.2
Q 528.85 276.1 531.55 278.8 534.1 281.35 535.35 286.35 535.45 286.95 535.45 287.55 535.95 293.1 534.45 298
L 529.95 297.5
Q 532.4 291.8 531.25 287.85 529.35 281.2 525.15 279.55 524.1 279.15 523.8 279.55
M 618.8 293.3
Q 613.95 293.4 611.25 295.75 610.05 296.75 609.2 298.3
L 611.95 302.9
Q 613 302.25 614.5 301.7
L 614.55 301.7
Q 626.15 300.95 630.3 309.15
L 632.85 314.85 639.75 309.4
Q 639.35 308.75 638.95 308.1 638.85 308.05 638.8 308 633.8 299.85 629.55 297.1 623.4 293.05 618.8 293.3
M 611.8 296.6
Q 614.85 294.3 618.55 294.3 623.05 294.3 628.6 297.6 629.15 298.1 629.7 298.55 635.05 303.05 638 308.7
L 633.65 312.2
Q 630.75 305 626.25 302.6 619 298.6 613.95 300.4 613.7 300.5 613.5 300.65 612.25 301.2 612.35 301.85
L 610.15 298.1
Q 610.95 297.25 611.8 296.6 Z"/>

<path fill="#406E3E" stroke="none" d="
M 615 425.1
Q 614.85 424.05 614.5 422.95
L 610.2 423
Q 610.8 423.15 610.7 424.55 610.6 424.85 610.6 425.05 609.65 430.35 602.6 434.6 598.25 437.3 590.55 436.2
L 591.4 441.8
Q 597.75 442 604.35 439.65 605 439.4 605.65 439.15 611.35 436 613.55 432.1 615.5 428.9 615 425.1
M 540.6 342.05
L 536.25 345.6
Q 539.25 351.25 544.55 355.75 545.1 356.2 545.65 356.65 551.2 360 555.7 360 557.75 360 559.6 359.3 562.05 358.35 564.1 356.25
L 561.9 352.45
Q 562.05 353.1 560.75 353.7 560.5 353.8 560.25 353.9 555.2 355.7 548.05 351.75 543.5 349.25 540.6 342.05
M 626.3 224.8
Q 626.6 224.4 627.65 224.8 631.85 226.5 633.75 233.1 634.9 237.05 632.5 242.75
L 636.95 243.2
Q 638.45 238.4 637.95 232.8 637.95 232.25 637.9 231.65 636.6 226.65 634.1 224.1 631.4 221.35 627.2 221.5
L 626.3 224.8
M 434.2 361.95
L 430.1 363.8
Q 431.2 368.8 434.4 373.35 434.75 373.85 435.1 374.25 438.65 378 442.15 378.9 445.85 379.95 449.45 377.8
L 448.45 374.4
Q 448.45 374.8 447.85 375.05 447.65 375.1 447.35 375.1 442.9 375.8 437.9 370.95 434.95 368.1 434.2 361.95
M 524.7 276.2
L 523.8 279.55
Q 524.1 279.15 525.15 279.55 529.35 281.2 531.25 287.85 532.4 291.8 529.95 297.5
L 534.45 298
Q 535.95 293.1 535.45 287.55 535.45 286.95 535.35 286.35 534.1 281.35 531.55 278.8 528.85 276.1 524.7 276.2
M 618.55 294.3
Q 614.85 294.3 611.8 296.6 610.95 297.25 610.15 298.1
L 612.35 301.85
Q 612.25 301.2 613.5 300.65 613.7 300.5 613.95 300.4 619 298.6 626.25 302.6 630.75 305 633.65 312.2
L 638 308.7
Q 635.05 303.05 629.7 298.55 629.15 298.1 628.6 297.6 623.05 294.3 618.55 294.3 Z"/>

<path fill="#FFFCCE" stroke="none" d="
M 552.7 372.95
Q 551.65 381.4 557.55 391.7 564.65 402.3 577.3 411.6 587.65 417.25 592.65 417.05 558.6 399.25 552.7 372.95
M 583.8 293.05
Q 594.55 289.9 597.75 286.4 562.85 297.35 541.2 283.6 546.2 290 557.1 293 569.05 295.3 583.8 293.05
M 451.45 380.35
Q 457.05 386.2 468.25 388.05 480.4 389.1 494.8 385.35 505.2 381.05 508 377.2 474.45 391.75 451.45 380.35 Z"/>

<path fill="#C13635" stroke="none" d="
M 591.15 201.55
Q 591.1 201.5 590.95 201.5
L 589.4 201.05
Q 586.25 199.25 580.5 198.45 548.75 199.35 537.95 223.9 527.9 241.2 535.05 268.2 536 269.25 537.05 270.1 539.8 273.45 542.85 276.15 561.55 289.1 582.45 283.95 616.35 275.25 618.05 244.25 616.45 211.8 591.15 201.55
M 588.9 222.6
Q 590.25 221.55 591.8 222.6 593.35 223.65 593.65 225.15 593.95 226.7 593.3 228.5 592.75 230.2 591.75 231.3 590.8 232.4 589.25 231.4 587.7 230.3 587.15 228.85 586.65 227.4 587.15 225.5 587.65 223.7 588.9 222.6
M 573.7 220.1
Q 574.2 219.1 575.2 218.75 576.2 218.4 577.15 218.85 578.1 219.3 578.5 220.3 578.85 221.3 578.4 222.25 577.95 223.2 576.95 223.6 575.95 223.95 575 223.5 574 223.05 573.65 222.05 573.3 221.05 573.7 220.1
M 574.05 245.75
Q 576.55 244.9 578.75 245.45 580.95 246 581.55 247.7 582.2 249.45 580.85 251.3 579.55 253.15 578.1 253.85 576.65 254.65 575.35 253.9 574 253.2 571.45 251.8 568.9 250.4 570.25 248.55 571.6 246.65 574.05 245.75
M 590.05 255.15
Q 589.35 253.8 590.45 252.5 591.6 251.15 593.85 250.9 596.05 250.7 596.9 250.75 597.8 250.7 598.4 252.45 599.05 254.25 598.3 255.95 597.45 257.6 596.05 256.95 594.65 256.3 592.75 256.4 590.8 256.5 590.05 255.15
M 564.05 233.5
Q 562.65 232.9 561.05 233.45 559.4 234 558.85 232.45 558.3 230.9 559 229.4 559.7 227.95 561.35 227.85 563.1 227.7 564.8 229.05 566.5 230.35 566.65 230.8 566.85 231.3 566.15 232.75 565.5 234.15 564.05 233.5
M 550.55 241
Q 552.25 242.2 552.8 243.9 553.35 245.6 552.05 246.1 550.7 246.55 550.05 249.25 549.4 251.95 547.7 250.75 545.9 249.6 545.1 247.65 544.35 245.65 544.9 244.9 545.55 244.15 547.15 242 548.8 239.85 550.55 241
M 561.7 262.05
Q 562.5 262.2 563.05 263.75 563.6 265.25 563.2 266 562.8 266.7 561.8 266.8 560.8 266.85 559.85 266.9 558.9 266.9 558.35 265.45 557.8 263.9 558.25 262.9 558.75 261.85 559.85 261.85 561 261.8 561.7 262.05
M 560.85 273.15
Q 576.4 276.4 596.95 270.05 574.95 281.9 560.85 273.15
M 583.4 204.4
Q 554.7 211.25 546.85 229.8 551.6 205.6 583.4 204.4
M 445.9 367.35
Q 449 370.4 452.3 372.75 472.25 383.7 492.55 376.45 525.35 364.25 523.85 333.2 518.85 301.15 492.65 293.55 492.55 293.5 492.45 293.5
L 490.85 293.2
Q 487.55 291.8 481.65 291.55 450.25 295.75 442 321.35 433.8 339.55 443.75 365.65 444.8 366.6 445.9 367.35
M 478.55 312.3
Q 479.45 311.85 480.5 312.2 481.5 312.55 481.95 313.5 482.45 314.45 482.1 315.45 481.75 316.5 480.8 316.95 479.8 317.35 478.85 317.05 477.75 316.7 477.35 315.75 476.85 314.8 477.2 313.75 477.55 312.75 478.55 312.3
M 453.05 338.35
Q 454.45 336.05 456.35 337 458.2 338 458.9 339.65 459.6 341.25 458.3 341.9 457.05 342.55 456.7 345.25 456.35 348.05 454.5 347 452.65 346.05 451.65 344.15 450.6 342.25 451.15 341.5 451.7 340.7 453.05 338.35
M 463.7 327.65
Q 462.95 326.15 463.5 324.6 464.05 323.05 465.75 322.75 467.4 322.45 469.3 323.65 471.1 324.8 471.35 325.2 471.55 325.65 471 327.2 470.5 328.6 469 328.15 467.55 327.7 465.95 328.45 464.4 329.1 463.7 327.65
M 478.25 345.55
Q 475.6 344.45 476.7 342.45 477.85 340.45 480.25 339.35 482.6 338.15 484.85 338.5 487.1 338.85 487.85 340.5 488.65 342.1 487.55 344.1 486.4 346.05 485.05 346.95 483.75 347.85 482.3 347.3 480.9 346.7 478.25 345.55
M 451.5 326.3
Q 453.7 301.7 485.2 297.2 457.4 307 451.5 326.3
M 467.75 356.8
Q 468.85 356.6 469.65 356.75 470.45 356.85 471.15 358.35 471.85 359.75 471.55 360.55 471.2 361.3 470.2 361.45 469.2 361.65 468.3 361.8 467.35 361.95 466.65 360.5 465.95 359 466.25 358.05 466.65 356.95 467.75 356.8
M 491.5 321.1
Q 490.8 319.7 491.1 317.8 491.45 315.9 492.6 314.7 493.8 313.55 495.45 314.4 497.15 315.25 497.55 316.8 498 318.35 497.55 320.15 497.2 321.9 496.35 323.1 495.5 324.25 493.8 323.4 492.2 322.5 491.5 321.1
M 500.4 342.35
Q 502.6 341.9 503.45 341.85 504.35 341.75 505.15 343.45 505.95 345.15 505.35 346.9 504.75 348.65 503.25 348.15 501.8 347.6 499.9 347.95 498 348.25 497.05 347 496.2 345.7 497.2 344.3 498.2 342.8 500.4 342.35
M 469.95 367.9
Q 485.75 369.5 505.5 361.05 484.85 375.15 469.95 367.9
M 650.7 349.15
Q 650.7 349 650.65 348.9
L 649.8 347.45
Q 648.85 343.75 645.15 338.85 620.85 315.95 594.65 326.2 576.35 331.1 562.7 352
L 565.1 356
Q 563.3 359.25 559.6 360.4 559.25 364.65 559.5 368.6 563.75 392.15 583.05 403.85 614.75 422.55 639 400.75 661.9 375.5 650.7 349.15
M 604.65 350.45
Q 603.1 349.6 603.8 348.1 604.55 346.5 606.15 345.9 607.8 345.35 609.1 346.5 610.45 347.7 610.75 349.95 611.05 352.2 610.8 352.7 610.6 353.15 609 353.7 607.5 354.25 606.9 352.7 606.3 351.3 604.65 350.45
M 591.25 348.25
Q 591.65 350.4 590.8 352.05 589.95 353.75 588.65 353.1 587.3 352.55 584.8 354 582.3 355.55 581.9 353.4 581.5 351.2 582.35 349.15 583.2 347.05 584.25 347 585.25 346.9 588.05 346.5 590.8 346.05 591.25 348.25
M 600.35 368.5
Q 602.7 368.1 605.2 369.25 607.7 370.45 608.9 372.5 610.15 374.55 609.35 376.3 608.5 378 606.15 378.4 603.8 378.75 602.2 378.3 600.55 377.75 600.1 376.25 599.65 374.75 598.8 371.8 598 368.9 600.35 368.5
M 580.7 370.25
Q 581.85 369.8 582.75 370.65 583.6 371.45 584.05 372.2 584.4 372.85 583.7 374.4 583 375.95 582.15 376.2 581.35 376.45 580.5 375.75 579.75 375.05 578.95 374.4 578.25 373.75 578.95 372.2 579.65 370.65 580.7 370.25
M 635.6 365.2
Q 635.95 367.1 635 368.5 634.05 369.8 632.3 370.7 630.6 371.55 629.1 371.65 627.55 371.75 627.2 369.8 626.8 367.9 627.5 366.45 628.15 364.9 629.95 363.95 631.7 362.9 633.45 363.1 635.25 363.25 635.6 365.2
M 622.5 351.3
Q 622.95 350.3 624.05 349.9 625.1 349.55 626.1 350 627.1 350.5 627.5 351.5 627.9 352.6 627.4 353.6 626.95 354.6 625.85 354.95 624.8 355.4 623.8 354.9 622.85 354.45 622.4 353.35 622.05 352.3 622.5 351.3
M 612.4 386.4
Q 614.25 386.25 616.1 387.75 617.9 389.25 618.5 389.9 619.1 390.5 618.3 392.3 617.45 394.1 615.6 394.75 613.8 395.45 613.2 393.9 612.7 392.35 611.15 391 609.65 389.65 610.1 388.1 610.55 386.55 612.4 386.4
M 642.85 345.45
Q 616.45 329.25 596.85 337.15 618.3 322.75 642.85 345.45
M 575.05 379.8
Q 584.2 393.75 604.2 404.25 579 396.75 575.05 379.8 Z"/>

<path fill="#9C1011" stroke="none" d="
M 546.85 229.8
Q 554.7 211.25 583.4 204.4 551.6 205.6 546.85 229.8
M 596.95 270.05
Q 576.4 276.4 560.85 273.15 574.95 281.9 596.95 270.05
M 505.5 361.05
Q 485.75 369.5 469.95 367.9 484.85 375.15 505.5 361.05
M 485.2 297.2
Q 453.7 301.7 451.5 326.3 457.4 307 485.2 297.2
M 604.2 404.25
Q 584.2 393.75 575.05 379.8 579 396.75 604.2 404.25
M 596.85 337.15
Q 616.45 329.25 642.85 345.45 618.3 322.75 596.85 337.15 Z"/>

<path fill="#DA7946" stroke="none" d="
M 563.05 263.75
Q 562.5 262.2 561.7 262.05 561 261.8 559.85 261.85 558.75 261.85 558.25 262.9 557.8 263.9 558.35 265.45 558.9 266.9 559.85 266.9 560.8 266.85 561.8 266.8 562.8 266.7 563.2 266 563.6 265.25 563.05 263.75
M 552.8 243.9
Q 552.25 242.2 550.55 241 548.8 239.85 547.15 242 545.55 244.15 544.9 244.9 544.35 245.65 545.1 247.65 545.9 249.6 547.7 250.75 549.4 251.95 550.05 249.25 550.7 246.55 552.05 246.1 553.35 245.6 552.8 243.9
M 561.05 233.45
Q 562.65 232.9 564.05 233.5 565.5 234.15 566.15 232.75 566.85 231.3 566.65 230.8 566.5 230.35 564.8 229.05 563.1 227.7 561.35 227.85 559.7 227.95 559 229.4 558.3 230.9 558.85 232.45 559.4 234 561.05 233.45
M 590.45 252.5
Q 589.35 253.8 590.05 255.15 590.8 256.5 592.75 256.4 594.65 256.3 596.05 256.95 597.45 257.6 598.3 255.95 599.05 254.25 598.4 252.45 597.8 250.7 596.9 250.75 596.05 250.7 593.85 250.9 591.6 251.15 590.45 252.5
M 578.75 245.45
Q 576.55 244.9 574.05 245.75 571.6 246.65 570.25 248.55 568.9 250.4 571.45 251.8 574 253.2 575.35 253.9 576.65 254.65 578.1 253.85 579.55 253.15 580.85 251.3 582.2 249.45 581.55 247.7 580.95 246 578.75 245.45
M 575.2 218.75
Q 574.2 219.1 573.7 220.1 573.3 221.05 573.65 222.05 574 223.05 575 223.5 575.95 223.95 576.95 223.6 577.95 223.2 578.4 222.25 578.85 221.3 578.5 220.3 578.1 219.3 577.15 218.85 576.2 218.4 575.2 218.75
M 591.8 222.6
Q 590.25 221.55 588.9 222.6 587.65 223.7 587.15 225.5 586.65 227.4 587.15 228.85 587.7 230.3 589.25 231.4 590.8 232.4 591.75 231.3 592.75 230.2 593.3 228.5 593.95 226.7 593.65 225.15 593.35 223.65 591.8 222.6
M 503.45 341.85
Q 502.6 341.9 500.4 342.35 498.2 342.8 497.2 344.3 496.2 345.7 497.05 347 498 348.25 499.9 347.95 501.8 347.6 503.25 348.15 504.75 348.65 505.35 346.9 505.95 345.15 505.15 343.45 504.35 341.75 503.45 341.85
M 491.1 317.8
Q 490.8 319.7 491.5 321.1 492.2 322.5 493.8 323.4 495.5 324.25 496.35 323.1 497.2 321.9 497.55 320.15 498 318.35 497.55 316.8 497.15 315.25 495.45 314.4 493.8 313.55 492.6 314.7 491.45 315.9 491.1 317.8
M 469.65 356.75
Q 468.85 356.6 467.75 356.8 466.65 356.95 466.25 358.05 465.95 359 466.65 360.5 467.35 361.95 468.3 361.8 469.2 361.65 470.2 361.45 471.2 361.3 471.55 360.55 471.85 359.75 471.15 358.35 470.45 356.85 469.65 356.75
M 476.7 342.45
Q 475.6 344.45 478.25 345.55 480.9 346.7 482.3 347.3 483.75 347.85 485.05 346.95 486.4 346.05 487.55 344.1 488.65 342.1 487.85 340.5 487.1 338.85 484.85 338.5 482.6 338.15 480.25 339.35 477.85 340.45 476.7 342.45
M 463.5 324.6
Q 462.95 326.15 463.7 327.65 464.4 329.1 465.95 328.45 467.55 327.7 469 328.15 470.5 328.6 471 327.2 471.55 325.65 471.35 325.2 471.1 324.8 469.3 323.65 467.4 322.45 465.75 322.75 464.05 323.05 463.5 324.6
M 456.35 337
Q 454.45 336.05 453.05 338.35 451.7 340.7 451.15 341.5 450.6 342.25 451.65 344.15 452.65 346.05 454.5 347 456.35 348.05 456.7 345.25 457.05 342.55 458.3 341.9 459.6 341.25 458.9 339.65 458.2 338 456.35 337
M 480.5 312.2
Q 479.45 311.85 478.55 312.3 477.55 312.75 477.2 313.75 476.85 314.8 477.35 315.75 477.75 316.7 478.85 317.05 479.8 317.35 480.8 316.95 481.75 316.5 482.1 315.45 482.45 314.45 481.95 313.5 481.5 312.55 480.5 312.2
M 616.1 387.75
Q 614.25 386.25 612.4 386.4 610.55 386.55 610.1 388.1 609.65 389.65 611.15 391 612.7 392.35 613.2 393.9 613.8 395.45 615.6 394.75 617.45 394.1 618.3 392.3 619.1 390.5 618.5 389.9 617.9 389.25 616.1 387.75
M 624.05 349.9
Q 622.95 350.3 622.5 351.3 622.05 352.3 622.4 353.35 622.85 354.45 623.8 354.9 624.8 355.4 625.85 354.95 626.95 354.6 627.4 353.6 627.9 352.6 627.5 351.5 627.1 350.5 626.1 350 625.1 349.55 624.05 349.9
M 635 368.5
Q 635.95 367.1 635.6 365.2 635.25 363.25 633.45 363.1 631.7 362.9 629.95 363.95 628.15 364.9 627.5 366.45 626.8 367.9 627.2 369.8 627.55 371.75 629.1 371.65 630.6 371.55 632.3 370.7 634.05 369.8 635 368.5
M 582.75 370.65
Q 581.85 369.8 580.7 370.25 579.65 370.65 578.95 372.2 578.25 373.75 578.95 374.4 579.75 375.05 580.5 375.75 581.35 376.45 582.15 376.2 583 375.95 583.7 374.4 584.4 372.85 584.05 372.2 583.6 371.45 582.75 370.65
M 605.2 369.25
Q 602.7 368.1 600.35 368.5 598 368.9 598.8 371.8 599.65 374.75 600.1 376.25 600.55 377.75 602.2 378.3 603.8 378.75 606.15 378.4 608.5 378 609.35 376.3 610.15 374.55 608.9 372.5 607.7 370.45 605.2 369.25
M 590.8 352.05
Q 591.65 350.4 591.25 348.25 590.8 346.05 588.05 346.5 585.25 346.9 584.25 347 583.2 347.05 582.35 349.15 581.5 351.2 581.9 353.4 582.3 355.55 584.8 354 587.3 352.55 588.65 353.1 589.95 353.75 590.8 352.05
M 603.8 348.1
Q 603.1 349.6 604.65 350.45 606.3 351.3 606.9 352.7 607.5 354.25 609 353.7 610.6 353.15 610.8 352.7 611.05 352.2 610.75 349.95 610.45 347.7 609.1 346.5 607.8 345.35 606.15 345.9 604.55 346.5 603.8 348.1 Z"/>

<path fill="#452403" stroke="none" d="
M 421.25 333.5
Q 418.3 332.8 412.2 333.3 408.15 337.45 410.35 349.05 410.7 352.3 415.45 353.15 416.75 353.35 418.35 353.4 420.15 353.4 422.65 352.05 424.65 350.95 424.85 348.1 425 346.05 426.9 343.35 428.75 340.55 423.6 334.9 423 333.95 421.25 333.5
M 412.85 334.5
Q 417.95 334.1 420.45 334.7 422 335.05 422.5 335.85 426.95 340.7 425.35 343.1 423.75 345.4 423.65 347.05 423.45 349.5 421.75 350.45 419.6 351.6 418.1 351.6 416.5 351.55 415.25 351.3 411.6 350.5 411.25 347.9 409.4 338.05 412.85 334.5
M 537.5 383
Q 536.6 380.25 526.9 378.55 521.85 381.45 521.05 393.2 520.45 397.45 527.65 399.55 529.4 400.05 532.15 399.4 534.3 398.8 535.3 396.1 535.95 394.2 538.45 392.05 541 389.85 537.5 383
M 527.25 379.9
Q 535.45 381.4 536.2 383.65 539.25 389.5 537.05 391.35 534.95 393.2 534.35 394.8 533.55 397.15 531.7 397.6 529.35 398.15 527.85 397.7 521.7 395.9 522.2 392.4 522.95 382.4 527.25 379.9
M 585.15 182.5
Q 585.3 183.85 586.25 184.8 588.15 186.7 593.15 186.85 594.95 186.85 597.45 185.45 598.6 184.9 599.1 183.75 599.55 182.8 599.65 181.5 599.8 179.5 601.7 176.8 603.55 174 598.3 168.35 596.85 165.9 587 166.75 582.9 170.9 585.15 182.5
M 587.65 167.95
Q 596 167.25 597.3 169.3 601.75 174.15 600.15 176.55 598.5 178.8 598.4 180.5 598.25 182.45 597.2 183.4 596.9 183.7 596.55 183.9 594.45 185.05 592.9 185.05 590.15 184.95 588.5 184.3 586.3 183.35 586.05 181.3 584.2 171.45 587.65 167.95
M 565.65 300.35
Q 561.55 304.5 563.75 316.05 564.25 320.25 571.8 320.45 573.6 320.45 576.15 319.1 578.05 318 578.3 315.15 578.45 313.15 580.3 310.45 582.2 307.65 577 301.9 575.45 299.55 565.65 300.35
M 564.7 314.95
Q 562.85 305.1 566.3 301.55 574.65 300.9 575.95 302.9 580.35 307.75 578.8 310.1 577.2 312.45 577.05 314.1 576.85 316.6 575.2 317.5 573.05 318.65 571.55 318.65 565.1 318.5 564.7 314.95
M 513.25 268.1
Q 515.15 265.3 509.95 259.65 508.45 257.2 498.55 258.05 494.5 262.2 496.7 273.8 497.2 277.95 504.75 278.15 506.55 278.15 509.05 276.75 511 275.7 511.25 272.8 511.4 270.8 513.25 268.1
M 511.75 267.85
Q 510.15 270.1 510 271.8 509.8 274.25 508.15 275.2 506 276.3 504.5 276.3 498.05 276.15 497.65 272.6 495.8 262.75 499.25 259.25 507.6 258.55 508.85 260.55 513.3 265.45 511.75 267.85
M 651.55 436.3
Q 653.45 433.5 648.2 427.8 646.7 425.4 636.85 426.25 632.8 430.4 635 441.95 635.5 446.15 643.05 446.3 644.8 446.35 647.35 444.95 649.3 443.9 649.5 441 649.7 439 651.55 436.3
M 650 436
Q 648.4 438.35 648.25 439.95 648.05 442.45 646.45 443.35 644.3 444.5 642.75 444.55 636.3 444.35 635.9 440.8 634.05 431 637.55 427.45 645.9 426.75 647.15 428.8 651.6 433.65 650 436
M 649.1 280.65
Q 649.3 278.65 651.15 275.9 653.05 273.15 647.8 267.4 646.3 265 636.45 265.85 632.4 270 634.65 281.55 635.1 285.75 642.65 285.95 644.45 285.95 646.95 284.6 648.9 283.5 649.1 280.65
M 637.15 267.05
Q 645.5 266.35 646.8 268.4 651.25 273.3 649.6 275.6 648 277.95 647.9 279.6 647.7 282.05 646.05 282.95 643.9 284.15 642.4 284.15 635.95 283.95 635.55 280.4 633.7 270.6 637.15 267.05 Z"/>

<path fill="#6B4B22" stroke="none" d="
M 420.45 334.7
Q 417.95 334.1 412.85 334.5 409.4 338.05 411.25 347.9 411.6 350.5 415.25 351.3 416.5 351.55 418.1 351.6 419.6 351.6 421.75 350.45 423.45 349.5 423.65 347.05 423.75 345.4 425.35 343.1 426.95 340.7 422.5 335.85 422 335.05 420.45 334.7
M 536.2 383.65
Q 535.45 381.4 527.25 379.9 522.95 382.4 522.2 392.4 521.7 395.9 527.85 397.7 529.35 398.15 531.7 397.6 533.55 397.15 534.35 394.8 534.95 393.2 537.05 391.35 539.25 389.5 536.2 383.65
M 597.3 169.3
Q 596 167.25 587.65 167.95 584.2 171.45 586.05 181.3 586.3 183.35 588.5 184.3 590.15 184.95 592.9 185.05 594.45 185.05 596.55 183.9 596.9 183.7 597.2 183.4 598.25 182.45 598.4 180.5 598.5 178.8 600.15 176.55 601.75 174.15 597.3 169.3
M 566.3 301.55
Q 562.85 305.1 564.7 314.95 565.1 318.5 571.55 318.65 573.05 318.65 575.2 317.5 576.85 316.6 577.05 314.1 577.2 312.45 578.8 310.1 580.35 307.75 575.95 302.9 574.65 300.9 566.3 301.55
M 510 271.8
Q 510.15 270.1 511.75 267.85 513.3 265.45 508.85 260.55 507.6 258.55 499.25 259.25 495.8 262.75 497.65 272.6 498.05 276.15 504.5 276.3 506 276.3 508.15 275.2 509.8 274.25 510 271.8
M 648.25 439.95
Q 648.4 438.35 650 436 651.6 433.65 647.15 428.8 645.9 426.75 637.55 427.45 634.05 431 635.9 440.8 636.3 444.35 642.75 444.55 644.3 444.5 646.45 443.35 648.05 442.45 648.25 439.95
M 646.8 268.4
Q 645.5 266.35 637.15 267.05 633.7 270.6 635.55 280.4 635.95 283.95 642.4 284.15 643.9 284.15 646.05 282.95 647.7 282.05 647.9 279.6 648 277.95 649.6 275.6 651.25 273.3 646.8 268.4 Z"/>

<path fill="#FFD765" stroke="none" d="
M 455.6 298.85
Q 455.95 298.05 456.5 297.25 424.85 328.8 423 331.15 422.05 332.35 421.25 333.5 423 333.95 423.6 334.9 428.75 340.55 426.9 343.35 425 346.05 424.85 348.1 424.65 350.95 422.65 352.05 420.15 353.4 418.35 353.4 416.75 353.35 415.45 353.15 417.2 364.95 432.4 375.45 455.2 389.8 485.35 400.3 510.65 407.4 537.3 419.25 568.15 434.25 589.85 442.3
L 588.65 434.25 594.85 434.9
Q 604.05 435.35 609.15 424.95 595.95 423.65 580.7 414 578.95 412.8 577.3 411.6 564.65 402.3 557.55 391.7 551.65 381.4 552.7 372.95 553.55 366.2 558.9 360.6 557.35 360.95 555.5 361.05 550.8 361.25 544.75 357.2 540.45 354.4 535.45 346.35 535 345.7 534.6 345 533.15 372.65 498.6 384.25 496.7 384.85 494.8 385.35 480.4 389.1 468.25 388.05 457.05 386.2 451.45 380.35 450.5 379.35 449.7 378.25 446.75 380.9 441.75 379.7 438.1 378.85 434.25 374.55 431.5 371.45 429.3 364.2 429.1 363.6 428.9 362.95
L 435.3 360.1 436.15 365.05
Q 437.65 372.25 446.8 374.05 447.1 374.05 447.4 374 446.25 371 445.9 367.35 444.8 366.6 443.75 365.65 435.05 357.15 437.65 329.45 439.1 323.85 441.45 317.75 442 316.3 442.6 314.9 447.2 307.05 452.55 301.7 452.75 301.45 452.9 301.3 454.25 300 455.6 298.85
M 526.9 378.55
Q 536.6 380.25 537.5 383 541 389.85 538.45 392.05 535.95 394.2 535.3 396.1 534.3 398.8 532.15 399.4 529.4 400.05 527.65 399.55 520.45 397.45 521.05 393.2 521.85 381.45 526.9 378.55
M 655.15 339.7
Q 663.95 349.4 666.8 361.6 669.9 387.95 639.35 415.05 628.7 424.2 616.05 425.1 616.7 428.6 614.35 432.85 612.25 436.95 605.65 440.25 601.15 442.5 591.6 442.85 591.55 442.85 591.45 442.9 607.05 448.55 617.75 450.4 647.3 455.8 656.8 448.45 671.4 437.25 672.7 404.35 676.15 356.65 660.6 285.2 649.95 239.2 633.3 212.8 615.9 187.2 599.1 183.75 598.6 184.9 597.45 185.45 594.95 186.85 593.15 186.85 588.15 186.7 586.25 184.8 576.6 187.5 567.2 194.65 569.25 194.1 571.3 193.7 580 191.85 587.8 192.25 600.3 192.85 610.4 199.15 621.55 208 625.75 224.2
L 626.55 221.05
Q 630.75 219.8 634.8 223.6 637.6 226.15 638.75 231.9 639.5 235.9 637.85 243.3 637.7 243.9 637.5 244.6
L 630.6 243.8 632.35 239.15
Q 634.65 232.15 627.55 226 626.8 225.6 626.05 225.4 628.9 237.45 627.95 253.55 625.5 283.95 587.7 292.35 585.75 292.75 583.8 293.05 569.05 295.3 557.1 293 546.2 290 541.2 283.6 536.9 278.1 537.05 270.1 536 269.25 535.05 268.2 527.3 258.85 532.75 231.5 534.8 226.15 537.75 220.35 484 270 482.4 271.6 470.35 283.5 460.75 293.05 462.45 291.8 464.6 290.55 466.4 289.8 468.1 289.15 470.05 288.45 472.05 287.75 480.55 285.1 488.35 284.65 500.8 283.95 511.5 289.2 532.9 302.7 534.65 341.5 534.65 343.2 534.6 344.85
L 541.4 339.45 544 345.15
Q 548.1 353.35 559.8 352.55 560.35 352.35 560.85 352.15 565.3 341.25 585.15 328 590.6 325.5 597.15 323.4 598.65 322.9 600.2 322.4 609.7 321 617.6 321.8 617.9 321.8 618.15 321.8 620.05 322.05 621.85 322.4 626.9 321.25 634.65 324.25 636.45 325.2 638.05 326.15 640 327.25 641.85 328.5 649.7 333.6 655.15 339.7
M 651.15 275.9
Q 649.3 278.65 649.1 280.65 648.9 283.5 646.95 284.6 644.45 285.95 642.65 285.95 635.1 285.75 634.65 281.55 632.4 270 636.45 265.85 646.3 265 647.8 267.4 653.05 273.15 651.15 275.9
M 648.2 427.8
Q 653.45 433.5 651.55 436.3 649.7 439 649.5 441 649.3 443.9 647.35 444.95 644.8 446.35 643.05 446.3 635.5 446.15 635 441.95 632.8 430.4 636.85 426.25 646.7 425.4 648.2 427.8
M 611.25 295.75
Q 613.95 293.4 618.8 293.3 623.4 293.05 629.55 297.1 633.8 299.85 638.8 308 638.85 308.05 638.95 308.1 639.35 308.75 639.75 309.4
L 632.85 314.85 630.3 309.15
Q 626.15 300.95 614.55 301.7
L 614.5 301.7
Q 613 302.25 611.95 302.9
L 609.2 298.3
Q 610.05 296.75 611.25 295.75
M 509.95 259.65
Q 515.15 265.3 513.25 268.1 511.4 270.8 511.25 272.8 511 275.7 509.05 276.75 506.55 278.15 504.75 278.15 497.2 277.95 496.7 273.8 494.5 262.2 498.55 258.05 508.45 257.2 509.95 259.65
M 525.05 280.7
Q 523.95 280.2 523 279.95
L 524.05 275.85
Q 528.25 274.5 532.3 278.35 535.05 280.9 536.2 286.6 537 290.6 535.3 298 535.2 298.65 535 299.35
L 528.1 298.55 529.85 293.85
Q 532.1 286.9 525.05 280.7
M 563.75 316.05
Q 561.55 304.5 565.65 300.35 575.45 299.55 577 301.9 582.2 307.65 580.3 310.45 578.45 313.15 578.3 315.15 578.05 318 576.15 319.1 573.6 320.45 571.8 320.45 564.25 320.25 563.75 316.05 Z"/>

<path fill="#F1B226" stroke="none" d="
M 468.1 289.15
Q 466.4 289.8 464.6 290.55 462.45 291.8 460.75 293.05 458.05 295.1 456.5 297.25 455.95 298.05 455.6 298.85 462.5 293 470.45 291 478.6 288.9 487.45 289.4 508.7 290.05 521.7 315.55 530.15 330.55 526.75 346.25 515.65 376.1 486 379.9 466.9 383.15 452.3 372.75 449 370.4 445.9 367.35 446.25 371 447.4 374 448.3 373.9 449.05 373.65
L 450.2 377.85
Q 450 378.05 449.7 378.25 450.5 379.35 451.45 380.35 474.45 391.75 508 377.2 505.2 381.05 494.8 385.35 496.7 384.85 498.6 384.25 533.15 372.65 534.6 345 534.55 344.95 534.55 344.9
L 534.6 344.85
Q 534.65 343.2 534.65 341.5 532.9 302.7 511.5 289.2 500.8 283.95 488.35 284.65 480.55 285.1 472.05 287.75 470.05 288.45 468.1 289.15
M 569.35 196.7
Q 577.7 195.5 586.45 196.9 607.55 199.75 617.8 226.45 624.6 242.25 619.65 257.5 605.45 286.05 575.6 286.7 556.25 288 542.85 276.15 539.8 273.45 537.05 270.1 536.9 278.1 541.2 283.6 562.85 297.35 597.75 286.4 594.55 289.9 583.8 293.05 585.75 292.75 587.7 292.35 625.5 283.95 627.95 253.55 628.9 237.45 626.05 225.4 625.75 225.3 625.45 225.25
L 625.75 224.2
Q 621.55 208 610.4 199.15 600.3 192.85 587.8 192.25 580 191.85 571.3 193.7 569.25 194.1 567.2 194.65 565.45 195.1 563.6 195.65 556.35 198.8 553.75 203 561.2 197.9 569.35 196.7
M 650.7 342.15
Q 664.2 359.95 652 387.35 645.35 404.15 630.3 411.75 598.6 422.5 575.9 400.8 560.65 387.4 559.5 368.6 559.25 364.65 559.6 360.4 559.25 360.55 558.9 360.6 553.55 366.2 552.7 372.95 558.6 399.25 592.65 417.05 587.65 417.25 577.3 411.6 578.95 412.8 580.7 414 595.95 423.65 609.15 424.95 609.2 424.9 609.2 424.85 609.45 423.35 609.4 422.1
L 614.8 422
Q 615.7 423.45 616.05 425.1 628.7 424.2 639.35 415.05 669.9 387.95 666.8 361.6 663.95 349.4 655.15 339.7 649.7 333.6 641.85 328.5 640 327.25 638.05 326.15 636.45 325.2 634.65 324.25 626.9 321.25 621.85 322.4 631.25 324.15 638.15 329.3 645.25 334.6 650.7 342.15 Z"/>

<path fill="#EDA969" stroke="none" d="
M 667.6 253
Q 686 268.35 684.2 293.55 678.55 328.3 687.55 358.2 698.5 393.6 686.1 423.3 683.65 429.1 680.8 438.4 678.6 445.6 672.7 455.55 667 468.95 672.65 485.6 686.55 480.15 695.4 462.7 717.95 410.4 710.3 352.55 706.45 307.6 691.95 270.7 692.05 272 692.1 273.35 687.05 241.5 666 209.15 653.75 187.45 627.5 163.15 651.15 180.05 669.95 210.4 660.1 168.45 638.2 155.95 621.55 147 601.4 160.65 607.35 180.55 627.9 194 630.4 195.15 632.7 196.5 638.25 199.65 642.6 203.2 651.3 210.4 652.2 223.95 652.85 240.15 667.6 253 Z"/>

<path fill="#D58449" stroke="none" d="
M 672.2 172.45
Q 670.45 169.55 650.2 140.85 646.9 134.8 643.3 131.2 631.6 119.3 616.5 132.2 615.2 133.4 599.25 149.2 599.75 155.15 601.4 160.65 621.55 147 638.2 155.95 660.1 168.45 669.95 210.4 670.1 210.6 670.25 210.8 671.75 213.35 673.3 215.95 689.6 245.75 691.9 270.5 691.9 270.6 691.95 270.7 706.45 307.6 710.3 352.55 723 415.6 695.4 462.7 686.55 480.15 672.65 485.6 673.55 488.2 674.75 490.95 684.85 495.75 693.85 498.65 697.35 500 700.7 500.65 706.9 501.8 712.45 500.55 717.6 498.9 721.5 494.3 722.3 493.35 723.1 492.25 724.5 490.2 725.8 487.65 727.3 480.6 727.25 473.1 727.6 463.45 729.5 449.95 730.35 443.6 730.7 435.6 731.15 425.05 731.75 407.9 732.15 396.15 732.65 381.3 732.8 375.4 732.55 368.05 732.3 363.55 732 358.7 731.9 357.85 731.85 356.95 730.5 339.15 727.05 314.95 726.15 308.7 725.1 302 721.6 283.25 712.55 255.7 711.8 253.55 711.1 251.35 706.2 236.8 692.05 207.3 691.35 205.75 690.1 203.35 685.05 194 672.2 172.45
M 726.25 371.25
Q 722.3 317.6 705.65 264.25 727.1 316.75 726.25 371.25
M 710.65 491.4
Q 709.65 475.95 715.6 458.6 714.95 477.25 710.65 491.4
M 622.7 134.8
Q 632.7 138.65 637.25 145.25 628.6 141.7 622.7 134.8 Z"/>
</g>

<path id="Layer1_0_1_STROKES" stroke="#000000" stroke-width="0.1" stroke-linejoin="round" stroke-linecap="round" fill="none" d="
M 726.25 371.25
Q 727.1 316.75 705.65 264.25 722.3 317.6 726.25 371.25 Z
M 710.65 491.4
Q 714.95 477.25 715.6 458.6 709.65 475.95 710.65 491.4 Z
M 637.25 145.25
Q 628.6 141.7 622.7 134.8 632.7 138.65 637.25 145.25 Z"/>
</defs>

<g transform="matrix( 1, 0, 0, 1, 0,0) ">
<use xlink:href="#Layer1_0_FILL"/>

<use xlink:href="#Layer1_0_1_STROKES"/>
</g>
</svg>
