
<svg xmlns="http://www.w3.org/2000/svg" version="1.1" xmlns:xlink="http://www.w3.org/1999/xlink" preserveAspectRatio="none" x="0px" y="0px" width="285px" height="284px" viewBox="0 0 285 284">
<defs>
<g id="Layer7_0_FILL">
<path fill="#0E0110" stroke="none" d="
M 127.95 91.45
Q 127.9 90.35 127.65 89.95
L 126.15 89.95
Q 126.4 90.7 126.5 91.4 126.65 92.35 126.7 93.15 126.65 96.55 126.9 99.3 127.05 104.35 129.25 104.4 129.7 104.4 129.95 104.35 130.6 104.3 131 103.5 131.4 102.85 131.95 103.3 132 103.3 132 103.35 134.6 108.85 134.3 114.65 134.1 119.85 134.75 123.2 136.05 128.05 138.75 127.45 141.25 127.05 141.3 122.85
L 142.55 115.45
Q 142.4 114.25 143.65 114.7 146.4 114.95 147.45 113.25 148.2 112.15 148.35 110.2 148.15 109.2 148.4 107.9 148.55 107.25 148.75 106.55
L 147.3 106.5
Q 147.15 107.15 147.05 107.7 146.8 108.75 146.85 109.3 147 111.3 146.25 112.3 144.9 113.95 142.95 112.7 142.1 112.1 141.7 112.6 141.25 113.1 141.2 114.3 141 116.25 140.6 118.15 140.1 120.75 139.95 123.4 139.9 124.9 139.1 125.7 137.75 126.8 136.8 125.1 136.05 123.65 135.95 120.9
L 135.8 117.35
Q 135.95 113.25 135.4 110.9 133.5 102.65 132.75 101.6 132.25 99.75 131.55 99.6 130.5 99.35 130.65 101.2 130.6 101.6 130.55 102.05 130.35 103.3 129.35 103.05 128.6 102.85 128.65 102 128.1 99.95 127.95 95 128.05 92.75 127.95 91.45 Z"/>

<path fill="#FFDA4C" stroke="none" d="
M 129.7 90.05
L 127.65 89.95
Q 127.9 90.35 127.95 91.45 128.05 92.75 127.95 95 128.1 99.95 128.65 102 128.6 102.85 129.35 103.05 130.35 103.3 130.55 102.05 130.6 101.6 130.65 101.2 130.5 99.35 131.55 99.6 132.25 99.75 132.75 101.6 133.5 102.65 135.4 110.9 135.95 113.25 135.8 117.35
L 135.95 120.9
Q 136.05 123.65 136.8 125.1 137.75 126.8 139.1 125.7 139.9 124.9 139.95 123.4 140.1 120.75 140.6 118.15 141 116.25 141.2 114.3 141.25 113.1 141.7 112.6 142.1 112.1 142.95 112.7 144.9 113.95 146.25 112.3 147 111.3 146.85 109.3 146.8 108.75 147.05 107.7 147.15 107.15 147.3 106.5
L 141.7 106.35 141.6 110.45 140.3 110.4 140.25 112.4 137.4 112.35 137.45 111.2 135.95 111.15 136.1 105.6 136.6 105.6 136.8 100.05 132.7 99.95 132.75 98.2 130.65 98.15 130.75 95.75 129.75 95.7 129.8 94 129.55 94 129.7 90.05 Z"/>
</g>

<g id="Layer7_1_FILL">
<path fill="#FFDA4C" stroke="none" d="
M 757.15 425.4
Q 756.4 426 755.45 426 754.5 425.95 753.9 425.35 753.25 424.7 753.25 423.75 753.3 423.65 753.3 423.5 742.25 425.7 731.3 425.5 740.6 444.8 743.1 459.85 752.1 496.95 765.35 522.9 776.35 544.5 808.75 610.95 810.6 614.65 823.05 642.5 837.8 675.6 862.75 749.75
L 873.15 750.1 872.5 770.7 873.75 770.7 873.5 779.7
Q 873.55 779.75 873.6 779.85
L 878.7 780 878.3 792.5 889.15 792.85 888.9 801.8 910.3 802.45 909.4 831.6 906.7 831.5 905.8 860.6 913.7 860.85 913.55 866.7 928.55 867.15 928.85 856.5 935.5 856.7 936.15 835.3 965.45 836.2 974.95 814.3 1019.55 721
Q 1020.6900390625 719.016015625 1021.9 717.15
L 1021.95 717.15 1027.1 705.6
Q 1028.9171875 702.9671875 1031.75 704.2 1034.2306640625 705.4951171875 1034.6 713.9 1034.30390625 721.417578125 1040.8 723.15 1045.7279296875 724.68359375 1048.85 714.4 1051.5873046875 707.5919921875 1049.3 687.3 1049.2892578125 687.048828125 1049.25 686.8 1048.79140625 673.596484375 1052.55 669.65 1053.7845703125 667.9201171875 1055.15 666.3 1063.8 656 1072.7 637.8 1081 620.8 1112.6 561.75 1131.7 526.55 1141.45 492.9 1147.1 473.25 1164.35 442.65 1163.7 431.3 1132.4 426 1132.1 426.55 1131.55 427.05 1130.55 427.95 1129.2 427.9 1127.8 427.9 1126.8 426.85 1125.95 426 1125.95 424.85 1124.1 424.5 1122.35 424.05 1122.3 424.2 1122.25 424.45 1122 425.25 1122.05 426.2 1121.95 427.1 1121.1 427.3 1120.2 427.55 1118.85 426.85 1117.6 426.2 1117.75 425.3 1118.05 424.5 1118.9 423.7 1119.15 423.5 1119.4 423.35 991.55 393.6 957.3 395.15 894.65 389.65 839.85 398.55 815.05 399.85 787.85 411.5 772.6 419.15 757.45 422.65 757.85 423.2 757.75 423.9 757.8 424.8 757.15 425.4
M 935.55 427.35
Q 935.05 429 933.8 429.3 932.6 429.65 931.25 428.45 930 427.35 928.9 427.1 927.7 426.95 928.9 423.15 930 419.4 931.25 419.2 932.55 418.85 933.7 420.15 934.95 421.45 935.45 423.55 936 425.7 935.55 427.35
M 942.8 438.3
Q 933.05 432.7 944.35 425.05 945.55 424.1 943.45 419.65 945.8 407.8 956.2 416.75 965.35 423.1 983.25 423.8 987.3 424.05 1010.1 426.15 1017.6 426.9 1018.9 428.65 1019.95 432.65 1011.65 432.6 989.3 433.55 986.4 434.65 979 437.5 968.9 434.95 955.3 434.5 942.8 438.3
M 953.6 462.8
Q 952.95 462.15 952.95 461.15 953 460.25 953.7 459.65 954.45 458.95 955.4 459 956.45 459.05 957.05 459.7 957.75 460.35 957.7 461.3 957.7 462.25 957.05 462.95 956.3 463.55 955.25 463.5 954.3 463.45 953.6 462.8
M 945.95 467.95
Q 945.55 466.9 946.05 466.4 946.5 466 947.95 465.75 949.3 465.55 950.8 465.55 952.3 465.6 952.05 468.4 951.75 471.25 951.3 471.7 950.8 472.1 949.65 471.7 948.55 471.2 947.45 470.1 946.45 469.05 945.95 467.95
M 953.7 477.4
Q 952.8 477.4 952.05 476.7 951.4 476 951.35 475.05 951.45 474.05 952.15 473.4 952.9 472.8 953.9 472.8 954.9 472.85 955.55 473.55 956.3 474.25 956.2 475.2 956.25 476.2 955.5 476.8 954.8 477.45 953.7 477.4
M 812.3 538.9
Q 812.15 538 812.8 537.4 813.45 536.8 814.35 536.85 815.25 536.9 815.95 537.55 816.5 538.15 816.5 539 816.45 539.85 815.85 540.45 815.15 541.1 814.45 541.05 813.7 541.05 813.05 540.4 812.4 539.75 812.3 538.9
M 923.85 568.35
Q 929 567.85 930.65 560.15 931.2 556.9 933.7 556.45 941.65 557.35 943.55 550.1 944.8 550.15 944.6 553.25 941.15 559.35 935.9 559.4 933.6 560.6 933.35 563.6 930.95 572.3 920.6 572.4 909.3 570.05 904.85 557.8 904.35 555.7 904 553.8 906.25 554.45 907.7 557.45 913.25 569.65 923.85 568.35
M 922.65 579.15
Q 923.25 578.6 923.9 578.35 924.55 578.15 924.85 578.45 925.1 578.7 924.85 579.8 924.65 580.9 923.95 581.45 923.35 582 922.7 581.65 922.05 581.4 921.8 581.15 921.55 580.9 921.75 580.3 922 579.7 922.65 579.15
M 919.75 586.05
Q 919 586.75 917.35 587.2 915.7 587.5 915 586.5 914.4 585.5 914.7 584.15 914.85 582.7 915.75 581.9 916.6 581.2 917.75 581.2 919 581.25 919.85 582.05 920.6 582.85 920.65 584.05 920.6 585.2 919.75 586.05
M 935.05 574.7
Q 935.8 574.4 936.1 574.7 936.35 575.05 936.7 575.6 937.05 576.1 935.95 576.75 934.95 577.5 933.95 577.75 932.9 578.15 932.65 577.8 932.3 577.5 932.55 576.85 932.95 576.15 933.6 575.55 934.3 574.9 935.05 574.7
M 939.4 580.25
Q 940.2 580.25 941.3 581.4 942.25 582.55 942.9 583.85 943.4 585.1 943 585.5 942.65 585.85 941.65 585.4 940.7 584.85 939.75 583.9 938.8 582.9 938.3 582 937.85 581.1 938.25 580.7 938.65 580.35 939.4 580.25
M 785.45 435.9
Q 785.45 440.2 781.2 439.65 772.3 439.45 773.25 446.3 775.05 455.2 766.35 453.9 763.55 453.15 764.3 455.65 764.5 460.95 760.75 462.85 750.05 465.2 746.35 448.15 742.8 439.85 752 432.95 757.55 429.95 764.95 430.55 771.65 431.9 776.25 429.3 779.65 426.9 781.55 429.65 785.35 432.75 785.45 435.9
M 764.45 486.7
Q 758.55 462.75 765.5 476.2 777 504.95 783.65 486.25 784.55 483.65 785.75 489.4 783.85 499.45 775.8 497.85 768.4 494.8 764.45 486.7
M 795.25 523.55
Q 796.45 523.6 797.2 524.45 798.05 525.2 798 526.35 798 527.4 796.7 528.5 795.4 529.55 793.7 529.9 792 530.15 791.65 528.2 791.25 526.2 791.75 525.45 792.1 524.75 793.15 524.15 794.1 523.55 795.25 523.55
M 801.45 537.55
Q 802.2 536.45 803.35 536.05 804.45 535.65 805.4 537.25 806.25 538.85 806.2 540 806.2 541.05 805.35 541.85 804.5 542.6 803.35 542.6 802.15 542.5 801.35 541.65 800.6 540.9 800.55 539.8 800.6 538.7 801.45 537.55
M 938.7 625.45
Q 942.75 624.05 942.95 614.85 945.6 626.55 940.8 629.3 933.05 632.45 927.5 627.55 925.05 624.9 924 618.5 923.8 613.65 927.35 607.6 929.55 629.5 938.7 625.45
M 887 697.6
Q 887.05 698.3 886.55 698.75 886.05 699.2 885.25 699.2 884.6 699.2 884.15 698.65 883.7 698.2 883.6 697.55 883.75 696.85 884.2 696.4 884.7 695.95 885.35 695.95 886.15 696 886.6 696.5 887.1 697 887 697.6
M 858.45 700.4
Q 857.85 695.1 862.5 702.45
L 871.25 722.85
Q 871.8 730.95 867.6 724.05
L 858.45 700.4
M 880.9 771.95
Q 881.55 772.6 882.25 773.65 882.95 774.55 882.3 775.25 881.75 775.8 880.05 775.65 878.25 775.5 877.7 774.85 877 774.2 877.05 773.3 877.05 772.45 877.7 771.85 878.4 771.25 879.3 771.3 880.3 771.3 880.9 771.95
M 897.05 695.15
Q 897.1 694.05 897.65 693.6 898.2 693.1 898.95 693.1 899.75 693.15 900.3 693.7 900.85 694.15 900.8 694.9 900.8 695.65 900.25 696.15 899.6 696.65 898.9 696.85 898.1 697.15 897.55 696.7 897 696.3 897.05 695.15
M 894.2 711.9
Q 892.95 711.8 892.1 710.7 891.2 709.65 890.8 708.25 890.25 706.85 891.4 705.9 892.5 704.85 894 704.9 895.55 704.95 896.65 706.05 897.7 707.1 897.6 708.55 897.6 710.05 896.5 711 895.35 711.95 894.2 711.9
M 901.15 774.7
Q 901.35 782.35 894.9 770.4 888.15 751.75 895.05 735.55 893.85 762.3 901.15 774.7
M 942.4 775.05
Q 943.55 775.1 945.1 776.2 946.6 777.35 946.3 778.25 945.8 779.15 944.65 779.7 943.4 780.3 942.25 780.25 941.1 780.2 940.3 779.45 939.55 778.65 939.55 777.55 939.65 776.45 940.4 775.75 941.25 775 942.4 775.05
M 950.9 774.25
Q 950.2 773.55 949.75 772.65 949.4 771.8 950.3 771.1 951.3 770.25 952.65 770.2 954 770.15 954.7 770.85 955.45 771.6 955.4 772.65 955.4 773.7 954.6 774.35 953.85 775.05 952.75 775.05 951.65 774.95 950.9 774.25
M 1136.4 427.7
Q 1138 427.75 1139.05 428.85 1140.2 430 1140.15 431.5 1140.1 432.95 1139 434.3 1137.8 435.7 1136.35 436.5 1134.75 437.25 1133.55 435.3 1132.2 433.25 1132 432.5 1131.9 431.75 1133.35 429.75 1134.8 427.65 1136.4 427.7
M 1063.65 436.25
Q 1063.55 431.8 1074.95 433.25 1102.75 440.05 1112.2 442.7 1138.1 450.05 1136.4 457.25 1135.9 467.25 1121.9 468.75 1108.4 469.7 1103.7 459.05 1087.35 439.8 1070.1 439.3 1063.05 438.85 1063.65 436.25
M 1055.35 437.95
Q 1055.4 437.9 1055.6 437.8 1055.4 437.9 1055.35 437.95
M 1036.15 428.1
Q 1041.7 426.15 1047.45 429.95 1058.85 439.1 1045.65 439.95 1042.65 439.7 1039 438.85 1033.85 434.15 1036.15 428.1
M 1122.5 513.8
Q 1120.75 537.5 1102.2 567.45 1107.05 540.65 1122.5 513.8
M 1054.95 615.85
Q 1055.55 615.3 1056.35 615.4 1057.15 615.35 1057.7 616 1058.3 616.55 1058.25 617.35 1058.25 618.05 1057.6 618.6 1057.05 619.1 1056.85 618.8 1056.65 618.5 1055.8 618 1054.9 617.65 1054.65 617.05 1054.4 616.45 1054.95 615.85
M 1046.2 617.75
Q 1046.7 617.95 1047.05 618.5 1047.4 619.15 1047.75 619.6 1048 620 1047.5 620.5 1047 620.95 1046.2 620.9 1045.55 620.85 1045.05 620.35 1044.5 619.9 1044.5 619.2 1044.6 618.5 1045.1 618 1045.65 617.5 1046.2 617.75
M 1015.5 616.55
Q 1014.45 614.8 1014.7 614.5 1014.8 614.05 1015.75 613.25 1016.65 612.45 1017.9 612.5 1019.2 612.5 1020.6 613.7 1021.9 615 1022.15 616.3 1022.3 617.7 1020.7 618 1019.05 618.3 1017.8 618.35 1016.55 618.25 1015.5 616.55
M 1026.45 610
Q 1025.8 610.6 1024.8 610.6 1023.9 610.55 1023.25 609.9 1022.6 609.25 1022.6 608.35 1022.65 607.5 1023.35 606.9 1024 606.3 1025.7 606.1 1027.35 605.95 1027.6 606.7 1027.8 607.45 1027.5 608.45 1027.1 609.4 1026.45 610
M 1042.3 622.5
Q 1042.2 623.85 1041.15 624.8 1040.15 625.75 1039 625.45 1037.8 625.15 1036.6 624.35 1035.45 623.55 1035.45 622.25 1035.35 620.9 1036.4 620 1037.45 619.05 1038.95 619.15 1040.35 619.15 1041.3 620.15 1042.25 621.1 1042.3 622.5
M 938.6 828.95
Q 943.55 830.65 947.9 824.3 950.4 820.8 949.2 815.15 949.8 810.1 951.85 815.9 953 824.6 948.15 829.8 945 834.15 939.65 833.8 928.7 833.6 930.15 805.8 930.8 803.55 931.35 807.05 933.65 827.45 938.6 828.95
M 923.85 852.7
Q 923.9 852.1 924.3 851.75 924.7 851.4 925.35 851.4 925.95 851.4 926.4 851.85 926.8 852.25 926.7 852.85 926.75 853.45 926.35 853.8 925.9 854.15 925.3 854.15 924.65 854.15 924.25 853.7 923.85 853.35 923.85 852.7
M 918.6 856.1
Q 919.35 854.45 921.35 854.95 923.4 855.4 924.7 856.7 925.9 857.9 925.8 859.45 925.8 861 925.2 863.2 924.5 865.45 922.45 864.4 920.35 863.45 919.15 862.1 917.85 860.8 917.85 859.25 917.95 857.7 918.6 856.1
M 1041.3 679.05
Q 1041.65 679.75 1041.25 680.2 1040.95 680.6 1040.35 680.8 1039.6 681 1039.05 681.25 1038.65 681.4 1038.3 680.75 1037.95 680.15 1038.2 679.4 1038.45 678.75 1039.05 678.45 1039.65 678 1040.3 678.2 1041 678.45 1041.3 679.05
M 1037.5 691
Q 1037.15 690.3 1037.5 690.2 1037.85 690.1 1038.55 689.4 1039.1 688.65 1039.8 688.55 1040.4 688.45 1040.85 689.15 1041.2 689.85 1040.95 690.6 1040.8 691.4 1040 691.75 1039.3 692.15 1038.55 691.95 1037.85 691.8 1037.5 691 Z"/>

<path fill="#745400" stroke="none" d="
M 1037.5 690.2
Q 1037.15 690.3 1037.5 691 1037.85 691.8 1038.55 691.95 1039.3 692.15 1040 691.75 1040.8 691.4 1040.95 690.6 1041.2 689.85 1040.85 689.15 1040.4 688.45 1039.8 688.55 1039.1 688.65 1038.55 689.4 1037.85 690.1 1037.5 690.2
M 1041.25 680.2
Q 1041.65 679.75 1041.3 679.05 1041 678.45 1040.3 678.2 1039.65 678 1039.05 678.45 1038.45 678.75 1038.2 679.4 1037.95 680.15 1038.3 680.75 1038.65 681.4 1039.05 681.25 1039.6 681 1040.35 680.8 1040.95 680.6 1041.25 680.2
M 921.35 854.95
Q 919.35 854.45 918.6 856.1 917.95 857.7 917.85 859.25 917.85 860.8 919.15 862.1 920.35 863.45 922.45 864.4 924.5 865.45 925.2 863.2 925.8 861 925.8 859.45 925.9 857.9 924.7 856.7 923.4 855.4 921.35 854.95
M 924.3 851.75
Q 923.9 852.1 923.85 852.7 923.85 853.35 924.25 853.7 924.65 854.15 925.3 854.15 925.9 854.15 926.35 853.8 926.75 853.45 926.7 852.85 926.8 852.25 926.4 851.85 925.95 851.4 925.35 851.4 924.7 851.4 924.3 851.75
M 1041.15 624.8
Q 1042.2 623.85 1042.3 622.5 1042.25 621.1 1041.3 620.15 1040.35 619.15 1038.95 619.15 1037.45 619.05 1036.4 620 1035.35 620.9 1035.45 622.25 1035.45 623.55 1036.6 624.35 1037.8 625.15 1039 625.45 1040.15 625.75 1041.15 624.8
M 1024.8 610.6
Q 1025.8 610.6 1026.45 610 1027.1 609.4 1027.5 608.45 1027.8 607.45 1027.6 606.7 1027.35 605.95 1025.7 606.1 1024 606.3 1023.35 606.9 1022.65 607.5 1022.6 608.35 1022.6 609.25 1023.25 609.9 1023.9 610.55 1024.8 610.6
M 1014.7 614.5
Q 1014.45 614.8 1015.5 616.55 1016.55 618.25 1017.8 618.35 1019.05 618.3 1020.7 618 1022.3 617.7 1022.15 616.3 1021.9 615 1020.6 613.7 1019.2 612.5 1017.9 612.5 1016.65 612.45 1015.75 613.25 1014.8 614.05 1014.7 614.5
M 1047.05 618.5
Q 1046.7 617.95 1046.2 617.75 1045.65 617.5 1045.1 618 1044.6 618.5 1044.5 619.2 1044.5 619.9 1045.05 620.35 1045.55 620.85 1046.2 620.9 1047 620.95 1047.5 620.5 1048 620 1047.75 619.6 1047.4 619.15 1047.05 618.5
M 1056.35 615.4
Q 1055.55 615.3 1054.95 615.85 1054.4 616.45 1054.65 617.05 1054.9 617.65 1055.8 618 1056.65 618.5 1056.85 618.8 1057.05 619.1 1057.6 618.6 1058.25 618.05 1058.25 617.35 1058.3 616.55 1057.7 616 1057.15 615.35 1056.35 615.4
M 1139.05 428.85
Q 1138 427.75 1136.4 427.7 1134.8 427.65 1133.35 429.75 1131.9 431.75 1132 432.5 1132.2 433.25 1133.55 435.3 1134.75 437.25 1136.35 436.5 1137.8 435.7 1139 434.3 1140.1 432.95 1140.15 431.5 1140.2 430 1139.05 428.85
M 949.75 772.65
Q 950.2 773.55 950.9 774.25 951.65 774.95 952.75 775.05 953.85 775.05 954.6 774.35 955.4 773.7 955.4 772.65 955.45 771.6 954.7 770.85 954 770.15 952.65 770.2 951.3 770.25 950.3 771.1 949.4 771.8 949.75 772.65
M 945.1 776.2
Q 943.55 775.1 942.4 775.05 941.25 775 940.4 775.75 939.65 776.45 939.55 777.55 939.55 778.65 940.3 779.45 941.1 780.2 942.25 780.25 943.4 780.3 944.65 779.7 945.8 779.15 946.3 778.25 946.6 777.35 945.1 776.2
M 892.1 710.7
Q 892.95 711.8 894.2 711.9 895.35 711.95 896.5 711 897.6 710.05 897.6 708.55 897.7 707.1 896.65 706.05 895.55 704.95 894 704.9 892.5 704.85 891.4 705.9 890.25 706.85 890.8 708.25 891.2 709.65 892.1 710.7
M 897.65 693.6
Q 897.1 694.05 897.05 695.15 897 696.3 897.55 696.7 898.1 697.15 898.9 696.85 899.6 696.65 900.25 696.15 900.8 695.65 900.8 694.9 900.85 694.15 900.3 693.7 899.75 693.15 898.95 693.1 898.2 693.1 897.65 693.6
M 882.25 773.65
Q 881.55 772.6 880.9 771.95 880.3 771.3 879.3 771.3 878.4 771.25 877.7 771.85 877.05 772.45 877.05 773.3 877 774.2 877.7 774.85 878.25 775.5 880.05 775.65 881.75 775.8 882.3 775.25 882.95 774.55 882.25 773.65
M 886.55 698.75
Q 887.05 698.3 887 697.6 887.1 697 886.6 696.5 886.15 696 885.35 695.95 884.7 695.95 884.2 696.4 883.75 696.85 883.6 697.55 883.7 698.2 884.15 698.65 884.6 699.2 885.25 699.2 886.05 699.2 886.55 698.75
M 803.35 536.05
Q 802.2 536.45 801.45 537.55 800.6 538.7 800.55 539.8 800.6 540.9 801.35 541.65 802.15 542.5 803.35 542.6 804.5 542.6 805.35 541.85 806.2 541.05 806.2 540 806.25 538.85 805.4 537.25 804.45 535.65 803.35 536.05
M 797.2 524.45
Q 796.45 523.6 795.25 523.55 794.1 523.55 793.15 524.15 792.1 524.75 791.75 525.45 791.25 526.2 791.65 528.2 792 530.15 793.7 529.9 795.4 529.55 796.7 528.5 798 527.4 798 526.35 798.05 525.2 797.2 524.45
M 812.8 537.4
Q 812.15 538 812.3 538.9 812.4 539.75 813.05 540.4 813.7 541.05 814.45 541.05 815.15 541.1 815.85 540.45 816.45 539.85 816.5 539 816.5 538.15 815.95 537.55 815.25 536.9 814.35 536.85 813.45 536.8 812.8 537.4
M 952.05 476.7
Q 952.8 477.4 953.7 477.4 954.8 477.45 955.5 476.8 956.25 476.2 956.2 475.2 956.3 474.25 955.55 473.55 954.9 472.85 953.9 472.8 952.9 472.8 952.15 473.4 951.45 474.05 951.35 475.05 951.4 476 952.05 476.7
M 946.05 466.4
Q 945.55 466.9 945.95 467.95 946.45 469.05 947.45 470.1 948.55 471.2 949.65 471.7 950.8 472.1 951.3 471.7 951.75 471.25 952.05 468.4 952.3 465.6 950.8 465.55 949.3 465.55 947.95 465.75 946.5 466 946.05 466.4
M 952.95 461.15
Q 952.95 462.15 953.6 462.8 954.3 463.45 955.25 463.5 956.3 463.55 957.05 462.95 957.7 462.25 957.7 461.3 957.75 460.35 957.05 459.7 956.45 459.05 955.4 459 954.45 458.95 953.7 459.65 953 460.25 952.95 461.15
M 1120.65 422.8
Q 1120 422.95 1119.4 423.35 1119.15 423.5 1118.9 423.7 1118.05 424.5 1117.75 425.3 1117.6 426.2 1118.85 426.85 1120.2 427.55 1121.1 427.3 1121.95 427.1 1122.05 426.2 1122 425.25 1122.25 424.45 1122.3 424.2 1122.35 424.05 1122.4 423.45 1122.05 423.1 1121.6 422.65 1120.65 422.8
M 1133.4 424.35
Q 1134.2 423.25 1132.65 422.35 1131.1 421.5 1131.1 421.7 1131.05 421.9 1128.5 422.6 1126 423.3 1125.95 424.55 1125.9 424.75 1125.95 424.85 1125.95 426 1126.8 426.85 1127.8 427.9 1129.2 427.9 1130.55 427.95 1131.55 427.05 1132.1 426.55 1132.4 426 1132.6 425.45 1133.4 424.35 Z"/>

<path fill="#2A1D00" stroke="none" d="
M 947.9 824.3
Q 943.55 830.65 938.6 828.95 933.65 827.45 931.35 807.05 930.8 803.55 930.15 805.8 928.7 833.6 939.65 833.8 945 834.15 948.15 829.8 953 824.6 951.85 815.9 949.8 810.1 949.2 815.15 950.4 820.8 947.9 824.3
M 894.9 770.4
Q 901.35 782.35 901.15 774.7 893.85 762.3 895.05 735.55 888.15 751.75 894.9 770.4
M 862.5 702.45
Q 857.85 695.1 858.45 700.4
L 867.6 724.05
Q 871.8 730.95 871.25 722.85
L 862.5 702.45
M 942.95 614.85
Q 942.75 624.05 938.7 625.45 929.55 629.5 927.35 607.6 923.8 613.65 924 618.5 925.05 624.9 927.5 627.55 933.05 632.45 940.8 629.3 945.6 626.55 942.95 614.85
M 765.5 476.2
Q 758.55 462.75 764.45 486.7 768.4 494.8 775.8 497.85 783.85 499.45 785.75 489.4 784.55 483.65 783.65 486.25 777 504.95 765.5 476.2 Z"/>

<path fill="#4A1200" stroke="none" d="
M 1102.2 567.45
Q 1120.75 537.5 1122.5 513.8 1107.05 540.65 1102.2 567.45
M 908.9 365.65
Q 913.45 364.65 919.8 366.1 929.3 368.65 942.2 367.2 938.1 365.3 933.65 365.4 929.15 365.4 923.2 364.1 912.7 360.45 901.2 364.5 883.6 370.8 857.4 372.35 882.35 374.65 900.15 368.25 904.25 366.6 908.9 365.65
M 805.75 380.95
Q 811.35 380.05 805.85 379.25 804.05 378.75 801.7 379.45 801.45 379.45 801.25 379.6 791.95 383.95 785.9 384.05 782.5 384.25 778.5 384.05 761 384.05 752.05 390 743.4 395.45 732.3 400.25 730.3 401.35 732.8 401.5 741.85 399.4 747.95 395.4 761.3 387.65 774.25 387.5 791.65 388.1 795.65 385.25 799.5 382.4 804.3 381.2 804.95 381.05 805.75 380.95
M 1103.5 391.5
Q 1100.35 391.45 1106.2 395 1119.9 401.7 1132.7 402.7 1143.4 403.1 1152 407.45 1161.65 412.35 1151.85 405.35 1142.15 399.25 1130.75 398.1 1122.65 397.95 1116.65 395.85 1116.45 395.75 1116.35 395.75
L 1103.5 391.5
M 986.4 369.7
Q 998.35 369.55 1004.1 373.5 1011.45 378.35 1017.95 376.3 1030.15 374.9 1042.55 379.15 1049.95 380.9 1072.95 389.25
L 1062.35 382.9
Q 1049.7 375.25 1028.55 372.45
L 1020.05 372.9
Q 1009.45 374.45 1005.15 370.3 1004.5 369.9 1003.75 369.5 993.9 364.65 986.4 369.7
M 833.1 298.55
Q 832.2 298.65 831.6 299.3 831.05 300 831.1 300.8 831.2 301.7 832.2 302.25 833.25 302.75 834.55 302.7 835.6 302.6 836.4 301.75 837.1 301.05 836.25 300.3 835.4 299.6 834.65 299 833.95 298.5 833.1 298.55
M 856.2 326.9
Q 855.9 325.35 854.55 324.05 853.1 322.6 851.6 322.2 850.05 321.75 849.15 322.5 848.35 323.3 848.65 324.75 849 326.25 848.95 328.9 848.9 331.55 851.35 331.2 853.8 330.8 855.15 329.6 856.6 328.35 856.2 326.9
M 861.05 321.55
Q 859.9 320.75 858.9 321.65 857.9 322.55 857.8 323.8 857.8 325.15 858.7 326.05 859.7 327 861.65 327.05 863.65 327.1 864.05 326.15 864.45 325.35 864.5 324.1 864.45 322.85 863.3 322.65 862.2 322.35 861.05 321.55
M 961.75 296.7
Q 961.8 295.75 956.7 293.8 946.6 291.15 934.65 293.45 929.95 294.65 929.65 296.85 929.45 298.6 932.6 297.5 942.8 294.4 950.85 295.95 961.2 297.95 961.75 296.7
M 741.7 362.25
Q 740.9 363.85 740.6 364.95 740.15 366.15 740.3 367.1 740.5 368 742.75 368 744.9 368 745.7 367.35 746.45 366.75 746.65 365.35 746.8 364 745.85 362.3 744.85 360.55 743.7 360.6 742.45 360.7 741.7 362.25
M 752.4 361.3
Q 751.85 360.75 750.65 360.4 749.4 360.05 748 359.85 746.6 359.6 747.7 361.55 748.8 363.45 749.35 364.1 749.95 364.7 750.8 364.75 751.7 364.75 752.3 364.15 752.95 363.6 752.9 362.8 753 361.95 752.4 361.3
M 791.25 304.85
Q 786.65 306.55 786.8 308.8 786.75 310.55 789.75 309.05 799.7 304.2 809.3 304.05 818.8 304 821.2 301.35 821 299.2 812.95 300 802.75 301.05 791.25 304.85
M 699.25 333.85
Q 698.5 336.55 701.95 335.65 706.35 331.75 711.8 331.35 716.7 330.3 712.4 327.95 706.2 326.05 699.25 333.85
M 697.75 337.35
Q 697.5 332.85 695.45 335.1 691.65 337.85 696.35 341.65 696.4 341.65 696.5 341.65 697.2 342.6 698.8 342.15 700.75 341.35 698.6 340.35 697.4 339.75 697.75 337.35
M 1191.95 362.9
Q 1191.2 363.7 1190.7 364.75 1190.1 365.8 1190.5 367 1190.8 368.15 1191.3 368.75 1191.85 369.3 1192.55 369.15 1193.3 369 1194 368.4 1194.65 367.8 1195.35 366.4 1196.05 365 1194.45 363.55 1192.75 362.1 1191.95 362.9
M 1198.65 343.2
Q 1197.5 342.9 1197.65 344.2 1197.65 345.55 1197.55 346.35 1197.65 347.1 1198.4 348.9 1199.1 350.65 1199.95 350.15 1200.7 349.6 1201.25 348.45 1201.8 347.25 1201.75 346.5 1201.9 345.7 1200.85 344.55 1199.75 343.45 1198.65 343.2
M 1190.6 341.3
Q 1189.1 339.15 1187.2 339.85 1186 340.2 1187.15 341.75 1194.2 350.5 1192.95 355.9 1192.55 360.15 1194.55 357.75 1198.35 349.1 1190.6 341.3
M 1099.2 361.25
Q 1098.2 360.25 1096.8 359.6 1095.35 358.95 1094.95 359.75 1094.55 360.65 1094.85 361.8 1095.15 362.95 1096.2 364.7 1097.3 366.5 1098.35 366.35 1099.45 366.2 1100.05 365.35 1100.65 364.35 1100.3 363.35 1100.15 362.25 1099.2 361.25
M 1117.4 364.35
Q 1117.45 363.2 1116.6 362.4 1115.85 361.55 1114.65 361.5 1113.4 361.55 1113.15 362.25 1112.85 362.85 1112.8 364.05 1112.6 365.2 1112.95 366.1 1113.25 367 1114.45 366.95 1115.7 367.05 1116.55 366.35 1117.35 365.55 1117.4 364.35
M 1090.75 363.6
Q 1093.25 363.6 1093.2 362.5 1093 361.4 1092.45 360.6 1091.8 359.75 1091.1 359.45 1090.3 359.2 1089.3 359.15 1088.35 359.1 1087.55 359.75 1086.9 360.45 1086.85 361.35 1086.85 362.2 1087.45 362.9 1088.2 363.5 1090.75 363.6
M 1082.3 311.7
Q 1081.8 312.45 1082.2 313.3 1082.5 314 1083.45 314.35 1084.4 314.55 1085.65 313.9 1086.85 313.2 1087.5 312.1 1088.2 311.05 1087.8 310.1 1087.5 309.2 1086.25 309.65 1084.9 310.1 1083.85 310.5 1082.85 310.9 1082.3 311.7
M 972.45 300.45
Q 973.25 299.55 973.25 298.4 973.25 297.25 972.55 296.45 971.85 295.7 970.95 296.35 970.1 297.1 969.45 297.65 968.75 298.3 968.75 299.15 968.7 300 969.3 300.65 969.9 301.3 970.85 301.3 971.75 301.35 972.45 300.45
M 1039.7 301.75
Q 1038.5 303.25 1042.5 303.05 1054.9 302.9 1062.55 306.4 1072.5 310.9 1073.6 310 1074.2 309.05 1069.85 305.85 1060.6 300.7 1046.8 299.8 1041.2 299.7 1039.7 301.75 Z"/>

<path fill="#FFF072" stroke="none" d="
M 1047.45 429.95
Q 1041.7 426.15 1036.15 428.1 1033.85 434.15 1039 438.85 1042.65 439.7 1045.65 439.95 1058.85 439.1 1047.45 429.95
M 1074.95 433.25
Q 1063.55 431.8 1063.65 436.25 1063.05 438.85 1070.1 439.3 1087.35 439.8 1103.7 459.05 1108.4 469.7 1121.9 468.75 1135.9 467.25 1136.4 457.25 1138.1 450.05 1112.2 442.7 1102.75 440.05 1074.95 433.25
M 781.2 439.65
Q 785.45 440.2 785.45 435.9 785.35 432.75 781.55 429.65 779.65 426.9 776.25 429.3 771.65 431.9 764.95 430.55 757.55 429.95 752 432.95 742.8 439.85 746.35 448.15 750.05 465.2 760.75 462.85 764.5 460.95 764.3 455.65 763.55 453.15 766.35 453.9 775.05 455.2 773.25 446.3 772.3 439.45 781.2 439.65
M 944.35 425.05
Q 933.05 432.7 942.8 438.3 955.3 434.5 968.9 434.95 979 437.5 986.4 434.65 989.3 433.55 1011.65 432.6 1019.95 432.65 1018.9 428.65 1017.6 426.9 1010.1 426.15 987.3 424.05 983.25 423.8 965.35 423.1 956.2 416.75 945.8 407.8 943.45 419.65 945.55 424.1 944.35 425.05
M 933.8 429.3
Q 935.05 429 935.55 427.35 936 425.7 935.45 423.55 934.95 421.45 933.7 420.15 932.55 418.85 931.25 419.2 930 419.4 928.9 423.15 927.7 426.95 928.9 427.1 930 427.35 931.25 428.45 932.6 429.65 933.8 429.3 Z"/>

<path fill="#896F00" stroke="none" d="
M 941.3 581.4
Q 940.2 580.25 939.4 580.25 938.65 580.35 938.25 580.7 937.85 581.1 938.3 582 938.8 582.9 939.75 583.9 940.7 584.85 941.65 585.4 942.65 585.85 943 585.5 943.4 585.1 942.9 583.85 942.25 582.55 941.3 581.4
M 936.1 574.7
Q 935.8 574.4 935.05 574.7 934.3 574.9 933.6 575.55 932.95 576.15 932.55 576.85 932.3 577.5 932.65 577.8 932.9 578.15 933.95 577.75 934.95 577.5 935.95 576.75 937.05 576.1 936.7 575.6 936.35 575.05 936.1 574.7
M 923.9 578.35
Q 923.25 578.6 922.65 579.15 922 579.7 921.75 580.3 921.55 580.9 921.8 581.15 922.05 581.4 922.7 581.65 923.35 582 923.95 581.45 924.65 580.9 924.85 579.8 925.1 578.7 924.85 578.45 924.55 578.15 923.9 578.35 Z"/>

<path fill="#412302" stroke="none" d="
M 917.35 587.2
Q 919 586.75 919.75 586.05 920.6 585.2 920.65 584.05 920.6 582.85 919.85 582.05 919 581.25 917.75 581.2 916.6 581.2 915.75 581.9 914.85 582.7 914.7 584.15 914.4 585.5 915 586.5 915.7 587.5 917.35 587.2 Z"/>

<path fill="#381805" stroke="none" d="
M 930.65 560.15
Q 929 567.85 923.85 568.35 913.25 569.65 907.7 557.45 906.25 554.45 904 553.8 904.35 555.7 904.85 557.8 909.3 570.05 920.6 572.4 930.95 572.3 933.35 563.6 933.6 560.6 935.9 559.4 941.15 559.35 944.6 553.25 944.8 550.15 943.55 550.1 941.65 557.35 933.7 556.45 931.2 556.9 930.65 560.15 Z"/>

<path fill="#0E0110" stroke="none" d="
M 1068.15 291.9
Q 1026.15 285.7 1016.15 284.75 980.95 281.75 968.5 280.8 947.7 279.2 939.25 279.2 899.7 279.4 879.2 281.6 845.1 285.65 831.3 286.8 761.7 292.55 733.85 302.8 707.45 310.65 686.6 328.85 681.1 332.75 684.65 340.85 692.8 367.05 708.05 398.6
L 721.4 421.9
Q 732.85 444.3 735.7 461.3 744.75 498.4 758 524.4 769 546.05 801.35 612.4 803.15 616.2 815.7 644 830.3 676.6 854.85 749.5
L 862.75 749.75
Q 837.8 675.6 823.05 642.5 810.6 614.65 808.75 610.95 776.35 544.5 765.35 522.9 752.1 496.95 743.1 459.85 740.6 444.8 731.3 425.5 730.05 423 728.75 420.45 728.5 420.05 728.3 419.7 758.1 399.55 806.5 393.55 830.6 390.5 868.6 384.45 879.9 382.6 916.9 380.25 974.6 377.05 1061 395.95 1087.7 401.2 1116 409.05 1144.05 415.4 1160.6 421.2 1161.5 421.55 1162.35 421.8 1163.55 422.25 1164.7 422.75 1169.95 424.65 1173.75 426.6 1168.7 434.9 1164.35 442.65 1147.1 473.25 1141.45 492.9 1131.7 526.55 1112.6 561.75 1081 620.8 1072.7 637.8 1063.8 656 1055.15 666.3 1053.7845703125 667.9201171875 1052.55 669.65 1048.79140625 673.596484375 1049.25 686.8 1049.2892578125 687.048828125 1049.3 687.3 1051.5873046875 707.5919921875 1048.85 714.4 1045.7279296875 724.68359375 1040.8 723.15 1034.30390625 721.417578125 1034.6 713.9 1034.2306640625 705.4951171875 1031.75 704.2 1028.9171875 702.9671875 1027.1 705.6
L 1021.95 717.15 1021.9 717.15
Q 1020.6900390625 719.016015625 1019.55 721
L 974.95 814.3 965.45 836.2 973 836.4 981.6 816.55 1026.1 723.35
Q 1027.290234375 721.2861328125 1028.6 719.35 1027.8099609375 724.7439453125 1032.05 727.8
L 1036.1 730.7
Q 1045.0166015625 734.790234375 1052.35 723.25 1058.31328125 713.791796875 1056 695.15 1055.680078125 692.6443359375 1055.55 690.2 1056.1287109375 676.2140625 1060.95 669.65 1061.36875 669.11953125 1061.8 668.6 1070.45 658.25 1079.35 640.1 1087.7 623 1119.2 564 1138.35 528.8 1148.1 495.15 1155.15 470.65 1180.4 428.85
L 1181.3 426.95
Q 1198.15 398.45 1203.5 379 1214.45 348.6 1209.6 332.6 1208.4 326.65 1190.3 322.05 1141.95 306.55 1114.55 300.6 1087.1 294.75 1068.15 291.9
M 974.3 288.35
Q 986.8 289.35 1021.95 292.4 1031.9 293.3 1073.95 299.5 1092.85 302.35 1137.2 313.65 1145.1 315.65 1191.6 330.25 1197.7 331.7 1201.35 334.5 1205.95 338.15 1203.65 349.3 1202.25 359 1198.45 372.5 1195.3 383.55 1186.55 403.45 1184.6 407.7 1182.4 412.55 1178.55 418.65 1175.1 424.4
L 1165.35 420.45
Q 1164.85 420.2 1164.4 420.05 1163.6 419.7 1162.75 419.3 1145.55 412.5 1111.8 404.75 1083.5 396.9 1056.75 391.65 970.35 372.8 912.65 376.05 875.7 378.4 848.85 383.45 822 388.5 785.25 393.3 762.45 396.2 727 417.15 718.95 404.25 713.45 392.5 709.65 384.45 707.15 377
L 693.95 344.75
Q 689 334 705.7 326.3 721.35 315.95 739.6 310.45 767.45 300.15 837 294.4 850.9 293.35 884.95 289.2 905.5 287 945.05 286.85 953.55 286.85 974.3 288.35
M 873.6 779.85
Q 873.55 779.75 873.5 779.7
L 873.5 779.85 873.6 779.85 Z"/>

<path fill="#CE6F30" stroke="none" d="
M 1046.9 363.95
Q 1022.4 362.35 1003.45 356.3 988.35 351.3 962 349.5 941.3 348.1 907.35 353.4 904.1 353.95 841.6 364.7 819.7 370.2 778.95 376.3 747.35 378.4 713.45 392.5 718.95 404.25 727 417.15 762.45 396.2 785.25 393.3 822 388.5 848.85 383.45 875.7 378.4 912.65 376.05 970.35 372.8 1056.75 391.65 1083.5 396.9 1111.8 404.75 1145.55 412.5 1162.75 419.3 1163.6 419.7 1164.4 420.05 1164.85 420.2 1165.35 420.45
L 1175.1 424.4
Q 1178.55 418.65 1182.4 412.55 1184.6 407.7 1186.55 403.45
L 1131.45 384.45
Q 1114.6 379.8 1102.35 374.6 1072.1 364.25 1046.9 363.95
M 1004.1 373.5
Q 998.35 369.55 986.4 369.7 993.9 364.65 1003.75 369.5 1004.5 369.9 1005.15 370.3 1009.45 374.45 1020.05 372.9
L 1028.55 372.45
Q 1049.7 375.25 1062.35 382.9
L 1072.95 389.25
Q 1049.95 380.9 1042.55 379.15 1030.15 374.9 1017.95 376.3 1011.45 378.35 1004.1 373.5
M 972.05 363.95
Q 972.55 364.5 972.35 365.8 972.15 367.15 971.2 368.65 970.3 370.1 969.15 369.35 968.05 368.55 967.5 368.05 966.9 367.5 967.2 366.15 967.5 364.85 968.45 363.85 969.4 362.9 970.5 363.15 971.5 363.45 972.05 363.95
M 1106.2 395
Q 1100.35 391.45 1103.5 391.5
L 1116.35 395.75
Q 1116.45 395.75 1116.65 395.85 1122.65 397.95 1130.75 398.1 1142.15 399.25 1151.85 405.35 1161.65 412.35 1152 407.45 1143.4 403.1 1132.7 402.7 1119.9 401.7 1106.2 395
M 805.85 379.25
Q 811.35 380.05 805.75 380.95 804.95 381.05 804.3 381.2 799.5 382.4 795.65 385.25 791.65 388.1 774.25 387.5 761.3 387.65 747.95 395.4 741.85 399.4 732.8 401.5 730.3 401.35 732.3 400.25 743.4 395.45 752.05 390 761 384.05 778.5 384.05 782.5 384.25 785.9 384.05 791.95 383.95 801.25 379.6 801.45 379.45 801.7 379.45 804.05 378.75 805.85 379.25
M 829.75 378.15
Q 829.6 377.5 829.3 376.8 829 376.15 829.2 375.25 829.4 374.3 830.65 374.05 831.8 373.75 832.6 373.75 833.35 373.7 833.6 374.15 833.7 374.5 833.65 375.35 833.65 376.2 831.8 377.5 829.9 378.85 829.75 378.15
M 844.55 374.35
Q 845.2 374.7 844.75 375.4 844.2 376.15 843.05 376.65 841.85 377.2 840.65 377.15 839.55 377.1 838.8 376.3 837.95 375.5 838.5 374.6 839.05 373.6 840.4 373.1 841.7 372.65 842.85 373.4 843.9 374.15 844.55 374.35
M 919.8 366.1
Q 913.45 364.65 908.9 365.65 904.25 366.6 900.15 368.25 882.35 374.65 857.4 372.35 883.6 370.8 901.2 364.5 912.7 360.45 923.2 364.1 929.15 365.4 933.65 365.4 938.1 365.3 942.2 367.2 929.3 368.65 919.8 366.1
M 961.05 369.65
Q 959.85 369.55 959.85 368.55 959.9 367.55 960.6 366.8 961.25 366.05 962.05 365.35 962.75 364.8 963.8 366.2 964.9 367.7 964.85 368.7 964.8 369.7 964.2 370.25 963.6 370.7 962.9 370.3 962.2 369.75 961.05 369.65 Z"/>

<path fill="#953902" stroke="none" d="
M 959.85 368.55
Q 959.85 369.55 961.05 369.65 962.2 369.75 962.9 370.3 963.6 370.7 964.2 370.25 964.8 369.7 964.85 368.7 964.9 367.7 963.8 366.2 962.75 364.8 962.05 365.35 961.25 366.05 960.6 366.8 959.9 367.55 959.85 368.55
M 844.75 375.4
Q 845.2 374.7 844.55 374.35 843.9 374.15 842.85 373.4 841.7 372.65 840.4 373.1 839.05 373.6 838.5 374.6 837.95 375.5 838.8 376.3 839.55 377.1 840.65 377.15 841.85 377.2 843.05 376.65 844.2 376.15 844.75 375.4
M 829.3 376.8
Q 829.6 377.5 829.75 378.15 829.9 378.85 831.8 377.5 833.65 376.2 833.65 375.35 833.7 374.5 833.6 374.15 833.35 373.7 832.6 373.75 831.8 373.75 830.65 374.05 829.4 374.3 829.2 375.25 829 376.15 829.3 376.8
M 972.35 365.8
Q 972.55 364.5 972.05 363.95 971.5 363.45 970.5 363.15 969.4 362.9 968.45 363.85 967.5 364.85 967.2 366.15 966.9 367.5 967.5 368.05 968.05 368.55 969.15 369.35 970.3 370.1 971.2 368.65 972.15 367.15 972.35 365.8 Z"/>

<path fill="#EDA02B" stroke="none" d="
M 1021.95 292.4
Q 986.8 289.35 974.3 288.35 953.55 286.85 945.05 286.85 905.5 287 884.95 289.2 850.9 293.35 837 294.4 767.45 300.15 739.6 310.45 721.35 315.95 705.7 326.3 689 334 693.95 344.75
L 707.15 377
Q 709.65 384.45 713.45 392.5 747.35 378.4 778.95 376.3 819.7 370.2 841.6 364.7 904.1 353.95 907.35 353.4 941.3 348.1 962 349.5 988.35 351.3 1003.45 356.3 1022.4 362.35 1046.9 363.95 1072.1 364.25 1102.35 374.6 1114.6 379.8 1131.45 384.45
L 1186.55 403.45
Q 1195.3 383.55 1198.45 372.5 1202.25 359 1203.65 349.3 1205.95 338.15 1201.35 334.5 1197.7 331.7 1191.6 330.25 1145.1 315.65 1137.2 313.65 1092.85 302.35 1073.95 299.5 1031.9 293.3 1021.95 292.4
M 1042.5 303.05
Q 1038.5 303.25 1039.7 301.75 1041.2 299.7 1046.8 299.8 1060.6 300.7 1069.85 305.85 1074.2 309.05 1073.6 310 1072.5 310.9 1062.55 306.4 1054.9 302.9 1042.5 303.05
M 1036.15 325.95
Q 1034.1 322.2 1041.35 322.5 1067.5 322.8 1069.95 327.35 1077.45 335.6 1064.7 334.15 1058.55 333.7 1051.55 332.05 1048.85 331.4 1046.3 328.9 1043.95 326.7 1039 326.65 1038.2 326.7 1037.6 326.55 1036.65 326.35 1036.15 325.95
M 1005.9 316.4
Q 984.55 315.1 976.25 313.85 963.5 311.95 948.3 315.65 934 317.95 917.35 316.7 912.75 316.4 903.9 311.5 895.35 308 900.05 302.3 905.1 297.8 931.7 302.8 935.05 303.4 960.25 306.5 970.1 307.7 1011.6 313.45 1015.55 314.95 1012.85 316.15 1010.15 316.45 1005.9 316.4
M 973.25 298.4
Q 973.25 299.55 972.45 300.45 971.75 301.35 970.85 301.3 969.9 301.3 969.3 300.65 968.7 300 968.75 299.15 968.75 298.3 969.45 297.65 970.1 297.1 970.95 296.35 971.85 295.7 972.55 296.45 973.25 297.25 973.25 298.4
M 1093.8 332.05
Q 1120.45 333.2 1129.4 334.85 1153.95 339.3 1160.05 344.55 1173.2 355.55 1173.2 357.85 1173.1 362.3 1159.95 355.05 1150.65 351.4 1134.4 350.2 1119 347.25 1115.1 345.2 1101.8 338.75 1088.45 340.25 1082.45 340.15 1081.05 338.15 1077.25 330.15 1093.8 332.05
M 1082.2 313.3
Q 1081.8 312.45 1082.3 311.7 1082.85 310.9 1083.85 310.5 1084.9 310.1 1086.25 309.65 1087.5 309.2 1087.8 310.1 1088.2 311.05 1087.5 312.1 1086.85 313.2 1085.65 313.9 1084.4 314.55 1083.45 314.35 1082.5 314 1082.2 313.3
M 1093.2 362.5
Q 1093.25 363.6 1090.75 363.6 1088.2 363.5 1087.45 362.9 1086.85 362.2 1086.85 361.35 1086.9 360.45 1087.55 359.75 1088.35 359.1 1089.3 359.15 1090.3 359.2 1091.1 359.45 1091.8 359.75 1092.45 360.6 1093 361.4 1093.2 362.5
M 1116.6 362.4
Q 1117.45 363.2 1117.4 364.35 1117.35 365.55 1116.55 366.35 1115.7 367.05 1114.45 366.95 1113.25 367 1112.95 366.1 1112.6 365.2 1112.8 364.05 1112.85 362.85 1113.15 362.25 1113.4 361.55 1114.65 361.5 1115.85 361.55 1116.6 362.4
M 1096.8 359.6
Q 1098.2 360.25 1099.2 361.25 1100.15 362.25 1100.3 363.35 1100.65 364.35 1100.05 365.35 1099.45 366.2 1098.35 366.35 1097.3 366.5 1096.2 364.7 1095.15 362.95 1094.85 361.8 1094.55 360.65 1094.95 359.75 1095.35 358.95 1096.8 359.6
M 1187.2 339.85
Q 1189.1 339.15 1190.6 341.3 1198.35 349.1 1194.55 357.75 1192.55 360.15 1192.95 355.9 1194.2 350.5 1187.15 341.75 1186 340.2 1187.2 339.85
M 1197.65 344.2
Q 1197.5 342.9 1198.65 343.2 1199.75 343.45 1200.85 344.55 1201.9 345.7 1201.75 346.5 1201.8 347.25 1201.25 348.45 1200.7 349.6 1199.95 350.15 1199.1 350.65 1198.4 348.9 1197.65 347.1 1197.55 346.35 1197.65 345.55 1197.65 344.2
M 1190.7 364.75
Q 1191.2 363.7 1191.95 362.9 1192.75 362.1 1194.45 363.55 1196.05 365 1195.35 366.4 1194.65 367.8 1194 368.4 1193.3 369 1192.55 369.15 1191.85 369.3 1191.3 368.75 1190.8 368.15 1190.5 367 1190.1 365.8 1190.7 364.75
M 695.45 335.1
Q 697.5 332.85 697.75 337.35 697.4 339.75 698.6 340.35 700.75 341.35 698.8 342.15 697.2 342.6 696.5 341.65 696.4 341.65 696.35 341.65 691.65 337.85 695.45 335.1
M 701.95 335.65
Q 698.5 336.55 699.25 333.85 706.2 326.05 712.4 327.95 716.7 330.3 711.8 331.35 706.35 331.75 701.95 335.65
M 708.75 340.15
Q 718.15 334.85 726.55 329.6 752.05 315.3 774.25 314.8 802.7 316.3 816.1 313.3 823.65 311.7 842.65 310.2 852.1 310.55 847.95 314.35 846.35 315.45 842.4 316.25 828.85 317.35 821.85 319.75 801.3 326.7 791.45 328.5 778.3 330.95 769.9 335.2 748.95 343.6 736.3 342.25 722.3 340.8 709.9 343.65 707.25 344.35 704.55 345.15 701.15 344.5 708.75 340.15
M 786.8 308.8
Q 786.65 306.55 791.25 304.85 802.75 301.05 812.95 300 821 299.2 821.2 301.35 818.8 304 809.3 304.05 799.7 304.2 789.75 309.05 786.75 310.55 786.8 308.8
M 750.65 360.4
Q 751.85 360.75 752.4 361.3 753 361.95 752.9 362.8 752.95 363.6 752.3 364.15 751.7 364.75 750.8 364.75 749.95 364.7 749.35 364.1 748.8 363.45 747.7 361.55 746.6 359.6 748 359.85 749.4 360.05 750.65 360.4
M 740.6 364.95
Q 740.9 363.85 741.7 362.25 742.45 360.7 743.7 360.6 744.85 360.55 745.85 362.3 746.8 364 746.65 365.35 746.45 366.75 745.7 367.35 744.9 368 742.75 368 740.5 368 740.3 367.1 740.15 366.15 740.6 364.95
M 956.7 293.8
Q 961.8 295.75 961.75 296.7 961.2 297.95 950.85 295.95 942.8 294.4 932.6 297.5 929.45 298.6 929.65 296.85 929.95 294.65 934.65 293.45 946.6 291.15 956.7 293.8
M 858.9 321.65
Q 859.9 320.75 861.05 321.55 862.2 322.35 863.3 322.65 864.45 322.85 864.5 324.1 864.45 325.35 864.05 326.15 863.65 327.1 861.65 327.05 859.7 327 858.7 326.05 857.8 325.15 857.8 323.8 857.9 322.55 858.9 321.65
M 854.55 324.05
Q 855.9 325.35 856.2 326.9 856.6 328.35 855.15 329.6 853.8 330.8 851.35 331.2 848.9 331.55 848.95 328.9 849 326.25 848.65 324.75 848.35 323.3 849.15 322.5 850.05 321.75 851.6 322.2 853.1 322.6 854.55 324.05
M 831.6 299.3
Q 832.2 298.65 833.1 298.55 833.95 298.5 834.65 299 835.4 299.6 836.25 300.3 837.1 301.05 836.4 301.75 835.6 302.6 834.55 302.7 833.25 302.75 832.2 302.25 831.2 301.7 831.1 300.8 831.05 300 831.6 299.3 Z"/>

<path fill="#EDBD3C" stroke="none" d="
M 726.55 329.6
Q 718.15 334.85 708.75 340.15 701.15 344.5 704.55 345.15 707.25 344.35 709.9 343.65 722.3 340.8 736.3 342.25 748.95 343.6 769.9 335.2 778.3 330.95 791.45 328.5 801.3 326.7 821.85 319.75 828.85 317.35 842.4 316.25 846.35 315.45 847.95 314.35 852.1 310.55 842.65 310.2 823.65 311.7 816.1 313.3 802.7 316.3 774.25 314.8 752.05 315.3 726.55 329.6
M 1129.4 334.85
Q 1120.45 333.2 1093.8 332.05 1077.25 330.15 1081.05 338.15 1082.45 340.15 1088.45 340.25 1101.8 338.75 1115.1 345.2 1119 347.25 1134.4 350.2 1150.65 351.4 1159.95 355.05 1173.1 362.3 1173.2 357.85 1173.2 355.55 1160.05 344.55 1153.95 339.3 1129.4 334.85
M 976.25 313.85
Q 984.55 315.1 1005.9 316.4 1010.15 316.45 1012.85 316.15 1015.55 314.95 1011.6 313.45 970.1 307.7 960.25 306.5 935.05 303.4 931.7 302.8 905.1 297.8 900.05 302.3 895.35 308 903.9 311.5 912.75 316.4 917.35 316.7 934 317.95 948.3 315.65 963.5 311.95 976.25 313.85
M 1041.35 322.5
Q 1034.1 322.2 1036.15 325.95 1036.65 326.35 1037.6 326.55 1038.2 326.7 1039 326.65 1043.95 326.7 1046.3 328.9 1048.85 331.4 1051.55 332.05 1058.55 333.7 1064.7 334.15 1077.45 335.6 1069.95 327.35 1067.5 322.8 1041.35 322.5 Z"/>

<path fill="#8E5F00" stroke="none" d="
M 755.45 426
Q 756.4 426 757.15 425.4 757.8 424.8 757.75 423.9 757.85 423.2 757.45 422.65 757.3 422.5 757.2 422.4 756.55 421.7 755.6 421.7 754.65 421.65 753.95 422.3 753.4 422.75 753.3 423.5 753.3 423.65 753.25 423.75 753.25 424.7 753.9 425.35 754.5 425.95 755.45 426
M 763.25 412.6
Q 762.2 412.55 761.8 412.95 761.35 413.3 761.75 414.2 762.15 415.15 763.1 416.1 764.05 417.1 765 417.45 765.9 417.9 766.4 417.5 766.8 417.1 766.6 415.1 766.3 413.1 765.25 412.85 764.25 412.65 763.25 412.6
M 757.75 416.9
Q 756.9 417.55 756.95 418.6 756.9 419.65 757.65 420.4 758.35 421.1 760 421 761.55 420.9 762.4 420.2 763.2 419.45 762.75 418.6 762.15 417.7 761.45 417 760.7 416.3 759.65 416.2 758.5 416.2 757.75 416.9 Z"/>

<path fill="#F89933" stroke="none" d="
M 916.9 380.25
Q 879.9 382.6 868.6 384.45 830.6 390.5 806.5 393.55 758.1 399.55 728.3 419.7 728.5 420.05 728.75 420.45 730.05 423 731.3 425.5 742.25 425.7 753.3 423.5 753.4 422.75 753.95 422.3 754.65 421.65 755.6 421.7 756.55 421.7 757.2 422.4 757.3 422.5 757.45 422.65 772.6 419.15 787.85 411.5 815.05 399.85 839.85 398.55 894.65 389.65 957.3 395.15 991.55 393.6 1119.4 423.35 1120 422.95 1120.65 422.8 1121.6 422.65 1122.05 423.1 1122.4 423.45 1122.35 424.05 1124.1 424.5 1125.95 424.85 1125.9 424.75 1125.95 424.55 1126 423.3 1128.5 422.6 1131.05 421.9 1131.1 421.7 1131.1 421.5 1132.65 422.35 1134.2 423.25 1133.4 424.35 1132.6 425.45 1132.4 426 1163.7 431.3 1164.35 442.65 1168.7 434.9 1173.75 426.6 1169.95 424.65 1164.7 422.75 1163.55 422.25 1162.35 421.8 1161.5 421.55 1160.6 421.2 1144.05 415.4 1116 409.05 1087.7 401.2 1061 395.95 974.6 377.05 916.9 380.25
M 756.95 418.6
Q 756.9 417.55 757.75 416.9 758.5 416.2 759.65 416.2 760.7 416.3 761.45 417 762.15 417.7 762.75 418.6 763.2 419.45 762.4 420.2 761.55 420.9 760 421 758.35 421.1 757.65 420.4 756.9 419.65 756.95 418.6
M 761.8 412.95
Q 762.2 412.55 763.25 412.6 764.25 412.65 765.25 412.85 766.3 413.1 766.6 415.1 766.8 417.1 766.4 417.5 765.9 417.9 765 417.45 764.05 417.1 763.1 416.1 762.15 415.15 761.75 414.2 761.35 413.3 761.8 412.95 Z"/>
</g>

<g id="Layer7_2_FILL">
<path fill="#440701" stroke="none" d="
M 963.2 548.45
Q 943 550.25 926.5 562.8 891.1 589.75 896.25 618.95 898.65 627.6 902.35 635.45 902.45 635.75 902.55 635.95 910.8 653 924.95 666.7 941.5 683.5 998.4 674.65 1005.7 673.4 1014.1 661.85 1035.4 637.2 1029 598.7 1025.2 584.65 1019.55 574.3 1006.95 543.45 963.2 548.45
M 934.6 561.25
Q 947.8 553.25 963.15 551.8 1004.6 547 1016.55 576.15 1021.85 585.95 1025.4 599.2 1031.45 635.55 1011.2 658.95 1003.45 669.8 996.5 670.9 942.8 679.15 927 663.4 913.15 650 905.25 633 905.3 633.05 905.4 633.05
L 905.35 632.7 905.25 632.75
Q 902 625.9 899.75 618.4 895.2 590.85 928.5 565.25 931.5 563.1 934.6 561.25
M 846.95 391.95
Q 836.3 389.2 827.4 389 802.35 385.65 789.25 415.65 782.8 429.25 784.6 444.45 789 477.15 810.05 484.7 816.5 486.4 823.2 486.9 823.5 486.85 823.45 487 837.85 488.1 852.05 483.95 869.45 479.6 885.1 439.9 887.2 434.6 882.75 425.05 874.65 402 846.95 391.95
M 827.4 391.7
Q 835.85 391.8 845.85 394.4 872.1 404.05 879.7 425.6 883.85 434.75 881.95 439.65 867.1 477.35 850.8 481.5 836.65 485.4 822.65 484.1
L 822.7 483.95 822.45 484.05 822.45 484.1
Q 816.7 483.5 811 482.2 791.1 475.05 786.95 444.1 786.8 441.4 786.65 438.75 786.45 427.3 791.4 416.9 803.7 388.45 827.4 391.7
M 1051.8 320.35
Q 1040.15 328.45 1034.45 341.7 1022.65 370.4 1036.3 386.45 1040.75 390.95 1045.95 394.45 1046.2 394.55 1046.15 394.7 1057.35 402.35 1070.85 405.65 1087.05 410.25 1118.6 385.25 1122.75 381.95 1123.65 372.05 1127.85 349.45 1110.05 328.2 1102.65 320.95 1095.5 316.6 1076.65 302.1 1051.8 320.35
M 1036.55 342.55
Q 1037.65 340.2 1038.8 338 1044.05 328.55 1052.95 322.4 1076.4 305.05 1094.25 318.8 1101.05 322.85 1107.95 329.75 1124.8 349.95 1120.85 371.1 1119.95 380.5 1116.05 383.6 1086.25 407.3 1071 403.05 1057.65 399.55 1046.8 391.9
L 1046.95 391.85 1046.7 391.75 1046.7 391.85
Q 1042.25 388.65 1038.25 384.85 1025.35 369.75 1036.55 342.55 Z"/>

<path fill="#D24416" stroke="none" d="
M 963.15 551.8
Q 947.8 553.25 934.6 561.25 931.5 563.1 928.5 565.25 895.2 590.85 899.75 618.4 902 625.9 905.25 632.75
L 905.35 632.7 905.4 633.05
Q 905.3 633.05 905.25 633 913.15 650 927 663.4 942.8 679.15 996.5 670.9 1003.45 669.8 1011.2 658.95 1031.45 635.55 1025.4 599.2 1021.85 585.95 1016.55 576.15 1004.6 547 963.15 551.8
M 923.75 588.6
Q 922.25 586.35 922.45 583.8 922.8 581.05 925.5 579.25 927.95 577.3 931.9 577.3 936.1 577.1 938.3 578.95 940.5 580.85 940.25 583.65 940.1 586.2 937.65 588.15 934.95 589.8 930.1 590.4 925.4 590.95 923.75 588.6
M 963.2 590.85
Q 963.35 592.05 963.35 593.4 963.45 594.8 962 595.65 960.45 596.65 958.35 596.6 956.2 596.55 954.75 595.65 953.35 594.65 953.3 593.45 953.35 592.05 955.2 590.95 957.25 589.9 960.15 589.75 963.25 589.7 963.2 590.85
M 928.4 576.6
Q 932.3 569.15 935.15 566.9 957.55 548.9 983.45 558.75 993.95 562.65 1001.65 573.1 963.8 540.25 928.4 576.6
M 956.85 618.7
Q 958.2 615.6 963.6 616.25 969 617.05 971.55 619.6 974.15 622.2 974.2 625.95 974.2 629.4 971.5 632.15 968.9 634.65 965.25 634.6 961.45 634.65 958.85 632.05 956.15 629.4 955.9 625.7 955.45 621.85 956.85 618.7
M 934.1 617.85
Q 934.5 616.4 936.75 617.05 938.8 617.8 939.9 618.8 940.95 619.75 941.95 620.85 942.9 622.3 940.85 623.4 939 624.5 937.4 624.4 936 624.45 934.95 623.45 934.05 622.45 933.85 620.8 933.5 619.25 934.1 617.85
M 917.85 614.4
Q 915.1 616.8 911.6 616.35 908.2 616.25 906.5 613.85 904.5 611.65 905.25 608.9 906.05 606.2 907.8 603.95 909.65 601.6 912 601.55 914.4 601.65 916.25 603.9 917.9 606.2 919.3 609.1 920.7 612.15 917.85 614.4
M 919.9 640.4
Q 918.9 639.35 918.9 637.8 918.8 636.3 919.3 635.05 919.75 633.6 921.3 633.65 923 633.65 924.55 635.05 926.2 636.3 926.9 637.35 927.6 638.65 926.35 639.7 925.2 640.9 923 641.15 921 641.4 919.9 640.4
M 962.7 659.15
Q 961.45 658.95 961.55 657.6 961.45 656.25 962.7 655.6 964 655.05 965.65 654.6 967.4 654.25 968.5 654.6 969.75 655 969.95 656.65 970.2 658.15 969 658.8 967.6 659.35 965.7 659.3 963.9 659.6 962.7 659.15
M 980.3 581.7
Q 979.75 579.25 980.9 577.6 981.9 575.8 985.8 576.05 989.4 576.4 991.7 578.2 994.05 580.2 993.35 582.55 992.6 585.05 990.95 586.8 989.25 588.75 986.75 588.1 984.2 587.6 982.45 585.85 980.75 584.25 980.3 581.7
M 1017.6 632.4
Q 1016.45 633.5 1014.8 633.5 1013.3 633.65 1012.05 632.45 1010.95 631.35 1010.3 628.75 1009.95 626.5 1011.45 625.85 1012.85 625.15 1014.7 625.5 1016.55 625.7 1017.95 626 1019.3 626.25 1018.95 628.85 1018.9 631.25 1017.6 632.4
M 993.65 606.05
Q 996.2 604.25 999.8 604.25 1003.35 604.25 1005.95 606 1008.45 607.95 1008.5 610.45 1008.55 613.15 1007.25 615.8 1005.95 618.6 1001.05 617.65 996.2 616.75 993.7 614.85 991.2 613 991.15 610.45 991.25 607.8 993.65 606.05
M 998.2 637.8
Q 999.7 637.75 1001.5 639.7 1003.35 641.55 1003.35 644.1 1003.35 646.6 1001.6 648.55 999.6 650.2 997.05 650.25 994.3 650.35 992 649.7 989.65 649.05 990.45 645.6 991.3 642.25 994 639.8 996.5 637.7 998.2 637.8
M 921.9 649.35
Q 946.65 669.35 986.8 662.4 946.1 677.7 921.9 649.35
M 845.85 394.4
Q 835.85 391.8 827.4 391.7 803.7 388.45 791.4 416.9 786.45 427.3 786.65 438.75 786.8 441.4 786.95 444.1 791.1 475.05 811 482.2 816.7 483.5 822.45 484.1
L 822.45 484.05 822.7 483.95 822.65 484.1
Q 836.65 485.4 850.8 481.5 867.1 477.35 881.95 439.65 883.85 434.75 879.7 425.6 872.1 404.05 845.85 394.4
M 862.7 415.35
Q 861.55 415.6 859.7 415.05 857.95 414.5 858.2 413.35 858.3 412.25 859.05 411.05 860 410 860.7 409.15 861.4 408.35 862.95 409.4 864.65 410.55 864.75 411.9 865.1 412.95 864.4 413.95 863.95 415 862.7 415.35
M 866.4 434.65
Q 865.1 435.9 863.25 434.1 861.35 432.3 860.6 429.75 860.3 427.3 860.8 426.3 861.55 425.35 863.45 424.8 865.25 424.25 867.05 425.2 868.65 426.15 869.3 428.05 869.65 430 868.7 431.65 867.6 433.35 866.4 434.65
M 840.35 420.5
Q 838.65 419.7 838.55 417.4 838.15 415.05 839.5 412.75 840.9 410.45 843 409.5 845.25 408.55 846.85 409.4 848.75 410.4 850.05 412.4 851.35 414.15 848.8 416.9 846.3 419.7 844.25 420.6 842.05 421.6 840.35 420.5
M 820.95 417.05
Q 819.25 417.55 817.4 416.95 815.65 416.35 814.85 415.05 814.15 413.75 815.8 411.35 817.35 409.1 819.55 408.35 821.55 407.5 822.95 409 824.3 410.3 824.85 412.05 825.35 413.85 824.1 415.25 822.75 416.65 820.95 417.05
M 817 438.55
Q 815.75 439.1 814.85 438.7 813.95 438.25 813.95 436.45 814.05 434.8 815.15 432.9 816.15 430.95 816.95 431.3 817.8 431.65 818.7 432.15 819.55 432.55 819.7 433.95 819.65 435.2 818.85 436.6 818.15 437.9 817 438.55
M 844.05 437.25
Q 846.45 438.5 847.15 441.25 847.8 443.9 846.4 446.35 844.95 448.7 842.3 449.4 839.65 450.2 837.05 448.95 834.3 447.85 832.7 445.8 831.25 443.8 833.8 440.45 836.25 437.35 838.95 436.65 841.65 435.85 844.05 437.25
M 826.35 456.6
Q 827.4 456.35 828.6 456.25 829.8 456.1 829.7 457.65 829.8 459.35 829.15 460.25 828.7 461.1 827.55 461.55 826.55 461.75 825.4 461.4 824.45 460.9 823.55 460.15 822.85 459.3 824.1 458 825.4 456.9 826.35 456.6
M 812.3 466.3
Q 814.8 466.5 815.25 469.1 815.6 471.8 814.1 473.95 812.65 476.05 810.5 476.4 808.35 476.75 806.85 475.2 805.3 473.6 804.55 471.75 803.7 469.8 804.6 468.2 805.6 466.7 807.7 466.35 809.8 466.1 812.3 466.3
M 829.25 476.05
Q 828.5 475.1 829.2 474.05 829.8 473.05 831.2 472.6 832.7 472 833.75 471.9 834.85 471.95 835.05 473.1 835.4 474.3 834.65 475.8 834.15 477.3 833.1 477.5 831.9 477.9 830.9 477.3 829.95 476.8 829.25 476.05
M 861.5 456.95
Q 860.9 457.75 860 457.2 859.15 456.75 859.25 455.55 859.3 454.6 859.75 453.4 860.05 452.1 860.65 451.6 861.4 450.8 862.55 451.3 863.55 451.8 863.65 452.9 863.5 453.8 862.9 455.15 862.2 456.3 861.5 456.95
M 839.8 479.55
Q 862.2 471.1 872.85 442.7 867.4 474.6 839.8 479.55
M 799.65 443.05
Q 801.8 442.3 803.5 443.35 805.15 444.5 805.45 446.65 805.75 449.05 804.1 452.35 802.7 455.6 800.55 455.8 798.5 456.05 796.85 454.85 795.25 453.65 795 451.2 794.8 448.95 796.15 446.5 797.65 443.6 799.65 443.05
M 790.55 440.45
Q 787.3 419.4 803.6 406.35 810.1 401.2 819.95 400.1 784.05 412.05 794.45 448.45 791 443.15 790.55 440.45
M 1038.8 338
Q 1037.65 340.2 1036.55 342.55 1025.35 369.75 1038.25 384.85 1042.25 388.65 1046.7 391.85
L 1046.7 391.75 1046.95 391.85 1046.8 391.9
Q 1057.65 399.55 1071 403.05 1086.25 407.3 1116.05 383.6 1119.95 380.5 1120.85 371.1 1124.8 349.95 1107.95 329.75 1101.05 322.85 1094.25 318.8 1076.4 305.05 1052.95 322.4 1044.05 328.55 1038.8 338
M 1042.95 348.75
Q 1045.5 347.1 1047.4 347.6 1049.5 348 1050.4 349.65 1051.25 351.4 1050.45 353.3 1049.55 355.4 1046.7 357.3 1044 359.3 1042.15 358.45 1040.35 357.7 1039.55 355.9 1038.85 354.2 1039.75 352.1 1040.65 350.15 1042.95 348.75
M 1039.6 370.45
Q 1041.1 369.75 1043 370.4 1044.85 371.15 1046.75 372.5 1048.7 373.85 1047.85 376.2 1046.9 378.6 1044.65 379.6 1042.45 380.65 1040.55 379.95 1038.65 379.2 1038.15 377.25 1037.6 375.2 1037.9 373.3 1038.15 371.35 1039.6 370.45
M 1040.6 349.5
Q 1040.3 343.65 1041.25 341.25 1048.45 322.55 1067.9 319.55 1075.6 318.4 1084.15 322.15 1049.25 315 1040.6 349.5
M 1101.75 342.45
Q 1102.8 344.1 1102.9 346.3 1103.15 348.4 1099.75 349.45 1096.4 350.55 1094.3 350.3 1092.1 350.05 1091.2 348.45 1090.2 346.95 1091.2 345 1092 342.9 1094.15 341.7 1096.4 340.45 1098.55 340.7 1100.85 340.95 1101.75 342.45
M 1075.5 329.4
Q 1077.8 328.25 1079.95 328.7 1081.95 328.95 1082.45 330.8 1082.9 332.5 1082.5 334.25 1082.1 335.9 1080.4 336.45 1078.7 336.95 1077 336.45 1075.35 336.1 1074.15 334.7 1073 333.35 1072.95 331.9 1073.05 330.55 1075.5 329.4
M 1076.45 361.55
Q 1079.9 360.2 1082.5 360.9 1085 361.55 1086.3 363.8 1087.7 365.95 1087 368.5 1086.25 370.95 1083.95 372.3 1081.7 373.55 1079.2 372.85 1076.65 372.25 1075.15 370.05 1073.4 367.85 1073.1 365.4 1072.8 363.1 1076.45 361.55
M 1063.65 352.1
Q 1062.4 351.95 1061.85 351.2 1061.35 350.45 1062.2 348.95 1063 347.65 1064.8 346.6 1066.55 345.5 1067 346.15 1067.55 346.85 1068.1 347.7 1068.6 348.45 1068 349.6 1067.35 350.65 1066.1 351.4 1064.9 352.15 1063.65 352.1
M 1064.8 371.95
Q 1065.85 372.45 1065.05 373.7 1064.35 375.1 1063.3 375.5 1062.55 376 1061.45 375.85 1060.55 375.5 1059.8 374.7 1059.25 373.85 1058.85 372.8 1058.7 371.75 1060.3 371.3 1061.9 371 1062.8 371.2 1063.8 371.5 1064.8 371.95
M 1058.45 391.5
Q 1057.35 391.2 1056.75 390.25 1056.25 389.35 1056.05 388.45 1055.85 387.3 1056.85 386.8 1057.85 386.25 1059.25 386.55 1060.7 386.8 1061.6 387.2 1062.45 387.75 1062.1 388.8 1061.85 389.9 1060.55 390.8 1059.45 391.75 1058.45 391.5
M 1091.3 388.05
Q 1090.45 388.5 1089.95 387.55 1089.45 386.8 1090.1 385.85 1090.6 385.05 1091.55 384.3 1092.4 383.45 1093.15 383.3 1094.1 383 1094.8 384 1095.4 384.8 1094.95 385.8 1094.4 386.45 1093.3 387.25 1092.15 387.9 1091.3 388.05
M 1115.15 352.85
Q 1114.9 353.9 1113.9 354.35 1113 355 1111.85 354.7 1110.8 354.35 1109.55 353.05 1108.35 351.8 1109.1 350.95 1109.7 350.1 1110.9 349.5 1112.15 349.05 1113.15 348.7 1114.05 348.45 1114.85 350 1115.65 351.7 1115.15 352.85
M 1103.45 370.25
Q 1102.75 367.9 1103.35 365.5 1104.25 363.3 1105.15 362.75 1106.15 362.35 1108 362.75 1109.75 363.2 1110.75 364.75 1111.65 366.35 1111.25 368.2 1110.6 369.9 1109.05 370.8 1107.35 371.7 1105.75 372.2 1104.15 372.6 1103.45 370.25
M 1063 396.3
Q 1085.2 399.95 1107.25 381.8 1087.8 405.2 1063 396.3 Z"/>

<path fill="#7A0F00" stroke="none" d="
M 986.8 662.4
Q 946.65 669.35 921.9 649.35 946.1 677.7 986.8 662.4
M 872.85 442.7
Q 862.2 471.1 839.8 479.55 867.4 474.6 872.85 442.7
M 1107.25 381.8
Q 1085.2 399.95 1063 396.3 1087.8 405.2 1107.25 381.8 Z"/>

<path fill="#FFA4A2" stroke="none" d="
M 1001.5 639.7
Q 999.7 637.75 998.2 637.8 996.5 637.7 994 639.8 991.3 642.25 990.45 645.6 989.65 649.05 992 649.7 994.3 650.35 997.05 650.25 999.6 650.2 1001.6 648.55 1003.35 646.6 1003.35 644.1 1003.35 641.55 1001.5 639.7
M 863.25 434.1
Q 865.1 435.9 866.4 434.65 867.6 433.35 868.7 431.65 869.65 430 869.3 428.05 868.65 426.15 867.05 425.2 865.25 424.25 863.45 424.8 861.55 425.35 860.8 426.3 860.3 427.3 860.6 429.75 861.35 432.3 863.25 434.1
M 1103.35 365.5
Q 1102.75 367.9 1103.45 370.25 1104.15 372.6 1105.75 372.2 1107.35 371.7 1109.05 370.8 1110.6 369.9 1111.25 368.2 1111.65 366.35 1110.75 364.75 1109.75 363.2 1108 362.75 1106.15 362.35 1105.15 362.75 1104.25 363.3 1103.35 365.5 Z"/>

<path fill="#FFBDA9" stroke="none" d="
M 999.8 604.25
Q 996.2 604.25 993.65 606.05 991.25 607.8 991.15 610.45 991.2 613 993.7 614.85 996.2 616.75 1001.05 617.65 1005.95 618.6 1007.25 615.8 1008.55 613.15 1008.5 610.45 1008.45 607.95 1005.95 606 1003.35 604.25 999.8 604.25
M 838.55 417.4
Q 838.65 419.7 840.35 420.5 842.05 421.6 844.25 420.6 846.3 419.7 848.8 416.9 851.35 414.15 850.05 412.4 848.75 410.4 846.85 409.4 845.25 408.55 843 409.5 840.9 410.45 839.5 412.75 838.15 415.05 838.55 417.4
M 1102.9 346.3
Q 1102.8 344.1 1101.75 342.45 1100.85 340.95 1098.55 340.7 1096.4 340.45 1094.15 341.7 1092 342.9 1091.2 345 1090.2 346.95 1091.2 348.45 1092.1 350.05 1094.3 350.3 1096.4 350.55 1099.75 349.45 1103.15 348.4 1102.9 346.3 Z"/>

<path fill="#F26D42" stroke="none" d="
M 1014.8 633.5
Q 1016.45 633.5 1017.6 632.4 1018.9 631.25 1018.95 628.85 1019.3 626.25 1017.95 626 1016.55 625.7 1014.7 625.5 1012.85 625.15 1011.45 625.85 1009.95 626.5 1010.3 628.75 1010.95 631.35 1012.05 632.45 1013.3 633.65 1014.8 633.5
M 859.7 415.05
Q 861.55 415.6 862.7 415.35 863.95 415 864.4 413.95 865.1 412.95 864.75 411.9 864.65 410.55 862.95 409.4 861.4 408.35 860.7 409.15 860 410 859.05 411.05 858.3 412.25 858.2 413.35 857.95 414.5 859.7 415.05
M 1113.9 354.35
Q 1114.9 353.9 1115.15 352.85 1115.65 351.7 1114.85 350 1114.05 348.45 1113.15 348.7 1112.15 349.05 1110.9 349.5 1109.7 350.1 1109.1 350.95 1108.35 351.8 1109.55 353.05 1110.8 354.35 1111.85 354.7 1113 355 1113.9 354.35 Z"/>

<path fill="#FFBC8F" stroke="none" d="
M 980.9 577.6
Q 979.75 579.25 980.3 581.7 980.75 584.25 982.45 585.85 984.2 587.6 986.75 588.1 989.25 588.75 990.95 586.8 992.6 585.05 993.35 582.55 994.05 580.2 991.7 578.2 989.4 576.4 985.8 576.05 981.9 575.8 980.9 577.6
M 817.4 416.95
Q 819.25 417.55 820.95 417.05 822.75 416.65 824.1 415.25 825.35 413.85 824.85 412.05 824.3 410.3 822.95 409 821.55 407.5 819.55 408.35 817.35 409.1 815.8 411.35 814.15 413.75 814.85 415.05 815.65 416.35 817.4 416.95
M 1079.95 328.7
Q 1077.8 328.25 1075.5 329.4 1073.05 330.55 1072.95 331.9 1073 333.35 1074.15 334.7 1075.35 336.1 1077 336.45 1078.7 336.95 1080.4 336.45 1082.1 335.9 1082.5 334.25 1082.9 332.5 1082.45 330.8 1081.95 328.95 1079.95 328.7 Z"/>

<path fill="#F57553" stroke="none" d="
M 961.55 657.6
Q 961.45 658.95 962.7 659.15 963.9 659.6 965.7 659.3 967.6 659.35 969 658.8 970.2 658.15 969.95 656.65 969.75 655 968.5 654.6 967.4 654.25 965.65 654.6 964 655.05 962.7 655.6 961.45 656.25 961.55 657.6
M 860 457.2
Q 860.9 457.75 861.5 456.95 862.2 456.3 862.9 455.15 863.5 453.8 863.65 452.9 863.55 451.8 862.55 451.3 861.4 450.8 860.65 451.6 860.05 452.1 859.75 453.4 859.3 454.6 859.25 455.55 859.15 456.75 860 457.2
M 1089.95 387.55
Q 1090.45 388.5 1091.3 388.05 1092.15 387.9 1093.3 387.25 1094.4 386.45 1094.95 385.8 1095.4 384.8 1094.8 384 1094.1 383 1093.15 383.3 1092.4 383.45 1091.55 384.3 1090.6 385.05 1090.1 385.85 1089.45 386.8 1089.95 387.55 Z"/>

<path fill="#FF7C51" stroke="none" d="
M 918.9 637.8
Q 918.9 639.35 919.9 640.4 921 641.4 923 641.15 925.2 640.9 926.35 639.7 927.6 638.65 926.9 637.35 926.2 636.3 924.55 635.05 923 633.65 921.3 633.65 919.75 633.6 919.3 635.05 918.8 636.3 918.9 637.8
M 829.2 474.05
Q 828.5 475.1 829.25 476.05 829.95 476.8 830.9 477.3 831.9 477.9 833.1 477.5 834.15 477.3 834.65 475.8 835.4 474.3 835.05 473.1 834.85 471.95 833.75 471.9 832.7 472 831.2 472.6 829.8 473.05 829.2 474.05
M 1056.75 390.25
Q 1057.35 391.2 1058.45 391.5 1059.45 391.75 1060.55 390.8 1061.85 389.9 1062.1 388.8 1062.45 387.75 1061.6 387.2 1060.7 386.8 1059.25 386.55 1057.85 386.25 1056.85 386.8 1055.85 387.3 1056.05 388.45 1056.25 389.35 1056.75 390.25 Z"/>

<path fill="#FDB98E" stroke="none" d="
M 911.6 616.35
Q 915.1 616.8 917.85 614.4 920.7 612.15 919.3 609.1 917.9 606.2 916.25 603.9 914.4 601.65 912 601.55 909.65 601.6 907.8 603.95 906.05 606.2 905.25 608.9 904.5 611.65 906.5 613.85 908.2 616.25 911.6 616.35
M 815.25 469.1
Q 814.8 466.5 812.3 466.3 809.8 466.1 807.7 466.35 805.6 466.7 804.6 468.2 803.7 469.8 804.55 471.75 805.3 473.6 806.85 475.2 808.35 476.75 810.5 476.4 812.65 476.05 814.1 473.95 815.6 471.8 815.25 469.1
M 1043 370.4
Q 1041.1 369.75 1039.6 370.45 1038.15 371.35 1037.9 373.3 1037.6 375.2 1038.15 377.25 1038.65 379.2 1040.55 379.95 1042.45 380.65 1044.65 379.6 1046.9 378.6 1047.85 376.2 1048.7 373.85 1046.75 372.5 1044.85 371.15 1043 370.4 Z"/>

<path fill="#FF7549" stroke="none" d="
M 936.75 617.05
Q 934.5 616.4 934.1 617.85 933.5 619.25 933.85 620.8 934.05 622.45 934.95 623.45 936 624.45 937.4 624.4 939 624.5 940.85 623.4 942.9 622.3 941.95 620.85 940.95 619.75 939.9 618.8 938.8 617.8 936.75 617.05
M 828.6 456.25
Q 827.4 456.35 826.35 456.6 825.4 456.9 824.1 458 822.85 459.3 823.55 460.15 824.45 460.9 825.4 461.4 826.55 461.75 827.55 461.55 828.7 461.1 829.15 460.25 829.8 459.35 829.7 457.65 829.8 456.1 828.6 456.25
M 1065.05 373.7
Q 1065.85 372.45 1064.8 371.95 1063.8 371.5 1062.8 371.2 1061.9 371 1060.3 371.3 1058.7 371.75 1058.85 372.8 1059.25 373.85 1059.8 374.7 1060.55 375.5 1061.45 375.85 1062.55 376 1063.3 375.5 1064.35 375.1 1065.05 373.7 Z"/>

<path fill="#F1CA9F" stroke="none" d="
M 963.6 616.25
Q 958.2 615.6 956.85 618.7 955.45 621.85 955.9 625.7 956.15 629.4 958.85 632.05 961.45 634.65 965.25 634.6 968.9 634.65 971.5 632.15 974.2 629.4 974.2 625.95 974.15 622.2 971.55 619.6 969 617.05 963.6 616.25
M 847.15 441.25
Q 846.45 438.5 844.05 437.25 841.65 435.85 838.95 436.65 836.25 437.35 833.8 440.45 831.25 443.8 832.7 445.8 834.3 447.85 837.05 448.95 839.65 450.2 842.3 449.4 844.95 448.7 846.4 446.35 847.8 443.9 847.15 441.25
M 1082.5 360.9
Q 1079.9 360.2 1076.45 361.55 1072.8 363.1 1073.1 365.4 1073.4 367.85 1075.15 370.05 1076.65 372.25 1079.2 372.85 1081.7 373.55 1083.95 372.3 1086.25 370.95 1087 368.5 1087.7 365.95 1086.3 363.8 1085 361.55 1082.5 360.9 Z"/>

<path fill="#670900" stroke="none" d="
M 935.15 566.9
Q 932.3 569.15 928.4 576.6 963.8 540.25 1001.65 573.1 993.95 562.65 983.45 558.75 957.55 548.9 935.15 566.9
M 803.6 406.35
Q 787.3 419.4 790.55 440.45 791 443.15 794.45 448.45 784.05 412.05 819.95 400.1 810.1 401.2 803.6 406.35
M 1041.25 341.25
Q 1040.3 343.65 1040.6 349.5 1049.25 315 1084.15 322.15 1075.6 318.4 1067.9 319.55 1048.45 322.55 1041.25 341.25 Z"/>

<path fill="#FF8155" stroke="none" d="
M 963.35 593.4
Q 963.35 592.05 963.2 590.85 963.25 589.7 960.15 589.75 957.25 589.9 955.2 590.95 953.35 592.05 953.3 593.45 953.35 594.65 954.75 595.65 956.2 596.55 958.35 596.6 960.45 596.65 962 595.65 963.45 594.8 963.35 593.4
M 814.85 438.7
Q 815.75 439.1 817 438.55 818.15 437.9 818.85 436.6 819.65 435.2 819.7 433.95 819.55 432.55 818.7 432.15 817.8 431.65 816.95 431.3 816.15 430.95 815.15 432.9 814.05 434.8 813.95 436.45 813.95 438.25 814.85 438.7
M 1061.85 351.2
Q 1062.4 351.95 1063.65 352.1 1064.9 352.15 1066.1 351.4 1067.35 350.65 1068 349.6 1068.6 348.45 1068.1 347.7 1067.55 346.85 1067 346.15 1066.55 345.5 1064.8 346.6 1063 347.65 1062.2 348.95 1061.35 350.45 1061.85 351.2 Z"/>

<path fill="#FFAF9B" stroke="none" d="
M 922.45 583.8
Q 922.25 586.35 923.75 588.6 925.4 590.95 930.1 590.4 934.95 589.8 937.65 588.15 940.1 586.2 940.25 583.65 940.5 580.85 938.3 578.95 936.1 577.1 931.9 577.3 927.95 577.3 925.5 579.25 922.8 581.05 922.45 583.8
M 803.5 443.35
Q 801.8 442.3 799.65 443.05 797.65 443.6 796.15 446.5 794.8 448.95 795 451.2 795.25 453.65 796.85 454.85 798.5 456.05 800.55 455.8 802.7 455.6 804.1 452.35 805.75 449.05 805.45 446.65 805.15 444.5 803.5 443.35
M 1047.4 347.6
Q 1045.5 347.1 1042.95 348.75 1040.65 350.15 1039.75 352.1 1038.85 354.2 1039.55 355.9 1040.35 357.7 1042.15 358.45 1044 359.3 1046.7 357.3 1049.55 355.4 1050.45 353.3 1051.25 351.4 1050.4 349.65 1049.5 348 1047.4 347.6 Z"/>
</g>

<g id="Layer7_3_FILL">
<path fill="#008237" stroke="none" d="
M 1354.6 767.15
Q 1352.022265625 762.0689453125 1348.6 767.15 1349.294140625 755.1638671875 1340.8 755.8 1339.1623046875 750.9115234375 1342.8 747 1341.5 736.65 1329.15 742.3 1302.3 753.7 1283.2 754.05 1252.3 756.45 1224.8 739.55 1220.65 737 1215.8 737.5 1213.4 737.85 1214.5 739.65 1236.35 790.85 1294.2 790.45 1334.75 790.55 1351.1 773.2 1354.4431640625 770.7958984375 1354.6 767.15
M 1333.95 746.35
Q 1335.35546875 746.646484375 1336.35 747.95 1337.35 749.3 1337.35 751.2 1337.35 753.1 1336.35 754.4 1336.1033203125 754.7330078125 1335.8 754.95 1336.4873046875 755.1873046875 1337 755.7 1337.9013671875 756.596484375 1338.6 758.15 1339.295703125 759.760546875 1338.05 760.45 1336.8541015625 761.189453125 1335.25 761 1333.6484375 760.853515625 1332.75 759.95 1331.9 759.1 1331.9 757.85 1331.9 756.6 1332.75 755.7 1332.8224609375 755.6314453125 1332.9 755.55 1332.0833984375 755.255078125 1331.45 754.4 1330.44453125 753.1033203125 1330.5 750.75 1330.56640625 748.3896484375 1331.55 747.2 1332.53359375 746.06015625 1333.95 746.35
M 1299.95 759.15
Q 1304.4732421875 760.1296875 1297.65 763.05 1278.165625 768.957421875 1264.55 766.75 1242.593359375 762.1654296875 1234.15 748.65 1263.9392578125 767.957421875 1299.95 759.15 Z"/>

<path fill="#C7F9D4" stroke="none" d="
M 1297.65 763.05
Q 1304.4732421875 760.1296875 1299.95 759.15 1263.9392578125 767.957421875 1234.15 748.65 1242.593359375 762.1654296875 1264.55 766.75 1278.165625 768.957421875 1297.65 763.05
M 1336.35 747.95
Q 1335.35546875 746.646484375 1333.95 746.35 1332.53359375 746.06015625 1331.55 747.2 1330.56640625 748.3896484375 1330.5 750.75 1330.44453125 753.1033203125 1331.45 754.4 1332.0833984375 755.255078125 1332.9 755.55 1332.8224609375 755.6314453125 1332.75 755.7 1331.9 756.6 1331.9 757.85 1331.9 759.1 1332.75 759.95 1333.6484375 760.853515625 1335.25 761 1336.8541015625 761.189453125 1338.05 760.45 1339.295703125 759.760546875 1338.6 758.15 1337.9013671875 756.596484375 1337 755.7 1336.4873046875 755.1873046875 1335.8 754.95 1336.1033203125 754.7330078125 1336.35 754.4 1337.35 753.1 1337.35 751.2 1337.35 749.3 1336.35 747.95
M 1352.85 749.05
Q 1353.35 750.25 1356.35 750.75 1373.25 749.6 1377.55 729 1378 724.4 1376.85 725.15 1372.6 751.25 1352.85 749.05 Z"/>

<path fill="#093E0B" stroke="none" d="
M 1342.8 747
Q 1343.9302734375 747 1344.95 747 1356.212109375 746.9140625 1359 746 1366.3 743.5 1369.55 738.3 1366.2 742.5 1360 744.7 1356.9 745.75 1343.5 745.75 1342.15 734.8 1329.6 740.8 1302.2 752.85 1282.75 753.25 1251.2 755.8 1223.2 737.85 1218.95 735.15 1214 735.7 1211.55 736.05 1212.7 737.95 1234.95 792.25 1293.95 791.85 1335.3 791.95 1351.95 773.55 1355.3529296875 771.0072265625 1355.55 767.15 1355.60078125 765.89296875 1355.3 764.5 1355.31015625 764.4482421875 1355.3 764.4 1355.25 764.35 1355.3 764.3 1355.55 760.05 1362.55 755.05 1354.9783203125 759.9380859375 1354.4 764.1 1354.4103515625 764.3193359375 1354.4 764.5 1354.35 764.55 1354.4 764.6 1354.6859375 765.9431640625 1354.6 767.15 1354.4431640625 770.7958984375 1351.1 773.2 1334.75 790.55 1294.2 790.45 1236.35 790.85 1214.5 739.65 1213.4 737.85 1215.8 737.5 1220.65 737 1224.8 739.55 1252.3 756.45 1283.2 754.05 1302.3 753.7 1329.15 742.3 1341.5 736.65 1342.8 747 Z"/>

<path fill="#215917" stroke="none" d="
M 1342.55 754.15
Q 1340.455078125 750.575 1344.95 747 1343.9302734375 747 1342.8 747 1339.1623046875 750.9115234375 1340.8 755.8 1349.294140625 755.1638671875 1348.6 767.15 1352.022265625 762.0689453125 1354.6 767.15 1354.6859375 765.9431640625 1354.4 764.6 1354.35 764.55 1354.4 764.5 1354.4103515625 764.3193359375 1354.4 764.1 1352.903515625 760.0724609375 1350.05 763.3 1350.734765625 753.537890625 1342.55 754.15 Z"/>

<path fill="#878000" stroke="none" d="
M 1374.2 722.45
Q 1375.25 720.9 1376.9 720.2 1382.1 718.2 1380.5 725.05 1377.6 743.2 1367.45 751.65 1378.8 742.75 1381.95 722.5 1383.55 715.2 1378.25 717.35 1375.4 718.65 1374.2 722.45
M 1372 730
Q 1371.7 734.75 1369.55 738.3 1372.9 734.05 1373.25 727.75 1373.45 724.65 1374.2 722.45 1372.3 725.05 1372 730 Z"/>

<path fill="#C4DA87" stroke="none" d="
M 1373.25 727.75
Q 1372.9 734.05 1369.55 738.3 1366.3 743.5 1359 746 1356.212109375 746.9140625 1344.95 747 1340.455078125 750.575 1342.55 754.15 1350.734765625 753.537890625 1350.05 763.3 1352.903515625 760.0724609375 1354.4 764.1 1354.9783203125 759.9380859375 1362.55 755.05 1362.65 754.95 1362.8 754.9
L 1363.15 754.65
Q 1363.3123046875 754.5201171875 1363.5 754.4 1364.1326171875 753.97109375 1364.8 753.5 1365.7375 752.9375 1366.6 752.3
L 1367.45 751.65
Q 1377.6 743.2 1380.5 725.05 1382.1 718.2 1376.9 720.2 1375.25 720.9 1374.2 722.45 1373.45 724.65 1373.25 727.75
M 1356.35 750.75
Q 1353.35 750.25 1352.85 749.05 1372.6 751.25 1376.85 725.15 1378 724.4 1377.55 729 1373.25 749.6 1356.35 750.75 Z"/>
</g>

<g id="Layer7_4_FILL">
<path fill="#878000" stroke="none" d="
M 1052.7 910.2
Q 1053.1 908.5 1051.85 906.75 1052.2 907.7 1051.95 908.65 1051.1 911.5 1048.65 908.6 1041.95 901.35 1041.7 894.25 1041.75 902 1049.3 910.05 1051.85 913.15 1052.7 910.2
M 1049.35 903.35
Q 1047.45 901.65 1046.65 899.6 1047.4 902.4 1049.9 904.6 1051.2 905.75 1051.85 906.75 1051.4 905.1 1049.35 903.35 Z"/>

<path fill="#C4DA87" stroke="none" d="
M 1042.45 883
Q 1042.9 885.3 1040.6 884.6 1042.25 886.25 1041.85 891.05 1041.85 891.15 1041.8 891.2
L 1041.8 891.45
Q 1041.85 891.55 1041.8 891.65 1041.75 892.1 1041.75 892.5 1041.7 893.1 1041.65 893.7
L 1041.7 894.25
Q 1041.95 901.35 1048.65 908.6 1051.1 911.5 1051.95 908.65 1052.2 907.7 1051.85 906.75 1051.2 905.75 1049.9 904.6 1047.4 902.4 1046.65 899.6 1045.5 896.45 1046.85 892.55 1047.4 891.05 1051.05 886.25 1051.05 883.1 1048.85 882.85 1046.4 886.55 1042.45 883
M 1045.7 889.8
Q 1046.95 888.75 1047.6 888.9 1040.15 896.6 1049.8 907 1049.8 907.75 1048 906.05 1040.6 897.4 1045.7 889.8 Z"/>

<path fill="#C7F9D4" stroke="none" d="
M 1047.6 888.9
Q 1046.95 888.75 1045.7 889.8 1040.6 897.4 1048 906.05 1049.8 907.75 1049.8 907 1040.15 896.6 1047.6 888.9
M 1069.2 845.45
Q 1063.8 850.55 1059.8 860.8 1058.8 864.6 1060.75 863.05 1068.9 844.85 1086.9 838.5 1078.4 837.65 1069.2 845.45
M 1053.5 882.25
Q 1054.35 882.2 1055 881.75 1055.6 881.25 1055.4 880.4 1055.25 879.65 1054.2 878.8 1053.25 878.05 1052.35 878 1051.8 878.05 1051.4 878.25 1051.4 878.2 1051.4 878.15 1051.3 877.5 1050.75 877.05 1050.2 876.65 1049.6 876.75 1048.95 876.85 1048.3 877.45 1047.75 878.05 1047.55 878.85 1047.5 879.6 1048.4 879.8 1049.35 880.05 1050 880 1050.4 879.9 1050.65 879.7 1050.65 879.9 1050.75 880.1 1050.95 881 1051.8 881.6 1052.6 882.25 1053.5 882.25 Z"/>

<path fill="#215917" stroke="none" d="
M 1040.5 884.5
Q 1040.6 884.55 1040.6 884.6 1042.9 885.3 1042.45 883 1046.4 886.55 1048.85 882.85 1051.05 883.1 1051.05 886.25 1051.4 885.8 1051.75 885.3 1051.3 882.45 1048.7 881.55 1046.15 885.35 1041.3 881.1 1042.35 884.25 1039.3 883.7 1039.8 884.1 1040.5 884.45
L 1040.5 884.5 Z"/>

<path fill="#D32C18" stroke="none" d="
M 1097.75 834.4
Q 1098.35 833.2 1097.25 833.15 1068.25 825.55 1049.35 850.25 1035.9 867.5 1037.85 880.2 1037.8 882.4 1039.3 883.7 1042.35 884.25 1041.3 881.1 1046.15 885.35 1048.7 881.55 1051.3 882.45 1051.75 885.3 1056.65 888.15 1058.25 881.05 1062.3 865.85 1068.45 857.65 1077.65 843.65 1093.9 837.5 1096.4 836.6 1097.75 834.4
M 1055 881.75
Q 1054.35 882.2 1053.5 882.25 1052.6 882.25 1051.8 881.6 1050.95 881 1050.75 880.1 1050.65 879.9 1050.65 879.7 1050.4 879.9 1050 880 1049.35 880.05 1048.4 879.8 1047.5 879.6 1047.55 878.85 1047.75 878.05 1048.3 877.45 1048.95 876.85 1049.6 876.75 1050.2 876.65 1050.75 877.05 1051.3 877.5 1051.4 878.15 1051.4 878.2 1051.4 878.25 1051.8 878.05 1052.35 878 1053.25 878.05 1054.2 878.8 1055.25 879.65 1055.4 880.4 1055.6 881.25 1055 881.75
M 1059.8 860.8
Q 1063.8 850.55 1069.2 845.45 1078.4 837.65 1086.9 838.5 1068.9 844.85 1060.75 863.05 1058.8 864.6 1059.8 860.8 Z"/>

<path fill="#093E0B" stroke="none" d="
M 1099.1 834.2
Q 1099.8 833.05 1098.55 832.9 1068.1 824.45 1048.85 849.7 1035.15 867.25 1037.45 880.45 1037.4 882.75 1039 884.05 1039.55 884.5 1040.15 884.9
L 1040.25 884.85 1040.3 884.9
Q 1042 886.4 1041.85 891.05 1042.25 886.25 1040.6 884.6 1040.6 884.55 1040.5 884.5
L 1040.5 884.45
Q 1039.8 884.1 1039.3 883.7 1037.8 882.4 1037.85 880.2 1035.9 867.5 1049.35 850.25 1068.25 825.55 1097.25 833.15 1098.35 833.2 1097.75 834.4 1096.4 836.6 1093.9 837.5 1077.65 843.65 1068.45 857.65 1062.3 865.85 1058.25 881.05 1056.65 888.15 1051.75 885.3 1051.4 885.8 1051.05 886.25 1047.4 891.05 1046.85 892.55 1045.5 896.45 1046.65 899.6 1046 896.75 1047.1 893.35 1047.65 891.7 1052.1 886 1057.2 889.05 1058.75 881.75 1062.7 866.05 1068.95 857.7 1078.3 843.4 1095.15 837.4 1097.7 836.5 1099.1 834.2 Z"/>
</g>

<g id="Layer7_5_FILL">
<path fill="#2A1B0F" stroke="none" d="
M 1332.65 648.95
Q 1326.2 654.88515625 1326.2 663.6 1326.2 672.3048828125 1332.65 678.45 1339.15 684.65 1348.35 684.65 1357.5 684.65 1364 678.45 1370.5 672.3 1370.5 663.45 1370.5 654.7 1364 648.45 1357.5 642.244921875 1348.3 642.65 1339.15 643.0646484375 1332.65 648.95
M 1328.7 663.6
Q 1328.8955078125 655.9080078125 1334.8 650.3 1340.704296875 644.741796875 1348.75 644.15 1356.7984375 643.6025390625 1362.65 649.4 1368.5 655.05 1368.5 663.2 1368.5 671.3 1362.65 677.05 1356.8 682.8 1348.55 682.8 1340.25 682.8 1334.35 677.05 1328.5513671875 671.297265625 1328.7 663.6 Z"/>

<path fill="#423458" stroke="none" d="
M 1334.8 650.3
Q 1328.8955078125 655.9080078125 1328.7 663.6 1328.5513671875 671.297265625 1334.35 677.05 1340.25 682.8 1348.55 682.8 1356.8 682.8 1362.65 677.05 1368.5 671.3 1368.5 663.2 1368.5 655.05 1362.65 649.4 1356.7984375 643.6025390625 1348.75 644.15 1340.704296875 644.741796875 1334.8 650.3
M 1357.65 658.1
Q 1361.05 661.35 1361.05 665.95 1361.05 670.5 1357.65 673.7 1354.2 676.95 1349.45 676.95 1344.6 676.95 1341.25 673.7 1337.8998046875 670.496875 1338.4 666.05 1338.95 661.609375 1341.85 658.25 1344.7498046875 654.940625 1349.45 654.9 1354.2 654.903125 1357.65 658.1 Z"/>

<path fill="#261C0F" stroke="none" d="
M 1361.05 665.95
Q 1361.05 661.35 1357.65 658.1 1354.2 654.903125 1349.45 654.9 1344.7498046875 654.940625 1341.85 658.25 1338.95 661.609375 1338.4 666.05 1337.8998046875 670.496875 1341.25 673.7 1344.6 676.95 1349.45 676.95 1354.2 676.95 1357.65 673.7 1361.05 670.5 1361.05 665.95
M 1356.95 658.8
Q 1360 661.6 1360 665.8 1360 669.95 1356.95 672.8 1353.85 675.75 1349.6 675.75 1345.2 675.75 1342.1 672.8 1339.0943359375 669.9541015625 1340.4 665.7 1341.766796875 661.437109375 1343.75 658.6 1345.7330078125 655.8126953125 1349.8 655.8 1353.85546875 655.845703125 1356.95 658.8 Z"/>
</g>

<g id="Layer7_6_FILL">
<path fill="#6F7400" stroke="none" d="
M 1121.6 693.7
Q 1114.5443359375 700.8517578125 1114.25 711 1113.9669921875 721.1943359375 1120.85 728.35 1127.7830078125 735.50546875 1138.25 735.35 1148.7056640625 735.198046875 1155.75 728.05 1162.85 721 1162.85 710.9 1162.85 700.85 1155.75 693.7 1148.7 686.6 1138.7 686.6 1128.7 686.6 1121.6 693.7
M 1117.3 710.6
Q 1117.552734375 701.38828125 1124.3 694.95 1131.102734375 688.5103515625 1139.85 689 1148.5873046875 689.4990234375 1154.8 695.7 1161.0166015625 701.89609375 1160.85 710.85 1160.6943359375 719.851171875 1154.3 726.45 1147.9 733.05 1138.9 733.05 1129.85 733.05 1123.45 726.45 1117.0986328125 719.85390625 1117.3 710.6 Z"/>

<path fill="#BBC560" stroke="none" d="
M 1124.3 694.95
Q 1117.552734375 701.38828125 1117.3 710.6 1117.0986328125 719.85390625 1123.45 726.45 1129.85 733.05 1138.9 733.05 1147.9 733.05 1154.3 726.45 1160.6943359375 719.851171875 1160.85 710.85 1161.0166015625 701.89609375 1154.8 695.7 1148.5873046875 689.4990234375 1139.85 689 1131.102734375 688.5103515625 1124.3 694.95
M 1122.25 711.95
Q 1122.25 705.4 1126.85 700.75 1131.5 696.15 1138.05 696.15 1144.600390625 696.1515625 1149.6 700.7 1154.5986328125 705.2947265625 1154.55 711.85 1154.501171875 718.405078125 1149.55 723.05 1144.5994140625 727.7482421875 1138.05 727.75 1131.5 727.75 1126.85 723.1 1122.25 718.5 1122.25 711.95 Z"/>

<path fill="#607600" stroke="none" d="
M 1126.85 700.75
Q 1122.25 705.4 1122.25 711.95 1122.25 718.5 1126.85 723.1 1131.5 727.75 1138.05 727.75 1144.5994140625 727.7482421875 1149.55 723.05 1154.501171875 718.405078125 1154.55 711.85 1154.5986328125 705.2947265625 1149.6 700.7 1144.600390625 696.1515625 1138.05 696.15 1131.5 696.15 1126.85 700.75
M 1124.65 711.35
Q 1125.394140625 705.0529296875 1129.05 701.1 1132.7556640625 697.1970703125 1138.4 697.3 1144.098046875 697.4509765625 1148.3 701.65 1152.5 705.8 1152.5 711.75 1152.5 717.65 1148.3 721.85 1144.1 726.05 1138.2 726.05 1132.25 726.05 1128.05 721.85 1123.9017578125 717.6490234375 1124.65 711.35 Z"/>
</g>

<g id="Layer7_7_FILL">
<path fill="#6F7400" stroke="none" d="
M 1121.6 693.7
Q 1114.5443359375 700.8517578125 1114.25 711 1113.9669921875 721.1943359375 1120.85 728.35 1127.7830078125 735.50546875 1138.25 735.35 1148.7056640625 735.198046875 1155.75 728.05 1162.85 721 1162.85 710.9 1162.85 700.85 1155.75 693.7 1148.7 686.6 1138.7 686.6 1128.7 686.6 1121.6 693.7
M 1117.3 710.6
Q 1117.552734375 701.38828125 1124.3 694.95 1131.102734375 688.5103515625 1139.85 689 1148.5873046875 689.4990234375 1154.8 695.7 1161.0166015625 701.89609375 1160.85 710.85 1160.6943359375 719.851171875 1154.3 726.45 1147.9 733.05 1138.9 733.05 1129.85 733.05 1123.45 726.45 1117.0986328125 719.85390625 1117.3 710.6 Z"/>

<path fill="#BBC560" stroke="none" d="
M 1124.3 694.95
Q 1117.552734375 701.38828125 1117.3 710.6 1117.0986328125 719.85390625 1123.45 726.45 1129.85 733.05 1138.9 733.05 1147.9 733.05 1154.3 726.45 1160.6943359375 719.851171875 1160.85 710.85 1161.0166015625 701.89609375 1154.8 695.7 1148.5873046875 689.4990234375 1139.85 689 1131.102734375 688.5103515625 1124.3 694.95
M 1122.25 711.95
Q 1122.25 705.4 1126.85 700.75 1131.5 696.15 1138.05 696.15 1144.600390625 696.1515625 1149.6 700.7 1154.5986328125 705.2947265625 1154.55 711.85 1154.501171875 718.405078125 1149.55 723.05 1144.5994140625 727.7482421875 1138.05 727.75 1131.5 727.75 1126.85 723.1 1122.25 718.5 1122.25 711.95 Z"/>

<path fill="#607600" stroke="none" d="
M 1126.85 700.75
Q 1122.25 705.4 1122.25 711.95 1122.25 718.5 1126.85 723.1 1131.5 727.75 1138.05 727.75 1144.5994140625 727.7482421875 1149.55 723.05 1154.501171875 718.405078125 1154.55 711.85 1154.5986328125 705.2947265625 1149.6 700.7 1144.600390625 696.1515625 1138.05 696.15 1131.5 696.15 1126.85 700.75
M 1124.65 711.35
Q 1125.394140625 705.0529296875 1129.05 701.1 1132.7556640625 697.1970703125 1138.4 697.3 1144.098046875 697.4509765625 1148.3 701.65 1152.5 705.8 1152.5 711.75 1152.5 717.65 1148.3 721.85 1144.1 726.05 1138.2 726.05 1132.25 726.05 1128.05 721.85 1123.9017578125 717.6490234375 1124.65 711.35 Z"/>
</g>

<path id="Layer7_0_1_STROKES" stroke="#FF9999" stroke-width="0.05" stroke-linejoin="round" stroke-linecap="round" fill="none" d="
M 131.95 103.3
Q 131.4 102.85 131 103.5 130.6 104.3 129.95 104.35"/>

<path id="Layer7_1_1_STROKES" stroke="#000000" stroke-width="0.05" stroke-linejoin="round" stroke-linecap="round" fill="none" d="
M 178.89106292724608 22.713784790039064
Q 181.07065887451176 22.933656311035158 182.92522735595702 24.09993133544922 184.7989151000977 25.438279724121095 182.95390625 24.501435852050783 181.30964965820317 23.66974792480469 179.26388854980468 23.59327087402344 176.81662292480473 23.402078247070314 174.19728393554686 22.121087646484376 173.07880706787108 21.442353820800783 173.68106384277343 21.45191345214844
L 176.13788909912108 22.26448211669922
Q 176.1570083618164 22.26448211669922 176.19524688720708 22.283601379394533 177.34240264892583 22.685105895996095 178.89106292724608 22.713784790039064 Z
M 134.13286895751952 81.5915542602539
Q 134.3336212158203 81.79230651855468 134.314501953125 82.06953582763671 134.314501953125 82.3563247680664 134.10419006347655 82.53795776367187 133.88431854248046 82.71959075927734 133.66444702148436 82.71003112792968 133.42545623779296 82.69091186523437 133.2629425048828 82.48059997558593 133.090869140625 82.27984771728515 133.01439208984374 82.01217803955078 132.90923614501952 81.7445083618164 133.1291076660156 81.56287536621093 133.33941955566405 81.36212310791015 133.62620849609374 81.3716827392578 133.92255706787108 81.38124237060546 134.13286895751952 81.5915542602539 Z
M 180.47796173095702 28.592958068847658
Q 180.6978332519531 28.81282958984375 180.68827362060551 29.09961853027344 180.6787139892578 29.37684783935547 180.46840209960936 29.63495788574219 180.2389709472656 29.902627563476564 179.96174163818358 30.055581665039064 179.65583343505858 30.198976135253908 179.42640228271483 29.826150512695314 179.1682922363281 29.434205627441408 179.1300537109375 29.290811157226564 179.11093444824223 29.14741668701172 179.3881637573242 28.76503143310547 179.66539306640624 28.363526916503908 179.9713012695313 28.373086547851564 180.27720947265624 28.38264617919922 180.47796173095702 28.592958068847658 Z
M 164.47513885498046 30.332810974121095
Q 164.48469848632817 30.32325134277344 164.52293701171874 30.304132080078126"/>

<path id="Layer7_1_2_STROKES" stroke="#FF9999" stroke-width="0.05" stroke-linejoin="round" stroke-linecap="round" fill="none" d="
M 160.7946807861328 86.30923233032226
L 160.02035064697264 85.74999389648437
M 160.7946807861328 86.30923233032226
Q 162.49946926236152 87.08647516965866 163.9063407897949 84.88006744384765 165.0416963815689 83.07172874212264 164.60419387817387 79.50755462646484 164.53824735879897 79.02849013209342 164.5181571960449 78.56115112304687"/>

<path id="Layer7_1_3_STROKES" stroke="#FF9999" stroke-width="0.1" stroke-linejoin="round" stroke-linecap="round" fill="none" d="
M 163.9397994995117 74.63214263916015
Q 163.2211840867996 75.38668135404586 163.31364364624028 77.91109619140624 163.3163696348667 77.95867029428481 163.31842346191405 78.0066925048828 163.75573925375937 81.88637179732322 163.23238677978514 83.19279251098632 162.6354699552059 85.15415999889373 161.6932861328125 84.86572799682617 160.4512809038162 84.52972189188003 160.51267166137694 83.09241638183593 160.4372775375843 81.48546475768089 159.9677726745606 81.23784790039062 159.42137999534606 81.00214323997497 159.07394714355468 81.505517578125
L 158.08930511474608 83.71379241943359
M 159.36073608398436 84.13441619873046
Q 159.2096864402294 85.16569877266883 160.02035064697264 85.74999389648437
M 165.54581756591796 74.63214263916015
Q 164.6240226447582 75.88714299201965 164.5181571960449 78.56115112304687"/>
</defs>

<g transform="matrix( 1, 0, 0, 1, 0,0) ">
<use xlink:href="#Layer7_0_FILL"/>

<use xlink:href="#Layer7_0_1_STROKES"/>
</g>

<g transform="matrix( 0.191192626953125, 0, 0, 0.191192626953125, -37.3,-53.4) ">
<use xlink:href="#Layer7_1_FILL"/>

<use xlink:href="#Layer7_1_1_STROKES" transform="matrix( 5.230316162109375, 0, 0, 5.230316162109375, 195.05,279.25) "/>

<use xlink:href="#Layer7_1_2_STROKES" transform="matrix( 5.230316162109375, 0, 0, 5.230316162109375, 195.05,279.25) "/>

<use xlink:href="#Layer7_1_3_STROKES" transform="matrix( 5.230316162109375, 0, 0, 5.230316162109375, 195.05,279.25) "/>
</g>

<g transform="matrix( 0.1649017333984375, 0.004974365234375, -0.0048065185546875, 0.1591796875, -10.15,-23.25) ">
<use xlink:href="#Layer7_2_FILL"/>
</g>

<g transform="matrix( -0.023590087890625, -0.0756072998046875, 0.0798187255859375, -0.0220794677734375, 112.25,214.05) ">
<use xlink:href="#Layer7_3_FILL"/>
</g>

<g transform="matrix( 0.1746673583984375, -0.27557373046875, 0.29180908203125, 0.1662139892578125, -290.75,194.9) ">
<use xlink:href="#Layer7_4_FILL"/>
</g>

<g transform="matrix( 0.1356964111328125, -0.1207427978515625, 0.1280364990234375, 0.128814697265625, -141,146.35) ">
<use xlink:href="#Layer7_5_FILL"/>
</g>

<g transform="matrix( 0.121673583984375, -0.1082611083984375, 0.11480712890625, 0.115509033203125, -58.8,104.65) ">
<use xlink:href="#Layer7_6_FILL"/>
</g>

<g transform="matrix( 0.121673583984375, -0.1082611083984375, 0.11480712890625, 0.115509033203125, -92.95,73.45) ">
<use xlink:href="#Layer7_7_FILL"/>
</g>
</svg>
