
<svg xmlns="http://www.w3.org/2000/svg" version="1.1" xmlns:xlink="http://www.w3.org/1999/xlink" preserveAspectRatio="none" x="0px" y="0px" width="285px" height="284px" viewBox="0 0 285 284">
<defs>
<g id="Layer3_0_FILL">
<path fill="#0E0110" stroke="none" d="
M 1506.3 542.75
Q 1482.3 515.75 1473.65 506.2 1459.3 490.45 1452.95 484.5 1423.3 456.9 1406.25 444.25 1377.75 423.6 1366.55 414.8 1310.3 370.55 1281.8 359.15 1256.2525390625 346.8619140625 1227.1 346.45 1220.128515625 345.753515625 1216.8 354.6 1203.40078125 380.948046875 1191.35 416.5
L 1184 444.2
Q 1175.95 469.85 1165.45 485.3 1144.6 520.85 1135.2 550.55 1127.35 575.3 1102.25 650.3 1100.8 654.55 1089.45 685.2 1075.85 721.85 1038.85 798.65 1034.55 807.5 1006.2 871.05 1001 882.7 962.55 962.2 955.5029296875 974.9185546875 961.8 981.8 968.6044921875 989.315625 979.5 985.2
L 1085.25 937.4 1187.9 895.15
Q 1195.85 892.55 1203.6 891.85 1218.65 891.45 1228.35 886.6 1232.35 884.85 1236.25 883 1245.6 878.45 1255.2 877.05 1269.35 874.95 1289.5 866.9 1308.4 859.3 1375.85 834.9 1416.3 820.6 1448.6 800.9 1472.1 786.55 1522.05 771.35
L 1524.1 770.45
Q 1557.9595703125 759.8701171875 1576.35 748.3 1607.080859375 732.0603515625 1615.4 716 1618.878125 710.512109375 1608.8 694.2 1584.1861328125 648.0384765625 1568.05 624.15 1551.9544921875 600.3037109375 1539.9 584.8 1513.1 550.45 1506.3 542.75
M 1472.25 516.2
Q 1480.9572265625 525.7802734375 1504.9 552.8 1511.7595703125 560.50234375 1538.5 594.85 1550.6015625 610.3361328125 1575.35 650.3 1579.7423828125 657.378125 1603.65 701.5 1607.2005859375 706.9728515625 1607.75 711.7 1608.529296875 717.8267578125 1598.5 725 1590.23046875 731.6302734375 1577.3 739.55 1566.8353515625 746.03359375 1545.5 755.55 1540.8298828125 757.6669921875 1535.65 759.9 1528.2599609375 761.9962890625 1521.35 764.05
L 1517.05 754.15
Q 1516.845703125 753.666015625 1516.6 753.15 1516.278515625 752.3396484375 1515.9 751.5 1508.1361328125 734.0609375 1488.6 704.3 1473.3 678.3 1457.25 655.4 1406.65 580 1361.15 542.1 1331.7044921875 518.0587890625 1307.85 503.2 1284.043359375 488.3833984375 1253.05 466.4 1233.819921875 452.7625 1191.75 444.35
L 1191.7 444.35
Q 1195.3134765625 428.544140625 1199.9 415.45 1203.0728515625 406.5197265625 1206.7 398.85
L 1220.85 364.2
Q 1225.0912109375 352.1966796875 1243.3 357.85 1262.73828125 360.6955078125 1280.45 369.2 1308.959765625 380.601171875 1365.15 424.8 1376.378125 433.625 1404.9 454.25 1421.9509765625 466.9392578125 1451.55 494.5 1457.9625 500.4783203125 1472.25 516.2
M 1321.9 517.85
Q 1331.6998046875 524.344140625 1361.15 548.4 1406.6458984375 586.29140625 1457.25 661.65 1473.295703125 684.5779296875 1488.55 710.6 1504.800390625 735.2904296875 1512.9 751.5 1513.3283203125 752.336328125 1513.7 753.15 1514.307421875 754.3421875 1514.85 755.45 1517.2791015625 760.670703125 1518.75 764.85 1508.7337890625 767.9296875 1499.75 770.95 1464.0994140625 782.980859375 1445.3 794.45 1413.0169921875 814.130078125 1372.55 828.4 1305.07578125 852.8619140625 1286.2 860.4 1266.0529296875 868.4884765625 1251.9 870.55 1242.312109375 871.99453125 1232.95 876.5 1229.073828125 878.3962890625 1225 880.1 1215.3744140625 885.0099609375 1200.3 885.35 1192.537109375 886.0939453125 1184.6 888.7
L 1081.95 930.95 976.15 978.75
Q 975.49296875 978.949609375 974.85 979.05 966.0220703125 980.7609375 969.1 966.2 1007.6015625 886.719921875 1012.8 875.05 1041.14453125 811.4974609375 1045.4 802.6 1082.45546875 725.847265625 1096.05 689.2 1107.4037109375 658.5458984375 1108.8 654.3 1133.96875 579.276953125 1141.8 554.55 1151.204296875 524.840234375 1172 489.25 1181.336328125 475.632421875 1188.7 453.9 1189.65625 451.134765625 1190.55 448.2 1190.7111328125 447.749609375 1190.85 447.3 1228.0775390625 452.311328125 1268.7 481.45 1288.979296875 495.984765625 1321.9 517.85 Z"/>

<path fill="#8E5F00" stroke="none" d="
M 1210.4 470.05
Q 1210.45 469.85625 1210.45 469.65 1210.45 468.7 1209.75 468 1209.05 467.3 1208.1 467.3 1207.286328125 467.3 1206.65 467.8 1206.5505859375 467.8994140625 1206.45 468 1205.75 468.7 1205.75 469.65 1205.75 470.6 1206.45 471.3 1207.15 472 1208.1 472 1209.05 472 1209.75 471.3 1210.298046875 470.751953125 1210.4 470.05
M 1219.9 466.45
Q 1219.5 467.45 1219.5 468.85 1219.5 470.25 1219.9 471.25 1220.3 472.25 1220.9 472.25 1221.49921875 472.2455078125 1222.8 470.5 1224.151953125 468.7630859375 1223.55 467.85 1222.9478515625 466.93671875 1222.2 466.2 1221.5005859375 465.454296875 1220.9 465.45 1220.3 465.45 1219.9 466.45
M 1217.65 468.4
Q 1217.65 467.3 1216.85 466.5 1216.05 465.7 1214.95 465.7 1213.85 465.7 1213.05 466.5 1212.25 467.3 1212.25 468.4 1212.248828125 469.5056640625 1213.5 470.55 1214.803125 471.5828125 1215.95 471.6 1217.0966796875 471.6169921875 1217.35 470.55 1217.6509765625 469.494140625 1217.65 468.4 Z"/>

<path fill="#745400" stroke="none" d="
M 1487.85 730
Q 1485.4478515625 728.800390625 1484.45 729.8 1484.3431640625 729.9068359375 1484.25 730 1483.45 730.9548828125 1483.45 732.25 1483.45 733.7 1484.45 734.7 1485.45 735.7 1486.9 735.7 1487.65546875 735.7 1488.3 735.4 1488.8677734375 735.18203125 1490.25 734.85 1491.639453125 734.56171875 1491.1 732.75 1490.6025390625 730.99375 1490.45 731.1 1490.3037109375 731.2509765625 1487.85 730
M 1477.8 724.7
Q 1476.99453125 725.2044921875 1477.5 726.65 1478.0158203125 728.136328125 1478.8 728.6 1479.633984375 729.0634765625 1480.35 728.3 1481.0552734375 727.5953125 1481.85 727.1 1482.0466796875 726.984375 1482.2 726.85 1482.7 726.4380859375 1482.7 725.9 1482.7 725.2 1481.85 724.7 1481.278125 724.342578125 1480.5 724.25 1480.1919921875 724.2 1479.85 724.2 1478.65 724.2 1477.8 724.7
M 1011.65 925.35
Q 1010.5 923.58125 1008.8 924.4 1007.1 925.20625 1005.9 926.35 1004.7494140625 927.5515625 1004.65 929.45 1004.6017578125 931.394921875 1005.4 933.6 1006.2482421875 935.8548828125 1008.35 934.55 1010.5005859375 933.2982421875 1011.65 932.1 1012.85 930.95625 1012.85 929.05 1012.85 927.18125 1011.65 925.35
M 1017.3 927.5
Q 1017.75 927.05 1017.75 926.45 1017.75 925.85 1017.3 925.4 1016.85 924.95 1016.25 924.95 1015.65 924.95 1015.2 925.4 1014.75 925.85 1014.75 926.45 1014.75 927.05 1015.2 927.5 1015.65 927.95 1016.25 927.95 1016.85 927.95 1017.3 927.5
M 1043.1 831.7
Q 1043.1 830.75 1042.4 830.05 1041.75 829.4 1040.8 829.4 1039.85 829.4 1039.15 830.05 1038.5 830.75 1038.5 831.7 1038.49921875 832.6458984375 1039.7 833.95 1040.901953125 835.3119140625 1041.8 835.25 1042.6978515625 835.187890625 1042.9 833.9 1043.1005859375 832.65390625 1043.1 831.7
M 1099.15 882.55
Q 1099.15234375 881.45078125 1098.05 880.55 1096.94296875 879.64765625 1095.7 879.6 1094.45703125 879.55234375 1094.1 880.5 1093.74765625 881.44921875 1093.75 882.55 1093.75 883.65 1094.55 884.45 1095.35 885.25 1096.45 885.25 1097.55 885.25 1098.35 884.45 1099.15 883.65 1099.15 882.55
M 1087.9 880
Q 1087.5986328125 878.053125 1086.75 877.2 1085.95 876.4 1084.8 876.4 1083.65 876.4 1082.8 877.2 1082 878.05 1082 879.2 1082 880.35 1082.8 881.15 1083.651171875 881.9966796875 1084.95 882.4 1086.29609375 882.8595703125 1087.25 882.4 1088.2537109375 881.990234375 1087.9 880
M 1291.25 832.75
Q 1291.25 831.9 1290.65 831.3 1290.1 830.75 1289.25 830.75 1288.396875 830.74609375 1288.15 831.4 1287.9091796875 832.06171875 1288.25 833 1288.590625 833.93828125 1288.5 834.35 1288.4029296875 834.75390625 1289.25 834.75 1290.1 834.75 1290.65 834.15 1291.25 833.6 1291.25 832.75
M 1281.1 828.55
Q 1281.159375 828.05 1281.35 827.3 1281.540625 826.55 1281.3 826 1281.053125 825.5 1280.3 825.5 1279.55 825.5 1279 826 1278.5 826.55 1278.5 827.3 1278.5 828.05 1279 828.55 1279.55 829.1 1280.3 829.1 1281.046875 829.1 1281.1 828.55
M 1274.8 822.05
Q 1273.75 821 1272.3 821 1270.846484375 821 1269.9 822.05 1268.96015625 823.1 1269.25 824.55 1269.5396484375 826 1270.2 827.05 1270.8533203125 828.1 1272.3 828.1 1273.75 828.1 1274.8 827.05 1275.85 826 1275.85 824.55 1275.85 823.1 1274.8 822.05
M 1264.1 802.1
Q 1263.2 801.2 1261.9 801.2 1260.600390625 801.1990234375 1260.15 801.35 1259.7482421875 801.552734375 1259.25 803.6 1258.7515625 805.6470703125 1259.65 806.55 1260.5990234375 807.4982421875 1262.05 808.4 1263.501171875 809.3068359375 1264.35 808.05 1265.248828125 806.84296875 1265.15 804.95 1265.050390625 803.05234375 1264.1 802.1
M 1275.6 804.3
Q 1276.0173828125 803.5587890625 1274.6 802.5 1273.244140625 801.4970703125 1272.3 801.5 1271.35 801.5 1270.65 802.15 1270 802.85 1270 803.8 1270 804.75 1270.65 805.4 1271.35 806.1 1272.3 806.1 1273.2556640625 806.1029296875 1274.2 805.55 1275.182421875 805.0412109375 1275.6 804.3
M 1168.75 601.5
Q 1168.75 600.55 1168.1 599.9 1167.45 599.25 1166.5 599.25 1165.55 599.25 1165 600 1164.5 600.8 1164.5 601.75 1164.5 602.7 1165 603.2 1165.55 603.75 1166.5 603.75 1167.45 603.75 1168.1 603.1 1168.75 602.45 1168.75 601.5
M 1112.25 782.55
Q 1111.4087890625 783.3908203125 1111.5 784.1 1111.591015625 784.808984375 1112.35 785.15 1113.1029296875 785.496875 1113.9 785.5 1114.7 785.5 1115.25 784.95 1115.8 784.4 1115.8 783.6 1115.8 782.8 1115.25 782.25 1114.7 781.7 1113.9 781.7 1113.096875 781.7029296875 1112.25 782.55
M 1102.7 788.1
Q 1101.6 787 1100.05 787 1098.495703125 786.9970703125 1097.8 788.4 1097.1623046875 789.858203125 1097 791.3 1096.8375 792.7416015625 1097.65 793.65 1098.5041015625 794.602734375 1100.05 794.6 1101.6 794.6 1102.7 793.45 1103.85 792.35 1103.85 790.8 1103.85 789.25 1102.7 788.1
M 1103.5 776.25
Q 1103.5 775.55 1102.95 775 1102.45 774.5 1101.75 774.5 1101.05 774.5 1100.5 775 1100 775.55 1100 776.25 1100 776.95 1100.5 777.45 1101.05 778 1101.75 778 1102.45 778 1102.95 777.45 1103.5 776.95 1103.5 776.25
M 1161.05 593.9
Q 1161.6099609375 591.9865234375 1160.45 591.55 1159.28984375 591.1134765625 1157.85 591.4 1156.4533203125 591.6955078125 1155.6 592.55 1154.75 593.4 1154.75 594.6 1154.75 595.8 1155.6 596.65 1156.45 597.5 1157.65 597.5 1158.85 597.5 1159.7 596.65 1160.546484375 595.8044921875 1161.05 593.9
M 1163.7 576.05
Q 1162.85 575.2017578125 1161.65 575 1160.451171875 574.7947265625 1159.6 575.05 1158.744140625 575.3025390625 1157.55 577.1 1156.3611328125 578.9541015625 1157.85 579.9 1159.336328125 580.842578125 1161.1 580.9 1162.8544921875 581.00234375 1163.7 580.15 1164.55 579.3 1164.55 578.1 1164.55 576.9 1163.7 576.05
M 1486.2 739.05
Q 1483.5658203125 739.6400390625 1483.15 740.35 1482.7240234375 741.059765625 1482.2 743.5 1481.6865234375 745.9966796875 1483.4 746.45 1485.1076171875 746.8998046875 1486.95 746.6 1488.8474609375 746.35 1490 745.2 1491.15 744.05 1491.15 742.4 1491.15 740.75 1490 739.6 1488.8443359375 738.4533203125 1486.2 739.05
M 1320.75 649
Q 1320.75 647.95 1320 647.2 1319.3 646.5 1318.25 646.5 1317.2 646.5 1316.45 647.2 1315.75 647.95 1315.75 649 1315.75 650.05 1316.45 650.75 1317.2 651.5 1318.25 651.5 1319.3 651.5 1320 650.75 1320.75 650.05 1320.75 649
M 1332.15 639.15
Q 1332.15 638.15 1331.4 637.4 1330.7 636.7 1329.7 636.7 1328.7 636.7 1327.95 637.4 1327.25 638.15 1327.25 639.15 1327.25 640.15 1327.95 640.85 1328.7 641.6 1329.7 641.6 1330.7 641.6 1331.4 640.85 1332.15 640.15 1332.15 639.15
M 1323.05 639.35
Q 1321.96640625 638.291796875 1320.75 637.5 1319.5943359375 636.702734375 1318.9 636.7 1318.2 636.7 1317.7 637.85 1317.25 639 1317.25 640.6 1317.25 642.2 1317.7 643.35 1318.2 644.5 1318.9 644.5 1319.60546875 644.497265625 1321.85 642.45 1324.1333984375 640.408203125 1323.05 639.35 Z"/>

<path fill="#FFDA4C" stroke="none" d="
M 1477.5 726.65
Q 1476.99453125 725.2044921875 1477.8 724.7 1478.65 724.2 1479.85 724.2 1480.1919921875 724.2 1480.5 724.25 1407.085546875 611.1755859375 1380.25 588.45 1337.5599609375 540.202734375 1289.95 508.85 1270.3935546875 492.4466796875 1241.4 482.55 1224.3041015625 477.9052734375 1210.4 470.05 1210.298046875 470.751953125 1209.75 471.3 1209.05 472 1208.1 472 1207.15 472 1206.45 471.3 1205.75 470.6 1205.75 469.65 1205.75 468.7 1206.45 468 1206.5505859375 467.8994140625 1206.65 467.8 1196.816796875 461.7322265625 1188.7 453.9 1181.336328125 475.632421875 1172 489.25 1151.204296875 524.840234375 1141.8 554.55 1133.96875 579.276953125 1108.8 654.3 1107.4037109375 658.5458984375 1096.05 689.2 1082.45546875 725.847265625 1045.4 802.6 1041.14453125 811.4974609375 1012.8 875.05 1007.6015625 886.719921875 969.1 966.2 966.0220703125 980.7609375 974.85 979.05 975.49296875 978.949609375 976.15 978.75
L 1081.95 930.95 1184.6 888.7
Q 1192.537109375 886.0939453125 1200.3 885.35 1215.3744140625 885.0099609375 1225 880.1 1229.073828125 878.3962890625 1232.95 876.5 1242.312109375 871.99453125 1251.9 870.55 1266.0529296875 868.4884765625 1286.2 860.4 1305.07578125 852.8619140625 1372.55 828.4 1413.0169921875 814.130078125 1445.3 794.45 1464.0994140625 782.980859375 1499.75 770.95 1507.7587890625 761.5779296875 1488.3 735.4 1487.65546875 735.7 1486.9 735.7 1485.45 735.7 1484.45 734.7 1483.45 733.7 1483.45 732.25 1483.45 730.9548828125 1484.25 730 1483.2197265625 728.4318359375 1482.2 726.85 1482.0466796875 726.984375 1481.85 727.1 1481.0552734375 727.5953125 1480.35 728.3 1479.633984375 729.0634765625 1478.8 728.6 1478.0158203125 728.136328125 1477.5 726.65
M 1342.95 589.1
Q 1344.1 589.75 1344 591.6 1344 593.5 1342.8 595.55 1341.65 597.55 1340 598.55 1338.45 599.55 1337.3 598.9 1336.2 598.25 1336.05 596.45 1335.9 594.65 1335.25 593.7 1334.55 592.7 1338.2 590.6 1341.85 588.45 1342.95 589.1
M 1396.7 649.9
Q 1401.8 655.7 1401.45 658 1399.25 661.9 1393.05 656.05 1375.7 641.1 1372.65 639.95 1365 637 1359.4 627.9 1349.5 618.05 1337.35 612.25 1334.25 601.05 1348.4 602.9 1349.95 603.05 1351.75 598.1 1362.25 590.35 1363.45 604.7 1365.5 616.1 1378.35 629.2 1381.25 632.2 1396.7 649.9
M 1408.85 680.1
Q 1408.55 672.8 1414.75 669.6 1420.35 672.05 1421.8 679.05 1423.55 694.2 1413.05 685.7 1410.95 683.4 1408.85 680.1
M 1421.8 690.9
Q 1421.9 690.9 1422.05 690.9 1421.9 690.9 1421.8 690.9
M 1320.75 637.5
Q 1321.96640625 638.291796875 1323.05 639.35 1324.1333984375 640.408203125 1321.85 642.45 1319.60546875 644.497265625 1318.9 644.5 1318.2 644.5 1317.7 643.35 1317.25 642.2 1317.25 640.6 1317.25 639 1317.7 637.85 1318.2 636.7 1318.9 636.7 1319.5943359375 636.702734375 1320.75 637.5
M 1331.4 637.4
Q 1332.15 638.15 1332.15 639.15 1332.15 640.15 1331.4 640.85 1330.7 641.6 1329.7 641.6 1328.7 641.6 1327.95 640.85 1327.25 640.15 1327.25 639.15 1327.25 638.15 1327.95 637.4 1328.7 636.7 1329.7 636.7 1330.7 636.7 1331.4 637.4
M 1320 647.2
Q 1320.75 647.95 1320.75 649 1320.75 650.05 1320 650.75 1319.3 651.5 1318.25 651.5 1317.2 651.5 1316.45 650.75 1315.75 650.05 1315.75 649 1315.75 647.95 1316.45 647.2 1317.2 646.5 1318.25 646.5 1319.3 646.5 1320 647.2
M 1442.2 741.35
Q 1444.35 714.75 1431.8 702.3 1426.9 697 1429.25 695.35 1432.5 691.8 1439.9 700.85 1455.6 725.75 1460.7 734.45 1474.7 758.4 1468.05 762.9 1460.25 770.4 1448.7 761.75 1437.9 753.05 1442.2 741.35
M 1483.15 740.35
Q 1483.5658203125 739.6400390625 1486.2 739.05 1488.8443359375 738.4533203125 1490 739.6 1491.15 740.75 1491.15 742.4 1491.15 744.05 1490 745.2 1488.8474609375 746.35 1486.95 746.6 1485.1076171875 746.8998046875 1483.4 746.45 1481.6865234375 745.9966796875 1482.2 743.5 1482.7240234375 741.059765625 1483.15 740.35
M 1415.5 797.65
Q 1396.7740234375 815.1341796875 1360.6 825.65 1384.1537109375 807.9931640625 1415.5 797.65
M 1219.5 488.45
Q 1223.85 489 1223.25 492.5 1223.75 497.55 1221.5 500.1 1218.3 503.55 1215.55 500.1 1209.05 493.7 1204.7 499.75 1199.4 508 1193.85 500.85 1192.35 498.35 1191 500.85 1187.2 505.15 1182.95 504.05 1173.3 498.4 1183.15 482.35 1186.65 473.3 1198.7 474.35 1205.05 475.85 1210.1 481.55 1214.1 487.3 1219.5 488.45
M 1182.75 538.5
Q 1185.28984375 537.0990234375 1182 542.5 1173.08125 549.0296875 1168.25 542.1 1164.996484375 534.5076171875 1168.05 525.4 1181.471484375 502.40859375 1176.55 517.85 1163.8306640625 548.5435546875 1182.75 538.5
M 1161.65 575
Q 1162.85 575.2017578125 1163.7 576.05 1164.55 576.9 1164.55 578.1 1164.55 579.3 1163.7 580.15 1162.8544921875 581.00234375 1161.1 580.9 1159.336328125 580.842578125 1157.85 579.9 1156.3611328125 578.9541015625 1157.55 577.1 1158.744140625 575.3025390625 1159.6 575.05 1160.451171875 574.7947265625 1161.65 575
M 1160.45 591.55
Q 1161.6099609375 591.9865234375 1161.05 593.9 1160.546484375 595.8044921875 1159.7 596.65 1158.85 597.5 1157.65 597.5 1156.45 597.5 1155.6 596.65 1154.75 595.8 1154.75 594.6 1154.75 593.4 1155.6 592.55 1156.4533203125 591.6955078125 1157.85 591.4 1159.28984375 591.1134765625 1160.45 591.55
M 1068.8 784.6
L 1079.55 759.5
Q 1082.9841796875 755.026953125 1081 764.05
L 1072.4 786.15
Q 1066.75625 793.0072265625 1068.8 784.6
M 1102.95 775
Q 1103.5 775.55 1103.5 776.25 1103.5 776.95 1102.95 777.45 1102.45 778 1101.75 778 1101.05 778 1100.5 777.45 1100 776.95 1100 776.25 1100 775.55 1100.5 775 1101.05 774.5 1101.75 774.5 1102.45 774.5 1102.95 775
M 1100.05 787
Q 1101.6 787 1102.7 788.1 1103.85 789.25 1103.85 790.8 1103.85 792.35 1102.7 793.45 1101.6 794.6 1100.05 794.6 1098.5041015625 794.602734375 1097.65 793.65 1096.8375 792.7416015625 1097 791.3 1097.1623046875 789.858203125 1097.8 788.4 1098.495703125 786.9970703125 1100.05 787
M 1111.5 784.1
Q 1111.4087890625 783.3908203125 1112.25 782.55 1113.096875 781.7029296875 1113.9 781.7 1114.7 781.7 1115.25 782.25 1115.8 782.8 1115.8 783.6 1115.8 784.4 1115.25 784.95 1114.7 785.5 1113.9 785.5 1113.1029296875 785.496875 1112.35 785.15 1111.591015625 784.808984375 1111.5 784.1
M 1220.15 679.8
Q 1221.35 677.75 1222.5 676 1223.75 678.15 1222.55 681.5 1217.6 695.05 1226.55 701.45 1230.75 704.6 1237.75 699.7 1240.55 697.55 1242.75 698.95 1248 705.25 1254.85 700.85 1255.75 701.75 1253.25 704.05 1246.15 706.45 1242.2 702.85 1239.6 702.15 1237.2 704.35 1228.9 709.5 1221.15 702.3 1214.45 692.55 1220.15 679.8
M 1168.1 599.9
Q 1168.75 600.55 1168.75 601.5 1168.75 602.45 1168.1 603.1 1167.45 603.75 1166.5 603.75 1165.55 603.75 1165 603.2 1164.5 602.7 1164.5 601.75 1164.5 600.8 1165 600 1165.55 599.25 1166.5 599.25 1167.45 599.25 1168.1 599.9
M 1213.35 709.4
Q 1213.35 710.6 1212.5 711.55 1211.6 712.45 1210.4 712.5 1209.2 712.55 1207.7 711.7 1206.2 710.8 1206.45 709.55 1206.7 708.3 1207.95 707.4 1209.2 706.45 1210.4 706.45 1211.6 706.45 1212.45 707.3 1213.35 708.2 1213.35 709.4
M 1189.4 740.95
Q 1192.863671875 737.0615234375 1200 734.75 1185.354296875 753.5943359375 1195.25 756.75 1199.2833984375 758.5251953125 1206.25 751.5 1199.601953125 762.4900390625 1193.85 761.25 1185.783984375 758.2798828125 1185.15 750.55 1185.4453125 746.775 1189.4 740.95
M 1218.8 711.15
Q 1217.8 711.8 1216.9 711.8 1216 711.8 1215.75 711.15 1215.5 710.45 1215.5 710.05 1215.5 709.65 1216.1 709.35 1216.75 709.05 1217.65 709.05 1218.55 709.05 1219.15 709.35 1219.8 709.65 1219.8 710.05 1219.8 710.45 1218.8 711.15
M 1230.2 714.25
Q 1230.95 714.55 1230.95 715 1230.95 715.45 1230.8 716.1 1230.65 716.75 1229.35 716.55 1228.05 716.35 1227.05 715.9 1226.05 715.45 1226.05 715 1226.05 714.55 1226.75 714.25 1227.5 713.95 1228.5 713.95 1229.5 713.95 1230.2 714.25
M 1229.35 721.75
Q 1229.95 722.25 1229.85 723.9 1229.75 725.55 1229.25 726.95 1228.7 728.35 1228.15 728.35 1227.6 728.35 1227.2 727.3 1226.85 726.25 1226.85 724.8 1226.85 723.35 1227.2 722.3 1227.6 721.25 1228.15 721.25 1228.7 721.25 1229.35 721.75
M 1274.6 802.5
Q 1276.0173828125 803.5587890625 1275.6 804.3 1275.182421875 805.0412109375 1274.2 805.55 1273.2556640625 806.1029296875 1272.3 806.1 1271.35 806.1 1270.65 805.4 1270 804.75 1270 803.8 1270 802.85 1270.65 802.15 1271.35 801.5 1272.3 801.5 1273.244140625 801.4970703125 1274.6 802.5
M 1261.9 801.2
Q 1263.2 801.2 1264.1 802.1 1265.050390625 803.05234375 1265.15 804.95 1265.248828125 806.84296875 1264.35 808.05 1263.501171875 809.3068359375 1262.05 808.4 1260.5990234375 807.4982421875 1259.65 806.55 1258.7515625 805.6470703125 1259.25 803.6 1259.7482421875 801.552734375 1260.15 801.35 1260.600390625 801.1990234375 1261.9 801.2
M 1272.3 821
Q 1273.75 821 1274.8 822.05 1275.85 823.1 1275.85 824.55 1275.85 826 1274.8 827.05 1273.75 828.1 1272.3 828.1 1270.8533203125 828.1 1270.2 827.05 1269.5396484375 826 1269.25 824.55 1268.96015625 823.1 1269.9 822.05 1270.846484375 821 1272.3 821
M 1281.35 827.3
Q 1281.159375 828.05 1281.1 828.55 1281.046875 829.1 1280.3 829.1 1279.55 829.1 1279 828.55 1278.5 828.05 1278.5 827.3 1278.5 826.55 1279 826 1279.55 825.5 1280.3 825.5 1281.053125 825.5 1281.3 826 1281.540625 826.55 1281.35 827.3
M 1290.65 831.3
Q 1291.25 831.9 1291.25 832.75 1291.25 833.6 1290.65 834.15 1290.1 834.75 1289.25 834.75 1288.4029296875 834.75390625 1288.5 834.35 1288.590625 833.93828125 1288.25 833 1287.9091796875 832.06171875 1288.15 831.4 1288.396875 830.74609375 1289.25 830.75 1290.1 830.75 1290.65 831.3
M 1054.75 840.2
Q 1063.572265625 820.7822265625 1080.75 812.9 1059.980859375 833.195703125 1056.25 848.05 1050.67578125 854.2681640625 1054.75 840.2
M 1086.75 877.2
Q 1087.5986328125 878.053125 1087.9 880 1088.2537109375 881.990234375 1087.25 882.4 1086.29609375 882.8595703125 1084.95 882.4 1083.651171875 881.9966796875 1082.8 881.15 1082 880.35 1082 879.2 1082 878.05 1082.8 877.2 1083.65 876.4 1084.8 876.4 1085.95 876.4 1086.75 877.2
M 1098.05 880.55
Q 1099.15234375 881.45078125 1099.15 882.55 1099.15 883.65 1098.35 884.45 1097.55 885.25 1096.45 885.25 1095.35 885.25 1094.55 884.45 1093.75 883.65 1093.75 882.55 1093.74765625 881.44921875 1094.1 880.5 1094.45703125 879.55234375 1095.7 879.6 1096.94296875 879.64765625 1098.05 880.55
M 1042.4 830.05
Q 1043.1 830.75 1043.1 831.7 1043.1005859375 832.65390625 1042.9 833.9 1042.6978515625 835.187890625 1041.8 835.25 1040.901953125 835.3119140625 1039.7 833.95 1038.49921875 832.6458984375 1038.5 831.7 1038.5 830.75 1039.15 830.05 1039.85 829.4 1040.8 829.4 1041.75 829.4 1042.4 830.05
M 1017.75 926.45
Q 1017.75 927.05 1017.3 927.5 1016.85 927.95 1016.25 927.95 1015.65 927.95 1015.2 927.5 1014.75 927.05 1014.75 926.45 1014.75 925.85 1015.2 925.4 1015.65 924.95 1016.25 924.95 1016.85 924.95 1017.3 925.4 1017.75 925.85 1017.75 926.45
M 1050.4 924.35
Q 1044.85 925.55 1041.1 921.55 1033.05 913.7 1054.8 892.85 1056.9 891.55 1054.8 894.65 1041.35 912.3 1043.95 917 1046.35 921.8 1054.35 919.9 1058.8 918.85 1062.05 913.55 1066.25 910 1063.55 916 1057.9 923.7 1050.4 924.35
M 1008.8 924.4
Q 1010.5 923.58125 1011.65 925.35 1012.85 927.18125 1012.85 929.05 1012.85 930.95625 1011.65 932.1 1010.5005859375 933.2982421875 1008.35 934.55 1006.2482421875 935.8548828125 1005.4 933.6 1004.6017578125 931.394921875 1004.65 929.45 1004.7494140625 927.5515625 1005.9 926.35 1007.1 925.20625 1008.8 924.4 Z"/>

<path fill="#2A1D00" stroke="none" d="
M 1041.1 921.55
Q 1044.85 925.55 1050.4 924.35 1057.9 923.7 1063.55 916 1066.25 910 1062.05 913.55 1058.8 918.85 1054.35 919.9 1046.35 921.8 1043.95 917 1041.35 912.3 1054.8 894.65 1056.9 891.55 1054.8 892.85 1033.05 913.7 1041.1 921.55
M 1080.75 812.9
Q 1063.572265625 820.7822265625 1054.75 840.2 1050.67578125 854.2681640625 1056.25 848.05 1059.980859375 833.195703125 1080.75 812.9
M 1200 734.75
Q 1192.863671875 737.0615234375 1189.4 740.95 1185.4453125 746.775 1185.15 750.55 1185.783984375 758.2798828125 1193.85 761.25 1199.601953125 762.4900390625 1206.25 751.5 1199.2833984375 758.5251953125 1195.25 756.75 1185.354296875 753.5943359375 1200 734.75
M 1079.55 759.5
L 1068.8 784.6
Q 1066.75625 793.0072265625 1072.4 786.15
L 1081 764.05
Q 1082.9841796875 755.026953125 1079.55 759.5
M 1182 542.5
Q 1185.28984375 537.0990234375 1182.75 538.5 1163.8306640625 548.5435546875 1176.55 517.85 1181.471484375 502.40859375 1168.05 525.4 1164.996484375 534.5076171875 1168.25 542.1 1173.08125 549.0296875 1182 542.5 Z"/>

<path fill="#896F00" stroke="none" d="
M 1229.85 723.9
Q 1229.95 722.25 1229.35 721.75 1228.7 721.25 1228.15 721.25 1227.6 721.25 1227.2 722.3 1226.85 723.35 1226.85 724.8 1226.85 726.25 1227.2 727.3 1227.6 728.35 1228.15 728.35 1228.7 728.35 1229.25 726.95 1229.75 725.55 1229.85 723.9
M 1230.95 715
Q 1230.95 714.55 1230.2 714.25 1229.5 713.95 1228.5 713.95 1227.5 713.95 1226.75 714.25 1226.05 714.55 1226.05 715 1226.05 715.45 1227.05 715.9 1228.05 716.35 1229.35 716.55 1230.65 716.75 1230.8 716.1 1230.95 715.45 1230.95 715
M 1216.9 711.8
Q 1217.8 711.8 1218.8 711.15 1219.8 710.45 1219.8 710.05 1219.8 709.65 1219.15 709.35 1218.55 709.05 1217.65 709.05 1216.75 709.05 1216.1 709.35 1215.5 709.65 1215.5 710.05 1215.5 710.45 1215.75 711.15 1216 711.8 1216.9 711.8 Z"/>

<path fill="#412302" stroke="none" d="
M 1212.5 711.55
Q 1213.35 710.6 1213.35 709.4 1213.35 708.2 1212.45 707.3 1211.6 706.45 1210.4 706.45 1209.2 706.45 1207.95 707.4 1206.7 708.3 1206.45 709.55 1206.2 710.8 1207.7 711.7 1209.2 712.55 1210.4 712.5 1211.6 712.45 1212.5 711.55 Z"/>

<path fill="#381805" stroke="none" d="
M 1222.5 676
Q 1221.35 677.75 1220.15 679.8 1214.45 692.55 1221.15 702.3 1228.9 709.5 1237.2 704.35 1239.6 702.15 1242.2 702.85 1246.15 706.45 1253.25 704.05 1255.75 701.75 1254.85 700.85 1248 705.25 1242.75 698.95 1240.55 697.55 1237.75 699.7 1230.75 704.6 1226.55 701.45 1217.6 695.05 1222.55 681.5 1223.75 678.15 1222.5 676 Z"/>

<path fill="#FFF072" stroke="none" d="
M 1223.25 492.5
Q 1223.85 489 1219.5 488.45 1214.1 487.3 1210.1 481.55 1205.05 475.85 1198.7 474.35 1186.65 473.3 1183.15 482.35 1173.3 498.4 1182.95 504.05 1187.2 505.15 1191 500.85 1192.35 498.35 1193.85 500.85 1199.4 508 1204.7 499.75 1209.05 493.7 1215.55 500.1 1218.3 503.55 1221.5 500.1 1223.75 497.55 1223.25 492.5
M 1431.8 702.3
Q 1444.35 714.75 1442.2 741.35 1437.9 753.05 1448.7 761.75 1460.25 770.4 1468.05 762.9 1474.7 758.4 1460.7 734.45 1455.6 725.75 1439.9 700.85 1432.5 691.8 1429.25 695.35 1426.9 697 1431.8 702.3
M 1414.75 669.6
Q 1408.55 672.8 1408.85 680.1 1410.95 683.4 1413.05 685.7 1423.55 694.2 1421.8 679.05 1420.35 672.05 1414.75 669.6
M 1401.45 658
Q 1401.8 655.7 1396.7 649.9 1381.25 632.2 1378.35 629.2 1365.5 616.1 1363.45 604.7 1362.25 590.35 1351.75 598.1 1349.95 603.05 1348.4 602.9 1334.25 601.05 1337.35 612.25 1349.5 618.05 1359.4 627.9 1365 637 1372.65 639.95 1375.7 641.1 1393.05 656.05 1399.25 661.9 1401.45 658
M 1344 591.6
Q 1344.1 589.75 1342.95 589.1 1341.85 588.45 1338.2 590.6 1334.55 592.7 1335.25 593.7 1335.9 594.65 1336.05 596.45 1336.2 598.25 1337.3 598.9 1338.45 599.55 1340 598.55 1341.65 597.55 1342.8 595.55 1344 593.5 1344 591.6 Z"/>

<path fill="#4A1200" stroke="none" d="
M 1360.6 825.65
Q 1396.7740234375 815.1341796875 1415.5 797.65 1384.1537109375 807.9931640625 1360.6 825.65
M 1275.2 466.8
Q 1264.98828125 463.7748046875 1260.4 459.6 1257.7037109375 457.33203125 1254.85 454.4 1241.7560546875 442.1666015625 1230.65 440.5 1220.164453125 438.7916015625 1208.25 434.75 1205.9181640625 434.2046875 1207.65 436.15 1216.0568359375 440.78984375 1223.55 441.95 1239.310546875 445.2333984375 1249.1 454.05 1261.6609375 466.801171875 1266.7 467.3 1271.73203125 467.8494140625 1276.2 470.2 1276.83984375 470.54921875 1277.45 471.05 1282.35234375 474.305859375 1278.9 469.8 1277.83671875 468.1607421875 1275.6 467 1275.4 466.923046875 1275.2 466.8
M 1492.3 688
Q 1490.0091796875 685.7880859375 1491.75 692.7 1496.9859375 707.53515625 1505.75 717.25 1513.506640625 725.0837890625 1516.7 734.55 1520.279296875 745.1787109375 1518.15 732.8 1515.4736328125 721.2384765625 1507.75 712.35 1501.8185546875 706.5126953125 1498.9 700.65 1498.8185546875 700.5154296875 1498.75 700.35
L 1492.3 688
M 1434.55 602.45
Q 1434.3126953125 601.64296875 1434.05 600.8 1430.32421875 590.0970703125 1420.95 588.85 1429.9265625 597.0609375 1431.4 604.2 1433.2646484375 613.1916015625 1439.6 616.15 1449.8423828125 623.5486328125 1455.9 635.55 1460.1716796875 642.13203125 1471.05 664.85
L 1467.9 652.4
Q 1464.1224609375 637.5662109375 1450.35 620.45
L 1443.7 614.9 1443.65 614.85
Q 1434.6263671875 608.6625 1434.55 602.45
M 1366.05 531.3
Q 1370.1365234375 533.7119140625 1373.85 539.3 1379.04765625 547.963671875 1389.7 555.85 1388.1080078125 551.4578125 1384.65 548.35 1381.2939453125 545.307421875 1377.85 540.05 1372.7171875 529.8609375 1361.1 524.95 1343.241015625 517.6466796875 1322.55 500.5 1339.451953125 519.7875 1357.5 527.15 1361.8205078125 528.79140625 1366.05 531.3
M 1248.5 419.75
Q 1249.15 420.4 1250.05 420.4 1250.95 420.4 1251.55 419.75 1252.2 419.15 1252.2 418.25 1252.2 417.35 1251.6 416.25 1250.95 415.1 1250.05 413.95 1249.15 412.8 1248.55 415.1 1247.9 417.35 1247.9 418.25 1247.9 419.15 1248.5 419.75
M 1243.55 411.45
Q 1241.8 412.15 1240.65 412.8 1239.45 413.45 1238.9 414.3 1238.35 415.15 1240 416.7 1241.65 418.2 1242.7 418.25 1243.75 418.3 1244.9 417.35 1246.05 416.4 1246.6 414.35 1247.1 412.3 1246.2 411.55 1245.25 410.75 1243.55 411.45
M 1224.95 363.45
Q 1224.95 363.5 1225 363.6 1224.85 364.75 1226.4 365.6 1228.4 366.3 1227.6 364 1227.15 362.7 1229.15 361.05 1232.35 357.35 1229.15 357.65 1224.2 357.15 1224.95 363.45
M 1244.1 366.15
Q 1248.55 368.75 1247.1 363.85 1243.9 358.05 1232.9 359.35 1230.3 361 1233.55 362.6 1239.75 362.7 1244.1 366.15
M 1581.05 729.75
Q 1580.85 727.4 1579.7 727.5 1578.5 727.6 1577.35 728.1 1576.15 728.55 1575.55 729.7 1574.95 730.85 1574.9 731.65 1574.85 732.45 1575.5 732.85 1576.15 733.25 1577.1 733.25 1578.05 733.25 1579.65 732.65 1581.2 732 1581.05 729.75
M 1594.75 709.5
Q 1595.2 706.75 1593.25 706.05 1592.1 705.45 1591.8 707.45 1590.55 719.3 1585.6 722.6 1582.15 725.7 1585.45 725.3 1594.7 721.05 1594.75 709.5
M 1599.35 716.65
Q 1598.7 715.65 1597.8 716.75 1596.85 717.8 1596.2 718.4 1595.6 719.05 1594.9 721 1594.15 722.9 1595.15 723.05 1596.1 723.15 1597.4 722.65 1598.65 722.1 1599.25 721.45 1599.9 720.85 1599.95 719.25 1599.95 717.6 1599.35 716.65
M 1518.25 674.65
Q 1517.85 675.55 1518.7 676.4 1519.6 677.3 1520.8 677.3 1522 677.3 1522.85 676.4 1523.75 675.55 1523.75 674.35 1523.75 673.15 1522.85 672.25 1522 671.4 1521.3 671.75 1520.6 672.05 1519.65 672.9 1518.65 673.7 1518.25 674.65
M 1507.9 658.6
Q 1507.25 659.7 1506.75 661.85 1506.2 664 1507.15 664.65 1508.05 665.3 1509.2 665 1510.3 664.65 1510.9 663.6 1511.55 662.6 1511.55 661.15 1511.55 659.7 1511 658.2 1510.45 656.65 1509.5 657.05 1508.55 657.45 1507.9 658.6
M 1506.8 654.05
Q 1506.4 653.3 1505.7 652.6 1505 651.9 1504 651.9 1503 651.9 1502.3 652.6 1501.6 653.3 1501.6 654.3 1501.6 655.3 1503.5 657.1 1505.4 658.9 1506.1 657.95 1506.8 657 1507 655.9 1507.2 654.8 1506.8 654.05
M 1541.05 612.95
Q 1541.45 612 1540.2 611.45 1538.9 610.9 1537.8 610.45 1536.75 610.05 1535.75 610.35 1534.85 610.6 1534.5 611.45 1534.2 612.25 1534.65 613.15 1535.2 614 1536.6 614.4 1538.05 614.7 1539.35 614.3 1540.6 613.95 1541.05 612.95
M 1356.3 460.35
Q 1356.3 458.3 1355.45 456.85 1354.6 455.45 1353.4 455.45 1352.2 455.45 1351.35 456.85 1350.4953125 458.3 1348.5 460.35 1346.5140625 462.4 1348.6 463.8 1350.6859375 465.25 1352.65 465.25 1354.6046875 465.25 1355.45 463.8 1356.3 462.4 1356.3 460.35
M 1363.65 467.4
Q 1364.5373046875 466.4375 1363.9 465.45 1363.265234375 464.46484375 1362.95 463 1362.694921875 461.594921875 1361.3 461.6 1359.9 461.6 1358.9 462.55 1357.95 463.55 1357.95 464.95 1357.95 466.35 1359.4 467.8 1360.8486328125 469.2486328125 1361.8 468.8 1362.75625 468.3560546875 1363.65 467.4
M 1356.05 425.7
Q 1355.45 426.45 1355.8 427.65 1356.2 428.75 1357.2 429.55 1358.15 430.25 1359.25 430.15 1360.35 430.1 1360.25 428.9 1360.15 427.75 1360.05 426.8 1359.9 425.85 1359.2 425.3 1358.45 424.75 1357.5 424.85 1356.6 425 1356.05 425.7
M 1337.25 412.95
Q 1344.4876953125 419.5673828125 1348.25 419.2 1349.655859375 417.3314453125 1343.05 412.35 1334.65 406 1323.25 400.95 1318.55 399.1 1316.95 400.95 1315.65 402.35 1319 403.25 1330.0623046875 406.3326171875 1337.25 412.95
M 1432.65 491.65
Q 1431.1955078125 492.923828125 1434.4 494.25 1444.31484375 499.01015625 1449.15 505.8 1455.508203125 514.6150390625 1456.75 514.05 1457.5095703125 513.296875 1455.15 508.15 1449.5548828125 498.9767578125 1438.9 492.5 1434.475 490.0875 1432.65 491.65
M 1511.3 572.65
Q 1509.3 573.05 1512.4 575.6 1521.8 584.2 1524.9 592.25 1529 602.8 1530.55 602.85 1531.7 602.55 1530.8 597 1527.7 586.5 1518 576.1 1513.95 572.05 1511.3 572.65
M 1465 521.4
Q 1465.046875 520.2912109375 1463.85 520.25 1462.7015625 520.2009765625 1461.75 520.2 1460.8 520.2 1460.15 520.85 1459.5 521.5 1459.5 522.45 1459.5 523.4 1460.15 524.05 1460.7986328125 524.705859375 1462 524.5 1463.2033203125 524.281640625 1464.05 523.4 1464.9484375 522.5193359375 1465 521.4 Z"/>

<path fill="#F89933" stroke="none" d="
M 1361.15 548.4
Q 1331.6998046875 524.344140625 1321.9 517.85 1288.979296875 495.984765625 1268.7 481.45 1228.0775390625 452.311328125 1190.85 447.3 1190.7111328125 447.749609375 1190.55 448.2 1189.65625 451.134765625 1188.7 453.9 1196.816796875 461.7322265625 1206.65 467.8 1207.286328125 467.3 1208.1 467.3 1209.05 467.3 1209.75 468 1210.45 468.7 1210.45 469.65 1210.45 469.85625 1210.4 470.05 1224.3041015625 477.9052734375 1241.4 482.55 1270.3935546875 492.4466796875 1289.95 508.85 1337.5599609375 540.202734375 1380.25 588.45 1407.085546875 611.1755859375 1480.5 724.25 1481.278125 724.342578125 1481.85 724.7 1482.7 725.2 1482.7 725.9 1482.7 726.4380859375 1482.2 726.85 1483.2197265625 728.4318359375 1484.25 730 1484.3431640625 729.9068359375 1484.45 729.8 1485.4478515625 728.800390625 1487.85 730 1490.3037109375 731.2509765625 1490.45 731.1 1490.6025390625 730.99375 1491.1 732.75 1491.639453125 734.56171875 1490.25 734.85 1488.8677734375 735.18203125 1488.3 735.4 1507.7587890625 761.5779296875 1499.75 770.95 1508.7337890625 767.9296875 1518.75 764.85 1517.2791015625 760.670703125 1514.85 755.45 1514.307421875 754.3421875 1513.7 753.15 1513.3283203125 752.336328125 1512.9 751.5 1504.800390625 735.2904296875 1488.55 710.6 1473.295703125 684.5779296875 1457.25 661.65 1406.6458984375 586.29140625 1361.15 548.4
M 1216.85 466.5
Q 1217.65 467.3 1217.65 468.4 1217.6509765625 469.494140625 1217.35 470.55 1217.0966796875 471.6169921875 1215.95 471.6 1214.803125 471.5828125 1213.5 470.55 1212.248828125 469.5056640625 1212.25 468.4 1212.25 467.3 1213.05 466.5 1213.85 465.7 1214.95 465.7 1216.05 465.7 1216.85 466.5
M 1219.5 468.85
Q 1219.5 467.45 1219.9 466.45 1220.3 465.45 1220.9 465.45 1221.5005859375 465.454296875 1222.2 466.2 1222.9478515625 466.93671875 1223.55 467.85 1224.151953125 468.7630859375 1222.8 470.5 1221.49921875 472.2455078125 1220.9 472.25 1220.3 472.25 1219.9 471.25 1219.5 470.25 1219.5 468.85 Z"/>

<path fill="#CE6F30" stroke="none" d="
M 1307.85 503.2
Q 1331.7044921875 518.0587890625 1361.15 542.1 1406.65 580 1457.25 655.4 1473.3 678.3 1488.6 704.3 1508.1361328125 734.0609375 1515.9 751.5 1516.278515625 752.3396484375 1516.6 753.15 1516.845703125 753.666015625 1517.05 754.15
L 1521.35 764.05
Q 1528.2599609375 761.9962890625 1535.65 759.9 1540.8298828125 757.6669921875 1545.5 755.55
L 1518.45 702.05
Q 1509.31953125 686.584765625 1504 673.85 1489.0875 644.563671875 1470.45 626.6 1453.320703125 608.2193359375 1443.55 590.2 1436.0482421875 575.6525390625 1417.65 555.8 1403.2310546875 540.17578125 1373.9 520.55 1371.1662109375 518.702734375 1316.3 483.35 1295.9109375 472.36796875 1260.95 448.6 1235.7453125 428.1025390625 1199.9 415.45 1195.3134765625 428.544140625 1191.7 444.35
L 1191.75 444.35
Q 1233.819921875 452.7625 1253.05 466.4 1284.043359375 488.3833984375 1307.85 503.2
M 1302.95 484.2
Q 1303.55 484.75 1303.4 485.15 1303.2 485.55 1302.55 486.2 1301.9 486.85 1299.55 486.6 1297.15 486.35 1297.55 485.7 1297.9 485.05 1298.2 484.3 1298.45 483.55 1299.3 483 1300.1 482.45 1301.25 483.05 1302.35 483.65 1302.95 484.2
M 1310.85 491.1
Q 1311.1 492.45 1311.4 493.1 1311.7 493.75 1310.8 494 1309.85 494.2 1308.6 493.8 1307.3 493.4 1306.45 492.55 1305.65 491.75 1305.65 490.55 1305.65 489.35 1306.75 489 1307.85 488.6 1309.25 489.15 1310.6 489.7 1310.85 491.1
M 1373.85 539.3
Q 1370.1365234375 533.7119140625 1366.05 531.3 1361.8205078125 528.79140625 1357.5 527.15 1339.451953125 519.7875 1322.55 500.5 1343.241015625 517.6466796875 1361.1 524.95 1372.7171875 529.8609375 1377.85 540.05 1381.2939453125 545.307421875 1384.65 548.35 1388.1080078125 551.4578125 1389.7 555.85 1379.04765625 547.963671875 1373.85 539.3
M 1403.8 568.45
Q 1404.9 568.3 1405.9 568.3 1406.9 568.3 1406.6 570.25 1406.3 572.15 1405.55 572.9 1404.8 573.65 1403.95 573.65 1403.1 573.6 1402.95 572.75 1402.8 571.9 1402 571 1401.2 570.05 1401.95 569.3 1402.7 568.55 1403.8 568.45
M 1413.9 572.45
Q 1414.45 573.4 1414.45 574.2 1414.45 575 1413.3 575.9 1412.1 576.8 1410.35 577.3 1408.6 577.8 1408.35 576.4 1408.05 575 1408.05 574.2 1408.05 573.4 1409.25 572.55 1410.4 571.7 1411.85 571.6 1413.3 571.5 1413.9 572.45
M 1434.05 600.8
Q 1434.3126953125 601.64296875 1434.55 602.45 1434.6263671875 608.6625 1443.65 614.85
L 1443.7 614.9 1450.35 620.45
Q 1464.1224609375 637.5662109375 1467.9 652.4
L 1471.05 664.85
Q 1460.1716796875 642.13203125 1455.9 635.55 1449.8423828125 623.5486328125 1439.6 616.15 1433.2646484375 613.1916015625 1431.4 604.2 1429.9265625 597.0609375 1420.95 588.85 1430.32421875 590.0970703125 1434.05 600.8
M 1491.75 692.7
Q 1490.0091796875 685.7880859375 1492.3 688
L 1498.75 700.35
Q 1498.8185546875 700.5154296875 1498.9 700.65 1501.8185546875 706.5126953125 1507.75 712.35 1515.4736328125 721.2384765625 1518.15 732.8 1520.279296875 745.1787109375 1516.7 734.55 1513.506640625 725.0837890625 1505.75 717.25 1496.9859375 707.53515625 1491.75 692.7
M 1260.4 459.6
Q 1264.98828125 463.7748046875 1275.2 466.8 1275.4 466.923046875 1275.6 467 1277.83671875 468.1607421875 1278.9 469.8 1282.35234375 474.305859375 1277.45 471.05 1276.83984375 470.54921875 1276.2 470.2 1271.73203125 467.8494140625 1266.7 467.3 1261.6609375 466.801171875 1249.1 454.05 1239.310546875 445.2333984375 1223.55 441.95 1216.0568359375 440.78984375 1207.65 436.15 1205.9181640625 434.2046875 1208.25 434.75 1220.164453125 438.7916015625 1230.65 440.5 1241.7560546875 442.1666015625 1254.85 454.4 1257.7037109375 457.33203125 1260.4 459.6 Z"/>

<path fill="#953902" stroke="none" d="
M 1414.45 574.2
Q 1414.45 573.4 1413.9 572.45 1413.3 571.5 1411.85 571.6 1410.4 571.7 1409.25 572.55 1408.05 573.4 1408.05 574.2 1408.05 575 1408.35 576.4 1408.6 577.8 1410.35 577.3 1412.1 576.8 1413.3 575.9 1414.45 575 1414.45 574.2
M 1405.9 568.3
Q 1404.9 568.3 1403.8 568.45 1402.7 568.55 1401.95 569.3 1401.2 570.05 1402 571 1402.8 571.9 1402.95 572.75 1403.1 573.6 1403.95 573.65 1404.8 573.65 1405.55 572.9 1406.3 572.15 1406.6 570.25 1406.9 568.3 1405.9 568.3
M 1311.4 493.1
Q 1311.1 492.45 1310.85 491.1 1310.6 489.7 1309.25 489.15 1307.85 488.6 1306.75 489 1305.65 489.35 1305.65 490.55 1305.65 491.75 1306.45 492.55 1307.3 493.4 1308.6 493.8 1309.85 494.2 1310.8 494 1311.7 493.75 1311.4 493.1
M 1303.4 485.15
Q 1303.55 484.75 1302.95 484.2 1302.35 483.65 1301.25 483.05 1300.1 482.45 1299.3 483 1298.45 483.55 1298.2 484.3 1297.9 485.05 1297.55 485.7 1297.15 486.35 1299.55 486.6 1301.9 486.85 1302.55 486.2 1303.2 485.55 1303.4 485.15 Z"/>

<path fill="#EDA02B" stroke="none" d="
M 1504.9 552.8
Q 1480.9572265625 525.7802734375 1472.25 516.2 1457.9625 500.4783203125 1451.55 494.5 1421.9509765625 466.9392578125 1404.9 454.25 1376.378125 433.625 1365.15 424.8 1308.959765625 380.601171875 1280.45 369.2 1262.73828125 360.6955078125 1243.3 357.85 1225.0912109375 352.1966796875 1220.85 364.2
L 1206.7 398.85
Q 1203.0728515625 406.5197265625 1199.9 415.45 1235.7453125 428.1025390625 1260.95 448.6 1295.9109375 472.36796875 1316.3 483.35 1371.1662109375 518.702734375 1373.9 520.55 1403.2310546875 540.17578125 1417.65 555.8 1436.0482421875 575.6525390625 1443.55 590.2 1453.320703125 608.2193359375 1470.45 626.6 1489.0875 644.563671875 1504 673.85 1509.31953125 686.584765625 1518.45 702.05
L 1545.5 755.55
Q 1566.8353515625 746.03359375 1577.3 739.55 1590.23046875 731.6302734375 1598.5 725 1608.529296875 717.8267578125 1607.75 711.7 1607.2005859375 706.9728515625 1603.65 701.5 1579.7423828125 657.378125 1575.35 650.3 1550.6015625 610.3361328125 1538.5 594.85 1511.7595703125 560.50234375 1504.9 552.8
M 1463.85 520.25
Q 1465.046875 520.2912109375 1465 521.4 1464.9484375 522.5193359375 1464.05 523.4 1463.2033203125 524.281640625 1462 524.5 1460.7986328125 524.705859375 1460.15 524.05 1459.5 523.4 1459.5 522.45 1459.5 521.5 1460.15 520.85 1460.8 520.2 1461.75 520.2 1462.7015625 520.2009765625 1463.85 520.25
M 1492.25 591.8
Q 1491.6734375 591.26796875 1491.3 590.7 1490.76796875 589.8626953125 1490.6 589.15 1491.93046875 584.8076171875 1497.1 590.1 1516.44375 608.709765625 1514.85 613.95 1514.358984375 625.741015625 1506 615.6 1501.6916015625 611.02109375 1497.65 604.75 1496.0966796875 602.345703125 1496 598.65 1495.9724609375 595.2330078125 1492.25 591.8
M 1481.55 562.15
Q 1483.434375 566.059375 1480.45 565.1 1478.298046875 563.496484375 1475.1 560.4 1460.1669921875 544.55078125 1454.85 537.65 1446.771484375 527.251953125 1432.6 519.55 1420.2005859375 511.2869140625 1408.65 498.7 1405.485546875 495.21640625 1402.5 485.1 1398.7212890625 476.3955078125 1406.5 475.15 1413.5837890625 475.1263671875 1429.75 497.75 1431.7884765625 500.5603515625 1448.3 520.7 1454.78359375 528.5666015625 1481.55 562.15
M 1512.4 575.6
Q 1509.3 573.05 1511.3 572.65 1513.95 572.05 1518 576.1 1527.7 586.5 1530.8 597 1531.7 602.55 1530.55 602.85 1529 602.8 1524.9 592.25 1521.8 584.2 1512.4 575.6
M 1434.4 494.25
Q 1431.1955078125 492.923828125 1432.65 491.65 1434.475 490.0875 1438.9 492.5 1449.5548828125 498.9767578125 1455.15 508.15 1457.5095703125 513.296875 1456.75 514.05 1455.508203125 514.6150390625 1449.15 505.8 1444.31484375 499.01015625 1434.4 494.25
M 1348.25 419.2
Q 1344.4876953125 419.5673828125 1337.25 412.95 1330.0623046875 406.3326171875 1319 403.25 1315.65 402.35 1316.95 400.95 1318.55 399.1 1323.25 400.95 1334.65 406 1343.05 412.35 1349.655859375 417.3314453125 1348.25 419.2
M 1355.8 427.65
Q 1355.45 426.45 1356.05 425.7 1356.6 425 1357.5 424.85 1358.45 424.75 1359.2 425.3 1359.9 425.85 1360.05 426.8 1360.15 427.75 1360.25 428.9 1360.35 430.1 1359.25 430.15 1358.15 430.25 1357.2 429.55 1356.2 428.75 1355.8 427.65
M 1303.05 396.85
Q 1323.286328125 417.9951171875 1335.5 425 1342.3923828125 428.983984375 1357.6 441.2 1364.488671875 448.0482421875 1358.55 448.2 1356.5197265625 447.890625 1353.05 445.75 1342.0828125 437.16484375 1335 434.1 1314.519140625 425.233984375 1305.8 419.7 1294.1865234375 412.3794921875 1284.75 409.9 1262.8025390625 401.8716796875 1254.3 391.95 1244.9259765625 380.9701171875 1233.55 374.55 1231.0474609375 373.1408203125 1228.45 371.95 1226.4185546875 369.0689453125 1235.3 370.9 1246.230078125 373.333203125 1256.45 375.1 1286.1318359375 381.737890625 1303.05 396.85
M 1363.9 465.45
Q 1364.5373046875 466.4375 1363.65 467.4 1362.75625 468.3560546875 1361.8 468.8 1360.8486328125 469.2486328125 1359.4 467.8 1357.95 466.35 1357.95 464.95 1357.95 463.55 1358.9 462.55 1359.9 461.6 1361.3 461.6 1362.694921875 461.594921875 1362.95 463 1363.265234375 464.46484375 1363.9 465.45
M 1355.45 456.85
Q 1356.3 458.3 1356.3 460.35 1356.3 462.4 1355.45 463.8 1354.6046875 465.25 1352.65 465.25 1350.6859375 465.25 1348.6 463.8 1346.5140625 462.4 1348.5 460.35 1350.4953125 458.3 1351.35 456.85 1352.2 455.45 1353.4 455.45 1354.6 455.45 1355.45 456.85
M 1540.2 611.45
Q 1541.45 612 1541.05 612.95 1540.6 613.95 1539.35 614.3 1538.05 614.7 1536.6 614.4 1535.2 614 1534.65 613.15 1534.2 612.25 1534.5 611.45 1534.85 610.6 1535.75 610.35 1536.75 610.05 1537.8 610.45 1538.9 610.9 1540.2 611.45
M 1553.75 661.5
Q 1568.8501953125 682.2486328125 1569.45 690.65 1571.168359375 708.54765625 1569.4 710.35 1566.05703125 713.7990234375 1561.6 698.9 1557.396484375 689.51953125 1546.1 677.1 1536.8068359375 663.977734375 1535.3 659.7 1530.221875 645.349609375 1519.15 637.1 1514.8166015625 632.80234375 1515.15 630.25 1518.2015625 621.2888671875 1529.2 634.4 1548.2626953125 653.9814453125 1553.75 661.5
M 1505.7 652.6
Q 1506.4 653.3 1506.8 654.05 1507.2 654.8 1507 655.9 1506.8 657 1506.1 657.95 1505.4 658.9 1503.5 657.1 1501.6 655.3 1501.6 654.3 1501.6 653.3 1502.3 652.6 1503 651.9 1504 651.9 1505 651.9 1505.7 652.6
M 1506.75 661.85
Q 1507.25 659.7 1507.9 658.6 1508.55 657.45 1509.5 657.05 1510.45 656.65 1511 658.2 1511.55 659.7 1511.55 661.15 1511.55 662.6 1510.9 663.6 1510.3 664.65 1509.2 665 1508.05 665.3 1507.15 664.65 1506.2 664 1506.75 661.85
M 1518.7 676.4
Q 1517.85 675.55 1518.25 674.65 1518.65 673.7 1519.65 672.9 1520.6 672.05 1521.3 671.75 1522 671.4 1522.85 672.25 1523.75 673.15 1523.75 674.35 1523.75 675.55 1522.85 676.4 1522 677.3 1520.8 677.3 1519.6 677.3 1518.7 676.4
M 1597.8 716.75
Q 1598.7 715.65 1599.35 716.65 1599.95 717.6 1599.95 719.25 1599.9 720.85 1599.25 721.45 1598.65 722.1 1597.4 722.65 1596.1 723.15 1595.15 723.05 1594.15 722.9 1594.9 721 1595.6 719.05 1596.2 718.4 1596.85 717.8 1597.8 716.75
M 1593.25 706.05
Q 1595.2 706.75 1594.75 709.5 1594.7 721.05 1585.45 725.3 1582.15 725.7 1585.6 722.6 1590.55 719.3 1591.8 707.45 1592.1 705.45 1593.25 706.05
M 1579.7 727.5
Q 1580.85 727.4 1581.05 729.75 1581.2 732 1579.65 732.65 1578.05 733.25 1577.1 733.25 1576.15 733.25 1575.5 732.85 1574.85 732.45 1574.9 731.65 1574.95 730.85 1575.55 729.7 1576.15 728.55 1577.35 728.1 1578.5 727.6 1579.7 727.5
M 1247.1 363.85
Q 1248.55 368.75 1244.1 366.15 1239.75 362.7 1233.55 362.6 1230.3 361 1232.9 359.35 1243.9 358.05 1247.1 363.85
M 1225 363.6
Q 1224.95 363.5 1224.95 363.45 1224.2 357.15 1229.15 357.65 1232.35 357.35 1229.15 361.05 1227.15 362.7 1227.6 364 1228.4 366.3 1226.4 365.6 1224.85 364.75 1225 363.6
M 1240.65 412.8
Q 1241.8 412.15 1243.55 411.45 1245.25 410.75 1246.2 411.55 1247.1 412.3 1246.6 414.35 1246.05 416.4 1244.9 417.35 1243.75 418.3 1242.7 418.25 1241.65 418.2 1240 416.7 1238.35 415.15 1238.9 414.3 1239.45 413.45 1240.65 412.8
M 1250.05 420.4
Q 1249.15 420.4 1248.5 419.75 1247.9 419.15 1247.9 418.25 1247.9 417.35 1248.55 415.1 1249.15 412.8 1250.05 413.95 1250.95 415.1 1251.6 416.25 1252.2 417.35 1252.2 418.25 1252.2 419.15 1251.55 419.75 1250.95 420.4 1250.05 420.4 Z"/>

<path fill="#EDBD3C" stroke="none" d="
M 1569.45 690.65
Q 1568.8501953125 682.2486328125 1553.75 661.5 1548.2626953125 653.9814453125 1529.2 634.4 1518.2015625 621.2888671875 1515.15 630.25 1514.8166015625 632.80234375 1519.15 637.1 1530.221875 645.349609375 1535.3 659.7 1536.8068359375 663.977734375 1546.1 677.1 1557.396484375 689.51953125 1561.6 698.9 1566.05703125 713.7990234375 1569.4 710.35 1571.168359375 708.54765625 1569.45 690.65
M 1335.5 425
Q 1323.286328125 417.9951171875 1303.05 396.85 1286.1318359375 381.737890625 1256.45 375.1 1246.230078125 373.333203125 1235.3 370.9 1226.4185546875 369.0689453125 1228.45 371.95 1231.0474609375 373.1408203125 1233.55 374.55 1244.9259765625 380.9701171875 1254.3 391.95 1262.8025390625 401.8716796875 1284.75 409.9 1294.1865234375 412.3794921875 1305.8 419.7 1314.519140625 425.233984375 1335 434.1 1342.0828125 437.16484375 1353.05 445.75 1356.5197265625 447.890625 1358.55 448.2 1364.488671875 448.0482421875 1357.6 441.2 1342.3923828125 428.983984375 1335.5 425
M 1480.45 565.1
Q 1483.434375 566.059375 1481.55 562.15 1454.78359375 528.5666015625 1448.3 520.7 1431.7884765625 500.5603515625 1429.75 497.75 1413.5837890625 475.1263671875 1406.5 475.15 1398.7212890625 476.3955078125 1402.5 485.1 1405.485546875 495.21640625 1408.65 498.7 1420.2005859375 511.2869140625 1432.6 519.55 1446.771484375 527.251953125 1454.85 537.65 1460.1669921875 544.55078125 1475.1 560.4 1478.298046875 563.496484375 1480.45 565.1
M 1491.3 590.7
Q 1491.6734375 591.26796875 1492.25 591.8 1495.9724609375 595.2330078125 1496 598.65 1496.0966796875 602.345703125 1497.65 604.75 1501.6916015625 611.02109375 1506 615.6 1514.358984375 625.741015625 1514.85 613.95 1516.44375 608.709765625 1497.1 590.1 1491.93046875 584.8076171875 1490.6 589.15 1490.76796875 589.8626953125 1491.3 590.7 Z"/>
</g>

<g id="Layer3_1_FILL">
<path fill="#440701" stroke="none" d="
M 817.8 1536.6
Q 813.45 1560.8 832.15 1583.55 839.95 1591.3 847.45 1596 867.2 1611.55 893.3 1591.95 905.5 1583.3 911.45 1569.05 923.9 1538.3 909.6 1521.1 904.75 1516.35 899.35 1512.55 899.2 1512.45 899.15 1512.35 887.4 1504.15 873.15 1500.55 856.2 1495.65 823.1 1522.5 818.85 1526 817.8 1536.6
M 834.3 1581.85
Q 816.6 1560.35 820.75 1537.6 821.7 1527.55 825.75 1524.25 857 1498.85 873.05 1503.45 887.1 1507.05 898.55 1515.35
L 898.4 1515.3 898.5 1515.5 898.65 1515.4
Q 903.25 1518.75 907.5 1522.8 920.9 1539.1 909.2 1568.2 908.1 1570.7 906.9 1573 901.4 1583.15 892.05 1589.75 867.4 1608.25 848.7 1593.55 841.6 1589.25 834.3 1581.85
M 874.25 1334
Q 878.1 1348.65 883.9 1359.4 896.8 1391.55 941.45 1386.3 962 1384.4 978.85 1371.4 1014.9 1343.25 1009.7 1312.9 1007.2 1303.9 1003.4 1295.6 1003.3 1295.4 1003.15 1295.2 994.85 1277.45 980.4 1263.15 963.45 1245.7 905.5 1255 897.95 1256.25 889.4 1268.3 867.65 1294 874.25 1334
M 892.3 1271.35
Q 900.3 1260.05 907.35 1258.9 962.2 1250.2 978.2 1266.6 992.45 1280.7 1000.5 1298.45 1000.4 1298.25 1000.3 1298.2
L 1000.3 1298.6 1000.5 1298.55
Q 1003.7 1305.7 1006 1313.45 1010.8 1342.2 976.8 1368.75 973.75 1371 970.6 1372.95 957.15 1381.3 941.4 1382.8 899.2 1387.75 887.05 1357.45 881.55 1347.35 877.95 1333.5 871.7 1295.75 892.3 1271.35 Z"/>

<path fill="#D24416" stroke="none" d="
M 820.75 1537.6
Q 816.6 1560.35 834.3 1581.85 841.6 1589.25 848.7 1593.55 867.4 1608.25 892.05 1589.75 901.4 1583.15 906.9 1573 908.1 1570.7 909.2 1568.2 920.9 1539.1 907.5 1522.8 903.25 1518.75 898.65 1515.4
L 898.5 1515.5 898.4 1515.3 898.55 1515.35
Q 887.1 1507.05 873.05 1503.45 857 1498.85 825.75 1524.25 821.7 1527.55 820.75 1537.6
M 851.7 1519.4
Q 852.65 1519.05 853.15 1520 853.7 1520.85 853.05 1521.75 852.55 1522.65 851.6 1523.5 850.6 1524.35 849.8 1524.55 848.85 1524.8 848.15 1523.85 847.45 1522.9 847.95 1521.9 848.55 1521.1 849.7 1520.4 850.85 1519.65 851.7 1519.4
M 884 1516.5
Q 885.2 1515.5 886.3 1515.8 887.4 1516.1 888 1517.1 888.55 1518.05 888.8 1519.1 889 1520.15 887.95 1520.75 886.9 1521.35 885.4 1521.1 883.8 1520.8 883 1520.4 882.1 1519.8 882.4 1518.65 882.7 1517.45 884 1516.5
M 883.05 1532.5
Q 884.05 1532.85 884.8 1533.8 885.55 1534.75 885.8 1535.8 886 1536.9 884.4 1537.35 882.75 1537.7 881.7 1537.4 880.65 1537.15 879.6 1536.65 878.5 1536.2 879.35 1534.8 880.15 1533.35 881.1 1532.8 882 1532.3 883.05 1532.5
M 833.15 1537.9
Q 834.85 1536.95 836.55 1536.5 838.3 1535.95 839.1 1538.6 839.85 1541.05 839.1 1543.6 838.25 1546 837.2 1546.55 836.2 1547.05 834.25 1546.55 832.4 1546.05 831.4 1544.35 830.45 1542.7 830.9 1540.8 831.45 1538.9 833.15 1537.9
M 828.05 1555.5
Q 829.05 1554.85 830.2 1555.15 831.35 1555.5 832.65 1556.9 833.9 1558.3 833.15 1559.25 832.45 1560.15 831.2 1560.75 829.9 1561.2 828.9 1561.55 827.9 1561.9 827.15 1560.2 826.35 1558.4 826.65 1557.2 827 1556.05 828.05 1555.5
M 848.8 1569.05
Q 846.5 1570.4 844.15 1570.15 841.85 1569.9 840.85 1568.25 839.85 1566.5 839.65 1564.2 839.35 1561.95 842.9 1560.8 846.4 1559.6 848.65 1559.9 851 1560.15 851.95 1561.85 852.95 1563.5 851.95 1565.6 851.05 1567.8 848.8 1569.05
M 878.2 1558.7
Q 879.55 1557.9 880.85 1557.95 882.2 1558.1 882.7 1558.95 883.2 1559.8 882.35 1561.3 881.45 1562.7 879.6 1563.8 877.8 1565 877.3 1564.3 876.7 1563.55 876.2 1562.7 875.7 1561.85 876.3 1560.65 876.9 1559.45 878.2 1558.7
M 861.05 1548.55
Q 858.4 1547.8 857 1545.4 855.65 1543.05 856.35 1540.4 857.1 1537.75 859.45 1536.35 861.85 1534.95 864.5 1535.7 867.15 1536.4 868.85 1538.75 870.5 1541.1 870.85 1543.7 871.2 1546.25 867.45 1547.8 863.7 1549.25 861.05 1548.55
M 861.1 1580.8
Q 860.65 1578.95 861 1577.1 861.4 1575.3 863.25 1574.75 865.05 1574.2 866.8 1574.65 868.5 1575.15 869.75 1576.6 871 1578 871 1579.55 870.95 1581 868.4 1582.25 865.95 1583.5 863.7 1583.05 861.55 1582.7 861.1 1580.8
M 881.55 1510.65
Q 858.15 1506.75 835.1 1526.2 855.4 1501.15 881.55 1510.65
M 897.45 1532.1
Q 898.35 1529.6 900.75 1528.45 903.05 1527.35 905.1 1528.15 907.05 1528.9 907.65 1531 908.15 1533.15 907.85 1535.2 907.6 1537.35 906 1538.25 904.45 1539.1 902.5 1538.3 900.5 1537.5 898.55 1536.05 896.5 1534.6 897.45 1532.1
M 898.65 1552.35
Q 901.5 1550.2 903.4 1551.1 905.25 1552 906.1 1553.9 906.85 1555.7 905.85 1557.85 904.95 1560 902.5 1561.6 899.9 1563.15 897.8 1562.75 895.65 1562.35 894.8 1560.55 893.85 1558.7 894.75 1556.65 895.65 1554.5 898.65 1552.35
M 905 1560.7
Q 905.35 1567.05 904.35 1569.6 896.75 1589.6 876.4 1592.8 868.25 1594.05 859.3 1590.05 896.05 1597.6 905 1560.7
M 907.35 1258.9
Q 900.3 1260.05 892.3 1271.35 871.7 1295.75 877.95 1333.5 881.55 1347.35 887.05 1357.45 899.2 1387.75 941.4 1382.8 957.15 1381.3 970.6 1372.95 973.75 1371 976.8 1368.75 1010.8 1342.2 1006 1313.45 1003.7 1305.7 1000.5 1298.55
L 1000.3 1298.6 1000.3 1298.2
Q 1000.4 1298.25 1000.5 1298.45 992.45 1280.7 978.2 1266.6 962.2 1250.2 907.35 1258.9
M 902.2 1282.15
Q 904.2 1280.35 906.85 1280.35 909.6 1280.3 911.9 1281 914.4 1281.6 913.5 1285.15 912.7 1288.65 909.95 1291.15 907.35 1293.45 905.7 1293.35 904.15 1293.3 902.25 1291.35 900.4 1289.45 900.35 1286.75 900.35 1284.1 902.2 1282.15
M 938.7 1270.85
Q 940.6 1270.6 941.85 1271 943.1 1271.3 943.05 1272.7 943.1 1274.1 941.85 1274.7 940.55 1275.35 938.85 1275.8 937.1 1276.15 935.9 1275.85 934.6 1275.4 934.4 1273.75 934.25 1272.15 935.45 1271.45 936.85 1270.9 938.7 1270.85
M 885.85 1298.95
Q 887 1297.7 888.65 1297.75 890.25 1297.65 891.5 1298.9 892.65 1300.05 893.2 1302.65 893.65 1305.1 892.15 1305.8 890.65 1306.4 888.8 1306.1 886.95 1305.85 885.5 1305.6 884 1305.35 884.4 1302.65 884.65 1300.1 885.85 1298.95
M 970.15 1308.2
Q 971.1 1309.25 971.4 1311 971.65 1312.6 971.1 1314.05 970.55 1315.5 968.35 1314.9 966.2 1314.15 965.15 1313.15 964.1 1312.15 963.1 1310.8 962.1 1309.45 964.15 1308.3 966.1 1307.15 967.65 1307.2 969.1 1307.15 970.15 1308.2
M 932.85 1299.2
Q 935.5 1296.55 939.3 1296.6 943.1 1296.55 945.8 1299.25 948.5 1302 948.85 1305.95 949.25 1309.9 947.85 1313.15 946.5 1316.4 941 1315.7 935.5 1314.95 932.85 1312.2 930.15 1309.5 930.15 1305.7 930.15 1302 932.85 1299.2
M 895.15 1321.75
Q 895.1 1319 896.45 1316.25 897.7 1313.3 902.75 1314.3 907.7 1315.25 910.25 1317.15 912.8 1319.1 912.85 1321.75 912.8 1324.5 910.2 1326.35 907.7 1328.25 904 1328.25 900.4 1328.25 897.75 1326.4 895.2 1324.4 895.15 1321.75
M 913.1 1346.35
Q 914.8 1344.35 917.4 1345 920 1345.55 921.7 1347.4 923.4 1349.05 923.9 1351.7 924.4 1354.2 923.35 1356 922.25 1357.85 918.4 1357.55 914.6 1357.2 912.25 1355.3 909.85 1353.3 910.65 1350.8 911.4 1348.25 913.1 1346.35
M 920.7 1375.6
Q 910.05 1371.55 902.15 1360.6 940.8 1394.9 976.9 1356.95 972.9 1364.75 970 1367.15 947.1 1385.85 920.7 1375.6
M 966.85 1354.5
Q 964.55 1352.5 964.8 1349.7 964.95 1347 967.5 1345.05 970.15 1343.2 975.05 1342.65 979.95 1342.15 981.65 1344.45 983.15 1346.8 982.85 1349.5 982.6 1352.35 979.9 1354.25 977.35 1356.15 973.25 1356.3 969.05 1356.45 966.85 1354.5
M 950 1337.15
Q 951.45 1338.2 951.5 1339.5 951.45 1341 949.5 1342 947.4 1343.2 944.5 1343.35 941.4 1343.4 941.4 1342.15 941.25 1340.9 941.15 1339.55 941.1 1338.15 942.65 1337.15 944.15 1336.15 946.3 1336.15 948.5 1336.15 950 1337.15
M 985.55 1290.5
Q 986.6 1291.65 986.6 1293.25 986.65 1294.9 986.2 1296.2 985.7 1297.6 984.1 1297.6 982.35 1297.6 980.75 1296.2 979.1 1294.85 978.45 1293.7 977.7 1292.45 978.95 1291.2 980.1 1290.05 982.3 1289.8 984.4 1289.5 985.55 1290.5
M 986.15 1323.15
Q 984.8 1319.95 987.6 1317.65 990.45 1315.15 994 1315.6 997.45 1315.75 999.35 1318.2 1001.25 1320.5 1000.5 1323.35 999.7 1326.2 997.85 1328.5 996.05 1330.9 993.6 1330.95 991.1 1330.9 989.3 1328.55 987.55 1326.2 986.15 1323.15
M 983.4 1281.2
Q 958.15 1260.4 917.25 1267.75 958.75 1251.7 983.4 1281.2 Z"/>

<path fill="#670900" stroke="none" d="
M 904.35 1569.6
Q 905.35 1567.05 905 1560.7 896.05 1597.6 859.3 1590.05 868.25 1594.05 876.4 1592.8 896.75 1589.6 904.35 1569.6
M 902.15 1360.6
Q 910.05 1371.55 920.7 1375.6 947.1 1385.85 970 1367.15 972.9 1364.75 976.9 1356.95 940.8 1394.9 902.15 1360.6 Z"/>

<path fill="#FFAF9B" stroke="none" d="
M 903.4 1551.1
Q 901.5 1550.2 898.65 1552.35 895.65 1554.5 894.75 1556.65 893.85 1558.7 894.8 1560.55 895.65 1562.35 897.8 1562.75 899.9 1563.15 902.5 1561.6 904.95 1560 905.85 1557.85 906.85 1555.7 906.1 1553.9 905.25 1552 903.4 1551.1
M 964.8 1349.7
Q 964.55 1352.5 966.85 1354.5 969.05 1356.45 973.25 1356.3 977.35 1356.15 979.9 1354.25 982.6 1352.35 982.85 1349.5 983.15 1346.8 981.65 1344.45 979.95 1342.15 975.05 1342.65 970.15 1343.2 967.5 1345.05 964.95 1347 964.8 1349.7 Z"/>

<path fill="#FDB98E" stroke="none" d="
M 900.75 1528.45
Q 898.35 1529.6 897.45 1532.1 896.5 1534.6 898.55 1536.05 900.5 1537.5 902.5 1538.3 904.45 1539.1 906 1538.25 907.6 1537.35 907.85 1535.2 908.15 1533.15 907.65 1531 907.05 1528.9 905.1 1528.15 903.05 1527.35 900.75 1528.45
M 987.6 1317.65
Q 984.8 1319.95 986.15 1323.15 987.55 1326.2 989.3 1328.55 991.1 1330.9 993.6 1330.95 996.05 1330.9 997.85 1328.5 999.7 1326.2 1000.5 1323.35 1001.25 1320.5 999.35 1318.2 997.45 1315.75 994 1315.6 990.45 1315.15 987.6 1317.65 Z"/>

<path fill="#7A0F00" stroke="none" d="
M 835.1 1526.2
Q 858.15 1506.75 881.55 1510.65 855.4 1501.15 835.1 1526.2
M 917.25 1267.75
Q 958.15 1260.4 983.4 1281.2 958.75 1251.7 917.25 1267.75 Z"/>

<path fill="#FFBC8F" stroke="none" d="
M 861 1577.1
Q 860.65 1578.95 861.1 1580.8 861.55 1582.7 863.7 1583.05 865.95 1583.5 868.4 1582.25 870.95 1581 871 1579.55 871 1578 869.75 1576.6 868.5 1575.15 866.8 1574.65 865.05 1574.2 863.25 1574.75 861.4 1575.3 861 1577.1
M 917.4 1345
Q 914.8 1344.35 913.1 1346.35 911.4 1348.25 910.65 1350.8 909.85 1353.3 912.25 1355.3 914.6 1357.2 918.4 1357.55 922.25 1357.85 923.35 1356 924.4 1354.2 923.9 1351.7 923.4 1349.05 921.7 1347.4 920 1345.55 917.4 1345 Z"/>

<path fill="#F1CA9F" stroke="none" d="
M 857 1545.4
Q 858.4 1547.8 861.05 1548.55 863.7 1549.25 867.45 1547.8 871.2 1546.25 870.85 1543.7 870.5 1541.1 868.85 1538.75 867.15 1536.4 864.5 1535.7 861.85 1534.95 859.45 1536.35 857.1 1537.75 856.35 1540.4 855.65 1543.05 857 1545.4
M 939.3 1296.6
Q 935.5 1296.55 932.85 1299.2 930.15 1302 930.15 1305.7 930.15 1309.5 932.85 1312.2 935.5 1314.95 941 1315.7 946.5 1316.4 947.85 1313.15 949.25 1309.9 948.85 1305.95 948.5 1302 945.8 1299.25 943.1 1296.55 939.3 1296.6 Z"/>

<path fill="#FF8155" stroke="none" d="
M 880.85 1557.95
Q 879.55 1557.9 878.2 1558.7 876.9 1559.45 876.3 1560.65 875.7 1561.85 876.2 1562.7 876.7 1563.55 877.3 1564.3 877.8 1565 879.6 1563.8 881.45 1562.7 882.35 1561.3 883.2 1559.8 882.7 1558.95 882.2 1558.1 880.85 1557.95
M 951.5 1339.5
Q 951.45 1338.2 950 1337.15 948.5 1336.15 946.3 1336.15 944.15 1336.15 942.65 1337.15 941.1 1338.15 941.15 1339.55 941.25 1340.9 941.4 1342.15 941.4 1343.4 944.5 1343.35 947.4 1343.2 949.5 1342 951.45 1341 951.5 1339.5 Z"/>

<path fill="#FFBDA9" stroke="none" d="
M 844.15 1570.15
Q 846.5 1570.4 848.8 1569.05 851.05 1567.8 851.95 1565.6 852.95 1563.5 851.95 1561.85 851 1560.15 848.65 1559.9 846.4 1559.6 842.9 1560.8 839.35 1561.95 839.65 1564.2 839.85 1566.5 840.85 1568.25 841.85 1569.9 844.15 1570.15
M 896.45 1316.25
Q 895.1 1319 895.15 1321.75 895.2 1324.4 897.75 1326.4 900.4 1328.25 904 1328.25 907.7 1328.25 910.2 1326.35 912.8 1324.5 912.85 1321.75 912.8 1319.1 910.25 1317.15 907.7 1315.25 902.75 1314.3 897.7 1313.3 896.45 1316.25 Z"/>

<path fill="#F26D42" stroke="none" d="
M 830.2 1555.15
Q 829.05 1554.85 828.05 1555.5 827 1556.05 826.65 1557.2 826.35 1558.4 827.15 1560.2 827.9 1561.9 828.9 1561.55 829.9 1561.2 831.2 1560.75 832.45 1560.15 833.15 1559.25 833.9 1558.3 832.65 1556.9 831.35 1555.5 830.2 1555.15
M 888.65 1297.75
Q 887 1297.7 885.85 1298.95 884.65 1300.1 884.4 1302.65 884 1305.35 885.5 1305.6 886.95 1305.85 888.8 1306.1 890.65 1306.4 892.15 1305.8 893.65 1305.1 893.2 1302.65 892.65 1300.05 891.5 1298.9 890.25 1297.65 888.65 1297.75 Z"/>

<path fill="#FFA4A2" stroke="none" d="
M 836.55 1536.5
Q 834.85 1536.95 833.15 1537.9 831.45 1538.9 830.9 1540.8 830.45 1542.7 831.4 1544.35 832.4 1546.05 834.25 1546.55 836.2 1547.05 837.2 1546.55 838.25 1546 839.1 1543.6 839.85 1541.05 839.1 1538.6 838.3 1535.95 836.55 1536.5
M 906.85 1280.35
Q 904.2 1280.35 902.2 1282.15 900.35 1284.1 900.35 1286.75 900.4 1289.45 902.25 1291.35 904.15 1293.3 905.7 1293.35 907.35 1293.45 909.95 1291.15 912.7 1288.65 913.5 1285.15 914.4 1281.6 911.9 1281 909.6 1280.3 906.85 1280.35 Z"/>

<path fill="#FF7549" stroke="none" d="
M 884.8 1533.8
Q 884.05 1532.85 883.05 1532.5 882 1532.3 881.1 1532.8 880.15 1533.35 879.35 1534.8 878.5 1536.2 879.6 1536.65 880.65 1537.15 881.7 1537.4 882.75 1537.7 884.4 1537.35 886 1536.9 885.8 1535.8 885.55 1534.75 884.8 1533.8
M 971.4 1311
Q 971.1 1309.25 970.15 1308.2 969.1 1307.15 967.65 1307.2 966.1 1307.15 964.15 1308.3 962.1 1309.45 963.1 1310.8 964.1 1312.15 965.15 1313.15 966.2 1314.15 968.35 1314.9 970.55 1315.5 971.1 1314.05 971.65 1312.6 971.4 1311 Z"/>

<path fill="#FF7C51" stroke="none" d="
M 886.3 1515.8
Q 885.2 1515.5 884 1516.5 882.7 1517.45 882.4 1518.65 882.1 1519.8 883 1520.4 883.8 1520.8 885.4 1521.1 886.9 1521.35 887.95 1520.75 889 1520.15 888.8 1519.1 888.55 1518.05 888 1517.1 887.4 1516.1 886.3 1515.8
M 986.6 1293.25
Q 986.6 1291.65 985.55 1290.5 984.4 1289.5 982.3 1289.8 980.1 1290.05 978.95 1291.2 977.7 1292.45 978.45 1293.7 979.1 1294.85 980.75 1296.2 982.35 1297.6 984.1 1297.6 985.7 1297.6 986.2 1296.2 986.65 1294.9 986.6 1293.25 Z"/>

<path fill="#F57553" stroke="none" d="
M 853.15 1520
Q 852.65 1519.05 851.7 1519.4 850.85 1519.65 849.7 1520.4 848.55 1521.1 847.95 1521.9 847.45 1522.9 848.15 1523.85 848.85 1524.8 849.8 1524.55 850.6 1524.35 851.6 1523.5 852.55 1522.65 853.05 1521.75 853.7 1520.85 853.15 1520
M 941.85 1271
Q 940.6 1270.6 938.7 1270.85 936.85 1270.9 935.45 1271.45 934.25 1272.15 934.4 1273.75 934.6 1275.4 935.9 1275.85 937.1 1276.15 938.85 1275.8 940.55 1275.35 941.85 1274.7 943.1 1274.1 943.05 1272.7 943.1 1271.3 941.85 1271 Z"/>
</g>

<g id="Layer3_2_FILL">
<path fill="#008237" stroke="none" d="
M 1354.6 767.15
Q 1352.022265625 762.0689453125 1348.6 767.15 1349.294140625 755.1638671875 1340.8 755.8 1339.1623046875 750.9115234375 1342.8 747 1341.5 736.65 1329.15 742.3 1302.3 753.7 1283.2 754.05 1252.3 756.45 1224.8 739.55 1220.65 737 1215.8 737.5 1213.4 737.85 1214.5 739.65 1236.35 790.85 1294.2 790.45 1334.75 790.55 1351.1 773.2 1354.4431640625 770.7958984375 1354.6 767.15
M 1333.95 746.35
Q 1335.35546875 746.646484375 1336.35 747.95 1337.35 749.3 1337.35 751.2 1337.35 753.1 1336.35 754.4 1336.1033203125 754.7330078125 1335.8 754.95 1336.4873046875 755.1873046875 1337 755.7 1337.9013671875 756.596484375 1338.6 758.15 1339.295703125 759.760546875 1338.05 760.45 1336.8541015625 761.189453125 1335.25 761 1333.6484375 760.853515625 1332.75 759.95 1331.9 759.1 1331.9 757.85 1331.9 756.6 1332.75 755.7 1332.8224609375 755.6314453125 1332.9 755.55 1332.0833984375 755.255078125 1331.45 754.4 1330.44453125 753.1033203125 1330.5 750.75 1330.56640625 748.3896484375 1331.55 747.2 1332.53359375 746.06015625 1333.95 746.35
M 1299.95 759.15
Q 1304.4732421875 760.1296875 1297.65 763.05 1278.165625 768.957421875 1264.55 766.75 1242.593359375 762.1654296875 1234.15 748.65 1263.9392578125 767.957421875 1299.95 759.15 Z"/>

<path fill="#C7F9D4" stroke="none" d="
M 1297.65 763.05
Q 1304.4732421875 760.1296875 1299.95 759.15 1263.9392578125 767.957421875 1234.15 748.65 1242.593359375 762.1654296875 1264.55 766.75 1278.165625 768.957421875 1297.65 763.05
M 1336.35 747.95
Q 1335.35546875 746.646484375 1333.95 746.35 1332.53359375 746.06015625 1331.55 747.2 1330.56640625 748.3896484375 1330.5 750.75 1330.44453125 753.1033203125 1331.45 754.4 1332.0833984375 755.255078125 1332.9 755.55 1332.8224609375 755.6314453125 1332.75 755.7 1331.9 756.6 1331.9 757.85 1331.9 759.1 1332.75 759.95 1333.6484375 760.853515625 1335.25 761 1336.8541015625 761.189453125 1338.05 760.45 1339.295703125 759.760546875 1338.6 758.15 1337.9013671875 756.596484375 1337 755.7 1336.4873046875 755.1873046875 1335.8 754.95 1336.1033203125 754.7330078125 1336.35 754.4 1337.35 753.1 1337.35 751.2 1337.35 749.3 1336.35 747.95
M 1352.85 749.05
Q 1353.35 750.25 1356.35 750.75 1373.25 749.6 1377.55 729 1378 724.4 1376.85 725.15 1372.6 751.25 1352.85 749.05 Z"/>

<path fill="#093E0B" stroke="none" d="
M 1342.8 747
Q 1343.9302734375 747 1344.95 747 1356.212109375 746.9140625 1359 746 1366.3 743.5 1369.55 738.3 1366.2 742.5 1360 744.7 1356.9 745.75 1343.5 745.75 1342.15 734.8 1329.6 740.8 1302.2 752.85 1282.75 753.25 1251.2 755.8 1223.2 737.85 1218.95 735.15 1214 735.7 1211.55 736.05 1212.7 737.95 1234.95 792.25 1293.95 791.85 1335.3 791.95 1351.95 773.55 1355.3529296875 771.0072265625 1355.55 767.15 1355.60078125 765.89296875 1355.3 764.5 1355.31015625 764.4482421875 1355.3 764.4 1355.25 764.35 1355.3 764.3 1355.55 760.05 1362.55 755.05 1354.9783203125 759.9380859375 1354.4 764.1 1354.4103515625 764.3193359375 1354.4 764.5 1354.35 764.55 1354.4 764.6 1354.6859375 765.9431640625 1354.6 767.15 1354.4431640625 770.7958984375 1351.1 773.2 1334.75 790.55 1294.2 790.45 1236.35 790.85 1214.5 739.65 1213.4 737.85 1215.8 737.5 1220.65 737 1224.8 739.55 1252.3 756.45 1283.2 754.05 1302.3 753.7 1329.15 742.3 1341.5 736.65 1342.8 747 Z"/>

<path fill="#215917" stroke="none" d="
M 1342.55 754.15
Q 1340.455078125 750.575 1344.95 747 1343.9302734375 747 1342.8 747 1339.1623046875 750.9115234375 1340.8 755.8 1349.294140625 755.1638671875 1348.6 767.15 1352.022265625 762.0689453125 1354.6 767.15 1354.6859375 765.9431640625 1354.4 764.6 1354.35 764.55 1354.4 764.5 1354.4103515625 764.3193359375 1354.4 764.1 1352.903515625 760.0724609375 1350.05 763.3 1350.734765625 753.537890625 1342.55 754.15 Z"/>

<path fill="#878000" stroke="none" d="
M 1369.55 738.3
Q 1372.9 734.05 1373.25 727.75 1373.45 724.65 1374.2 722.45 1372.3 725.05 1372 730 1371.7 734.75 1369.55 738.3
M 1374.2 722.45
Q 1375.25 720.9 1376.9 720.2 1382.1 718.2 1380.5 725.05 1377.6 743.2 1367.45 751.65 1378.8 742.75 1381.95 722.5 1383.55 715.2 1378.25 717.35 1375.4 718.65 1374.2 722.45 Z"/>

<path fill="#C4DA87" stroke="none" d="
M 1376.9 720.2
Q 1375.25 720.9 1374.2 722.45 1373.45 724.65 1373.25 727.75 1372.9 734.05 1369.55 738.3 1366.3 743.5 1359 746 1356.212109375 746.9140625 1344.95 747 1340.455078125 750.575 1342.55 754.15 1350.734765625 753.537890625 1350.05 763.3 1352.903515625 760.0724609375 1354.4 764.1 1354.9783203125 759.9380859375 1362.55 755.05 1362.65 754.95 1362.8 754.9
L 1363.15 754.65
Q 1363.3123046875 754.5201171875 1363.5 754.4 1364.1326171875 753.97109375 1364.8 753.5 1365.7375 752.9375 1366.6 752.3
L 1367.45 751.65
Q 1377.6 743.2 1380.5 725.05 1382.1 718.2 1376.9 720.2
M 1356.35 750.75
Q 1353.35 750.25 1352.85 749.05 1372.6 751.25 1376.85 725.15 1378 724.4 1377.55 729 1373.25 749.6 1356.35 750.75 Z"/>
</g>

<g id="Layer3_3_FILL">
<path fill="#878000" stroke="none" d="
M 1051.85 906.75
Q 1052.2 907.7 1051.95 908.65 1051.1 911.5 1048.65 908.6 1041.95 901.35 1041.7 894.25 1041.75 902 1049.3 910.05 1051.85 913.15 1052.7 910.2 1053.1 908.5 1051.85 906.75
M 1049.35 903.35
Q 1047.45 901.65 1046.65 899.6 1047.4 902.4 1049.9 904.6 1051.2 905.75 1051.85 906.75 1051.4 905.1 1049.35 903.35 Z"/>

<path fill="#215917" stroke="none" d="
M 1040.6 884.6
Q 1042.9 885.3 1042.45 883 1046.4 886.55 1048.85 882.85 1051.05 883.1 1051.05 886.25 1051.4 885.8 1051.75 885.3 1051.3 882.45 1048.7 881.55 1046.15 885.35 1041.3 881.1 1042.35 884.25 1039.3 883.7 1039.8 884.1 1040.5 884.45
L 1040.5 884.5
Q 1040.6 884.55 1040.6 884.6 Z"/>

<path fill="#C4DA87" stroke="none" d="
M 1042.45 883
Q 1042.9 885.3 1040.6 884.6 1042.25 886.25 1041.85 891.05 1041.85 891.15 1041.8 891.2
L 1041.8 891.45
Q 1041.85 891.55 1041.8 891.65 1041.75 892.1 1041.75 892.5 1041.7 893.1 1041.65 893.7
L 1041.7 894.25
Q 1041.95 901.35 1048.65 908.6 1051.1 911.5 1051.95 908.65 1052.2 907.7 1051.85 906.75 1051.2 905.75 1049.9 904.6 1047.4 902.4 1046.65 899.6 1045.5 896.45 1046.85 892.55 1047.4 891.05 1051.05 886.25 1051.05 883.1 1048.85 882.85 1046.4 886.55 1042.45 883
M 1045.7 889.8
Q 1046.95 888.75 1047.6 888.9 1040.15 896.6 1049.8 907 1049.8 907.75 1048 906.05 1040.6 897.4 1045.7 889.8 Z"/>

<path fill="#C7F9D4" stroke="none" d="
M 1047.6 888.9
Q 1046.95 888.75 1045.7 889.8 1040.6 897.4 1048 906.05 1049.8 907.75 1049.8 907 1040.15 896.6 1047.6 888.9
M 1053.5 882.25
Q 1054.35 882.2 1055 881.75 1055.6 881.25 1055.4 880.4 1055.25 879.65 1054.2 878.8 1053.25 878.05 1052.35 878 1051.8 878.05 1051.4 878.25 1051.4 878.2 1051.4 878.15 1051.3 877.5 1050.75 877.05 1050.2 876.65 1049.6 876.75 1048.95 876.85 1048.3 877.45 1047.75 878.05 1047.55 878.85 1047.5 879.6 1048.4 879.8 1049.35 880.05 1050 880 1050.4 879.9 1050.65 879.7 1050.65 879.9 1050.75 880.1 1050.95 881 1051.8 881.6 1052.6 882.25 1053.5 882.25
M 1069.2 845.45
Q 1063.8 850.55 1059.8 860.8 1058.8 864.6 1060.75 863.05 1068.9 844.85 1086.9 838.5 1078.4 837.65 1069.2 845.45 Z"/>

<path fill="#093E0B" stroke="none" d="
M 1097.25 833.15
Q 1098.35 833.2 1097.75 834.4 1096.4 836.6 1093.9 837.5 1077.65 843.65 1068.45 857.65 1062.3 865.85 1058.25 881.05 1056.65 888.15 1051.75 885.3 1051.4 885.8 1051.05 886.25 1047.4 891.05 1046.85 892.55 1045.5 896.45 1046.65 899.6 1046 896.75 1047.1 893.35 1047.65 891.7 1052.1 886 1057.2 889.05 1058.75 881.75 1062.7 866.05 1068.95 857.7 1078.3 843.4 1095.15 837.4 1097.7 836.5 1099.1 834.2 1099.8 833.05 1098.55 832.9 1068.1 824.45 1048.85 849.7 1035.15 867.25 1037.45 880.45 1037.4 882.75 1039 884.05 1039.55 884.5 1040.15 884.9
L 1040.25 884.85 1040.3 884.9
Q 1042 886.4 1041.85 891.05 1042.25 886.25 1040.6 884.6 1040.6 884.55 1040.5 884.5
L 1040.5 884.45
Q 1039.8 884.1 1039.3 883.7 1037.8 882.4 1037.85 880.2 1035.9 867.5 1049.35 850.25 1068.25 825.55 1097.25 833.15 Z"/>

<path fill="#D32C18" stroke="none" d="
M 1097.75 834.4
Q 1098.35 833.2 1097.25 833.15 1068.25 825.55 1049.35 850.25 1035.9 867.5 1037.85 880.2 1037.8 882.4 1039.3 883.7 1042.35 884.25 1041.3 881.1 1046.15 885.35 1048.7 881.55 1051.3 882.45 1051.75 885.3 1056.65 888.15 1058.25 881.05 1062.3 865.85 1068.45 857.65 1077.65 843.65 1093.9 837.5 1096.4 836.6 1097.75 834.4
M 1059.8 860.8
Q 1063.8 850.55 1069.2 845.45 1078.4 837.65 1086.9 838.5 1068.9 844.85 1060.75 863.05 1058.8 864.6 1059.8 860.8
M 1055 881.75
Q 1054.35 882.2 1053.5 882.25 1052.6 882.25 1051.8 881.6 1050.95 881 1050.75 880.1 1050.65 879.9 1050.65 879.7 1050.4 879.9 1050 880 1049.35 880.05 1048.4 879.8 1047.5 879.6 1047.55 878.85 1047.75 878.05 1048.3 877.45 1048.95 876.85 1049.6 876.75 1050.2 876.65 1050.75 877.05 1051.3 877.5 1051.4 878.15 1051.4 878.2 1051.4 878.25 1051.8 878.05 1052.35 878 1053.25 878.05 1054.2 878.8 1055.25 879.65 1055.4 880.4 1055.6 881.25 1055 881.75 Z"/>
</g>

<g id="Layer3_4_FILL">
<path fill="#6F7400" stroke="none" d="
M 1121.6 693.7
Q 1114.5443359375 700.8517578125 1114.25 711 1113.9669921875 721.1943359375 1120.85 728.35 1127.7830078125 735.50546875 1138.25 735.35 1148.7056640625 735.198046875 1155.75 728.05 1162.85 721 1162.85 710.9 1162.85 700.85 1155.75 693.7 1148.7 686.6 1138.7 686.6 1128.7 686.6 1121.6 693.7
M 1117.3 710.6
Q 1117.552734375 701.38828125 1124.3 694.95 1131.102734375 688.5103515625 1139.85 689 1148.5873046875 689.4990234375 1154.8 695.7 1161.0166015625 701.89609375 1160.85 710.85 1160.6943359375 719.851171875 1154.3 726.45 1147.9 733.05 1138.9 733.05 1129.85 733.05 1123.45 726.45 1117.0986328125 719.85390625 1117.3 710.6 Z"/>

<path fill="#BBC560" stroke="none" d="
M 1124.3 694.95
Q 1117.552734375 701.38828125 1117.3 710.6 1117.0986328125 719.85390625 1123.45 726.45 1129.85 733.05 1138.9 733.05 1147.9 733.05 1154.3 726.45 1160.6943359375 719.851171875 1160.85 710.85 1161.0166015625 701.89609375 1154.8 695.7 1148.5873046875 689.4990234375 1139.85 689 1131.102734375 688.5103515625 1124.3 694.95
M 1122.25 711.95
Q 1122.25 705.4 1126.85 700.75 1131.5 696.15 1138.05 696.15 1144.600390625 696.1515625 1149.6 700.7 1154.5986328125 705.2947265625 1154.55 711.85 1154.501171875 718.405078125 1149.55 723.05 1144.5994140625 727.7482421875 1138.05 727.75 1131.5 727.75 1126.85 723.1 1122.25 718.5 1122.25 711.95 Z"/>

<path fill="#607600" stroke="none" d="
M 1126.85 700.75
Q 1122.25 705.4 1122.25 711.95 1122.25 718.5 1126.85 723.1 1131.5 727.75 1138.05 727.75 1144.5994140625 727.7482421875 1149.55 723.05 1154.501171875 718.405078125 1154.55 711.85 1154.5986328125 705.2947265625 1149.6 700.7 1144.600390625 696.1515625 1138.05 696.15 1131.5 696.15 1126.85 700.75
M 1124.65 711.35
Q 1125.394140625 705.0529296875 1129.05 701.1 1132.7556640625 697.1970703125 1138.4 697.3 1144.098046875 697.4509765625 1148.3 701.65 1152.5 705.8 1152.5 711.75 1152.5 717.65 1148.3 721.85 1144.1 726.05 1138.2 726.05 1132.25 726.05 1128.05 721.85 1123.9017578125 717.6490234375 1124.65 711.35 Z"/>
</g>

<g id="Layer3_5_FILL">
<path fill="#2A1B0F" stroke="none" d="
M 1332.65 648.95
Q 1326.2 654.88515625 1326.2 663.6 1326.2 672.3048828125 1332.65 678.45 1339.15 684.65 1348.35 684.65 1357.5 684.65 1364 678.45 1370.5 672.3 1370.5 663.45 1370.5 654.7 1364 648.45 1357.5 642.244921875 1348.3 642.65 1339.15 643.0646484375 1332.65 648.95
M 1328.7 663.6
Q 1328.8955078125 655.9080078125 1334.8 650.3 1340.704296875 644.741796875 1348.75 644.15 1356.7984375 643.6025390625 1362.65 649.4 1368.5 655.05 1368.5 663.2 1368.5 671.3 1362.65 677.05 1356.8 682.8 1348.55 682.8 1340.25 682.8 1334.35 677.05 1328.5513671875 671.297265625 1328.7 663.6 Z"/>

<path fill="#423458" stroke="none" d="
M 1334.8 650.3
Q 1328.8955078125 655.9080078125 1328.7 663.6 1328.5513671875 671.297265625 1334.35 677.05 1340.25 682.8 1348.55 682.8 1356.8 682.8 1362.65 677.05 1368.5 671.3 1368.5 663.2 1368.5 655.05 1362.65 649.4 1356.7984375 643.6025390625 1348.75 644.15 1340.704296875 644.741796875 1334.8 650.3
M 1357.65 658.1
Q 1361.05 661.35 1361.05 665.95 1361.05 670.5 1357.65 673.7 1354.2 676.95 1349.45 676.95 1344.6 676.95 1341.25 673.7 1337.8998046875 670.496875 1338.4 666.05 1338.95 661.609375 1341.85 658.25 1344.7498046875 654.940625 1349.45 654.9 1354.2 654.903125 1357.65 658.1 Z"/>

<path fill="#261C0F" stroke="none" d="
M 1361.05 665.95
Q 1361.05 661.35 1357.65 658.1 1354.2 654.903125 1349.45 654.9 1344.7498046875 654.940625 1341.85 658.25 1338.95 661.609375 1338.4 666.05 1337.8998046875 670.496875 1341.25 673.7 1344.6 676.95 1349.45 676.95 1354.2 676.95 1357.65 673.7 1361.05 670.5 1361.05 665.95
M 1356.95 658.8
Q 1360 661.6 1360 665.8 1360 669.95 1356.95 672.8 1353.85 675.75 1349.6 675.75 1345.2 675.75 1342.1 672.8 1339.0943359375 669.9541015625 1340.4 665.7 1341.766796875 661.437109375 1343.75 658.6 1345.7330078125 655.8126953125 1349.8 655.8 1353.85546875 655.845703125 1356.95 658.8 Z"/>
</g>

<path id="Layer3_0_1_STROKES" stroke="#000000" stroke-width="0.05" stroke-linejoin="round" stroke-linecap="round" fill="none" d="
M 121.02802124023435 252.01246948242186
Q 121.01450195312498 252.02598876953124 120.99422302246091 252.0462677001953
M 106.5083068847656 260.73240966796874
Q 104.26246812343595 260.5749310970306 102.33760681152341 259.37372131347655 100.37622758150098 257.9880735993385 102.29704895019529 258.94110412597655 104.00853260755537 259.78914893865584 106.10948791503904 259.79957885742186 108.61446394920347 259.92811770439147 111.32793273925779 261.2258636474609 112.49772074222562 261.9249586582184 111.88560333251951 261.93224639892577
L 109.34397735595701 261.13460845947264
Q 109.31572415828703 261.1248914718628 109.28652038574216 261.1177093505859 108.09935798645017 260.71968252658843 106.5083068847656 260.73240966796874 Z
M 104.68996276855466 254.4256622314453
Q 104.46689453124998 254.2025939941406 104.46689453124998 253.891650390625 104.46723779439924 253.5803635239601 104.68320312499998 253.2900421142578 104.89850833415983 253.00043363571166 105.19017639160154 252.83038635253905 105.48311188220976 252.66002221107482 105.74784698486326 253.06359405517577 106.01028486490247 253.46772040128707 106.04865112304685 253.6212646484375 106.08841683864591 253.7734622478485 105.81206359863279 254.2093536376953 105.53523507118223 254.64751584529876 105.22397460937498 254.64873046875 104.91303100585935 254.64873046875 104.68996276855466 254.4256622314453 Z
M 150.50682678222654 195.52212829589843
Q 150.29727783203123 195.3125793457031 150.30403747558591 195.00839538574218 150.29727783203123 194.70421142578124 150.50682678222654 194.49466247558593 150.7154515624046 194.28529835939406 150.95296325683591 194.2986328125 151.19237610101698 194.31159759759902 151.36530151367185 194.52846069335936 151.538279736042 194.7453237891197 151.64244689941404 195.02867431640624 151.74481853246687 195.31239451169967 151.53429260253904 195.52212829589843 151.32474365234373 195.73167724609374 151.02731933593748 195.73167724609374 150.71637573242185 195.73167724609374 150.50682678222654 195.52212829589843 Z"/>
</defs>

<g transform="matrix( -0.13519287109375, 0.13519287109375, -0.13519287109375, -0.13519287109375, 406.65,153.2) ">
<use xlink:href="#Layer3_0_FILL"/>

<use xlink:href="#Layer3_0_1_STROKES" transform="matrix( -3.6984100341796875, -3.6984100341796875, 3.6984100341796875, -3.6984100341796875, 937.35,2070.55) "/>
</g>

<g transform="matrix( 0.191192626953125, 0, 0, 0.191192626953125, -37.3,-53.4) ">
<use xlink:href="#Layer3_1_FILL"/>
</g>

<g transform="matrix( 0.0699310302734375, 0.0863800048828125, -0.0863800048828125, 0.0699310302734375, 100.25,52.4) ">
<use xlink:href="#Layer3_2_FILL"/>
</g>

<g transform="matrix( -0.3247833251953125, -0.045654296875, 0.045654296875, -0.3247833251953125, 465.35,566.3) ">
<use xlink:href="#Layer3_3_FILL"/>
</g>

<g transform="matrix( -0.13519287109375, 0.13519287109375, -0.13519287109375, -0.13519287109375, 423.3,191.05) ">
<use xlink:href="#Layer3_4_FILL"/>
</g>

<g transform="matrix( -0.13519287109375, 0.13519287109375, -0.13519287109375, -0.13519287109375, 429.6,125.3) ">
<use xlink:href="#Layer3_5_FILL"/>
</g>
</svg>
