
<svg xmlns="http://www.w3.org/2000/svg" version="1.1" xmlns:xlink="http://www.w3.org/1999/xlink" preserveAspectRatio="none" x="0px" y="0px" width="738px" height="746px" viewBox="0 0 738 746">
<defs>
<g id="Layer4_0_FILL">
<path fill="#060200" stroke="none" d="
M 86.4 176.75
Q 116.3 126.65 166.55 99.8 115.65 119.45 86.4 176.75
M 49.85 252.3
Q 49.8 252.35 49.75 252.45 36.2 273.3 30.35 306.75 29.95 309.75 29.6 312.65 29.6 312.9 29.5 313.2 25.45 348.6 33.4 376.55 28 341.2 31.85 316.6 35.55 278.2 51.35 250.1 50.6 251.15 49.85 252.3
M 200.25 90.45
Q 199.45 93.35 198.55 96 192.55 112.5 179.9 119.45 169.05 123.55 162.8 127.85 154.75 133.35 149.35 136.4 121.1 151.9 107.7 186.45 96.1 215.5 70.1 239.15 53 257.75 57.9 281.25 61.5 300.55 51.85 313.6 44.15 324.75 46.55 335.8 47.75 341.3 50.1 347.2 51.05 349.65 52.25 352.15 60 375.45 52.3 394.75 50.2 400.05 46.9 405.05 59.2 387.95 58.7 364.6 58.6 357 54.95 347 46.1 330.6 59.25 312.55 69.15 297.95 63.9 280.3 59.25 260.45 74.65 243.05 87.5 230.2 96.9 219.25 109.5 203.4 115.45 182.9 125.4 156.85 144.95 143.55 154.8 136.85 166.1 129.7 196.1 119.1 200.25 90.45
M 221.3 359.65
L 220.25 358.45
Q 220.2 358.35 220.15 358.25 204.3 336.05 220.35 307.8 238.45 282.6 271.75 293.5 292.15 300.4 301 321.35 296 304.1 279 294.8 253.4 279.35 226.2 295.8 213.8 306 211.05 323 205.35 351 221.6 364.8 228.2 370.6 235.9 374.1 243.4 377.45 252.45 377.15 254.2 377.1 256.1 376.95 256.3 376.85 256.6 376.85 264.15 375.95 272.55 372.65 273.95 371.95 275.25 371.15 280.9 367.8 285.45 364.35 304.75 344.25 303.2 332.2 294.75 358.8 277 368 254.7 382.9 227.45 366.65 223.05 362.8 221.3 359.65
M 85.85 369.25
Q 85.8 369.15 85.75 369.05 72.35 345.25 91.25 318.95 111.85 295.7 143.85 309.9 163.4 318.95 170 340.7 166.9 323.05 150.9 312.05 127.1 294.05 98.25 307.55 84.9 316.4 80.35 333 71.8 360.35 86.6 375.65 92.55 382.2 99.85 386.4 106.95 390.55 116 391.2 117.7 391.3 119.6 391.35 119.8 391.35 120.1 391.3 127.65 391.2 136.45 388.85 137.85 388.2 139.25 387.6 145.2 384.85 150.1 381.9 171.4 363.95 171.1 351.8 160 377.35 141.35 384.65 117.65 397.1 92.2 378.15 88.15 373.9 86.8 370.5
L 85.85 369.25
M 130.85 216.7
Q 130.85 216.6 130.9 216.5 138.55 188.85 172.2 183.35 204.7 181.35 217.9 215.65 225.7 236.85 214.45 257.9 225.25 242.5 221.55 222.5 217.3 191.4 185.8 180.1 169.3 176.7 153.65 185.65 127 199.6 126.55 221.95 126.1 231.15 128.35 239.85 130.55 248.2 136.85 255.35 138.05 256.75 139.45 258.15 139.6 258.25 139.8 258.5 145.55 264 153.85 268.75 155.35 269.4 156.85 269.95 163.25 272.35 169.1 273.7 192.9 275.8 203.15 269.95 202.3 269.75 201.5 269.65
L 201.6 268.95
Q 177.9 276.85 160.5 269.3 133.65 261 128.95 228 129.05 221.85 130.5 218.4
L 130.85 216.7
M 185.95 66.75
Q 188.1 69.3 190.05 72.55 195.3 80.4 200.25 90.45 200.5 91.1 200.8 91.75 203.5 97.4 206.15 103.75 211.55 116.8 217.1 128.75 223.55 142.7 230.05 155.3 231.4 157.9 232.75 160.45 237.2 168.8 241.8 176.45 252.5 194.7 263.5 209.2 273.65 224.35 283.2 242.05 293.1 260.35 302.35 281.5 305.25 288.2 308.1 295.25 323.45 333.55 353.6 368.45 328.35 331.7 314.4 297.5 306.05 276.9 290.8 244.6 278.3 217.6 251.2 179.6 239 166.1 223.2 130.8 217 117.25 204.8 93.05 197.05 77.35 187.3 66.05 179 56.5 166.55 56.4 164.75 56.35 162.85 56.75 149.65 62.6 128.25 86.55
L 102.2 113.95
Q 72.85 143.15 44.75 192.3 31.5 215.7 19 249.45 13.25 267.85 5.65 304.9 -1.15 337.35 0.25 391.85 0.6 405.2 14.05 409.85 20.6 412.3 33.4 410.85
L 114.95 403.1
Q 152.75 398.15 177.8 398.2 183.45 399.45 265.55 388.4 274.15 387.2 318.7 378.5 335.7 375.2 353.6 368.45 334.5 372.7 319.65 375.8 280.5 383.95 270 384.3 267.45 384.55 265.1 384.8 206.1 391.35 189.85 391.75 143.7 392.9 114.1 397.5 69.75 402.55 46.9 405.05 24.6 407.55 22.8 407.6 3 408.35 1.2 391.75 0.6 386.65 1.75 379.9 3.75 344.85 4.2 341.45 7.5 316.6 9.45 306.15 9.9 303.55 10.3 301.85 17.65 269.9 22.8 255.5 23.6 253.35 24.4 251.2 34.35 223.9 43.3 207.15 46.65 201.25 49.9 195.75 62.15 174.7 72.2 159.9 72.7 159.15 73.25 158.4 75.95 154.45 78.55 150.8 82.9 144.85 86.75 140.3 96.3 129 104 120.1 115.1 106.95 121.95 99 127.25 93 131.9 88.5 141.75 79.15 148.05 71.75 152.65 65.9 158.2 61.3 160.8 60.1 163.2 59.4 164.5 59.05 165.7 58.85 171.6 57.6 176.7 59.5 181.75 61.95 185.95 66.75
M 19.55 401.75
Q 19.2 392.7 14.75 384.55 14.1 392.5 19.55 401.75
M 35.1 248.8
Q 55.25 196.7 85.5 152.15 50.95 194.4 35.1 248.8
M 172.4 67.8
Q 160.2 76.2 148.15 90.4 163.55 80.55 172.4 67.8 Z"/>

<path fill="#EDA969" stroke="none" d="
M 162.8 127.85
Q 169.05 123.55 179.9 119.45 192.55 112.5 198.55 96 184.3 91.6 166.55 99.8 116.3 126.65 86.4 176.75 61.4 214.35 49.85 252.3 50.6 251.15 51.35 250.1 35.55 278.2 31.85 316.6 28 341.2 33.4 376.55 25.45 348.6 29.5 313.2 11.15 352.15 20.55 375.5 28.1 392.9 52.3 394.75 60 375.45 52.25 352.15 51.05 349.65 50.1 347.2 47.75 341.3 46.55 335.8 44.15 324.75 51.85 313.6 61.5 300.55 57.9 281.25 53 257.75 70.1 239.15 96.1 215.5 107.7 186.45 121.1 151.9 149.35 136.4 154.75 133.35 162.8 127.85 Z"/>

<path fill="#EDB53A" stroke="none" d="
M 200.8 91.75
Q 200.5 91.1 200.25 90.45 196.1 119.1 166.1 129.7 154.8 136.85 144.95 143.55 125.4 156.85 115.45 182.9 109.5 203.4 96.9 219.25 87.5 230.2 74.65 243.05 59.25 260.45 63.9 280.3 69.15 297.95 59.25 312.55 46.1 330.6 54.95 347 58.6 357 58.7 364.6 59.2 387.95 46.9 405.05 69.75 402.55 114.1 397.5 143.7 392.9 189.85 391.75 206.1 391.35 265.1 384.8 267.45 384.55 270 384.3 280.5 383.95 319.65 375.8 334.5 372.7 353.6 368.45 323.45 333.55 308.1 295.25 305.25 288.2 302.35 281.5 293.1 260.35 283.2 242.05 273.65 224.35 263.5 209.2 252.5 194.7 241.8 176.45 237.2 168.8 232.75 160.45 231.4 157.9 230.05 155.3 223.55 142.7 217.1 128.75 211.55 116.8 206.15 103.75 203.5 97.4 200.8 91.75
M 235.6 179.95
Q 236.2 180.35 236.75 180.8
L 236.5 181.3
Q 248.45 201.1 263.3 232.1 276.8 257.9 292.15 279.25 309.25 306.15 318.25 331.55 323.6 349.3 317.6 359.65 320.8 363.2 319.05 366 313.6 376.45 307.85 377.15 302.75 373.75 300.9 371.4 299.5 371.8 298 372.15 295.1 372.85 250.75 377.85 248.15 378.6 244.8 378.5 231.3 379.95 214.45 381.85 212.25 382.15 139.25 387.6 137.85 388.2 136.45 388.85 127.65 391.2 120.1 391.3 119.8 391.35 119.6 391.35 117.7 391.3 116 391.2 111.35 392.85 103.7 390.85 101.9 390.15 100.25 389.35 88.45 389.15 79.2 385.2 79.4 386.55 78.6 387.75 73.15 398.2 67.4 398.95 59.2 393.45 59.45 390.65 59 382.9 62.15 381.95 65.3 380.95 66.7 379.5 67.55 378.5 68.45 378.1 57.5 364.9 59.75 334.05 63.15 303 83.4 260.35 115.7 194.7 148 159.55 169.5 134.6 187.85 134.9 199.85 135.1 219.65 157.6 226.8427734375 165.791796875 235.55 179.9
L 235.6 179.95 Z"/>

<path fill="#452403" stroke="none" d="
M 317.6 359.65
Q 316.75 358.6 315.45 357.6 314.1 356.45 311.3 355.95 309.05 355.6 307.15 357.7 305.7 359.2 302.6 360.1 299.35 361.2 299.95 368.9 299.8 369.95 300.9 371.4 302.75 373.75 307.85 377.15 313.6 376.45 319.05 366 320.8 363.2 317.6 359.65
M 314.55 359.15
Q 315.8 360.2 316.65 361.1 319 364.05 317.65 366.3 313 375.15 308.05 375.8 303.85 372.9 302.2 370.95 301.25 369.65 301.35 368.75 300.9 362.15 303.6 361.3 306.3 360.45 307.45 359.25 309.1 357.5 311 357.8 313.4 358.2 314.55 359.15
M 66.7 379.5
Q 65.3 380.95 62.15 381.95 59 382.9 59.45 390.65 59.2 393.45 67.4 398.95 73.15 398.2 78.6 387.75 79.4 386.55 79.2 385.2 78.9 382.6 75.05 379.3 73.7 378.2 70.85 377.8 69.65 377.55 68.45 378.1 67.55 378.5 66.7 379.5
M 63.2 383.1
Q 65.9 382.25 67 381.05 68.3 379.65 69.75 379.5 70.15 379.5 70.55 379.55 72.95 379.95 74.2 380.95 76.25 382.65 77.15 384.25 78.25 386.35 77.2 388.1 72.55 396.95 67.6 397.55 60.7 392.9 60.9 390.5 60.45 383.95 63.2 383.1
M 258.6 253.5
Q 257.55 252.1 254.95 250.8 252.9 249.95 250.45 251.45 248.75 252.55 245.45 252.65 242.15 252.8 240.65 260.35 239.6 263.1 246.15 270.45 251.9 271.25 259.8 262.55 262.95 259.65 258.6 253.5
M 254.25 252.5
Q 256.4 253.55 257.3 254.75 261 260 258.4 262.5 251.65 269.85 246.7 269.2 241.2 262.85 242.05 260.65 243.3 254.15 246.15 254.05 248.9 253.95 250.4 253 252.5 251.7 254.25 252.5
M 201.05 362.85
Q 199.65 361.75 196.85 361.15 194.65 360.9 192.7 362.95 191.25 364.35 188.15 365.35 184.9 366.4 185.45 374.1 185.2 376.95 193.35 382.4 199.15 381.65 204.6 371.25 206.85 367.65 201.05 362.85
M 193 364.5
Q 194.65 362.65 196.6 363 198.95 363.45 200.15 364.45 205.05 368.55 203.2 371.55 198.55 380.4 193.65 381 186.65 376.4 186.9 374.05 186.5 367.4 189.2 366.55 191.8 365.75 193 364.5
M 161.9 290.55
Q 158.75 291.55 159.25 299.3 159 302.1 167.2 307.6 172.95 306.85 178.4 296.45 180.65 292.85 174.85 288 173.45 286.9 170.6 286.35 168.45 286 166.45 288.1 165.05 289.55 161.9 290.55
M 173.95 289.55
Q 178.85 293.65 176.95 296.75 172.3 305.55 167.45 306.15 160.45 301.55 160.7 299.15 160.25 292.6 163 291.7 165.65 290.85 166.8 289.65 168.5 287.9 170.35 288.2 172.75 288.6 173.95 289.55
M 97.9 271
Q 96.55 269.9 93.7 269.35 91.5 269 89.5 271.15 88.1 272.6 85.05 273.5 81.8 274.55 82.35 282.25 82.05 285.1 90.25 290.55 96 289.8 101.45 279.4 103.7 275.8 97.9 271
M 83.75 282.1
Q 83.3 275.6 86.05 274.75 88.75 273.9 89.9 272.7 91.55 270.85 93.4 271.15 95.8 271.65 97 272.6 101.95 276.65 100.05 279.7 95.4 288.6 90.45 289.2 83.5 284.5 83.75 282.1
M 193.1 143.5
Q 190.9 143.15 188.95 145.3 187.5 146.7 184.45 147.7 181.2 148.7 181.75 156.4 181.5 159.25 189.65 164.7 195.45 164 200.9 153.55 203.15 150 197.3 145.1 195.95 144 193.1 143.5
M 189.3 146.8
Q 191 145 192.85 145.35 195.2 145.75 196.4 146.75 201.35 150.8 199.45 153.85 194.8 162.75 189.9 163.3 182.9 158.7 183.2 156.3 182.75 149.7 185.45 148.85 188.15 148.05 189.3 146.8 Z"/>

<path fill="#6B4B22" stroke="none" d="
M 316.65 361.1
Q 315.8 360.2 314.55 359.15 313.4 358.2 311 357.8 309.1 357.5 307.45 359.25 306.3 360.45 303.6 361.3 300.9 362.15 301.35 368.75 301.25 369.65 302.2 370.95 303.85 372.9 308.05 375.8 313 375.15 317.65 366.3 319 364.05 316.65 361.1
M 67 381.05
Q 65.9 382.25 63.2 383.1 60.45 383.95 60.9 390.5 60.7 392.9 67.6 397.55 72.55 396.95 77.2 388.1 78.25 386.35 77.15 384.25 76.25 382.65 74.2 380.95 72.95 379.95 70.55 379.55 70.15 379.5 69.75 379.5 68.3 379.65 67 381.05
M 257.3 254.75
Q 256.4 253.55 254.25 252.5 252.5 251.7 250.4 253 248.9 253.95 246.15 254.05 243.3 254.15 242.05 260.65 241.2 262.85 246.7 269.2 251.65 269.85 258.4 262.5 261 260 257.3 254.75
M 196.6 363
Q 194.65 362.65 193 364.5 191.8 365.75 189.2 366.55 186.5 367.4 186.9 374.05 186.65 376.4 193.65 381 198.55 380.4 203.2 371.55 205.05 368.55 200.15 364.45 198.95 363.45 196.6 363
M 176.95 296.75
Q 178.85 293.65 173.95 289.55 172.75 288.6 170.35 288.2 168.5 287.9 166.8 289.65 165.65 290.85 163 291.7 160.25 292.6 160.7 299.15 160.45 301.55 167.45 306.15 172.3 305.55 176.95 296.75
M 86.05 274.75
Q 83.3 275.6 83.75 282.1 83.5 284.5 90.45 289.2 95.4 288.6 100.05 279.7 101.95 276.65 97 272.6 95.8 271.65 93.4 271.15 91.55 270.85 89.9 272.7 88.75 273.9 86.05 274.75
M 192.85 145.35
Q 191 145 189.3 146.8 188.15 148.05 185.45 148.85 182.75 149.7 183.2 156.3 182.9 158.7 189.9 163.3 194.8 162.75 199.45 153.85 201.35 150.8 196.4 146.75 195.2 145.75 192.85 145.35 Z"/>

<path fill="#533F00" stroke="none" d="
M 306.45 318.6
Q 306.05 318.55 305.7 318.65
L 304.1 322.65
Q 304.75 322.95 305.6 323.4 305.8 323.5 306.05 323.75 312.1 330.85 308.85 337.35
L 306.4 341.8 313.15 343.6
Q 313.4 342.95 313.7 342.3 316.45 335.25 316.25 331.15 315.95 325.4 313.55 322.4 310.4 318.45 306.45 318.6
M 315.35 330.85
Q 315.4 331.4 315.35 332 315 337.5 312.75 342.15
L 308.5 341.05
Q 311.7 335.75 311.1 331.65 310.25 324.8 306.3 322.6 306.05 322.4 305.85 322.3 305.25 322.05 305 322.45
L 306.35 319.15
Q 310.55 319.7 312.8 322.8 314.9 325.7 315.35 330.85
M 202.25 264.35
L 201.6 268.95 201.5 269.65
Q 202.3 269.75 203.15 269.95 203.65 270.1 204.25 270.3 213.85 276.95 212 285.95
L 210.5 292.05 219.2 292 219.25 292.05
Q 219.25 291.95 219.25 291.9 219.4 291.1 219.45 290.3 220.5 280.95 218.9 276.05 216.7 269.05 212.9 266.35 211.35 265.2 209.95 264.55 209.6 264.45 209.25 264.25 205.6 262.9 202.25 264.35
M 204.15 268.85
Q 202.75 268.45 202.55 269.1
L 203.15 264.75
Q 206.05 264.4 208.55 265.2 210.4 265.7 212.05 267.05 215.55 269.8 217.8 275.9 217.95 276.55 218.1 277.3 219.5 284.1 218.3 290.4
L 212.7 290.5
Q 214.95 283.05 212.9 278.3 209.8 270.75 204.7 269 204.45 268.9 204.15 268.85
M 76.25 306.55
Q 75.65 306.95 75.15 307.35 69.25 312.15 67.4 315.75 64.75 320.9 65.3 324.65 66.05 330.25 70.2 331.8
L 72.75 329.85 73.6 329.15
Q 73.45 329 73.25 328.75 72.85 328.1 72.4 327.35 70.75 318.1 76.85 314.05
L 81.1 311.5 76.25 306.55
M 75.8 307.9
L 79.05 311.15
Q 73.6 314.1 72.05 317.85 69.45 324.25 71.6 328.15 72.2 329.15 72.7 329
L 69.9 331.05
Q 66.6 328.55 66.15 324.7 65.75 321.1 67.9 316.45 68.2 315.95 68.5 315.5 71.6 310.85 75.8 307.9
M 181.65 336.6
Q 179.05 341.8 179.65 345.55 180.4 351 184.5 352.65
L 187.9 350.1
Q 187.3 349.25 186.75 348.15 185.1 339 191.2 334.95
L 195.45 332.35 190.55 327.4
Q 190 327.85 189.45 328.25 183.55 333 181.65 336.6
M 190.15 328.8
L 193.3 332
Q 187.85 334.9 186.3 338.7 183.7 345.15 185.95 349.1 186.5 350 187 349.85
L 184.2 351.9
Q 180.85 349.4 180.5 345.55 180.05 342.05 182.25 337.35 182.5 336.85 182.85 336.35 185.9 331.7 190.15 328.8
M 114.6 255.9
Q 114.65 256.05 114.65 256.1 113.45 265.5 115.15 270.4 117.35 277.4 121.15 280.1 125 283 128.6 282.85 130.15 282.8 131.75 282.05
L 132.55 276.8
Q 131.25 276.6 129.8 276.15 129.75 276.1 129.7 276.1 120.15 269.45 122 260.45
L 123.5 254.45 114.8 254.4
Q 114.65 255.2 114.6 255.9
M 115.7 256.05
L 121.35 256
Q 119.1 263.45 121.15 268.1 124.3 275.75 129.35 277.45 129.65 277.6 129.9 277.65 131.2 278 131.5 277.35
L 130.9 281.65
Q 129.8 281.85 128.65 281.75 124.9 281.75 121.95 279.4 118.45 276.6 116.2 270.55 116.05 269.85 115.9 269.2 114.5 262.35 115.7 256.05
M 210.5 182.95
Q 210.55 182.9 210.6 182.95 221.05 177.95 227.95 184.05
L 232.4 188.35 236.5 181.3 236.75 180.8
Q 236.2 180.35 235.6 179.95
L 235.55 179.9
Q 235.5267578125 179.85 235.4 179.85 227.8 174.15 222.75 173.15 215.65 171.6 211.4 173.5 206.95 175.4 205.3 178.55 204.55 180.05 204.3 181.65
L 208.6 185.05
Q 209.3 184 210.5 182.95
M 209.5 181.95
Q 209.35 182.15 209.15 182.3 208.15 183.3 208.55 183.85
L 205.1 181.2
Q 205.6 180.05 206.1 179.2 208.05 175.9 211.55 174.5 215.7 172.95 222.15 174 222.75 174.2 223.5 174.4 230.1 176.65 235 180.8
L 232.15 185.65
Q 226.8 180.05 221.7 179.45 213.55 178.35 209.5 181.95 Z"/>

<path fill="#406E3E" stroke="none" d="
M 315.35 332
Q 315.4 331.4 315.35 330.85 314.9 325.7 312.8 322.8 310.55 319.7 306.35 319.15
L 305 322.45
Q 305.25 322.05 305.85 322.3 306.05 322.4 306.3 322.6 310.25 324.8 311.1 331.65 311.7 335.75 308.5 341.05
L 312.75 342.15
Q 315 337.5 315.35 332
M 202.55 269.1
Q 202.75 268.45 204.15 268.85 204.45 268.9 204.7 269 209.8 270.75 212.9 278.3 214.95 283.05 212.7 290.5
L 218.3 290.4
Q 219.5 284.1 218.1 277.3 217.95 276.55 217.8 275.9 215.55 269.8 212.05 267.05 210.4 265.7 208.55 265.2 206.05 264.4 203.15 264.75
L 202.55 269.1
M 79.05 311.15
L 75.8 307.9
Q 71.6 310.85 68.5 315.5 68.2 315.95 67.9 316.45 65.75 321.1 66.15 324.7 66.6 328.55 69.9 331.05
L 72.7 329
Q 72.2 329.15 71.6 328.15 69.45 324.25 72.05 317.85 73.6 314.1 79.05 311.15
M 193.3 332
L 190.15 328.8
Q 185.9 331.7 182.85 336.35 182.5 336.85 182.25 337.35 180.05 342.05 180.5 345.55 180.85 349.4 184.2 351.9
L 187 349.85
Q 186.5 350 185.95 349.1 183.7 345.15 186.3 338.7 187.85 334.9 193.3 332
M 121.35 256
L 115.7 256.05
Q 114.5 262.35 115.9 269.2 116.05 269.85 116.2 270.55 118.45 276.6 121.95 279.4 124.9 281.75 128.65 281.75 129.8 281.85 130.9 281.65
L 131.5 277.35
Q 131.2 278 129.9 277.65 129.65 277.6 129.35 277.45 124.3 275.75 121.15 268.1 119.1 263.45 121.35 256
M 209.15 182.3
Q 209.35 182.15 209.5 181.95 213.55 178.35 221.7 179.45 226.8 180.05 232.15 185.65
L 235 180.8
Q 230.1 176.65 223.5 174.4 222.75 174.2 222.15 174 215.7 172.95 211.55 174.5 208.05 175.9 206.1 179.2 205.6 180.05 205.1 181.2
L 208.55 183.85
Q 208.15 183.3 209.15 182.3 Z"/>

<path fill="#C13635" stroke="none" d="
M 220.25 358.45
L 221.3 359.65
Q 223.05 362.8 227.45 366.65 254.7 382.9 277 368 294.75 358.8 303.2 332.2 303.05 330.8 302.6 329.55 302.1 325.2 301 321.35 292.15 300.4 271.75 293.5 238.45 282.6 220.35 307.8 204.3 336.05 220.15 358.25 220.2 358.35 220.25 358.45
M 241.65 313.75
Q 240.95 313.3 241.35 311.45 241.8 309.6 243.35 308.6 244.9 307.6 245.75 308.95 246.5 310.25 248.2 311.15 249.95 312.15 249.85 313.7 249.75 315.2 248.1 315.7 246.35 316.25 244.4 315.25 242.4 314.2 241.65 313.75
M 232.8 334.4
Q 234.2 333.25 235.65 332.85 236.95 332.45 237.75 334.15 238.55 335.9 238.15 337.4 237.8 338.9 236.35 340.25 234.95 341.5 233.3 341.7 231.6 341.9 230.85 340.2 230.1 338.45 230.75 337 231.3 335.55 232.8 334.4
M 240.85 349.25
Q 241.15 348.25 242.05 347.7 242.9 347.1 243.95 347.35 245 347.6 245.55 348.45 246.15 349.4 245.9 350.45 245.65 351.45 244.75 352.05 243.85 352.65 242.85 352.35 241.85 352.15 241.2 351.2 240.65 350.3 240.85 349.25
M 278.3 318.95
Q 279 318.55 279.9 319.05 280.8 319.5 281.7 320 282.45 320.4 282.1 322.05 281.75 323.6 280.85 324.15 279.9 324.8 278.95 324.25 277.9 323.65 277.4 323.1 276.9 322.45 277.25 320.95 277.6 319.3 278.3 318.95
M 258.3 330.15
Q 255.75 329.55 254.15 327.95 252.65 326.3 253.05 324.5 253.45 322.7 255.5 321.9 257.65 321 259.25 321.15 260.85 321.3 261.55 322.55 262.35 323.95 263.75 326.5 265.1 329.05 263 329.9 260.9 330.75 258.3 330.15
M 258 345.4
Q 259.3 344.6 260.15 345.85 261 347.15 262.65 347.55 264.35 347.95 263.95 349.55 263.6 351.2 262.25 352.05 260.85 352.9 259.35 352.1 257.9 351.3 257.15 349.25 256.4 347.2 256.5 346.7 256.6 346.25 258 345.4
M 275.25 343.15
Q 275.7 341.45 277.1 341.75 278.4 342.05 280.4 340.15 282.4 338.2 283.2 340.1 284.1 342.05 283.7 344.15 283.35 346.25 282.4 346.55 281.5 346.85 278.95 347.75 276.45 348.75 275.55 346.8 274.75 344.85 275.25 343.15
M 284.15 314.15
Q 272.75 303.05 252 297.4 276.95 299.2 284.15 314.15
M 228.15 360.05
Q 256.1 369.65 272.7 358.2 255.7 376.1 228.15 360.05
M 85.75 369.05
Q 85.8 369.15 85.85 369.25
L 86.8 370.5
Q 88.15 373.9 92.2 378.15 117.65 397.1 141.35 384.65 160 377.35 171.1 351.8 171.1 350.35 170.75 349.05 170.7 344.65 170 340.7 163.4 318.95 143.85 309.9 111.85 295.7 91.25 318.95 72.35 345.25 85.75 369.05
M 128.55 336.25
Q 130.1 336.5 130.7 337.9 131.35 339.3 132.4 342.05 133.55 344.65 131.35 345.3 129.15 345.9 126.7 345.05 124.15 344.2 122.8 342.4 121.4 340.6 122 338.85 122.55 337.15 124.75 336.5 126.95 335.95 128.55 336.25
M 146.45 337.85
Q 147 336.3 147.75 336.05 148.5 335.7 149.3 336.25 150.15 336.8 150.9 337.35 151.7 337.9 151.15 339.45 150.65 340.95 149.7 341.5 148.7 342 147.75 341.35 146.85 340.65 146.4 340 145.95 339.4 146.45 337.85
M 123.8 311.85
Q 148.4 316.2 154 331.85 143.85 319.65 123.8 311.85
M 111.75 324.65
Q 112.3 322.9 114 322.05 115.65 321.2 116.35 322.65 117.05 324.05 118.6 325.15 120.2 326.3 119.95 327.8 119.7 329.3 118 329.6 116.25 330 114.4 328.75 112.5 327.55 111.85 327 111.15 326.4 111.75 324.65
M 105.75 346.9
Q 106.35 348.75 105.85 350.2 105.4 351.6 103.8 352.75 102.25 353.95 100.55 353.95 98.85 354 98.35 352.2 97.8 350.45 98.55 349.05 99.25 347.65 100.8 346.65 102.35 345.6 103.8 345.4 105.2 345.1 105.75 346.9
M 108.65 360.8
Q 109.6 360.3 110.55 360.65 111.6 360.95 112.1 361.95 112.55 362.95 112.25 363.85 111.9 364.9 110.95 365.4 109.95 365.85 108.95 365.55 107.95 365.2 107.5 364.25 107.05 363.3 107.35 362.25 107.65 361.3 108.65 360.8
M 142.1 359.75
Q 142.7 358.05 144.1 358.55 145.45 358.95 147.65 357.25 149.8 355.55 150.4 357.6 151.05 359.55 150.5 361.6 149.9 363.65 148.95 363.85 147.95 364 145.4 364.7 142.8 365.4 142.15 363.4 141.5 361.4 142.1 359.75
M 124.7 360.15
Q 126.15 359.55 126.85 360.9 127.6 362.25 129.25 362.8 130.8 363.4 130.3 364.95 129.8 366.5 128.25 367.25 126.85 367.95 125.4 367.05 124 366.05 123.55 363.95 122.95 361.8 123.15 361.35 123.3 360.9 124.7 360.15
M 93.6 371.65
Q 120.4 384.15 138.05 374.55 119.3 390.5 93.6 371.65
M 130.9 216.5
Q 130.85 216.6 130.85 216.7
L 130.5 218.4
Q 129.05 221.85 128.95 228 133.65 261 160.5 269.3 177.9 276.85 201.6 268.95
L 202.25 264.35
Q 205.6 262.9 209.25 264.25 212.2 261.2 214.45 257.9 225.7 236.85 217.9 215.65 204.7 181.35 172.2 183.35 138.55 188.85 130.9 216.5
M 152.7 213.3
Q 153.65 211.55 155.2 211.05 156.8 210.6 158.7 211.05 160.6 211.4 161.8 212.25 163.05 213.15 162.15 214.85 161.3 216.65 159.85 217.35 158.35 218.1 156.35 217.8 154.3 217.45 153.1 216.3 151.85 215.05 152.7 213.3
M 154.35 232.35
Q 153.3 232.8 152.25 232.45 151.2 232.05 150.7 231.15 150.2 230.1 150.55 229.05 150.9 227.9 151.9 227.45 152.95 226.95 154 227.35 155.05 227.65 155.6 228.65 156 229.6 155.7 230.75 155.35 231.8 154.35 232.35
M 186.75 202.55
Q 188.6 203.2 188.1 204.75 187.5 206.25 187.85 208.3 188.2 210.25 186.9 211.2 185.6 212.15 184.05 211.1 182.5 210.05 182 207.8 181.55 205.45 181.4 204.6 181.35 203.7 183.15 202.8 184.9 201.9 186.75 202.55
M 179.1 229
Q 177.85 226.5 178.15 224.1 178.45 221.75 180.15 220.95 181.85 220.05 184 221.25 186.05 222.4 187.05 223.8 187.95 225.2 187.4 226.7 186.8 228.2 185.65 231.05 184.45 233.8 182.35 232.65 180.25 231.5 179.1 229
M 164.35 238.5
Q 164.8 238.3 166.4 238.8 167.95 239.35 167.45 240.9 167 242.45 167.75 244.05 168.5 245.75 166.95 246.4 165.4 247.2 163.75 246.7 162.15 246.15 161.8 244.4 161.5 242.6 162.7 240.7 163.9 238.8 164.35 238.5
M 201.4 237.9
Q 202.2 238.25 202.4 239.3 202.6 240.3 202.75 241.25 202.95 242.25 201.35 243.05 199.9 243.75 198.85 243.45 197.7 243.05 197.5 241.9 197.35 240.7 197.45 239.85 197.6 239.1 199.1 238.35 200.6 237.6 201.4 237.9
M 187.35 255.95
Q 186.4 257.95 184.45 259 182.5 260 181.6 259.5 180.8 258.9 178.35 257.55 175.85 256.1 176.95 254.15 177.9 252.25 179.6 251.35 181.35 250.55 182 251.95 182.65 253.2 185.5 253.65 188.45 254 187.35 255.95
M 209.15 239.45
Q 210.75 222.9 201.55 202.2 216.6 223.75 209.15 239.45
M 134.75 224.2
Q 145.35 253.35 165.65 259.3 139.9 257.3 134.75 224.2 Z"/>

<path fill="#9C1011" stroke="none" d="
M 272.7 358.2
Q 256.1 369.65 228.15 360.05 255.7 376.1 272.7 358.2
M 252 297.4
Q 272.75 303.05 284.15 314.15 276.95 299.2 252 297.4
M 138.05 374.55
Q 120.4 384.15 93.6 371.65 119.3 390.5 138.05 374.55
M 154 331.85
Q 148.4 316.2 123.8 311.85 143.85 319.65 154 331.85
M 165.65 259.3
Q 145.35 253.35 134.75 224.2 139.9 257.3 165.65 259.3
M 201.55 202.2
Q 210.75 222.9 209.15 239.45 216.6 223.75 201.55 202.2 Z"/>

<path fill="#DA7946" stroke="none" d="
M 277.1 341.75
Q 275.7 341.45 275.25 343.15 274.75 344.85 275.55 346.8 276.45 348.75 278.95 347.75 281.5 346.85 282.4 346.55 283.35 346.25 283.7 344.15 284.1 342.05 283.2 340.1 282.4 338.2 280.4 340.15 278.4 342.05 277.1 341.75
M 260.15 345.85
Q 259.3 344.6 258 345.4 256.6 346.25 256.5 346.7 256.4 347.2 257.15 349.25 257.9 351.3 259.35 352.1 260.85 352.9 262.25 352.05 263.6 351.2 263.95 349.55 264.35 347.95 262.65 347.55 261 347.15 260.15 345.85
M 254.15 327.95
Q 255.75 329.55 258.3 330.15 260.9 330.75 263 329.9 265.1 329.05 263.75 326.5 262.35 323.95 261.55 322.55 260.85 321.3 259.25 321.15 257.65 321 255.5 321.9 253.45 322.7 253.05 324.5 252.65 326.3 254.15 327.95
M 279.9 319.05
Q 279 318.55 278.3 318.95 277.6 319.3 277.25 320.95 276.9 322.45 277.4 323.1 277.9 323.65 278.95 324.25 279.9 324.8 280.85 324.15 281.75 323.6 282.1 322.05 282.45 320.4 281.7 320 280.8 319.5 279.9 319.05
M 242.05 347.7
Q 241.15 348.25 240.85 349.25 240.65 350.3 241.2 351.2 241.85 352.15 242.85 352.35 243.85 352.65 244.75 352.05 245.65 351.45 245.9 350.45 246.15 349.4 245.55 348.45 245 347.6 243.95 347.35 242.9 347.1 242.05 347.7
M 235.65 332.85
Q 234.2 333.25 232.8 334.4 231.3 335.55 230.75 337 230.1 338.45 230.85 340.2 231.6 341.9 233.3 341.7 234.95 341.5 236.35 340.25 237.8 338.9 238.15 337.4 238.55 335.9 237.75 334.15 236.95 332.45 235.65 332.85
M 241.35 311.45
Q 240.95 313.3 241.65 313.75 242.4 314.2 244.4 315.25 246.35 316.25 248.1 315.7 249.75 315.2 249.85 313.7 249.95 312.15 248.2 311.15 246.5 310.25 245.75 308.95 244.9 307.6 243.35 308.6 241.8 309.6 241.35 311.45
M 126.85 360.9
Q 126.15 359.55 124.7 360.15 123.3 360.9 123.15 361.35 122.95 361.8 123.55 363.95 124 366.05 125.4 367.05 126.85 367.95 128.25 367.25 129.8 366.5 130.3 364.95 130.8 363.4 129.25 362.8 127.6 362.25 126.85 360.9
M 144.1 358.55
Q 142.7 358.05 142.1 359.75 141.5 361.4 142.15 363.4 142.8 365.4 145.4 364.7 147.95 364 148.95 363.85 149.9 363.65 150.5 361.6 151.05 359.55 150.4 357.6 149.8 355.55 147.65 357.25 145.45 358.95 144.1 358.55
M 110.55 360.65
Q 109.6 360.3 108.65 360.8 107.65 361.3 107.35 362.25 107.05 363.3 107.5 364.25 107.95 365.2 108.95 365.55 109.95 365.85 110.95 365.4 111.9 364.9 112.25 363.85 112.55 362.95 112.1 361.95 111.6 360.95 110.55 360.65
M 105.85 350.2
Q 106.35 348.75 105.75 346.9 105.2 345.1 103.8 345.4 102.35 345.6 100.8 346.65 99.25 347.65 98.55 349.05 97.8 350.45 98.35 352.2 98.85 354 100.55 353.95 102.25 353.95 103.8 352.75 105.4 351.6 105.85 350.2
M 114 322.05
Q 112.3 322.9 111.75 324.65 111.15 326.4 111.85 327 112.5 327.55 114.4 328.75 116.25 330 118 329.6 119.7 329.3 119.95 327.8 120.2 326.3 118.6 325.15 117.05 324.05 116.35 322.65 115.65 321.2 114 322.05
M 147.75 336.05
Q 147 336.3 146.45 337.85 145.95 339.4 146.4 340 146.85 340.65 147.75 341.35 148.7 342 149.7 341.5 150.65 340.95 151.15 339.45 151.7 337.9 150.9 337.35 150.15 336.8 149.3 336.25 148.5 335.7 147.75 336.05
M 130.7 337.9
Q 130.1 336.5 128.55 336.25 126.95 335.95 124.75 336.5 122.55 337.15 122 338.85 121.4 340.6 122.8 342.4 124.15 344.2 126.7 345.05 129.15 345.9 131.35 345.3 133.55 344.65 132.4 342.05 131.35 339.3 130.7 337.9
M 184.45 259
Q 186.4 257.95 187.35 255.95 188.45 254 185.5 253.65 182.65 253.2 182 251.95 181.35 250.55 179.6 251.35 177.9 252.25 176.95 254.15 175.85 256.1 178.35 257.55 180.8 258.9 181.6 259.5 182.5 260 184.45 259
M 202.4 239.3
Q 202.2 238.25 201.4 237.9 200.6 237.6 199.1 238.35 197.6 239.1 197.45 239.85 197.35 240.7 197.5 241.9 197.7 243.05 198.85 243.45 199.9 243.75 201.35 243.05 202.95 242.25 202.75 241.25 202.6 240.3 202.4 239.3
M 166.4 238.8
Q 164.8 238.3 164.35 238.5 163.9 238.8 162.7 240.7 161.5 242.6 161.8 244.4 162.15 246.15 163.75 246.7 165.4 247.2 166.95 246.4 168.5 245.75 167.75 244.05 167 242.45 167.45 240.9 167.95 239.35 166.4 238.8
M 178.15 224.1
Q 177.85 226.5 179.1 229 180.25 231.5 182.35 232.65 184.45 233.8 185.65 231.05 186.8 228.2 187.4 226.7 187.95 225.2 187.05 223.8 186.05 222.4 184 221.25 181.85 220.05 180.15 220.95 178.45 221.75 178.15 224.1
M 188.1 204.75
Q 188.6 203.2 186.75 202.55 184.9 201.9 183.15 202.8 181.35 203.7 181.4 204.6 181.55 205.45 182 207.8 182.5 210.05 184.05 211.1 185.6 212.15 186.9 211.2 188.2 210.25 187.85 208.3 187.5 206.25 188.1 204.75
M 152.25 232.45
Q 153.3 232.8 154.35 232.35 155.35 231.8 155.7 230.75 156 229.6 155.6 228.65 155.05 227.65 154 227.35 152.95 226.95 151.9 227.45 150.9 227.9 150.55 229.05 150.2 230.1 150.7 231.15 151.2 232.05 152.25 232.45
M 155.2 211.05
Q 153.65 211.55 152.7 213.3 151.85 215.05 153.1 216.3 154.3 217.45 156.35 217.8 158.35 218.1 159.85 217.35 161.3 216.65 162.15 214.85 163.05 213.15 161.8 212.25 160.6 211.4 158.7 211.05 156.8 210.6 155.2 211.05 Z"/>

<path fill="#FFFCCE" stroke="none" d="
M 227.2 213.2
Q 222.6 202.35 218.6 199.4 234.2 234.5 222.4 258.75 228.5 252.8 230.35 241.05 231.4 228.3 227.2 213.2
M 275.5 285
Q 264.65 281.95 260.15 283.15 295.4 292.65 306.35 315.95 305.55 307.85 297.95 299.5 289.2 291.05 275.5 285
M 148.45 302
Q 138.05 297.8 133.35 298.55 167.5 311.65 175.95 335.95 175.9 327.75 169.35 318.65 161.4 309.4 148.45 302 Z"/>

<path fill="#F1B226" stroke="none" d="
M 275.5 285
Q 273.65 284.25 271.85 283.5 237.55 271.15 219.25 291.9 219.25 291.95 219.25 292.05
L 219.2 292
Q 218.05 293.25 217 294.6 194.3 326.1 202.65 350 207.8 360.7 217.95 367.95 224.35 372.45 232.6 375.6 234.6 376.3 236.6 377 238.4 377.55 240.25 378.05 242.7 378.45 244.8 378.5 248.15 378.6 250.75 377.85 251.7 377.55 252.45 377.15 243.4 377.45 235.9 374.1 228.2 370.6 221.6 364.8 205.35 351 211.05 323 213.8 306 226.2 295.8 253.4 279.35 279 294.8 296 304.1 301 321.35 302.1 325.2 302.6 329.55 304.55 326.5 305.6 323.4 304.75 322.95 304.1 322.65
L 305.7 318.65
Q 306.05 318.55 306.45 318.6 306.5 317.3 306.35 315.95 295.4 292.65 260.15 283.15 264.65 281.95 275.5 285
M 73.6 329.15
L 72.75 329.85
Q 65.95 345.15 69.15 359 73.2 370.2 82.6 378.45 88.45 383.65 96.4 387.6 98.25 388.5 100.25 389.35 101.9 390.15 103.7 390.85 111.35 392.85 116 391.2 106.95 390.55 99.85 386.4 92.55 382.2 86.6 375.65 71.8 360.35 80.35 333 84.9 316.4 98.25 307.55 127.1 294.05 150.9 312.05 166.9 323.05 170 340.7 170.7 344.65 170.75 349.05 175.8 342.9 175.95 335.95 167.5 311.65 133.35 298.55 138.05 297.8 148.45 302 146.75 301.05 144.95 300.05 110.1 283.2 89.3 305.45 78.55 317.5 73.25 328.75 73.45 329 73.6 329.15
M 210.6 182.95
Q 210.55 182.9 210.5 182.95 209.3 184 208.6 185.05
L 204.3 181.65
Q 204.55 180.05 205.3 178.55 194.8 171.4 180.75 171.9 140 174.15 126 196.75 120.65 208 121.5 221.15 122.05 229.25 125.05 238.15 125.7 240.25 126.55 242.35 127.15 244.1 128 245.95 132.15 253.15 136.85 255.35 130.55 248.2 128.35 239.85 126.1 231.15 126.55 221.95 127 199.6 153.65 185.65 169.3 176.7 185.8 180.1 217.3 191.4 221.55 222.5 225.25 242.5 214.45 257.9 212.2 261.2 209.25 264.25 209.6 264.45 209.95 264.55 217.6 263.5 222.4 258.75 234.2 234.5 218.6 199.4 222.6 202.35 227.2 213.2 226.65 211.25 226 209.2 220.15 192.15 210.6 182.95 Z"/>

<path fill="#FFD765" stroke="none" d="
M 236.5 181.3
L 232.4 188.35 227.95 184.05
Q 221.05 177.95 210.6 182.95 220.15 192.15 226 209.2 226.65 211.25 227.2 213.2 231.4 228.3 230.35 241.05 228.5 252.8 222.4 258.75 217.6 263.5 209.95 264.55 211.35 265.2 212.9 266.35 216.7 269.05 218.9 276.05 220.5 280.95 219.45 290.3 219.4 291.1 219.25 291.9 237.55 271.15 271.85 283.5 273.65 284.25 275.5 285 289.2 291.05 297.95 299.5 305.55 307.85 306.35 315.95 306.5 317.3 306.45 318.6 310.4 318.45 313.55 322.4 315.95 325.4 316.25 331.15 316.45 335.25 313.7 342.3 313.4 342.95 313.15 343.6
L 306.4 341.8 308.85 337.35
Q 312.1 330.85 306.05 323.75 305.8 323.5 305.6 323.4 304.55 326.5 302.6 329.55 303.05 330.8 303.2 332.2 304.75 344.25 285.45 364.35 280.9 367.8 275.25 371.15 273.95 371.95 272.55 372.65 264.15 375.95 256.6 376.85 256.3 376.85 256.1 376.95 254.2 377.1 252.45 377.15 251.7 377.55 250.75 377.85 295.1 372.85 298 372.15 299.5 371.8 300.9 371.4 299.8 369.95 299.95 368.9 299.35 361.2 302.6 360.1 305.7 359.2 307.15 357.7 309.05 355.6 311.3 355.95 314.1 356.45 315.45 357.6 316.75 358.6 317.6 359.65 323.6 349.3 318.25 331.55 309.25 306.15 292.15 279.25 276.8 257.9 263.3 232.1 248.45 201.1 236.5 181.3
M 254.95 250.8
Q 257.55 252.1 258.6 253.5 262.95 259.65 259.8 262.55 251.9 271.25 246.15 270.45 239.6 263.1 240.65 260.35 242.15 252.8 245.45 252.65 248.75 252.55 250.45 251.45 252.9 249.95 254.95 250.8
M 205.3 178.55
Q 206.95 175.4 211.4 173.5 215.65 171.6 222.75 173.15 227.8 174.15 235.4 179.85 235.5267578125 179.85 235.55 179.9 226.8427734375 165.791796875 219.65 157.6 199.85 135.1 187.85 134.9 169.5 134.6 148 159.55 115.7 194.7 83.4 260.35 63.15 303 59.75 334.05 57.5 364.9 68.45 378.1 69.65 377.55 70.85 377.8 73.7 378.2 75.05 379.3 78.9 382.6 79.2 385.2 88.45 389.15 100.25 389.35 98.25 388.5 96.4 387.6 88.45 383.65 82.6 378.45 73.2 370.2 69.15 359 65.95 345.15 72.75 329.85
L 70.2 331.8
Q 66.05 330.25 65.3 324.65 64.75 320.9 67.4 315.75 69.25 312.15 75.15 307.35 75.65 306.95 76.25 306.55
L 81.1 311.5 76.85 314.05
Q 70.75 318.1 72.4 327.35 72.85 328.1 73.25 328.75 78.55 317.5 89.3 305.45 110.1 283.2 144.95 300.05 146.75 301.05 148.45 302 161.4 309.4 169.35 318.65 175.9 327.75 175.95 335.95 175.8 342.9 170.75 349.05 171.1 350.35 171.1 351.8 171.4 363.95 150.1 381.9 145.2 384.85 139.25 387.6 212.25 382.15 214.45 381.85 231.3 379.95 244.8 378.5 242.7 378.45 240.25 378.05 238.4 377.55 236.6 377 234.6 376.3 232.6 375.6 224.35 372.45 217.95 367.95 207.8 360.7 202.65 350 194.3 326.1 217 294.6 218.05 293.25 219.2 292
L 210.5 292.05 212 285.95
Q 213.85 276.95 204.25 270.3 203.65 270.1 203.15 269.95 192.9 275.8 169.1 273.7 163.25 272.35 156.85 269.95 155.35 269.4 153.85 268.75 145.55 264 139.8 258.5 139.6 258.25 139.45 258.15 138.05 256.75 136.85 255.35 132.15 253.15 128 245.95 127.15 244.1 126.55 242.35 125.7 240.25 125.05 238.15 122.05 229.25 121.5 221.15 120.65 208 126 196.75 140 174.15 180.75 171.9 194.8 171.4 205.3 178.55
M 188.95 145.3
Q 190.9 143.15 193.1 143.5 195.95 144 197.3 145.1 203.15 150 200.9 153.55 195.45 164 189.65 164.7 181.5 159.25 181.75 156.4 181.2 148.7 184.45 147.7 187.5 146.7 188.95 145.3
M 114.65 256.1
Q 114.65 256.05 114.6 255.9 114.65 255.2 114.8 254.4
L 123.5 254.45 122 260.45
Q 120.15 269.45 129.7 276.1 129.75 276.1 129.8 276.15 131.25 276.6 132.55 276.8
L 131.75 282.05
Q 130.15 282.8 128.6 282.85 125 283 121.15 280.1 117.35 277.4 115.15 270.4 113.45 265.5 114.65 256.1
M 93.7 269.35
Q 96.55 269.9 97.9 271 103.7 275.8 101.45 279.4 96 289.8 90.25 290.55 82.05 285.1 82.35 282.25 81.8 274.55 85.05 273.5 88.1 272.6 89.5 271.15 91.5 269 93.7 269.35
M 159.25 299.3
Q 158.75 291.55 161.9 290.55 165.05 289.55 166.45 288.1 168.45 286 170.6 286.35 173.45 286.9 174.85 288 180.65 292.85 178.4 296.45 172.95 306.85 167.2 307.6 159 302.1 159.25 299.3
M 179.65 345.55
Q 179.05 341.8 181.65 336.6 183.55 333 189.45 328.25 190 327.85 190.55 327.4
L 195.45 332.35 191.2 334.95
Q 185.1 339 186.75 348.15 187.3 349.25 187.9 350.1
L 184.5 352.65
Q 180.4 351 179.65 345.55
M 196.85 361.15
Q 199.65 361.75 201.05 362.85 206.85 367.65 204.6 371.25 199.15 381.65 193.35 382.4 185.2 376.95 185.45 374.1 184.9 366.4 188.15 365.35 191.25 364.35 192.7 362.95 194.65 360.9 196.85 361.15 Z"/>

<path fill="#D58449" stroke="none" d="
M 190.05 72.55
Q 188.1 69.3 185.95 66.75 181.75 61.95 176.7 59.5 171.6 57.6 165.7 58.85 164.5 59.05 163.2 59.4 160.8 60.1 158.2 61.3 152.65 65.9 148.05 71.75 141.75 79.15 131.9 88.5 127.25 93 121.95 99 115.1 106.95 104 120.1 96.3 129 86.75 140.3 82.9 144.85 78.55 150.8 75.95 154.45 73.25 158.4 72.7 159.15 72.2 159.9 62.15 174.7 49.9 195.75 46.65 201.25 43.3 207.15 34.35 223.9 24.4 251.2 23.6 253.35 22.8 255.5 17.65 269.9 10.3 301.85 9.9 303.55 9.45 306.15 7.5 316.6 4.2 341.45 3.75 344.85 1.75 379.9 0.6 386.65 1.2 391.75 3 408.35 22.8 407.6 24.6 407.55 46.9 405.05 50.2 400.05 52.3 394.75 28.1 392.9 20.55 375.5 11.15 352.15 29.5 313.2 29.6 312.9 29.6 312.65 29.95 309.75 30.35 306.75 36.2 273.3 49.75 252.45 49.8 252.35 49.85 252.3 61.4 214.35 86.4 176.75 115.65 119.45 166.55 99.8 184.3 91.6 198.55 96 199.45 93.35 200.25 90.45 195.3 80.4 190.05 72.55
M 148.15 90.4
Q 160.2 76.2 172.4 67.8 163.55 80.55 148.15 90.4
M 85.5 152.15
Q 55.25 196.7 35.1 248.8 50.95 194.4 85.5 152.15
M 14.75 384.55
Q 19.2 392.7 19.55 401.75 14.1 392.5 14.75 384.55 Z"/>
</g>

<path id="Layer4_0_1_STROKES" stroke="#000000" stroke-width="0.1" stroke-linejoin="round" stroke-linecap="round" fill="none" d="
M 172.4 67.8
Q 160.2 76.2 148.15 90.4 163.55 80.55 172.4 67.8 Z
M 85.5 152.15
Q 50.95 194.4 35.1 248.8 55.25 196.7 85.5 152.15 Z
M 14.75 384.55
Q 19.2 392.7 19.55 401.75 14.1 392.5 14.75 384.55 Z"/>
</defs>

<g transform="matrix( 1, 0, 0, 1, 0,0) ">
<use xlink:href="#Layer4_0_FILL"/>

<use xlink:href="#Layer4_0_1_STROKES"/>
</g>
</svg>
