
<svg xmlns="http://www.w3.org/2000/svg" version="1.1" xmlns:xlink="http://www.w3.org/1999/xlink" preserveAspectRatio="none" x="0px" y="0px" width="738px" height="746px" viewBox="0 0 738 746">
<defs>
<g id="Layer2_0_FILL">
<path fill="#060200" stroke="none" d="
M 493.75 687.05
Q 441.4 712.7 384.65 707.9 438.05 719.15 493.75 687.05
M 611.6 608.6
Q 613.6 606.35 615.5 604.1 615.65 603.9 615.85 603.65 638.6 576.2 647.15 548.45 632.4 581.05 615.75 599.55 591.75 629.75 563.15 644.65 564.4 644.2 565.6 643.65 565.65 643.6 565.75 643.6 588.5 633.5 611.6 608.6
M 613.9 575.4
Q 615.9 570.2 617.15 563.95 617.65 561.35 618 558.6 624.25 534.85 641.2 522.9 645.85 519.6 651.35 517.2 631.75 524.8 619.4 544.65 615.4 551.15 613 561.5 611.45 580.1 590.6 588.05 574.35 594.85 569.1 612.5 562.2 631.65 539.75 637.9 522 641.6 508.15 645.65 488.95 652.15 472.75 666.05 450.2 682.5 426.55 682.95 414.65 683.2 401.3 683 370.35 675.55 351.3 697.3 353.55 695.3 355.75 693.6 369.75 683 384.15 684.1 395.5 686.55 403 686.35 412.75 686.15 419 686.55 451.15 688.95 481.25 667.3 506.75 649.3 541.45 643.6 565.95 637.3 574.65 615 582.15 596.9 597.3 591.15 609.9 586 613.9 575.4
M 460.65 426.7
Q 460.45 426.65 460.2 426.5 453.4 423.15 444.5 421.3 442.95 421.15 441.45 421.1 434.9 420.8 429.15 421.2 402.05 427.55 396.75 438.5 418.35 420.8 438.25 422.8 465.1 422.45 479.05 450.9 480.7 456.55 480.4 460.15
L 480.65 461.75
Q 480.65 461.85 480.6 461.95 481.75 489.25 452.95 504.15 424 515.4 402.05 488.15 388.7 471.2 392.7 448.85 387.5 465.95 396.65 483.05 409.65 510 441.5 511.05 457.45 509.25 469 496.5 489.1 476.1 482.95 455.7 480.6 447.2 476.05 440.1 471.6 433.2 463.85 428.5 462.3 427.6 460.65 426.7
M 494.3 593.65
Q 494.1 591.8 493.65 589.9 493.6 589.7 493.55 589.4 491.8 581.65 487.45 573.1 486.5 571.8 485.55 570.55 481.45 565.05 477.35 560.65 458.5 545.95 446.75 545.25 447.35 545.9 447.95 546.4
L 447.5 546.95
Q 471.65 553.25 482.1 569.05 500.1 590.65 486.1 620.9 482.6 626 479.45 628.1
L 478.3 629.35
Q 478.25 629.45 478.1 629.45 456.65 648.45 425.4 634.75 397.1 618.7 404.75 582.7 409.75 560.7 430.65 549.2 413.25 556.2 405.4 575 392 603.4 412.25 630.05 424.2 641.9 442.3 642.9 472.2 645.7 484.75 627.25 490.15 619.75 492.95 611.3 495.7 603.1 494.3 593.65
M 585.9 491.1
Q 584.55 490.1 582.95 489.05 582.75 488.95 582.5 488.8 576.1 484.75 567.45 481.95 565.95 481.7 564.4 481.45 557.95 480.5 552.2 480.3 524.55 483.75 518.2 494.1 541.45 478.75 561.1 482.8 587.75 485.25 598.75 515.05 599.8 520.8 599.1 524.4
L 599.15 525.95
Q 599.15 526.1 599.15 526.15 597.45 553.45 567.2 565.25 537.3 573.5 518.25 544.05 506.75 525.85 513.1 504 506.1 520.5 513.45 538.45 523.6 566.55 555.15 570.9 571.2 570.8 584.05 559.35 606.1 541.1 602.05 520.2 600.65 511.45 596.85 504 593.15 496.6 585.9 491.1
M 651.35 517.2
Q 671.45 527.3 672.95 528.2 689.95 538.4 682.45 553.25 680.15 557.85 675.45 562.9 654.7 591.2 652.45 593.8 636.15 612.8 628.85 620.55 627 622.45 625.75 623.7 602.25 646.4 590.05 655.7 588.15 657.1 586.35 658.45 563.1 675.85 546.45 685.05 540.45 688.2 534.75 691 512.95 702 496.45 708.9 495.65 709.25 494.8 709.6 490.4 711.4 486.2 713.05 479.3 715.65 473.6 717.35 459.4 721.65 448.1 725 431.65 729.9 421.55 732.85 413.85 735 407.55 736.2 394.15 738.7 384.85 741.45 377.8 743.85 370.65 744.65 367.8 744.3 365.35 743.55 364.15 743.15 362.95 742.7 357.35 740.45 354.15 736.1 351.2 731.3 350.35 724.95 349.9 721.65 350.05 717.9 349.95 708.45 351.3 697.3 351.35 696.65 351.5 695.9 352.3 689.7 353.55 682.95 356.15 669.05 358.05 656 360.25 640.75 361.6 626.65 361.9 623.8 362.2 620.95 363 611.5 363.35 602.55 364.3 581.45 363 563.25 362.75 545.05 364.4 525.05 366.1 504.25 369.85 481.5 371.1 474.25 372.5 466.8 380.55 426.35 374.35 380.6 375.45 425.2 368.45 461.5 364.25 483.3 359.4 518.7 355.2 548.15 357.15 594.8 360 612.75 354.05 651 351.8 665.7 348.9 692.65 346.8 710 348.8 724.85 350.6 737.4 360.95 744.3 362.4 745.2 364.25 745.9 378.5 748.3 409.5 739.85
L 446.25 731.1
Q 486.8 722.65 537.1 696.7 561.05 684.35 589.9 662.85 604.75 650.55 631.35 623.65 654.75 600.1 683.25 553.65 690.25 542.35 681.55 531.1 677.35 525.45 665.85 519.7
L 593.3 481.7
Q 558.85 465.3 537.9 451.6 533.85 447.45 459 411.9 451.15 408.25 409 391.2 393 384.75 374.35 380.6 392.65 387.45 406.75 393 444 407.5 453 412.95 455.3 414.1 457.4 415.2 510.45 441.95 524.25 450.4 563.6 474.6 590.95 486.9 630.9 506.85 651.35 517.2
M 576.05 654.6
Q 530.75 687.35 481.1 708.15 533.1 691.6 576.05 654.6
M 394.9 725.75
Q 376.6 725.65 362.25 731.5 377.05 731.1 394.9 725.75
M 667.15 551.95
Q 672 545.6 672.45 534.85 667.8 542.65 667.15 551.95 Z"/>

<path fill="#EDA969" stroke="none" d="
M 617.15 563.95
Q 615.9 570.2 613.9 575.4 609.9 586 597.3 591.15 582.15 596.9 574.65 615 565.95 637.3 541.45 643.6 506.75 649.3 481.25 667.3 451.15 688.95 419 686.55 412.75 686.15 403 686.35 395.5 686.55 384.15 684.1 369.75 683 355.75 693.6 365.25 705.05 384.65 707.9 441.4 712.7 493.75 687.05 535.2 669.15 565.6 643.65 564.4 644.2 563.15 644.65 591.75 629.75 615.75 599.55 632.4 581.05 647.15 548.45 638.6 576.2 615.85 603.65 652.45 581 657.35 556.3 660.5 537.65 641.2 522.9 624.25 534.85 618 558.6 617.65 561.35 617.15 563.95 Z"/>

<path fill="#EDB53A" stroke="none" d="
M 406.75 393
Q 392.65 387.45 374.35 380.6 380.55 426.35 372.5 466.8 371.1 474.25 369.85 481.5 366.1 504.25 364.4 525.05 362.75 545.05 363 563.25 364.3 581.45 363.35 602.55 363 611.5 362.2 620.95 361.9 623.8 361.6 626.65 360.25 640.75 358.05 656 356.15 669.05 353.55 682.95 352.3 689.7 351.5 695.9 351.35 696.65 351.3 697.3 370.35 675.55 401.3 683 414.65 683.2 426.55 682.95 450.2 682.5 472.75 666.05 488.95 652.15 508.15 645.65 522 641.6 539.75 637.9 562.2 631.65 569.1 612.5 574.35 594.85 590.6 588.05 611.45 580.1 613 561.5 615.4 551.15 619.4 544.65 631.75 524.8 651.35 517.2 630.9 506.85 590.95 486.9 563.6 474.6 524.25 450.4 510.45 441.95 457.4 415.2 455.3 414.1 453 412.95 444 407.5 406.75 393
M 582.95 489.05
Q 584.55 490.1 585.9 491.1 590.7 492.3 596 498.15 597.1 499.7 598.1 501.25 607.9 507.9 613.5 516.2 614.05 515 615.35 514.4 625.6 508.65 630.85 511.15 634.75 520.25 632.95 522.4 629.2 529.2 626 528.25 622.8 527.35 620.85 527.85 619.6 528.15 618.6 528.05 620.6 545.05 601.9 569.7 582.15 593.85 541.85 618.6 479.05 656 432.75 667.85 401.1 677.1 385.85 666.8 375.9 660.15 371.65 630.4 370 619.65 370.4 603.05 370.15 602.35 369.9 601.65
L 370.45 601.35
Q 371.2 578.25 375.65 544.2 378.35 515.2 377.15 488.95 377.5 457 383.85 430.85 389 413.05 399.65 407.65 398.9 402.95 401.95 401.55 412.2 395.75 417.45 398.25 419.85 403.95 420.05 406.9 421.45 407.35 422.9 407.85 425.7 408.85 465.65 428.85 468.25 429.65 471 431.55 483.05 437.65 498.25 445.25 500.25 446.25 564.4 481.45 565.95 481.7 567.45 481.95 576.1 484.75 582.5 488.8 582.75 488.95 582.95 489.05 Z"/>

<path fill="#533F00" stroke="none" d="
M 397.6 618.6
L 395.85 613.5
Q 394.7 613.9 393.15 614.2 393.1 614.2 393.05 614.15 381.55 612.6 379.1 603.75
L 377.7 597.7 370.45 601.35 369.9 601.65
Q 370.15 602.35 370.4 603.05 370.45 603.1 370.5 603.2 373.8 612.1 377.45 615.7 382.6 620.9 387.2 621.6 392 622.45 395.1 620.7 396.55 619.9 397.6 618.6
M 393.4 615.55
Q 393.6 615.5 393.9 615.45 395.25 615.15 395.25 614.5
L 396.65 618.6
Q 395.65 619.3 394.7 619.7 391.3 621.4 387.65 620.65 383.25 619.75 378.5 615.35 378 614.85 377.6 614.25 373.25 608.75 371.45 602.65
L 376.45 600.05
Q 377.85 607.7 381.8 611 388.05 616.35 393.4 615.55
M 448 527
L 452.6 522.75 445.3 518 445.25 517.95
Q 445.2 518.05 445.15 518.05 444.65 518.7 444.15 519.25 438.15 526.6 436.8 531.55 434.9 538.6 436.6 543 437.25 544.75 438.05 546.05 438.25 546.35 438.5 546.65 440.8 549.85 444.4 550.45
L 447.5 546.95 447.95 546.4
Q 447.35 545.9 446.75 545.25 446.35 544.8 446 544.35 441.55 533.5 448 527
M 437.65 532.3
Q 437.9 531.6 438.15 530.95 440.75 524.45 445.15 519.85
L 449.85 522.85
Q 444 527.85 443.1 532.95 441.6 541 444.9 545.2 445.05 545.4 445.25 545.65 446.2 546.7 446.75 546.35
L 443.95 549.6
Q 441.25 548.35 439.55 546.3 438.3 544.8 437.65 542.85 436.2 538.6 437.65 532.3
M 394.9 431.05
L 399.35 428.75 394.6 423.55
Q 394.1 423.9 393.55 424.3 387.35 428.75 385.3 432.25 382.4 437.3 382.8 441.05 383.25 446.15 386.7 448.15 386.95 448.35 387.25 448.45
L 390.8 446.05
Q 390.4 445.4 390 444.6 389.85 444.35 389.75 444.05 388.55 434.8 394.9 431.05
M 386.5 432.05
Q 389.8 427.6 394.2 424.95
L 397.15 428.25
Q 391.6 430.9 389.85 434.65 386.85 440.9 388.9 444.9 389.05 445.15 389.15 445.35 389.55 445.9 389.95 445.75
L 387.05 447.7
Q 383.85 445 383.65 441.15 383.4 437.55 385.8 433 386.15 432.55 386.5 432.05
M 587.65 566.8
Q 587.65 567.55 587.55 568.45 583.95 577.1 576.65 577.15
L 571.65 576.95 573.1 583.8
Q 573.8 583.75 574.4 583.7 581.95 582.9 585.5 580.9 590.55 578 592.1 574.55 594.45 569.5 591.9 565.9
L 588.65 566.15 587.6 566.25
Q 587.65 566.5 587.65 566.8
M 588.3 566.9
L 591.75 566.7
Q 593.1 570.55 591.4 574.05 589.85 577.25 585.45 580 584.95 580.3 584.4 580.5 579.3 582.7 574.2 582.85
L 573.25 578.4
Q 579.4 578.9 582.75 576.55 588.4 572.65 588.7 568.15 588.75 567.05 588.3 566.9
M 509.65 578.05
Q 510.6 578.85 511.55 580.1
L 511.6 580.15
Q 516.05 590.9 509.55 597.45
L 505 601.7 512.35 606.45
Q 512.85 605.85 513.3 605.3 513.3 605.2 513.4 605.15 519.45 597.85 520.75 592.85 522.65 585.8 520.95 581.5 519.3 576.9 516.25 575.1 514.85 574.25 513.15 574
L 509.65 578.05
M 512.3 578.8
Q 511.4 577.75 510.85 578.1
L 513.65 574.85
Q 514.7 575.3 515.6 575.9 518.75 578.05 519.9 581.6 521.35 585.85 519.95 592.15 519.65 592.8 519.45 593.5 516.85 600 512.4 604.6
L 507.7 601.55
Q 513.6 596.55 514.5 591.5 516 583.4 512.65 579.15 512.45 578.95 512.3 578.8
M 503.15 486.4
Q 503.25 487.4 503.1 488.6 499.5 497.25 492.2 497.3
L 487.15 497.15 488.65 503.95
Q 489.3 503.9 490 503.85 497.5 503.1 501.05 501.1 506.1 498.15 507.65 494.7 510 489.7 507.45 486.1
L 503.15 486.4
M 504.25 488.3
Q 504.3 487.2 503.8 487.05
L 507.3 486.9
Q 508.7 490.75 506.95 494.2 505.35 497.4 501 500.15 500.5 500.45 499.95 500.65 494.85 502.85 489.7 503
L 488.75 498.6
Q 494.95 499.1 498.3 496.75 504 492.8 504.25 488.3 Z"/>

<path fill="#406E3E" stroke="none" d="
M 393.9 615.45
Q 393.6 615.5 393.4 615.55 388.05 616.35 381.8 611 377.85 607.7 376.45 600.05
L 371.45 602.65
Q 373.25 608.75 377.6 614.25 378 614.85 378.5 615.35 383.25 619.75 387.65 620.65 391.3 621.4 394.7 619.7 395.65 619.3 396.65 618.6
L 395.25 614.5
Q 395.25 615.15 393.9 615.45
M 438.15 530.95
Q 437.9 531.6 437.65 532.3 436.2 538.6 437.65 542.85 438.3 544.8 439.55 546.3 441.25 548.35 443.95 549.6
L 446.75 546.35
Q 446.2 546.7 445.25 545.65 445.05 545.4 444.9 545.2 441.6 541 443.1 532.95 444 527.85 449.85 522.85
L 445.15 519.85
Q 440.75 524.45 438.15 530.95
M 394.2 424.95
Q 389.8 427.6 386.5 432.05 386.15 432.55 385.8 433 383.4 437.55 383.65 441.15 383.85 445 387.05 447.7
L 389.95 445.75
Q 389.55 445.9 389.15 445.35 389.05 445.15 388.9 444.9 386.85 440.9 389.85 434.65 391.6 430.9 397.15 428.25
L 394.2 424.95
M 591.75 566.7
L 588.3 566.9
Q 588.75 567.05 588.7 568.15 588.4 572.65 582.75 576.55 579.4 578.9 573.25 578.4
L 574.2 582.85
Q 579.3 582.7 584.4 580.5 584.95 580.3 585.45 580 589.85 577.25 591.4 574.05 593.1 570.55 591.75 566.7
M 510.85 578.1
Q 511.4 577.75 512.3 578.8 512.45 578.95 512.65 579.15 516 583.4 514.5 591.5 513.6 596.55 507.7 601.55
L 512.4 604.6
Q 516.85 600 519.45 593.5 519.65 592.8 519.95 592.15 521.35 585.85 519.9 581.6 518.75 578.05 515.6 575.9 514.7 575.3 513.65 574.85
L 510.85 578.1
M 503.8 487.05
Q 504.3 487.2 504.25 488.3 504 492.8 498.3 496.75 494.95 499.1 488.75 498.6
L 489.7 503
Q 494.85 502.85 499.95 500.65 500.5 500.45 501 500.15 505.35 497.4 506.95 494.2 508.7 490.75 507.3 486.9
L 503.8 487.05 Z"/>

<path fill="#FFFCCE" stroke="none" d="
M 424.4 544.1
Q 416.1 545.8 408.15 554.65 400.35 564.75 395.6 579.7 393.55 591.35 395.3 596 401.35 558.05 424.4 544.1
M 385.3 450.45
Q 381.5 457.65 383.3 468.8 386.15 480.65 394.25 493.15 401.65 501.65 406.15 503.1 381.75 475.9 385.3 450.45
M 505.5 504.8
Q 501 511.6 501.65 522.85 503.2 534.95 510.05 548.2 516.5 557.45 520.8 559.35 499.3 529.75 505.5 504.8 Z"/>

<path fill="#C13635" stroke="none" d="
M 444.4 550.45
Q 440.8 549.85 438.5 546.65 434.4 547.65 430.65 549.2 409.75 560.7 404.75 582.7 397.1 618.7 425.4 634.75 456.65 648.45 478.1 629.45 478.25 629.45 478.3 629.35
L 479.45 628.1
Q 482.6 626 486.1 620.9 500.1 590.65 482.1 569.05 471.65 553.25 447.5 546.95
L 444.4 550.45
M 435.85 569.85
Q 436.65 570.75 436.15 571.9 435.65 572.95 435.1 573.55 434.55 574.15 432.9 574 431.2 573.8 430.7 573.05 430.2 572.35 430.6 571.4 431 570.4 431.35 569.5 431.75 568.6 433.5 568.75 435.15 569 435.85 569.85
M 436.35 590.1
Q 437.65 589.2 440.15 587.4 442.65 585.75 443.8 587.85 444.9 589.95 444.55 592.7 444.3 595.5 442.7 597.25 441.15 599.1 439.25 598.85 437.35 598.65 436.2 596.55 435.1 594.45 435.1 592.7 435.1 591.05 436.35 590.1
M 452.6 568.55
Q 450.35 566.65 452.25 565.6 454.2 564.5 456.45 564.65 458.65 564.8 459.05 565.75 459.4 566.7 460.75 569.2 462.05 571.75 460.1 572.8 458.2 573.9 456.3 573.65 454.45 573.4 454.65 571.9 454.8 570.45 452.6 568.55
M 464.65 591.8
Q 462.65 592.8 462.1 592.8 461.6 592.7 460.6 591.4 459.55 590.1 460.8 589.1 462 588.05 462.3 586.25 462.55 584.45 464.25 584.7 465.95 584.9 467.05 586.2 468.1 587.55 467.45 589.2 466.75 590.85 464.65 591.8
M 467.1 603.4
Q 468.2 603.55 468.95 604.45 469.6 605.35 469.5 606.4 469.35 607.5 468.5 608.2 467.6 608.95 466.5 608.85 465.4 608.7 464.7 607.75 464 606.9 464.1 605.8 464.25 604.75 465.1 604 466 603.3 467.1 603.4
M 449.9 616.15
Q 449.3 614.75 451.05 613.8 452.7 612.75 454.35 613 456 613.15 457.5 614.5 459.05 615.85 459.4 617.55 459.8 619.3 458.1 620.25 456.35 621.2 454.75 620.75 453.2 620.3 451.85 618.9 450.5 617.55 449.9 616.15
M 428.3 603.35
Q 429.9 603.25 430.65 604.95 431.35 606.7 430.5 608.9 429.65 611.1 429.25 611.9 428.85 612.65 426.9 612.45 424.9 612.2 423.7 610.75 422.5 609.2 423.8 608.15 425.05 607.15 425.9 605.3 426.7 603.45 428.3 603.35
M 472.35 574.65
Q 492.85 590.4 479.1 620.9 486.1 590.7 472.35 574.65
M 425.05 567.5
Q 414.65 580.55 411.1 602.9 410.2 576.65 425.05 567.5
M 480.65 461.75
L 480.4 460.15
Q 480.7 456.55 479.05 450.9 465.1 422.45 438.25 422.8 418.35 420.8 396.75 438.5 396.15 439.75 395.8 441.1 393.9 445 392.7 448.85 388.7 471.2 402.05 488.15 424 515.4 452.95 504.15 481.75 489.25 480.6 461.95 480.65 461.85 480.65 461.75
M 420.2 444.25
Q 417.5 444.85 417.85 442.8 418.15 440.7 419.6 439.1 421.1 437.55 422 437.85 422.95 438.05 425.6 438.7 428.25 439.2 427.9 441.35 427.55 443.4 426.2 444.55 424.9 445.75 423.9 444.75 422.95 443.8 420.2 444.25
M 439.1 445.35
Q 440.3 444.2 441.95 444.2 443.55 444.2 444.4 445.75 445.2 447.2 444.7 449.35 444.2 451.45 443.8 451.8 443.5 452.15 441.9 452.1 440.35 452.05 440.3 450.55 440.3 449 439.1 447.75 437.95 446.45 439.1 445.35
M 426.4 469.25
Q 426.55 467.75 426.75 464.85 427 461.95 429.25 462.35 431.45 462.8 433.3 464.7 435.15 466.6 435.55 468.8 435.9 471.05 434.6 472.3 433.35 473.6 431.15 473.15 428.9 472.75 427.6 471.75 426.35 470.75 426.4 469.25
M 412.8 458.45
Q 413.3 459.45 413.45 460.25 413.55 461 412.4 462.1 411.2 463.25 410.45 463.2 409.6 463.15 409.15 462.25 408.65 461.35 408.15 460.5 407.75 459.7 408.95 458.55 410.1 457.4 411.15 457.4 412.25 457.4 412.8 458.45
M 431.4 486.1
Q 430.5 484.4 431.4 483.1 432.35 481.9 433.95 482.4 435.75 482.85 436.85 484.8 437.95 486.75 438.25 487.55 438.65 488.35 437.3 489.7 435.95 490.95 434.1 490.95 432.25 490.9 432.25 489.35 432.3 487.8 431.4 486.1
M 456.55 453.75
Q 457.65 453.75 458.4 454.5 459.1 455.25 459.1 456.35 459.05 457.4 458.35 458.2 457.55 458.9 456.5 458.9 455.45 458.85 454.7 458.15 453.95 457.35 453.95 456.3 453.95 455.2 454.75 454.5 455.45 453.75 456.55 453.75
M 457.2 468.25
Q 459.05 467.95 460.6 468.65 462.1 469.4 461.8 471.25 461.45 473.1 460.15 473.95 458.85 474.85 457 475.05 455.2 475.25 453.8 474.85 452.45 474.45 452.7 472.55 453.05 470.7 454.15 469.65 455.25 468.55 457.2 468.25
M 474.85 456.05
Q 456.7 432.8 436.55 433.3 460.55 427.6 474.85 456.05
M 402.9 464.05
Q 406.4 479.55 420.7 495.55 400.8 480.45 402.9 464.05
M 561.1 482.8
Q 541.45 478.75 518.2 494.1 517.45 495.3 517 496.6 514.65 500.3 513.1 504 506.75 525.85 518.25 544.05 537.3 573.5 567.2 565.25 597.45 553.45 599.15 526.15 599.15 526.1 599.15 525.95
L 599.1 524.4
Q 599.8 520.8 598.75 515.05 587.75 485.25 561.1 482.8
M 562.55 504.55
Q 564.15 504.7 564.8 506.25 565.45 507.85 564.7 509.85 564 511.95 563.6 512.25 563.25 512.55 561.65 512.35 560.1 512.15 560.25 510.6 560.35 509.1 559.3 507.7 558.3 506.35 559.6 505.3 560.85 504.35 562.55 504.55
M 548.85 500.15
Q 548.3 502.2 546.85 503.25 545.4 504.35 544.5 503.2 543.6 502.1 540.85 502.35 538.1 502.55 538.7 500.55 539.25 498.55 540.85 497.1 542.45 495.7 543.35 496.05 544.25 496.45 546.8 497.3 549.35 498.1 548.85 500.15
M 528.2 515.35
Q 529.45 514.35 530.55 514.45 531.7 514.55 532.1 515.6 532.45 516.7 532.5 517.45 532.55 518.25 531.25 519.25 530 520.25 529.2 520.1 528.4 519.95 528 519.05 527.6 518.1 527.25 517.25 526.95 516.35 528.2 515.35
M 544.45 527.8
Q 544.7 526.3 545.25 523.4 545.8 520.6 548 521.25 550.15 521.9 551.8 524 553.45 526.05 553.6 528.35 553.75 530.6 552.3 531.75 550.9 532.85 548.7 532.2 546.55 531.5 545.4 530.4 544.25 529.25 544.45 527.8
M 548 542.15
Q 549.05 541 550.65 541.65 552.3 542.3 553.2 544.35 554.1 546.4 554.35 547.2 554.65 548.05 553.15 549.2 551.7 550.4 549.85 550.2 548 550 548.2 548.4 548.4 546.85 547.7 545.1 546.95 543.25 548 542.15
M 521.65 520.15
Q 523.5 535.95 536.05 553.45 517.85 536.3 521.65 520.15
M 577.8 516.5
Q 578.45 517.3 578.3 518.35 578.15 519.45 577.35 520.1 576.55 520.75 575.5 520.6 574.4 520.5 573.75 519.65 573.1 518.85 573.25 517.75 573.35 516.7 574.15 516.05 575 515.4 576.05 515.5 577.1 515.65 577.8 516.5
M 572.05 531.05
Q 573.25 530.1 575.15 530 577.1 529.85 578.55 530.75 579.95 531.65 579.45 533.45 578.95 535.25 577.55 536 576.15 536.75 574.3 536.75 572.45 536.75 571.15 536.2 569.8 535.65 570.3 533.85 570.8 532 572.05 531.05
M 594 519.75
Q 578.4 494.65 558.3 493.1 582.75 489.9 594 519.75 Z"/>

<path fill="#9C1011" stroke="none" d="
M 411.1 602.9
Q 414.65 580.55 425.05 567.5 410.2 576.65 411.1 602.9
M 479.1 620.9
Q 492.85 590.4 472.35 574.65 486.1 590.7 479.1 620.9
M 420.7 495.55
Q 406.4 479.55 402.9 464.05 400.8 480.45 420.7 495.55
M 436.55 433.3
Q 456.7 432.8 474.85 456.05 460.55 427.6 436.55 433.3
M 558.3 493.1
Q 578.4 494.65 594 519.75 582.75 489.9 558.3 493.1
M 536.05 553.45
Q 523.5 535.95 521.65 520.15 517.85 536.3 536.05 553.45 Z"/>

<path fill="#DA7946" stroke="none" d="
M 430.65 604.95
Q 429.9 603.25 428.3 603.35 426.7 603.45 425.9 605.3 425.05 607.15 423.8 608.15 422.5 609.2 423.7 610.75 424.9 612.2 426.9 612.45 428.85 612.65 429.25 611.9 429.65 611.1 430.5 608.9 431.35 606.7 430.65 604.95
M 451.05 613.8
Q 449.3 614.75 449.9 616.15 450.5 617.55 451.85 618.9 453.2 620.3 454.75 620.75 456.35 621.2 458.1 620.25 459.8 619.3 459.4 617.55 459.05 615.85 457.5 614.5 456 613.15 454.35 613 452.7 612.75 451.05 613.8
M 468.95 604.45
Q 468.2 603.55 467.1 603.4 466 603.3 465.1 604 464.25 604.75 464.1 605.8 464 606.9 464.7 607.75 465.4 608.7 466.5 608.85 467.6 608.95 468.5 608.2 469.35 607.5 469.5 606.4 469.6 605.35 468.95 604.45
M 462.1 592.8
Q 462.65 592.8 464.65 591.8 466.75 590.85 467.45 589.2 468.1 587.55 467.05 586.2 465.95 584.9 464.25 584.7 462.55 584.45 462.3 586.25 462 588.05 460.8 589.1 459.55 590.1 460.6 591.4 461.6 592.7 462.1 592.8
M 452.25 565.6
Q 450.35 566.65 452.6 568.55 454.8 570.45 454.65 571.9 454.45 573.4 456.3 573.65 458.2 573.9 460.1 572.8 462.05 571.75 460.75 569.2 459.4 566.7 459.05 565.75 458.65 564.8 456.45 564.65 454.2 564.5 452.25 565.6
M 440.15 587.4
Q 437.65 589.2 436.35 590.1 435.1 591.05 435.1 592.7 435.1 594.45 436.2 596.55 437.35 598.65 439.25 598.85 441.15 599.1 442.7 597.25 444.3 595.5 444.55 592.7 444.9 589.95 443.8 587.85 442.65 585.75 440.15 587.4
M 436.15 571.9
Q 436.65 570.75 435.85 569.85 435.15 569 433.5 568.75 431.75 568.6 431.35 569.5 431 570.4 430.6 571.4 430.2 572.35 430.7 573.05 431.2 573.8 432.9 574 434.55 574.15 435.1 573.55 435.65 572.95 436.15 571.9
M 460.6 468.65
Q 459.05 467.95 457.2 468.25 455.25 468.55 454.15 469.65 453.05 470.7 452.7 472.55 452.45 474.45 453.8 474.85 455.2 475.25 457 475.05 458.85 474.85 460.15 473.95 461.45 473.1 461.8 471.25 462.1 469.4 460.6 468.65
M 458.4 454.5
Q 457.65 453.75 456.55 453.75 455.45 453.75 454.75 454.5 453.95 455.2 453.95 456.3 453.95 457.35 454.7 458.15 455.45 458.85 456.5 458.9 457.55 458.9 458.35 458.2 459.05 457.4 459.1 456.35 459.1 455.25 458.4 454.5
M 431.4 483.1
Q 430.5 484.4 431.4 486.1 432.3 487.8 432.25 489.35 432.25 490.9 434.1 490.95 435.95 490.95 437.3 489.7 438.65 488.35 438.25 487.55 437.95 486.75 436.85 484.8 435.75 482.85 433.95 482.4 432.35 481.9 431.4 483.1
M 413.45 460.25
Q 413.3 459.45 412.8 458.45 412.25 457.4 411.15 457.4 410.1 457.4 408.95 458.55 407.75 459.7 408.15 460.5 408.65 461.35 409.15 462.25 409.6 463.15 410.45 463.2 411.2 463.25 412.4 462.1 413.55 461 413.45 460.25
M 426.75 464.85
Q 426.55 467.75 426.4 469.25 426.35 470.75 427.6 471.75 428.9 472.75 431.15 473.15 433.35 473.6 434.6 472.3 435.9 471.05 435.55 468.8 435.15 466.6 433.3 464.7 431.45 462.8 429.25 462.35 427 461.95 426.75 464.85
M 441.95 444.2
Q 440.3 444.2 439.1 445.35 437.95 446.45 439.1 447.75 440.3 449 440.3 450.55 440.35 452.05 441.9 452.1 443.5 452.15 443.8 451.8 444.2 451.45 444.7 449.35 445.2 447.2 444.4 445.75 443.55 444.2 441.95 444.2
M 417.85 442.8
Q 417.5 444.85 420.2 444.25 422.95 443.8 423.9 444.75 424.9 445.75 426.2 444.55 427.55 443.4 427.9 441.35 428.25 439.2 425.6 438.7 422.95 438.05 422 437.85 421.1 437.55 419.6 439.1 418.15 440.7 417.85 442.8
M 575.15 530
Q 573.25 530.1 572.05 531.05 570.8 532 570.3 533.85 569.8 535.65 571.15 536.2 572.45 536.75 574.3 536.75 576.15 536.75 577.55 536 578.95 535.25 579.45 533.45 579.95 531.65 578.55 530.75 577.1 529.85 575.15 530
M 578.3 518.35
Q 578.45 517.3 577.8 516.5 577.1 515.65 576.05 515.5 575 515.4 574.15 516.05 573.35 516.7 573.25 517.75 573.1 518.85 573.75 519.65 574.4 520.5 575.5 520.6 576.55 520.75 577.35 520.1 578.15 519.45 578.3 518.35
M 550.65 541.65
Q 549.05 541 548 542.15 546.95 543.25 547.7 545.1 548.4 546.85 548.2 548.4 548 550 549.85 550.2 551.7 550.4 553.15 549.2 554.65 548.05 554.35 547.2 554.1 546.4 553.2 544.35 552.3 542.3 550.65 541.65
M 545.25 523.4
Q 544.7 526.3 544.45 527.8 544.25 529.25 545.4 530.4 546.55 531.5 548.7 532.2 550.9 532.85 552.3 531.75 553.75 530.6 553.6 528.35 553.45 526.05 551.8 524 550.15 521.9 548 521.25 545.8 520.6 545.25 523.4
M 530.55 514.45
Q 529.45 514.35 528.2 515.35 526.95 516.35 527.25 517.25 527.6 518.1 528 519.05 528.4 519.95 529.2 520.1 530 520.25 531.25 519.25 532.55 518.25 532.5 517.45 532.45 516.7 532.1 515.6 531.7 514.55 530.55 514.45
M 546.85 503.25
Q 548.3 502.2 548.85 500.15 549.35 498.1 546.8 497.3 544.25 496.45 543.35 496.05 542.45 495.7 540.85 497.1 539.25 498.55 538.7 500.55 538.1 502.55 540.85 502.35 543.6 502.1 544.5 503.2 545.4 504.35 546.85 503.25
M 564.8 506.25
Q 564.15 504.7 562.55 504.55 560.85 504.35 559.6 505.3 558.3 506.35 559.3 507.7 560.35 509.1 560.25 510.6 560.1 512.15 561.65 512.35 563.25 512.55 563.6 512.25 564 511.95 564.7 509.85 565.45 507.85 564.8 506.25 Z"/>

<path fill="#F1B226" stroke="none" d="
M 395.6 579.7
Q 394.95 581.65 394.4 583.75 390.1 601.2 393.05 614.15 393.1 614.2 393.15 614.2 394.7 613.9 395.85 613.5
L 397.6 618.6
Q 396.55 619.9 395.1 620.7 399.95 632.45 412.05 639.65 447.4 660 471.45 648.7 482.1 642.15 488.5 630.7 492.55 623.55 494.85 614.5 495.45 612.4 495.9 610.15 496.3 608.35 496.65 606.35 497.05 598.05 494.3 593.65 495.7 603.1 492.95 611.3 490.15 619.75 484.75 627.25 472.2 645.7 442.3 642.9 424.2 641.9 412.25 630.05 392 603.4 405.4 575 413.25 556.2 430.65 549.2 434.4 547.65 438.5 546.65 438.25 546.35 438.05 546.05 431.1 542.75 424.4 544.1 401.35 558.05 395.3 596 393.55 591.35 395.6 579.7
M 513.1 504
Q 514.65 500.3 517 496.6 509.35 499.05 505.5 504.8 499.3 529.75 520.8 559.35 516.5 557.45 510.05 548.2 510.95 549.95 511.95 551.75 531.95 584.9 561.5 577.55 577.05 573.35 587.65 566.8 587.65 566.5 587.6 566.25
L 588.65 566.15
Q 602.7 557.05 607.55 543.65 610.3 532.05 606.95 520 604.8 512.5 600.35 504.85 599.3 503.05 598.1 501.25 597.1 499.7 596 498.15 590.7 492.3 585.9 491.1 593.15 496.6 596.85 504 600.65 511.45 602.05 520.2 606.1 541.1 584.05 559.35 571.2 570.8 555.15 570.9 523.6 566.55 513.45 538.45 506.1 520.5 513.1 504
M 490.8 478.45
Q 492.35 466.65 487.75 455 484.85 447.8 479.6 440.6 478.35 438.95 477 437.3 475.85 435.85 474.6 434.4 472.75 432.75 471 431.55 468.25 429.65 465.65 428.85 464.7 428.6 463.85 428.5 471.6 433.2 476.05 440.1 480.6 447.2 482.95 455.7 489.1 476.1 469 496.5 457.45 509.25 441.5 511.05 409.65 510 396.65 483.05 387.5 465.95 392.7 448.85 393.9 445 395.8 441.1 392.5 442.55 390 444.6 390.4 445.4 390.8 446.05
L 387.25 448.45
Q 386.95 448.35 386.7 448.15 385.9 449.2 385.3 450.45 381.75 475.9 406.15 503.1 401.65 501.65 394.25 493.15 395.4 494.8 396.5 496.4 418.5 525.5 445.15 518.05 445.2 518.05 445.25 517.95
L 445.3 518
Q 446.9 517.6 448.55 517 484.75 503 490.8 478.45 Z"/>

<path fill="#452403" stroke="none" d="
M 420.05 406.9
Q 419.85 403.95 417.45 398.25 412.2 395.75 401.95 401.55 398.9 402.95 399.65 407.65 399.85 409 400.35 410.5 400.9 412.2 402.95 414.2 404.65 415.7 407.4 415 409.35 414.55 412.55 415.45 415.8 416.35 419.55 409.55 420.2 408.75 420.05 406.9
M 416.45 399.35
Q 418.45 404 418.7 406.55 418.85 408.15 418.3 408.85 415.05 414.65 412.3 413.9 409.65 413.1 408 413.5 405.6 414.1 404.2 412.8 402.4 411.15 401.95 409.7 401.45 408.15 401.3 406.9 400.9 403.15 403.3 402.05 412 397.15 416.45 399.35
M 392.85 533
Q 394.05 534.9 396.95 534.95 399 535 401.8 536.7 404.65 538.4 410.05 532.85 412.4 531.15 410.95 521.4 406.55 517.6 395.15 520.5 391 521.25 391.25 528.85 391.35 530.6 392.85 533
M 397.85 533.65
Q 395.4 533.65 394.4 532.05 393.1 529.95 393.05 528.4 392.8 522 396.3 521.35 406 518.9 409.75 522.15 410.95 530.45 409 531.8 404.45 536.6 402 535.15 399.6 533.7 397.85 533.65
M 615.35 514.4
Q 614.05 515 613.5 516.2 612.3 518.6 613.75 523.4 614.3 525.1 616.4 527 617.3 527.85 618.6 528.05 619.6 528.15 620.85 527.85 622.8 527.35 626 528.25 629.2 529.2 632.95 522.4 634.75 520.25 630.85 511.15 625.6 508.65 615.35 514.4
M 614.7 518.15
Q 614.9 515.8 616.75 514.85 625.45 510.05 629.9 512.15 633.2 519.9 631.75 521.75 628.5 527.5 625.75 526.75 623.05 525.95 621.4 526.35 619.6 526.8 618.3 526.15 617.95 525.95 617.6 525.65 615.85 524 615.35 522.55 614.55 519.95 614.7 518.15
M 390.65 657.5
Q 392.6 657.1 395.75 657.95 399 658.85 402.75 652.1 404.5 649.9 400.6 640.85 395.4 638.3 385.15 644.05 381.3 645.85 383.55 653.05 384.1 654.75 386.15 656.75 387.8 658.2 390.65 657.5
M 395.55 656.4
Q 392.85 655.65 391.2 656.05 388.8 656.6 387.4 655.3 385.65 653.7 385.15 652.25 383.25 646.1 386.5 644.6 395.25 639.7 399.65 641.85 403 649.55 401.45 651.4 398.3 657.2 395.55 656.4
M 552.6 589.55
Q 547.35 587 537.1 592.8 533.3 594.55 535.5 601.75 536.05 603.45 538.15 605.45 539.8 606.9 542.6 606.2 544.55 605.8 547.7 606.65 550.95 607.55 554.7 600.8 556.5 598.6 552.6 589.55
M 538.45 593.3
Q 547.2 588.4 551.65 590.55 554.95 598.25 553.45 600.15 550.25 605.85 547.5 605.1 544.8 604.35 543.15 604.75 540.8 605.35 539.4 604.05 537.6 602.4 537.1 600.9 535.2 594.8 538.45 593.3
M 492.5 550.45
Q 495.7 551.4 499.45 544.6 501.3 542.4 497.35 533.3 492.15 530.8 481.85 536.55 478.05 538.35 480.3 545.55 480.85 547.25 482.95 549.25 484.55 550.75 487.4 550.05 489.35 549.55 492.5 550.45
M 496.4 534.35
Q 499.75 542.05 498.2 543.9 495 549.7 492.3 548.9 489.55 548.15 487.95 548.55 485.55 549.15 484.15 547.85 482.4 546.15 481.9 544.75 480 538.6 483.3 537.1 491.95 532.2 496.4 534.35
M 518.35 467.6
Q 520.1 465.35 516.2 456.3 511 453.75 500.75 459.55 496.9 461.35 499.1 468.5 499.65 470.2 501.75 472.2 503.4 473.7 506.2 473 508.15 472.55 511.35 473.45 514.6 474.35 518.35 467.6
M 515.25 457.35
Q 518.6 465 517.05 466.9 513.85 472.65 511.1 471.9 508.45 471.1 506.8 471.5 504.4 472.1 503 470.8 501.2 469.15 500.75 467.7 498.85 461.6 502.1 460.05 510.8 455.15 515.25 457.35 Z"/>

<path fill="#6B4B22" stroke="none" d="
M 418.7 406.55
Q 418.45 404 416.45 399.35 412 397.15 403.3 402.05 400.9 403.15 401.3 406.9 401.45 408.15 401.95 409.7 402.4 411.15 404.2 412.8 405.6 414.1 408 413.5 409.65 413.1 412.3 413.9 415.05 414.65 418.3 408.85 418.85 408.15 418.7 406.55
M 394.4 532.05
Q 395.4 533.65 397.85 533.65 399.6 533.7 402 535.15 404.45 536.6 409 531.8 410.95 530.45 409.75 522.15 406 518.9 396.3 521.35 392.8 522 393.05 528.4 393.1 529.95 394.4 532.05
M 616.75 514.85
Q 614.9 515.8 614.7 518.15 614.55 519.95 615.35 522.55 615.85 524 617.6 525.65 617.95 525.95 618.3 526.15 619.6 526.8 621.4 526.35 623.05 525.95 625.75 526.75 628.5 527.5 631.75 521.75 633.2 519.9 629.9 512.15 625.45 510.05 616.75 514.85
M 391.2 656.05
Q 392.85 655.65 395.55 656.4 398.3 657.2 401.45 651.4 403 649.55 399.65 641.85 395.25 639.7 386.5 644.6 383.25 646.1 385.15 652.25 385.65 653.7 387.4 655.3 388.8 656.6 391.2 656.05
M 551.65 590.55
Q 547.2 588.4 538.45 593.3 535.2 594.8 537.1 600.9 537.6 602.4 539.4 604.05 540.8 605.35 543.15 604.75 544.8 604.35 547.5 605.1 550.25 605.85 553.45 600.15 554.95 598.25 551.65 590.55
M 498.2 543.9
Q 499.75 542.05 496.4 534.35 491.95 532.2 483.3 537.1 480 538.6 481.9 544.75 482.4 546.15 484.15 547.85 485.55 549.15 487.95 548.55 489.55 548.15 492.3 548.9 495 549.7 498.2 543.9
M 517.05 466.9
Q 518.6 465 515.25 457.35 510.8 455.15 502.1 460.05 498.85 461.6 500.75 467.7 501.2 469.15 503 470.8 504.4 472.1 506.8 471.5 508.45 471.1 511.1 471.9 513.85 472.65 517.05 466.9 Z"/>

<path fill="#FFD765" stroke="none" d="
M 460.2 426.5
Q 460.45 426.65 460.65 426.7 462.3 427.6 463.85 428.5 464.7 428.6 465.65 428.85 425.7 408.85 422.9 407.85 421.45 407.35 420.05 406.9 420.2 408.75 419.55 409.55 415.8 416.35 412.55 415.45 409.35 414.55 407.4 415 404.65 415.7 402.95 414.2 400.9 412.2 400.35 410.5 399.85 409 399.65 407.65 389 413.05 383.85 430.85 377.5 457 377.15 488.95 378.35 515.2 375.65 544.2 371.2 578.25 370.45 601.35
L 377.7 597.7 379.1 603.75
Q 381.55 612.6 393.05 614.15 390.1 601.2 394.4 583.75 394.95 581.65 395.6 579.7 400.35 564.75 408.15 554.65 416.1 545.8 424.4 544.1 431.1 542.75 438.05 546.05 437.25 544.75 436.6 543 434.9 538.6 436.8 531.55 438.15 526.6 444.15 519.25 444.65 518.7 445.15 518.05 418.5 525.5 396.5 496.4 395.4 494.8 394.25 493.15 386.15 480.65 383.3 468.8 381.5 457.65 385.3 450.45 385.9 449.2 386.7 448.15 383.25 446.15 382.8 441.05 382.4 437.3 385.3 432.25 387.35 428.75 393.55 424.3 394.1 423.9 394.6 423.55
L 399.35 428.75 394.9 431.05
Q 388.55 434.8 389.75 444.05 389.85 444.35 390 444.6 392.5 442.55 395.8 441.1 396.15 439.75 396.75 438.5 402.05 427.55 429.15 421.2 434.9 420.8 441.45 421.1 442.95 421.15 444.5 421.3 453.4 423.15 460.2 426.5
M 396.95 534.95
Q 394.05 534.9 392.85 533 391.35 530.6 391.25 528.85 391 521.25 395.15 520.5 406.55 517.6 410.95 521.4 412.4 531.15 410.05 532.85 404.65 538.4 401.8 536.7 399 535 396.95 534.95
M 487.75 455
Q 492.35 466.65 490.8 478.45 484.75 503 448.55 517 446.9 517.6 445.3 518
L 452.6 522.75 448 527
Q 441.55 533.5 446 544.35 446.35 544.8 446.75 545.25 458.5 545.95 477.35 560.65 481.45 565.05 485.55 570.55 486.5 571.8 487.45 573.1 491.8 581.65 493.55 589.4 493.6 589.7 493.65 589.9 494.1 591.8 494.3 593.65 497.05 598.05 496.65 606.35 496.3 608.35 495.9 610.15 495.45 612.4 494.85 614.5 492.55 623.55 488.5 630.7 482.1 642.15 471.45 648.7 447.4 660 412.05 639.65 399.95 632.45 395.1 620.7 392 622.45 387.2 621.6 382.6 620.9 377.45 615.7 373.8 612.1 370.5 603.2 370.45 603.1 370.4 603.05 370 619.65 371.65 630.4 375.9 660.15 385.85 666.8 401.1 677.1 432.75 667.85 479.05 656 541.85 618.6 582.15 593.85 601.9 569.7 620.6 545.05 618.6 528.05 617.3 527.85 616.4 527 614.3 525.1 613.75 523.4 612.3 518.6 613.5 516.2 607.9 507.9 598.1 501.25 599.3 503.05 600.35 504.85 604.8 512.5 606.95 520 610.3 532.05 607.55 543.65 602.7 557.05 588.65 566.15
L 591.9 565.9
Q 594.45 569.5 592.1 574.55 590.55 578 585.5 580.9 581.95 582.9 574.4 583.7 573.8 583.75 573.1 583.8
L 571.65 576.95 576.65 577.15
Q 583.95 577.1 587.55 568.45 587.65 567.55 587.65 566.8 577.05 573.35 561.5 577.55 531.95 584.9 511.95 551.75 510.95 549.95 510.05 548.2 503.2 534.95 501.65 522.85 501 511.6 505.5 504.8 509.35 499.05 517 496.6 517.45 495.3 518.2 494.1 524.55 483.75 552.2 480.3 557.95 480.5 564.4 481.45 500.25 446.25 498.25 445.25 483.05 437.65 471 431.55 472.75 432.75 474.6 434.4 475.85 435.85 477 437.3 478.35 438.95 479.6 440.6 484.85 447.8 487.75 455
M 516.2 456.3
Q 520.1 465.35 518.35 467.6 514.6 474.35 511.35 473.45 508.15 472.55 506.2 473 503.4 473.7 501.75 472.2 499.65 470.2 499.1 468.5 496.9 461.35 500.75 459.55 511 453.75 516.2 456.3
M 503.1 488.6
Q 503.25 487.4 503.15 486.4
L 507.45 486.1
Q 510 489.7 507.65 494.7 506.1 498.15 501.05 501.1 497.5 503.1 490 503.85 489.3 503.9 488.65 503.95
L 487.15 497.15 492.2 497.3
Q 499.5 497.25 503.1 488.6
M 499.45 544.6
Q 495.7 551.4 492.5 550.45 489.35 549.55 487.4 550.05 484.55 550.75 482.95 549.25 480.85 547.25 480.3 545.55 478.05 538.35 481.85 536.55 492.15 530.8 497.35 533.3 501.3 542.4 499.45 544.6
M 511.55 580.1
Q 510.6 578.85 509.65 578.05
L 513.15 574
Q 514.85 574.25 516.25 575.1 519.3 576.9 520.95 581.5 522.65 585.8 520.75 592.85 519.45 597.85 513.4 605.15 513.3 605.2 513.3 605.3 512.85 605.85 512.35 606.45
L 505 601.7 509.55 597.45
Q 516.05 590.9 511.6 580.15
L 511.55 580.1
M 537.1 592.8
Q 547.35 587 552.6 589.55 556.5 598.6 554.7 600.8 550.95 607.55 547.7 606.65 544.55 605.8 542.6 606.2 539.8 606.9 538.15 605.45 536.05 603.45 535.5 601.75 533.3 594.55 537.1 592.8
M 395.75 657.95
Q 392.6 657.1 390.65 657.5 387.8 658.2 386.15 656.75 384.1 654.75 383.55 653.05 381.3 645.85 385.15 644.05 395.4 638.3 400.6 640.85 404.5 649.9 402.75 652.1 399 658.85 395.75 657.95 Z"/>

<path fill="#D58449" stroke="none" d="
M 672.95 528.2
Q 671.45 527.3 651.35 517.2 645.85 519.6 641.2 522.9 660.5 537.65 657.35 556.3 652.45 581 615.85 603.65 615.65 603.9 615.5 604.1 613.6 606.35 611.6 608.6 588.5 633.5 565.75 643.6 565.65 643.6 565.6 643.65 535.2 669.15 493.75 687.05 438.05 719.15 384.65 707.9 365.25 705.05 355.75 693.6 353.55 695.3 351.3 697.3 349.95 708.45 350.05 717.9 349.9 721.65 350.35 724.95 351.2 731.3 354.15 736.1 357.35 740.45 362.95 742.7 364.15 743.15 365.35 743.55 367.8 744.3 370.65 744.65 377.8 743.85 384.85 741.45 394.15 738.7 407.55 736.2 413.85 735 421.55 732.85 431.65 729.9 448.1 725 459.4 721.65 473.6 717.35 479.3 715.65 486.2 713.05 490.4 711.4 494.8 709.6 495.65 709.25 496.45 708.9 512.95 702 534.75 691 540.45 688.2 546.45 685.05 563.1 675.85 586.35 658.45 588.15 657.1 590.05 655.7 602.25 646.4 625.75 623.7 627 622.45 628.85 620.55 636.15 612.8 652.45 593.8 654.7 591.2 675.45 562.9 680.15 557.85 682.45 553.25 689.95 538.4 672.95 528.2
M 672.45 534.85
Q 672 545.6 667.15 551.95 667.8 542.65 672.45 534.85
M 362.25 731.5
Q 376.6 725.65 394.9 725.75 377.05 731.1 362.25 731.5
M 481.1 708.15
Q 530.75 687.35 576.05 654.6 533.1 691.6 481.1 708.15 Z"/>
</g>

<path id="Layer2_0_1_STROKES" stroke="#000000" stroke-width="0.1" stroke-linejoin="round" stroke-linecap="round" fill="none" d="
M 667.15 551.95
Q 667.8 542.65 672.45 534.85 672 545.6 667.15 551.95 Z
M 362.25 731.5
Q 377.05 731.1 394.9 725.75 376.6 725.65 362.25 731.5 Z
M 481.1 708.15
Q 533.1 691.6 576.05 654.6 530.75 687.35 481.1 708.15 Z"/>
</defs>

<g transform="matrix( 1, 0, 0, 1, 0,0) ">
<use xlink:href="#Layer2_0_FILL"/>

<use xlink:href="#Layer2_0_1_STROKES"/>
</g>
</svg>
