
<svg xmlns="http://www.w3.org/2000/svg" version="1.1" xmlns:xlink="http://www.w3.org/1999/xlink" preserveAspectRatio="none" x="0px" y="0px" width="738px" height="746px" viewBox="0 0 738 746">
<defs>
<g id="Layer0_0_FILL">
<path fill="#060200" stroke="none" d="
M 563 92.35
Q 528.2 50.35 464.6 40.8 521.55 53.3 563 92.35
M 383.9 30.85
Q 382.65 30.45 381.35 30.15 381.25 30.1 381.2 30.1 357.1 23.8 323.55 28.95 320.55 29.5 317.65 30.1 317.4 30.15 317.15 30.2 282.25 37.55 258.25 53.95 290.1 37.6 314.6 33.45 352.2 24.75 383.9 30.85
M 396.05 211.2
Q 382.45 202.65 365.45 205.45 337.05 208.9 329.2 228.7 325.7 236.8 324.85 245.25 324.05 253.4 327.2 261.9 327.85 263.55 328.6 265.25 328.7 265.45 328.85 265.7 332.1 272.6 337.85 279.55 339 280.65 340.15 281.6 345.1 285.9 349.85 289.2 375 301.05 385.95 295.8 358.05 296.25 343.7 282.3 322.45 265.85 329.25 234.85 331.45 229.4 333.95 226.8
L 334.75 225.4
Q 334.8 225.3 334.9 225.25 350.95 203.2 382.8 209.45 412.5 218.6 412.7 253.65 412.65 275.2 395.55 290.2 410.3 280.05 413.75 260.95 420.35 231.8 396.05 211.2
M 356.5 137.55
Q 354.15 158.95 335.6 172.15 351.35 163.55 356.75 144.95 366.3 116.65 344.3 93.6 331.65 83.7 314.5 84.7 285.85 85.25 276 104.1 271.7 111.85 270 120.1 268.3 128.15 270.6 136.9 271.05 138.6 271.6 140.4 271.7 140.6 271.8 140.85 274.3 148 279.35 155.6 280.35 156.75 281.4 157.85 285.85 162.65 290.25 166.4 314.05 180.85 325.5 176.7 297.7 174.25 284.85 158.9 265.45 140.4 275.4 110.2 278.15 105.05 280.9 102.7
L 281.85 101.4
Q 281.9 101.3 282 101.25 300.3 80.95 331.3 90.5 359.85 102.7 356.5 137.55
M 440.8 95.6
Q 440.9 95.6 441.05 95.65 469.65 94.1 485.6 124.25 497.75 154.5 469.4 177.9 451.75 192.05 428.25 188 446.25 193.35 464.1 183.55 492.2 169.65 492.95 136.15 490.95 119.45 477.4 107.45 455.8 86.6 434.45 93.25 425.55 95.8 418.1 100.65 410.85 105.4 406.05 113.6 405.1 115.2 404.25 116.9 404.15 117.15 404 117.4 400.6 124.6 398.7 133.95 398.6 135.55 398.55 137.2 398.35 144.05 398.8 150.05 404.45 173.25 413.2 181.1 413.15 180.25 413 179.45
L 413.7 179.35
Q 398.7 159.3 400.35 140.5 399.7 112.35 429.45 97.35 435.35 95.6 439.1 95.85
L 440.8 95.6
M 535.2 97.75
Q 527.45 91.9 522.85 87.65 499.15 65.85 462.1 64.05 430.95 62.35 400.2 45.2 377.15 34.9 356.4 46.95 339.3 56.45 323.85 51.5 310.8 47.75 301.1 53.5 296.25 56.35 291.45 60.45 289.4 62.2 287.4 64.15 267.75 78.85 247.05 77.65 241.3 77.35 235.5 75.8 255.65 82.1 277.6 74.2 284.8 71.6 293.15 65 305.9 51.4 327.15 58.15 344.15 62.9 359.2 52.35 376.55 41.6 398 50.7 414.2 58.85 427.6 64.3 446.65 71.15 467.95 70.35 495.85 71.45 514.7 85.85 524.1 93.05 534.45 101.5 554.1 126.6 582.55 121.35 579.55 121.55 576.75 121.5 559.2 121.15 548.55 111.25 541.25 102.3 535.2 97.75
M 601.65 78.6
Q 604.6 83.85 604.45 89.2 603.75 94.85 600.5 100.3 598.75 103.2 596.3 106.05 590.55 113.55 582.55 121.35 582.05 121.85 581.5 122.35 577 126.75 571.8 131.2 561.15 140.5 551.55 149.55 540.35 160.1 530.5 170.25 528.5 172.35 526.5 174.45 520 181.3 514.15 188.05 500.3 204 490 219.1 478.85 233.5 465.1 248.15 450.85 263.35 433.75 278.85 428.3 283.75 422.6 288.7 391.1 315.35 367.5 355.05 394.4 319.45 422.45 295.4 439.25 280.95 465.1 256.2 486.7 235.8 514.15 198 523.15 182.2 551.55 155.9 562.45 145.85 581.5 126.55 593.95 114.25 601.6 101.35 608.05 90.45 604.2 78.6 603.6 76.95 602.6 75.25 592.95 64.55 563.4 51.85
L 529.2 35.85
Q 492.2 17.3 436.6 6.3 410.2 1.1 374.25 0 355 0.35 317.45 4.85 284.45 8.8 233.25 27.4 220.7 31.95 220.6 46.15 220.3 53.2 225.75 64.85
L 258.95 139.7
Q 275.7 174 283.6 197.75 284.15 203.5 320.7 277.9 324.55 285.7 347 325.2 355.45 340.2 367.5 355.05 357.45 338.35 349.8 325.2 329.65 290.65 326.05 280.75 324.95 278.5 323.95 276.3 299.05 222.4 293.5 207.15 277.75 163.75 264 137.15 245.15 96.65 235.5 75.8 226.1 55.45 225.45 53.75 218.45 35.2 233.65 28.25 238.3 26.05 245.1 25.05 278.95 15.8 282.3 15.15 306.9 10.4 317.45 8.9 320.05 8.5 321.85 8.35 354.35 5.15 369.7 5.5 372.05 5.55 374.3 5.65 403.3 6.5 422.1 9.6 428.75 10.9 434.95 12.2 458.9 17.2 476.05 22.05 476.9 22.25 477.75 22.5 482.4 23.85 486.7 25.15 493.7 27.4 499.25 29.6 513.05 35.1 523.9 39.5 539.85 45.9 549.6 49.9 557 52.95 562.7 55.95 574.7 62.35 583.7 66 590.75 68.45 596.85 72.25 598.8 74.35 600.3 76.45 601 77.5 601.65 78.6
M 230 48.85
Q 238.45 45.65 244.8 38.75 237.05 40.75 230 48.85
M 487.6 32.15
Q 436.65 12.75 380 15.05 435.8 17.6 487.6 32.15
M 595.2 87.8
Q 583.4 78.9 566.1 72 580.35 83.5 595.2 87.8 Z"/>

<path fill="#EDB53A" stroke="none" d="
M 530.5 170.25
Q 540.35 160.1 551.55 149.55 561.15 140.5 571.8 131.2 577 126.75 581.5 122.35 582.05 121.85 582.55 121.35 554.1 126.6 534.45 101.5 524.1 93.05 514.7 85.85 495.85 71.45 467.95 70.35 446.65 71.15 427.6 64.3 414.2 58.85 398 50.7 376.55 41.6 359.2 52.35 344.15 62.9 327.15 58.15 305.9 51.4 293.15 65 284.8 71.6 277.6 74.2 255.65 82.1 235.5 75.8 245.15 96.65 264 137.15 277.75 163.75 293.5 207.15 299.05 222.4 323.95 276.3 324.95 278.5 326.05 280.75 329.65 290.65 349.8 325.2 357.45 338.35 367.5 355.05 391.1 315.35 422.6 288.7 428.3 283.75 433.75 278.85 450.85 263.35 465.1 248.15 478.85 233.5 490 219.1 500.3 204 514.15 188.05 520 181.3 526.5 174.45 528.5 172.35 530.5 170.25
M 508.45 184.75
L 507.85 184.6
Q 492.9 202.25 468.25 226.15 448.05 247.15 432.7 268.5 412.55 293.3 391.3 309.8 376.25 320.55 364.55 318.15 362.15 322.3 358.95 321.55 347.3 319.65 344.8 314.4 346.4 308.5 348.05 306 347.25 304.85 346.4 303.5 344.85 301 326 260.5 324.5 258.3 323.55 255.05 317.8 242.75 310.7 227.35 309.75 225.35 281.4 157.85 280.35 156.75 279.35 155.6 274.3 148 271.8 140.85 271.7 140.6 271.6 140.4 271.05 138.6 270.6 136.9 267.55 133.05 267.05 125.15 267.15 123.25 267.3 121.45 263.8 110.15 264.6 100.15 263.35 100.75 262 100.4 250.35 98.55 247.85 93.3 250.4 83.8 253.2 83.15 260.35 80.2 262.3 82.95 264.25 85.6 266.05 86.45 267.2 86.95 267.95 87.7 276.95 73.1 306.9 65.5 337.45 58.85 384.35 64.5 456.8 74.3 500.45 93.8 530.9 106.25 536.5 123.75 540.1 135.2 524.95 161.15 519.6 170.55 508.95 183.35 508.7 184 508.45 184.75 Z"/>

<path fill="#452403" stroke="none" d="
M 262.3 82.95
Q 260.35 80.2 253.2 83.15 250.4 83.8 247.85 93.3 250.35 98.55 262 100.4 263.35 100.75 264.6 100.15 267 99 268.85 94.35 269.45 92.7 269.05 89.85 268.85 88.6 267.95 87.7 267.2 86.95 266.05 86.45 264.25 85.6 262.3 82.95
M 253.75 84.5
Q 259.85 81.95 261.5 84.3 263.15 86.55 264.65 87.25 266.45 88.05 267 89.35 267.15 89.75 267.2 90.15 267.55 92.55 267.05 94 266.05 96.55 264.85 97.85 263.2 99.6 261.2 99.15 251.35 97.55 249.2 93.1 251.4 85 253.75 84.5
M 364.55 318.15
Q 365.2 317 365.8 315.45 366.4 313.8 366 310.95 365.65 308.75 363 307.55 361.2 306.7 359.25 304.05 357.3 301.35 350.15 304.3 349.1 304.5 348.05 306 346.4 308.5 344.8 314.4 347.3 319.65 358.95 321.55 362.15 322.3 364.55 318.15
M 358.45 305.4
Q 360.1 307.7 361.6 308.4 363.85 309.4 364.15 311.3 364.5 313.7 364 315.1 363.4 316.6 362.75 317.7 360.75 320.9 358.15 320.25 348.3 318.65 346.15 314.2 347.5 309.3 348.9 307.15 349.8 305.8 350.7 305.6 356.8 303.1 358.45 305.4
M 446.45 228.5
Q 447.45 227 447.8 224.2 448 222 445.8 220.15 444.25 218.85 443.1 215.75 441.9 212.65 434.25 213.65 431.35 213.5 426.4 222.05 427.5 227.8 438.25 232.55 441.95 234.55 446.45 228.5
M 441.95 216.85
Q 442.95 219.5 444.3 220.55 446.2 222.15 446 224.05 445.7 226.45 444.8 227.7 441 232.85 437.85 231.15 428.75 227.05 427.8 222.2 432.05 214.95 434.4 215.05 440.95 214.2 441.95 216.85
M 324.5 208.6
Q 325.1 206.95 324.7 204.1 324.35 201.9 321.7 200.7 319.9 199.85 317.95 197.2 316 194.45 308.85 197.4 306.05 198.05 303.5 207.55 306 212.8 317.65 214.65 321.75 215.65 324.5 208.6
M 317.15 198.55
Q 318.8 200.8 320.35 201.5 322.6 202.55 322.9 204.4 323.25 206.8 322.7 208.25 320.35 214.2 316.9 213.4 307 211.8 304.85 207.35 307.05 199.25 309.4 198.75 315.5 196.2 317.15 198.55
M 387.15 160
Q 387.75 158.3 387.35 155.5 387 153.3 384.35 152.1 382.55 151.25 380.6 148.55 378.65 145.85 371.5 148.8 368.75 149.4 366.15 158.95 368.7 164.2 380.3 166.05 384.4 167 387.15 160
M 385.55 155.8
Q 385.9 158.2 385.35 159.65 383 165.6 379.55 164.8 369.65 163.2 367.55 158.75 369.75 150.65 372.05 150.15 378.15 147.6 379.85 149.9 381.45 152.2 383 152.9 385.25 153.95 385.55 155.8
M 363.25 70.45
Q 360.45 71.05 357.85 80.6 360.4 85.85 372 87.7 376.1 88.65 378.85 81.65 379.5 79.95 379.05 77.15 378.7 74.95 376.1 73.75 374.25 72.9 372.35 70.2 370.35 67.5 363.25 70.45
M 359.25 80.4
Q 361.45 72.3 363.8 71.75 369.9 69.25 371.55 71.55 373.2 73.85 374.7 74.55 376.95 75.6 377.25 77.45 377.6 79.85 377.1 81.3 374.75 87.25 371.25 86.45 361.4 84.85 359.25 80.4
M 530 131.45
Q 529.65 129.3 527 128.1 525.2 127.25 523.25 124.55 521.3 121.85 514.15 124.8 511.35 125.4 508.8 134.95 511.3 140.15 522.9 142.05 527 143 529.75 136 530.4 134.3 530 131.45
M 528.15 131.8
Q 528.5 134.2 528 135.65 525.65 141.6 522.15 140.8 512.3 139.2 510.15 134.7 512.35 126.65 514.7 126.1 520.8 123.6 522.45 125.9 524.1 128.2 525.6 128.9 527.85 129.9 528.15 131.8 Z"/>

<path fill="#6B4B22" stroke="none" d="
M 261.5 84.3
Q 259.85 81.95 253.75 84.5 251.4 85 249.2 93.1 251.35 97.55 261.2 99.15 263.2 99.6 264.85 97.85 266.05 96.55 267.05 94 267.55 92.55 267.2 90.15 267.15 89.75 267 89.35 266.45 88.05 264.65 87.25 263.15 86.55 261.5 84.3
M 361.6 308.4
Q 360.1 307.7 358.45 305.4 356.8 303.1 350.7 305.6 349.8 305.8 348.9 307.15 347.5 309.3 346.15 314.2 348.3 318.65 358.15 320.25 360.75 320.9 362.75 317.7 363.4 316.6 364 315.1 364.5 313.7 364.15 311.3 363.85 309.4 361.6 308.4
M 444.3 220.55
Q 442.95 219.5 441.95 216.85 440.95 214.2 434.4 215.05 432.05 214.95 427.8 222.2 428.75 227.05 437.85 231.15 441 232.85 444.8 227.7 445.7 226.45 446 224.05 446.2 222.15 444.3 220.55
M 320.35 201.5
Q 318.8 200.8 317.15 198.55 315.5 196.2 309.4 198.75 307.05 199.25 304.85 207.35 307 211.8 316.9 213.4 320.35 214.2 322.7 208.25 323.25 206.8 322.9 204.4 322.6 202.55 320.35 201.5
M 385.35 159.65
Q 385.9 158.2 385.55 155.8 385.25 153.95 383 152.9 381.45 152.2 379.85 149.9 378.15 147.6 372.05 150.15 369.75 150.65 367.55 158.75 369.65 163.2 379.55 164.8 383 165.6 385.35 159.65
M 363.8 71.75
Q 361.45 72.3 359.25 80.4 361.4 84.85 371.25 86.45 374.75 87.25 377.1 81.3 377.6 79.85 377.25 77.45 376.95 75.6 374.7 74.55 373.2 73.85 371.55 71.55 369.9 69.25 363.8 71.75
M 528 135.65
Q 528.5 134.2 528.15 131.8 527.85 129.9 525.6 128.9 524.1 128.2 522.45 125.9 520.8 123.6 514.7 126.1 512.35 126.65 510.15 134.7 512.3 139.2 522.15 140.8 525.65 141.6 528 135.65 Z"/>

<path fill="#533F00" stroke="none" d="
M 399.85 294.5
Q 399.75 294.2 399.6 293.9
L 395.3 293.55
Q 395.25 294.35 395.05 295.2 395 295.45 394.9 295.75 390.1 303.8 382.8 302.75
L 377.85 301.85 378.35 308.8
Q 379 308.85 379.65 308.9 387.25 309.3 391.05 307.8 396.45 305.65 398.5 302.45 401.3 298.2 399.85 294.5
M 396.1 295.65
Q 396.15 295.35 396.15 295.15 396.2 294.5 395.8 294.35
L 399.3 294.6
Q 400.1 298.7 397.9 301.85 395.85 304.8 391.1 306.9 390.6 307.05 390 307.2 384.65 308.65 379.55 308
L 379.25 303.55
Q 385.3 304.95 388.95 303.1 395.15 300.05 396.1 295.65
M 400.9 194.6
L 394.65 195.05 397.4 203.35 397.45 203.4
Q 397.5 203.4 397.55 203.4 398.35 203.2 399.05 203.05 408.35 201.05 412.5 198 418.35 193.65 419.75 189.2 420.35 187.45 420.5 185.9 420.55 185.5 420.55 185.1 420.75 181.2 418.3 178.45
L 413.7 179.35 413 179.45
Q 413.15 180.25 413.2 181.1 413.25 181.65 413.25 182.25 410 193.5 400.9 194.6
M 418.15 179.45
Q 419.5 182.1 419.5 184.75 419.55 186.7 418.85 188.65 417.3 192.85 412.25 196.9 411.65 197.3 411.05 197.65 405 201.15 398.65 202
L 396.85 196.7
Q 404.55 196.4 408.45 193 414.6 187.65 414.65 182.3 414.65 182 414.6 181.7 414.55 180.3 413.9 180.25
L 418.15 179.45
M 338.25 72.35
Q 337.7 71.95 337.15 71.6 330.75 67.5 326.7 66.9 320.95 66 317.6 67.75 312.65 70.25 312.4 74.65
L 315.05 76.5 315.95 77.05
Q 316.1 76.85 316.3 76.6 316.75 76 317.4 75.35 325.6 70.85 331.35 75.35
L 335.15 78.6 338.25 72.35
M 326.2 67.6
Q 326.8 67.75 327.35 67.9 332.7 69.35 336.8 72.4
L 334.8 76.45
Q 330.3 72.25 326.2 72 319.3 71.5 316.3 74.9 315.55 75.75 315.85 76.15
L 313 74.15
Q 314.35 70.2 317.8 68.6 321.05 67.05 326.2 67.6
M 328.9 189.7
L 332.45 192.1
Q 333 191.25 333.85 190.4 342.05 185.9 347.85 190.4
L 351.65 193.65 354.75 187.4
Q 354.2 187 353.65 186.65 347.25 182.55 343.2 181.9 337.45 181.05 334.1 182.8 329.1 185.3 328.9 189.7
M 342.65 182.65
Q 343.25 182.75 343.8 182.95 349.2 184.4 353.25 187.45
L 351.3 191.5
Q 346.75 187.3 342.65 187 335.8 186.55 332.8 189.9 332.05 190.75 332.35 191.2
L 329.5 189.2
Q 330.8 185.25 334.3 183.6 337.55 182.1 342.65 182.65
M 399.9 92.35
Q 399.15 92.55 398.45 92.7 398.35 92.75 398.3 92.75 388.95 94.7 384.9 97.75 379 102.15 377.65 106.55 376.1 111.15 377.35 114.5 377.95 116 379.05 117.25
L 384.35 116.3
Q 384.1 115.1 384.1 113.55 384.1 113.45 384.15 113.4 387.35 102.25 396.5 101.15
L 402.7 100.65 399.9 92.35
M 385.05 98.85
Q 385.7 98.5 386.3 98.1 392.35 94.65 398.7 93.75
L 400.5 99.1
Q 392.75 99.35 388.9 102.75 382.7 108.15 382.7 113.55 382.7 113.8 382.75 114.05 382.8 115.45 383.45 115.5
L 379.2 116.35
Q 378.65 115.3 378.35 114.25 377.25 110.65 378.5 107.15 380.05 102.9 385.05 98.85
M 511.3 169
Q 510.5 161.75 507.3 158.3 504.15 154.7 500.6 154.15 498.95 153.85 497.3 154.25
L 495.5 159.3
Q 496.7 159.7 498.05 160.45 498.1 160.5 498.1 160.55 506.15 168.9 502.55 177.35
L 499.9 183 507.85 184.6 508.45 184.75
Q 508.7 184 508.95 183.35 508.95 183.2 508.95 183.1 511.9 174.1 511.3 169
M 510.25 168.65
Q 510.3 169.35 510.3 170.05 510.25 177.05 507.85 183
L 502.35 181.9
Q 506 175.05 504.95 170 503.4 161.95 498.75 159.25 498.5 159.1 498.3 159 497 158.4 496.65 158.9
L 498.05 154.8
Q 499.25 154.85 500.3 155.15 504 155.95 506.4 158.8 509.3 162.25 510.25 168.65 Z"/>

<path fill="#406E3E" stroke="none" d="
M 396.15 295.15
Q 396.15 295.35 396.1 295.65 395.15 300.05 388.95 303.1 385.3 304.95 379.25 303.55
L 379.55 308
Q 384.65 308.65 390 307.2 390.6 307.05 391.1 306.9 395.85 304.8 397.9 301.85 400.1 298.7 399.3 294.6
L 395.8 294.35
Q 396.2 294.5 396.15 295.15
M 419.5 184.75
Q 419.5 182.1 418.15 179.45
L 413.9 180.25
Q 414.55 180.3 414.6 181.7 414.65 182 414.65 182.3 414.6 187.65 408.45 193 404.55 196.4 396.85 196.7
L 398.65 202
Q 405 201.15 411.05 197.65 411.65 197.3 412.25 196.9 417.3 192.85 418.85 188.65 419.55 186.7 419.5 184.75
M 327.35 67.9
Q 326.8 67.75 326.2 67.6 321.05 67.05 317.8 68.6 314.35 70.2 313 74.15
L 315.85 76.15
Q 315.55 75.75 316.3 74.9 319.3 71.5 326.2 72 330.3 72.25 334.8 76.45
L 336.8 72.4
Q 332.7 69.35 327.35 67.9
M 343.8 182.95
Q 343.25 182.75 342.65 182.65 337.55 182.1 334.3 183.6 330.8 185.25 329.5 189.2
L 332.35 191.2
Q 332.05 190.75 332.8 189.9 335.8 186.55 342.65 187 346.75 187.3 351.3 191.5
L 353.25 187.45
Q 349.2 184.4 343.8 182.95
M 386.3 98.1
Q 385.7 98.5 385.05 98.85 380.05 102.9 378.5 107.15 377.25 110.65 378.35 114.25 378.65 115.3 379.2 116.35
L 383.45 115.5
Q 382.8 115.45 382.75 114.05 382.7 113.8 382.7 113.55 382.7 108.15 388.9 102.75 392.75 99.35 400.5 99.1
L 398.7 93.75
Q 392.35 94.65 386.3 98.1
M 510.3 170.05
Q 510.3 169.35 510.25 168.65 509.3 162.25 506.4 158.8 504 155.95 500.3 155.15 499.25 154.85 498.05 154.8
L 496.65 158.9
Q 497 158.4 498.3 159 498.5 159.1 498.75 159.25 503.4 161.95 504.95 170 506 175.05 502.35 181.9
L 507.85 183
Q 510.25 177.05 510.3 170.05 Z"/>

<path fill="#C13635" stroke="none" d="
M 334.75 225.4
L 333.95 226.8
Q 331.45 229.4 329.25 234.85 322.45 265.85 343.7 282.3 358.05 296.25 385.95 295.8 387.2 295.15 388.3 294.35 392.2 292.5 395.55 290.2 412.65 275.2 412.7 253.65 412.5 218.6 382.8 209.45 350.95 203.2 334.9 225.25 334.8 225.3 334.75 225.4
M 383.35 234.6
Q 383.75 232.35 383.95 231.55 384.15 230.7 386.05 230.5 387.9 230.3 389.35 231.5 390.8 232.65 389.8 233.9 388.8 235.05 388.45 236.95 388.1 238.85 386.6 239.3 385.1 239.7 384.1 238.25 383.05 236.8 383.35 234.6
M 377.35 245.75
Q 379.15 245.55 380.6 247.3 382.1 249 382.45 250.6 382.85 252.15 381.85 253.3 380.85 254.4 378.85 256.55 376.85 258.6 375.4 256.9 373.9 255.15 373.65 252.5 373.4 249.9 374.45 247.9 375.55 245.95 377.35 245.75
M 363.9 231.85
Q 364.7 233 363.3 234.3 361.9 235.55 360.4 235.75 358.85 235.9 357.15 234.95 355.45 234 354.75 232.45 354.05 230.95 355.4 229.7 356.8 228.45 358.4 228.55 360 228.7 361.5 229.7 363.05 230.65 363.9 231.85
M 350.5 247.2
Q 349.45 247.35 348.6 246.65 347.75 245.95 347.7 244.9 347.55 243.9 348.25 243.05 348.95 242.2 350 242.1 351 242 351.85 242.65 352.7 243.35 352.8 244.4 352.9 245.45 352.2 246.25 351.55 247.1 350.5 247.2
M 359.05 257.05
Q 360.25 258.05 359.35 259.25 358.4 260.5 358.55 262.2 358.65 263.9 357.05 264.1 355.4 264.25 354.1 263.2 352.85 262.2 353.15 260.5 353.45 258.85 355.2 257.5 356.9 256.15 357.35 256.1 357.85 256.05 359.05 257.05
M 363.5 277.75
Q 361.75 275.65 363.35 274.2 364.9 272.8 366.7 272.7 368.45 272.6 368.6 274 368.75 275.4 371.2 276.65 373.7 277.95 372.1 279.35 370.6 280.75 368.45 281.05 366.3 281.4 365.8 280.6 365.2 279.85 363.5 277.75
M 386.4 268.4
Q 386.8 267.7 388.4 267.55 390 267.4 390.65 267.95 391.2 268.5 391.05 269.5 390.9 270.5 390.7 271.45 390.5 272.35 388.9 272.5 387.3 272.65 386.5 272 385.55 271.3 385.8 270.2 386.05 269.1 386.4 268.4
M 402.7 236.2
Q 408.9 260.4 397 271.95 403.95 257.65 402.7 236.2
M 351.6 275.1
Q 329.25 264.65 335.75 233.45 335.45 262.95 351.6 275.1
M 325.5 176.7
Q 326.8 176.2 327.95 175.5 332.05 174.1 335.6 172.15 354.15 158.95 356.5 137.55 359.85 102.7 331.3 90.5 300.3 80.95 282 101.25 281.9 101.3 281.85 101.4
L 280.9 102.7
Q 278.15 105.05 275.4 110.2 265.45 140.4 284.85 158.9 297.7 174.25 325.5 176.7
M 335.55 113.1
Q 336.85 114.45 335.75 115.55 334.6 116.65 334.05 118.45 333.5 120.3 332 120.6 330.45 120.8 329.6 119.3 328.75 117.75 329.3 115.6 329.85 113.4 330.15 112.6 330.45 111.8 332.35 111.8 334.2 111.8 335.55 113.1
M 325.2 127.9
Q 326.5 129.8 326.7 131.4 326.9 132.95 325.8 134 324.7 135 322.5 136.9 320.3 138.8 319 136.9 317.75 135.05 317.75 132.4 317.75 129.8 319 127.9 320.3 126.05 322.1 126.05 323.95 126.05 325.2 127.9
M 330.85 148.9
Q 332.45 148.9 333 149.5 333.55 150.15 333.3 151.1 333 152.05 332.75 152.95 332.45 153.85 330.85 153.85 329.25 153.85 328.45 153.1 327.6 152.3 328 151.25 328.35 150.15 328.8 149.55 329.25 148.9 330.85 148.9
M 348.35 119.15
Q 352 143.9 338.95 154.15 347.35 140.65 348.35 119.15
M 305.05 107
Q 306.6 107.25 308.05 108.4 309.45 109.55 310.15 110.85 310.9 112.1 309.35 113.2 307.85 114.3 306.3 114.3 304.75 114.3 303.15 113.2 301.55 112.1 301 110.5 300.45 108.95 302 107.8 303.5 106.7 305.05 107
M 293.45 120.3
Q 294.2 119.55 295.25 119.55 296.3 119.55 297.1 120.3 297.85 121.1 297.85 122.15 297.85 123.2 297.1 123.95 296.3 124.7 295.25 124.7 294.2 124.7 293.45 123.95 292.7 123.2 292.7 122.15 292.7 121.1 293.45 120.3
M 298.85 135.45
Q 300.65 134.25 301.15 134.25 301.65 134.25 302.75 135.4 303.85 136.5 302.8 137.6 301.75 138.75 301.7 140.45 301.65 142.15 300 142.15 298.35 142.15 297.2 141 296.05 139.85 296.55 138.2 297 136.55 298.85 135.45
M 310.5 153.25
Q 310.5 154.65 312.8 156.15 315.1 157.7 313.4 158.9 311.75 160.15 309.6 160.25 307.45 160.35 307 159.55 306.5 158.7 305 156.4 303.55 154.15 305.25 152.9 306.9 151.7 308.7 151.75 310.5 151.8 310.5 153.25
M 293.45 152.55
Q 272.3 139.85 282 109.5 278.65 138.8 293.45 152.55
M 441.05 95.65
Q 440.9 95.6 440.8 95.6
L 439.1 95.85
Q 435.35 95.6 429.45 97.35 399.7 112.35 400.35 140.5 398.7 159.3 413.7 179.35
L 418.3 178.45
Q 420.75 181.2 420.55 185.1 424.4 186.9 428.25 188 451.75 192.05 469.4 177.9 497.75 154.5 485.6 124.25 469.65 94.1 441.05 95.65
M 449.35 123.35
Q 448.2 122.2 447.85 120.15 447.5 118.2 448.25 116.6 449 115 451 115.3 452.9 115.65 453.9 117 454.8 118.35 455 120.25 455.25 122.15 454.85 123.65 454.4 125.1 452.5 124.75 450.5 124.5 449.35 123.35
M 452.45 143.75
Q 453.8 145.1 453.3 147.5 452.9 149.8 451.85 151.2 450.85 152.5 449.25 152.45 447.65 152.35 444.65 152.2 441.6 151.9 442.05 149.55 442.45 147.25 444.4 145.25 446.4 143.3 448.75 142.85 451.1 142.45 452.45 143.75
M 463 144.35
Q 463.5 142.55 465.55 141.35 467.55 140.15 468.35 139.8 469.15 139.45 470.55 140.8 471.95 142.2 472 144.15 472 146.1 470.3 146.1 468.7 146.1 466.9 147.05 465.1 148 463.8 147.05 462.5 146.1 463 144.35
M 432.65 120.95
Q 432.7 119.8 433.45 119.05 434.25 118.25 435.35 118.25 436.5 118.25 437.3 119.05 438.05 119.8 438.05 120.95 438.05 122.1 437.3 122.85 436.5 123.65 435.35 123.65 434.25 123.65 433.45 122.85 432.7 122.1 432.65 120.95
M 422.8 136.4
Q 422.8 134.7 424.35 133.8 425.9 132.95 428.15 133.5 430.35 133.95 430.75 134.3 431.1 134.7 431.1 136.35 431.05 138 429.45 138.05 427.9 138.1 426.55 139.3 425.25 140.55 424.05 139.3 422.8 138.1 422.8 136.4
M 434.9 101.75
Q 410.65 121 411.4 142.15 405.15 117.05 434.9 101.75
M 442.1 170.7
Q 441.2 171.2 440.3 171.7 439.45 172.1 438.25 170.9 437.05 169.75 437 168.6 437 167.4 438.05 166.85 439.1 166.3 439.95 166.15 440.75 166.05 441.95 167.25 443.15 168.45 443.1 169.3 443 170.15 442.1 170.7
M 417.7 159.9
Q 416.05 158.35 416.35 157.4 416.6 156.4 417.15 153.65 417.7 150.85 419.9 151.2 422.1 151.55 423.35 152.9 424.7 154.3 423.6 155.35 422.6 156.4 423.15 159.25 423.7 162.1 421.55 161.7 419.35 161.4 417.7 159.9
M 477 158.15
Q 461.35 179.25 444.05 177.2 460.3 173.35 477 158.15 Z"/>

<path fill="#9C1011" stroke="none" d="
M 335.75 233.45
Q 329.25 264.65 351.6 275.1 335.45 262.95 335.75 233.45
M 397 271.95
Q 408.9 260.4 402.7 236.2 403.95 257.65 397 271.95
M 282 109.5
Q 272.3 139.85 293.45 152.55 278.65 138.8 282 109.5
M 338.95 154.15
Q 352 143.9 348.35 119.15 347.35 140.65 338.95 154.15
M 444.05 177.2
Q 461.35 179.25 477 158.15 460.3 173.35 444.05 177.2
M 411.4 142.15
Q 410.65 121 434.9 101.75 405.15 117.05 411.4 142.15 Z"/>

<path fill="#DA7946" stroke="none" d="
M 388.4 267.55
Q 386.8 267.7 386.4 268.4 386.05 269.1 385.8 270.2 385.55 271.3 386.5 272 387.3 272.65 388.9 272.5 390.5 272.35 390.7 271.45 390.9 270.5 391.05 269.5 391.2 268.5 390.65 267.95 390 267.4 388.4 267.55
M 363.35 274.2
Q 361.75 275.65 363.5 277.75 365.2 279.85 365.8 280.6 366.3 281.4 368.45 281.05 370.6 280.75 372.1 279.35 373.7 277.95 371.2 276.65 368.75 275.4 368.6 274 368.45 272.6 366.7 272.7 364.9 272.8 363.35 274.2
M 359.35 259.25
Q 360.25 258.05 359.05 257.05 357.85 256.05 357.35 256.1 356.9 256.15 355.2 257.5 353.45 258.85 353.15 260.5 352.85 262.2 354.1 263.2 355.4 264.25 357.05 264.1 358.65 263.9 358.55 262.2 358.4 260.5 359.35 259.25
M 348.6 246.65
Q 349.45 247.35 350.5 247.2 351.55 247.1 352.2 246.25 352.9 245.45 352.8 244.4 352.7 243.35 351.85 242.65 351 242 350 242.1 348.95 242.2 348.25 243.05 347.55 243.9 347.7 244.9 347.75 245.95 348.6 246.65
M 363.3 234.3
Q 364.7 233 363.9 231.85 363.05 230.65 361.5 229.7 360 228.7 358.4 228.55 356.8 228.45 355.4 229.7 354.05 230.95 354.75 232.45 355.45 234 357.15 234.95 358.85 235.9 360.4 235.75 361.9 235.55 363.3 234.3
M 380.6 247.3
Q 379.15 245.55 377.35 245.75 375.55 245.95 374.45 247.9 373.4 249.9 373.65 252.5 373.9 255.15 375.4 256.9 376.85 258.6 378.85 256.55 380.85 254.4 381.85 253.3 382.85 252.15 382.45 250.6 382.1 249 380.6 247.3
M 383.95 231.55
Q 383.75 232.35 383.35 234.6 383.05 236.8 384.1 238.25 385.1 239.7 386.6 239.3 388.1 238.85 388.45 236.95 388.8 235.05 389.8 233.9 390.8 232.65 389.35 231.5 387.9 230.3 386.05 230.5 384.15 230.7 383.95 231.55
M 312.8 156.15
Q 310.5 154.65 310.5 153.25 310.5 151.8 308.7 151.75 306.9 151.7 305.25 152.9 303.55 154.15 305 156.4 306.5 158.7 307 159.55 307.45 160.35 309.6 160.25 311.75 160.15 313.4 158.9 315.1 157.7 312.8 156.15
M 301.15 134.25
Q 300.65 134.25 298.85 135.45 297 136.55 296.55 138.2 296.05 139.85 297.2 141 298.35 142.15 300 142.15 301.65 142.15 301.7 140.45 301.75 138.75 302.8 137.6 303.85 136.5 302.75 135.4 301.65 134.25 301.15 134.25
M 295.25 119.55
Q 294.2 119.55 293.45 120.3 292.7 121.1 292.7 122.15 292.7 123.2 293.45 123.95 294.2 124.7 295.25 124.7 296.3 124.7 297.1 123.95 297.85 123.2 297.85 122.15 297.85 121.1 297.1 120.3 296.3 119.55 295.25 119.55
M 308.05 108.4
Q 306.6 107.25 305.05 107 303.5 106.7 302 107.8 300.45 108.95 301 110.5 301.55 112.1 303.15 113.2 304.75 114.3 306.3 114.3 307.85 114.3 309.35 113.2 310.9 112.1 310.15 110.85 309.45 109.55 308.05 108.4
M 333 149.5
Q 332.45 148.9 330.85 148.9 329.25 148.9 328.8 149.55 328.35 150.15 328 151.25 327.6 152.3 328.45 153.1 329.25 153.85 330.85 153.85 332.45 153.85 332.75 152.95 333 152.05 333.3 151.1 333.55 150.15 333 149.5
M 326.7 131.4
Q 326.5 129.8 325.2 127.9 323.95 126.05 322.1 126.05 320.3 126.05 319 127.9 317.75 129.8 317.75 132.4 317.75 135.05 319 136.9 320.3 138.8 322.5 136.9 324.7 135 325.8 134 326.9 132.95 326.7 131.4
M 335.75 115.55
Q 336.85 114.45 335.55 113.1 334.2 111.8 332.35 111.8 330.45 111.8 330.15 112.6 329.85 113.4 329.3 115.6 328.75 117.75 329.6 119.3 330.45 120.8 332 120.6 333.5 120.3 334.05 118.45 334.6 116.65 335.75 115.55
M 416.35 157.4
Q 416.05 158.35 417.7 159.9 419.35 161.4 421.55 161.7 423.7 162.1 423.15 159.25 422.6 156.4 423.6 155.35 424.7 154.3 423.35 152.9 422.1 151.55 419.9 151.2 417.7 150.85 417.15 153.65 416.6 156.4 416.35 157.4
M 440.3 171.7
Q 441.2 171.2 442.1 170.7 443 170.15 443.1 169.3 443.15 168.45 441.95 167.25 440.75 166.05 439.95 166.15 439.1 166.3 438.05 166.85 437 167.4 437 168.6 437.05 169.75 438.25 170.9 439.45 172.1 440.3 171.7
M 424.35 133.8
Q 422.8 134.7 422.8 136.4 422.8 138.1 424.05 139.3 425.25 140.55 426.55 139.3 427.9 138.1 429.45 138.05 431.05 138 431.1 136.35 431.1 134.7 430.75 134.3 430.35 133.95 428.15 133.5 425.9 132.95 424.35 133.8
M 433.45 119.05
Q 432.7 119.8 432.65 120.95 432.7 122.1 433.45 122.85 434.25 123.65 435.35 123.65 436.5 123.65 437.3 122.85 438.05 122.1 438.05 120.95 438.05 119.8 437.3 119.05 436.5 118.25 435.35 118.25 434.25 118.25 433.45 119.05
M 465.55 141.35
Q 463.5 142.55 463 144.35 462.5 146.1 463.8 147.05 465.1 148 466.9 147.05 468.7 146.1 470.3 146.1 472 146.1 472 144.15 471.95 142.2 470.55 140.8 469.15 139.45 468.35 139.8 467.55 140.15 465.55 141.35
M 453.3 147.5
Q 453.8 145.1 452.45 143.75 451.1 142.45 448.75 142.85 446.4 143.3 444.4 145.25 442.45 147.25 442.05 149.55 441.6 151.9 444.65 152.2 447.65 152.35 449.25 152.45 450.85 152.5 451.85 151.2 452.9 149.8 453.3 147.5
M 447.85 120.15
Q 448.2 122.2 449.35 123.35 450.5 124.5 452.5 124.75 454.4 125.1 454.85 123.65 455.25 122.15 455 120.25 454.8 118.35 453.9 117 452.9 115.65 451 115.3 449 115 448.25 116.6 447.5 118.2 447.85 120.15 Z"/>

<path fill="#F1B226" stroke="none" d="
M 421.9 254.55
Q 422.05 252.6 422.15 250.55 423.05 214.15 397.55 203.4 397.5 203.4 397.45 203.4
L 397.4 203.35
Q 395.9 202.7 394.25 202.15 357.15 190.55 337.15 206 328.6 214.3 325 226.25 322.75 233.75 322.4 242.6 322.35 244.7 322.35 246.85 322.4 248.7 322.45 250.6 322.9 253.05 323.55 255.05 324.5 258.3 326 260.5 326.55 261.25 327.2 261.9 324.05 253.4 324.85 245.25 325.7 236.8 329.2 228.7 337.05 208.9 365.45 205.45 382.45 202.65 396.05 211.2 420.35 231.8 413.75 260.95 410.3 280.05 395.55 290.2 392.2 292.5 388.3 294.35 391.8 295.25 395.05 295.2 395.25 294.35 395.3 293.55
L 399.6 293.9
Q 399.75 294.2 399.85 294.5 401.15 294.15 402.4 293.55 420.95 275.85 418.75 239.35 421.4 243.3 421.9 254.55
M 365.5 139.4
Q 365.85 137.5 366.2 135.5 371.15 97.05 343.45 84.4 328.6 78.05 316.3 76.6 316.1 76.85 315.95 77.05
L 315.05 76.5
Q 298.4 74.85 286.3 82.35 276.9 89.7 272.1 101.25 269.05 108.45 267.8 117.25 267.5 119.3 267.3 121.45 267.15 123.25 267.05 125.15 267.55 133.05 270.6 136.9 268.3 128.15 270 120.1 271.7 111.85 276 104.1 285.85 85.25 314.5 84.7 331.65 83.7 344.3 93.6 366.3 116.65 356.75 144.95 351.35 163.55 335.6 172.15 332.05 174.1 327.95 175.5 335.45 178.35 342.05 176.2 362.4 160.5 364 124 366.2 128.2 365.5 139.4
M 497.3 154.25
Q 498.95 153.85 500.6 154.15 504.05 141.95 499.1 128.75 484.05 90.85 458.2 84.75 445.8 83.25 433.65 88.25 426.1 91.3 418.6 96.9 416.85 98.25 415.1 99.7 413.65 100.9 412.15 102.2 406.7 108.5 406.05 113.6 410.85 105.4 418.1 100.65 425.55 95.8 434.45 93.25 455.8 86.6 477.4 107.45 490.95 119.45 492.95 136.15 492.2 169.65 464.1 183.55 446.25 193.35 428.25 188 424.4 186.9 420.55 185.1 420.55 185.5 420.5 185.9 423.95 192.75 430 195.85 456.7 199.3 485.05 173.35 483.55 178.1 474.7 185.95 476.4 184.8 478.1 183.55 492.4 172.55 498.1 160.55 498.1 160.5 498.05 160.45 496.7 159.7 495.5 159.3
L 497.3 154.25 Z"/>

<path fill="#FFFCCE" stroke="none" d="
M 415.35 280.4
Q 420.5 269.4 421.9 254.55 421.4 243.3 418.75 239.35 420.95 275.85 402.4 293.55 409.8 290.3 415.35 280.4
M 474.7 185.95
Q 483.55 178.1 485.05 173.35 456.7 199.3 430 195.85 437.55 199.75 449.3 197.75 461.65 194.65 474.7 185.95
M 342.05 176.2
Q 349.8 173.7 356.3 164.45 362.6 154.05 365.5 139.4 366.2 128.2 364 124 362.4 160.5 342.05 176.2 Z"/>

<path fill="#FFD765" stroke="none" d="
M 499.9 183
L 502.55 177.35
Q 506.15 168.9 498.1 160.55 492.4 172.55 478.1 183.55 476.4 184.8 474.7 185.95 461.65 194.65 449.3 197.75 437.55 199.75 430 195.85 423.95 192.75 420.5 185.9 420.35 187.45 419.75 189.2 418.35 193.65 412.5 198 408.35 201.05 399.05 203.05 398.35 203.2 397.55 203.4 423.05 214.15 422.15 250.55 422.05 252.6 421.9 254.55 420.5 269.4 415.35 280.4 409.8 290.3 402.4 293.55 401.15 294.15 399.85 294.5 401.3 298.2 398.5 302.45 396.45 305.65 391.05 307.8 387.25 309.3 379.65 308.9 379 308.85 378.35 308.8
L 377.85 301.85 382.8 302.75
Q 390.1 303.8 394.9 295.75 395 295.45 395.05 295.2 391.8 295.25 388.3 294.35 387.2 295.15 385.95 295.8 375 301.05 349.85 289.2 345.1 285.9 340.15 281.6 339 280.65 337.85 279.55 332.1 272.6 328.85 265.7 328.7 265.45 328.6 265.25 327.85 263.55 327.2 261.9 326.55 261.25 326 260.5 344.85 301 346.4 303.5 347.25 304.85 348.05 306 349.1 304.5 350.15 304.3 357.3 301.35 359.25 304.05 361.2 306.7 363 307.55 365.65 308.75 366 310.95 366.4 313.8 365.8 315.45 365.2 317 364.55 318.15 376.25 320.55 391.3 309.8 412.55 293.3 432.7 268.5 448.05 247.15 468.25 226.15 492.9 202.25 507.85 184.6
L 499.9 183
M 447.8 224.2
Q 447.45 227 446.45 228.5 441.95 234.55 438.25 232.55 427.5 227.8 426.4 222.05 431.35 213.5 434.25 213.65 441.9 212.65 443.1 215.75 444.25 218.85 445.8 220.15 448 222 447.8 224.2
M 507.3 158.3
Q 510.5 161.75 511.3 169 511.9 174.1 508.95 183.1 508.95 183.2 508.95 183.35 519.6 170.55 524.95 161.15 540.1 135.2 536.5 123.75 530.9 106.25 500.45 93.8 456.8 74.3 384.35 64.5 337.45 58.85 306.9 65.5 276.95 73.1 267.95 87.7 268.85 88.6 269.05 89.85 269.45 92.7 268.85 94.35 267 99 264.6 100.15 263.8 110.15 267.3 121.45 267.5 119.3 267.8 117.25 269.05 108.45 272.1 101.25 276.9 89.7 286.3 82.35 298.4 74.85 315.05 76.5
L 312.4 74.65
Q 312.65 70.25 317.6 67.75 320.95 66 326.7 66.9 330.75 67.5 337.15 71.6 337.7 71.95 338.25 72.35
L 335.15 78.6 331.35 75.35
Q 325.6 70.85 317.4 75.35 316.75 76 316.3 76.6 328.6 78.05 343.45 84.4 371.15 97.05 366.2 135.5 365.85 137.5 365.5 139.4 362.6 154.05 356.3 164.45 349.8 173.7 342.05 176.2 335.45 178.35 327.95 175.5 326.8 176.2 325.5 176.7 314.05 180.85 290.25 166.4 285.85 162.65 281.4 157.85 309.75 225.35 310.7 227.35 317.8 242.75 323.55 255.05 322.9 253.05 322.45 250.6 322.4 248.7 322.35 246.85 322.35 244.7 322.4 242.6 322.75 233.75 325 226.25 328.6 214.3 337.15 206 357.15 190.55 394.25 202.15 395.9 202.7 397.4 203.35
L 394.65 195.05 400.9 194.6
Q 410 193.5 413.25 182.25 413.25 181.65 413.2 181.1 404.45 173.25 398.8 150.05 398.35 144.05 398.55 137.2 398.6 135.55 398.7 133.95 400.6 124.6 404 117.4 404.15 117.15 404.25 116.9 405.1 115.2 406.05 113.6 406.7 108.5 412.15 102.2 413.65 100.9 415.1 99.7 416.85 98.25 418.6 96.9 426.1 91.3 433.65 88.25 445.8 83.25 458.2 84.75 484.05 90.85 499.1 128.75 504.05 141.95 500.6 154.15 504.15 154.7 507.3 158.3
M 527 128.1
Q 529.65 129.3 530 131.45 530.4 134.3 529.75 136 527 143 522.9 142.05 511.3 140.15 508.8 134.95 511.35 125.4 514.15 124.8 521.3 121.85 523.25 124.55 525.2 127.25 527 128.1
M 357.85 80.6
Q 360.45 71.05 363.25 70.45 370.35 67.5 372.35 70.2 374.25 72.9 376.1 73.75 378.7 74.95 379.05 77.15 379.5 79.95 378.85 81.65 376.1 88.65 372 87.7 360.4 85.85 357.85 80.6
M 398.45 92.7
Q 399.15 92.55 399.9 92.35
L 402.7 100.65 396.5 101.15
Q 387.35 102.25 384.15 113.4 384.1 113.45 384.1 113.55 384.1 115.1 384.35 116.3
L 379.05 117.25
Q 377.95 116 377.35 114.5 376.1 111.15 377.65 106.55 379 102.15 384.9 97.75 388.95 94.7 398.3 92.75 398.35 92.75 398.45 92.7
M 332.45 192.1
L 328.9 189.7
Q 329.1 185.3 334.1 182.8 337.45 181.05 343.2 181.9 347.25 182.55 353.65 186.65 354.2 187 354.75 187.4
L 351.65 193.65 347.85 190.4
Q 342.05 185.9 333.85 190.4 333 191.25 332.45 192.1
M 387.35 155.5
Q 387.75 158.3 387.15 160 384.4 167 380.3 166.05 368.7 164.2 366.15 158.95 368.75 149.4 371.5 148.8 378.65 145.85 380.6 148.55 382.55 151.25 384.35 152.1 387 153.3 387.35 155.5
M 324.7 204.1
Q 325.1 206.95 324.5 208.6 321.75 215.65 317.65 214.65 306 212.8 303.5 207.55 306.05 198.05 308.85 197.4 316 194.45 317.95 197.2 319.9 199.85 321.7 200.7 324.35 201.9 324.7 204.1 Z"/>

<path fill="#EDA969" stroke="none" d="
M 522.85 87.65
Q 527.45 91.9 535.2 97.75 541.25 102.3 548.55 111.25 559.2 121.15 576.75 121.5 576.4 106.65 563 92.35 521.55 53.3 464.6 40.8 421 29.05 381.35 30.15 382.65 30.45 383.9 30.85 352.2 24.75 314.6 33.45 290.1 37.6 258.25 53.95 282.25 37.55 317.15 30.2 274.35 25.15 255.15 41.45 241.1 54.1 247.05 77.65 267.75 78.85 287.4 64.15 289.4 62.2 291.45 60.45 296.25 56.35 301.1 53.5 310.8 47.75 323.85 51.5 339.3 56.45 356.4 46.95 377.15 34.9 400.2 45.2 430.95 62.35 462.1 64.05 499.15 65.85 522.85 87.65 Z"/>

<path fill="#D58449" stroke="none" d="
M 604.45 89.2
Q 604.6 83.85 601.65 78.6 601 77.5 600.3 76.45 598.8 74.35 596.85 72.25 590.75 68.45 583.7 66 574.7 62.35 562.7 55.95 557 52.95 549.6 49.9 539.85 45.9 523.9 39.5 513.05 35.1 499.25 29.6 493.7 27.4 486.7 25.15 482.4 23.85 477.75 22.5 476.9 22.25 476.05 22.05 458.9 17.2 434.95 12.2 428.75 10.9 422.1 9.6 403.3 6.5 374.3 5.65 372.05 5.55 369.7 5.5 354.35 5.15 321.85 8.35 320.05 8.5 317.45 8.9 306.9 10.4 282.3 15.15 278.95 15.8 245.1 25.05 238.3 26.05 233.65 28.25 218.45 35.2 225.45 53.75 226.1 55.45 235.5 75.8 241.3 77.35 247.05 77.65 241.1 54.1 255.15 41.45 274.35 25.15 317.15 30.2 317.4 30.15 317.65 30.1 320.55 29.5 323.55 28.95 357.1 23.8 381.2 30.1 381.25 30.1 381.35 30.15 421 29.05 464.6 40.8 528.2 50.35 563 92.35 576.4 106.65 576.75 121.5 579.55 121.55 582.55 121.35 590.55 113.55 596.3 106.05 598.75 103.2 600.5 100.3 603.75 94.85 604.45 89.2
M 566.1 72
Q 583.4 78.9 595.2 87.8 580.35 83.5 566.1 72
M 380 15.05
Q 436.65 12.75 487.6 32.15 435.8 17.6 380 15.05
M 244.8 38.75
Q 238.45 45.65 230 48.85 237.05 40.75 244.8 38.75 Z"/>
</g>

<path id="Layer0_0_1_STROKES" stroke="#000000" stroke-width="0.1" stroke-linejoin="round" stroke-linecap="round" fill="none" d="
M 595.2 87.8
Q 583.4 78.9 566.1 72 580.35 83.5 595.2 87.8 Z
M 487.6 32.15
Q 436.65 12.75 380 15.05 435.8 17.6 487.6 32.15 Z
M 244.8 38.75
Q 238.45 45.65 230 48.85 237.05 40.75 244.8 38.75 Z"/>
</defs>

<g transform="matrix( 1, 0, 0, 1, 0,0) ">
<use xlink:href="#Layer0_0_FILL"/>

<use xlink:href="#Layer0_0_1_STROKES"/>
</g>
</svg>
